<svg version="1.1" xmlns="http://www.w3.org/2000/svg" xmlns:xlink="http://www.w3.org/1999/xlink" width="287.84205" height="210.60817" viewBox="0,0,287.84205,210.60817"><g transform="translate(-102.58826,-168.63586)"><g data-paper-data="{&quot;isPaintingLayer&quot;:true}" fill-rule="nonzero" stroke="none" stroke-width="0.5" stroke-linecap="butt" stroke-linejoin="miter" stroke-miterlimit="10" stroke-dasharray="" stroke-dashoffset="0" style="mix-blend-mode: normal"><path d="M266.70686,301.76881c0.26429,0.18326 0.47101,0.37693 0.63059,0.57532c0.17934,-0.03018 0.3576,-0.06118 0.53461,-0.09323c0,0 2.33626,-0.42303 2.86754,1.83216c0.09228,-0.04286 0.18433,-0.08619 0.27615,-0.13002c1.00364,-0.47911 1.67272,-1.52532 2.69116,-1.9721c1.72678,-0.75751 3.85029,-0.22641 5.56634,-1.0079c1.79822,-0.81891 3.02963,-2.55904 4.70817,-3.6015c1.15404,-0.71671 2.55242,-1.04301 3.6035,-1.90364c0.72892,-0.59684 0.92573,-1.66611 1.58188,-2.34213c1.3899,-1.432 2.81289,-2.83239 4.17535,-4.29053c1.46516,-1.56804 3.40378,-2.62815 5.01645,-4.04111c-0.5696,-0.25495 -1.11688,-0.77567 -1.30497,-1.81441c-0.44543,-2.45999 2.01456,-2.90543 2.01456,-2.90543l1.39159,-0.25197c0.72157,-0.12771 1.49695,-0.2625 2.29998,-0.39055c1.55501,-2.36336 2.92374,-4.95715 3.9706,-7.37392c-1.20342,-1.89089 0.65357,-3.28153 0.65357,-3.28153c0.72594,-0.54151 1.48809,-1.04523 2.27322,-1.52548c1.29293,-1.69867 2.60594,-3.44603 3.48906,-5.19846c1.54303,-3.06193 1.66292,-5.90492 3.68635,-8.88311l-0.06546,0.04762c-0.06449,0.08652 -0.12762,0.17418 -0.18926,0.26307l-2.83238,2.16141c0,0 -0.02198,0.01646 -0.06306,0.04362c0.2998,0.60636 0.40756,1.43968 -0.26868,2.41495c-1.42451,2.05445 -3.47896,0.62994 -3.47896,0.62994l-1.85725,-2.17882c-0.8612,-5.71883 -6.4655,-9.67636 -10.90753,-12.75638c-1.30438,-0.90443 -2.5771,-1.80398 -3.84492,-2.6827c-0.08676,-0.04919 -0.17478,-0.10448 -0.26398,-0.16633c-0.08605,-0.05966 -0.16598,-0.12043 -0.24017,-0.1821c-3.43372,-2.3657 -6.85744,-4.56275 -10.80339,-6.27322c-6.53844,-4.49738 -13.34628,-7.23801 -20.43968,-10.55365c-2.45712,-1.14852 -4.65544,-2.89087 -7.23979,-3.71411c-1.67071,-0.5322 -3.48221,-0.58275 -5.11859,-1.21261c-0.90746,-0.3493 -1.49284,-1.29498 -2.38725,-1.67648c-2.3169,-0.98825 -5.01128,-0.72281 -7.40448,-1.50846c-4.56022,-1.49706 -9.61044,-3.94338 -14.49201,-4.28004c-1.03555,-0.07141 -2.0512,0.51277 -3.08526,0.42227c-4.83561,-0.42319 -9.51533,-2.4377 -14.31026,-1.56949c-1.15717,-0.32149 -2.32448,-0.56816 -3.49886,-0.75396l0.07123,0.55946c0.11732,0.29675 2.68268,6.77459 2.73072,6.93951c1.44658,4.96591 0.26376,10.31128 -0.17565,15.30636c-0.43741,4.97235 -1.22985,9.93198 -3.57737,14.49409c-1.03437,2.01017 -3.07732,3.31311 -4.65398,4.93326c-3.90601,4.01375 -7.40497,8.28782 -13.44049,9.38067c-2.41119,0.43659 -6.54776,-0.36129 -8.84756,-0.68911c-4.58488,-0.71823 -9.97649,-1.52621 -14.23875,-3.51487c-0.92111,-0.42977 -1.59124,-1.29682 -2.5101,-1.73134c-7.45827,-3.52693 -15.15468,-6.15076 -20.35002,-13.01937c-3.08251,-4.0753 -6.01054,-8.22369 -5.53948,-13.74626c0.14838,-1.73968 0.97483,-4.08126 1.88035,-6.3417c-0.96635,0.56556 -1.93313,1.11805 -2.90261,1.6476c-2.01427,1.50892 -4.37584,2.51236 -6.39151,4.01941c-4.43021,3.31232 -8.00779,7.86444 -11.70242,11.84705c-0.93471,1.00757 -2.14828,1.72675 -3.101,2.71731c-1.97383,2.05222 -2.05735,5.00913 -2.9502,7.5725c-0.226,0.64884 -0.94955,1.21191 -0.82713,1.88798c0.12242,0.67607 0.99879,0.94858 1.43663,1.47807c1.98833,2.40451 3.65754,3.59682 6.24964,5.39413c2.85181,1.97739 4.73152,3.83752 7.1369,6.20473c2.36932,2.33171 5.99937,4.12056 8.72889,6.01315c2.39012,1.65726 5.20503,4.25742 7.87032,5.4964c0.95586,0.44433 2.08432,0.4326 3.03514,0.88764c2.10471,1.00727 3.66236,2.95135 5.75246,3.98864c0.62545,0.3104 1.33686,0.3994 2.02228,0.55637c0.60157,-1.14745 1.40274,-2.20686 2.12199,-3.19802c0.77552,-1.06869 1.31585,-2.40533 2.41094,-3.14311c0.97953,-0.65993 2.32137,-0.45906 3.45042,-0.8058c1.27507,-0.39158 2.41745,-1.29675 3.74693,-1.40451c8.43938,-0.68408 15.12842,5.86144 22.81587,7.80827c3.07983,2.12119 6.00951,2.35799 9.32623,4.03514c0.1926,-0.51651 0.60912,-1.02353 1.43876,-1.35155c2.32487,-0.91923 3.2441,1.40564 3.2441,1.40564c0.44361,1.13241 0.81437,1.97175 1.11425,2.7606c0.82769,-0.31782 1.55971,-0.97921 2.43772,-1.13451c1.03144,-0.18244 2.17975,0.62649 3.13601,0.19906c1.2393,-0.55393 3.40688,-3.90326 4.24461,-5.10859c0.57589,-0.82861 1.25522,-1.68762 1.93891,-2.5661c0.13846,-0.5023 0.45189,-1.16523 1.16074,-1.52697c0.71099,-0.97213 1.36047,-1.95979 1.82247,-2.94904c1.77756,-3.80621 3.19334,-8.14689 4.80361,-12.07541c1.01527,-2.47691 1.68195,-5.56211 3.88928,-7.42078c4.8061,-4.04697 9.81166,-3.62622 15.46776,-4.54944c6.31979,1.72566 15.06139,3.16384 18.09182,10.11076c2.43287,5.57708 -1.78007,10.64585 -4.19909,15.12388c-2.57969,4.77545 -4.81556,10.24513 -8.70848,14.29067c-0.7309,0.75955 -1.81125,1.12561 -2.5312,1.89553c-1.79971,1.92465 -2.73202,4.54391 -4.49318,6.5039c-1.64313,1.82862 -4.03156,2.87529 -5.69746,4.68319c-0.88119,0.9563 -1.69606,1.98759 -2.55549,2.96991c0.55815,-0.07982 1.11158,-0.15418 1.6597,-0.22173c2.69592,-0.33224 5.25278,-1.53323 7.96132,-1.73863c4.16543,-0.31588 5.96522,0.85075 10.02585,0.65487c1.44421,-0.06966 2.82488,-0.74118 4.27064,-0.75952c1.4103,-0.01789 2.7751,0.76939 4.18065,0.65232c1.06664,-0.08883 1.93439,-0.9375 2.95902,-1.24694c1.13914,-0.34404 2.3475,-0.58683 3.57267,-0.79026l0.37291,-0.6296c0,0 1.42451,-2.05445 3.47896,-0.62994zM263.62734,313.88239c0,0 -0.32092,1.09733 -1.27078,1.59082c0.07531,2.29253 0.27733,4.5874 0.08087,6.86923c-0.08545,0.99252 -0.79269,1.86548 -0.87202,2.85849c-0.4509,5.64399 2.95595,12.39138 5.25576,17.21486c2.23153,4.68028 4.79874,10.43785 8.63179,14.13151c1.94722,1.87641 4.20147,3.43283 6.04009,5.41578c2.70871,2.92135 4.75265,5.6983 8.02792,7.98931c3.17066,0.88717 6.31628,2.25828 9.47342,3.06775c2.52262,0.64678 5.20798,0.27897 7.78546,0.65118c2.51217,0.36277 4.63997,1.23686 7.22575,0.0593c2.41528,-1.09992 4.96226,-3.79963 7.09374,-5.39584c1.39606,-1.04546 3.37298,-1.47477 4.33559,-2.92919c1.01196,-1.52897 -1.8603,-3.45406 -2.26663,-3.87486c-1.83378,-1.89903 -4.02002,-3.42933 -5.90474,-5.27781c-3.10938,-3.04961 -4.49303,-6.76445 -8.14631,-9.29756c-3.03578,-3.97819 -5.56766,-8.50407 -8.82994,-12.27199c-1.12616,-1.30072 -2.54246,-2.34757 -3.57103,-3.72676c-0.71695,-0.96135 -3.70332,-6.84717 -4.4561,-8.0506c-0.698,-1.11584 -3.52237,-4.41471 -3.98063,-5.41662c-0.43771,-0.95696 -0.31282,-2.08859 -0.61623,-3.09621c-1.16274,-3.86143 -2.06711,-7.48848 -2.8043,-11.45671c-1.37196,1.06689 -3.0054,2.35859 -3.58837,2.62028c-1.72024,0.77222 -3.8587,0.2082 -5.56634,1.0079c-0.90215,0.42249 -1.47224,1.38981 -2.37123,1.81897c-2.82367,1.34794 -5.88454,2.19381 -8.62551,3.70283c0,0 -0.21766,0.11915 -0.55335,0.21381c-0.194,0.50553 -0.37223,1.0295 -0.52687,1.58214zM240.08531,284.37072l-1.89553,-2.5312c-1.50053,-2.00624 -3.41557,-3.70513 -4.74563,-5.82822c-0.6861,-1.09518 -0.89936,-2.42685 -1.45511,-3.59359c-1.06636,-2.2387 -2.77087,-4.12136 -3.96207,-6.2962c-1.04543,-1.90871 -1.82882,-3.95168 -2.77456,-5.91144c-1.69469,2.44114 -2.78499,7.14538 -3.66931,9.18393c-1.09287,2.51931 -1.73243,5.22683 -2.91334,7.70609c-0.65696,1.37926 -1.60582,2.75527 -2.60415,4.09797c0.15742,4.91352 2.45289,9.23866 4.4344,13.74864l1.67223,1.53408c0,0 1.80762,1.727 0.08063,3.53461c-1.727,1.80762 -3.53461,0.08063 -3.53461,0.08063l-2.29878,-2.25981c-1.718,-3.72357 -3.44575,-7.25614 -4.45724,-11.0202c-1.39871,1.95595 -2.97805,3.87457 -5.14268,4.93427c-1.21982,0.59716 -2.73826,-0.17893 -4.07389,0.06735c-0.8635,0.15923 -1.63698,0.7006 -2.44757,1.05157c-0.05511,0.87621 -0.25187,1.75811 -0.09631,2.61724c0.19966,1.10266 0.94966,2.03886 1.26987,3.11274c0.90478,3.03435 1.0572,5.68974 2.25436,8.68576l0.3871,1.86538c0,0 0.01448,0.07996 0.0238,0.21365c4.08194,0.16498 8.32032,-0.31508 12.51412,-0.96881l1.75962,-1.49993c1.54336,-0.23242 3.03653,-0.97305 4.26124,-1.94058c1.79547,-1.3121 2.99097,-3.2919 4.50923,-4.91677c1.63515,-1.74997 3.97163,-2.75614 5.56694,-4.54251c1.79734,-2.0126 2.79458,-4.66082 4.6237,-6.64458c0.71453,-0.77495 1.79183,-1.14425 2.5312,-1.89553c0.51476,-0.52305 0.99578,-1.07743 1.44909,-1.65619c-0.78375,-0.2834 -1.26675,-0.92837 -1.26675,-0.92837zM232.39153,263.68214c1.24679,2.2787 3.00305,4.26858 4.12401,6.61175c0.47965,1.00263 0.60632,2.17044 1.19634,3.11236c1.24651,1.98995 3.0715,3.55746 4.48007,5.43617l1.79296,2.39423c1.36747,-2.46975 2.52523,-5.07153 3.7998,-7.42726c1.32686,-2.45239 5.70274,-7.37044 4.04161,-10.80084c-2.39366,-4.94314 -9.29328,-5.6844 -13.77147,-7.11511c-3.11729,0.63517 -5.89875,0.50196 -8.63204,1.48114c1.03499,2.07932 1.8535,4.26932 2.96872,6.30757zM196.66339,299.97051c-0.36667,-1.22973 -1.15295,-2.33053 -1.38159,-3.59321c-0.32368,-1.78759 -0.37438,-3.09282 -0.48244,-4.35002c-0.95532,-0.65934 -1.8429,-1.50874 -3.33718,-2.29767c-3.17198,-1.67467 -6.23381,-1.90237 -9.22076,-3.98792c-3.62027,-0.84838 -7.26351,-3.25589 -11.00018,-5.10754c-0.33273,1.48756 -0.63202,2.98344 -1.02577,4.45583c-0.24212,0.90538 -0.95539,1.72892 -0.89795,2.66437c0.06232,1.01492 0.95529,1.81203 1.23289,2.79023c0.02761,0.09728 0.52592,2.83741 0.90684,4.93928c5.62182,2.73995 11.34311,5.31891 16.91896,7.98739c3.17653,1.52022 5.09991,3.49293 8.50387,4.76158c0.67596,0.19991 1.36067,0.37055 2.05302,0.51452c-1.1071,-2.99272 -1.36777,-5.75199 -2.26972,-8.77685zM170.10355,302.03978c-2.45999,0.44543 -2.90543,-2.01456 -2.90543,-2.01456l-0.20776,-1.14739c-1.23545,-0.62274 -2.46418,-1.25494 -3.6838,-1.89855c-0.21151,-0.11161 -0.42137,-0.22699 -0.62972,-0.34578c1.80224,1.6306 3.83827,3.05619 5.31156,4.98684c0,0 1.49855,2.00109 -0.50254,3.49964c-2.00109,1.49855 -3.49964,-0.50254 -3.49964,-0.50254c-1.3121,-1.79547 -3.29496,-2.9877 -4.91677,-4.50923c-1.53749,-1.44242 -2.27726,-3.59515 -3.79107,-5.06239c-0.79582,-0.77134 -2.02326,-1.06951 -2.68887,-1.95566c-0.80057,-1.06585 -0.92285,-2.51012 -1.54928,-3.68679c-0.45052,-0.84624 -1.2997,-1.51869 -1.79878,-2.32475c-0.20998,-0.10709 -0.42162,-0.2104 -0.63506,-0.30962c-0.95586,-0.44433 -2.09425,-0.41244 -3.03514,-0.88764c-2.08278,-1.0519 -3.63656,-3.00506 -5.75246,-3.98864c-0.95586,-0.44433 -2.08432,-0.4326 -3.03514,-0.88764c-2.92464,-1.39966 -5.91413,-4.06146 -8.56527,-5.89971c-6.46235,-4.48086 -11.93247,-9.44265 -18.33113,-13.9273c-2.41711,-1.69408 -6.72268,-5.23724 -7.29188,-8.38083c-0.12806,-0.70723 1.51233,-6.13086 1.83578,-7.21745c1.35956,-4.56733 3.08811,-5.79498 6.23254,-9.18092c3.92387,-4.22524 7.76253,-9.01491 12.45906,-12.53717c2.10006,-1.57498 4.5576,-2.63097 6.65901,-4.20413c4.42415,-2.4272 8.81533,-5.31153 13.35209,-7.77733c-4.54369,-2.15946 -8.98366,-4.45726 -13.34636,-7.48227c0,0 -2.05445,-1.42451 -0.62994,-3.47896c1.42451,-2.05445 3.47896,-0.62994 3.47896,-0.62994c5.28772,3.6664 10.70111,6.20906 16.28085,8.78027c0.33138,-0.13866 0.66386,-0.2734 0.99749,-0.40391c2.26437,-0.88576 4.82119,-0.70788 7.17296,-1.32522c0.66066,-0.17342 1.31233,-0.34178 1.95728,-0.50459c0.44508,-1.51291 0.95392,-3.01436 1.24726,-4.55978c1.21567,-6.40485 2.97382,-11.90613 6.72888,-17.32171c0.78969,-2.11883 1.52529,-4.2603 2.15869,-6.43099l0.88764,-3.03514c0,0 0.70174,-2.39949 3.10123,-1.69776c2.39949,0.70174 1.69776,3.10123 1.69776,3.10123l-0.88764,3.03514c-0.72904,2.48761 -1.60611,4.9317 -2.53146,7.35315c-3.78864,5.46401 -5.87785,11.84282 -7.24791,18.36098c3.24261,-0.66998 6.47162,-1.15651 10.00514,-1.39391c4.77978,-0.32114 9.64442,0.5981 14.4198,0.26343c6.27563,-0.43981 13.06962,-0.9981 19.17906,0.89448c4.82465,-0.8736 9.44728,1.14662 14.28251,1.5681c1.08196,0.09431 2.14941,-0.50165 3.23186,-0.41319c5.3135,0.43421 10.71825,2.86967 15.67773,4.5176c2.48914,0.82709 5.27039,0.63088 7.70098,1.61687c0.95229,0.3863 1.58472,1.37227 2.54343,1.74235c1.47399,0.56899 3.12458,0.53884 4.62765,1.02588c2.76958,0.89744 5.16316,2.69559 7.79909,3.93165c7.19778,3.37525 14.17239,6.10118 20.78101,10.72672c3.55736,1.54073 6.26723,3.18611 9.25242,5.20026c0.79342,-1.54656 1.45165,-3.17515 2.29592,-4.69461c2.59444,-4.66929 6.23785,-9.05242 9.28856,-13.45218c2.63566,-3.80117 5.09015,-8.42375 8.23199,-11.81561c0.77186,-0.83328 1.85679,-1.31573 2.71094,-2.06443c4.23555,-3.71266 7.84726,-8.0413 12.67108,-11.06743c3.86993,-2.42772 8.11061,-4.44696 12.12257,-6.63209c4.31985,-1.44498 8.48556,-3.42792 13.07013,-3.85942c7.36101,-0.69282 14.49727,0.25773 21.87622,0.38748c2.83713,0.04988 12.2036,-0.74622 13.74361,1.99571c2.53813,4.51902 -2.28171,7.05918 -4.56705,8.96581c-2.82666,2.35825 -5.89624,5.57277 -9.00491,7.52194c-0.93437,0.58585 -2.21808,0.49111 -3.10202,1.15059c-0.73446,0.54795 -0.82098,1.69548 -1.51492,2.29392c-2.22171,1.91598 -5.01823,3.28551 -7.8845,3.91124c-4.56892,4.17145 -10.07576,6.99109 -14.70643,11.05197c-7.61689,6.67963 -14.25099,14.0799 -20.95805,21.56512c-0.91717,1.02358 -2.1813,1.69603 -3.101,2.71731c-0.78548,0.87224 -3.16913,4.90334 -4.0539,5.82281c-0.53236,0.55323 -1.10393,1.07385 -1.67141,1.5977c1.62363,0.24874 1.94797,2.03997 1.94797,2.03997l-0.15357,3.26153c-1.51131,2.12285 -1.7714,4.11355 -2.4985,6.27397c1.47827,-0.94325 2.86792,-1.98794 4.07894,-3.23168c2.03221,-2.08713 3.07988,-5.17474 5.06298,-7.32567c0.93161,-1.01045 2.18363,-1.69393 3.101,-2.71731c0.91112,-1.01642 1.4126,-2.36005 2.34449,-3.35747c1.7044,-1.82425 3.90701,-3.11212 5.78432,-4.7579c3.88417,-3.40512 7.80253,-7.27066 12.0492,-10.21603c2.37539,-1.64751 5.02321,-2.86983 7.44116,-4.45422c1.63502,0.43106 3.46569,0.40591 4.90509,1.29318c3.04582,1.87751 4.55357,7.21402 4.79262,10.52093c0.28317,3.91734 -0.16348,8.73568 -1.82497,12.34471c-2.17671,4.72819 -5.38389,9.01692 -6.46445,14.31074c-1.00463,4.92183 1.12922,12.26796 -3.56707,15.67438c-0.90113,0.65363 -4.91812,0.91749 -6.2336,1.30974c-1.22973,0.36667 -2.32947,1.15883 -3.59321,1.38159c-0.32286,0.05691 -7.11008,-0.08133 -7.70099,-0.09212c-5.67131,-0.12415 -11.22426,1.54978 -16.8597,1.6321c-1.49055,0.02177 -2.93615,-0.65556 -4.42673,-0.63566c-1.4721,0.01965 -2.88008,0.77972 -4.35206,0.75287c-1.05392,-0.01924 -1.98368,-0.81321 -3.03514,-0.88764c-1.29508,-0.09167 -2.80712,0.01626 -4.31966,0.20746c-0.958,1.30646 -1.96211,2.52005 -2.98607,3.57821c-1.66549,1.72111 -3.94399,2.78121 -5.56694,4.54251c-1.39564,1.5146 -2.86874,2.95594 -4.30587,4.43121c-0.73829,0.75788 -1.01849,1.91807 -1.83695,2.58855c-0.46032,0.3771 -0.96881,0.68262 -1.49589,0.96105c0.00307,0.01449 0.00447,0.02222 0.00447,0.02222l0.25197,1.39159c0.72631,4.0112 1.63898,7.58761 2.78171,11.46225c0.23583,0.79961 0.05368,1.70806 0.39167,2.47013c0.80107,1.80622 2.55154,3.03432 3.6015,4.70817c1.57256,2.50699 2.49226,5.41821 4.27138,7.78309c0.96962,1.28885 2.3157,2.25148 3.3697,3.47229c3.15115,3.64984 5.63022,7.99822 8.48184,11.90035c3.66856,2.5437 5.05439,6.31474 8.15757,9.30845c2.75277,2.65566 8.08293,5.50349 9.32879,9.41676c0.5669,1.78064 0.52381,3.87526 -0.18838,5.60291c-0.54224,1.31536 -2.14904,1.86611 -3.258,2.75741c-3.0941,2.48681 -7.01661,6.25324 -10.62463,7.8729c-3.48069,1.5625 -6.53863,0.79086 -9.97722,0.29982c-2.74283,-0.39169 -5.58962,-0.08125 -8.2779,-0.75186c-3.42085,-0.85337 -6.97623,-2.36836 -10.381,-3.39768c-3.93448,-2.71134 -6.34836,-5.63354 -9.55302,-9.11571c-1.76393,-1.91668 -3.97074,-3.37909 -5.83133,-5.2021c-2.71116,-2.65639 -4.33623,-6.28552 -6.30565,-9.43198c-2.98961,-4.77638 -5.73059,-9.7692 -7.26643,-15.28574c-2.08009,-7.47142 -1.21063,-14.44299 -1.07379,-22.04208c0,0 0.03905,-2.1375 2.02155,-2.42313c0.30789,-0.7799 0.64773,-1.51353 0.99153,-2.23732c-1.1587,0.41652 -2.22098,1.19085 -3.44304,1.30486c-1.56442,0.14596 -3.10178,-0.64294 -4.67281,-0.619c-1.3824,0.02105 -2.69771,0.69016 -4.07887,0.75233c-3.31424,0.14916 -6.62271,-0.91204 -9.9308,-0.66117c-1.32833,0.10073 -5.9055,1.48506 -7.62758,1.70202c-11.36501,1.43178 -24.05624,5.02802 -35.30318,1.76889c-3.54557,-1.35493 -5.79412,-3.46754 -9.07134,-4.99097c-4.81875,-2.24002 -9.72074,-4.47132 -14.56645,-6.80824c-0.30387,0.39319 -0.78774,0.72612 -1.55214,0.86454zM165.74212,291.91594c-0.36173,-1.3403 -1.35522,-2.52891 -1.41857,-3.91572c-0.14028,-3.07054 1.46599,-5.97036 2.15353,-8.96621c0,0 0.02353,-0.10246 0.08196,-0.26055c-1.47956,-0.39905 -2.97743,-0.58435 -4.49773,-0.43358c-1.06511,0.10563 -1.92981,0.95307 -2.95902,1.24694c-0.68129,0.19452 -1.51832,-0.17852 -2.11592,0.2021c-0.45418,0.28928 -2.21158,2.86815 -2.91625,4.39988c3.9226,2.66483 7.41644,6.20105 11.57423,8.37064c0.0987,0.05151 0.19747,0.10292 0.29629,0.15427c-0.06124,-0.26703 -0.12706,-0.53305 -0.19852,-0.7978zM163.21307,211.02709c-0.63266,3.94215 1.09496,6.21351 -4.62303,7.58343c-3.62816,0.86924 -4.49136,-1.60565 -7.02295,-2.80094c-0.8976,-0.42381 -1.79079,-0.83949 -2.67976,-1.25121c-2.23657,1.05645 -4.42445,2.27149 -6.58812,3.5377c-0.02781,0.47618 -0.15857,0.82225 -0.15857,0.82225c-0.84752,2.23974 -1.51795,4.54274 -2.31289,6.80167c-0.39312,1.11712 -1.23228,2.11152 -1.3386,3.29101c-0.48084,5.33441 4.29452,11.19482 8.34669,13.97909c9.21262,6.33007 18.93737,10.90511 30.0533,12.63317c1.03977,0.15049 5.71034,0.98652 7.2158,0.71393c4.96498,-0.89901 7.57332,-4.68062 10.73186,-7.9311c0.73459,-0.75598 1.78206,-1.15397 2.5312,-1.89553c2.11889,-2.09744 2.64655,-5.5953 3.45474,-8.32394c0.58686,-1.98136 0.6826,-4.08052 0.86107,-6.13924c0.37039,-4.2726 1.65802,-9.27487 0.35121,-13.53324c-0.68111,-2.21944 -1.71857,-4.31343 -2.57219,-6.47239l-0.3871,-1.86538c0,0 -0.08077,-0.44606 0.01642,-0.99268c-3.35516,-0.12174 -6.73318,0.08648 -10.06594,0.3104c-6.91549,0.46462 -13.90326,-0.28183 -20.80792,0.17466c-1.70982,0.11304 -3.33892,0.51824 -4.94776,1.00315c-0.0193,0.11843 -0.03845,0.23683 -0.05744,0.3552zM157.69918,213.69054c0.64366,0.03098 0.70264,-0.67968 0.65366,-1.51311c-0.00921,0.00241 -0.01842,0.00481 -0.02762,0.00722c-0.8921,0.23266 -1.81789,0.33375 -2.74423,0.42754c0.80518,0.54502 1.66338,1.05647 2.11819,1.07835zM310.20817,278.84373c1.05209,0.06485 1.98123,0.86836 3.03514,0.88764c1.35607,0.0248 2.6413,-0.73913 3.99745,-0.75898c1.49055,-0.02182 2.93615,0.65554 4.42673,0.63566c5.69604,-0.07593 11.29261,-1.71898 17.04229,-1.63211c2.23995,0.04092 4.51665,0.58313 6.71881,0.1713c1.1015,-0.20599 2.03886,-0.94966 3.11274,-1.26987c1.58111,-0.47146 3.42287,0.03082 4.89908,-0.70605c1.20949,-0.60374 0.62754,-3.636 0.62862,-4.01367c0.00999,-3.51149 0.01613,-4.88272 0.75789,-8.51589c1.63195,-7.99319 7.3926,-13.78694 8.12613,-21.99078c0.30539,-3.41543 -0.10448,-8.98779 -3.75715,-10.49904c-1.58841,1.5044 -3.66746,2.38742 -5.4668,3.63186c-4.09748,2.83385 -7.87252,6.59728 -11.6192,9.87891c-1.77293,1.55286 -3.88307,2.7345 -5.48008,4.4678c-1.79932,1.95289 -3.5014,3.99441 -5.31496,5.93408c-2.04434,2.1865 -3.10025,5.31159 -5.19352,7.46637c-3.64685,3.75401 -8.66599,5.76505 -13.10432,8.47463c-0.381,0.50747 -0.75126,1.00929 -1.09969,1.50441c-0.75435,1.99628 -1.7684,4.1652 -2.95641,6.30253c0.42903,-0.00314 0.84625,0.00647 1.2472,0.03119zM312.97836,250.00955c1.15533,-1.66623 2.81841,-2.91573 4.24061,-4.36087c1.61446,-1.64049 2.39134,-3.96438 3.92337,-5.68211c0.91481,-1.02569 2.18383,-1.69374 3.101,-2.71731c6.85574,-7.65114 13.64813,-15.22945 21.44807,-22.0436c4.90862,-4.28826 10.68204,-7.46355 15.66792,-11.69443c3.21148,-0.77716 3.99273,-0.57712 6.66702,-3.03523c0.79816,-0.73363 1.03715,-1.98562 1.90391,-2.63675c1.04044,-0.78161 2.50085,-0.81047 3.60393,-1.50086c1.07159,-0.67069 1.85403,-1.72119 2.82929,-2.52554c1.87212,-1.54403 3.73842,-3.09545 5.6322,-4.61285c0.66622,-0.53381 1.42243,-0.9459 2.10717,-1.45574c0.45307,-0.33734 1.82288,-0.86232 1.30306,-1.08337c-0.78011,-0.33175 -1.63058,0.50993 -2.47497,0.58501c-2.34268,0.2083 -4.70318,-0.07954 -7.05467,-0.12405c-7.23016,-0.13683 -14.17041,-0.99832 -21.38318,-0.40281c-3.95124,0.32622 -7.75711,2.23095 -11.47445,3.45928c-9.51625,5.23908 -18.4216,10.61058 -25.90251,18.65066c-2.96104,3.18237 -5.24387,7.61941 -7.72256,11.19422c-2.95158,4.2568 -6.52509,8.50339 -9.02396,13.02647c-0.91758,1.66087 -1.65749,3.42619 -2.54178,5.10435c5.25912,3.59711 10.76782,7.3888 13.60107,12.98784z" fill="#000000"></path><path d="M264.11837,312.26538c0.3357,-0.09466 0.55381,-0.21429 0.55381,-0.21429c2.74097,-1.50902 5.81085,-2.36204 8.63451,-3.70998c0.899,-0.42916 1.47244,-1.39839 2.3746,-1.82088c1.70764,-0.7997 3.85277,-0.23854 5.57301,-1.01077c0.58296,-0.2617 2.22167,-1.55489 3.59363,-2.62178c0.73718,3.96823 1.64192,7.5952 2.80465,11.45663c0.30341,1.00763 0.17839,2.13927 0.61611,3.09624c0.45826,1.00191 3.29014,4.29969 3.98815,5.41554c0.75279,1.20343 3.75823,7.09168 4.47518,8.05304c1.02857,1.37918 2.46641,2.44019 3.59257,3.7409c3.26228,3.76793 5.80339,8.34544 8.83917,12.32363c3.65328,2.53311 5.03233,6.25686 8.14171,9.30647c1.88472,1.84848 4.07004,3.38016 5.90381,5.27919c0.40634,0.4208 3.27722,2.34776 2.26526,3.87673c-0.96261,1.45442 -2.94375,1.88853 -4.3398,2.93398c-2.13148,1.59621 -4.68741,4.30305 -7.10269,5.40297c-2.58578,1.17756 -4.72126,0.30739 -7.23343,-0.05538c-2.57748,-0.37221 -5.27316,-0.00145 -7.79578,-0.64824c-3.15715,-0.80946 -6.31792,-2.1803 -9.48857,-3.06748c-3.27527,-2.29101 -5.33712,-5.07398 -8.04583,-7.99533c-1.83861,-1.98295 -4.10589,-3.54997 -6.05312,-5.42638c-3.83305,-3.69366 -6.41255,-9.48113 -8.64408,-14.1614c-2.2998,-4.82347 -5.70166,-11.59587 -5.25077,-17.23985c0.07933,-0.99301 0.78852,-1.86959 0.87397,-2.8621c0.19646,-2.28182 -0.00136,-4.58271 -0.07667,-6.87522c0.94986,-0.4935 1.27243,-1.59274 1.27243,-1.59274c0.15464,-0.55265 0.33417,-1.07799 0.52816,-1.58351z" data-paper-data="{&quot;noHover&quot;:false,&quot;origItem&quot;:[&quot;Path&quot;,{&quot;applyMatrix&quot;:true,&quot;segments&quot;:[[[394.58114,561.74342],[1.08454,-0.37565],[0,0]],[[390.51834,561.46774],[1.89356,0.99876],[-3.68208,2.73637]],[[379.32053,569.4289],[3.9742,-2.2775],[-1.72863,0.99063]],[[373.62866,571.25325],[1.72249,-1.00127],[-9.79008,5.69088]],[[351.32455,599.50963],[5.30678,-9.27673],[-5.14924,9.00133]],[[337.93544,629.80091],[1.70256,-10.50918],[-0.86492,5.33875]],[[335.91764,645.90003],[1.16379,-5.28166],[-1.71454,7.78111]],[[331.93544,668.19909],[0.03288,-7.99395],[2.15519,6.2222]],[[337.68943,687.26527],[-2.26751,-6.11145],[1.81178,4.88316]],[[345.49158,700.80324],[-2.32558,-4.66042],[2.26665,4.54231]],[[353.62866,712.74675],[-4.88218,-2.90792],[4.56026,2.71618]],[[370.58114,718.25658],[-5.05252,-1.68417],[3.30923,1.10308]],[[380.33633,722.04424],[-3.48742,0.07536],[3.6662,-0.07922]],[[384.12181,713.90306],[-0.22854,1.14738],[1.03138,-5.17807]],[[386.0671,698.18362],[-0.89025,5.20419],[1.46873,-8.58582]],[[392.06456,674.19909],[0,8.89114],[3.07877,-9.52308]],[[402.17162,645.70126],[-2.47508,9.65572],[0.85442,-3.33323]],[[404.22719,635.58501],[-1.0946,3.26225],[0.76299,-2.27393]],[[412.3806,619.08658],[-1.12002,2.60869],[1.0385,-2.41883]],[[416.74675,606.37134],[-1.12446,1.89497],[1.07401,-1.80996]],[[421.13329,601.83006],[-1.31032,1.64697],[5.02141,-6.31156]],[[436.76726,584.16484],[-5.68192,5.73383],[-3.317,-1.03906]],[[428.37134,581.25325],[1.09446,0.65991],[-3.2296,-1.94728]],[[420.37134,573.25325],[3.26041,1.89525],[-1.72249,-1.00127]],[[414.67947,571.4289],[1.72986,0.98849],[-5.4333,-3.10474]],[[398.76393,561.47214],[5.60379,2.78526],[0,0]],[[397.78192,560.80634],[0.53814,0.44387],[-1.05193,0.25726]]],&quot;closed&quot;:true}]}" fill="#a1adff"></path><path d="M165.95557,292.76144c-0.09882,-0.05135 -0.19883,-0.1024 -0.29753,-0.15391c-4.15779,-2.16959 -7.71525,-5.75136 -11.63785,-8.41619c0.70467,-1.53173 2.46991,-4.14012 2.92409,-4.4294c0.59759,-0.38063 1.44185,-0.01643 2.12313,-0.21096c1.02921,-0.29386 1.91903,-1.15452 2.98415,-1.26015c1.52029,-0.15077 3.05637,0.04245 4.53593,0.4415c-0.05843,0.15808 -0.08139,0.26095 -0.08139,0.26095c-0.68753,2.99585 -2.30941,5.98454 -2.16912,9.05507c0.06337,1.3868 1.02822,2.47961 1.38995,3.81992c0.07146,0.26475 0.16738,0.62612 0.22863,0.89316z" data-paper-data="{&quot;noHover&quot;:false,&quot;origItem&quot;:[&quot;Path&quot;,{&quot;applyMatrix&quot;:true,&quot;segments&quot;:[[[319.13329,375.83006],[-0.35371,0.41915],[1.79064,-2.12193]],[[323.95238,369.03616],[-2.20709,1.68455],[4.88673,-3.72978]],[[341.14305,362.35762],[-5.70738,2.2841],[0,0]],[[341.66467,362.19541],[-0.3264,0.08412],[-1.03026,-2.8865]],[[337.25161,354.30901],[1.98035,2.32687],[-1.38743,-1.6302]],[[331.83006,350.86671],[1.65589,1.35667],[-1.09612,-0.89805]],[[329.08658,347.6194],[1.3066,0.54841],[-0.99305,-0.4168]],[[318.53172,347.84052],[3.32054,-0.58741],[0.09045,9.4839]],[[317.9642,376.40273],[-1.17242,-9.30607],[0.02783,0.22092]],[[318.04829,377.06552],[-0.02822,-0.22094],[0.36911,-0.40497]]],&quot;closed&quot;:true}]}" fill="#ffffff"></path><path d="M198.96874,308.78246c-0.69235,-0.14398 -1.37923,-0.31253 -2.05519,-0.51245c-3.40396,-1.26865 -5.34199,-3.2322 -8.51852,-4.75242c-5.57586,-2.66848 -11.36592,-5.29176 -16.98774,-8.03171c-0.38092,-2.10188 -0.87708,-4.85865 -0.90469,-4.95593c-0.2776,-0.9782 -1.16816,-1.7816 -1.23048,-2.79652c-0.05744,-0.93545 0.6597,-1.7659 0.90182,-2.67128c0.39376,-1.4724 0.70003,-2.97658 1.03276,-4.46414c3.73668,1.85165 7.4005,4.24729 11.02078,5.09568c2.98695,2.08555 6.10184,2.33012 9.27382,4.0048c1.49428,0.78892 2.3907,1.65533 3.34602,2.31466c0.10806,1.2572 0.16033,2.58341 0.48401,4.371c0.22864,1.2627 1.01136,2.37631 1.37803,3.60603c0.90195,3.02486 1.15229,5.79955 2.25938,8.79228z" data-paper-data="{&quot;noHover&quot;:false,&quot;origItem&quot;:[&quot;Path&quot;,{&quot;applyMatrix&quot;:true,&quot;segments&quot;:[[[341.13329,435.83006],[-3.94366,4.92957],[1.60325,-2.00406]],[[345.46447,429.46447],[-1.81475,1.81475],[2.56915,-2.56915]],[[352.06419,423.71423],[-1.94314,1.61031],[-0.00503,-2.32152]],[[352.03746,415.61092],[0.40626,3.35501],[-0.86239,-7.12181]],[[348.08376,395.91139],[-0.02375,7.28593],[-2.73134,-6.91697]],[[343.94238,372.01133],[1.21505,8.25161],[-2.82408,1.14838]],[[335.44998,375.40333],[2.86869,-1.03081],[-1.76398,0.63385]],[[330.04762,376.96384],[1.472,-1.16045],[-1.59705,1.25904]],[[326.86671,382.16994],[1.29139,-1.57101],[-0.12843,0.15624]],[[319.78216,389.28925],[3.02046,-3.02139],[1.90341,12.36226]],[[325.93544,426.19909],[-1.9685,-12.20529],[1.12144,6.95328]],[[327.8006,445.60206],[-1.79408,-7.04038],[0.44176,1.33879]],[[329.2946,449.56268],[-0.55238,-1.30201],[3.65706,-5.23011]]],&quot;closed&quot;:true}]}" fill="#ffffff"></path><path d="M241.40124,285.29008c-0.45331,0.57876 -0.93382,1.13667 -1.44857,1.65972c-0.73937,0.75129 -1.81636,1.12545 -2.5309,1.9004c-1.82913,1.98376 -2.83239,4.65639 -4.62974,6.66899c-1.59531,1.78636 -3.95078,2.81205 -5.58593,4.56202c-1.51825,1.62487 -2.73304,3.61103 -4.5285,4.92313c-1.2247,0.96752 -2.73034,1.70802 -4.27371,1.94045l-1.76347,1.49925c-4.1938,0.65371 -8.45334,1.12354 -12.53528,0.95855c-0.00932,-0.1337 -0.02402,-0.21383 -0.02402,-0.21383l-0.38934,-1.86736c-1.19717,-2.99603 -1.3602,-5.66575 -2.26498,-8.7001c-0.3202,-1.07388 -1.0731,-2.01729 -1.27275,-3.11996c-0.15556,-0.85912 0.03977,-1.74677 0.09488,-2.62299c0.81059,-0.35097 1.68265,-0.90903 2.54616,-1.06826c1.33563,-0.24628 2.75553,0.54681 3.97535,-0.05036c2.16464,-1.05969 3.84156,-2.97555 5.24027,-4.9315c1.0115,3.76406 2.71326,7.23977 4.43126,10.96335l2.28573,2.25535c0,0 1.79179,1.7265 3.51879,-0.08112c1.727,-1.80762 -0.06547,-3.4358 -0.06547,-3.4358l-1.68395,-1.53339c-1.9815,-4.51 -4.30004,-8.92775 -4.45746,-13.84127c0.99834,-1.34271 1.96423,-2.7252 2.62119,-4.10446c1.18091,-2.47926 1.8313,-5.18755 2.92416,-7.70685c0.88431,-2.03855 1.98029,-6.74226 3.67497,-9.1834c0.94574,1.95976 1.73652,4.00444 2.78195,5.91316c1.19119,2.17485 2.90861,4.06368 3.97496,6.30238c0.55575,1.16674 0.77592,2.504 1.46202,3.59917c1.33005,2.12309 3.25653,3.83874 4.75707,5.84498l1.89795,2.53857c0,0 0.4836,0.64779 1.26735,0.93119z" data-paper-data="{&quot;noHover&quot;:false,&quot;origItem&quot;:[&quot;Path&quot;,{&quot;applyMatrix&quot;:true,&quot;segments&quot;:[[416.25658,489.41886],[[418.25658,483.41886],[0,0],[1.58735,-4.75254]],[[422.42743,468.97723],[-1.97368,4.60553],[1.0181,-2.37572]],[[426.67545,462.49037],[-1.28427,2.24304],[2.46421,-4.30387]],[[432.50842,448.80324],[-2.21699,4.43628],[1.9457,-3.89342]],[[439.0623,437.50635],[-2.1432,3.78773],[-5.94344,-0.00337]],[[419.78639,441.94174],[4.35824,-0.86973],[-5.38607,1.07484]],[[403.80091,445.93544],[5.42058,-0.8845],[-3.01557,0.49206]],[[394.09792,446.32547],[3.34453,0.11065],[-7.89626,5.85822]],[[376.55469,469.28177],[5.1543,-8.39636],[0,0]],[375.93903,473.77844],[[370.22156,477.93903],[4.93903,0.77844],[-4.93903,-0.77844]],[366.06097,472.22156],[[367.15539,465.86809],[0,0],[4.16206,-7.06706]],[[380.18822,445.98361],[-5.03375,5.95202],[-4.8087,-0.06985]],[[366.2178,443.15444],[4.20852,2.35007],[-2.37159,-1.32431]],[[361.46447,436.53553],[1.92688,1.91451],[-1.24576,-1.23776]],[[356.94686,433.71119],[1.5006,0.93228],[-1.5029,0.90795]],[[352.53553,436.53553],[1.23474,-1.23474],[-1.58477,1.58477]],[[348.86671,442.16994],[1.40007,-1.75008],[-3.95604,4.94505]],[[337.16025,455.7735],[3.55985,-5.38191],[0,0]],[334.53553,458.53553],[[334.21151,458.81812],[0.20911,-0.16768],[4.38065,6.89692]],[[350.06502,478.28176],[-5.85373,-6.14778],[0,0]],[[354.53553,479.46447],[0,0],[2.14083,2.27175]],[[362.58114,484.25658],[-2.98587,-0.91029],[4.20265,1.45568]],[[375.80091,486.06456],[-4.40079,-0.64362],[4.73962,0.69318]],[[389.61092,490.03746],[-4.75403,-0.58623],[5.3561,0.66047]],[[405.80091,490.06456],[-5.34492,-0.74556],[2.08797,0.29125]],[[411.80091,492.06456],[-2.07739,-0.35902],[1.44628,0.24995]],[[416.17435,492.55882],[-1.46782,-0.08549],[-0.42738,-1.6111]]],&quot;closed&quot;:true}]}" fill="#ffffff"></path><path d="M229.38426,257.34272c2.73329,-0.97918 5.54683,-0.86372 8.66411,-1.49888c4.47818,1.43072 11.43328,2.21163 13.82694,7.15477c1.66114,3.4304 -2.72797,8.39328 -4.05483,10.84568c-1.27456,2.35574 -2.45385,4.97051 -3.82132,7.44026l-1.79665,-2.39328c-1.40857,-1.87872 -3.2541,-3.4461 -4.50061,-5.43605c-0.59002,-0.94192 -0.73208,-2.11564 -1.21174,-3.11827c-1.12096,-2.34316 -2.90014,-4.38909 -4.14692,-6.66779c-1.11523,-2.03824 -1.924,-4.24711 -2.95898,-6.32643z" data-paper-data="{&quot;noHover&quot;:false,&quot;origItem&quot;:[&quot;Path&quot;,{&quot;applyMatrix&quot;:true,&quot;segments&quot;:[[[441.49158,453.19676],[2.07905,-4.15573],[-2.32433,4.646]],[[435.32455,467.50963],[2.57366,-4.51266],[-1.10126,1.93095]],[[431.57257,473.02277],[0.8757,-2.04315],[-1.85005,4.31648]],[[427.74342,486.58114],[1.48256,-4.45608],[0,0]],[[425.85164,492.25647],[0,0],[5.61756,-0.56704]],[[442.38908,490.03746],[-5.32429,0.5898],[5.54276,-0.614]],[[464.74675,484.37134],[-3.74502,6.63949],[5.39651,-9.56739]],[[460.74675,453.62866],[2.75191,8.99062],[-4.59644,-4.3996]],[[448.47525,441.12933],[4.72423,3.37644],[-2.23801,4.07068]]],&quot;closed&quot;:true}]}" fill="#ffffff"></path><path d="M173.70545,169.13873c2.05445,1.42451 0.62994,3.47896 0.62994,3.47896l-0.12468,-0.55707c-0.04241,2.3212 -0.29503,4.64701 -0.13938,6.96338c0.07055,1.04996 0.60007,2.06737 0.50856,3.1157c-0.20416,2.33869 -1.83517,4.323 -2.83748,6.44585c-0.92266,1.95419 -1.58425,4.06044 -2.7987,5.84796c-4.11036,5.92801 -6.16552,12.46606 -10.32235,18.39698c-1.12111,1.59959 -2.40787,3.84501 -4.33392,4.88073c1.06239,0.80147 2.20193,1.36861 4.25842,0.87591c5.71799,-1.36992 4.00651,-3.65929 4.63917,-7.60143c0.01899,-0.11837 0.03868,-0.23714 0.05797,-0.35556c1.60885,-0.48491 3.24985,-0.89586 4.95966,-1.00889c6.90466,-0.45649 13.9412,0.30004 20.85669,-0.16459c3.33277,-0.22392 6.71874,-0.42316 10.07392,-0.30142c-0.09719,0.54662 -0.01567,0.99379 -0.01567,0.99379l0.38866,1.86795c0.85363,2.15896 1.89569,4.26385 2.5768,6.48328c1.30682,4.25837 0.02025,9.28398 -0.35015,13.55659c-0.17847,2.05873 -0.27731,4.16803 -0.86418,6.14938c-0.80819,2.72865 -1.3436,6.2391 -3.46249,8.33654c-0.74914,0.74156 -1.80008,1.14329 -2.53468,1.89926c-3.15854,3.25048 -5.78526,7.0434 -10.75023,7.9424c-1.50547,0.2726 -6.18714,-0.56096 -7.22691,-0.71144c-11.11593,-1.72806 -20.88875,-6.32694 -30.10136,-12.65701c-4.05216,-2.78428 -8.83464,-8.66726 -8.3538,-14.00167c0.10632,-1.1795 0.94539,-2.17859 1.33851,-3.29571c0.79494,-2.25892 1.46678,-4.57243 2.3143,-6.81216c0,0 0.13109,-0.3473 0.15889,-0.82348c1.62044,-0.9483 3.2563,-1.8728 4.91511,-2.72104c-1.2051,-1.01951 -2.35369,-2.02134 -3.31283,-2.4672c-5.61384,-2.60963 -11.1187,-5.23646 -16.27912,-8.81459c0,0 -2.05445,-1.42451 -0.62994,-3.47896c1.42451,-2.05445 3.47896,-0.62994 3.47896,-0.62994c1.53389,1.06357 2.8906,2.43036 4.5832,3.21718c0.95587,0.44434 2.08433,0.4326 3.03514,0.88764c1.80405,0.86338 3.11705,2.57576 4.93068,3.41883c0.95587,0.44434 2.08433,0.4326 3.03514,0.88764c0.04177,0.01999 5.0556,3.42925 5.27815,3.62048c0.40677,0.34955 0.46038,1.22411 0.9952,1.26428c0.45617,0.03427 0.52005,-0.75274 0.77708,-1.13116c1.04876,-1.54405 2.09173,-3.09225 3.16413,-4.61999c2.30085,-3.27779 3.28776,-7.0915 4.99245,-10.65349c0.11325,-0.23666 3.34697,-4.88369 3.62048,-5.27815c1.09856,-1.54308 1.58667,-3.44014 2.3954,-5.15301c0.93223,-1.97444 2.28335,-2.30509 2.35663,-4.55511c0.10274,-3.15437 -0.43482,-6.64806 -0.37529,-9.90706l1.01493,-2.20063c0,0 1.42451,-2.05445 3.47896,-0.62994z" fill="#ffffff"></path><path d="M308.91708,278.83653c1.18801,-2.13733 2.19938,-4.31196 2.95374,-6.30825c0.34843,-0.49511 0.71812,-0.99844 1.09912,-1.50591c4.43832,-2.70957 9.45493,-4.73145 13.10177,-8.48546c2.09326,-2.15477 3.15419,-5.30833 5.19853,-7.49483c1.81356,-1.93967 3.53819,-4.00351 5.33751,-5.9564c1.59699,-1.7333 3.7287,-2.92006 5.50163,-4.47294c3.74667,-3.28163 7.54251,-7.04077 11.63999,-9.87462c1.79934,-1.24444 3.88303,-2.12512 5.47143,-3.62951c3.65267,1.51124 4.07449,7.09317 3.76911,10.50862c-0.73353,8.20384 -6.48245,14.04314 -8.1144,22.03633c-0.74178,3.63317 -0.7608,5.02763 -0.77078,8.53912c-0.00108,0.37766 0.57431,3.41557 -0.63519,4.01931c-1.47621,0.73688 -3.32915,0.24062 -4.91025,0.71208c-1.07388,0.3202 -2.02036,1.06642 -3.12187,1.27241c-2.20215,0.41183 -4.49775,-0.13061 -6.7377,-0.17153c-5.74968,-0.08687 -11.37296,1.54109 -17.069,1.61702c-1.49058,0.01987 -2.93973,-0.6618 -4.43028,-0.63999c-1.35614,0.01985 -2.64283,0.78172 -3.99889,0.75691c-1.05391,-0.01928 -1.98475,-0.82558 -3.03685,-0.89043c-0.40096,-0.02471 -0.81859,-0.03508 -1.24763,-0.03194z" data-paper-data="{&quot;noHover&quot;:false,&quot;origItem&quot;:[&quot;Path&quot;,{&quot;applyMatrix&quot;:true,&quot;segments&quot;:[[[505.25325,598.37134],[-0.41632,-0.68716],[1.09241,1.80308]],[[507.25325,604.37134],[-1.16936,-1.75415],[1.50461,2.25704]],[[513.05621,610.07645],[-1.5781,-2.20628],[1.73451,2.42495]],[[517.05621,618.07645],[-1.73134,-2.42721],[6.61606,9.27524]],[[539.16025,644.2265],[-6.40962,-9.54894],[2.48542,3.72813]],[[546.53553,655.46447],[-3.18645,-3.15005],[1.59384,1.57564]],[[552.16994,659.13329],[-1.75008,-1.40007],[2.57671,2.06137]],[[558.91342,666.3806],[-2.8934,-1.58648],[2.37064,1.29984]],[[566.2265,662.83975],[-0.62194,0.42863],[5.78272,-3.98531]],[[581.08658,654.3806],[-6.81666,2.92125],[14.99708,-6.42693]],[[626.49037,642.67545],[-14.31945,8.14358],[5.96148,-3.39034]],[[639.46447,624.53553],[1.67879,7.72561],[-4.28273,-0.89622]],[[627.26527,619.68943],[4.09586,1.53915],[-9.32715,-3.50497]],[[597.78732,611.85071],[9.6633,2.41809],[-4.57269,-1.14425]],[[584.19909,607.93544],[4.66873,0.64947],[-5.26022,-0.73175]],[[568.38908,605.96254],[5.25473,0.77022],[-5.9234,-0.86824]],[[550.19909,605.93544],[5.927,0.9848],[-10.32593,-1.71571]],[[521.33671,594.0555],[9.51131,4.20678],[-1.26825,-0.04788]],[[517.61092,593.96254],[1.21083,0.00842],[-4.14069,1.03517]],[[503.88318,596.28594],[4.86669,-0.48315],[0.4941,0.70157]]],&quot;closed&quot;:true}]}" fill="#a1adff"></path><path d="M311.39849,251.18156c-2.83324,-5.59904 -8.35472,-9.40523 -13.61384,-13.00234c0.88429,-1.67816 1.62254,-3.44658 2.54012,-5.10745c2.49887,-4.52309 6.06835,-8.78121 9.01993,-13.03802c2.4787,-3.57481 4.76132,-8.03191 7.72235,-11.21427c7.48091,-8.0401 16.44096,-13.45177 25.95721,-18.69084c3.71734,-1.22834 7.541,-3.12758 11.49223,-3.45379c7.21277,-0.59549 14.16983,0.28046 21.39999,0.41729c2.35149,0.04451 4.7144,0.33592 7.05707,0.12761c0.84439,-0.07508 1.69525,-0.91611 2.47536,-0.58436c0.51981,0.22106 -0.84985,0.74626 -1.30293,1.08359c-0.68475,0.50984 -1.44084,0.9221 -2.10707,1.45591c-1.89378,1.51739 -3.75939,3.07005 -5.63151,4.61409c-0.97527,0.80436 -1.75715,1.85588 -2.82874,2.52657c-1.10309,0.6904 -2.56371,0.71885 -3.60415,1.50046c-0.86677,0.65114 -1.1047,1.90526 -1.90285,2.63889c-2.67428,2.4581 -3.45559,2.25795 -6.66707,3.03511c-4.98589,4.23088 -10.75743,7.44404 -15.66604,11.7323c-7.79994,6.81415 -14.66746,14.41725 -21.52321,22.06839c-0.91717,1.02358 -2.18751,1.69072 -3.1023,2.7164c-1.53203,1.71773 -2.30877,4.04173 -3.92323,5.68222c-1.42221,1.44514 -3.08608,2.69405 -4.24141,4.36028z" data-paper-data="{&quot;noHover&quot;:false,&quot;origItem&quot;:[&quot;Path&quot;,{&quot;applyMatrix&quot;:true,&quot;segments&quot;:[[[555.80091,570.06456],[0,0],[4.05518,0]],[[567.80091,572.06456],[-3.99594,-0.69058],[4.5361,0.78393]],[[581.61092,572.03746],[-4.5691,-0.56044],[2.72829,0.33465]],[[589.61092,574.03746],[-2.72751,-0.34094],[20.38799,2.54851]],[[650.28334,584.1675],[-20.08836,-5.05418],[12.64192,3.18067]],[[687.35917,596.59156],[-12.63567,-3.37304],[4.93713,4.39261]],[[699.94554,604.09022],[-7.08768,-1.59407],[2.11535,0.47576]],[[706.44892,604.21454],[-2.05796,-0.68254],[2.47032,0.81931]],[[713.02277,608.42743],[-2.39179,-1.0262],[2.32352,0.99691]],[[720.39794,610.1994],[-2.43343,-0.68626],[4.67121,1.31734]],[[734.39794,614.1994],[-4.6521,-1.3833],[1.63659,0.48664]],[[739.19188,616.00368],[-1.61829,-0.54441],[1.07076,0.36022]],[[742.45744,616.91072],[0.22907,1.10626],[-0.34378,-1.66023]],[[738.67545,613.50963],[1.08568,1.30224],[-3.0121,-3.61294]],[[730.83975,601.7735],[2.60665,3.91554],[-8.01468,-12.03912]],[[707.13329,566.16994],[9.19849,11.17597],[-5.03903,-6.12232]],[[688.37134,551.25325],[6.25516,4.70984],[-19.45555,-9.67001]],[[628.19909,529.93544],[21.7397,3.13274],[-8.60484,-1.23998]],[[601,530],[8.70017,0],[-10.35997,0]],[[569.30642,530.01371],[10.28171,-1.04752],[-3.77542,0.38465]],[[558.02047,531.65312],[3.7659,-0.45906],[0.08129,12.74299]],[[552.17412,568.80835],[5.97355,-11.03733],[0,0]]],&quot;closed&quot;:true}]}" fill="#a1adff"></path><path d="M193.59483,285.26067c-3.31672,-1.67715 -6.25676,-1.92197 -9.3366,-4.04317c-7.68744,-1.94683 -14.38758,-8.50948 -22.82697,-7.82541c-1.32948,0.10776 -2.47187,1.01291 -3.74693,1.40449c-1.12905,0.34674 -2.37747,0.11023 -3.357,0.77016c-1.09509,0.73778 -1.63602,2.07291 -2.41153,3.14161c-0.71925,0.99116 -1.52104,2.04912 -2.12261,3.19657c-0.68541,-0.15697 -1.48836,-0.20569 -2.11381,-0.51609c-2.0901,-1.03728 -3.64917,-2.98513 -5.75389,-3.9924c-0.95082,-0.45504 -2.07965,-0.44443 -3.03551,-0.88877c-2.66529,-1.23897 -5.48135,-3.84359 -7.87147,-5.50085c-2.72952,-1.89259 -6.36028,-3.68564 -8.7296,-6.01736c-2.40539,-2.36722 -4.2854,-4.23097 -7.13722,-6.20836c-2.5921,-1.79731 -4.26137,-2.99239 -6.2497,-5.3969c-0.43784,-0.52949 -1.31419,-0.80272 -1.43661,-1.47879c-0.12242,-0.67607 0.60116,-1.24005 0.82716,-1.88889c0.89284,-2.56337 0.97665,-5.52407 2.95049,-7.57629c0.95272,-0.99056 2.16649,-1.71128 3.1012,-2.71884c3.69463,-3.98261 7.27384,-8.54204 11.70405,-11.85437c2.01567,-1.50705 4.37832,-2.51367 6.39259,-4.02258c0.96947,-0.52955 2.02922,-1.04523 2.99557,-1.61079c-0.90553,2.26045 -1.73058,4.59828 -1.87896,6.33796c-0.47105,5.52258 2.45878,9.66343 5.54129,13.73873c5.19534,6.86862 12.89235,9.48322 20.35062,13.01015c0.91887,0.43453 1.58892,1.29978 2.51003,1.72954c4.26227,1.98867 9.65313,2.79061 14.23799,3.50884c2.29979,0.32783 6.33901,1.14815 8.7502,0.71155c6.03551,-1.09285 9.53324,-5.38753 13.43924,-9.40127c1.57665,-1.62015 3.62982,-2.9467 4.6642,-4.95687c2.34752,-4.56211 3.16741,-9.53935 3.60481,-14.5117c0.4394,-4.99508 1.64082,-10.24232 0.19424,-15.20824c-0.04803,-0.16491 -2.61143,-6.64308 -2.72876,-6.93982l-0.0887,-0.65793c1.17438,0.1858 2.34543,0.43194 3.50261,0.75344c4.79493,-0.86822 9.49119,1.14741 14.3268,1.5706c1.03405,0.0905 2.05287,-0.49281 3.08843,-0.4214c4.88158,0.33666 9.94636,2.79025 14.50659,4.28731c2.3932,0.78565 5.09283,0.52458 7.40972,1.51284c0.8944,0.3815 1.48177,1.3292 2.38923,1.67849c1.63639,0.62987 3.45052,0.68349 5.12123,1.21568c2.58434,0.82324 4.78631,2.57084 7.24343,3.71936c7.0934,3.31563 13.90661,6.06874 20.44505,10.56613c3.94595,1.71046 7.37083,3.91285 10.80455,6.27855c0.07419,0.06167 0.15416,0.12256 0.24021,0.18223c0.0892,0.06185 0.17724,0.11726 0.264,0.16646c1.26782,0.87872 2.54079,1.78015 3.84517,2.68458c4.44202,3.08001 10.04665,7.0448 10.90785,12.76364l1.85723,2.1799c0,0 1.95455,1.41997 3.37907,-0.63448c0.67623,-0.97527 0.56845,-1.8074 0.26864,-2.41376c0.04108,-0.02716 0.06305,-0.0436 0.06305,-0.0436l2.83238,-2.16036c0.06163,-0.08888 0.12476,-0.17642 0.18926,-0.26294l0.16546,-0.04828c-2.02342,2.97819 -2.14346,5.82554 -3.6865,8.88747c-0.88312,1.75242 -2.19644,3.50254 -3.48937,5.20121c-0.78513,0.48025 -1.54741,0.9849 -2.27335,1.52641c0,0 -1.85728,1.39235 -0.65387,3.28323c-1.04686,2.41677 -2.41656,5.01469 -3.97157,7.37804c-0.80303,0.12805 -1.57857,0.26336 -2.30013,0.39107l-1.39168,0.25231c0,0 -2.46056,0.44721 -2.01514,2.90721c0.18809,1.03875 0.73513,1.56013 1.30474,1.81508c-1.61267,1.41296 -3.55242,2.47597 -5.01758,4.044c-1.36246,1.45813 -2.78681,2.86145 -4.17671,4.29345c-0.65615,0.67602 -0.85372,1.74672 -1.58264,2.34356c-1.05108,0.86063 -2.45048,1.18869 -3.60451,1.9054c-1.67854,1.04246 -2.91178,2.78541 -4.71,3.60432c-1.71605,0.78148 -3.84109,0.25245 -5.56786,1.00996c-1.01844,0.44677 -1.68882,1.4946 -2.69246,1.97371c-0.09182,0.04383 -0.26008,0.02241 -0.35235,0.06526c-0.53127,-2.25519 -2.79166,-1.76704 -2.79166,-1.76704c-2.78533,0.50434 -5.88634,0.75379 -8.59316,1.57128c-1.02464,0.30945 -1.89401,1.15959 -2.96066,1.24843c-1.40555,0.11706 -2.77197,-0.66886 -4.18227,-0.65097c-1.44578,0.01834 -2.82887,0.69167 -4.27309,0.76134c-4.06062,0.19588 -5.86632,-0.96719 -10.03175,-0.65131c-2.70854,0.20539 -5.27196,1.40918 -7.96788,1.74142c-0.54814,0.06755 -1.13266,0.04688 -1.69081,0.1267c0.85942,-0.98231 1.67135,-2.01259 2.55253,-2.96889c1.66589,-1.8079 4.04813,-2.85171 5.69125,-4.68032c1.76117,-1.95999 2.6873,-4.57526 4.48701,-6.4999c0.71995,-0.76993 1.79776,-1.13393 2.52865,-1.89348c3.89291,-4.04553 6.11772,-9.50156 8.69741,-14.27701c2.41902,-4.47802 6.62637,-9.53057 4.1935,-15.10764c-3.03043,-6.94692 -11.77235,-8.3716 -18.09214,-10.09725c-5.65609,0.92321 -10.56247,0.50396 -15.36858,4.55093c-2.20733,1.85869 -2.89257,4.97606 -3.90784,7.45296c-1.61027,3.92852 -3.0516,8.27964 -4.82916,12.08585c-0.462,0.98925 -1.11592,1.97718 -1.82689,2.94931c-0.70885,0.36174 -1.0246,1.02466 -1.16307,1.52697c-0.68369,0.87848 -1.36632,1.73728 -1.94222,2.5659c-0.83773,1.20533 -3.01077,4.55384 -4.25008,5.10777c-0.95626,0.42742 -2.10895,-0.38261 -3.14039,-0.20018c-0.87801,0.15529 -1.61265,0.81582 -2.44033,1.13364c-0.29987,-0.78886 -0.67334,-1.62927 -1.11695,-2.76168c0,0 -0.92383,-2.32715 -3.24871,-1.40792c-0.82964,0.32803 -1.24687,0.83464 -1.43947,1.35114z" data-paper-data="{&quot;noHover&quot;:false,&quot;origItem&quot;:[&quot;Path&quot;,{&quot;applyMatrix&quot;:true,&quot;segments&quot;:[[[365.7735,414.83975],[-1.48459,-0.98973],[4.16025,2.7735]],[[367.16025,421.7735],[0,0],[-1.35563,2.0196]],[[363.89285,426.75084],[0.95479,-1.39184],[1.4656,0.99816]],[[368.53553,429.46447],[-1.25582,-1.26607],[1.47528,1.48732]],[[371.7822,434.84556],[-1.79227,-1.08458],[2.32275,1.4056]],[[385.01568,436.00002],[-2.93572,-0.00325],[2.01817,0.00223]],[[391.44281,436.26239],[-2.22298,-0.12256],[0.98335,-0.34485]],[[395.27527,436.42998],[-1.40236,-0.75279],[2.40801,0.06069]],[[402.19909,436.06456],[-2.15239,0.36805],[8.28145,-1.41609]],[[427.51999,430.1983],[-8.29184,1.83041],[5.22795,-1.15406]],[[444.14876,428.13376],[-5.57035,-1.50971],[12.12852,3.28715]],[[469.25325,448.37134],[-7.96311,-8.24402],[4.36588,12.35353]],[[473.25325,489.62866],[7.96416,-12.89748],[-6.39373,10.35427]],[[443.61092,499.96254],[10.11665,-1.1274],[-10.78859,1.20228]],[[410.19909,501.93544],[11.08548,1.78789],[-2.08129,-0.33568]],[[404.19909,499.93544],[2.08588,0.30586],[-5.21425,-0.76459]],[[388.38908,499.96254],[5.2284,0.66096],[-4.87797,-0.61666]],[[374.19909,495.93544],[4.86986,0.67769],[-2.57594,-0.35847]],[[366.4056,495.11988],[2.59391,0.29306],[0.76726,0.82639]],[[368.66144,497.59503],[-0.73568,-0.82391],[3.61836,4.05228]],[[380.59178,508.69857],[-3.42427,-4.21757],[5.26615,6.48616]],[[390.94103,525.92294],[-4.94946,-6.45065],[1.76033,2.29425]],[[397.05621,532.07645],[-1.67775,-2.35531],[1.63659,2.29752]],[[400.74839,539.69099],[-1.79417,-2.1767],[1.36157,1.65186]],[[406.16994,543.13329],[-1.67628,-1.33139],[4.42831,3.5172]],[[418.53553,555.46447],[-4.0031,-4.0031],[0,0]],[[418.79214,562.2654],[3.1011,-3.44323],[0.1756,0.10282]],[[419.32053,562.5711],[-0.17668,-0.10096],[1.93119,1.10354]],[[425.62866,564.74675],[-1.89492,-1.16472],[3.21285,1.9748]],[[433.62866,572.74675],[-3.24005,-1.92984],[3.39519,2.02224]],[[444.91342,576.3806],[-3.62621,-1.57079],[2.4931,1.07995]],[[452.14876,580.13376],[-2.61232,-0.74674],[1.81163,0.51786]],[[457.80091,580.06456],[-1.85884,-0.30802],[3.93753,0.65246]],[[469.61092,582.03746],[-3.94921,-0.57758],[4.24688,0.62111]],[[481.96953,585.67699],[-4.1601,-1.04029],[-0.23009,-1.22672]],[[483.46447,581.46447],[-1.4929,1.4929],[3.53553,-3.53553]],[490.53553,581.46447],[[492.53553,583.46447],[0,0],[1.0322,1.0404]],[[495.79851,586.79955],[-1.12561,-1.17389],[5.65642,-0.13755]],[[512.44293,584.92207],[-5.16512,1.03359],[1.73636,-4.13276]],[[518.58114,582.25658],[0,0],[1.7173,0.57603]],[[523.67894,584.2543],[-1.68406,-0.74312],[4.26529,0.18918]],[[536.19909,584.06456],[-3.88662,0.54562],[6.79092,-0.95334]],[[555,580],[-7.20074,0.06836],[0,0]],[[554.84714,579.94669],[0,0],[-0.21571,-0.0074]],[[554.19909,579.93544],[0.21633,0],[0,0]],[547.41886,577.74342],[[547.2753,577.68949],[0.09146,0.03656],[-0.65493,1.18375]],[[543,580],[2.37356,0],[-5,0]],[538,575],[[539.46447,569.46447],[0,0],[8.4178,-7.93268]],[[548,537],[0,10.81075],[0,-3.17451]],[[548.02746,527.62341],[0.0006,3.08513],[-0.01803,-0.19865]],[[548,527],[0,0.21709],[0,-0.20941]],[[548.02558,526.39773],[-0.01681,0.19223],[-0.02494,-8.3395]],[[546.02433,501.49269],[1.6856,8.43466],[-0.05956,-15.87158]],[[540.07659,455.87181],[2.63427,15.43697],[-0.9125,-5.3473]],[[537.93041,439.74015],[1.5921,5.1857],[-1.02925,-3.3524]],[[534.09022,429.94554],[0.82962,3.4073],[-0.46007,-1.88953]],[[534.12509,424.11143],[0.39225,1.90477],[-1.01611,-4.93418]],[[528.16611,410.22266],[1.43605,4.8287],[-2.73638,-9.20106]],[[518.68535,381.52661],[5.00979,8.40682],[-1.06275,-1.78337]],[[514.47533,376.93702],[1.02969,1.80266],[-4.81518,-8.42988]],[[500.74675,351.62866],[6.89132,6.89132],[-0.79034,-2.26827]],[[497.99859,345.01887],[1.03297,2.1419],[0,0]],[[497.16025,345.7735],[0,0],[-0.35401,0.53101]],[[488.86671,358.16994],[0.2163,-0.26689],[-6.51324,8.03674]],[[463.50963,375.32455],[8.71046,-4.97025],[-8.67082,4.94763]],[[435.61092,385.96254],[10.17337,-1.34074],[-4.48262,0.59076]],[[422.19909,383.93544],[4.45959,0.74499],[-11.04816,-1.84563]],[[391.46447,372.53553],[8.6743,8.6743],[-3.46538,-3.46538]],[[382.5143,357.20873],[2.08207,4.15344],[-4.04451,-8.35401]],[[372.06456,329.80091],[1.58885,9.27159],[-0.34336,-2.00366]],[[372.04957,323.70234],[0.33299,2.00541],[-2.7028,-16.27744]],[[370.25658,275.41886],[-5.36831,16.36639],[3.18514,-9.71054]],[[386.53651,250.649],[-9.6135,5.51939],[3.02837,-1.73868]],[[399.10236,246.51239],[-4.74713,1.08775],[-2.03079,-0.94375]],[[393.08658,243.6194],[1.97517,0.9899],[-4.77548,-1.59099]],[[379.19662,237.69514],[4.774,1.59542],[-10.49273,-3.50655]],[[346.38908,231.96254],[10.75609,1.53372],[-2.72121,-0.38802]],[[338.38908,229.96254],[2.71378,0.43701],[-5.62235,-0.90538]],[[322.58114,233.74342],[5.23055,-1.4538],[-1.32395,0.36798]],[[318.53553,234.53553],[0.97166,-0.97166],[-0.97166,0.97166]],[[317.74342,238.58114],[0.37128,-1.32303],[-1.68604,6.00814]],[[316,255],[0,-6.30849],[0,6.94059]],[[313.93544,273.80091],[1.14945,-6.65109],[-1.13221,6.55136]],[[314,295],[0,-6.64294],[0,5.81693]],[[313.93544,314.19909],[-1.00107,-5.79251],[0.35902,2.07739]],[[315.93544,320.19909],[-0.33568,-2.08129],[0.74305,4.60713]],[[315.93544,334.19909],[-0.67705,-4.61729],[0.20261,1.38171]],[[317.32563,338.15688],[-0.52312,-1.30541],[2.57146,-0.31893]],[[325,338],[-2.4487,-0.05259],[2.64025,0.05671]],[[332.91342,338.3806],[-2.46055,-0.95906],[2.20091,0.85785]],[[338.16994,343.13329],[-1.85655,-1.46052],[2.09666,1.64941]],[[344.74839,347.69099],[-1.69221,-2.06227],[10.74193,13.09105]],[[357.91624,394.08861],[-5.56097,-14.85341],[0.0235,7.47923]],[[361.91252,414.01532],[-1.02328,-7.36253],[1.06839,-0.27206]]],&quot;closed&quot;:true}]}" fill="#a1adff"></path><path d="M183.97417,228.32766c0.21294,0.3437 0.41873,0.71802 0.61173,1.13516c0.39592,0.85565 0.11598,1.92389 0.50395,2.78317c0.43376,0.96071 1.48298,1.56119 1.89553,2.5312c0.78169,1.83798 1.1129,6.93571 0.37159,8.52604c-0.60111,1.28953 -2.09864,1.93274 -3.258,2.75741c-1.26253,0.89806 -2.43547,2.34721 -3.98412,2.39403c-1.06954,0.03235 -5.64043,-3.36085 -6.71152,-4.11867c-2.16795,-2.87927 -5.20013,-7.02424 -4.4332,-10.99695c0.22492,-1.16508 1.25078,-2.017 1.89651,-3.01249c0.24894,-0.38378 0.91119,-0.68415 0.78686,-1.12438c-0.1105,-0.39128 -0.79916,-0.16033 -1.18549,-0.28704c-1.22468,-0.40167 -2.74116,-0.37549 -3.64271,-1.29655c-2.81,-2.87081 -3.41539,-9.10334 -1.31188,-12.44299c0.63131,-1.00231 1.9353,-1.3818 2.7859,-2.20622c0.97778,-0.94769 1.36261,-2.72552 2.67543,-3.08701c1.62091,-0.44632 3.38005,0.37634 4.94591,0.98841c5.4878,2.14508 8.50115,9.49128 9.46904,14.71863c0,0 0.36846,2.03485 -1.41554,2.7383z" fill="#ff0000"></path><path d="M173.89834,175.51294c1.49855,2.00109 -0.50254,3.49964 -0.50254,3.49964l-2.23001,1.62966c-2.16364,3.20468 -4.37972,6.37312 -6.58295,9.55066c-1.06357,1.53389 -2.42134,2.89481 -3.21718,4.58319c-1.79006,3.79765 -2.63701,8.68591 -4.00566,12.67863c-1.25602,3.66415 -2.4699,7.25608 -6.50033,8.89457c-4.56767,1.85688 -6.69905,-0.76843 -10.13707,-3.15229c-5.08192,-3.5237 -9.20646,-7.60044 -14.22223,-11.07828c0,0 -2.05445,-1.42451 -0.62994,-3.47896c1.42451,-2.05445 3.47896,-0.62994 3.47896,-0.62994c5.04424,3.49757 9.13508,7.55095 14.22223,11.07828c1.26599,0.87781 3.57585,3.64926 5.29063,2.67748c3.39012,-1.92121 4.06525,-6.383 5.2136,-9.75439c1.02403,-3.00639 1.42128,-6.5202 2.7776,-9.38916c0.10893,-0.23041 3.35079,-4.8892 3.62049,-5.27816c2.35541,-3.397 4.7048,-6.79754 7.09238,-10.17205l2.83238,-2.16141c0,0 2.00109,-1.49855 3.49964,0.50254z" fill="#c1c1c1"></path></g></g></svg>