<svg version="1.1" xmlns="http://www.w3.org/2000/svg" xmlns:xlink="http://www.w3.org/1999/xlink" width="138.11352" height="166.5" viewBox="0,0,138.11352,166.5"><g transform="translate(-294.42543,-185)"><g data-paper-data="{&quot;isPaintingLayer&quot;:true}" fill-rule="nonzero" stroke-linecap="butt" stroke-linejoin="miter" stroke-miterlimit="10" stroke-dasharray="" stroke-dashoffset="0" style="mix-blend-mode: normal"><path d="M310,185c1.18461,0 1.8079,0.56132 2.13585,1.15201c1.72848,0.21806 3.44371,0.62017 5.16961,0.86672c2.57322,0.3676 5.30527,0.19827 7.70593,1.19498c0.9435,0.39172 1.68528,1.15508 2.53874,1.71982c0.48247,0.01784 0.95472,0.08657 1.40659,0.25677c0.42845,0.16138 0.84582,0.40939 1.25383,0.7177c0.38793,0.11288 0.76331,0.25176 1.10379,0.46538c1.99712,1.25297 3.30255,3.4999 4.55204,5.41507c3.50032,2.72468 7.76448,4.80687 10.9014,7.94379c0.90738,0.90738 1.36397,2.18077 2.16559,3.18279c3.016,3.77 7.0205,6.6179 10.65162,9.65162c1.72495,1.44116 2.78575,3.67767 4.72936,4.80673c0.91146,0.52948 2.09846,0.45379 3,1c0.90002,0.54528 1.4499,1.53469 2.27064,2.19327c2.84853,2.28572 6.15203,3.16134 8.72936,5.80673c3.66908,1.20333 7.08485,3.86861 10.2242,6.15611c0.68966,0.50252 1.0429,1.40684 1.7758,1.84389c0.8556,0.51022 1.98102,0.41791 2.84594,0.91218c1.44705,0.82693 2.55291,2.17313 4,3c0.96561,0.55175 2.20343,0.51065 3.15406,1.08782c0.91922,0.55811 1.49607,1.55132 2.32368,2.23799c2.89957,2.40579 6.02523,4.61467 8.94697,6.95528c3.56742,2.85785 7.96788,4.97054 11.23116,8.21532c0.83613,0.83139 1.11925,2.11512 1.95163,2.95027c2.9685,2.97837 8.61251,4.70877 7.66536,10.34215c-0.43779,2.60385 -5.88404,6.04956 -7.84815,7.35897c-1.78335,1.78335 -3.03386,4.05107 -4.81721,5.83441c-1.50923,1.50923 -3.49417,2.48738 -5,4c-0.45448,0.45653 -4.1454,4.16913 -4.45344,4.35886c-0.89751,0.55279 -2.08854,0.47052 -3,1c-2.32509,1.35066 -3.6693,4.56449 -6,6c-0.89751,0.55279 -2.08854,0.47052 -3,1c-1.5161,0.88072 -2.3297,2.63914 -3.67632,3.76201c-3.31858,2.76718 -6.74902,5.29678 -10.05303,8.04472c-2.18688,1.81883 -4.78773,3.10372 -6.94697,4.95528c-1.13006,0.96904 -1.96595,2.27269 -3.17623,3.13947c-2.00228,1.43399 -4.38603,2.37723 -6.14745,4.09852c-2.55417,0.87519 -5.4175,2.37853 -8.27104,1.18307c-3.78783,-1.58687 -2.85379,-3.33074 -4.28908,-6.21132c-1.07198,-2.15143 -2.91917,-3.85301 -4,-6c-0.47398,-0.94152 -0.53144,-2.05578 -1,-3c-1.38927,-2.79959 -3.74249,-6.06507 -5.68757,-8.51341c-0.67395,-0.84833 -1.74966,-1.38817 -2.24214,-2.35323c-0.62472,-1.22418 -0.39686,-2.76505 -1,-4c-0.95834,-1.96223 -3.07714,-3.18853 -4.07029,-5.13337c-1.60794,-3.14877 -2.77621,-6.6305 -4.78232,-9.6366c-0.55556,-0.8325 -1.58605,-1.28775 -2.09852,-2.14745c-1.95518,-3.27994 -3.30197,-7.58243 -5.03565,-11.05951c-1.45614,-2.18421 -2.46599,-4.643 -3.90007,-6.84176c-0.59887,-0.91821 -1.65572,-1.49296 -2.19999,-2.44455c-0.8178,-1.42983 -0.99757,-3.16787 -1.82477,-4.59228c-0.48548,-0.83599 -1.54949,-1.22857 -2.03952,-2.0619c-1.06863,-1.81727 -0.89502,-4.2046 -2,-6c-0.49416,-0.80293 -1.51641,-1.19066 -2,-2c-1.98779,-3.32679 -3.0102,-7.57094 -4.96048,-10.9381c-0.45683,-0.78872 -1.45118,-1.15556 -1.94581,-1.92114c-3.15203,-4.87865 -5.01045,-11.15431 -7.27679,-16.49838c-0.13989,-0.32986 -0.28054,-0.6645 -0.42754,-0.99769c-0.43953,-0.68717 -0.81926,-1.40292 -1.1444,-2.14451c-0.26054,-0.37859 -0.552,-0.73188 -0.88612,-1.04674c0,0 -1.49915,-1.49915 -0.35577,-3.11689c-0.32257,-1.79393 -0.43018,-3.68704 -0.37646,-5.65088c0.03611,-1.31993 -0.28923,-2.72643 0.1903,-3.95671c0.42893,-1.10045 1.6415,-1.70361 2.37634,-2.62826c0.86531,-1.08882 1.31883,-2.54693 2.41587,-3.40179c1.04539,-0.81462 2.47757,-0.94271 3.72691,-1.38494c3.3427,-1.18321 7.06308,-2.37455 10.60639,-2.97307c-1.30838,-0.1146 -2.59072,-0.16374 -3.81582,-0.15522l-2.5,-3.5c0,0 0,-2.5 2.5,-2.5zM332.86198,200.77743c-0.15103,-0.11189 -0.30014,-0.22641 -0.44695,-0.34407c-2.29351,-1.83802 -3.98583,-5.75696 -7.01457,-5.46564c-3.52646,1.17549 -6.54751,0.50012 -10.095,1.01355c-2.58798,0.37456 -5.09206,1.201 -7.60649,1.91903c-1.73687,0.49599 -3.79365,0.43033 -5.18148,1.58647c-0.77935,0.64924 -0.94662,1.80923 -1.58413,2.59821c-0.44529,0.55109 -1.34945,0.71843 -1.62366,1.37174c-0.26473,0.63074 0.16451,1.35973 0.1903,2.04329c0.06665,1.76641 -0.38423,4.10539 0.00297,6.04935c0.90887,1.07887 1.66508,2.24683 2.32091,3.47423c0.65512,0.56224 1.34676,1.0956 1.94389,1.70865c0.52448,0.53846 0.90076,1.25649 1.54656,1.64114c3.6179,2.15489 10.1659,3.63458 14.28522,3.65891c4.92321,-1.70526 8.83504,-3.62613 12.63269,-7.30005c0.51819,-0.50131 1.26782,-0.8201 1.59227,-1.46398c0.92837,-1.84241 0.67053,-3.82547 0.6755,-5.76825c0.00664,-2.59294 -0.5926,-4.82048 -1.63802,-6.72257z" fill="#656565" stroke="none" stroke-width="0.5"></path><path d="M332.90702,200.75571c1.04542,1.90209 1.64955,4.14855 1.64291,6.74149c-0.00497,1.94278 0.25107,3.94221 -0.6773,5.78462c-0.32445,0.64388 -1.07588,0.96793 -1.59407,1.46924c-3.79765,3.67392 -7.74594,5.62499 -12.66915,7.33025c-4.11932,-0.02433 -10.71519,-1.52055 -14.33309,-3.67544c-0.6458,-0.38465 -1.0264,-1.10855 -1.55088,-1.64701c-0.59713,-0.61305 -1.29231,-1.15312 -1.94743,-1.71536c-0.65583,-1.2274 -1.41542,-2.4066 -2.32429,-3.48547c-0.3872,-1.94396 0.06365,-4.30009 -0.003,-6.0665c-0.02579,-0.68356 -0.45382,-1.41784 -0.18909,-2.04858c0.27421,-0.65331 1.18004,-0.82552 1.62533,-1.37661c0.63751,-0.78898 0.80882,-1.95689 1.58817,-2.60613c1.38783,-1.15614 3.45423,-1.1017 5.1911,-1.59769c2.51443,-0.71803 5.04502,-1.55629 7.633,-1.93085c3.54749,-0.51343 6.60143,0.16925 10.12789,-1.00624c3.02874,-0.29132 4.73879,3.6469 7.0323,5.48492c0.14681,0.11766 0.29656,0.23347 0.44759,0.34536z" data-paper-data="{&quot;noHover&quot;:false,&quot;origItem&quot;:[&quot;Path&quot;,{&quot;applyMatrix&quot;:true,&quot;segments&quot;:[[[332.86198,200.77743],[0,0],[-0.15103,-0.11189]],[[332.41503,200.43336],[0.14681,0.11766],[-2.29351,-1.83802]],[[325.40046,194.96772],[3.02874,-0.29132],[-3.52646,1.17549]],[[315.30546,195.98127],[3.54749,-0.51343],[-2.58798,0.37456]],[[307.69897,197.9003],[2.51443,-0.71803],[-1.73687,0.49599]],[[302.51749,199.48677],[1.38783,-1.15614],[-0.77935,0.64924]],[[300.93336,202.08498],[0.63751,-0.78898],[-0.44529,0.55109]],[[299.3097,203.45672],[0.27421,-0.65331],[-0.26473,0.63074]],[[299.5,205.50001],[-0.02579,-0.68356],[0.06665,1.76641]],[[299.50297,211.54936],[-0.3872,-1.94396],[0.90887,1.07887]],[[301.82388,215.02359],[-0.65583,-1.2274],[0.65512,0.56224]],[[303.76777,216.73224],[-0.59713,-0.61305],[0.52448,0.53846]],[[305.31433,218.37338],[-0.6458,-0.38465],[3.6179,2.15489]],[[319.59955,222.03229],[-4.11932,-0.02433],[4.92321,-1.70526]],[[332.23224,214.73224],[-3.79765,3.67392],[0.51819,-0.50131]],[[333.82451,213.26826],[-0.32445,0.64388],[0.92837,-1.84241]],[[334.50001,207.50001],[-0.00497,1.94278],[0.00664,-2.59294]],[[332.86199,200.77744],[1.04542,1.90209],[0,0]]],&quot;closed&quot;:true,&quot;fillColor&quot;:[0.39608,0.39608,0.39608]}]}" fill="#000000" stroke="none" stroke-width="0.5"></path><path d="M382,331.5c0,10.49341 -8.05887,19 -18,19c-9.94113,0 -18,-8.50659 -18,-19c0,-10.49341 8.05887,-19 18,-19c9.94113,0 18,8.50659 18,19z" fill="#656565" stroke="#000000" stroke-width="2"></path></g></g></svg>