<svg version="1.1" xmlns="http://www.w3.org/2000/svg" xmlns:xlink="http://www.w3.org/1999/xlink" width="287.84205" height="197.75927" viewBox="0,0,287.84205,197.75927"><g transform="translate(-102.58826,-181.48476)"><g data-paper-data="{&quot;isPaintingLayer&quot;:true}" fill-rule="nonzero" stroke="none" stroke-width="0.5" stroke-linecap="butt" stroke-linejoin="miter" stroke-miterlimit="10" stroke-dasharray="" stroke-dashoffset="0" style="mix-blend-mode: normal"><path d="M135.05785,215.94025c1.69112,-1.00977 3.14897,-2.38037 4.84222,-3.38656c2.39173,-1.42125 5.50764,-2.13341 8.10231,-3.07626c3.60463,-1.30985 7.11213,-2.99658 10.84957,-3.93057c4.64784,-1.1615 9.34164,-1.05679 14.07831,-1.03871c0.05302,-0.05803 0.10547,-0.1171 0.15732,-0.17722c0.36918,-0.0308 0.74142,-0.05885 1.1171,-0.08409c4.77978,-0.32114 9.64442,0.5981 14.4198,0.26343c6.27563,-0.43981 13.06962,-0.9981 19.17906,0.89448c4.82465,-0.8736 9.44728,1.14662 14.28251,1.5681c1.08196,0.09431 2.14941,-0.50165 3.23186,-0.41319c5.3135,0.43421 10.71825,2.86967 15.67773,4.5176c2.48914,0.82709 5.27039,0.63088 7.70098,1.61687c0.95229,0.3863 1.58472,1.37227 2.54343,1.74235c1.47399,0.56899 3.12458,0.53884 4.62765,1.02588c2.76958,0.89744 5.16316,2.69559 7.79909,3.93165c7.19778,3.37525 14.17239,6.10118 20.78101,10.72672c3.55736,1.54073 6.26723,3.18611 9.25242,5.20026c0.79342,-1.54656 1.45165,-3.17515 2.29592,-4.69461c2.59444,-4.66929 6.23785,-9.05242 9.28856,-13.45218c2.63566,-3.80117 5.09015,-8.42375 8.23199,-11.81561c0.77186,-0.83328 1.85679,-1.31573 2.71094,-2.06443c4.23555,-3.71266 7.84726,-8.0413 12.67108,-11.06743c3.86993,-2.42772 8.11061,-4.44696 12.12257,-6.63209c4.31985,-1.44498 8.48556,-3.42792 13.07013,-3.85942c7.36101,-0.69282 14.49727,0.25773 21.87622,0.38748c2.83713,0.04988 12.2036,-0.74622 13.74361,1.99571c2.53813,4.51902 -2.28171,7.05918 -4.56705,8.96581c-2.82666,2.35825 -5.89624,5.57277 -9.00491,7.52194c-0.93437,0.58585 -2.21808,0.49111 -3.10202,1.15059c-0.73446,0.54795 -0.82098,1.69548 -1.51492,2.29392c-2.22171,1.91598 -5.01823,3.28551 -7.8845,3.91124c-4.56892,4.17145 -10.07576,6.99109 -14.70643,11.05197c-7.61689,6.67963 -14.25099,14.0799 -20.95805,21.56512c-0.91717,1.02358 -2.1813,1.69603 -3.101,2.71731c-0.78548,0.87224 -3.16913,4.90334 -4.0539,5.82281c-0.53236,0.55323 -1.10393,1.07385 -1.67141,1.5977c1.62363,0.24874 1.94797,2.03997 1.94797,2.03997l-0.15357,3.26153c-1.51131,2.12285 -1.7714,4.11355 -2.4985,6.27397c1.47827,-0.94325 2.86792,-1.98794 4.07894,-3.23168c2.03221,-2.08713 3.07988,-5.17474 5.06298,-7.32567c0.93161,-1.01045 2.18363,-1.69393 3.101,-2.71731c0.91112,-1.01642 1.4126,-2.36005 2.34449,-3.35747c1.7044,-1.82425 3.90701,-3.11212 5.78432,-4.7579c3.88417,-3.40512 7.80253,-7.27066 12.0492,-10.21603c2.37539,-1.64751 5.02321,-2.86983 7.44116,-4.45422c1.63502,0.43106 3.46569,0.40591 4.90509,1.29318c3.04582,1.87751 4.55357,7.21402 4.79262,10.52093c0.28317,3.91734 -0.16348,8.73568 -1.82497,12.34471c-2.17671,4.72819 -5.38389,9.01692 -6.46445,14.31074c-1.00463,4.92183 1.12922,12.26796 -3.56707,15.67438c-0.90113,0.65363 -4.91812,0.91749 -6.2336,1.30974c-1.22973,0.36667 -2.32947,1.15883 -3.59321,1.38159c-0.32286,0.05691 -7.11008,-0.08133 -7.70099,-0.09212c-5.67131,-0.12415 -11.22426,1.54978 -16.8597,1.6321c-1.49055,0.02177 -2.93615,-0.65556 -4.42673,-0.63566c-1.4721,0.01965 -2.88008,0.77972 -4.35206,0.75287c-1.05392,-0.01924 -1.98368,-0.81321 -3.03514,-0.88764c-1.29508,-0.09167 -2.80712,0.01626 -4.31966,0.20746c-0.958,1.30646 -1.96211,2.52005 -2.98607,3.57821c-1.66549,1.72111 -3.94399,2.78121 -5.56694,4.54251c-1.39564,1.5146 -2.86874,2.95594 -4.30587,4.43121c-0.73829,0.75788 -1.01849,1.91807 -1.83695,2.58855c-0.46032,0.3771 -0.96881,0.68262 -1.49589,0.96105c0.00307,0.01449 0.00447,0.02222 0.00447,0.02222l0.25197,1.39159c0.72631,4.0112 1.63898,7.58761 2.78171,11.46225c0.23583,0.79961 0.05368,1.70806 0.39167,2.47013c0.80107,1.80622 2.55154,3.03432 3.6015,4.70817c1.57256,2.50699 2.49226,5.41821 4.27138,7.78309c0.96962,1.28885 2.3157,2.25148 3.3697,3.47229c3.15115,3.64984 5.63022,7.99822 8.48184,11.90035c3.66856,2.5437 5.05439,6.31474 8.15757,9.30845c2.75277,2.65566 8.08293,5.50349 9.32879,9.41676c0.5669,1.78064 0.52381,3.87526 -0.18838,5.60291c-0.54224,1.31536 -2.14904,1.86611 -3.258,2.75741c-3.0941,2.48681 -7.01661,6.25324 -10.62463,7.8729c-3.48069,1.5625 -6.53863,0.79086 -9.97722,0.29982c-2.74283,-0.39169 -5.58962,-0.08125 -8.2779,-0.75186c-3.42085,-0.85337 -6.97623,-2.36836 -10.381,-3.39768c-3.93448,-2.71134 -6.34836,-5.63354 -9.55302,-9.11571c-1.76393,-1.91668 -3.97074,-3.37909 -5.83133,-5.2021c-2.71116,-2.65639 -4.33623,-6.28552 -6.30565,-9.43198c-2.98961,-4.77638 -5.73059,-9.7692 -7.26643,-15.28574c-2.08009,-7.47142 -1.21063,-14.44299 -1.07379,-22.04208c0,0 0.03905,-2.1375 2.02155,-2.42313c0.30789,-0.7799 0.64773,-1.51353 0.99153,-2.23732c-1.1587,0.41652 -2.22098,1.19085 -3.44304,1.30486c-1.56442,0.14596 -3.10178,-0.64294 -4.67281,-0.619c-1.3824,0.02105 -2.69771,0.69016 -4.07887,0.75233c-0.54243,0.02441 -1.0847,0.0164 -1.62685,-0.01297c-0.55129,1.51331 -2.34024,1.51331 -2.34024,1.51331l-0.13795,-0.12829c-4.78189,1.54273 -9.72139,1.05682 -14.71841,1.05682c-3.68324,0 -7.91144,0.55198 -11.54273,-0.03228c-0.96632,-0.15548 -1.8212,-0.76137 -2.78557,-0.92853c-1.82976,-0.31716 -3.73919,0.30433 -5.57113,0c-2.86369,-0.47572 -5.50589,-2.32748 -8.3567,-2.78556c-3.07565,-0.49421 -5.61034,-0.90731 -8.65522,-1.92446c-3.38545,-0.84459 -7.77312,-1.28118 -10.82911,-3.05924c-0.75666,-0.44025 -1.11195,-1.39748 -1.85704,-1.85705c-2.30211,-1.41993 -5.7046,-1.43258 -8.14076,-2.66641c-1.84032,-0.93205 -3.08415,-2.78114 -4.85856,-3.83325c-0.84188,-0.49918 -1.9463,-0.42496 -2.78557,-0.92852c-0.75066,-0.4504 -1.10638,-1.40665 -1.85704,-1.85705c-0.83927,-0.50356 -1.95263,-0.41456 -2.78557,-0.92852c-1.08461,-0.66924 -2.74779,-2.84004 -3.8665,-3.80797c-2.5742,-0.70686 -5.21089,-1.48041 -7.27577,-2.69169c-0.702,-0.4118 -1.05981,-1.26578 -1.70537,-1.75312c0.03013,0.90697 0.15176,1.82424 0.37413,2.74465c-0.43668,-0.09353 -0.86668,-0.20366 -1.26184,-0.40324c-2.08278,-1.0519 -3.63656,-3.00506 -5.75246,-3.98864c-0.95586,-0.44433 -2.08432,-0.4326 -3.03514,-0.88764c-2.92464,-1.39966 -5.91413,-4.06146 -8.56527,-5.89971c-6.46235,-4.48086 -11.93247,-9.44265 -18.33113,-13.9273c-2.41711,-1.69408 -6.72268,-5.23724 -7.29188,-8.38083c-0.12806,-0.70723 1.51233,-6.13086 1.83578,-7.21745c1.35956,-4.56733 3.08811,-5.79498 6.23254,-9.18092c3.92387,-4.22524 7.76253,-9.01491 12.45906,-12.53717c2.10006,-1.57498 4.5576,-2.63097 6.65901,-4.20413c1.38525,-0.75999 2.76727,-1.56479 4.15153,-2.38752c0.33226,-0.85442 1.12456,-1.32981 1.12456,-1.32981zM173.70953,292.3624c-1.76776,-1.76776 0,-3.53553 0,-3.53553l0.32458,0.04868c1.48901,-4.19873 3.01333,-4.96681 6.35787,-7.64245c1.69732,-1.35785 3.19281,-3.03911 5.12921,-4.02652c0.80002,-0.40794 1.8003,-0.34611 2.56961,-0.80936c0.77652,-0.46759 1.12934,-1.49964 1.93963,-1.90592c1.21258,-0.60798 2.68855,-0.50288 3.93445,-1.03931c3.06992,-1.32175 5.47645,-3.29551 8.96764,-3.89552c10.15152,-1.74469 22.38876,-2.27538 30.18949,5.52536c2.82755,4.35096 7.66168,7.5453 11.72241,10.79389c2.2981,1.83848 5.30893,5.07726 8.62878,5.00449c0.84911,-0.01861 1.54482,-0.77277 2.38511,-0.89624c3.12876,-0.45975 5.41748,0.41482 7.91792,-2.08561c2.68743,-2.68743 2.14293,-5.49317 1.22451,-8.67554c-1.41752,-4.91177 -2.43887,-7.55148 -6.12746,-11.30799c-1.89144,-3.72457 -3.69904,-7.06582 -6.98505,-9.74217c-2.67913,-2.18207 -3.93465,-1.77727 -7.07719,-2.23765c-3.94061,-0.5773 -7.2685,-2.56745 -11.36488,-1.8706c-2.25258,0.3832 -4.33384,1.53939 -6.59465,1.8706c-2.74491,0.40214 -5.52323,0.46774 -8.26171,0.91497c-5.42779,0.88644 -10.15068,3.74246 -15.78489,3.71409c-4.37371,1.51433 -9.15475,1.96591 -13.46094,3.59108c-1.295,0.48874 -2.4171,1.37359 -3.71409,1.85705c-3.47835,1.29658 -7.60104,1.26162 -10.99825,2.72715c-1.11602,0.48144 -1.91819,1.58286 -3.07249,1.96348c-2.53562,0.8361 -2.89459,-0.70556 -4.98127,0.66242c-0.73212,0.47996 -1.10038,1.4168 -1.85704,1.85705c-2.04424,1.1894 -4.63091,1.08004 -6.8026,2.0167c-0.99568,0.42944 -1.72843,1.33216 -2.69857,1.81655c-1.66587,0.83177 -3.19786,1.28994 -4.64675,1.99682c0.61746,0.75885 1.24451,1.50391 2.07712,1.98747c1.62411,0.94324 3.5034,1.46508 5.08877,2.45232c1.30607,0.332 2.57405,0.65047 3.6727,1.01668c0,0 2.37171,0.79057 1.58114,3.16228c-0.04414,0.13242 -0.0932,0.25499 -0.14651,0.36838c2.15717,1.12593 4.42561,1.94592 6.51732,3.21409c1.62544,0.98548 2.72066,2.75662 4.42667,3.59493c2.65972,1.30694 6.00177,1.39662 8.57265,2.90473c0.75509,0.44295 1.11427,1.39376 1.85705,1.85705c2.45444,1.53089 6.84427,1.82199 9.59839,2.51189c2.95897,0.98433 5.09548,1.28044 8.05819,1.78963c2.86383,0.49219 5.50549,2.3083 8.35671,2.78557c1.83156,0.30659 3.73767,-0.29499 5.57113,0c0.96632,0.15548 1.8212,0.76137 2.78557,0.92853c3.3236,0.57608 7.35859,-0.03229 10.74182,-0.03229c2.86736,0 5.86925,0.27496 8.7635,0.05236c0.41639,-0.33974 0.84412,-0.66363 1.29048,-0.96121c0.68731,-0.68731 1.36445,-1.38387 2.02611,-2.09199c2.06046,0.23822 3.76077,0.71017 6.46031,0.57995c1.44421,-0.06966 2.82488,-0.74118 4.27064,-0.75952c1.4103,-0.01789 2.7751,0.76939 4.18065,0.65232c1.06664,-0.08883 1.93439,-0.9375 2.95902,-1.24694c1.13914,-0.34404 2.3475,-0.58683 3.57267,-0.79026l0.37291,-0.6296c0,0 1.42451,-2.05445 3.47896,-0.62994l-0.00001,0.00004c0.26429,0.18326 0.47101,0.37693 0.63059,0.57532c0.17934,-0.03018 0.3576,-0.06118 0.53461,-0.09323c0,0 2.33626,-0.42303 2.86754,1.83216c0.09228,-0.04286 0.18433,-0.08619 0.27615,-0.13002c1.00364,-0.47911 1.67272,-1.52532 2.69116,-1.9721c1.72678,-0.75751 3.85029,-0.22641 5.56634,-1.0079c1.79822,-0.81891 3.02963,-2.55904 4.70817,-3.6015c1.15404,-0.71671 2.55242,-1.04301 3.6035,-1.90364c0.72892,-0.59684 0.92573,-1.66611 1.58188,-2.34213c1.3899,-1.432 2.81289,-2.83239 4.17535,-4.29053c1.46516,-1.56804 3.40378,-2.62815 5.01645,-4.04111c-0.5696,-0.25495 -1.11688,-0.77567 -1.30497,-1.81441c-0.44543,-2.45999 2.01456,-2.90543 2.01456,-2.90543l1.39159,-0.25197c0.72157,-0.12771 1.49695,-0.2625 2.29998,-0.39055c1.55501,-2.36336 2.92374,-4.95715 3.9706,-7.37392c-1.20342,-1.89089 0.65357,-3.28153 0.65357,-3.28153c0.72594,-0.54151 1.48809,-1.04523 2.27322,-1.52548c1.29293,-1.69867 2.60594,-3.44603 3.48906,-5.19846c1.54303,-3.06193 1.66292,-5.90492 3.68635,-8.88311l-0.06546,0.04762c-0.06449,0.08652 -0.12762,0.17418 -0.18926,0.26307l-2.83238,2.16141c0,0 -0.02198,0.01646 -0.06306,0.04362c0.2998,0.60636 0.40756,1.43968 -0.26868,2.41495c-1.42451,2.05445 -3.47896,0.62994 -3.47896,0.62994l-1.85725,-2.17882c-0.8612,-5.71883 -6.4655,-9.67636 -10.90753,-12.75638c-1.30438,-0.90443 -2.5771,-1.80398 -3.84492,-2.6827c-0.08676,-0.04919 -0.17478,-0.10448 -0.26398,-0.16633c-0.08605,-0.05966 -0.16598,-0.12043 -0.24017,-0.1821c-3.43372,-2.3657 -6.85744,-4.56275 -10.80339,-6.27322c-6.53844,-4.49738 -13.34628,-7.23801 -20.43968,-10.55365c-2.45712,-1.14852 -4.65544,-2.89087 -7.23979,-3.71411c-1.67071,-0.5322 -3.48221,-0.58275 -5.11859,-1.21261c-0.90746,-0.3493 -1.49284,-1.29498 -2.38725,-1.67648c-2.3169,-0.98825 -5.01128,-0.72281 -7.40448,-1.50846c-4.56022,-1.49706 -9.61044,-3.94338 -14.49201,-4.28004c-1.03555,-0.07141 -2.0512,0.51277 -3.08526,0.42227c-4.83561,-0.42319 -9.51533,-2.4377 -14.31026,-1.56949c-1.15717,-0.32149 -2.32448,-0.56816 -3.49886,-0.75396l0.07123,0.55946c0.11732,0.29675 2.68268,6.77459 2.73072,6.93951c1.44658,4.96591 0.26376,10.31128 -0.17565,15.30636c-0.43741,4.97235 -1.22985,9.93198 -3.57737,14.49409c-1.03437,2.01017 -3.07732,3.31311 -4.65398,4.93326c-2.14915,2.20843 -4.17506,4.49567 -6.56807,6.28845c3.37132,-0.86116 6.85262,-1.47609 10.13578,-2.53632c5.60288,-0.02635 10.35568,-2.79288 15.78489,-3.71409c2.7953,-0.4743 5.63499,-0.55094 8.4517,-0.94207c4.48563,-0.62288 8.0514,-2.61839 12.77671,-1.8435c2.19228,0.35951 4.20422,1.53794 6.40467,1.8435c3.96087,0.55002 6.25886,0.66815 9.63621,3.33348c3.6279,2.86306 5.86921,6.60979 7.87131,10.68533c6.19216,6.05964 11.78019,19.0447 4.38227,26.44261c-3.38743,3.38743 -6.44707,2.89993 -10.65253,3.48552c-1.09865,0.15298 -2.07689,0.97655 -3.18602,0.9608c-7.93053,-0.1126 -13.77559,-8.09468 -19.22691,-12.63744c-1.80746,-1.50621 -3.66614,-3.04669 -4.99099,-4.99099c-2.9636,-2.9636 -4.69267,-3.19014 -8.58585,-3.74632c-5.95086,-0.85014 -11.05344,-0.95879 -16.93602,-0.01355c-3.04034,0.48854 -5.06659,2.38996 -7.74578,3.53266c-1.10017,0.46923 -2.42328,0.28418 -3.49373,0.81774c-0.75579,0.37672 -1.04968,1.37479 -1.77446,1.80818c-0.9095,0.54385 -2.04956,0.58211 -3.00152,1.04769c-1.60818,0.78651 -2.7581,2.28332 -4.15602,3.40166c-2.80855,2.24684 -3.75551,1.95182 -4.7844,5.35688l-1.53247,1.90572c0,0 -1.76777,1.76776 -3.53553,0zM163.21307,211.0271c-0.63266,3.94215 1.09496,6.21351 -4.62303,7.58343c-3.62816,0.86924 -4.49136,-1.60565 -7.02295,-2.80094c-0.8976,-0.42381 -1.79079,-0.83949 -2.67976,-1.25121c-2.23657,1.05645 -4.42445,2.27149 -6.58812,3.5377c-0.02781,0.47618 -0.15857,0.82225 -0.15857,0.82225c-0.84752,2.23974 -1.51795,4.54274 -2.31289,6.80167c-0.39312,1.11712 -1.23228,2.11152 -1.3386,3.29101c-0.48084,5.33441 4.29452,11.19482 8.34669,13.97909c9.21262,6.33007 18.93737,10.90511 30.0533,12.63317c1.03977,0.15049 5.71034,0.98652 7.2158,0.71393c4.96498,-0.89901 7.57332,-4.68062 10.73186,-7.9311c0.73459,-0.75598 1.78206,-1.15397 2.5312,-1.89553c2.11889,-2.09744 2.64655,-5.5953 3.45474,-8.32394c0.58686,-1.98136 0.6826,-4.08052 0.86107,-6.13924c0.37039,-4.2726 1.65802,-9.27487 0.35121,-13.53324c-0.68111,-2.21944 -1.71857,-4.31343 -2.57219,-6.47239l-0.3871,-1.86538c0,0 -0.08077,-0.44606 0.01642,-0.99268c-3.35516,-0.12174 -6.73318,0.08648 -10.06594,0.3104c-6.91549,0.46462 -13.90326,-0.28183 -20.80792,0.17466c-1.70982,0.11304 -3.33892,0.51824 -4.94776,1.00315c-0.0193,0.11843 -0.03845,0.23683 -0.05744,0.3552zM263.62734,313.88239c0,0 -0.32092,1.09733 -1.27078,1.59082c0.07531,2.29253 0.27733,4.5874 0.08087,6.86923c-0.08545,0.99252 -0.79269,1.86548 -0.87202,2.85849c-0.4509,5.64399 2.95595,12.39138 5.25576,17.21486c2.23153,4.68028 4.79874,10.43785 8.63179,14.13151c1.94722,1.87641 4.20147,3.43283 6.04009,5.41578c2.70871,2.92135 4.75265,5.6983 8.02792,7.98931c3.17066,0.88717 6.31628,2.25828 9.47342,3.06775c2.52262,0.64678 5.20798,0.27897 7.78546,0.65118c2.51217,0.36277 4.63997,1.23686 7.22575,0.0593c2.41528,-1.09992 4.96226,-3.79963 7.09374,-5.39584c1.39606,-1.04546 3.37298,-1.47477 4.33559,-2.92919c1.01196,-1.52897 -1.8603,-3.45406 -2.26663,-3.87486c-1.83378,-1.89903 -4.02002,-3.42933 -5.90474,-5.27781c-3.10938,-3.04961 -4.49303,-6.76445 -8.14631,-9.29756c-3.03578,-3.97819 -5.56766,-8.50407 -8.82994,-12.27199c-1.12616,-1.30072 -2.54246,-2.34757 -3.57103,-3.72676c-0.71695,-0.96135 -3.70332,-6.84717 -4.4561,-8.0506c-0.698,-1.11584 -3.52237,-4.41471 -3.98063,-5.41662c-0.43771,-0.95696 -0.31282,-2.08859 -0.61623,-3.09621c-1.16274,-3.86143 -2.06711,-7.48848 -2.8043,-11.45671c-1.37196,1.06689 -3.0054,2.35859 -3.58837,2.62028c-1.72024,0.77222 -3.8587,0.2082 -5.56634,1.0079c-0.90215,0.42249 -1.47224,1.38981 -2.37123,1.81897c-2.82367,1.34794 -5.88454,2.19381 -8.62551,3.70283c0,0 -0.21766,0.11915 -0.55335,0.21381c-0.194,0.50553 -0.37223,1.0295 -0.52687,1.58214zM312.97836,250.00956c1.15533,-1.66623 2.81841,-2.91573 4.24061,-4.36087c1.61446,-1.64049 2.39134,-3.96438 3.92337,-5.68211c0.91481,-1.02569 2.18383,-1.69374 3.101,-2.71731c6.85574,-7.65114 13.64813,-15.22945 21.44807,-22.0436c4.90862,-4.28826 10.68204,-7.46355 15.66792,-11.69443c3.21148,-0.77716 3.99273,-0.57712 6.66702,-3.03523c0.79816,-0.73363 1.03715,-1.98562 1.90391,-2.63675c1.04044,-0.78161 2.50085,-0.81047 3.60393,-1.50086c1.07159,-0.67069 1.85403,-1.72119 2.82929,-2.52554c1.87212,-1.54403 3.73842,-3.09545 5.6322,-4.61285c0.66622,-0.53381 1.42243,-0.9459 2.10717,-1.45574c0.45307,-0.33734 1.82288,-0.86232 1.30306,-1.08337c-0.78011,-0.33175 -1.63058,0.50993 -2.47497,0.58501c-2.34268,0.2083 -4.70318,-0.07954 -7.05467,-0.12405c-7.23016,-0.13683 -14.17041,-0.99832 -21.38318,-0.40281c-3.95124,0.32622 -7.75711,2.23095 -11.47445,3.45928c-9.51625,5.23908 -18.4216,10.61058 -25.90251,18.65066c-2.96104,3.18237 -5.24387,7.61941 -7.72256,11.19422c-2.95158,4.2568 -6.52509,8.50339 -9.02396,13.02647c-0.91758,1.66087 -1.65749,3.42619 -2.54178,5.10435c5.25912,3.59711 10.76782,7.3888 13.60107,12.98784zM153.02289,272.56396c1.02613,-0.5138 1.81686,-1.44765 2.87257,-1.89755c1.97021,-0.83962 4.37955,-0.56397 6.19672,-1.69738c0.74278,-0.46329 1.09411,-1.42774 1.85704,-1.85704c1.8231,-1.02587 4.17911,-0.52513 6.161,-1.19463c0.96347,-0.32547 1.563,-1.35215 2.49865,-1.7506c3.48881,-1.48572 7.58134,-1.48922 11.13725,-2.78864c-2.4153,0.07666 -5.65921,-0.53372 -7.59788,-0.81006c-4.58488,-0.71823 -9.97649,-1.52621 -14.23875,-3.51487c-0.92111,-0.42977 -1.59124,-1.29682 -2.5101,-1.73134c-7.45827,-3.52693 -15.15468,-6.15076 -20.35002,-13.01937c-3.08251,-4.0753 -6.01054,-8.22369 -5.53948,-13.74626c0.14838,-1.73968 0.97483,-4.08126 1.88035,-6.3417c-0.96635,0.56556 -1.93313,1.11805 -2.90261,1.6476c-2.01427,1.50892 -4.37584,2.51236 -6.39151,4.01941c-4.43021,3.31232 -8.00779,7.86444 -11.70242,11.84705c-0.93471,1.00757 -2.14828,1.72675 -3.101,2.71731c-1.97383,2.05222 -2.05735,5.00913 -2.9502,7.5725c-0.226,0.64884 -0.94955,1.21191 -0.82713,1.88798c0.12242,0.67607 0.99879,0.94858 1.43663,1.47807c1.98833,2.40451 3.65754,3.59682 6.24964,5.39413c2.85181,1.97739 4.73152,3.83752 7.1369,6.20473c2.36932,2.33171 5.99937,4.12056 8.72889,6.01315c1.30325,0.90365 2.7328,2.08763 4.19553,3.17843c0.59932,-0.03949 1.07844,0.12021 1.07844,0.12021l2.95171,0.99053c1.55262,0.7763 3.36921,1.36093 5.14964,1.98019c2.64352,-2.38047 5.42562,-3.12233 8.58016,-4.70184zM310.20817,278.84373c1.05209,0.06485 1.98123,0.86836 3.03514,0.88764c1.35607,0.0248 2.6413,-0.73913 3.99745,-0.75898c1.49055,-0.02182 2.93615,0.65554 4.42673,0.63566c5.69604,-0.07593 11.29261,-1.71898 17.04229,-1.63211c2.23995,0.04092 4.51665,0.58313 6.71881,0.1713c1.1015,-0.20599 2.03886,-0.94966 3.11274,-1.26987c1.58111,-0.47146 3.42287,0.03082 4.89908,-0.70605c1.20949,-0.60374 0.62754,-3.636 0.62862,-4.01367c0.00999,-3.51149 0.01613,-4.88272 0.75789,-8.51589c1.63195,-7.99319 7.3926,-13.78694 8.12613,-21.99078c0.30539,-3.41543 -0.10448,-8.98779 -3.75715,-10.49904c-1.58841,1.5044 -3.66746,2.38742 -5.4668,3.63186c-4.09748,2.83385 -7.87252,6.59728 -11.6192,9.87891c-1.77293,1.55286 -3.88307,2.7345 -5.48008,4.4678c-1.79932,1.95289 -3.5014,3.99441 -5.31496,5.93408c-2.04434,2.1865 -3.10025,5.31159 -5.19352,7.46637c-3.64685,3.75401 -8.66599,5.76505 -13.10432,8.47463c-0.381,0.50747 -0.75126,1.00929 -1.09969,1.50441c-0.75435,1.99628 -1.7684,4.1652 -2.95641,6.30253c0.42903,-0.00314 0.84625,0.00647 1.2472,0.03119zM157.69918,213.69055c0.64366,0.03098 0.70264,-0.67968 0.65366,-1.51311c-0.00921,0.00241 -0.01842,0.00481 -0.02762,0.00722c-0.8921,0.23266 -1.81789,0.33375 -2.74423,0.42754c0.80518,0.54502 1.66338,1.05647 2.11819,1.07835z" fill="#000000"></path><path d="M163.19713,210.97972c0.01899,-0.11837 0.03848,-0.23688 0.05778,-0.35531c1.60884,-0.48491 3.24857,-0.89236 4.95839,-1.0054c6.90466,-0.45649 13.92852,0.30056 20.84401,-0.16406c3.33276,-0.22392 6.71823,-0.42483 10.07339,-0.30309c-0.09719,0.54662 -0.01577,0.99349 -0.01577,0.99349l0.38854,1.86729c0.85362,2.15896 1.89599,4.26146 2.5771,6.4809c1.30681,4.25837 0.02361,9.28009 -0.34678,13.55269c-0.17847,2.05872 -0.27498,4.16784 -0.86184,6.1492c-0.80819,2.72864 -1.34056,6.24049 -3.45945,8.33793c-0.74914,0.74156 -1.79907,1.14381 -2.53366,1.89979c-3.15854,3.25048 -5.78398,7.04837 -10.74896,7.94738c-1.50546,0.27259 -6.18758,-0.5586 -7.22735,-0.70909c-11.11593,-1.72806 -20.89999,-6.33147 -30.11261,-12.66154c-4.05217,-2.78427 -8.83128,-8.67031 -8.35044,-14.00472c0.10632,-1.17949 0.94641,-2.17925 1.33953,-3.29637c0.79494,-2.25893 1.46916,-4.57266 2.31668,-6.8124c0,0 0.13133,-0.3472 0.15914,-0.82338c2.16367,-1.26621 4.35766,-2.49038 6.59423,-3.54683c0.88897,0.41172 1.78315,0.82626 2.68075,1.25007c2.53159,1.19529 3.39982,3.66529 7.02798,2.79605c5.71799,-1.36992 4.00665,-3.65045 4.63931,-7.5926z" data-paper-data="{&quot;noHover&quot;:false,&quot;origItem&quot;:[&quot;Path&quot;,{&quot;applyMatrix&quot;:true,&quot;segments&quot;:[[[163.21307,211.0271],[0,0],[-0.63266,3.94215]],[[158.59004,218.61053],[5.71799,-1.36992],[-3.62816,0.86924]],[[151.56709,215.80959],[2.53159,1.19529],[-0.8976,-0.42381]],[[148.88733,214.55838],[0.88897,0.41172],[-2.23657,1.05645]],[[142.29921,218.09608],[2.16367,-1.26621],[-0.02781,0.47618]],[[142.14064,218.91833],[0,0],[-0.84752,2.23974]],[[139.82775,225.72],[0.79494,-2.25893],[-0.39312,1.11712]],[[138.48915,229.01101],[0.10632,-1.17949],[-0.48084,5.33441]],[[146.83584,242.9901],[-4.05217,-2.78427],[9.21262,6.33007]],[[176.88914,255.62327],[-11.11593,-1.72806],[1.03977,0.15049]],[[184.10494,256.3372],[-1.50546,0.27259],[4.96498,-0.89901]],[[194.8368,248.4061],[-3.15854,3.25048],[0.73459,-0.75598]],[[197.368,246.51057],[-0.74914,0.74156],[2.11889,-2.09744]],[[200.82274,238.18663],[-0.80819,2.72864],[0.58686,-1.98136]],[[201.68381,232.04739],[-0.17847,2.05872],[0.37039,-4.2726]],[[202.03502,218.51415],[1.30681,4.25837],[-0.68111,-2.21944]],[[199.46283,212.04176],[0.85362,2.15896],[0,0]],[199.07573,210.17638],[[199.09215,209.1837],[-0.09719,0.54662],[-3.35516,-0.12174]],[[189.02621,209.4941],[3.33276,-0.22392],[-6.91549,0.46462]],[[168.21829,209.66876],[6.90466,-0.45649],[-1.70982,0.11304]],[[163.27053,210.67191],[1.60884,-0.48491],[-0.0193,0.11843]],[[163.21309,211.02711],[0.01899,-0.11837],[0,0]]],&quot;closed&quot;:true}]}" fill="#ffffff"></path><path d="M177.2021,292.38797l1.53212,-1.9063c1.02889,-3.40506 1.97489,-3.11177 4.78344,-5.35861c1.39792,-1.11834 2.54736,-2.61608 4.15554,-3.40259c0.95195,-0.46557 2.0922,-0.50346 3.00171,-1.04731c0.72478,-0.43339 1.01828,-1.43224 1.77407,-1.80896c1.07045,-0.53356 2.48304,-0.39316 3.5832,-0.86239c2.67918,-1.1427 4.70518,-3.04462 7.74552,-3.53315c5.88258,-0.94524 10.97277,-0.85187 16.92363,-0.00173c3.89318,0.55618 5.60149,0.77249 8.56509,3.73609c1.32485,1.94431 3.17131,3.48355 4.97877,4.98976c5.45131,4.54276 11.27398,12.5307 19.20451,12.6433c1.10914,0.01575 2.08408,-0.8059 3.18273,-0.95889c4.20547,-0.58559 7.25606,-0.09073 10.64348,-3.47816c7.39792,-7.39792 1.79683,-20.35854 -4.39533,-26.41818c-2.0021,-4.07554 -4.24345,-7.80164 -7.87136,-10.6647c-3.37735,-2.66533 -5.66805,-2.766 -9.62892,-3.31601c-2.20045,-0.30556 -4.19489,-1.46788 -6.38718,-1.82739c-4.72531,-0.77489 -8.23233,1.21294 -12.71795,1.83582c-2.81671,0.39113 -5.64507,0.45143 -8.44037,0.92572c-5.42921,0.92121 -10.17818,3.67289 -15.78106,3.69925c-3.28316,1.06023 -6.86422,1.66954 -10.23554,2.5307c2.39301,-1.79278 4.41985,-4.08889 6.569,-6.29731c1.57666,-1.62015 3.62204,-2.93152 4.65641,-4.94169c2.34752,-4.56211 3.15077,-9.5386 3.58818,-14.51095c0.43941,-4.99508 1.63095,-10.34759 0.18437,-15.3135c-0.04804,-0.16492 -2.6123,-6.64344 -2.72962,-6.94019l-0.07106,-0.55957c1.17438,0.1858 2.34375,0.4313 3.50092,0.75279c4.79493,-0.86821 9.48617,1.14181 14.32178,1.565c1.03406,0.0905 2.05285,-0.49437 3.0884,-0.42296c4.88157,0.33666 9.94753,2.78258 14.50775,4.27964c2.3932,0.78565 5.09607,0.52211 7.41297,1.51036c0.89441,0.3815 1.48287,1.32827 2.39033,1.67757c1.63638,0.62986 3.4533,0.68291 5.12401,1.2151c2.58435,0.82324 4.79031,2.57064 7.24743,3.71916c7.0934,3.31564 13.91467,6.07286 20.45311,10.57024c3.94595,1.71047 7.37283,3.9154 10.80655,6.2811c0.07419,0.06167 0.15418,0.12263 0.24023,0.18229c0.0892,0.06185 0.17727,0.11732 0.26403,0.16651c1.26782,0.87872 2.54126,1.78099 3.84564,2.68542c4.44203,3.08002 10.04764,7.04754 10.90884,12.76637l1.85727,2.18029c0,0 1.95445,1.42494 3.37896,-0.6295c0.67624,-0.97527 0.56851,-1.80709 0.26871,-2.41345c0.04108,-0.02716 0.06306,-0.0436 0.06306,-0.0436l2.83244,-2.16017c0.06164,-0.08889 0.12478,-0.1764 0.18927,-0.26292l0.16523,-0.0543c-2.02343,2.97819 -2.14325,5.82661 -3.68628,8.88854c-0.88312,1.75243 -2.19639,3.50327 -3.48933,5.20194c-0.78513,0.48025 -1.54743,0.98515 -2.27337,1.52666c0,0 -1.85735,1.39287 -0.65393,3.28376c-1.04686,2.41677 -2.41688,5.01594 -3.97189,7.3793c-0.80303,0.12805 -1.57863,0.26355 -2.3002,0.39126l-1.39174,0.25242c0,0 -2.46082,0.4478 -2.01539,2.90779c0.18809,1.03874 0.73505,1.56028 1.30464,1.81523c-1.61267,1.41296 -3.55302,2.47691 -5.01818,4.04495c-1.36246,1.45814 -2.7876,2.86235 -4.1775,4.29435c-0.65615,0.67602 -0.85414,1.74711 -1.58306,2.34395c-1.05108,0.86063 -2.45112,1.18923 -3.60516,1.90594c-1.67854,1.04246 -2.91292,2.78611 -4.71114,3.60503c-1.71605,0.78149 -3.84228,0.2531 -5.56906,1.01061c-1.01844,0.44678 -1.68965,1.49485 -2.69329,1.97396c-0.09182,0.04383 -0.18406,0.08732 -0.27634,0.13018c-0.53128,-2.25519 -2.86829,-1.83156 -2.86829,-1.83156c-0.17701,0.03205 -0.35561,0.06332 -0.53495,0.0935c-0.15958,-0.19839 -0.3664,-0.39198 -0.6307,-0.57524l0.00001,-0.00004c-2.05445,-1.42451 -3.48138,0.63169 -3.48138,0.63169l-0.37343,0.62995c-1.22517,0.20343 -2.43635,0.44794 -3.57549,0.79198c-1.02463,0.30944 -1.89512,1.15956 -2.96176,1.24838c-1.40555,0.11707 -2.77357,-0.66877 -4.18387,-0.65088c-1.44576,0.01834 -2.83056,0.69132 -4.27477,0.76098c-2.69953,0.13022 -4.40616,-0.34025 -6.46662,-0.57847c-0.66166,0.70812 -1.34121,1.40503 -2.02852,2.09234c-0.44636,0.29757 -0.8755,0.62161 -1.29189,0.96136c-2.89425,0.2226 -5.90508,-0.05236 -8.77244,-0.05236c-3.38323,0 -7.42854,0.60634 -10.75214,0.03025c-0.96437,-0.16715 -1.82196,-0.77397 -2.78828,-0.92945c-1.83346,-0.29499 -3.74408,0.30466 -5.57564,-0.00194c-2.85121,-0.47727 -5.49969,-2.29741 -8.36353,-2.7896c-2.9627,-0.50919 -5.10426,-0.80937 -8.06323,-1.7937c-2.75412,-0.6899 -7.14866,-0.98597 -9.6031,-2.51686c-0.74278,-0.46329 -1.10322,-1.41569 -1.85831,-1.85863c-2.57088,-1.50811 -5.91595,-1.60223 -8.57566,-2.90917c-1.70601,-0.8383 -2.80303,-2.61271 -4.42846,-3.59819c-2.09171,-1.26817 -4.36173,-2.09161 -6.5189,-3.21753c0.05331,-0.11339 0.10231,-0.23613 0.14644,-0.36855c0.79057,-2.37171 -1.58196,-3.16442 -1.58196,-3.16442c-1.09865,-0.36622 -2.36707,-0.68599 -3.67314,-1.01799c-1.58537,-0.98724 -3.46532,-1.5113 -5.08944,-2.45454c-0.83262,-0.48356 -1.46003,-1.23001 -2.07749,-1.98887c1.44888,-0.70688 2.98075,-1.16555 4.64663,-1.99732c0.97013,-0.48439 1.70273,-1.38784 2.69841,-1.81728c2.1717,-0.93666 4.75828,-0.82767 6.80253,-2.01707c0.75666,-0.44025 1.12472,-1.37812 1.85684,-1.85808c2.08668,-1.36798 2.44569,0.17389 4.98131,-0.66221c1.1543,-0.38062 1.95628,-1.48316 3.07229,-1.9646c3.39721,-1.46553 7.51976,-1.43143 10.99811,-2.72801c1.29699,-0.48346 2.4189,-1.36972 3.7139,-1.85846c4.30618,-1.62518 9.08694,-2.07988 13.46065,-3.59421c5.63421,0.02837 10.35741,-2.83682 15.78519,-3.72327c2.73847,-0.44723 5.52017,-0.52563 8.26508,-0.92776c2.26081,-0.33121 4.38558,-1.51827 6.63816,-1.90147c4.09638,-0.69685 7.47546,1.3309 11.41607,1.90821c3.14254,0.46039 4.39958,0.06629 7.07871,2.24836c3.28601,2.67636 5.09063,6.0363 6.98207,9.76087c3.68859,3.75651 4.7048,6.40649 6.12232,11.31826c0.91842,3.18237 1.45697,5.99554 -1.23046,8.68297c-2.50043,2.50043 -4.79613,1.63185 -7.92489,2.09161c-0.84029,0.12347 -1.53873,0.87943 -2.38784,0.89804c-3.31985,0.07277 -6.33788,-3.16234 -8.63598,-5.00082c-4.06073,-3.24859 -8.91564,-6.43921 -11.74319,-10.79017c-7.80074,-7.80074 -20.08337,-7.30347 -30.23489,-5.55877c-3.49119,0.60001 -5.80364,2.53987 -8.87356,3.86163c-1.2459,0.53642 -2.72173,0.43171 -3.93431,1.0397c-0.81029,0.40627 -1.16351,1.43724 -1.94003,1.90483c-0.76932,0.46325 -1.76954,0.40158 -2.56956,0.80952c-1.9364,0.98741 -3.43251,2.66713 -5.12983,4.02498c-3.34454,2.67563 -4.87029,3.44061 -6.35931,7.63934l-0.32452,-0.04854c0,0 -1.76884,1.76574 -0.00107,3.5335c1.76776,1.76776 3.44895,0.05001 3.44895,0.05001z" data-paper-data="{&quot;noHover&quot;:false,&quot;origItem&quot;:[&quot;Path&quot;,{&quot;applyMatrix&quot;:true,&quot;segments&quot;:[[[347.41905,584.72479],[3.53553,3.53553],[-3.53553,-3.53553]],[347.41905,577.65372],[[348.06822,577.75107],[0,0],[2.97803,-8.39745]],[[360.78396,562.46618],[-6.68908,5.35126],[3.39463,-2.7157]],[[371.04238,554.41313],[-3.8728,1.97482],[1.60003,-0.81589]],[[376.18161,552.79441],[-1.53863,0.9265],[1.55305,-0.93518]],[[380.06087,548.98257],[-1.62058,0.81255],[2.42517,-1.21597]],[[387.92977,546.90396],[-2.4918,1.07284],[6.13983,-2.64351]],[[405.86504,539.11291],[-6.98238,1.20003],[20.30304,-3.48939]],[[466.24403,550.16363],[-15.60148,-15.60148],[5.6551,8.70193]],[[489.68885,571.75141],[-8.12147,-6.49718],[4.5962,3.67696]],[[506.94641,581.76039],[-6.63971,0.14554],[1.69822,-0.03722]],[[511.71663,579.96791],[-1.68058,0.24695],[6.25753,-0.91951]],[[527.55247,575.79668],[-5.00087,5.00087],[5.37485,-5.37485]],[[530.00149,558.4456],[1.83684,6.36474],[-2.83504,-9.82354]],[[517.74656,535.82963],[7.37718,7.51301],[-3.78287,-7.44914]],[[503.77646,516.34528],[6.57203,5.35271],[-5.35826,-4.36414]],[[489.62208,511.86997],[6.28507,0.92077],[-7.88121,-1.15461]],[[466.89232,508.12878],[8.19276,-1.3937],[-4.50516,0.76639]],[[453.70301,511.86997],[4.52162,-0.66242],[-5.48982,0.80427]],[[437.17959,513.69992],[5.47695,-0.89447],[-10.85558,1.77289]],[[405.60982,521.1281],[11.26841,0.05675],[-8.74742,3.02866]],[[378.68795,528.31027],[8.61236,-3.25035],[-2.59,0.97748]],[[371.25977,532.02436],[2.59397,-0.96692],[-6.9567,2.59316]],[[349.26326,537.47865],[6.79442,-2.93106],[-2.23203,0.96288]],[[343.11828,541.40562],[2.3086,-0.76124],[-5.07124,1.6722]],[[333.15574,542.73046],[4.17336,-2.73596],[-1.46424,0.95992]],[[329.44165,546.44456],[1.51333,-0.8805],[-4.08849,2.3788]],[[315.83644,550.47796],[4.3434,-1.87332],[-1.99136,0.85888]],[[310.4393,554.11106],[1.94027,-0.96878],[-3.33175,1.66355]],[[301.14581,558.1047],[2.89777,-1.41376],[1.23492,1.51771]],[[305.30006,562.07964],[-1.66523,-0.96712],[3.24823,1.88649]],[[315.4776,566.98429],[-3.17074,-1.97449],[2.61214,0.664]],[[322.823,569.01766],[-2.1973,-0.73243],[0,0]],[[325.98527,575.34221],[1.58114,-4.74342],[-0.08828,0.26484]],[[325.69224,576.07896],[0.10662,-0.22678],[4.31435,2.25186]],[[338.72688,582.50714],[-4.18342,-2.53635],[3.25087,1.97096]],[[347.58021,589.697],[-3.41201,-1.67661],[5.31943,2.61389]],[[364.72551,595.50646],[-5.14175,-3.01621],[1.51018,0.88589]],[[368.43961,599.22055],[-1.48556,-0.92658],[4.90889,3.06179]],[[387.63639,604.24434],[-5.50823,-1.3798],[5.91794,1.96865]],[[403.75277,607.82359],[-5.92541,-1.01837],[5.72767,0.98439]],[[420.46618,613.39473],[-5.70242,-0.95454],[3.66312,0.61318]],[[431.60845,613.39473],[-3.66693,-0.58999],[1.93264,0.31095]],[[437.17959,615.25178],[-1.92874,-0.33431],[6.6472,1.15217]],[[458.66323,615.18721],[-6.76646,0],[5.73471,0]],[[476.19023,615.29193],[-5.78849,0.44521],[0.83279,-0.67949]],[[478.77119,613.36951],[-0.89272,0.59515],[1.37462,-1.37462]],[[482.82341,609.18552],[-1.32332,1.41624],[4.12092,0.47643]],[[495.74403,610.34543],[-5.39907,0.26044],[2.88842,-0.13932]],[[504.28531,608.82639],[-2.89152,0.03668],[2.8206,-0.03578]],[[512.64661,610.13103],[-2.8111,0.23414],[2.13328,-0.17766]],[[518.56465,607.63715],[-2.04926,0.61888],[2.27828,-0.68808]],[[525.70999,606.05663],[-2.45034,0.40686],[0,0]],[526.45581,604.79743],[[533.41373,603.53755],[-4.1089,-2.84902],[0,0]],[[533.41371,603.53763],[0,0],[0.52858,0.36652]],[[534.67489,604.68827],[-0.31916,-0.39678],[0.35868,-0.06036]],[[535.74411,604.50181],[-0.35402,0.0641],[0,0]],[[541.47919,608.16613],[-1.06256,-4.51038],[0.18456,-0.08572]],[[542.03149,607.90609],[-0.18364,0.08766],[2.00728,-0.95822]],[[547.41381,603.96189],[-2.03688,0.89356],[3.45356,-1.51502]],[[558.54649,601.94609],[-3.4321,1.56298],[3.59644,-1.63782]],[[567.96283,594.74309],[-3.35708,2.08492],[2.30808,-1.43342]],[[575.16983,590.93581],[-2.10216,1.72126],[1.45784,-1.19368]],[[578.33359,586.25155],[-1.3123,1.35204],[2.7798,-2.864]],[[586.68429,577.67049],[-2.72492,2.91628],[2.93032,-3.13608]],[[596.71719,569.58827],[-3.22534,2.82592],[-1.1392,-0.5099]],[[594.10725,565.95945],[0.37618,2.07748],[-0.89086,-4.91998]],[598.13637,560.14859],[[600.91955,559.64465],[0,0],[1.44314,-0.25542]],[[605.51951,558.86355],[-1.60606,0.2561],[3.11002,-4.72672]],[[613.46071,544.11571],[-2.09372,4.83354],[-2.40684,-3.78178]],[[614.76785,537.55265],[0,0],[1.45188,-1.08302]],[[619.31429,534.50169],[-1.57026,0.9605],[2.58586,-3.39734]],[[626.29241,524.10477],[-1.76624,3.50486],[3.08606,-6.12386]],[[633.66511,506.33855],[-4.04686,5.95638],[0,0]],[[633.53419,506.43379],[0,0],[-0.12898,0.17304]],[[633.15567,506.95993],[0.12328,-0.17778],[0,0]],[627.49091,511.28275],[[627.36479,511.36999],[0.08216,-0.05432],[0.5996,1.21272]],[[626.82743,516.19989],[1.35248,-1.95054],[-2.84902,4.1089]],[619.86951,517.45977],[[616.15501,513.10213],[0,0],[-1.7224,-11.43766]],[[594.33995,487.58937],[8.88406,6.16004],[-2.60876,-1.80886]],[[586.65011,482.22397],[2.53564,1.75744],[-0.17352,-0.09838]],[[586.12215,481.89131],[0.1784,0.1237],[-0.1721,-0.11932]],[[585.64181,481.52711],[0.14838,0.12334],[-6.86744,-4.7314]],[[564.03503,468.98067],[7.8919,3.42094],[-13.07688,-8.99476]],[[523.15567,447.87337],[14.1868,6.63128],[-4.91424,-2.29704]],[[508.67609,440.44515],[5.1687,1.64648],[-3.34142,-1.0644]],[[498.43891,438.01993],[3.27276,1.25972],[-1.81492,-0.6986]],[[493.66441,434.66697],[1.78882,0.763],[-4.6338,-1.9765]],[[478.85545,431.65005],[4.7864,1.5713],[-9.12044,-2.99412]],[[449.87143,423.08997],[9.76314,0.67332],[-2.0711,-0.14282]],[[443.70091,423.93451],[2.06812,0.181],[-9.67122,-0.84638]],[[415.08039,420.79553],[9.58986,-1.73642],[-2.31434,-0.64298]],[[408.08267,419.28761],[2.34876,0.3716],[0,0]],[[408.22513,420.40653],[0,0],[0.23464,0.5935]],[[413.68657,434.28555],[-0.09608,-0.32984],[2.89316,9.93182]],[[413.33527,464.89827],[0.87882,-9.99016],[-0.87482,9.9447]],[[406.18053,493.88645],[4.69504,-9.12422],[-2.06874,4.02034]],[[396.87257,503.75297],[3.15332,-3.2403],[-4.2983,4.41686]],[[383.73642,516.32987],[4.78602,-3.58557],[6.74264,-1.72232]],[[404.00799,511.25723],[-6.56633,2.12046],[11.20575,-0.05271]],[[435.57777,503.82905],[-10.85842,1.84242],[5.59059,-0.94859]],[[452.48117,501.9449],[-5.63343,0.78227],[8.97126,-1.24577]],[[478.03459,498.25791],[-9.45062,-1.54979],[4.38457,0.71902]],[[490.84392,501.9449],[-4.4009,-0.61112],[7.92174,1.10003]],[[510.11635,508.61186],[-6.7547,-5.33066],[7.25581,5.72612]],[[525.85898,529.98252],[-4.00421,-8.15108],[12.38432,12.11928]],[[534.62353,582.86775],[14.79583,-14.79583],[-6.77485,6.77485]],[[513.31846,589.83879],[8.41093,-1.17118],[-2.1973,0.30596]],[[506.94641,591.76039],[2.21827,0.0315],[-15.86106,-0.2252]],[[468.4926,566.48551],[10.90263,9.08553],[-3.61491,-3.01242]],[[458.51061,556.50352],[2.6497,3.88862],[-5.9272,-5.9272]],[[441.3389,549.01088],[7.78636,1.11236],[-11.90173,-1.70029]],[[407.46686,548.98378],[11.76516,-1.89048],[-6.08068,0.97707]],[[391.97531,556.0491],[5.35837,-2.28539],[-2.20033,0.93846]],[[384.98785,557.68457],[2.14089,-1.06712],[-1.51158,0.75344]],[[381.43892,561.30092],[1.44956,-0.86678],[-1.81901,1.0877]],[[375.43589,563.39629],[1.90391,-0.93114],[-3.21637,1.57302]],[[367.12385,570.1996],[2.79584,-2.23668],[-5.6171,4.49368]],[[357.55505,580.91335],[2.05778,-6.81012],[0,0]],[354.49012,584.72479]],&quot;closed&quot;:true}]}" fill="#a1adff"></path><path d="M170.10355,302.03979c-1.55851,0.2822 -2.30842,-0.60177 -2.64875,-1.28754c0.51058,0.12429 1.0157,0.2479 1.51253,0.37211c0.60335,0.15769 1.15623,0.44006 1.69258,0.76474c-0.16657,0.0625 -0.35137,0.11361 -0.55634,0.15072z" fill="#000000"></path><path d="M264.11837,312.26538c0.3357,-0.09466 0.55381,-0.21429 0.55381,-0.21429c2.74097,-1.50902 5.81085,-2.36204 8.63451,-3.70998c0.899,-0.42916 1.47244,-1.39839 2.3746,-1.82088c1.70764,-0.7997 3.85277,-0.23854 5.57301,-1.01077c0.58296,-0.2617 2.22167,-1.55489 3.59363,-2.62178c0.73718,3.96823 1.64192,7.5952 2.80465,11.45663c0.30341,1.00763 0.17839,2.13927 0.61611,3.09624c0.45826,1.00191 3.29014,4.29969 3.98815,5.41554c0.75279,1.20343 3.75823,7.09168 4.47518,8.05304c1.02857,1.37918 2.46641,2.44019 3.59257,3.7409c3.26228,3.76793 5.80339,8.34544 8.83917,12.32363c3.65328,2.53311 5.03233,6.25686 8.14171,9.30647c1.88472,1.84848 4.07004,3.38016 5.90381,5.27919c0.40634,0.4208 3.27722,2.34776 2.26526,3.87673c-0.96261,1.45442 -2.94375,1.88853 -4.3398,2.93398c-2.13148,1.59621 -4.68741,4.30305 -7.10269,5.40297c-2.58578,1.17756 -4.72126,0.30739 -7.23343,-0.05538c-2.57748,-0.37221 -5.27316,-0.00145 -7.79578,-0.64824c-3.15715,-0.80946 -6.31792,-2.1803 -9.48857,-3.06748c-3.27527,-2.29101 -5.33712,-5.07398 -8.04583,-7.99533c-1.83861,-1.98295 -4.10589,-3.54997 -6.05312,-5.42638c-3.83305,-3.69366 -6.41255,-9.48113 -8.64408,-14.1614c-2.2998,-4.82347 -5.70166,-11.59587 -5.25077,-17.23985c0.07933,-0.99301 0.78852,-1.86959 0.87397,-2.8621c0.19646,-2.28182 -0.00136,-4.58271 -0.07667,-6.87522c0.94986,-0.4935 1.27243,-1.59274 1.27243,-1.59274c0.15464,-0.55265 0.33417,-1.07799 0.52816,-1.58351z" data-paper-data="{&quot;noHover&quot;:false,&quot;origItem&quot;:[&quot;Path&quot;,{&quot;applyMatrix&quot;:true,&quot;segments&quot;:[[[394.58114,561.74342],[1.08454,-0.37565],[0,0]],[[390.51834,561.46774],[1.89356,0.99876],[-3.68208,2.73637]],[[379.32053,569.4289],[3.9742,-2.2775],[-1.72863,0.99063]],[[373.62866,571.25325],[1.72249,-1.00127],[-9.79008,5.69088]],[[351.32455,599.50963],[5.30678,-9.27673],[-5.14924,9.00133]],[[337.93544,629.80091],[1.70256,-10.50918],[-0.86492,5.33875]],[[335.91764,645.90003],[1.16379,-5.28166],[-1.71454,7.78111]],[[331.93544,668.19909],[0.03288,-7.99395],[2.15519,6.2222]],[[337.68943,687.26527],[-2.26751,-6.11145],[1.81178,4.88316]],[[345.49158,700.80324],[-2.32558,-4.66042],[2.26665,4.54231]],[[353.62866,712.74675],[-4.88218,-2.90792],[4.56026,2.71618]],[[370.58114,718.25658],[-5.05252,-1.68417],[3.30923,1.10308]],[[380.33633,722.04424],[-3.48742,0.07536],[3.6662,-0.07922]],[[384.12181,713.90306],[-0.22854,1.14738],[1.03138,-5.17807]],[[386.0671,698.18362],[-0.89025,5.20419],[1.46873,-8.58582]],[[392.06456,674.19909],[0,8.89114],[3.07877,-9.52308]],[[402.17162,645.70126],[-2.47508,9.65572],[0.85442,-3.33323]],[[404.22719,635.58501],[-1.0946,3.26225],[0.76299,-2.27393]],[[412.3806,619.08658],[-1.12002,2.60869],[1.0385,-2.41883]],[[416.74675,606.37134],[-1.12446,1.89497],[1.07401,-1.80996]],[[421.13329,601.83006],[-1.31032,1.64697],[5.02141,-6.31156]],[[436.76726,584.16484],[-5.68192,5.73383],[-3.317,-1.03906]],[[428.37134,581.25325],[1.09446,0.65991],[-3.2296,-1.94728]],[[420.37134,573.25325],[3.26041,1.89525],[-1.72249,-1.00127]],[[414.67947,571.4289],[1.72986,0.98849],[-5.4333,-3.10474]],[[398.76393,561.47214],[5.60379,2.78526],[0,0]],[[397.78192,560.80634],[0.53814,0.44387],[-1.05193,0.25726]]],&quot;closed&quot;:true}]}" fill="#a1adff"></path><path d="" data-paper-data="{&quot;noHover&quot;:false,&quot;origItem&quot;:[&quot;Path&quot;,{&quot;applyMatrix&quot;:true,&quot;segments&quot;:[[[319.13329,375.83006],[-0.35371,0.41915],[1.79064,-2.12193]],[[323.95238,369.03616],[-2.20709,1.68455],[4.88673,-3.72978]],[[341.14305,362.35762],[-5.70738,2.2841],[0,0]],[[341.66467,362.19541],[-0.3264,0.08412],[-1.03026,-2.8865]],[[337.25161,354.30901],[1.98035,2.32687],[-1.38743,-1.6302]],[[331.83006,350.86671],[1.65589,1.35667],[-1.09612,-0.89805]],[[329.08658,347.6194],[1.3066,0.54841],[-0.99305,-0.4168]],[[318.53172,347.84052],[3.32054,-0.58741],[0.09045,9.4839]],[[317.9642,376.40273],[-1.17242,-9.30607],[0.02783,0.22092]],[[318.04829,377.06552],[-0.02822,-0.22094],[0.36911,-0.40497]]],&quot;closed&quot;:true}]}" fill="#ffffff"></path><path d="" data-paper-data="{&quot;noHover&quot;:false,&quot;origItem&quot;:[&quot;Path&quot;,{&quot;applyMatrix&quot;:true,&quot;segments&quot;:[[[341.13329,435.83006],[-3.94366,4.92957],[1.60325,-2.00406]],[[345.46447,429.46447],[-1.81475,1.81475],[2.56915,-2.56915]],[[352.06419,423.71423],[-1.94314,1.61031],[-0.00503,-2.32152]],[[352.03746,415.61092],[0.40626,3.35501],[-0.86239,-7.12181]],[[348.08376,395.91139],[-0.02375,7.28593],[-2.73134,-6.91697]],[[343.94238,372.01133],[1.21505,8.25161],[-2.82408,1.14838]],[[335.44998,375.40333],[2.86869,-1.03081],[-1.76398,0.63385]],[[330.04762,376.96384],[1.472,-1.16045],[-1.59705,1.25904]],[[326.86671,382.16994],[1.29139,-1.57101],[-0.12843,0.15624]],[[319.78216,389.28925],[3.02046,-3.02139],[1.90341,12.36226]],[[325.93544,426.19909],[-1.9685,-12.20529],[1.12144,6.95328]],[[327.8006,445.60206],[-1.79408,-7.04038],[0.44176,1.33879]],[[329.2946,449.56268],[-0.55238,-1.30201],[3.65706,-5.23011]]],&quot;closed&quot;:true}]}" fill="#ffffff"></path><path d="" data-paper-data="{&quot;noHover&quot;:false,&quot;origItem&quot;:[&quot;Path&quot;,{&quot;applyMatrix&quot;:true,&quot;segments&quot;:[[416.25658,489.41886],[[418.25658,483.41886],[0,0],[1.58735,-4.75254]],[[422.42743,468.97723],[-1.97368,4.60553],[1.0181,-2.37572]],[[426.67545,462.49037],[-1.28427,2.24304],[2.46421,-4.30387]],[[432.50842,448.80324],[-2.21699,4.43628],[1.9457,-3.89342]],[[439.0623,437.50635],[-2.1432,3.78773],[-5.94344,-0.00337]],[[419.78639,441.94174],[4.35824,-0.86973],[-5.38607,1.07484]],[[403.80091,445.93544],[5.42058,-0.8845],[-3.01557,0.49206]],[[394.09792,446.32547],[3.34453,0.11065],[-7.89626,5.85822]],[[376.55469,469.28177],[5.1543,-8.39636],[0,0]],[375.93903,473.77844],[[370.22156,477.93903],[4.93903,0.77844],[-4.93903,-0.77844]],[366.06097,472.22156],[[367.15539,465.86809],[0,0],[4.16206,-7.06706]],[[380.18822,445.98361],[-5.03375,5.95202],[-4.8087,-0.06985]],[[366.2178,443.15444],[4.20852,2.35007],[-2.37159,-1.32431]],[[361.46447,436.53553],[1.92688,1.91451],[-1.24576,-1.23776]],[[356.94686,433.71119],[1.5006,0.93228],[-1.5029,0.90795]],[[352.53553,436.53553],[1.23474,-1.23474],[-1.58477,1.58477]],[[348.86671,442.16994],[1.40007,-1.75008],[-3.95604,4.94505]],[[337.16025,455.7735],[3.55985,-5.38191],[0,0]],[334.53553,458.53553],[[334.21151,458.81812],[0.20911,-0.16768],[4.38065,6.89692]],[[350.06502,478.28176],[-5.85373,-6.14778],[0,0]],[[354.53553,479.46447],[0,0],[2.14083,2.27175]],[[362.58114,484.25658],[-2.98587,-0.91029],[4.20265,1.45568]],[[375.80091,486.06456],[-4.40079,-0.64362],[4.73962,0.69318]],[[389.61092,490.03746],[-4.75403,-0.58623],[5.3561,0.66047]],[[405.80091,490.06456],[-5.34492,-0.74556],[2.08797,0.29125]],[[411.80091,492.06456],[-2.07739,-0.35902],[1.44628,0.24995]],[[416.17435,492.55882],[-1.46782,-0.08549],[-0.42738,-1.6111]]],&quot;closed&quot;:true}]}" fill="#ffffff"></path><path d="" data-paper-data="{&quot;noHover&quot;:false,&quot;origItem&quot;:[&quot;Path&quot;,{&quot;applyMatrix&quot;:true,&quot;segments&quot;:[[[441.49158,453.19676],[2.07905,-4.15573],[-2.32433,4.646]],[[435.32455,467.50963],[2.57366,-4.51266],[-1.10126,1.93095]],[[431.57257,473.02277],[0.8757,-2.04315],[-1.85005,4.31648]],[[427.74342,486.58114],[1.48256,-4.45608],[0,0]],[[425.85164,492.25647],[0,0],[5.61756,-0.56704]],[[442.38908,490.03746],[-5.32429,0.5898],[5.54276,-0.614]],[[464.74675,484.37134],[-3.74502,6.63949],[5.39651,-9.56739]],[[460.74675,453.62866],[2.75191,8.99062],[-4.59644,-4.3996]],[[448.47525,441.12933],[4.72423,3.37644],[-2.23801,4.07068]]],&quot;closed&quot;:true}]}" fill="#ffffff"></path><path d="M308.91708,278.83654c1.18801,-2.13733 2.19938,-4.31196 2.95374,-6.30825c0.34843,-0.49511 0.71812,-0.99844 1.09912,-1.50591c4.43832,-2.70957 9.45493,-4.73145 13.10177,-8.48546c2.09326,-2.15477 3.15419,-5.30833 5.19853,-7.49483c1.81356,-1.93967 3.53819,-4.00351 5.33751,-5.9564c1.59699,-1.7333 3.7287,-2.92006 5.50163,-4.47294c3.74667,-3.28163 7.54251,-7.04077 11.63999,-9.87462c1.79934,-1.24444 3.88303,-2.12512 5.47143,-3.62951c3.65267,1.51124 4.07449,7.09317 3.76911,10.50862c-0.73353,8.20384 -6.48245,14.04314 -8.1144,22.03633c-0.74178,3.63317 -0.7608,5.02763 -0.77078,8.53912c-0.00108,0.37766 0.57431,3.41557 -0.63519,4.01931c-1.47621,0.73688 -3.32915,0.24062 -4.91025,0.71208c-1.07388,0.3202 -2.02036,1.06642 -3.12187,1.27241c-2.20215,0.41183 -4.49775,-0.13061 -6.7377,-0.17153c-5.74968,-0.08687 -11.37296,1.54109 -17.069,1.61702c-1.49058,0.01987 -2.93973,-0.6618 -4.43028,-0.63999c-1.35614,0.01985 -2.64283,0.78172 -3.99889,0.75691c-1.05391,-0.01928 -1.98475,-0.82558 -3.03685,-0.89043c-0.40096,-0.02471 -0.81859,-0.03508 -1.24763,-0.03194z" data-paper-data="{&quot;noHover&quot;:false,&quot;origItem&quot;:[&quot;Path&quot;,{&quot;applyMatrix&quot;:true,&quot;segments&quot;:[[[505.25325,598.37134],[-0.41632,-0.68716],[1.09241,1.80308]],[[507.25325,604.37134],[-1.16936,-1.75415],[1.50461,2.25704]],[[513.05621,610.07645],[-1.5781,-2.20628],[1.73451,2.42495]],[[517.05621,618.07645],[-1.73134,-2.42721],[6.61606,9.27524]],[[539.16025,644.2265],[-6.40962,-9.54894],[2.48542,3.72813]],[[546.53553,655.46447],[-3.18645,-3.15005],[1.59384,1.57564]],[[552.16994,659.13329],[-1.75008,-1.40007],[2.57671,2.06137]],[[558.91342,666.3806],[-2.8934,-1.58648],[2.37064,1.29984]],[[566.2265,662.83975],[-0.62194,0.42863],[5.78272,-3.98531]],[[581.08658,654.3806],[-6.81666,2.92125],[14.99708,-6.42693]],[[626.49037,642.67545],[-14.31945,8.14358],[5.96148,-3.39034]],[[639.46447,624.53553],[1.67879,7.72561],[-4.28273,-0.89622]],[[627.26527,619.68943],[4.09586,1.53915],[-9.32715,-3.50497]],[[597.78732,611.85071],[9.6633,2.41809],[-4.57269,-1.14425]],[[584.19909,607.93544],[4.66873,0.64947],[-5.26022,-0.73175]],[[568.38908,605.96254],[5.25473,0.77022],[-5.9234,-0.86824]],[[550.19909,605.93544],[5.927,0.9848],[-10.32593,-1.71571]],[[521.33671,594.0555],[9.51131,4.20678],[-1.26825,-0.04788]],[[517.61092,593.96254],[1.21083,0.00842],[-4.14069,1.03517]],[[503.88318,596.28594],[4.86669,-0.48315],[0.4941,0.70157]]],&quot;closed&quot;:true}]}" fill="#a1adff"></path><path d="M311.39849,251.18157c-2.83324,-5.59904 -8.35472,-9.40523 -13.61384,-13.00234c0.88429,-1.67816 1.62254,-3.44658 2.54012,-5.10745c2.49887,-4.52309 6.06835,-8.78121 9.01993,-13.03802c2.4787,-3.57481 4.76132,-8.03191 7.72235,-11.21427c7.48091,-8.0401 16.44096,-13.45177 25.95721,-18.69084c3.71734,-1.22834 7.541,-3.12758 11.49223,-3.45379c7.21277,-0.59549 14.16983,0.28046 21.39999,0.41729c2.35149,0.04451 4.7144,0.33592 7.05707,0.12761c0.84439,-0.07508 1.69525,-0.91611 2.47536,-0.58436c0.51981,0.22106 -0.84985,0.74626 -1.30293,1.08359c-0.68475,0.50984 -1.44084,0.9221 -2.10707,1.45591c-1.89378,1.51739 -3.75939,3.07005 -5.63151,4.61409c-0.97527,0.80436 -1.75715,1.85588 -2.82874,2.52657c-1.10309,0.6904 -2.56371,0.71885 -3.60415,1.50046c-0.86677,0.65114 -1.1047,1.90526 -1.90285,2.63889c-2.67428,2.4581 -3.45559,2.25795 -6.66707,3.03511c-4.98589,4.23088 -10.75743,7.44404 -15.66604,11.7323c-7.79994,6.81415 -14.66746,14.41725 -21.52321,22.06839c-0.91717,1.02358 -2.18751,1.69072 -3.1023,2.7164c-1.53203,1.71773 -2.30877,4.04173 -3.92323,5.68222c-1.42221,1.44514 -3.08608,2.69405 -4.24141,4.36028z" data-paper-data="{&quot;noHover&quot;:false,&quot;origItem&quot;:[&quot;Path&quot;,{&quot;applyMatrix&quot;:true,&quot;segments&quot;:[[[555.80091,570.06456],[0,0],[4.05518,0]],[[567.80091,572.06456],[-3.99594,-0.69058],[4.5361,0.78393]],[[581.61092,572.03746],[-4.5691,-0.56044],[2.72829,0.33465]],[[589.61092,574.03746],[-2.72751,-0.34094],[20.38799,2.54851]],[[650.28334,584.1675],[-20.08836,-5.05418],[12.64192,3.18067]],[[687.35917,596.59156],[-12.63567,-3.37304],[4.93713,4.39261]],[[699.94554,604.09022],[-7.08768,-1.59407],[2.11535,0.47576]],[[706.44892,604.21454],[-2.05796,-0.68254],[2.47032,0.81931]],[[713.02277,608.42743],[-2.39179,-1.0262],[2.32352,0.99691]],[[720.39794,610.1994],[-2.43343,-0.68626],[4.67121,1.31734]],[[734.39794,614.1994],[-4.6521,-1.3833],[1.63659,0.48664]],[[739.19188,616.00368],[-1.61829,-0.54441],[1.07076,0.36022]],[[742.45744,616.91072],[0.22907,1.10626],[-0.34378,-1.66023]],[[738.67545,613.50963],[1.08568,1.30224],[-3.0121,-3.61294]],[[730.83975,601.7735],[2.60665,3.91554],[-8.01468,-12.03912]],[[707.13329,566.16994],[9.19849,11.17597],[-5.03903,-6.12232]],[[688.37134,551.25325],[6.25516,4.70984],[-19.45555,-9.67001]],[[628.19909,529.93544],[21.7397,3.13274],[-8.60484,-1.23998]],[[601,530],[8.70017,0],[-10.35997,0]],[[569.30642,530.01371],[10.28171,-1.04752],[-3.77542,0.38465]],[[558.02047,531.65312],[3.7659,-0.45906],[0.08129,12.74299]],[[552.17412,568.80835],[5.97355,-11.03733],[0,0]]],&quot;closed&quot;:true}]}" fill="#a1adff"></path><path d="M141.92549,277.39644c-0.95082,-0.45504 -2.07965,-0.44443 -3.03551,-0.88877c-2.66529,-1.23897 -5.48135,-3.84359 -7.87147,-5.50085c-2.72952,-1.89259 -6.36028,-3.68564 -8.7296,-6.01736c-2.40539,-2.36722 -4.2854,-4.23097 -7.13722,-6.20836c-2.5921,-1.79731 -4.26137,-2.99239 -6.2497,-5.3969c-0.43784,-0.52949 -1.31419,-0.80272 -1.43661,-1.47879c-0.12242,-0.67607 0.60116,-1.24005 0.82716,-1.88889c0.89284,-2.56337 0.97665,-5.52407 2.95049,-7.57629c0.95272,-0.99056 2.16649,-1.71128 3.1012,-2.71884c3.69463,-3.98261 7.27384,-8.54204 11.70405,-11.85437c2.01567,-1.50705 4.37832,-2.51367 6.39259,-4.02258c0.96947,-0.52955 2.02922,-1.04523 2.99557,-1.61079c-0.90553,2.26045 -1.73058,4.59828 -1.87896,6.33796c-0.47105,5.52258 2.45878,9.66343 5.54129,13.73873c5.19534,6.86862 12.89235,9.48322 20.35062,13.01015c0.91887,0.43453 1.58892,1.29978 2.51003,1.72954c4.26227,1.98867 9.65313,2.79061 14.23799,3.50884c2.29979,0.32783 6.33901,1.14815 8.7502,0.71155c6.03551,-1.09285 9.53324,-5.38753 13.43924,-9.40127c1.57665,-1.62015 3.62982,-2.9467 4.6642,-4.95687c2.34752,-4.56211 3.16741,-9.53935 3.60481,-14.5117c0.4394,-4.99508 1.64082,-10.24232 0.19424,-15.20824c-0.04803,-0.16491 -2.61143,-6.64308 -2.72876,-6.93982l-0.0887,-0.65793c1.17438,0.1858 2.34543,0.43194 3.50261,0.75344c4.79493,-0.86822 9.49119,1.14741 14.3268,1.5706c1.03405,0.0905 2.05287,-0.49281 3.08843,-0.4214c4.88158,0.33666 9.94636,2.79025 14.50659,4.28731c2.3932,0.78565 5.09283,0.52458 7.40972,1.51284c0.8944,0.3815 1.48177,1.3292 2.38923,1.67849c1.63639,0.62987 3.45052,0.68349 5.12123,1.21568c2.58434,0.82324 4.78631,2.57084 7.24343,3.71936c7.0934,3.31563 13.90661,6.06874 20.44505,10.56613c3.94595,1.71046 7.37083,3.91285 10.80455,6.27855c0.07419,0.06167 0.15416,0.12256 0.24021,0.18223c0.0892,0.06185 0.17724,0.11726 0.264,0.16646c1.26782,0.87872 2.54079,1.78015 3.84517,2.68458c4.44202,3.08001 10.04665,7.0448 10.90785,12.76364l1.85723,2.1799c0,0 1.95455,1.41997 3.37907,-0.63448c0.67623,-0.97527 0.56845,-1.8074 0.26864,-2.41376c0.04108,-0.02716 0.06305,-0.0436 0.06305,-0.0436l2.83238,-2.16036c0.06163,-0.08888 0.12476,-0.17642 0.18926,-0.26294l0.16546,-0.04828c-2.02342,2.97819 -2.14346,5.82554 -3.6865,8.88747c-0.88312,1.75242 -2.19644,3.50254 -3.48937,5.20121c-0.78513,0.48025 -1.54741,0.9849 -2.27335,1.52641c0,0 -1.85728,1.39235 -0.65387,3.28323c-1.04686,2.41677 -2.41656,5.01469 -3.97157,7.37804c-0.80303,0.12805 -1.57857,0.26336 -2.30013,0.39107l-1.39168,0.25231c0,0 -2.46056,0.44721 -2.01514,2.90721c0.18809,1.03875 0.73513,1.56013 1.30474,1.81508c-1.61267,1.41296 -3.55242,2.47597 -5.01758,4.044c-1.36246,1.45813 -2.78681,2.86145 -4.17671,4.29345c-0.65615,0.67602 -0.85372,1.74672 -1.58264,2.34356c-1.05108,0.86063 -2.45048,1.18869 -3.60451,1.9054c-1.67854,1.04246 -2.91178,2.78541 -4.71,3.60432c-1.71605,0.78148 -3.84109,0.25245 -5.56786,1.00996c-1.01844,0.44677 -1.68882,1.4946 -2.69246,1.97371c-0.09182,0.04383 -0.26008,0.02241 -0.35235,0.06526c-0.53127,-2.25519 -2.79166,-1.76704 -2.79166,-1.76704c-2.78533,0.50434 -5.88634,0.75379 -8.59316,1.57128c-1.02464,0.30945 -1.89401,1.15959 -2.96066,1.24843c-1.40555,0.11706 -2.77197,-0.66886 -4.18227,-0.65097c-1.44578,0.01834 -2.82887,0.69167 -4.27309,0.76134c-2.7252,0.13146 -4.43475,-0.34916 -6.52359,-0.58403c3.02407,-3.23195 5.72715,-6.70397 7.60321,-10.63478c0.56662,-1.18719 2.11618,-1.60675 2.94101,-2.63151c0.90572,-1.12527 1.64818,-2.37304 2.44412,-3.57846c3.26594,-4.94615 6.13862,-11.91891 7.12151,-17.87302c0.91199,-5.52466 0.21028,-14.70248 -4.95229,-18.07095c-2.41714,-1.57713 -5.4922,-1.82186 -8.49769,-1.68915c-0.07057,-0.01426 -0.14141,-0.02779 -0.21252,-0.04056l-4.46096,-0.89219l-0.10362,0.51807c-0.28875,-0.22365 -0.5794,-0.44493 -0.87217,-0.6636c-0.57969,-0.43298 -1.45596,0.20253 -2.16912,0.08046c-6.57185,-1.12486 -12.62695,-2.11714 -18.92993,1.36437c-0.91569,0.5058 -4.32299,3.92573 -5.52785,5.14953c-4.56174,4.63348 -7.7938,10.29898 -10.86326,15.97964c-1.13664,2.10359 -3.19232,4.23225 -4.65546,6.10756c-0.1593,0.20418 -0.48547,0.48784 -0.78339,0.7566c-2.5371,-1.03562 -5.17797,-1.71607 -7.85976,-2.31604c-1.73696,-0.3886 -3.6768,-0.21198 -5.22855,-1.08383c-7.20916,-4.05045 -16.74315,-9.93014 -25.49431,-8.3159c-6.82273,1.25852 -13.06462,7.07857 -14.23026,13.98853c-1.60717,-1.07306 -2.97648,-2.55341 -4.7204,-3.38801z" data-paper-data="{&quot;noHover&quot;:false,&quot;origItem&quot;:[&quot;Path&quot;,{&quot;applyMatrix&quot;:true,&quot;segments&quot;:[[[365.7735,414.83975],[-1.48459,-0.98973],[4.16025,2.7735]],[[367.16025,421.7735],[0,0],[-1.35563,2.0196]],[[363.89285,426.75084],[0.95479,-1.39184],[1.4656,0.99816]],[[368.53553,429.46447],[-1.25582,-1.26607],[1.47528,1.48732]],[[371.7822,434.84556],[-1.79227,-1.08458],[2.32275,1.4056]],[[385.01568,436.00002],[-2.93572,-0.00325],[2.01817,0.00223]],[[391.44281,436.26239],[-2.22298,-0.12256],[0.98335,-0.34485]],[[395.27527,436.42998],[-1.40236,-0.75279],[2.40801,0.06069]],[[402.19909,436.06456],[-2.15239,0.36805],[8.28145,-1.41609]],[[427.51999,430.1983],[-8.29184,1.83041],[5.22795,-1.15406]],[[444.14876,428.13376],[-5.57035,-1.50971],[12.12852,3.28715]],[[469.25325,448.37134],[-7.96311,-8.24402],[4.36588,12.35353]],[[473.25325,489.62866],[7.96416,-12.89748],[-6.39373,10.35427]],[[443.61092,499.96254],[10.11665,-1.1274],[-10.78859,1.20228]],[[410.19909,501.93544],[11.08548,1.78789],[-2.08129,-0.33568]],[[404.19909,499.93544],[2.08588,0.30586],[-5.21425,-0.76459]],[[388.38908,499.96254],[5.2284,0.66096],[-4.87797,-0.61666]],[[374.19909,495.93544],[4.86986,0.67769],[-2.57594,-0.35847]],[[366.4056,495.11988],[2.59391,0.29306],[0.76726,0.82639]],[[368.66144,497.59503],[-0.73568,-0.82391],[3.61836,4.05228]],[[380.59178,508.69857],[-3.42427,-4.21757],[5.26615,6.48616]],[[390.94103,525.92294],[-4.94946,-6.45065],[1.76033,2.29425]],[[397.05621,532.07645],[-1.67775,-2.35531],[1.63659,2.29752]],[[400.74839,539.69099],[-1.79417,-2.1767],[1.36157,1.65186]],[[406.16994,543.13329],[-1.67628,-1.33139],[4.42831,3.5172]],[[418.53553,555.46447],[-4.0031,-4.0031],[0,0]],[[418.79214,562.2654],[3.1011,-3.44323],[0.1756,0.10282]],[[419.32053,562.5711],[-0.17668,-0.10096],[1.93119,1.10354]],[[425.62866,564.74675],[-1.89492,-1.16472],[3.21285,1.9748]],[[433.62866,572.74675],[-3.24005,-1.92984],[3.39519,2.02224]],[[444.91342,576.3806],[-3.62621,-1.57079],[2.4931,1.07995]],[[452.14876,580.13376],[-2.61232,-0.74674],[1.81163,0.51786]],[[457.80091,580.06456],[-1.85884,-0.30802],[3.93753,0.65246]],[[469.61092,582.03746],[-3.94921,-0.57758],[4.24688,0.62111]],[[481.96953,585.67699],[-4.1601,-1.04029],[-0.23009,-1.22672]],[[483.46447,581.46447],[-1.4929,1.4929],[3.53553,-3.53553]],[490.53553,581.46447],[[492.53553,583.46447],[0,0],[1.0322,1.0404]],[[495.79851,586.79955],[-1.12561,-1.17389],[5.65642,-0.13755]],[[512.44293,584.92207],[-5.16512,1.03359],[1.73636,-4.13276]],[[518.58114,582.25658],[0,0],[1.7173,0.57603]],[[523.67894,584.2543],[-1.68406,-0.74312],[4.26529,0.18918]],[[536.19909,584.06456],[-3.88662,0.54562],[6.79092,-0.95334]],[[555,580],[-7.20074,0.06836],[0,0]],[[554.84714,579.94669],[0,0],[-0.21571,-0.0074]],[[554.19909,579.93544],[0.21633,0],[0,0]],[547.41886,577.74342],[[547.2753,577.68949],[0.09146,0.03656],[-0.65493,1.18375]],[[543,580],[2.37356,0],[-5,0]],[538,575],[[539.46447,569.46447],[0,0],[8.4178,-7.93268]],[[548,537],[0,10.81075],[0,-3.17451]],[[548.02746,527.62341],[0.0006,3.08513],[-0.01803,-0.19865]],[[548,527],[0,0.21709],[0,-0.20941]],[[548.02558,526.39773],[-0.01681,0.19223],[-0.02494,-8.3395]],[[546.02433,501.49269],[1.6856,8.43466],[-0.05956,-15.87158]],[[540.07659,455.87181],[2.63427,15.43697],[-0.9125,-5.3473]],[[537.93041,439.74015],[1.5921,5.1857],[-1.02925,-3.3524]],[[534.09022,429.94554],[0.82962,3.4073],[-0.46007,-1.88953]],[[534.12509,424.11143],[0.39225,1.90477],[-1.01611,-4.93418]],[[528.16611,410.22266],[1.43605,4.8287],[-2.73638,-9.20106]],[[518.68535,381.52661],[5.00979,8.40682],[-1.06275,-1.78337]],[[514.47533,376.93702],[1.02969,1.80266],[-4.81518,-8.42988]],[[500.74675,351.62866],[6.89132,6.89132],[-0.79034,-2.26827]],[[497.99859,345.01887],[1.03297,2.1419],[0,0]],[[497.16025,345.7735],[0,0],[-0.35401,0.53101]],[[488.86671,358.16994],[0.2163,-0.26689],[-6.51324,8.03674]],[[463.50963,375.32455],[8.71046,-4.97025],[-8.67082,4.94763]],[[435.61092,385.96254],[10.17337,-1.34074],[-4.48262,0.59076]],[[422.19909,383.93544],[4.45959,0.74499],[-11.04816,-1.84563]],[[391.46447,372.53553],[8.6743,8.6743],[-3.46538,-3.46538]],[[382.5143,357.20873],[2.08207,4.15344],[-4.04451,-8.35401]],[[372.06456,329.80091],[1.58885,9.27159],[-0.34336,-2.00366]],[[372.04957,323.70234],[0.33299,2.00541],[-2.7028,-16.27744]],[[370.25658,275.41886],[-5.36831,16.36639],[3.18514,-9.71054]],[[386.53651,250.649],[-9.6135,5.51939],[3.02837,-1.73868]],[[399.10236,246.51239],[-4.74713,1.08775],[-2.03079,-0.94375]],[[393.08658,243.6194],[1.97517,0.9899],[-4.77548,-1.59099]],[[379.19662,237.69514],[4.774,1.59542],[-10.49273,-3.50655]],[[346.38908,231.96254],[10.75609,1.53372],[-2.72121,-0.38802]],[[338.38908,229.96254],[2.71378,0.43701],[-5.62235,-0.90538]],[[322.58114,233.74342],[5.23055,-1.4538],[-1.32395,0.36798]],[[318.53553,234.53553],[0.97166,-0.97166],[-0.97166,0.97166]],[[317.74342,238.58114],[0.37128,-1.32303],[-1.68604,6.00814]],[[316,255],[0,-6.30849],[0,6.94059]],[[313.93544,273.80091],[1.14945,-6.65109],[-1.13221,6.55136]],[[314,295],[0,-6.64294],[0,5.81693]],[[313.93544,314.19909],[-1.00107,-5.79251],[0.35902,2.07739]],[[315.93544,320.19909],[-0.33568,-2.08129],[0.74305,4.60713]],[[315.93544,334.19909],[-0.67705,-4.61729],[0.20261,1.38171]],[[317.32563,338.15688],[-0.52312,-1.30541],[2.57146,-0.31893]],[[325,338],[-2.4487,-0.05259],[2.64025,0.05671]],[[332.91342,338.3806],[-2.46055,-0.95906],[2.20091,0.85785]],[[338.16994,343.13329],[-1.85655,-1.46052],[2.09666,1.64941]],[[344.74839,347.69099],[-1.69221,-2.06227],[10.74193,13.09105]],[[357.91624,394.08861],[-5.56097,-14.85341],[0.0235,7.47923]],[[361.91252,414.01532],[-1.02328,-7.36253],[1.06839,-0.27206]]],&quot;closed&quot;:true}]}" fill="#a1adff"></path><path d="M183.53862,212.00235l0.81004,1.66285c0.5467,1.68776 1.52001,3.20729 2.34722,4.77673c0.15064,0.28581 -0.13856,1.04981 0.17004,0.95418c1.45003,-0.44932 1.71499,-2.69265 3.08194,-3.35288c4.15015,-2.00451 5.31587,-1.93518 8.08357,1.74083c0.58871,0.7819 0.42497,1.94629 0.92853,2.78556c1.54852,2.58086 4.29917,1.77599 3.09206,6.53133c-1.08266,4.26505 -4.07257,3.69511 -7.07574,3.78266c-5.37205,0.15661 -9.61866,-0.28542 -14.71841,-1.98534c-1.75671,-0.61052 -3.73879,-0.3251 -5.50502,-0.9075c-1.1543,-0.38062 -1.95555,-1.48422 -3.0725,-1.96349c-2.09971,-0.90097 -4.53686,-0.88815 -6.58666,-1.89754c-1.00115,-0.493 -1.78743,-1.35798 -2.78556,-1.85704c-2.48185,-1.24093 -5.05758,-0.67323 -6.67694,-3.85172c-1.7566,-3.44785 -0.28674,-4.96274 1.56275,-6.8388c0.04492,-1.29827 1.07977,-2.34504 2.37315,-2.4089c0.22228,-0.20898 0.44973,-0.415 0.68215,-0.61517c0.03877,-0.00562 0.07758,-0.01108 0.11647,-0.01636c1.71709,-0.23311 3.44826,-0.44741 5.14338,-0.80755c0.68933,-0.03552 2.72524,-0.22575 4.75995,-1.24459c4.0072,0.34142 7.47756,1.44474 11.56997,2.80888c0,0 2.06266,0.68756 1.69962,2.70386z" fill="#ff0000"></path><path d="M211.1622,254.80794c0.09492,-0.15897 0.19294,-0.31643 0.29375,-0.47243l-0.39811,-0.15925l0.94131,-2.35327c0.35452,-0.94948 1.26971,-1.62559 2.34282,-1.62559c0.4075,0 0.79223,0.0975 1.13213,0.27044l0.78209,-2.73731c0.28053,-1.07387 1.25721,-1.86634 2.41899,-1.86634c0.95619,0 1.787,0.53681 2.2075,1.32551c0.01712,-0.02341 0.0344,-0.04669 0.05183,-0.06984l-0.06985,-0.04191l1.42083,-2.36805c0.04551,-0.07892 0.0952,-0.15513 0.14877,-0.22831l0,-0.45062c0,-1.38071 1.11929,-2.5 2.5,-2.5c1.25484,0 2.29374,0.92451 2.47274,2.12954l0.29905,1.7943c0.19175,-0.04711 0.3922,-0.07209 0.59849,-0.07209c1.38071,0 2.5,1.11929 2.5,2.5l0,1.74835c0.38973,-0.25098 0.85374,-0.3966 1.35175,-0.3966c0.30243,0 0.59231,0.0537 0.86064,0.15209c0.0046,-0.06585 0.00909,-0.13175 0.01347,-0.19768c0.06347,-0.95626 -0.25394,-1.95079 -0.00072,-2.87509c0.01113,-0.04063 0.02239,-0.08123 0.03378,-0.12178l-0.02448,-0.00245l0.47872,-4.78718c0.11199,-1.27708 1.18419,-2.27874 2.49034,-2.27874c1.16178,0 2.13847,0.79247 2.41899,1.86634l0.20897,0.73138c0.44664,-0.41679 1.04616,-0.67185 1.70526,-0.67185c1.1246,0 2.07576,0.74256 2.38994,1.76412l0.84907,2.54721c0.16206,-0.55753 0.36284,-1.07051 0.61255,-1.52203c0.04387,-0.07932 0.08917,-0.15764 0.13581,-0.23505l-0.04947,-0.01979l0.94131,-2.35327c0.23433,-0.62758 0.71361,-1.13573 1.32153,-1.40815c-0.00894,-0.14371 -0.0183,-0.28739 -0.02815,-0.43103c-0.0764,-1.1141 -0.70428,-2.22945 -0.45806,-3.31868c0.0214,-0.09467 0.04378,-0.18905 0.06708,-0.28314l-0.05759,-0.00524l0.45037,-4.95408c0.10234,-1.28675 1.17897,-2.29905 2.49204,-2.29905c1.28901,0 2.35017,0.97555 2.48544,2.22862l0.5063,4.13606l-0.01314,0.00161l0.01757,0.03707c0.41327,4.54421 0.87478,9.0789 1.41159,13.61054c0.10851,0.91603 0.23624,1.79847 0.35316,2.66399c0.06892,-0.1867 0.13876,-0.37376 0.20955,-0.56125l0.17825,-0.15748l-0.07042,-0.04225l1.42083,-2.36805c0.43183,-0.74893 1.24069,-1.25305 2.16731,-1.25305c1.01313,0 1.88551,0.60266 2.2782,1.46904c0.72959,0.10291 1.358,0.52076 1.74329,1.1116c1.26403,1.37135 0.54658,4.0671 0.88102,6.0231c0.45668,2.67093 0.53199,4.52536 0.27328,6.34799c2.4666,0.3575 2.11377,2.82734 2.11377,2.82734c-0.33232,2.32579 -0.64324,4.6547 -0.93781,6.98558v3.25317c0,1.38071 -1.11929,2.5 -2.5,2.5c-0.31844,0 -0.62298,-0.05954 -0.90308,-0.16809c-0.14707,0.90044 -0.77517,1.6392 -1.61187,1.94382c-0.20862,1.72684 -0.41797,3.45427 -0.61697,5.18407l-0.02942,0.06052l0.01958,0.00328l-0.64488,3.84852c-0.17986,1.20405 -1.2183,2.12753 -2.47244,2.12753c-0.30621,0 -0.59955,-0.05505 -0.87069,-0.15579c0.23142,5.91424 -7.84504,7.58422 -11.78293,5.19773c-0.18638,-0.11295 -0.37895,-0.23495 -0.57319,-0.36532c-2.00565,-0.61494 -3.97412,-1.38771 -5.20444,-2.04202c-1.32932,-0.70696 -2.99609,-1.24863 -3.71242,-2.57292c-0.11386,-0.21049 -0.21345,-0.4261 -0.30102,-0.64602l-0.07486,0.03208l-0.88011,-2.05358c-0.15456,-0.13371 -0.29664,-0.28076 -0.42225,-0.44501c-0.99431,-1.30011 -2.45577,-2.70194 -3.17993,-4.19357c-0.80309,-0.11165 -1.60427,-0.33576 -2.36152,-0.64938c-0.95894,-0.39715 -1.91883,-0.9465 -2.81767,-1.61114c-0.37387,-0.0609 -0.70791,-0.11835 -0.98752,-0.16146c-2.18329,-0.33663 -4.72097,-1.14406 -7.00014,-2.3122c-0.53729,-0.17711 -1.05271,-0.37138 -1.5304,-0.58276c-1.00124,0.87138 -2.78925,1.11079 -4.12144,1.4553c-2.04558,0.52899 -4.01647,0.19333 -5.4817,-0.6971c-0.02254,0.42321 -0.09854,0.88163 -0.23476,1.37825c-0.08985,0.3276 -0.25431,0.63779 -0.47597,0.93116c0.97745,1.84064 1.88029,3.9664 1.21667,5.83605c-0.5544,1.56196 -3.07195,1.26924 -4.67177,1.70241c-4.6528,1.25981 -12.18065,1.93462 -16.20258,-1.34643c-0.23459,-0.19137 -0.47648,-0.38877 -0.7211,-0.59209c-0.04952,0.01503 -0.09903,0.03006 -0.14853,0.04502c0.15123,0.12296 0.30197,0.24649 0.45177,0.3711l2.37486,1.89989c0.5823,0.45772 0.9563,1.16848 0.9563,1.9666c0,1.24438 -0.90916,2.27641 -2.09947,2.46809c-0.56672,1.47632 -2.3264,1.47632 -2.3264,1.47632l-0.74834,-0.02852l0.15966,0.39915c0.12865,0.30123 0.19986,0.63286 0.19986,0.98112c0,1.38071 -1.11929,2.5 -2.5,2.5c-0.41989,0 -0.81561,-0.10352 -1.16302,-0.28642l-2.84383,-1.42191l0.0385,-0.077l-0.26785,-0.05323c-1.49421,-1.1963 -5.38486,-3.86727 -5.45883,-6.07259c-0.19215,-5.72907 2.35855,-5.37582 5.41605,-4.67473c-0.06723,-0.07061 -0.13433,-0.14136 -0.20131,-0.21228l-0.00803,0.01606l-2.84037,-1.42018c-0.84561,-0.40086 -1.43041,-1.26228 -1.43041,-2.26029c0,-1.13848 0.761,-2.09921 1.80206,-2.40128l-0.11275,-0.0451c-1.01123,-0.25449 -2.00642,-0.54443 -2.991,-0.85742c0.10782,0.44276 0.13916,0.90404 0.07165,1.38759c0.28508,0.4061 0.45241,0.90087 0.45241,1.43473c0,1.38071 -1.11929,2.5 -2.5,2.5c-0.09542,0 -0.18959,-0.00535 -0.28222,-0.01575l-0.41246,-0.04125c-0.86815,0.25158 -1.9857,-0.08525 -3.03146,-0.30315l-1.3373,-0.13373l0.00431,-0.0431c-0.02547,-0.00215 -0.05096,-0.00435 -0.07646,-0.00659c-0.06728,0.00273 -0.1346,0.005 -0.20197,0.00681c-0.27455,0.00736 -0.54037,-0.03968 -0.80148,-0.11761c-3.62584,-0.47732 -7.56962,-1.78512 -10.95259,-2.82232c-0.14601,-0.03615 -0.29202,-0.07287 -0.43805,-0.11023c-0.76424,-0.15664 -1.61567,-0.19268 -2.20481,-0.61907c-0.26527,-0.08199 -0.53069,-0.16704 -0.79628,-0.25551l-2.83412,-0.94471c-1.02156,-0.31417 -1.76412,-1.26534 -1.76412,-2.38994c0,-1.38071 1.11929,-2.5 2.5,-2.5c0.25848,0 0.5078,0.03923 0.74232,0.11205l1.61877,0.4625c-0.03045,-0.15593 -0.0464,-0.31705 -0.0464,-0.4819c0,-1.38071 1.11929,-2.5 2.5,-2.5h0.87118c-0.02406,-0.23905 -0.01607,-0.50472 0.03311,-0.79981c0.07157,-0.42942 0.20545,-0.7716 0.37778,-1.0439c-0.54612,-0.4586 -0.89327,-1.14645 -0.89327,-1.91538c0,-1.38071 1.11929,-2.5 2.5,-2.5c0.41989,0 0.81561,0.10352 1.16302,0.28642l1.66772,0.83386c0.19841,-1.18233 1.22671,-2.08322 2.46542,-2.08322c0.22872,0 0.45026,0.03071 0.66073,0.08824l4.42788,1.10697c0.2191,0.03358 0.43843,0.0678 0.65795,0.10263c1.19449,0.07775 2.39723,0.30889 3.59886,0.61943c1.72125,0.31783 3.43561,0.6632 5.11709,1.02204c1.37388,0.2932 2.97115,0.29001 4.03923,1.20253c0.13163,0.11246 0.25848,0.22927 0.3811,0.34994l0.05048,-0.06057l0.52786,0.43988c2.78176,0.60235 5.58013,1.08503 8.30974,2.00389c1.06955,0.36004 3.1763,1.16358 4.70007,2.20306c0.83149,-0.00112 1.74052,0.02108 2.80074,0.07298c1.79297,0.08776 5.17879,0.04 7.75493,0.92615c-0.25246,-0.27982 -0.45946,-0.59637 -0.60565,-0.96206c-0.7193,-1.79928 0.53829,-4.26621 2.09244,-5.42354c1.21498,-0.90476 3.5495,-0.2878 5.70609,0.60721c0.63584,-1.97144 2.40773,-2.71738 4.32514,-2.97271l-0.63823,-2.55294l0.05543,-0.01386c-0.03842,-0.09506 -0.07556,-0.19072 -0.11134,-0.28702c-0.29094,-0.78304 -0.05947,-3.16667 0.17262,-5.01284l-1.18825,-0.4277l-0.31921,0.01129c0.01253,-0.03756 0.02528,-0.07504 0.03823,-0.11243l-0.16652,-0.05994c0,0 0,-1.57163 1.24611,-2.22267zM251.45067,284.30195l0.03666,-0.01222c-0.03322,-0.06769 -0.06592,-0.13568 -0.09807,-0.20397c-1.2047,-2.55898 -1.16556,-5.53551 -1.71351,-8.31029c-0.20831,-1.05486 -0.41197,-2.11627 -0.60934,-3.18259c-0.43376,-0.28939 -0.77193,-0.71077 -0.95713,-1.20674l-0.94131,-2.35327l0.0913,-0.03652l-0.17764,-0.21832c-0.36088,-2.10641 -0.82375,-4.40459 -1.11373,-6.71876c-0.37736,0.22858 -0.82002,0.36016 -1.29342,0.36016c-1.1246,0 -2.07576,-0.74256 -2.38994,-1.76412l-0.0299,-0.0897c-0.4586,0.54474 -1.14556,0.89088 -1.91338,0.89088c-1.21151,0 -2.22174,-0.86176 -2.45115,-2.00574l-0.62207,-2.7993c-0.13133,1.63681 -0.21068,3.27788 -0.21292,4.91859l-0.10476,0.19159l0.07926,0.01321l-0.47471,2.84827c-0.179,1.20503 -1.21791,2.12954 -2.47274,2.12954c-1.07493,0 -1.99141,-0.67842 -2.34463,-1.63045c-0.12398,0.79548 -0.62302,1.46677 -1.3106,1.82736c6.05218,1.21776 12.57664,2.47516 16.50002,7.804c1.57934,2.1451 3.41817,4.55751 3.13921,6.85842c0.1294,0.32268 0.23464,0.65723 0.31329,1.00402c0.00186,0.00535 0.00371,0.01071 0.00555,0.01607c0.1642,0.47705 0.29335,0.9196 0.38974,1.32997c0.28607,0.25783 0.56366,0.52514 0.82946,0.80054zM226.78268,265.01129l-0.0266,-0.21282c-0.12308,0.01864 -0.24911,0.0283 -0.3774,0.0283c-1.31307,0 -2.3897,-1.0123 -2.49204,-2.29905l-0.34981,-3.84791c-0.08935,-0.10172 -0.17058,-0.21075 -0.24266,-0.32608c-0.44913,0.43073 -1.05874,0.69542 -1.73018,0.69542c-0.50502,0 -0.97507,-0.14975 -1.36816,-0.40726l-0.56124,1.96434l-0.04857,-0.01388l0.01035,0.13577c-0.03252,0.03284 -0.06503,0.06568 -0.09755,0.09852l0.05315,0.02126l-0.94131,2.35327c-0.16355,0.43801 -0.44641,0.81784 -0.80904,1.09995l-0.292,1.31402c1.14012,0.18956 2.26873,0.47605 3.38266,0.77573c0.44454,0.11959 0.93724,0.25525 1.46469,0.40849c0.69837,-0.32441 1.44623,-0.55106 2.18484,-0.68251c0.92991,-0.1655 1.86891,0.01424 2.80865,0.22202c-0.30807,-0.36763 -0.51236,-0.82518 -0.56777,-1.32758zM253.78674,268.41349l-0.25577,0.76731c0.31182,1.79256 0.64563,3.5746 0.99315,5.3381c0.25183,-2.16627 0.48877,-4.33377 0.68799,-6.50609c0.03197,-0.39418 0.06732,-0.7896 0.1038,-1.17381c0.08293,-0.97514 0.15745,-1.95138 0.22149,-2.92905c0.00909,-0.13868 0.02405,-0.40722 0.04474,-0.77038c-0.12113,0.12005 -0.25448,0.22779 -0.39801,0.32119c-0.33596,1.79377 -0.76209,3.81645 -1.3974,4.95274zM237.59843,274.16912c-1.22506,-0.53637 -2.51837,-0.95962 -3.87307,-1.3254c0.23491,0.28579 0.44829,0.58224 0.63701,0.88969c0.40983,0.01767 0.74994,0.0454 0.9882,0.07467c0.67963,0.08348 1.43974,0.20225 2.24786,0.36104zM199.35032,283.43475c-0.04931,0.02149 -0.09852,0.04277 -0.1476,0.06383c0.45123,0.21955 1.06942,1.05756 0.93728,0.68901c-0.08356,-0.23305 -0.39723,-0.49755 -0.78968,-0.75285z" fill="#a1adff"></path><path d="M203.95096,296.64343c1.19411,-2.93215 1.43682,-6.35626 3.0835,-9.14532c3.93796,-6.66993 8.36537,-12.99192 13.82788,-18.53022c-5.26601,-3.22219 -11.68279,-4.60632 -17.89867,-5.09365c-0.12221,0.54657 -0.50158,0.92594 -0.50158,0.92594c-4.19745,4.12052 -6.03916,10.98947 -7.49652,16.45278c-0.54925,2.05901 -1.26612,3.59082 -1.25019,5.78742v1.3213c0,0 0,0.60602 -0.36023,1.09761c2.71771,1.73508 5.17561,3.99156 7.29805,6.1389c1.05738,0.62371 2.11711,1.27456 3.18667,1.92133zM223.60284,271.07633c-5.43576,5.42972 -9.62316,11.64083 -13.60451,18.14891c-1.5693,2.56524 -1.77871,5.94286 -2.86234,8.6922l0.12268,-0.30668c0,0 0,1.00118 -0.76492,1.47372c2.57217,1.46004 5.23314,2.7551 8.08109,3.47576c0.26253,0.06643 3.25099,0.49173 3.68457,0.34574c1.43305,-0.48251 2.59605,-1.65869 4.06686,-2.00966c1.58646,-0.37857 3.27784,-0.20572 4.8519,-0.63294c1.38136,-0.37492 2.01885,-1.28647 3.15143,-2.0789c2.78042,-1.94538 4.10996,-3.96419 4.56934,-7.44249c0.94577,-5.57032 -2.23928,-9.01394 -5.58874,-13.19874c-1.68943,-2.11076 -3.31019,-4.6154 -5.38625,-6.371c-0.07756,-0.06559 -0.15549,-0.13063 -0.23381,-0.19513c-0.05224,0.06417 -0.08731,0.09923 -0.08731,0.09923zM190.28498,287.04038c0.01472,-2.51025 0.76284,-4.40327 1.3924,-6.7649c1.4863,-5.57547 3.39449,-11.98688 7.19224,-16.60349c-0.6444,-0.01442 -1.28313,-0.02107 -1.91458,-0.02107c-5.06978,0 -10.3284,-0.41225 -15.38378,-0.00584c-0.35212,0.02831 -0.69837,0.07448 -1.03983,0.13537c-0.08982,0.81449 -0.86178,1.27767 -0.86178,1.27767c-6.81777,3.9673 -6.10298,13.06627 -3.58416,19.36331l0.36498,1.08559c0,0 0.23128,0.69384 -0.06129,1.32639c3.42064,-0.46542 6.90604,-0.7911 10.31982,-0.15597c1.2258,0.22806 2.41939,0.61596 3.57597,1.12358zM173.19613,286.59179l-0.29567,-0.89636c-2.49714,-6.24285 -3.06371,-14.00722 0.70592,-19.52191c-0.44166,0.14987 -0.8883,0.28571 -1.34254,0.39973c-3.86022,0.96896 -9.47059,1.10963 -11.04294,5.57888c0,0 -0.63701,1.59252 -2.22952,0.95551c-0.08982,-0.03593 -0.17254,-0.07489 -0.24869,-0.11644c-0.04312,0.11879 -0.08311,0.23767 -0.11972,0.35664c-1.13698,3.69487 -0.0449,6.98988 2.23031,9.8493c1.90156,1.57568 3.76404,4.01829 6.3666,4.47126c2.02732,0.35285 4.27561,-0.04635 6.37798,-0.40803c-0.28571,-0.32051 -0.40173,-0.66858 -0.40173,-0.66858zM163.47477,264.47191c0.17512,0.35023 0.2303,0.66049 0.21118,0.93077c2.36706,-1.01805 5.09002,-1.49655 7.75099,-2.15865c3.3823,-0.84158 6.28828,-2.71206 9.85139,-3.01765c5.14186,-0.44099 10.50921,-0.00584 15.66672,-0.00584c9.91194,0 21.29939,1.65748 29.18623,8.33425c2.2593,1.91266 4.0062,4.54266 5.84478,6.84197c3.98666,4.98569 7.39501,9.20693 6.30294,15.8698c-0.66486,4.38721 -2.42073,7.22707 -6.00104,9.73437c-1.76548,1.23638 -1.84467,1.8728 -4.11571,2.54564c-0.34633,0.10261 -4.36228,0.53484 -5.05783,0.68836c-1.40854,0.31089 -2.47501,1.55439 -3.86093,1.95423c-1.1789,0.34012 -4.35957,-0.0165 -5.56451,-0.31491c-5.47726,-1.35648 -10.39564,-4.68245 -15.14689,-7.57223c-3.34997,-3.3156 -7.63101,-7.40045 -12.48178,-8.25611c-6.52623,-1.15121 -13.05962,2.19374 -19.48914,0.99097c-3.41301,-0.63847 -5.66033,-3.338 -8.16767,-5.43847c-3.08553,-3.84111 -4.57655,-8.32769 -3.05488,-13.27341c0.82709,-2.68819 3.01605,-5.23056 4.46063,-7.63818l1.36436,-0.98198c0,0 1.53411,-0.76706 2.30117,0.76706z" fill="#000000"></path><path d="M223.6991,270.92791c0.07831,0.0645 0.15706,0.1297 0.23462,0.19528c2.07606,1.75561 3.72063,4.27223 5.41006,6.38299c3.34946,4.1848 6.54923,7.67842 5.60346,13.24874c-0.45938,3.4783 -1.80483,5.52226 -4.58525,7.46763c-1.13258,0.79243 -1.7808,1.71096 -3.16216,2.08588c-1.57406,0.42722 -3.28159,0.259 -4.86806,0.63757c-1.47081,0.35097 -2.64712,1.52684 -4.08017,2.00935c-0.43358,0.14599 -3.43271,-0.28224 -3.69524,-0.34867c-2.84795,-0.72065 -5.52856,-2.02982 -8.10073,-3.48986c0.76492,-0.47253 0.76376,-1.47513 0.76376,-1.47513l-0.12238,0.30705c1.08363,-2.74933 1.28309,-6.14798 2.85239,-8.71322c3.98136,-6.50808 8.22643,-12.77872 13.66219,-18.20843c0,0 0.03527,-0.03503 0.08751,-0.09919z" data-paper-data="{&quot;noHover&quot;:false,&quot;origItem&quot;:[&quot;Path&quot;,{&quot;applyMatrix&quot;:true,&quot;selected&quot;:true,&quot;segments&quot;:[[[223.60284,271.07633],[0,0],[-5.43576,5.42972],7],[[209.99833,289.22524],[3.98136,-6.50808],[-1.5693,2.56524],7],[[207.13599,297.91744],[1.08363,-2.74933],[0,0],7],[[207.25867,297.61076],[0,0],[0,0],7],[[206.49375,299.08447],[0.76492,-0.47253],[2.57217,1.46004],7],[[214.57484,302.56023],[-2.84795,-0.72065],[0.26253,0.06643],7],[[218.25941,302.90597],[-0.43358,0.14599],[1.43305,-0.48251],7],[[222.32627,300.89631],[-1.47081,0.35097],[1.58646,-0.37857],7],[[227.17817,300.26338],[-1.57406,0.42722],[1.38136,-0.37492],7],[[230.3296,298.18447],[-1.13258,0.79243],[2.78042,-1.94538],7],[[234.89895,290.74198],[-0.45938,3.4783],[0.94577,-5.57032],7],[[229.31021,277.54324],[3.34946,4.1848],[-1.68943,-2.11076],7],[[223.92396,271.17223],[2.07606,1.75561],[-0.07756,-0.06559],7],[[223.69015,270.9771],[0.07831,0.0645],[-0.05224,0.06417],7]],&quot;closed&quot;:true}]}" fill="#ffffff"></path><path d="M203.83032,297.5686c-1.06956,-0.64677 -2.13962,-1.30083 -3.19701,-1.92454c-2.12244,-2.14733 -4.60263,-4.42283 -7.32034,-6.15791c0.36023,-0.49159 0.359,-1.09964 0.359,-1.09964l-0.00179,-1.32473c-0.01593,-2.19661 0.69618,-3.74753 1.24543,-5.80654c1.45736,-5.46331 3.33499,-12.38254 7.53244,-16.50306c0,0 0.38144,-0.37993 0.50365,-0.92649c6.21588,0.48734 12.68267,1.88756 17.94868,5.10976c-5.46251,5.5383 -9.92851,11.94274 -13.86647,18.61266c-1.64668,2.78906 -1.89856,6.21222 -3.09267,9.14437z" data-paper-data="{&quot;noHover&quot;:false,&quot;origItem&quot;:[&quot;Path&quot;,{&quot;applyMatrix&quot;:true,&quot;selected&quot;:true,&quot;segments&quot;:[[[203.95096,296.64343],[0,0],[1.19411,-2.93215],7],[[207.03446,287.49811],[-1.64668,2.78906],[3.93796,-6.66993],7],[[220.86234,268.96788],[-5.46251,5.5383],[-5.26601,-3.22219],7],[[202.96367,263.87423],[6.21588,0.48734],[-0.12221,0.54657],7],[[202.46208,264.80017],[0,0],[-4.19745,4.12052],7],[[194.96556,281.25295],[1.45736,-5.46331],[-0.54925,2.05901],7],[[193.71537,287.04038],[-0.01593,-2.19661],[0,0],7],[[193.71537,288.36167],[0,0],[0,0],7],[[193.35514,289.45929],[0.36023,-0.49159],[2.71771,1.73508],7],[[200.65319,295.59818],[-2.12244,-2.14733],[1.05738,0.62371],7],[[203.83985,297.51952],[-1.06956,-0.64677],[0,0],7]],&quot;closed&quot;:true}]}" fill="#ffffff"></path><path d="M190.29955,287.84884c-1.15658,-0.50762 -2.36415,-0.89336 -3.58995,-1.12141c-3.41378,-0.63513 -6.93342,-0.32246 -10.35406,0.14296c0.29257,-0.63255 0.05913,-1.32847 0.05913,-1.32847l-0.36751,-1.08839c-2.51882,-6.29704 -3.22262,-15.46997 3.59514,-19.43727c0,0 0.77658,-0.46585 0.8664,-1.28035c0.34145,-0.06089 0.69116,-0.10866 1.04328,-0.13697c5.05538,-0.4064 10.366,0.01418 15.43578,0.01418c0.63145,0 1.27328,0.00957 1.91768,0.024c-3.79775,4.6166 -5.7048,11.09656 -7.1911,16.67203c-0.62956,2.36163 -1.39921,4.26854 -1.41393,6.77879z" data-paper-data="{&quot;noHover&quot;:false,&quot;origItem&quot;:[&quot;Path&quot;,{&quot;applyMatrix&quot;:true,&quot;selected&quot;:true,&quot;segments&quot;:[[[190.28498,287.04038],[0,0],[0.01472,-2.51025],7],[[191.67739,280.27547],[-0.62956,2.36163],[1.4863,-5.57547],7],[[198.86962,263.67199],[-3.79775,4.6166],[-0.6444,-0.01442],7],[[196.95504,263.65092],[0.63145,0],[-5.06978,0],7],[[181.57127,263.64507],[5.05538,-0.4064],[-0.35212,0.02831],7],[[180.53144,263.78044],[0.34145,-0.06089],[-0.08982,0.81449],7],[[179.66966,265.05811],[0,0],[-6.81777,3.9673],7],[[176.0855,284.42142],[-2.51882,-6.29704],[0,0],7],[[176.45048,285.50701],[0,0],[0,0],7],[[176.38919,286.8334],[0.29257,-0.63255],[3.42064,-0.46542],7],[[186.70902,286.67743],[-3.41378,-0.63513],[1.2258,0.22806],7],[[190.28498,287.80101],[-1.15658,-0.50762],[0,0],7]],&quot;closed&quot;:true}]}" fill="#ffffff"></path><path d="M173.62788,287.30036c-2.10238,0.36168 -4.37449,0.77051 -6.40181,0.41766c-2.60256,-0.45297 -4.50273,-2.90636 -6.40429,-4.48204c-2.27521,-2.85943 -3.38049,-6.21568 -2.24352,-9.91054c0.03661,-0.11897 0.07767,-0.23986 0.12079,-0.35865c0.07615,0.04155 0.15894,0.08041 0.24875,0.11633c1.59252,0.63701 2.23838,-0.96697 2.23838,-0.96697c1.57235,-4.46924 7.24354,-4.61658 11.10376,-5.58554c0.45424,-0.11402 0.90382,-0.24792 1.34548,-0.39779c-3.76963,5.5147 -3.20073,13.3587 -0.70359,19.60155l0.29458,0.89721c0,0 0.11576,0.34827 0.40146,0.66878z" data-paper-data="{&quot;noHover&quot;:false,&quot;origItem&quot;:[&quot;Path&quot;,{&quot;applyMatrix&quot;:true,&quot;selected&quot;:true,&quot;segments&quot;:[[[173.19613,286.59179],[0,0],[0,0],7],[[172.90047,285.69544],[0,0],[-2.49714,-6.24285],7],[[173.60638,266.17352],[-3.76963,5.5147],[-0.44166,0.14987],7],[[172.26384,266.57326],[0.45424,-0.11402],[-3.86022,0.96896],7],[[161.2209,272.15214],[1.57235,-4.46924],[0,0],7],[[158.99138,273.10765],[1.59252,0.63701],[-0.08982,-0.03593],7],[[158.74269,272.9912],[0.07615,0.04155],[-0.04312,0.11879],7],[[158.62297,273.34784],[0.03661,-0.11897],[-1.13698,3.69487],7],[[160.85328,283.19714],[-2.27521,-2.85943],[1.90156,1.57568],7],[[167.21988,287.6684],[-2.60256,-0.45297],[2.02732,0.35285],7],[[173.59786,287.26037],[-2.10238,0.36168],[-0.28571,-0.32051],7]],&quot;closed&quot;:true}]}" fill="#ffffff"></path></g></g></svg>