<svg version="1.1" xmlns="http://www.w3.org/2000/svg" xmlns:xlink="http://www.w3.org/1999/xlink" width="227.97301" height="264.03422" viewBox="0,0,227.97301,264.03422"><g transform="translate(-148.0018,-102)"><g data-paper-data="{&quot;isPaintingLayer&quot;:true}" fill-rule="nonzero" stroke="none" stroke-width="0.5" stroke-linecap="butt" stroke-linejoin="miter" stroke-miterlimit="10" stroke-dasharray="" stroke-dashoffset="0" style="mix-blend-mode: normal"><path d="M209,276.5c0,0.32161 -0.04137,0.60184 -0.11347,0.84603c0.12699,0.13018 0.25404,0.25901 0.38124,0.38621c0,0 1.67885,1.67885 0.12831,3.40046c0.0878,0.05141 0.17586,0.10237 0.2642,0.15285c0.9656,0.55177 2.2066,0.50547 3.15407,1.08783c1.60643,0.9874 2.37998,3.03508 4,4c1.6976,1.01112 3.82927,1.03153 5.64238,1.81692c1.24655,0.53998 2.31151,1.50321 3.61767,1.87658c0.90581,0.25893 1.89666,-0.18861 2.82608,-0.0346c1.96876,0.32623 3.9304,0.69766 5.90501,0.98645c2.12344,0.31056 4.09925,1.29962 6.1793,1.81977c-0.11505,-0.61336 0.00102,-1.35981 0.74747,-2.10626c1.76776,-1.76776 3.53553,0 3.53553,0l1,1c0.5161,0.5202 1.06869,1.08059 1.63149,1.66754c2.82821,-0.06878 5.73965,-0.42194 8.32221,-0.93874c0.86818,-2.06638 3.0691,-1.33274 3.0691,-1.33274c0.85865,0.28801 1.70687,0.6273 2.5489,0.99886c2.13265,0.09459 4.31676,0.17794 6.26007,-0.09487c3.39546,-0.47667 5.80009,-1.9981 9.40046,-2.03228l-0.07643,-0.02666c-0.10785,-0.0037 -0.21586,-0.00563 -0.32403,-0.00563l-3.39011,-1.09601c0,0 -0.02605,-0.00869 -0.07178,-0.02697c-0.32747,0.59188 -0.95087,1.15526 -2.13765,1.15526c-2.5,0 -2.5,-2.5 -2.5,-2.5l0.73224,-2.76776c4.2089,-3.96634 4.26776,-10.82686 4.26776,-16.23224c0,-1.58726 0.01403,-3.14573 0.01373,-4.68829c-0.00901,-0.09933 -0.01373,-0.20316 -0.01373,-0.31171c0,-0.10471 0.00439,-0.20502 0.01279,-0.30113c-0.01247,-4.16975 -0.15783,-8.23519 -1.00063,-12.45252c-0.02978,-7.93579 -1.65673,-15.09196 -2.97387,-22.81044c-0.45625,-2.67365 -0.27704,-5.47298 -1.07309,-8.06583c-0.51463,-1.6762 -1.50529,-3.19366 -1.9201,-4.89731c-0.23003,-0.94476 0.21356,-1.96467 0.01743,-2.91706c-0.50806,-2.46709 -2.26146,-4.53003 -2.97949,-6.94438c-1.36819,-4.60053 -2.23549,-10.14462 -4.74038,-14.34803c-0.53138,-0.89168 -1.59017,-1.39346 -2.10501,-2.29479c-2.40759,-4.21494 -3.41863,-9.20852 -6.86429,-12.65418c-0.39517,-1.13413 -0.8576,-2.23395 -1.37408,-3.3049l-0.41917,0.37732c-0.17701,0.2655 -4.03862,6.06477 -4.14677,6.19822c-3.25662,4.01837 -8.32331,6.09218 -12.67854,8.5773c-4.33541,2.47382 -8.86267,4.64863 -13.94935,5.319c-2.24131,0.29538 -4.47612,-0.64105 -6.70592,-1.01355c-5.52408,-0.92282 -11.03016,-1.36281 -15.36731,-5.69996c-1.73269,-1.73269 -3.43405,-5.58668 -4.47509,-7.6634c-2.02226,-4.17701 -4.43045,-9.06812 -5.22487,-13.70391c-0.17168,-1.00183 0.159,-2.04658 -0.00749,-3.04928c-1.3514,-8.13872 -3.58065,-15.95854 -0.8965,-24.14174c1.59257,-4.85527 3.33322,-9.62524 8.13997,-12.38493c1.51418,-0.86934 3.90936,-1.52443 6.28292,-2.0683c-1.0154,-0.47187 -2.0203,-0.95154 -3.00789,-1.44649c-2.38774,-0.7955 -4.55798,-2.16442 -6.94498,-2.96213c-5.24636,-1.75328 -11.02572,-2.09944 -16.40377,-2.8663c-1.3606,-0.19401 -2.64311,-0.7815 -4,-1c-2.81117,-0.45269 -5.28869,1.16354 -7.90397,1.89044c-0.66198,0.18399 -1.53698,-0.08977 -2.02281,0.39606c-0.48583,0.48583 -0.21041,1.36129 -0.39605,2.02281c-0.84302,3.00407 -0.87171,5.05518 -0.87171,8.20943c0,3.47029 -0.45755,6.07491 -1.03228,9.40045c-0.5661,3.27568 0.03228,7.27808 0.03228,10.59955c0,2.90847 -0.53281,6.70329 -0.03228,9.59955c0.17951,1.03869 0.83216,1.95935 1,3c0.37152,2.30356 -0.33853,4.69135 0,7c0.1013,0.69085 0.43353,1.32619 0.69509,1.97889c1.28573,-0.15947 2.61284,-0.10474 3.83719,-0.07844c1.32012,0.02836 2.72643,-0.28923 3.95671,0.1903c1.10046,0.42892 1.69998,1.64608 2.62826,2.37634c1.04833,0.8247 2.44312,1.24771 3.28922,2.27885c5.37097,6.54552 3.80344,15.77211 6.58393,23.19881c0.01175,3.73961 1.4865,6.28209 1.99814,9.96335c0.5342,-0.13603 1.1882,-0.08265 1.93049,0.41222c2.08013,1.38675 0.69338,3.46688 0.69338,3.46688c-0.67782,1.0098 -1.15631,1.79275 -1.6337,2.48867c0.7328,0.49908 1.69343,0.72378 2.32134,1.35682c0.73764,0.74366 0.7272,2.14825 1.62333,2.69054c1.16137,0.7028 5.14888,0.57561 6.61674,0.57723c1.00908,0.00111 2.10208,0.0699 3.21357,0.13118c0.49167,-0.17243 1.21505,-0.2926 1.91623,0.0838c1.204,0.03035 2.38572,0.00131 3.46191,-0.18271c4.14073,-0.70804 8.51453,-2.01792 12.66045,-2.93313c2.61398,-0.57703 5.52921,-1.78713 8.31438,-1.03227c6.06426,1.64357 8.57069,5.99678 12.55225,10.11879c2.18294,6.17676 5.98208,14.17992 2,20.62866c-3.19687,5.17713 -9.76284,4.60324 -14.82116,5.16694c-5.39429,0.60114 -11.16317,1.8804 -16.70592,0.98645c-1.04065,-0.16784 -1.95706,-0.84707 -3,-1c-2.60712,-0.38229 -5.29081,0.34403 -7.90501,0.01355c-2.43899,-0.30833 -4.66006,-1.6747 -7.09499,-2.01355c-1.28797,-0.17924 -2.59979,-0.26125 -3.89675,-0.40778c0.38363,0.4132 0.76008,0.82562 1.12792,1.23757c1.80918,2.02614 4.25304,3.44298 5.96517,5.55177c2.63307,3.24308 2.69989,5.38686 5.17462,8.61219c0.88017,1.14713 2.21872,1.8991 3.05759,3.07675c0.8183,1.14876 0.949,2.71892 1.84609,3.80727c0.68078,0.82593 1.87264,1.05545 2.71078,1.72115c0.93181,0.74009 1.81986,1.59475 2.68515,2.48565l0.72988,-0.0523c0,0 2.5,0 2.5,2.5zM197.29057,280.87171c0,0 -1.08462,0.36154 -2.0314,-0.13784c-1.84104,1.36818 -3.61181,2.84183 -5.59891,3.98058c-0.86432,0.49532 -1.98469,0.41154 -2.84593,0.91217c-4.89504,2.84544 -8.49867,9.48982 -11.15206,14.12819c-2.57462,4.50067 -5.84327,9.89105 -6.69455,15.14564c-0.43246,2.66938 -0.42701,5.40873 -1.0089,8.04956c-0.85727,3.89056 -1.97466,7.15255 -1.9911,11.14953c1.0776,3.1111 1.74324,6.47737 2.87699,9.53309c0.90589,2.44158 2.73828,4.43877 3.90107,6.76898c1.13333,2.27116 1.62745,4.5178 4.06854,5.97176c2.28013,1.35809 5.94998,1.91283 8.47624,2.75491c1.65462,0.55154 3.13388,1.93151 4.87759,1.89383c1.8331,-0.03961 1.77847,-3.4969 1.89274,-4.07059c0.51569,-2.58904 0.52752,-5.25762 0.97265,-7.85972c0.73436,-4.29291 2.99873,-7.5467 2.99873,-11.99227c1.53939,-4.76154 3.81599,-9.42105 5.05353,-14.24891c0.42721,-1.66661 0.48048,-3.427 1.02778,-5.05813c0.3815,-1.13696 3.51669,-6.94487 4.07671,-8.24921c0.51925,-1.20941 1.62085,-5.41014 2.18308,-6.35762c0.537,-0.90498 1.53811,-1.44716 2.19327,-2.27064c2.51071,-3.15578 4.97603,-5.96569 7.81699,-8.83261c-1.6585,-0.51953 -3.65073,-1.12584 -4.19796,-1.4558c-1.6148,-0.97364 -2.3698,-3.05237 -4,-4c-0.86124,-0.50063 -1.98101,-0.41793 -2.84593,-0.91217c-2.71665,-1.55237 -5.15587,-3.58575 -7.95777,-4.97838c0,0 -0.22194,-0.11097 -0.49101,-0.3329c-0.52597,0.12863 -1.05812,0.28072 -1.60039,0.46854zM208.12829,244.70943l1,-3c0.79368,-2.37627 1.09859,-4.91805 2.08543,-7.22081c0.50905,-1.18786 1.48188,-2.12191 2.12401,-3.24343c1.2321,-2.15194 1.80799,-4.62542 2.91648,-6.84356c0.97285,-1.94671 2.20534,-3.75458 3.27694,-5.64845c-2.97172,-0.00169 -7.45883,1.78283 -9.63796,2.21769c-2.69304,0.53742 -5.28245,1.5546 -7.99274,1.99685c-1.50779,0.24603 -3.17923,0.25034 -4.85149,0.19501c-3.94813,2.92911 -6.19447,7.27997 -8.77161,11.47815l-0.30783,2.24833c0,0 -0.38922,2.46952 -2.85873,2.0803c-2.46952,-0.38922 -2.0803,-2.85873 -2.0803,-2.85873l0.54721,-3.17674c2.08103,-3.53353 3.99954,-6.96623 6.51641,-9.94224c-2.40435,-0.03492 -4.88095,-0.23955 -6.98521,-1.41458c-1.1858,-0.66216 -1.41323,-2.3522 -2.37667,-3.30946c-0.62288,-0.61888 -1.5085,-0.94603 -2.2588,-1.41217c-0.75145,0.45398 -1.5883,0.7948 -2.20567,1.41217c-0.79238,0.79238 -1.13437,1.94216 -1.83441,2.81721c-1.97802,2.47252 -4.07331,4.11083 -5.85323,6.80178l-1.31236,1.38101c0,0 -0.05746,0.05746 -0.16201,0.1413c2.19033,3.44846 4.99989,6.65793 7.92676,9.73182l2.23525,0.59135c1.07041,1.13587 2.52987,1.94091 4.02281,2.39605c2.10133,0.72784 4.40949,0.58218 6.60988,0.90399c2.36981,0.34659 4.52799,1.69334 6.90501,1.98645c2.67805,0.33023 5.42253,-0.35923 8.09499,0.01355c1.04398,0.14562 1.96131,0.82049 3,1c0.72314,0.12498 1.45281,0.20439 2.18672,0.24713c-0.21369,-0.80555 0.04111,-1.56998 0.04111,-1.56998zM220.74579,226.59838c-1.16216,2.323 -1.79668,4.90011 -3.08352,7.15644c-0.55063,0.96547 -1.43814,1.73499 -1.87599,2.75657c-0.92503,2.15824 -1.17329,4.55115 -1.91457,6.77919l-0.94589,2.83766c2.80878,-0.28352 5.60657,-0.8146 8.26872,-1.1095c2.77138,-0.307 9.30633,0.48668 11.17884,-2.83306c2.69825,-4.78369 -0.62404,-10.87603 -2,-15.37134c-2.29822,-2.1998 -3.77364,-4.56145 -6.13575,-6.24967c-1.119,2.03534 -2.45231,3.95585 -3.49184,6.03372zM170.56665,217.91503c0.80163,-1.00203 1.25822,-2.27542 2.16559,-3.18279c1.28457,-1.28457 2.32829,-2.06996 3.29986,-2.87512c-0.00251,-1.16076 0.18976,-2.37415 -0.01336,-4.05165c-0.4312,-3.5609 -1.98873,-6.2068 -1.97685,-9.84977c-1.36567,-3.45848 -1.46316,-7.82423 -2.07069,-11.95003c-1.41204,0.57419 -2.81186,1.1806 -4.2462,1.696c-0.88199,0.31692 -1.96518,0.20003 -2.70118,0.78026c-0.79853,0.62952 -0.94476,1.81754 -1.59045,2.60305c-0.06421,0.07812 -2.03205,2.04896 -3.54228,3.55965c0.95171,6.18113 2.09239,12.35228 3.07664,18.45492c0.56072,3.47664 0.03554,6.18129 0.93258,9.70148c0.22088,0.6694 0.47081,1.32931 0.747,1.98031c1.82853,-2.61506 3.94751,-4.40152 5.91934,-6.86631zM153.73224,197.26777c-1.76776,-1.76776 0,-3.53553 0,-3.53553l0.82452,-0.82452c-0.19221,-1.37011 -0.37282,-2.74008 -0.53886,-4.10908c-0.0288,-0.23741 -0.05356,-0.47561 -0.07466,-0.71452c-0.31307,2.41017 -0.32445,4.89565 -1.07153,7.20646c0,0 -0.79057,2.37171 -3.16228,1.58114c-2.37171,-0.79057 -1.58114,-3.16228 -1.58114,-3.16228c0.72784,-2.10133 0.57775,-4.41014 0.90399,-6.60988c0.30928,-2.08537 1.65683,-3.91994 2,-6c0.18041,-1.0935 -0.27396,-2.27209 0.07499,-3.324c0.41972,-1.26522 1.53692,-2.18866 2.14694,-3.37392c0.43872,-0.85242 0.50745,-1.93342 0.88548,-2.80286c-0.03164,-0.23358 -0.06734,-0.46637 -0.10742,-0.6983c-0.17951,-1.03869 -0.85438,-1.95602 -1,-3c-0.32235,-2.31096 0.39736,-4.70075 0,-7c-0.17951,-1.03869 -0.83216,-1.95935 -1,-3c-0.51626,-3.20094 -0.03228,-7.17435 -0.03228,-10.40045c0,-7.86385 0.96059,-15.18633 1,-23c0.01488,-2.95163 0.47324,-8.50877 2.73224,-10.76776c0.50822,-0.50822 5.89995,-2.2506 6.97719,-2.60394c4.52802,-1.48523 6.52182,-0.76426 11.09603,-0.10956c5.70806,0.81699 11.8314,1.24235 17.40203,3.09486c2.49091,0.82836 4.75902,2.2462 7.24921,3.0767c4.51553,2.25264 9.38793,4.21772 13.99934,6.54091c-0.81442,-4.96438 -1.45605,-9.92236 -1.45605,-15.23121c0,0 0,-2.5 2.5,-2.5c2.5,0 2.5,2.5 2.5,2.5c0,6.43447 0.99507,12.33191 2.06147,18.38232c0.30277,0.19331 0.60294,0.38976 0.9003,0.58957c2.01815,1.3561 3.32886,3.5586 5.17623,5.13947c0.51896,0.4441 1.02864,0.8837 1.52993,1.32094c1.49689,-0.49631 3.02069,-0.93369 4.45783,-1.57322c5.95607,-2.6505 11.47871,-4.34035 18.06878,-4.34035c2.19118,-0.55837 4.37015,-1.17409 6.51489,-1.89044l3,-1c0,0 2.37171,-0.79057 3.16228,1.58114c0.79057,2.37171 -1.58114,3.16228 -1.58114,3.16228l-3,1c-2.45968,0.81834 -4.96794,1.49024 -7.48511,2.10956c-6.649,0 -13.08142,1.91781 -19.21858,4.506c2.39823,2.28295 4.63796,4.65926 6.84647,7.42776c2.98745,3.74494 5.00394,8.26639 8,12c3.93732,4.90658 8.26736,10.17162 10.19327,16.27064c3.46702,3.46702 4.44084,8.41693 6.84962,12.63059c0.539,0.94287 1.63699,1.4805 2.18108,2.42044c2.67084,4.61394 3.74908,10.44319 5.22078,15.45779c0.73864,2.51681 2.48465,4.69058 3.05935,7.24981c0.22517,1.00269 -0.22472,2.08422 0.01743,3.08294c0.3723,1.53551 1.3376,2.87475 1.79381,4.38746c0.84062,2.78735 0.72681,5.77894 1.21301,8.64941c1.32762,7.83823 3.06168,15.12307 3.02613,23.18956c0.76086,3.80128 0.95282,6.96575 0.99861,10.56659c1.72303,-0.22922 3.43643,-0.61628 5.16616,-0.78827c5.31545,-0.52853 10.99346,-0.03198 16.3474,-0.03198c4.62554,0 9.82286,-0.61692 14.40046,0.03228c1.12458,0.15949 2.13925,0.77616 3.24121,1.05147c5.46443,1.36519 11.07959,1.86674 16.31504,4.10655c4.20016,1.7969 8.27589,4.13123 12.35762,6.18308c3.64893,2.72661 7.65211,5.02001 10.61903,8.54165c4.76369,5.65436 8.04883,12.06042 12.14677,18.19822c1.57562,2.35992 7.5669,9.60347 6.19115,12.43139c-2.2674,4.66075 -7.10122,2.14729 -9.97025,1.35566c-3.54861,-0.97915 -7.9393,-1.67001 -11.31242,-3.11401c-1.01385,-0.43402 -1.66746,-1.54293 -2.71308,-1.89356c-0.86879,-0.29134 -1.86111,0.29143 -2.74831,0.06216c-2.84046,-0.73402 -5.55938,-2.25178 -7.70681,-4.25067c-6.03141,-1.37773 -11.48636,-4.29649 -17.46209,-5.78797c-9.82933,-2.45331 -19.69087,-3.68837 -29.66379,-4.93498c-1.36376,-0.17047 -2.63668,-0.82614 -4,-1c-1.16436,-0.14849 -5.83525,0.18962 -7.095,-0.01355c-0.75797,-0.12225 -1.51149,-0.2953 -2.26534,-0.46315c0.72075,1.476 -0.56644,2.76319 -0.56644,2.76319l-2.76776,1.73224c-2.60567,-0.03235 -4.38979,0.88822 -6.57948,1.52173c1.61747,0.67734 3.2678,1.22406 4.97993,1.51056c2.87313,0.48077 6.00743,-0.41761 8.905,-0.01355c1.3612,0.18982 2.63628,0.82925 4,1c1.35443,0.16958 2.74435,-0.18392 4.095,0.01355c2.47031,0.36117 4.78371,1.4374 7.20588,2.04236c5.01148,1.25167 10.4208,2.2691 15.26103,4.08064c2.7074,1.01329 5.22062,2.49273 7.9004,3.57695c0.57741,1.58925 1.6412,3.07932 1.73224,4.76776c0.19263,3.57281 -3.33369,7.85262 -5.91503,9.93336c-3.05784,2.46483 -7.27196,4.84329 -11.18451,5.53436c-5.12583,0.90537 -10.47769,0.71352 -15.44375,2.84198c-4.61711,1.9789 -9.43812,7.91832 -14.91342,6c-1.05061,-0.36809 -3.55635,-3.51882 -4.62826,-4.37635c-1.00203,-0.80163 -2.27965,-1.254 -3.18279,-2.16559c-0.23073,-0.23289 -3.98453,-5.88926 -4.31236,-6.38101c-3.12952,-4.73131 -7.66922,-8.3408 -10.94798,-12.92498c-0.86722,-1.2125 -1.13431,-2.78641 -2,-4c-0.85496,-1.19855 -2.28184,-1.9225 -3.09852,-3.14745c-0.58472,-0.87705 -0.46203,-2.09352 -1,-3c-0.66261,-1.11651 -1.61288,-2.29757 -2.63185,-3.4316c-1.6195,-0.04284 -3.18895,-0.17648 -4.64198,-0.41501c-2.36338,-0.38797 -4.53285,-1.65634 -6.90501,-1.98645c-2.03991,-0.28388 -4.06375,-0.67316 -6.09499,-1.01355c-1.04349,-0.17487 -2.15657,0.25595 -3.17392,-0.0346c-0.57219,-0.16341 -1.113,-0.40719 -1.64214,-0.68168c-0.01016,0.01078 -0.01571,0.01633 -0.01571,0.01633l-1,1c-2.88247,2.88247 -5.30145,5.67034 -7.83441,8.81721c-0.52273,0.64942 -1.37306,1.01737 -1.80673,1.72936c-1.02786,1.6875 -1.03966,3.82578 -1.81692,5.64238c-1.16414,2.72079 -3.03247,5.13541 -3.96213,7.94498c-0.50666,1.53121 -0.53072,3.1859 -0.93338,4.74768c-1.20382,4.66925 -3.36464,9.18423 -4.94647,13.75109c0,4.46416 -2.30931,7.75177 -3.00127,12.00773c-0.61382,3.77538 0.08304,9.77831 -2.42291,13.03193c-1.14027,1.48048 -2.88614,2.6386 -4.7117,3.03776c-1.38991,0.3039 -2.75807,-0.70272 -4.12241,-1.10617c-3.80664,-1.12567 -9.13689,-2.20298 -12.52376,-4.24509c-3.26735,-1.97004 -4.37566,-4.92268 -5.93146,-8.02824c-1.241,-2.47719 -3.11823,-4.63973 -4.09893,-7.23102c-1.24794,-3.29744 -2.02882,-7.08243 -3.12301,-10.46691c-0.01376,-4.77821 1.0122,-8.42697 2.04774,-13.04466c0.56999,-2.5417 0.51432,-5.1885 0.95226,-7.75625c0.63814,-3.7416 2.69451,-7.14495 4.15802,-10.55625c2.22164,-5.17841 4.76281,-10.27583 8.42106,-14.6813c4.95462,-5.96663 11.17913,-9.22456 17.50188,-13.44212c0,0 1.7788,-1.18587 3.14317,0.28055c0.81634,-0.19137 1.61287,-0.33013 2.40356,-0.46002c-1.00252,-0.71486 -2.24414,-1.1466 -3.03417,-2.08591c-1.01136,-1.20244 -1.23906,-2.91533 -2.15391,-4.19273c-0.805,-1.12403 -2.10433,-1.82366 -2.94241,-2.92325c-2.01105,-2.63858 -3.02416,-5.96209 -5.11529,-8.53767c-0.83967,-1.0342 -4.58538,-4.00682 -5.74492,-5.29837c-7.65245,-8.5237 -17.8393,-16.90393 -21.56958,-28.00351c-0.90683,-3.68573 -0.45197,-6.73731 -1.06742,-10.29852c-0.90495,-5.23633 -1.86449,-10.53609 -2.70517,-15.84978c-0.49626,-0.02567 -1.04557,-0.2336 -1.59488,-0.7829zM159.56665,187.91503c0.89532,-1.06097 1.306,-2.55468 2.40955,-3.39695c2.44337,-1.86489 5.74165,-2.19722 8.59534,-3.33927c0,0 0.09761,-0.03905 0.26081,-0.08111c-0.51513,-1.44325 -1.21635,-2.77976 -2.20653,-3.9432c-0.69371,-0.8151 -1.88283,-1.04281 -2.71078,-1.72115c-0.54806,-0.44903 -0.71844,-1.34945 -1.37174,-1.62366c-0.49652,-0.2084 -3.61716,-0.18314 -5.27743,0.11056c0.04522,4.74195 -0.86997,9.62807 -0.28376,14.2811c0.01391,0.11046 0.02794,0.22092 0.04205,0.33139c0.18455,-0.20248 0.36565,-0.40815 0.5425,-0.61773zM224.59838,139.74579c-3.60007,1.72635 -4.48222,4.44031 -8.86614,0.52197c-2.78167,-2.48625 -1.23971,-4.60582 -1.69996,-7.36731c-0.16318,-0.97912 -0.33053,-1.94998 -0.49872,-2.91512c-2.14258,-1.236 -4.38774,-2.34161 -6.66116,-3.39818c-0.40716,0.24848 -0.76606,0.33821 -0.76606,0.33821c-2.32349,0.57974 -4.59807,1.34106 -6.90737,1.97494c-1.14203,0.31348 -2.43736,0.19049 -3.46723,0.7752c-4.65769,2.64443 -6.75263,9.90802 -6.73174,14.8245c0.04748,11.17765 1.82902,21.77614 6.74285,31.89564c0.4688,0.94021 2.44308,5.25476 3.52491,6.3366c3.56786,3.56786 8.16176,3.55656 12.63269,4.30004c1.03982,0.17291 1.96374,0.80692 3,1c2.93099,0.54613 6.10612,-1.01335 8.80898,-1.90399c1.96264,-0.64672 3.74224,-1.76416 5.53575,-2.79056c3.72219,-2.13017 8.56665,-3.92234 11.32146,-7.4227c1.43579,-1.82437 2.56544,-3.8701 3.85323,-5.80178l1.31236,-1.38101c0,0 0.32054,-0.32054 0.82512,-0.55214c-1.81175,-2.82657 -3.90767,-5.48391 -5.99071,-8.09512c-4.3223,-5.41826 -7.69055,-11.586 -12,-17c-1.06716,-1.34068 -2.32841,-2.44856 -3.64363,-3.49437c-0.10832,0.05162 -0.21653,0.10335 -0.32463,0.15519zM219.26777,136.73224c0.3413,0.5466 0.95891,0.19013 1.6159,-0.32501c-0.00723,-0.00619 -0.01445,-0.01239 -0.02167,-0.01859c-0.69952,-0.60054 -1.31011,-1.30373 -1.91502,-2.01154c0.01091,0.97223 0.07962,1.96891 0.32079,2.35514zM252.62663,299.18567c0.5462,0.90154 0.41532,2.12293 1,3c0.75231,1.12852 2.11243,1.74941 2.90148,2.85255c0.86726,1.21247 1.13433,2.7864 2,4c3.30803,4.63762 7.84721,8.30055 11.05202,13.07502c1.24271,1.86406 2.09441,4.04396 3.68764,5.61899c0.79692,0.78782 1.94216,1.13437 2.81721,1.83441c1.28836,1.03069 1.92504,2.83041 3.37174,3.62365c1.18532,0.64992 3.34557,-1.55611 3.65654,-1.77042c2.89136,-1.99266 4.02171,-2.76895 7.43004,-4.22958c7.49854,-3.21346 15.54217,-1.78078 22.70189,-5.85258c2.98074,-1.69517 7.32645,-5.20715 6.48705,-9.06996c-2.14137,-0.44811 -4.05167,-1.65348 -6.0996,-2.42305c-4.66357,-1.75248 -9.90732,-2.71031 -14.73897,-3.91936c-2.28634,-0.57213 -4.45975,-1.6329 -6.79412,-1.95764c-2.63011,-0.36588 -5.27764,-0.60134 -7.905,-0.98645c-2.9617,-0.43412 -6.1315,0.47885 -9.095,-0.01355c-5.16296,-0.85785 -9.67553,-3.83658 -14.43119,-5.93997c-0.63412,-0.02394 -1.25748,-0.04227 -1.8629,-0.04648c-2.07034,0.51758 -4.43052,0.92012 -6.86387,1.1617c0.24705,0.35078 0.47688,0.69912 0.68503,1.0427zM277.90046,285.03228c2.02759,0 4.00203,0.65471 6,1c2.26805,0.39197 4.62045,-0.29377 6.905,-0.01355c1.36415,0.16733 2.63624,0.82953 4,1c10.19399,1.27425 20.29203,2.53793 30.33621,5.06502c6.32096,1.59033 12.22008,4.52551 18.53791,6.21203c2.46857,2.1963 2.74935,2.9523 6.29319,3.74933c1.05768,0.23788 2.22271,-0.27911 3.25169,0.06216c1.23516,0.40965 2.09103,1.59334 3.28692,2.10644c1.16176,0.49845 2.47087,0.54286 3.68758,0.88599c2.3356,0.65867 4.67395,1.30835 7,2c0.81829,0.24332 1.58783,0.62994 2.39697,0.90214c0.53538,0.18011 1.74732,1.00665 1.63278,0.45352c-0.17189,-0.83011 -1.34816,-1.04942 -1.891,-1.70054c-1.50605,-1.80647 -2.61453,-3.9103 -3.91785,-5.86807c-4.00734,-6.01956 -7.25398,-12.2138 -11.85323,-17.80178c-2.51952,-3.06116 -6.25339,-5.10343 -9.38097,-7.45835c-9.72778,-4.83501 -19.21628,-9.09253 -30.08613,-10.65891c-4.30242,-0.61999 -9.24946,0.03228 -13.59954,0.03228c-5.17998,0 -10.70594,-0.51691 -15.84679,0.00685c-1.88771,0.19232 -3.76002,0.59017 -5.64297,0.8197c0.04064,6.37149 0.0636,13.05895 -2.92318,18.57762z" fill="#000000"></path><path d="M198.89918,280.35385c0.26907,0.22193 0.49166,0.33301 0.49166,0.33301c2.8019,1.39263 5.25213,3.42933 7.96878,4.9817c0.86493,0.49424 1.98817,0.41321 2.84942,0.91385c1.6302,0.94763 2.39136,3.03021 4.00616,4.00385c0.54723,0.32995 2.5437,0.93974 4.2022,1.45927c-2.84096,2.86692 -5.30601,5.67708 -7.81672,8.83285c-0.65516,0.82349 -1.65636,1.36557 -2.19336,2.27056c-0.56223,0.94748 -1.65866,5.15376 -2.17791,6.36318c-0.56001,1.30435 -3.68634,7.12932 -4.06784,8.26628c-0.5473,1.63112 -0.59992,3.41728 -1.02713,5.08389c-1.23754,4.82786 -3.55131,9.52438 -5.0907,14.28592c0,4.44557 -2.27431,7.70066 -3.00868,11.99357c-0.44512,2.6021 -0.45862,5.27071 -0.97431,7.85974c-0.11427,0.57369 -0.06196,4.03092 -1.89506,4.07053c-1.74371,0.03768 -3.22932,-1.34302 -4.88393,-1.89456c-2.52626,-0.84208 -6.20707,-1.40012 -8.4872,-2.75821c-2.44109,-1.45396 -2.94281,-3.70468 -4.07614,-5.97584c-1.16279,-2.33021 -3.00348,-4.3342 -3.90937,-6.77578c-1.13376,-3.05572 -1.80826,-6.43428 -2.88585,-9.54538c0.01644,-3.99698 1.12857,-7.27712 1.98584,-11.16768c0.5819,-2.64083 0.57773,-5.39693 1.01019,-8.06631c0.85128,-5.25459 4.13749,-10.6721 6.71211,-15.17277c2.65339,-4.63837 6.28041,-11.2929 11.17544,-14.13834c0.86124,-0.50063 1.98569,-0.41731 2.85001,-0.91263c1.9871,-1.13875 3.7652,-2.61237 5.60623,-3.98055c0.94678,0.49938 2.03392,0.1381 2.03392,0.1381c0.54227,-0.18782 1.07628,-0.33963 1.60224,-0.46826z" data-paper-data="{&quot;noHover&quot;:false,&quot;origItem&quot;:[&quot;Path&quot;,{&quot;applyMatrix&quot;:true,&quot;segments&quot;:[[[394.58114,561.74342],[1.08454,-0.37565],[0,0]],[[390.51834,561.46774],[1.89356,0.99876],[-3.68208,2.73637]],[[379.32053,569.4289],[3.9742,-2.2775],[-1.72863,0.99063]],[[373.62866,571.25325],[1.72249,-1.00127],[-9.79008,5.69088]],[[351.32455,599.50963],[5.30678,-9.27673],[-5.14924,9.00133]],[[337.93544,629.80091],[1.70256,-10.50918],[-0.86492,5.33875]],[[335.91764,645.90003],[1.16379,-5.28166],[-1.71454,7.78111]],[[331.93544,668.19909],[0.03288,-7.99395],[2.15519,6.2222]],[[337.68943,687.26527],[-2.26751,-6.11145],[1.81178,4.88316]],[[345.49158,700.80324],[-2.32558,-4.66042],[2.26665,4.54231]],[[353.62866,712.74675],[-4.88218,-2.90792],[4.56026,2.71618]],[[370.58114,718.25658],[-5.05252,-1.68417],[3.30923,1.10308]],[[380.33633,722.04424],[-3.48742,0.07536],[3.6662,-0.07922]],[[384.12181,713.90306],[-0.22854,1.14738],[1.03138,-5.17807]],[[386.0671,698.18362],[-0.89025,5.20419],[1.46873,-8.58582]],[[392.06456,674.19909],[0,8.89114],[3.07877,-9.52308]],[[402.17162,645.70126],[-2.47508,9.65572],[0.85442,-3.33323]],[[404.22719,635.58501],[-1.0946,3.26225],[0.76299,-2.27393]],[[412.3806,619.08658],[-1.12002,2.60869],[1.0385,-2.41883]],[[416.74675,606.37134],[-1.12446,1.89497],[1.07401,-1.80996]],[[421.13329,601.83006],[-1.31032,1.64697],[5.02141,-6.31156]],[[436.76726,584.16484],[-5.68192,5.73383],[-3.317,-1.03906]],[[428.37134,581.25325],[1.09446,0.65991],[-3.2296,-1.94728]],[[420.37134,573.25325],[3.26041,1.89525],[-1.72249,-1.00127]],[[414.67947,571.4289],[1.72986,0.98849],[-5.4333,-3.10474]],[[398.76393,561.47214],[5.60379,2.78526],[0,0]],[[397.78192,560.80634],[0.53814,0.44387],[-1.05193,0.25726]]],&quot;closed&quot;:true}]}" fill="#a0d6ff"></path><path d="M158.99343,188.57221c-0.01411,-0.11047 -0.02914,-0.22174 -0.04305,-0.3322c-0.58621,-4.65303 0.33016,-9.61739 0.28494,-14.35934c1.66027,-0.2937 4.80963,-0.32934 5.30615,-0.12094c0.6533,0.2742 0.83508,1.17552 1.38314,1.62454c0.82794,0.67834 2.04223,0.91917 2.73595,1.73427c0.99017,1.16343 1.70665,2.53585 2.22178,3.97911c-0.1632,0.04206 -0.26082,0.08181 -0.26082,0.08181c-2.85369,1.14205 -6.23389,1.5122 -8.67725,3.37709c-1.10354,0.84228 -1.45181,2.25787 -2.34713,3.31884c-0.17685,0.20958 -0.41916,0.49432 -0.60371,0.69681z" data-paper-data="{&quot;noHover&quot;:false,&quot;origItem&quot;:[&quot;Path&quot;,{&quot;applyMatrix&quot;:true,&quot;segments&quot;:[[[319.13329,375.83006],[-0.35371,0.41915],[1.79064,-2.12193]],[[323.95238,369.03616],[-2.20709,1.68455],[4.88673,-3.72978]],[[341.14305,362.35762],[-5.70738,2.2841],[0,0]],[[341.66467,362.19541],[-0.3264,0.08412],[-1.03026,-2.8865]],[[337.25161,354.30901],[1.98035,2.32687],[-1.38743,-1.6302]],[[331.83006,350.86671],[1.65589,1.35667],[-1.09612,-0.89805]],[[329.08658,347.6194],[1.3066,0.54841],[-0.99305,-0.4168]],[[318.53172,347.84052],[3.32054,-0.58741],[0.09045,9.4839]],[[317.9642,376.40273],[-1.17242,-9.30607],[0.02783,0.22092]],[[318.04829,377.06552],[-0.02822,-0.22094],[0.36911,-0.40497]]],&quot;closed&quot;:true}]}" fill="#ffffff"></path><path d="M164.63878,224.83061c-0.27619,-0.651 -0.52906,-1.31151 -0.74994,-1.98091c-0.89704,-3.52019 -0.38774,-6.23166 -0.94846,-9.7083c-0.98425,-6.10264 -2.1277,-12.35556 -3.07941,-18.53669c1.51023,-1.51069 3.49297,-3.48925 3.55719,-3.56737c0.64569,-0.78551 0.79846,-1.97514 1.59699,-2.60466c0.736,-0.58023 1.82708,-0.46409 2.70907,-0.78101c1.43435,-0.5154 2.84497,-1.1208 4.25701,-1.69499c0.60753,4.12581 0.72651,8.50171 2.09218,11.9602c-0.01188,3.64297 1.56202,6.34208 1.99321,9.90299c0.20313,1.6775 0.00192,2.90784 0.00444,4.0686c-0.97157,0.80516 -2.03164,1.6038 -3.31621,2.88837c-0.90738,0.90738 -1.37652,2.18515 -2.17815,3.18717c-1.97183,2.46479 -4.10937,4.25154 -5.93791,6.8666z" data-paper-data="{&quot;noHover&quot;:false,&quot;origItem&quot;:[&quot;Path&quot;,{&quot;applyMatrix&quot;:true,&quot;segments&quot;:[[[341.13329,435.83006],[-3.94366,4.92957],[1.60325,-2.00406]],[[345.46447,429.46447],[-1.81475,1.81475],[2.56915,-2.56915]],[[352.06419,423.71423],[-1.94314,1.61031],[-0.00503,-2.32152]],[[352.03746,415.61092],[0.40626,3.35501],[-0.86239,-7.12181]],[[348.08376,395.91139],[-0.02375,7.28593],[-2.73134,-6.91697]],[[343.94238,372.01133],[1.21505,8.25161],[-2.82408,1.14838]],[[335.44998,375.40333],[2.86869,-1.03081],[-1.76398,0.63385]],[[330.04762,376.96384],[1.472,-1.16045],[-1.59705,1.25904]],[[326.86671,382.16994],[1.29139,-1.57101],[-0.12843,0.15624]],[[319.78216,389.28925],[3.02046,-3.02139],[1.90341,12.36226]],[[325.93544,426.19909],[-1.9685,-12.20529],[1.12144,6.95328]],[[327.8006,445.60206],[-1.79408,-7.04038],[0.44176,1.33879]],[[329.2946,449.56268],[-0.55238,-1.30201],[3.65706,-5.23011]]],&quot;closed&quot;:true}]}" fill="#ffffff"></path><path d="M208.1226,246.3147c-0.73391,-0.04274 -1.46619,-0.11971 -2.18933,-0.24469c-1.03869,-0.17951 -1.95984,-0.85136 -3.00383,-0.99698c-2.67246,-0.37278 -5.44044,0.32564 -8.11849,-0.0046c-2.37701,-0.29312 -4.56206,-1.64435 -6.93187,-1.99094c-2.20039,-0.32181 -4.52477,-0.18837 -6.62609,-0.9162c-1.49293,-0.45514 -2.95938,-1.2705 -4.0298,-2.40637l-2.23689,-0.5949c-2.92686,-3.07389 -5.74006,-6.30659 -7.93039,-9.75505c0.10456,-0.08384 0.16204,-0.14158 0.16204,-0.14158l1.31271,-1.38398c1.77992,-2.69096 3.88095,-4.34616 5.85897,-6.81868c0.70004,-0.87504 1.04631,-2.03131 1.8387,-2.82369c0.61737,-0.61737 1.45812,-0.96264 2.20958,-1.41662c0.7503,0.46614 1.70581,0.8648 2.32869,1.48368c0.96344,0.95726 1.12076,2.57601 2.30656,3.23817c2.10426,1.17504 4.63419,1.46143 7.03854,1.49635c-2.51687,2.97601 -4.40347,6.35496 -6.4845,9.8885l-0.55098,3.16348c0,0 -0.39783,2.45623 2.07169,2.84545c2.46952,0.38922 2.78616,-2.01154 2.78616,-2.01154l0.30059,-2.25757c2.57715,-4.19818 4.88646,-8.62077 8.83459,-11.54988c1.67227,0.05533 3.35874,0.06133 4.86653,-0.1847c2.71029,-0.44225 5.30651,-1.45097 7.99954,-1.98839c2.17912,-0.43487 6.66903,-2.21441 9.64075,-2.21273c-1.0716,1.89387 -2.30129,3.70879 -3.27414,5.6555c-1.1085,2.21814 -1.68211,4.70574 -2.91421,6.85767c-0.64213,1.12152 -1.61561,2.06443 -2.12466,3.25229c-0.98684,2.30276 -1.29901,4.86348 -2.09268,7.23976l-1.00468,3.00619c0,0 -0.25678,0.76653 -0.04309,1.57208z" data-paper-data="{&quot;noHover&quot;:false,&quot;origItem&quot;:[&quot;Path&quot;,{&quot;applyMatrix&quot;:true,&quot;segments&quot;:[[416.25658,489.41886],[[418.25658,483.41886],[0,0],[1.58735,-4.75254]],[[422.42743,468.97723],[-1.97368,4.60553],[1.0181,-2.37572]],[[426.67545,462.49037],[-1.28427,2.24304],[2.46421,-4.30387]],[[432.50842,448.80324],[-2.21699,4.43628],[1.9457,-3.89342]],[[439.0623,437.50635],[-2.1432,3.78773],[-5.94344,-0.00337]],[[419.78639,441.94174],[4.35824,-0.86973],[-5.38607,1.07484]],[[403.80091,445.93544],[5.42058,-0.8845],[-3.01557,0.49206]],[[394.09792,446.32547],[3.34453,0.11065],[-7.89626,5.85822]],[[376.55469,469.28177],[5.1543,-8.39636],[0,0]],[375.93903,473.77844],[[370.22156,477.93903],[4.93903,0.77844],[-4.93903,-0.77844]],[366.06097,472.22156],[[367.15539,465.86809],[0,0],[4.16206,-7.06706]],[[380.18822,445.98361],[-5.03375,5.95202],[-4.8087,-0.06985]],[[366.2178,443.15444],[4.20852,2.35007],[-2.37159,-1.32431]],[[361.46447,436.53553],[1.92688,1.91451],[-1.24576,-1.23776]],[[356.94686,433.71119],[1.5006,0.93228],[-1.5029,0.90795]],[[352.53553,436.53553],[1.23474,-1.23474],[-1.58477,1.58477]],[[348.86671,442.16994],[1.40007,-1.75008],[-3.95604,4.94505]],[[337.16025,455.7735],[3.55985,-5.38191],[0,0]],[334.53553,458.53553],[[334.21151,458.81812],[0.20911,-0.16768],[4.38065,6.89692]],[[350.06502,478.28176],[-5.85373,-6.14778],[0,0]],[[354.53553,479.46447],[0,0],[2.14083,2.27175]],[[362.58114,484.25658],[-2.98587,-0.91029],[4.20265,1.45568]],[[375.80091,486.06456],[-4.40079,-0.64362],[4.73962,0.69318]],[[389.61092,490.03746],[-4.75403,-0.58623],[5.3561,0.66047]],[[405.80091,490.06456],[-5.34492,-0.74556],[2.08797,0.29125]],[[411.80091,492.06456],[-2.07739,-0.35902],[1.44628,0.24995]],[[416.17435,492.55882],[-1.46782,-0.08549],[-0.42738,-1.6111]]],&quot;closed&quot;:true}]}" fill="#ffffff"></path><path d="M224.24182,220.51484c2.36211,1.68822 3.8704,4.06612 6.16861,6.26592c1.37596,4.49531 4.69727,10.65584 1.99902,15.43953c-1.87251,3.31975 -8.45184,2.54075 -11.22322,2.84775c-2.66215,0.2949 -5.48288,0.8157 -8.29166,1.09922l0.94301,-2.84016c0.74128,-2.22804 0.97773,-4.63776 1.90276,-6.796c0.43785,-1.02158 1.32145,-1.80711 1.87208,-2.77259c1.28683,-2.25633 1.95435,-4.8842 3.11652,-7.2072c1.03952,-2.07787 2.39388,-4.00113 3.51289,-6.03647z" data-paper-data="{&quot;noHover&quot;:false,&quot;origItem&quot;:[&quot;Path&quot;,{&quot;applyMatrix&quot;:true,&quot;segments&quot;:[[[441.49158,453.19676],[2.07905,-4.15573],[-2.32433,4.646]],[[435.32455,467.50963],[2.57366,-4.51266],[-1.10126,1.93095]],[[431.57257,473.02277],[0.8757,-2.04315],[-1.85005,4.31648]],[[427.74342,486.58114],[1.48256,-4.45608],[0,0]],[[425.85164,492.25647],[0,0],[5.61756,-0.56704]],[[442.38908,490.03746],[-5.32429,0.5898],[5.54276,-0.614]],[[464.74675,484.37134],[-3.74502,6.63949],[5.39651,-9.56739]],[[460.74675,453.62866],[2.75191,8.99062],[-4.59644,-4.3996]],[[448.47525,441.12933],[4.72423,3.37644],[-2.23801,4.07068]]],&quot;closed&quot;:true}]}" fill="#ffffff"></path><path d="M265,124.5c0,2.5 -2.5,2.5 -2.5,2.5l0.38675,-0.41988c-1.93168,1.28778 -3.98693,2.40544 -5.80178,3.85323c-0.82263,0.65625 -1.357,1.67113 -2.27064,2.19327c-2.03822,1.16482 -4.59824,0.95516 -6.91388,1.3411c-2.13165,0.35528 -4.2395,1.01176 -6.40045,1.03228c-7.21362,0 -13.7575,2.03653 -21,2c-1.95332,-0.00985 -4.53177,0.21217 -6.48038,-0.78046c-0.05328,1.32973 0.12998,2.58934 1.70667,3.99858c4.38392,3.91834 5.29006,1.20739 8.89013,-0.51896c0.1081,-0.05184 0.21692,-0.10334 0.32523,-0.15496c1.31522,1.04582 2.58798,2.1602 3.65513,3.50088c4.30945,5.414 7.6972,11.62756 12.01951,17.04582c2.08304,2.61121 4.17612,5.28021 5.98787,8.10679c-0.50458,0.2316 -0.82561,0.55339 -0.82561,0.55339l-1.31358,1.38376c-1.28779,1.93168 -2.42377,3.9874 -3.85955,5.81177c-2.75481,3.50036 -7.61785,5.3067 -11.34005,7.43687c-1.79352,1.02641 -3.58321,2.14708 -5.54585,2.79379c-2.70286,0.89064 -5.89275,2.45093 -8.82375,1.9048c-1.03626,-0.19308 -1.96523,-0.82782 -3.00505,-1.00074c-4.47093,-0.74348 -9.08459,-0.74084 -12.65244,-4.3087c-1.08184,-1.08184 -3.06448,-5.4041 -3.53328,-6.34431c-4.91383,-10.1195 -6.70317,-20.77107 -6.75065,-31.94872c-0.02088,-4.91648 2.08855,-12.19878 6.74625,-14.84321c1.02987,-0.58471 2.32901,-0.46447 3.47104,-0.77795c2.3093,-0.63388 4.59331,-1.40002 6.9168,-1.97976c0,0 0.3601,-0.09017 0.76726,-0.33865c1.70263,0.7913 3.39449,1.60883 5.03675,2.48868c0.15114,-1.57125 0.31995,-3.08599 0.13983,-4.12824c-1.05426,-6.10032 -2.03228,-12.12089 -2.03228,-18.40045c0,0 0,-2.5 2.5,-2.5c2.5,0 2.5,2.5 2.5,2.5c0,1.86655 -0.35014,3.76027 -0.03228,5.59955c0.17951,1.0387 0.83216,1.95936 1,3c0.31845,1.97449 -0.3406,4.02921 0,6c0.17951,1.0387 0.83216,1.95936 1,3c0.00737,0.04572 0.06262,6.1086 0.03228,6.40045c-0.05547,0.53345 -0.74362,1.07583 -0.47189,1.53823c0.23177,0.3944 0.91491,-0.00155 1.37235,-0.00595c1.86646,-0.01796 3.73303,-0.04304 5.59955,-0.03228c4.00466,0.02309 7.70104,-1.33896 11.59955,-1.96772c0.25901,-0.04178 5.92044,-0.03228 6.40045,-0.03228c1.89404,0.02352 3.73113,-0.65632 5.59955,-0.96772c2.15374,-0.35896 3.19534,0.56296 5.08612,-0.6589c2.65074,-1.71295 5.21548,-4.14543 7.92758,-5.9535l2.38675,-0.41988c0,0 2.5,0 2.5,2.5z" fill="#ffffff"></path><path d="M251.89689,298.12057c2.43335,-0.24158 4.7967,-0.64957 6.86705,-1.16715c0.60541,0.00421 1.22969,0.02122 1.86381,0.04516c4.75565,2.10339 9.27568,5.07386 14.43864,5.93171c2.9635,0.4924 6.15955,-0.43267 9.12125,0.00145c2.62736,0.38511 5.30608,0.62639 7.93619,0.99227c2.33436,0.32473 4.52428,1.4003 6.81063,1.97242c4.83165,1.20905 10.08372,2.18641 14.74729,3.9389c2.04793,0.76957 3.95895,1.98009 6.10031,2.4282c0.8394,3.8628 -3.50736,7.39006 -6.48811,9.08524c-7.15972,4.07179 -15.2341,2.67471 -22.73264,5.88817c-3.40833,1.46062 -4.56511,2.23956 -7.45647,4.23222c-0.31097,0.21431 -2.4796,2.41816 -3.66492,1.76824c-1.4467,-0.79324 -2.0947,-2.59872 -3.38306,-3.6294c-0.87504,-0.70004 -2.02758,-1.05264 -2.8245,-1.84046c-1.59323,-1.57502 -2.45551,-3.77058 -3.69822,-5.63464c-3.20481,-4.77447 -7.74681,-8.46794 -11.05484,-13.10557c-0.86567,-1.2136 -1.13122,-2.79291 -1.99847,-4.00538c-0.78905,-1.10314 -2.1483,-1.7264 -2.9006,-2.85492c-0.58468,-0.87707 -0.45248,-2.10145 -0.99868,-3.00299c-0.20816,-0.34358 -0.43761,-0.69269 -0.68466,-1.04347z" data-paper-data="{&quot;noHover&quot;:false,&quot;origItem&quot;:[&quot;Path&quot;,{&quot;applyMatrix&quot;:true,&quot;segments&quot;:[[[505.25325,598.37134],[-0.41632,-0.68716],[1.09241,1.80308]],[[507.25325,604.37134],[-1.16936,-1.75415],[1.50461,2.25704]],[[513.05621,610.07645],[-1.5781,-2.20628],[1.73451,2.42495]],[[517.05621,618.07645],[-1.73134,-2.42721],[6.61606,9.27524]],[[539.16025,644.2265],[-6.40962,-9.54894],[2.48542,3.72813]],[[546.53553,655.46447],[-3.18645,-3.15005],[1.59384,1.57564]],[[552.16994,659.13329],[-1.75008,-1.40007],[2.57671,2.06137]],[[558.91342,666.3806],[-2.8934,-1.58648],[2.37064,1.29984]],[[566.2265,662.83975],[-0.62194,0.42863],[5.78272,-3.98531]],[[581.08658,654.3806],[-6.81666,2.92125],[14.99708,-6.42693]],[[626.49037,642.67545],[-14.31945,8.14358],[5.96148,-3.39034]],[[639.46447,624.53553],[1.67879,7.72561],[-4.28273,-0.89622]],[[627.26527,619.68943],[4.09586,1.53915],[-9.32715,-3.50497]],[[597.78732,611.85071],[9.6633,2.41809],[-4.57269,-1.14425]],[[584.19909,607.93544],[4.66873,0.64947],[-5.26022,-0.73175]],[[568.38908,605.96254],[5.25473,0.77022],[-5.9234,-0.86824]],[[550.19909,605.93544],[5.927,0.9848],[-10.32593,-1.71571]],[[521.33671,594.0555],[9.51131,4.20678],[-1.26825,-0.04788]],[[517.61092,593.96254],[1.21083,0.00842],[-4.14069,1.03517]],[[503.88318,596.28594],[4.86669,-0.48315],[0.4941,0.70157]]],&quot;closed&quot;:true}]}" fill="#a0d6ff"></path><path d="M276.03711,284.40179c2.98678,-5.51866 2.96846,-12.22489 2.92782,-18.59638c1.88295,-0.22953 3.75686,-0.63051 5.64457,-0.82283c5.14085,-0.52376 10.674,-0.01674 15.85399,-0.01674c4.35008,0 9.31348,-0.66387 13.6159,-0.04388c10.86985,1.56637 20.42254,5.84596 30.15031,10.68097c3.12758,2.35492 6.86708,4.41493 9.38659,7.47609c4.59924,5.58799 7.84357,11.80428 11.85091,17.82385c1.30332,1.95777 2.41024,4.06561 3.91629,5.87207c0.54284,0.65112 1.7188,0.87112 1.89069,1.70123c0.11453,0.55313 -1.09751,-0.27317 -1.63289,-0.45328c-0.80915,-0.2722 -1.57876,-0.65864 -2.39706,-0.90196c-2.32605,-0.69165 -4.66502,-1.34006 -7.00063,-1.99873c-1.21672,-0.34313 -2.52636,-0.3865 -3.68812,-0.88495c-1.1959,-0.5131 -2.05155,-1.6972 -3.28671,-2.10685c-1.02898,-0.34127 -2.19517,0.17781 -3.25284,-0.06007c-3.54384,-0.79703 -3.82455,-1.55314 -6.29312,-3.74944c-6.31784,-1.68652 -12.247,-4.59858 -18.56796,-6.18891c-10.04418,-2.52709 -20.2054,-3.83839 -30.3994,-5.11265c-1.36376,-0.17047 -2.63585,-0.83427 -3.99999,-1.00159c-2.28455,-0.28022 -4.63696,0.4057 -6.90501,0.01373c-1.99797,-0.34529 -3.97238,-1.00099 -5.99997,-1.00099z" data-paper-data="{&quot;noHover&quot;:false,&quot;origItem&quot;:[&quot;Path&quot;,{&quot;applyMatrix&quot;:true,&quot;segments&quot;:[[[555.80091,570.06456],[0,0],[4.05518,0]],[[567.80091,572.06456],[-3.99594,-0.69058],[4.5361,0.78393]],[[581.61092,572.03746],[-4.5691,-0.56044],[2.72829,0.33465]],[[589.61092,574.03746],[-2.72751,-0.34094],[20.38799,2.54851]],[[650.28334,584.1675],[-20.08836,-5.05418],[12.64192,3.18067]],[[687.35917,596.59156],[-12.63567,-3.37304],[4.93713,4.39261]],[[699.94554,604.09022],[-7.08768,-1.59407],[2.11535,0.47576]],[[706.44892,604.21454],[-2.05796,-0.68254],[2.47032,0.81931]],[[713.02277,608.42743],[-2.39179,-1.0262],[2.32352,0.99691]],[[720.39794,610.1994],[-2.43343,-0.68626],[4.67121,1.31734]],[[734.39794,614.1994],[-4.6521,-1.3833],[1.63659,0.48664]],[[739.19188,616.00368],[-1.61829,-0.54441],[1.07076,0.36022]],[[742.45744,616.91072],[0.22907,1.10626],[-0.34378,-1.66023]],[[738.67545,613.50963],[1.08568,1.30224],[-3.0121,-3.61294]],[[730.83975,601.7735],[2.60665,3.91554],[-8.01468,-12.03912]],[[707.13329,566.16994],[9.19849,11.17597],[-5.03903,-6.12232]],[[688.37134,551.25325],[6.25516,4.70984],[-19.45555,-9.67001]],[[628.19909,529.93544],[21.7397,3.13274],[-8.60484,-1.23998]],[[601,530],[8.70017,0],[-10.35997,0]],[[569.30642,530.01371],[10.28171,-1.04752],[-3.77542,0.38465]],[[558.02047,531.65312],[3.7659,-0.45906],[0.08129,12.74299]],[[552.17412,568.80835],[5.97355,-11.03733],[0,0]]],&quot;closed&quot;:true}]}" fill="#a0d6ff"></path><path d="M180.90642,207.0116c-0.51164,-3.68126 -1.9857,-6.23683 -1.99745,-9.97645c-2.78048,-7.4267 -1.2052,-16.67217 -6.57617,-23.2177c-0.8461,-1.03114 -2.24087,-1.45417 -3.2892,-2.27887c-0.92828,-0.73026 -1.44528,-1.89095 -2.54574,-2.31987c-1.23028,-0.47953 -2.63569,-0.16329 -3.95582,-0.19164c-1.22435,-0.0263 -2.55062,-0.08236 -3.83635,0.0771c-0.26156,-0.6527 -0.67904,-1.34031 -0.78035,-2.03116c-0.33853,-2.30865 0.3738,-4.69976 0.00227,-7.00332c-0.16784,-1.04065 -0.81977,-1.96225 -0.99928,-3.00095c-0.50054,-2.89625 0.03528,-6.69456 0.03528,-9.60303c0,-3.32147 -0.59534,-7.32685 -0.02923,-10.60253c0.57473,-3.32555 1.03508,-5.93248 1.03508,-9.40278c0,-3.15425 0.03093,-5.20699 0.87395,-8.21106c0.18564,-0.66151 -0.08918,-1.53737 0.39665,-2.0232c0.48583,-0.48583 1.36159,-0.21257 2.02357,-0.39656c2.61527,-0.7269 5.09607,-2.34505 7.90724,-1.89236c1.35689,0.2185 2.64077,0.80528 4.00137,0.99929c5.37805,0.76686 11.16435,1.11019 16.41071,2.86347c2.387,0.79771 4.56047,2.16571 6.94821,2.96121c0.98758,0.49495 2.01521,1.07199 3.03061,1.54386c-2.37357,0.54387 -4.76487,1.19797 -6.27905,2.06731c-4.80675,2.7597 -6.54018,7.52685 -8.13275,12.38212c-2.68416,8.1832 -0.44699,15.99826 0.90442,24.13698c0.16649,1.0027 -0.16276,2.04636 0.00893,3.04819c0.79442,4.6358 3.20714,9.52285 5.22939,13.69985c1.04103,2.07672 2.66848,5.86349 4.40117,7.59618c4.33715,4.33715 9.85945,4.76438 15.38353,5.6872c2.22979,0.37249 4.48983,1.30387 6.73114,1.00849c5.08668,-0.67037 9.64405,-2.83266 13.97946,-5.30648c4.35523,-2.48513 9.35188,-4.48774 12.6085,-8.50611c0.10815,-0.13344 3.97114,-5.93128 4.14814,-6.19679l0.49013,-0.44778c0.51648,1.07095 0.98148,2.17355 1.37665,3.30769c3.44566,3.44566 4.46521,8.45347 6.8728,12.66841c0.51484,0.90133 1.57472,1.4062 2.1061,2.29789c2.50489,4.20341 3.37452,9.76362 4.74271,14.36415c0.71803,2.41435 2.47083,4.48409 2.97888,6.95118c0.19612,0.95238 -0.24799,1.97507 -0.01795,2.91983c0.41481,1.70365 1.40445,3.22502 1.91908,4.90122c0.79605,2.59285 0.6146,5.39817 1.07085,8.07182c1.31714,7.71848 2.93689,14.88617 2.96667,22.82196c0.8428,4.21733 0.98444,8.28676 0.99691,12.45651c-0.0084,0.09611 -0.01288,0.19652 -0.01288,0.30123c0,0.10854 0.00463,0.21247 0.01364,0.3118c0.0003,1.54257 -0.01513,3.10231 -0.01513,4.68957c0,5.40537 -0.06464,12.2703 -4.27355,16.23664l-0.73314,2.76835c0,0 -0.05319,2.41532 2.44681,2.41532c1.18678,0 1.80919,-0.56273 2.13665,-1.15461c0.04573,0.01828 0.07176,0.02697 0.07176,0.02697l3.38925,1.09661c0.10816,0 0.21607,0.002 0.32392,0.0057l0.13395,0.10846c-3.60037,0.03418 -6.00867,1.55797 -9.40413,2.03464c-1.94331,0.27281 -4.12986,0.19078 -6.26251,0.09619c-0.84203,-0.37156 -1.69109,-0.71043 -2.54974,-0.99844c0,0 -2.20249,-0.73291 -3.07067,1.33347c-2.58256,0.5168 -5.49794,0.87152 -8.32615,0.94029c-0.5628,-0.58695 -1.1159,-1.14717 -1.632,-1.66737l-1.00033,-0.99989c0,0 -1.76955,-1.76722 -3.53732,0.00054c-0.74645,0.74645 -0.8632,1.49309 -0.74815,2.10645c-2.08005,-0.52015 -4.05889,-1.50849 -6.18232,-1.81905c-1.9746,-0.28879 -3.93942,-0.65968 -5.90818,-0.98591c-0.92942,-0.15401 -1.92187,0.29372 -2.82769,0.03479c-1.30616,-0.37337 -2.37314,-1.33643 -3.61969,-1.87641c-1.81311,-0.78539 -3.94814,-0.8057 -5.64574,-1.81682c-1.62002,-0.96492 -2.39613,-3.01268 -4.00256,-4.00008c-0.94746,-0.58236 -2.19053,-0.53621 -3.15613,-1.08798c-0.08834,-0.05048 -0.16661,-0.20096 -0.2544,-0.25237c1.55055,-1.72161 -0.13859,-3.301 -0.13859,-3.301c-2.00155,-2.00155 -3.97352,-4.40776 -6.18768,-6.16636c-0.83814,-0.6657 -2.03215,-0.89572 -2.71293,-1.72165c-0.89709,-1.08835 -1.02983,-2.65907 -1.84813,-3.80783c-0.83888,-1.17766 -2.18031,-1.93059 -3.06048,-3.07772c-2.47473,-3.22532 -2.54784,-5.37193 -5.18091,-8.61501c-1.71213,-2.10879 -4.16202,-3.52943 -5.9712,-5.55557c-0.36784,-0.41196 -0.68392,-0.90409 -1.06755,-1.31728c1.29695,0.14653 2.60625,0.2267 3.89422,0.40593c2.43493,0.33884 4.65012,1.70175 7.0891,2.01008c2.6142,0.33048 5.29109,-0.39864 7.89821,-0.01635c1.04294,0.15293 1.95621,0.83124 2.99686,0.99908c5.54274,0.89395 11.2941,-0.38662 16.68839,-0.98776c5.05832,-0.5637 11.60777,0.01485 14.80463,-5.16228c3.98208,-6.44874 0.17166,-14.44446 -2.01128,-20.62122c-3.98155,-4.12201 -6.4327,-8.39286 -12.49696,-10.03644c-2.78518,-0.75485 -5.73743,0.45833 -8.3514,1.03536c-4.14592,0.9152 -8.54286,2.21004 -12.68359,2.91808c-1.0762,0.18402 -2.26066,0.20957 -3.46466,0.17923c-0.70118,-0.3764 -1.42587,-0.25814 -1.91755,-0.08571c-1.11149,-0.06128 -2.2062,-0.1329 -3.21529,-0.13401c-1.46786,-0.00162 -5.45781,0.12061 -6.61918,-0.58219c-0.89613,-0.54229 -0.88727,-1.95111 -1.62491,-2.69477c-0.62791,-0.63304 -1.58932,-0.86038 -2.32212,-1.35946c0.4774,-0.69592 0.95523,-1.48171 1.63305,-2.49151c0,0 1.386,-2.08521 -0.69413,-3.47196c-0.7423,-0.49487 -1.39636,-0.54907 -1.93056,-0.41304z" data-paper-data="{&quot;noHover&quot;:false,&quot;origItem&quot;:[&quot;Path&quot;,{&quot;applyMatrix&quot;:true,&quot;segments&quot;:[[[365.7735,414.83975],[-1.48459,-0.98973],[4.16025,2.7735]],[[367.16025,421.7735],[0,0],[-1.35563,2.0196]],[[363.89285,426.75084],[0.95479,-1.39184],[1.4656,0.99816]],[[368.53553,429.46447],[-1.25582,-1.26607],[1.47528,1.48732]],[[371.7822,434.84556],[-1.79227,-1.08458],[2.32275,1.4056]],[[385.01568,436.00002],[-2.93572,-0.00325],[2.01817,0.00223]],[[391.44281,436.26239],[-2.22298,-0.12256],[0.98335,-0.34485]],[[395.27527,436.42998],[-1.40236,-0.75279],[2.40801,0.06069]],[[402.19909,436.06456],[-2.15239,0.36805],[8.28145,-1.41609]],[[427.51999,430.1983],[-8.29184,1.83041],[5.22795,-1.15406]],[[444.14876,428.13376],[-5.57035,-1.50971],[12.12852,3.28715]],[[469.25325,448.37134],[-7.96311,-8.24402],[4.36588,12.35353]],[[473.25325,489.62866],[7.96416,-12.89748],[-6.39373,10.35427]],[[443.61092,499.96254],[10.11665,-1.1274],[-10.78859,1.20228]],[[410.19909,501.93544],[11.08548,1.78789],[-2.08129,-0.33568]],[[404.19909,499.93544],[2.08588,0.30586],[-5.21425,-0.76459]],[[388.38908,499.96254],[5.2284,0.66096],[-4.87797,-0.61666]],[[374.19909,495.93544],[4.86986,0.67769],[-2.57594,-0.35847]],[[366.4056,495.11988],[2.59391,0.29306],[0.76726,0.82639]],[[368.66144,497.59503],[-0.73568,-0.82391],[3.61836,4.05228]],[[380.59178,508.69857],[-3.42427,-4.21757],[5.26615,6.48616]],[[390.94103,525.92294],[-4.94946,-6.45065],[1.76033,2.29425]],[[397.05621,532.07645],[-1.67775,-2.35531],[1.63659,2.29752]],[[400.74839,539.69099],[-1.79417,-2.1767],[1.36157,1.65186]],[[406.16994,543.13329],[-1.67628,-1.33139],[4.42831,3.5172]],[[418.53553,555.46447],[-4.0031,-4.0031],[0,0]],[[418.79214,562.2654],[3.1011,-3.44323],[0.1756,0.10282]],[[419.32053,562.5711],[-0.17668,-0.10096],[1.93119,1.10354]],[[425.62866,564.74675],[-1.89492,-1.16472],[3.21285,1.9748]],[[433.62866,572.74675],[-3.24005,-1.92984],[3.39519,2.02224]],[[444.91342,576.3806],[-3.62621,-1.57079],[2.4931,1.07995]],[[452.14876,580.13376],[-2.61232,-0.74674],[1.81163,0.51786]],[[457.80091,580.06456],[-1.85884,-0.30802],[3.93753,0.65246]],[[469.61092,582.03746],[-3.94921,-0.57758],[4.24688,0.62111]],[[481.96953,585.67699],[-4.1601,-1.04029],[-0.23009,-1.22672]],[[483.46447,581.46447],[-1.4929,1.4929],[3.53553,-3.53553]],[490.53553,581.46447],[[492.53553,583.46447],[0,0],[1.0322,1.0404]],[[495.79851,586.79955],[-1.12561,-1.17389],[5.65642,-0.13755]],[[512.44293,584.92207],[-5.16512,1.03359],[1.73636,-4.13276]],[[518.58114,582.25658],[0,0],[1.7173,0.57603]],[[523.67894,584.2543],[-1.68406,-0.74312],[4.26529,0.18918]],[[536.19909,584.06456],[-3.88662,0.54562],[6.79092,-0.95334]],[[555,580],[-7.20074,0.06836],[0,0]],[[554.84714,579.94669],[0,0],[-0.21571,-0.0074]],[[554.19909,579.93544],[0.21633,0],[0,0]],[547.41886,577.74342],[[547.2753,577.68949],[0.09146,0.03656],[-0.65493,1.18375]],[[543,580],[2.37356,0],[-5,0]],[538,575],[[539.46447,569.46447],[0,0],[8.4178,-7.93268]],[[548,537],[0,10.81075],[0,-3.17451]],[[548.02746,527.62341],[0.0006,3.08513],[-0.01803,-0.19865]],[[548,527],[0,0.21709],[0,-0.20941]],[[548.02558,526.39773],[-0.01681,0.19223],[-0.02494,-8.3395]],[[546.02433,501.49269],[1.6856,8.43466],[-0.05956,-15.87158]],[[540.07659,455.87181],[2.63427,15.43697],[-0.9125,-5.3473]],[[537.93041,439.74015],[1.5921,5.1857],[-1.02925,-3.3524]],[[534.09022,429.94554],[0.82962,3.4073],[-0.46007,-1.88953]],[[534.12509,424.11143],[0.39225,1.90477],[-1.01611,-4.93418]],[[528.16611,410.22266],[1.43605,4.8287],[-2.73638,-9.20106]],[[518.68535,381.52661],[5.00979,8.40682],[-1.06275,-1.78337]],[[514.47533,376.93702],[1.02969,1.80266],[-4.81518,-8.42988]],[[500.74675,351.62866],[6.89132,6.89132],[-0.79034,-2.26827]],[[497.99859,345.01887],[1.03297,2.1419],[0,0]],[[497.16025,345.7735],[0,0],[-0.35401,0.53101]],[[488.86671,358.16994],[0.2163,-0.26689],[-6.51324,8.03674]],[[463.50963,375.32455],[8.71046,-4.97025],[-8.67082,4.94763]],[[435.61092,385.96254],[10.17337,-1.34074],[-4.48262,0.59076]],[[422.19909,383.93544],[4.45959,0.74499],[-11.04816,-1.84563]],[[391.46447,372.53553],[8.6743,8.6743],[-3.46538,-3.46538]],[[382.5143,357.20873],[2.08207,4.15344],[-4.04451,-8.35401]],[[372.06456,329.80091],[1.58885,9.27159],[-0.34336,-2.00366]],[[372.04957,323.70234],[0.33299,2.00541],[-2.7028,-16.27744]],[[370.25658,275.41886],[-5.36831,16.36639],[3.18514,-9.71054]],[[386.53651,250.649],[-9.6135,5.51939],[3.02837,-1.73868]],[[399.10236,246.51239],[-4.74713,1.08775],[-2.03079,-0.94375]],[[393.08658,243.6194],[1.97517,0.9899],[-4.77548,-1.59099]],[[379.19662,237.69514],[4.774,1.59542],[-10.49273,-3.50655]],[[346.38908,231.96254],[10.75609,1.53372],[-2.72121,-0.38802]],[[338.38908,229.96254],[2.71378,0.43701],[-5.62235,-0.90538]],[[322.58114,233.74342],[5.23055,-1.4538],[-1.32395,0.36798]],[[318.53553,234.53553],[0.97166,-0.97166],[-0.97166,0.97166]],[[317.74342,238.58114],[0.37128,-1.32303],[-1.68604,6.00814]],[[316,255],[0,-6.30849],[0,6.94059]],[[313.93544,273.80091],[1.14945,-6.65109],[-1.13221,6.55136]],[[314,295],[0,-6.64294],[0,5.81693]],[[313.93544,314.19909],[-1.00107,-5.79251],[0.35902,2.07739]],[[315.93544,320.19909],[-0.33568,-2.08129],[0.74305,4.60713]],[[315.93544,334.19909],[-0.67705,-4.61729],[0.20261,1.38171]],[[317.32563,338.15688],[-0.52312,-1.30541],[2.57146,-0.31893]],[[325,338],[-2.4487,-0.05259],[2.64025,0.05671]],[[332.91342,338.3806],[-2.46055,-0.95906],[2.20091,0.85785]],[[338.16994,343.13329],[-1.85655,-1.46052],[2.09666,1.64941]],[[344.74839,347.69099],[-1.69221,-2.06227],[10.74193,13.09105]],[[357.91624,394.08861],[-5.56097,-14.85341],[0.0235,7.47923]],[[361.91252,414.01532],[-1.02328,-7.36253],[1.06839,-0.27206]]],&quot;closed&quot;:true}]}" fill="#a0d6ff"></path><path d="M222.21091,166.6648c-0.16111,0.37083 -0.35146,0.75323 -0.58428,1.14953c-0.47756,0.81291 -1.51493,1.19155 -2,2c-0.54233,0.90387 -0.43794,2.10826 -1,3c-1.065,1.68967 -5.06549,4.86657 -6.79479,5.16355c-1.40222,0.2408 -2.7841,-0.62333 -4.12241,-1.10617c-1.4574,-0.5258 -3.31663,-0.66397 -4.23754,-1.90994c-0.63601,-0.86049 -0.45207,-6.55022 -0.43962,-7.86223c1.13082,-3.4222 2.80931,-8.27581 6.51101,-9.90924c1.0856,-0.47904 2.37023,-0.12143 3.55625,-0.15802c0.45723,-0.01411 1.08142,0.35897 1.37235,0.00595c0.25858,-0.31376 -0.32361,-0.74809 -0.43962,-1.13777c-0.36774,-1.23529 -1.25336,-2.46659 -1.01016,-3.73229c0.75802,-3.945 5.53483,-7.99383 9.47788,-8.16816c1.1834,-0.05232 2.23828,0.80303 3.40045,1.03228c1.33594,0.26352 3.0162,-0.43325 4.06132,0.43962c1.29038,1.07771 1.6167,2.9921 2.00595,4.62765c1.36419,5.73204 -2.95574,12.39425 -6.69996,16.16822c0,0 -1.46225,1.46226 -3.05686,0.39704z" fill="#000000"></path><path d="M259.87171,128.29057c-0.79057,2.37171 -3.16228,1.58114 -3.16228,1.58114l-2.60989,-0.90399c-3.86639,0.04801 -7.73289,0.03228 -11.59954,0.03228c-1.86655,0 -3.75859,-0.34033 -5.59954,-0.03228c-4.14082,0.69289 -8.64049,2.78224 -12.70149,3.93258c-3.72681,1.05568 -7.37026,2.10484 -11.0133,-0.27367c-4.12863,-2.69556 -3.18567,-5.943 -3.18567,-10.12663c0,-6.18404 1,-11.89645 1,-18c0,0 0,-2.5 2.5,-2.5c2.5,0 2.5,2.5 2.5,2.5c0,6.13819 -1,11.8096 -1,18c0,1.54055 -0.96135,5.01793 0.81433,5.87337c3.51052,1.69121 7.56182,-0.29633 10.9867,-1.27367c3.05409,-0.87153 6.16802,-2.54727 9.29851,-3.06742c0.25142,-0.04177 5.92714,-0.03228 6.40046,-0.03228c4.13371,0 8.2669,-0.00696 12.40046,0.03228l3.39011,1.09601c0,0 2.37171,0.79057 1.58114,3.16228z" fill="#c1c1c1"></path></g></g></svg>