<svg version="1.1" xmlns="http://www.w3.org/2000/svg" xmlns:xlink="http://www.w3.org/1999/xlink" width="561.56156" height="420.42042" viewBox="0,0,561.56156,420.42042"><g transform="translate(26.51652,18.1982)"><g data-paper-data="{&quot;isPaintingLayer&quot;:true}" fill-rule="nonzero" stroke-linejoin="miter" stroke-miterlimit="10" stroke-dasharray="" stroke-dashoffset="0" style="mix-blend-mode: normal"><path d="M-26.51652,402.22222v-420.42042h561.56156v420.42042z" fill="#000000" stroke="none" stroke-width="0" stroke-linecap="butt"></path><path d="M326.33634,89.15916c0,42.7067 -34.95674,77.32733 -78.07807,77.32733c-43.12133,0 -78.07807,-34.62062 -78.07807,-77.32733c0,-42.7067 34.95674,-77.32733 78.07807,-77.32733c43.12133,0 78.07807,34.62062 78.07807,77.32733z" fill="#cecece" stroke="none" stroke-width="0" stroke-linecap="butt"></path><path d="M443.45346,220.54054v27.19574h-402.4024" fill="none" stroke="#ff0000" stroke-width="4" stroke-linecap="round"></path><path d="M440.45045,218.99868v-17.45294h30.03003v17.45294z" fill="#51ca69" stroke="none" stroke-width="0" stroke-linecap="butt"></path><text transform="translate(123.63363,291.11111) scale(0.5,0.5)" font-size="40" xml:space="preserve" fill="#51ca69" fill-rule="nonzero" stroke="none" stroke-width="1" stroke-linecap="butt" stroke-linejoin="miter" stroke-miterlimit="10" stroke-dasharray="" stroke-dashoffset="0" font-family="Sans Serif" font-weight="normal" text-anchor="start" style="mix-blend-mode: normal"><tspan x="0" dy="0">Click Green Flag to Restart</tspan></text><text transform="translate(203.21321,346.66667) scale(0.5,0.5)" font-size="40" xml:space="preserve" fill="#ffffff" fill-rule="nonzero" stroke="none" stroke-width="1" stroke-linecap="butt" stroke-linejoin="miter" stroke-miterlimit="10" stroke-dasharray="" stroke-dashoffset="0" font-family="Sans Serif" font-weight="normal" text-anchor="start" style="mix-blend-mode: normal"><tspan x="0" dy="0">AS Studios</tspan></text><path d="M256,232.51201v30" fill="none" stroke="#ff0000" stroke-width="4" stroke-linecap="round"></path><text transform="translate(143,190.51201) scale(0.5,0.5)" font-size="40" xml:space="preserve" fill="#ffffff" fill-rule="nonzero" stroke="none" stroke-width="1" stroke-linecap="butt" stroke-linejoin="miter" stroke-miterlimit="10" stroke-dasharray="" stroke-dashoffset="0" font-family="Sans Serif" font-weight="normal" text-anchor="start" style="mix-blend-mode: normal"><tspan x="0" dy="0">"Large mode activated...</tspan><tspan x="0" dy="46.150000000000006px">Must destroy intruder!"</tspan></text><path d="M257.61135,111.92815c0.12565,0.08712 0.22392,0.1792 0.29979,0.27351c0.08526,-0.01435 0.17001,-0.02909 0.25416,-0.04432c0,0 1.11067,-0.20111 1.36325,0.87102c0.04387,-0.02038 0.08763,-0.04098 0.13128,-0.06181c0.47714,-0.22777 0.79522,-0.72515 1.2794,-0.93755c0.82092,-0.36013 1.83045,-0.10764 2.64628,-0.47916c0.85489,-0.38932 1.44031,-1.21658 2.2383,-1.71218c0.54864,-0.34073 1.21344,-0.49585 1.71313,-0.905c0.34653,-0.28374 0.4401,-0.79208 0.75204,-1.11346c0.66077,-0.68078 1.33727,-1.34654 1.98499,-2.03975c0.69655,-0.74546 1.61818,-1.24944 2.38485,-1.92117c-0.27079,-0.1212 -0.53097,-0.36876 -0.62039,-0.86258c-0.21176,-1.1695 0.95774,-1.38126 0.95774,-1.38126l0.66157,-0.11979c0.34304,-0.06071 0.71166,-0.12479 1.09343,-0.18567c0.73926,-1.12356 1.38997,-2.35666 1.88765,-3.50561c-0.57211,-0.89894 0.31071,-1.56006 0.31071,-1.56006c0.34512,-0.25744 0.70745,-0.49691 1.0807,-0.72522c0.61467,-0.80756 1.23888,-1.63827 1.65872,-2.47138c0.73357,-1.45566 0.79056,-2.80724 1.75252,-4.22309l-0.03112,0.02264c-0.03066,0.04113 -0.06067,0.08281 -0.08998,0.12507l-1.34653,1.02755c0,0 -0.01045,0.00783 -0.02998,0.02074c0.14253,0.28827 0.19376,0.68443 -0.12773,1.14808c-0.67722,0.9767 -1.65392,0.29948 -1.65392,0.29948l-0.88295,-1.03583c-0.40942,-2.71877 -3.07374,-4.60021 -5.18551,-6.06447c-0.62011,-0.42997 -1.22517,-0.85762 -1.8279,-1.27537c-0.04125,-0.02339 -0.08309,-0.04967 -0.1255,-0.07907c-0.04091,-0.02836 -0.07891,-0.05725 -0.11418,-0.08657c-1.63241,-1.12467 -3.26007,-2.16916 -5.136,-2.98233c-3.10842,-2.13808 -6.34491,-3.441 -9.71716,-5.01728c-1.16813,-0.54601 -2.21323,-1.37434 -3.44184,-1.76571c-0.79427,-0.25301 -1.65547,-0.27704 -2.43341,-0.57648c-0.43141,-0.16606 -0.70971,-0.61564 -1.13491,-0.79701c-1.10147,-0.46982 -2.3824,-0.34363 -3.52014,-0.71713c-2.16796,-0.71171 -4.56887,-1.87471 -6.8896,-2.03476c-0.49231,-0.03395 -0.97515,0.24377 -1.46675,0.20075c-2.29888,-0.20119 -4.52365,-1.1589 -6.80319,-0.74615c-0.55013,-0.15284 -1.10507,-0.27011 -1.66338,-0.35844l0.03386,0.26597c0.05577,0.14108 1.27536,3.22069 1.2982,3.29909c0.68771,2.36083 0.12539,4.90205 -0.08351,7.27675c-0.20795,2.36389 -0.58468,4.72173 -1.70071,6.89059c-0.49175,0.95565 -1.46298,1.57507 -2.21253,2.34531c-1.85694,1.90816 -3.52037,3.94009 -6.3897,4.45963c-1.1463,0.20756 -3.11285,-0.17176 -4.20619,-0.32761c-2.17968,-0.34145 -4.74289,-0.72557 -6.7692,-1.67099c-0.4379,-0.20432 -0.75649,-0.61652 -1.19332,-0.82309c-3.54571,-1.67673 -7.20464,-2.92411 -9.67454,-6.1895c-1.46545,-1.93743 -2.85745,-3.9096 -2.63351,-6.53506c0.07054,-0.82706 0.46344,-1.94026 0.89393,-3.01489c-0.45941,0.26887 -0.91902,0.53153 -1.37992,0.78328c-0.9576,0.71735 -2.0803,1.19439 -3.03857,1.91085c-2.10615,1.5747 -3.80696,3.73881 -5.56341,5.63217c-0.44437,0.47901 -1.02131,0.82091 -1.47424,1.29183c-0.93837,0.97564 -0.97808,2.38137 -1.40254,3.60002c-0.10744,0.30846 -0.45142,0.57615 -0.39322,0.89756c0.0582,0.32141 0.47483,0.45096 0.68298,0.70268c0.94527,1.14312 1.73882,1.70995 2.97112,2.56441c1.35577,0.94006 2.2494,1.82438 3.39293,2.94977c1.12639,1.10851 2.85214,1.95894 4.14977,2.85869c1.13628,0.78787 2.47451,2.02401 3.7416,2.61303c0.45442,0.21124 0.9909,0.20566 1.44293,0.42199c1.00059,0.47886 1.74111,1.40309 2.73476,1.89623c0.29734,0.14757 0.63555,0.18988 0.96141,0.2645c0.28599,-0.54551 0.66687,-1.04916 1.00881,-1.52036c0.36869,-0.50806 0.62556,-1.14351 1.14618,-1.49426c0.46568,-0.31374 1.10359,-0.21824 1.64035,-0.38308c0.60618,-0.18616 1.14927,-0.61648 1.78132,-0.66771c4.01214,-0.32522 7.19215,2.78657 10.84682,3.7121c1.46417,1.00843 2.85696,1.121 4.43375,1.91833c0.09156,-0.24555 0.28958,-0.48659 0.684,-0.64254c1.10526,-0.43701 1.54227,0.66825 1.54227,0.66825c0.2109,0.53836 0.38716,0.93738 0.52972,1.31241c0.39349,-0.15109 0.7415,-0.46552 1.15891,-0.53935c0.49035,-0.08673 1.03627,0.29784 1.49088,0.09463c0.58917,-0.26334 1.61965,-1.85564 2.01792,-2.42866c0.27378,-0.39393 0.59674,-0.80231 0.92177,-1.21994c0.06582,-0.2388 0.21483,-0.55396 0.55182,-0.72593c0.33801,-0.46216 0.64678,-0.9317 0.86641,-1.40199c0.84506,-1.8095 1.51814,-3.87309 2.28367,-5.74073c0.48267,-1.17754 0.79961,-2.64426 1.84899,-3.52789c2.28485,-1.92396 4.66453,-1.72393 7.35348,-2.16283c3.00447,0.82039 7.16029,1.50411 8.60097,4.80672c1.1566,2.65138 -0.84626,5.06111 -1.99628,7.18999c-1.2264,2.27028 -2.28935,4.8706 -4.14007,6.79388c-0.34747,0.3611 -0.86108,0.53512 -1.20335,0.90115c-0.85559,0.91499 -1.29882,2.16021 -2.13609,3.092c-0.78116,0.86934 -1.91663,1.36693 -2.70861,2.22642c-0.41892,0.45463 -0.80632,0.94491 -1.2149,1.41192c0.26535,-0.03795 0.52845,-0.0733 0.78903,-0.10541c1.28166,-0.15795 2.49721,-0.72891 3.78487,-0.82656c1.98027,-0.15017 2.83591,0.40445 4.76636,0.31133c0.68659,-0.03312 1.34297,-0.35236 2.03029,-0.36108c0.67047,-0.00851 1.3193,0.36577 1.98751,0.31012c0.50709,-0.04223 0.91962,-0.44569 1.40674,-0.5928c0.54155,-0.16356 1.11602,-0.27898 1.69847,-0.37569l0.17728,-0.29932c0,0 0.67722,-0.9767 1.65392,-0.29948zM256.14733,117.68703c0,0 -0.15257,0.52168 -0.60414,0.75629c0.0358,1.08988 0.13184,2.18088 0.03845,3.26568c-0.04062,0.47185 -0.37685,0.88686 -0.41456,1.35895c-0.21436,2.68319 1.40528,5.89095 2.49862,8.18406c1.06088,2.22504 2.28135,4.96222 4.10361,6.71822c0.92572,0.89206 1.99741,1.63199 2.8715,2.5747c1.28774,1.38883 2.25944,2.70901 3.81653,3.79817c1.50735,0.42177 3.0028,1.0736 4.50373,1.45843c1.19927,0.30748 2.47591,0.13262 3.70126,0.30958c1.1943,0.17246 2.20587,0.58801 3.43517,0.02819c1.14824,-0.52291 2.35909,-1.80637 3.37241,-2.56522c0.6637,-0.49702 1.60354,-0.70112 2.06117,-1.39256c0.48109,-0.72688 -0.8844,-1.64208 -1.07757,-1.84213c-0.87179,-0.90281 -1.91114,-1.63033 -2.80715,-2.50911c-1.47822,-1.44981 -2.13602,-3.21587 -3.87281,-4.42012c-1.44323,-1.89126 -2.6469,-4.04289 -4.19781,-5.83419c-0.53538,-0.61837 -1.2087,-1.11605 -1.69769,-1.77173c-0.34084,-0.45703 -1.76058,-3.25519 -2.11846,-3.82731c-0.33183,-0.53048 -1.67456,-2.09878 -1.89242,-2.5751c-0.20809,-0.45495 -0.14872,-0.99293 -0.29296,-1.47196c-0.55277,-1.83575 -0.98272,-3.56007 -1.33318,-5.4466c-0.65224,0.50721 -1.42879,1.12129 -1.70594,1.2457c-0.81781,0.36712 -1.83445,0.09898 -2.64628,0.47916c-0.42889,0.20085 -0.69991,0.66073 -1.1273,0.86475c-1.34239,0.64082 -2.79755,1.04295 -4.10063,1.76035c0,0 -0.10348,0.05664 -0.26307,0.10165c-0.09223,0.24033 -0.17696,0.48943 -0.25048,0.75216zM244.95529,103.65698l-0.90115,-1.20335c-0.71336,-0.95378 -1.62379,-1.76144 -2.2561,-2.77078c-0.32618,-0.52066 -0.42756,-1.15374 -0.69177,-1.70842c-0.50695,-1.06429 -1.31729,-1.95932 -1.88359,-2.99326c-0.497,-0.90741 -0.86943,-1.87866 -1.31904,-2.81034c-0.80567,1.16053 -1.324,3.39696 -1.74441,4.3661c-0.51956,1.1977 -0.82361,2.48487 -1.38502,3.66353c-0.31232,0.65571 -0.76342,1.30987 -1.23803,1.9482c0.07484,2.33592 1.16612,4.39212 2.10814,6.5362l0.79499,0.72931c0,0 0.85935,0.82103 0.03833,1.68038c-0.82103,0.85935 -1.68038,0.03833 -1.68038,0.03833l-1.09286,-1.07433c-0.81675,-1.77021 -1.63813,-3.44962 -2.119,-5.23908c-0.66496,0.92987 -1.41579,1.842 -2.44486,2.34579c-0.57991,0.28389 -1.30179,-0.08506 -1.93675,0.03202c-0.41051,0.0757 -0.77823,0.33307 -1.16359,0.49992c-0.0262,0.41656 -0.11974,0.83582 -0.04579,1.24425c0.09492,0.52421 0.45147,0.96929 0.6037,1.47982c0.43014,1.44255 0.5026,2.70494 1.07174,4.12927l0.18403,0.88681c0,0 0.00688,0.03801 0.01131,0.10157c1.94058,0.07843 3.95554,-0.14979 5.9493,-0.46058l0.83654,-0.71308c0.73372,-0.11049 1.44359,-0.46259 2.02582,-0.92256c0.85358,-0.62378 1.42193,-1.56499 2.14372,-2.33747c0.77736,-0.83195 1.88814,-1.31029 2.64656,-2.15954c0.85447,-0.9568 1.32856,-2.21579 2.19814,-3.15888c0.33969,-0.36842 0.85185,-0.54398 1.20335,-0.90115c0.24472,-0.24866 0.4734,-0.51222 0.68891,-0.78736c-0.3726,-0.13473 -0.60222,-0.44135 -0.60222,-0.44135zM241.29762,93.82149c0.59273,1.08331 1.42767,2.02931 1.96058,3.14327c0.22803,0.47666 0.28825,1.03184 0.56875,1.47964c0.5926,0.94604 1.46021,1.69124 2.12986,2.58439l0.85239,1.13823c0.6501,-1.17414 1.20051,-2.41104 1.80645,-3.53097c0.6308,-1.16588 2.71112,-3.50396 1.92141,-5.13479c-1.13796,-2.35 -4.41809,-2.7024 -6.54705,-3.38257c-1.48198,0.30196 -2.80431,0.23864 -4.10373,0.70414c0.49204,0.98852 0.88117,2.02966 1.41135,2.99866zM224.31222,111.07323c-0.17432,-0.58462 -0.54812,-1.10795 -0.65682,-1.70824c-0.15388,-0.84983 -0.17798,-1.47035 -0.22936,-2.06803c-0.45417,-0.31345 -0.87613,-0.71727 -1.58652,-1.09233c-1.50798,-0.79615 -2.9636,-0.9044 -4.38361,-1.89588c-1.7211,-0.40333 -3.45312,-1.54787 -5.22956,-2.42816c-0.15818,0.7072 -0.30047,1.41835 -0.48766,2.11833c-0.11511,0.43042 -0.4542,0.82194 -0.42689,1.26666c0.02963,0.4825 0.45415,0.86145 0.58612,1.32649c0.01313,0.04625 0.25003,1.34892 0.43112,2.34817c2.67265,1.30259 5.39259,2.52865 8.04339,3.79726c1.51014,0.72272 2.42453,1.66056 4.0428,2.26369c0.32136,0.09504 0.64687,0.17616 0.97602,0.24461c-0.52632,-1.42276 -0.65025,-2.73453 -1.07904,-4.17257zM211.68549,112.05697c-1.1695,0.21176 -1.38126,-0.95774 -1.38126,-0.95774l-0.09877,-0.54548c-0.58734,-0.29605 -1.17149,-0.59661 -1.7513,-0.90258c-0.10055,-0.05306 -0.20032,-0.10791 -0.29937,-0.16439c0.8568,0.7752 1.82474,1.45293 2.52515,2.37078c0,0 0.71242,0.95133 -0.23891,1.66375c-0.95133,0.71242 -1.66375,-0.23891 -1.66375,-0.23891c-0.62378,-0.85358 -1.56645,-1.42037 -2.33747,-2.14372c-0.73093,-0.68574 -1.08262,-1.70916 -1.8023,-2.40669c-0.37834,-0.3667 -0.96187,-0.50845 -1.27831,-0.92973c-0.3806,-0.50671 -0.43873,-1.19333 -0.73654,-1.75272c-0.21418,-0.40231 -0.61789,-0.722 -0.85515,-1.1052c-0.09983,-0.05091 -0.20044,-0.10003 -0.30191,-0.1472c-0.45442,-0.21124 -0.99562,-0.19608 -1.44293,-0.42199c-0.99017,-0.50008 -1.72885,-1.42863 -2.73476,-1.89623c-0.45442,-0.21124 -0.9909,-0.20566 -1.44293,-0.42199c-1.39039,-0.66541 -2.81162,-1.93085 -4.07199,-2.80476c-3.07224,-2.13023 -5.67278,-4.4891 -8.71474,-6.62113c-1.14911,-0.80538 -3.19601,-2.48982 -3.46661,-3.9843c-0.06088,-0.33622 0.71897,-2.91465 0.87274,-3.43122c0.64634,-2.17134 1.46811,-2.75497 2.96299,-4.36467c1.86543,-2.00871 3.69036,-4.28575 5.92312,-5.96026c0.99838,-0.74876 2.16671,-1.25078 3.16574,-1.99867c2.10327,-1.15391 4.19087,-2.52514 6.34767,-3.6974c-2.1601,-1.02662 -4.27089,-2.11901 -6.34495,-3.55712c0,0 -0.9767,-0.67722 -0.29948,-1.65392c0.67722,-0.9767 1.65392,-0.29948 1.65392,-0.29948c2.51382,1.74303 5.08738,2.95183 7.74003,4.1742c0.15754,-0.06592 0.3156,-0.12998 0.47421,-0.19202c1.0765,-0.4211 2.29203,-0.33653 3.41007,-0.63002c0.31408,-0.08245 0.62389,-0.16248 0.9305,-0.23989c0.21159,-0.71925 0.4535,-1.43305 0.59296,-2.16775c0.57794,-3.04491 1.41377,-5.66025 3.19895,-8.23486c0.37542,-1.00731 0.72513,-2.02538 1.02626,-3.05734l0.42199,-1.44293c0,0 0.33361,-1.14073 1.47435,-0.80713c1.14073,0.33361 0.80713,1.47435 0.80713,1.47435l-0.42199,1.44293c-0.34659,1.18263 -0.76356,2.34456 -1.20347,3.49574c-1.80114,2.59763 -2.79437,5.63016 -3.44571,8.72893c1.54156,-0.31851 3.07665,-0.54981 4.75651,-0.66267c2.27234,-0.15267 4.58502,0.28434 6.85527,0.12524c2.98348,-0.20909 6.21339,-0.4745 9.11785,0.42524c2.29367,-0.41532 4.4913,0.54511 6.79,0.74549c0.51437,0.04484 1.02184,-0.23849 1.53645,-0.19643c2.52607,0.20643 5.09553,1.36426 7.4533,2.1477c1.18335,0.3932 2.50558,0.29992 3.6611,0.76867c0.45273,0.18365 0.75339,0.65239 1.20916,0.82832c0.70074,0.2705 1.48545,0.25617 2.20002,0.48771c1.31668,0.42665 2.4546,1.2815 3.70774,1.86913c3.42187,1.60462 6.73765,2.90054 9.87943,5.09956c1.69119,0.73247 2.97948,1.5147 4.39866,2.47224c0.3772,-0.73525 0.69012,-1.50949 1.0915,-2.23185c1.23341,-2.21981 2.96552,-4.30358 4.41584,-6.39526c1.25301,-1.8071 2.41989,-4.00471 3.91354,-5.61722c0.36695,-0.39615 0.88273,-0.62551 1.2888,-0.98144c2.01361,-1.76502 3.73064,-3.82289 6.02392,-5.26153c1.83979,-1.15415 3.85584,-2.11411 5.76315,-3.15294c2.05369,-0.68695 4.03409,-1.62966 6.21363,-1.83479c3.49947,-0.32937 6.8921,0.12253 10.4001,0.18421c1.34879,0.02371 5.80167,-0.35476 6.5338,0.94877c1.20664,2.14837 -1.08474,3.35598 -2.17121,4.26241c-1.34381,1.12113 -2.80311,2.64933 -4.28099,3.57598c-0.44421,0.27852 -1.05449,0.23348 -1.47472,0.547c-0.34917,0.2605 -0.3903,0.80604 -0.7202,1.09055c-1.05622,0.91087 -2.3857,1.56195 -3.74834,1.85943c-2.1721,1.98314 -4.79008,3.32361 -6.99154,5.25418c-3.62112,3.17554 -6.77502,6.69368 -9.9636,10.2522c-0.43603,0.48662 -1.037,0.8063 -1.47424,1.29183c-0.37342,0.41467 -1.50663,2.33108 -1.92725,2.7682c-0.25309,0.26301 -0.52482,0.51052 -0.7946,0.75956c0.77188,0.11825 0.92608,0.96982 0.92608,0.96982l-0.07301,1.55055c-0.71849,1.00922 -0.84214,1.95561 -1.1878,2.98269c0.70278,-0.44843 1.36343,-0.94508 1.93916,-1.53636c0.96613,-0.99224 1.4642,-2.46011 2.40697,-3.48267c0.44289,-0.48037 1.03811,-0.80531 1.47424,-1.29183c0.43315,-0.48321 0.67156,-1.12198 1.11459,-1.59616c0.81028,-0.86726 1.85742,-1.47952 2.7499,-2.26194c1.84656,-1.61882 3.70938,-3.45652 5.72827,-4.85677c1.12928,-0.78324 2.38807,-1.36434 3.53758,-2.11757c0.7773,0.20493 1.64761,0.19297 2.33191,0.61479c1.448,0.89258 2.1648,3.42959 2.27844,5.00172c0.13462,1.86233 -0.07772,4.153 -0.8676,5.86876c-1.03482,2.24781 -2.55954,4.2867 -3.07324,6.80342c-0.47761,2.33987 0.53684,5.83227 -1.69581,7.45171c-0.4284,0.31074 -2.33811,0.43618 -2.9635,0.62266c-0.58462,0.17432 -1.10745,0.55092 -1.70824,0.65682c-0.15349,0.02706 -3.38018,-0.03866 -3.6611,-0.04379c-2.69618,-0.05902 -5.33609,0.73678 -8.01522,0.77591c-0.70862,0.01035 -1.39587,-0.31166 -2.1045,-0.3022c-0.69985,0.00934 -1.36921,0.37068 -2.069,0.35792c-0.50104,-0.00915 -0.94305,-0.38661 -1.44293,-0.42199c-0.61569,-0.04358 -1.33452,0.00773 -2.0536,0.09863c-0.45544,0.6211 -0.9328,1.19805 -1.4196,1.70111c-0.79179,0.81823 -1.875,1.32221 -2.64656,2.15954c-0.6635,0.72005 -1.36382,1.40527 -2.04704,2.10663c-0.35099,0.3603 -0.4842,0.91186 -0.8733,1.23061c-0.21884,0.17928 -0.46058,0.32452 -0.71116,0.45689c0.00146,0.00689 0.00213,0.01056 0.00213,0.01056l0.11979,0.66157c0.34529,1.90695 0.77918,3.6072 1.32244,5.44923c0.11212,0.38014 0.02552,0.81202 0.1862,1.17432c0.38083,0.85869 1.21302,1.44254 1.71218,2.2383c0.74761,1.19184 1.18484,2.57585 2.03064,3.70013c0.46096,0.61273 1.1009,1.07037 1.60198,1.65075c1.49808,1.73516 2.67664,3.80241 4.03232,5.65751c1.74406,1.20929 2.40289,3.00207 3.87816,4.4253c1.30869,1.26252 3.84268,2.6164 4.43497,4.47679c0.26951,0.84653 0.24902,1.84232 -0.08956,2.66366c-0.25778,0.62533 -1.02167,0.88716 -1.54888,1.31089c-1.47096,1.18225 -3.33574,2.97283 -5.05102,3.74283c-1.65474,0.74282 -3.10851,0.37598 -4.74324,0.14254c-1.30396,-0.18621 -2.65734,-0.03863 -3.93537,-0.35744c-1.6263,-0.4057 -3.31655,-1.12593 -4.9352,-1.61528c-1.87048,-1.28899 -3.01805,-2.67822 -4.54157,-4.33367c-0.83858,-0.9112 -1.88772,-1.60644 -2.77225,-2.47311c-1.2889,-1.26287 -2.06147,-2.98818 -2.99775,-4.48403c-1.42128,-2.27072 -2.72436,-4.64434 -3.45451,-7.26694c-0.98889,-3.55196 -0.57554,-6.86629 -0.51049,-10.47895c0,0 0.01856,-1.01618 0.96106,-1.15197c0.14637,-0.37077 0.30794,-0.71954 0.47138,-1.06364c-0.55085,0.19802 -1.05587,0.56614 -1.63684,0.62034c-0.74374,0.06939 -1.47461,-0.30566 -2.22149,-0.29428c-0.6572,0.01001 -1.28251,0.32811 -1.93912,0.35766c-1.57561,0.07091 -3.14848,-0.43359 -4.72117,-0.31432c-0.6315,0.04789 -2.80751,0.70601 -3.6262,0.80915c-5.403,0.68068 -11.4365,2.39035 -16.78337,0.84094c-1.68559,-0.64414 -2.75456,-1.64849 -4.31258,-2.37274c-2.29087,-1.06492 -4.62131,-2.1257 -6.92499,-3.23668c-0.14446,0.18693 -0.3745,0.3452 -0.7379,0.41101zM209.61205,107.24403c-0.17197,-0.63719 -0.64428,-1.20226 -0.6744,-1.86156c-0.06669,-1.45976 0.69694,-2.83835 1.0238,-4.2626c0,0 0.01119,-0.04871 0.03896,-0.12387c-0.70339,-0.18971 -1.41549,-0.2778 -2.13825,-0.20613c-0.50636,0.05022 -0.91744,0.4531 -1.40674,0.5928c-0.32389,0.09248 -0.72182,-0.08487 -1.00592,0.09608c-0.21592,0.13753 -1.0514,1.36354 -1.3864,2.09173c1.86483,1.26688 3.52583,2.94802 5.50247,3.97946c0.04692,0.02449 0.09388,0.04893 0.14086,0.07334c-0.02911,-0.12695 -0.06041,-0.25342 -0.09438,-0.37928zM208.40971,68.78892c-0.30077,1.87412 0.52055,2.95394 -2.19782,3.60521c-1.72485,0.41324 -2.13522,-0.76334 -3.33876,-1.33159c-0.42673,-0.20148 -0.85135,-0.3991 -1.27398,-0.59483c-1.06328,0.50224 -2.10341,1.07988 -3.13204,1.68185c-0.01322,0.22638 -0.07539,0.3909 -0.07539,0.3909c-0.40292,1.06479 -0.72164,2.15965 -1.09956,3.23356c-0.18689,0.53109 -0.58583,1.00383 -0.63638,1.56457c-0.22859,2.53601 2.04164,5.32209 3.96807,6.64575c4.37974,3.00936 9.00295,5.18436 14.28754,6.00589c0.49431,0.07154 2.71473,0.469 3.43044,0.33941c2.36038,-0.4274 3.60041,-2.2252 5.102,-3.7705c0.34923,-0.3594 0.8472,-0.54861 1.20335,-0.90115c1.00733,-0.99714 1.25819,-2.66004 1.64241,-3.95726c0.279,-0.94195 0.32451,-1.93991 0.40936,-2.91864c0.17609,-2.03122 0.78823,-4.40934 0.16697,-6.43379c-0.3238,-1.05514 -0.81702,-2.05063 -1.22284,-3.07702l-0.18403,-0.88681c0,0 -0.0384,-0.21206 0.00781,-0.47193c-1.59507,-0.05788 -3.201,0.04111 -4.78542,0.14757c-3.28767,0.22088 -6.6097,-0.13398 -9.89223,0.08303c-0.81286,0.05374 -1.58735,0.24637 -2.3522,0.4769c-0.00918,0.0563 -0.01828,0.11259 -0.02731,0.16886zM205.78837,70.05514c0.306,0.01473 0.33404,-0.32312 0.31075,-0.71934c-0.00438,0.00115 -0.00876,0.00229 -0.01313,0.00343c-0.42411,0.11061 -0.86424,0.15867 -1.30463,0.20326c0.38279,0.25911 0.79078,0.50225 1.007,0.51265zM278.29217,101.02942c0.50017,0.03083 0.94189,0.41282 1.44293,0.42199c0.64468,0.01179 1.25569,-0.35139 1.90041,-0.36082c0.70862,-0.01037 1.39587,0.31165 2.1045,0.3022c2.70794,-0.0361 5.36858,-0.81721 8.10202,-0.77592c1.06489,0.01945 2.14725,0.27722 3.19417,0.08144c0.52366,-0.09793 0.96929,-0.45147 1.47982,-0.6037c0.75167,-0.22414 1.62726,0.01465 2.32906,-0.33566c0.575,-0.28702 0.29834,-1.72858 0.29885,-1.90813c0.00475,-1.66939 0.00767,-2.32128 0.36031,-4.04851c0.77584,-3.80002 3.51449,-6.5544 3.86322,-10.45457c0.14518,-1.62372 -0.04967,-4.27286 -1.78617,-4.99131c-0.75514,0.7152 -1.74354,1.135 -2.59895,1.72661c-1.94797,1.34723 -3.74265,3.13639 -5.52385,4.6965c-0.84286,0.73824 -1.84604,1.3 -2.60527,2.12402c-0.85541,0.92842 -1.66459,1.89897 -2.52677,2.8211c-0.97189,1.03948 -1.47388,2.52517 -2.46903,3.54956c-1.73374,1.78468 -4.11987,2.74074 -6.22988,4.0289c-0.18113,0.24125 -0.35715,0.47982 -0.5228,0.71521c-0.35862,0.94904 -0.84071,1.98016 -1.4055,2.99627c0.20396,-0.00149 0.40231,0.00308 0.59293,0.01483zM279.60914,87.32145c0.54925,-0.79214 1.33989,-1.38616 2.01601,-2.07319c0.76753,-0.7799 1.13686,-1.88469 1.8652,-2.70131c0.43491,-0.48762 1.03821,-0.80522 1.47424,-1.29183c3.25927,-3.6374 6.48841,-7.24018 10.19656,-10.47968c2.33359,-2.03867 5.07831,-3.54822 7.44863,-5.55961c1.52676,-0.36947 1.89817,-0.27437 3.16955,-1.44297c0.37945,-0.34877 0.49307,-0.94398 0.90513,-1.25353c0.49463,-0.37158 1.18892,-0.3853 1.71333,-0.71352c0.50944,-0.31885 0.88142,-0.81827 1.34506,-1.20066c0.89002,-0.73404 1.77727,-1.4716 2.67759,-2.19298c0.31673,-0.25378 0.67623,-0.44969 1.00176,-0.69207c0.21539,-0.16037 0.86661,-0.40995 0.61948,-0.51504c-0.37087,-0.15772 -0.77519,0.24242 -1.17662,0.27812c-1.11373,0.09903 -2.23592,-0.03781 -3.35384,-0.05897c-3.43727,-0.06505 -6.73671,-0.47461 -10.16571,-0.1915c-1.87845,0.15509 -3.68778,1.06061 -5.45503,1.64457c-4.52409,2.49069 -8.75775,5.04434 -12.31423,8.86665c-1.4077,1.51292 -2.49297,3.62232 -3.67136,5.32181c-1.4032,2.02371 -3.10207,4.04257 -4.29005,6.19287c-0.43622,0.78959 -0.78798,1.62883 -1.20838,2.42664c2.50022,1.71009 5.11909,3.51269 6.46604,6.17451z" fill="#000000" stroke="none" stroke-width="0.5" stroke-linecap="butt"></path><path d="M256.38077,116.9183c0.15959,-0.045 0.26329,-0.10187 0.26329,-0.10187c1.30308,-0.7174 2.76252,-1.12293 4.1049,-1.76375c0.42739,-0.20403 0.70001,-0.6648 1.1289,-0.86566c0.81182,-0.38018 1.83163,-0.1134 2.64945,-0.48053c0.27714,-0.12441 1.0562,-0.73921 1.70844,-1.24641c0.35046,1.88652 0.78058,3.61081 1.33335,5.44656c0.14424,0.47903 0.08481,1.01702 0.2929,1.47197c0.21786,0.47631 1.56415,2.0441 1.89599,2.57458c0.35788,0.57212 1.78669,3.37143 2.12753,3.82847c0.48899,0.65567 1.17255,1.16008 1.70793,1.77845c1.55091,1.7913 2.75897,3.96748 4.2022,5.85874c1.73679,1.20426 2.3924,2.97455 3.87062,4.42436c0.89601,0.87878 1.93492,1.60695 2.80671,2.50976c0.19318,0.20005 1.55801,1.11614 1.07692,1.84302c-0.45763,0.69144 -1.39948,0.89782 -2.06317,1.39483c-1.01332,0.75885 -2.22843,2.0457 -3.37667,2.56861c-1.2293,0.55982 -2.24452,0.14614 -3.43882,-0.02633c-1.22535,-0.17695 -2.5069,-0.00069 -3.70617,-0.30818c-1.50093,-0.38482 -3.00358,-1.03653 -4.51093,-1.4583c-1.55709,-1.08916 -2.5373,-2.4122 -3.82504,-3.80103c-0.87409,-0.94271 -1.95197,-1.68768 -2.87769,-2.57974c-1.82226,-1.75599 -3.04857,-4.50739 -4.10945,-6.73243c-1.09334,-2.29311 -2.71061,-5.51275 -2.49625,-8.19594c0.03771,-0.47208 0.37487,-0.88882 0.41549,-1.36066c0.0934,-1.08479 -0.00065,-2.17865 -0.03645,-3.26853c0.45157,-0.23461 0.60492,-0.7572 0.60492,-0.7572c0.07352,-0.26273 0.15887,-0.51248 0.25109,-0.75281z" data-paper-data="{&quot;noHover&quot;:false,&quot;origItem&quot;:[&quot;Path&quot;,{&quot;applyMatrix&quot;:true,&quot;segments&quot;:[[[394.58114,561.74342],[1.08454,-0.37565],[0,0]],[[390.51834,561.46774],[1.89356,0.99876],[-3.68208,2.73637]],[[379.32053,569.4289],[3.9742,-2.2775],[-1.72863,0.99063]],[[373.62866,571.25325],[1.72249,-1.00127],[-9.79008,5.69088]],[[351.32455,599.50963],[5.30678,-9.27673],[-5.14924,9.00133]],[[337.93544,629.80091],[1.70256,-10.50918],[-0.86492,5.33875]],[[335.91764,645.90003],[1.16379,-5.28166],[-1.71454,7.78111]],[[331.93544,668.19909],[0.03288,-7.99395],[2.15519,6.2222]],[[337.68943,687.26527],[-2.26751,-6.11145],[1.81178,4.88316]],[[345.49158,700.80324],[-2.32558,-4.66042],[2.26665,4.54231]],[[353.62866,712.74675],[-4.88218,-2.90792],[4.56026,2.71618]],[[370.58114,718.25658],[-5.05252,-1.68417],[3.30923,1.10308]],[[380.33633,722.04424],[-3.48742,0.07536],[3.6662,-0.07922]],[[384.12181,713.90306],[-0.22854,1.14738],[1.03138,-5.17807]],[[386.0671,698.18362],[-0.89025,5.20419],[1.46873,-8.58582]],[[392.06456,674.19909],[0,8.89114],[3.07877,-9.52308]],[[402.17162,645.70126],[-2.47508,9.65572],[0.85442,-3.33323]],[[404.22719,635.58501],[-1.0946,3.26225],[0.76299,-2.27393]],[[412.3806,619.08658],[-1.12002,2.60869],[1.0385,-2.41883]],[[416.74675,606.37134],[-1.12446,1.89497],[1.07401,-1.80996]],[[421.13329,601.83006],[-1.31032,1.64697],[5.02141,-6.31156]],[[436.76726,584.16484],[-5.68192,5.73383],[-3.317,-1.03906]],[[428.37134,581.25325],[1.09446,0.65991],[-3.2296,-1.94728]],[[420.37134,573.25325],[3.26041,1.89525],[-1.72249,-1.00127]],[[414.67947,571.4289],[1.72986,0.98849],[-5.4333,-3.10474]],[[398.76393,561.47214],[5.60379,2.78526],[0,0]],[[397.78192,560.80634],[0.53814,0.44387],[-1.05193,0.25726]]],&quot;closed&quot;:true}]}" fill="#a1adff" stroke="none" stroke-width="0.5" stroke-linecap="butt"></path><path d="M209.71351,107.64599c-0.04698,-0.02441 -0.09453,-0.04868 -0.14145,-0.07317c-1.97664,-1.03144 -3.66788,-2.73424 -5.53271,-4.00111c0.335,-0.72819 1.17421,-1.96824 1.39013,-2.10577c0.2841,-0.18095 0.68547,-0.00781 1.00935,-0.10029c0.48929,-0.1397 0.91232,-0.54887 1.41869,-0.59908c0.72276,-0.07168 1.45302,0.02018 2.15641,0.20989c-0.02778,0.07515 -0.03869,0.12406 -0.03869,0.12406c-0.32686,1.42425 -1.09791,2.84509 -1.03121,4.30484c0.03013,0.65929 0.48882,1.17882 0.66079,1.81602c0.03397,0.12586 0.07957,0.29766 0.10869,0.42461z" data-paper-data="{&quot;noHover&quot;:false,&quot;origItem&quot;:[&quot;Path&quot;,{&quot;applyMatrix&quot;:true,&quot;segments&quot;:[[[319.13329,375.83006],[-0.35371,0.41915],[1.79064,-2.12193]],[[323.95238,369.03616],[-2.20709,1.68455],[4.88673,-3.72978]],[[341.14305,362.35762],[-5.70738,2.2841],[0,0]],[[341.66467,362.19541],[-0.3264,0.08412],[-1.03026,-2.8865]],[[337.25161,354.30901],[1.98035,2.32687],[-1.38743,-1.6302]],[[331.83006,350.86671],[1.65589,1.35667],[-1.09612,-0.89805]],[[329.08658,347.6194],[1.3066,0.54841],[-0.99305,-0.4168]],[[318.53172,347.84052],[3.32054,-0.58741],[0.09045,9.4839]],[[317.9642,376.40273],[-1.17242,-9.30607],[0.02783,0.22092]],[[318.04829,377.06552],[-0.02822,-0.22094],[0.36911,-0.40497]]],&quot;closed&quot;:true}]}" fill="#ffffff" stroke="none" stroke-width="0.5" stroke-linecap="butt"></path><path d="M225.4082,115.26248c-0.32915,-0.06845 -0.6557,-0.14858 -0.97705,-0.24362c-1.61827,-0.60312 -2.53962,-1.53661 -4.04976,-2.25933c-2.6508,-1.26861 -5.40343,-2.51574 -8.07609,-3.81833c-0.18109,-0.99925 -0.41697,-2.30983 -0.4301,-2.35608c-0.13197,-0.46504 -0.55535,-0.84698 -0.58498,-1.32948c-0.02731,-0.44472 0.31363,-0.83952 0.42873,-1.26994c0.1872,-0.69999 0.3328,-1.41509 0.49098,-2.12228c1.77644,0.88029 3.51825,2.01919 5.23935,2.42252c1.42002,0.99148 2.90086,1.10775 4.40884,1.90391c0.71039,0.37506 1.13655,0.78696 1.59072,1.1004c0.05137,0.59768 0.07622,1.22817 0.2301,2.078c0.1087,0.6003 0.48081,1.12971 0.65512,1.71433c0.42879,1.43804 0.54781,2.75715 1.07412,4.17991z" data-paper-data="{&quot;noHover&quot;:false,&quot;origItem&quot;:[&quot;Path&quot;,{&quot;applyMatrix&quot;:true,&quot;segments&quot;:[[[341.13329,435.83006],[-3.94366,4.92957],[1.60325,-2.00406]],[[345.46447,429.46447],[-1.81475,1.81475],[2.56915,-2.56915]],[[352.06419,423.71423],[-1.94314,1.61031],[-0.00503,-2.32152]],[[352.03746,415.61092],[0.40626,3.35501],[-0.86239,-7.12181]],[[348.08376,395.91139],[-0.02375,7.28593],[-2.73134,-6.91697]],[[343.94238,372.01133],[1.21505,8.25161],[-2.82408,1.14838]],[[335.44998,375.40333],[2.86869,-1.03081],[-1.76398,0.63385]],[[330.04762,376.96384],[1.472,-1.16045],[-1.59705,1.25904]],[[326.86671,382.16994],[1.29139,-1.57101],[-0.12843,0.15624]],[[319.78216,389.28925],[3.02046,-3.02139],[1.90341,12.36226]],[[325.93544,426.19909],[-1.9685,-12.20529],[1.12144,6.95328]],[[327.8006,445.60206],[-1.79408,-7.04038],[0.44176,1.33879]],[[329.2946,449.56268],[-0.55238,-1.30201],[3.65706,-5.23011]]],&quot;closed&quot;:true}]}" fill="#ffffff" stroke="none" stroke-width="0.5" stroke-linecap="butt"></path><path d="M245.58089,104.09405c-0.21551,0.27515 -0.44394,0.54038 -0.68866,0.78904c-0.3515,0.35717 -0.86351,0.53505 -1.20321,0.90346c-0.86958,0.94309 -1.34654,2.21368 -2.20101,3.17048c-0.75842,0.84925 -1.87823,1.33687 -2.65559,2.16882c-0.72179,0.77247 -1.29931,1.71671 -2.15288,2.34049c-0.58223,0.45997 -1.29802,0.812 -2.03175,0.9225l-0.83837,0.71275c-1.99376,0.31078 -4.01877,0.53414 -5.95936,0.4557c-0.00443,-0.06356 -0.01142,-0.10166 -0.01142,-0.10166l-0.18509,-0.88776c-0.56914,-1.42433 -0.64665,-2.69354 -1.07679,-4.13609c-0.15223,-0.51053 -0.51016,-0.95903 -0.60507,-1.48325c-0.07395,-0.40843 0.01891,-0.83043 0.04511,-1.24699c0.38536,-0.16685 0.79994,-0.43216 1.21046,-0.50786c0.63497,-0.11708 1.31,0.25996 1.88991,-0.02394c1.02908,-0.50378 1.8263,-1.4146 2.49126,-2.34447c0.48087,1.78946 1.2899,3.44184 2.10665,5.21205l1.08665,1.07221c0,0 0.85183,0.82079 1.67286,-0.03856c0.82103,-0.85935 -0.03112,-1.6334 -0.03112,-1.6334l-0.80056,-0.72898c-0.94202,-2.14408 -2.04427,-4.24431 -2.11911,-6.58023c0.47462,-0.63833 0.93381,-1.29558 1.24613,-1.95129c0.56141,-1.17866 0.87061,-2.4662 1.39017,-3.66389c0.42041,-0.96914 0.94144,-3.20532 1.74711,-4.36585c0.44961,0.93168 0.82555,1.90374 1.32256,2.81116c0.5663,1.03394 1.38277,1.9319 1.88972,2.99619c0.26421,0.55468 0.36888,1.19042 0.69505,1.71107c0.63231,1.00933 1.54818,1.82496 2.26154,2.77874l0.9023,1.20685c0,0 0.22991,0.30796 0.60251,0.44269z" data-paper-data="{&quot;noHover&quot;:false,&quot;origItem&quot;:[&quot;Path&quot;,{&quot;applyMatrix&quot;:true,&quot;segments&quot;:[[416.25658,489.41886],[[418.25658,483.41886],[0,0],[1.58735,-4.75254]],[[422.42743,468.97723],[-1.97368,4.60553],[1.0181,-2.37572]],[[426.67545,462.49037],[-1.28427,2.24304],[2.46421,-4.30387]],[[432.50842,448.80324],[-2.21699,4.43628],[1.9457,-3.89342]],[[439.0623,437.50635],[-2.1432,3.78773],[-5.94344,-0.00337]],[[419.78639,441.94174],[4.35824,-0.86973],[-5.38607,1.07484]],[[403.80091,445.93544],[5.42058,-0.8845],[-3.01557,0.49206]],[[394.09792,446.32547],[3.34453,0.11065],[-7.89626,5.85822]],[[376.55469,469.28177],[5.1543,-8.39636],[0,0]],[375.93903,473.77844],[[370.22156,477.93903],[4.93903,0.77844],[-4.93903,-0.77844]],[366.06097,472.22156],[[367.15539,465.86809],[0,0],[4.16206,-7.06706]],[[380.18822,445.98361],[-5.03375,5.95202],[-4.8087,-0.06985]],[[366.2178,443.15444],[4.20852,2.35007],[-2.37159,-1.32431]],[[361.46447,436.53553],[1.92688,1.91451],[-1.24576,-1.23776]],[[356.94686,433.71119],[1.5006,0.93228],[-1.5029,0.90795]],[[352.53553,436.53553],[1.23474,-1.23474],[-1.58477,1.58477]],[[348.86671,442.16994],[1.40007,-1.75008],[-3.95604,4.94505]],[[337.16025,455.7735],[3.55985,-5.38191],[0,0]],[334.53553,458.53553],[[334.21151,458.81812],[0.20911,-0.16768],[4.38065,6.89692]],[[350.06502,478.28176],[-5.85373,-6.14778],[0,0]],[[354.53553,479.46447],[0,0],[2.14083,2.27175]],[[362.58114,484.25658],[-2.98587,-0.91029],[4.20265,1.45568]],[[375.80091,486.06456],[-4.40079,-0.64362],[4.73962,0.69318]],[[389.61092,490.03746],[-4.75403,-0.58623],[5.3561,0.66047]],[[405.80091,490.06456],[-5.34492,-0.74556],[2.08797,0.29125]],[[411.80091,492.06456],[-2.07739,-0.35902],[1.44628,0.24995]],[[416.17435,492.55882],[-1.46782,-0.08549],[-0.42738,-1.6111]]],&quot;closed&quot;:true}]}" fill="#ffffff" stroke="none" stroke-width="0.5" stroke-linecap="butt"></path><path d="M239.86794,90.80769c1.29942,-0.46551 2.637,-0.41062 4.11898,-0.71258c2.12896,0.68017 5.43546,1.05142 6.57342,3.40143c0.78972,1.63084 -1.2969,3.99022 -1.92769,5.15611c-0.60593,1.11993 -1.16658,2.36301 -1.81668,3.53715l-0.85414,-1.13778c-0.66964,-0.89316 -1.54702,-1.6383 -2.13962,-2.58433c-0.2805,-0.4478 -0.34804,-1.00579 -0.57607,-1.48245c-0.53291,-1.11395 -1.37875,-2.0866 -1.97147,-3.16991c-0.53019,-0.96899 -0.91468,-2.0191 -1.40672,-3.00763z" data-paper-data="{&quot;noHover&quot;:false,&quot;origItem&quot;:[&quot;Path&quot;,{&quot;applyMatrix&quot;:true,&quot;segments&quot;:[[[441.49158,453.19676],[2.07905,-4.15573],[-2.32433,4.646]],[[435.32455,467.50963],[2.57366,-4.51266],[-1.10126,1.93095]],[[431.57257,473.02277],[0.8757,-2.04315],[-1.85005,4.31648]],[[427.74342,486.58114],[1.48256,-4.45608],[0,0]],[[425.85164,492.25647],[0,0],[5.61756,-0.56704]],[[442.38908,490.03746],[-5.32429,0.5898],[5.54276,-0.614]],[[464.74675,484.37134],[-3.74502,6.63949],[5.39651,-9.56739]],[[460.74675,453.62866],[2.75191,8.99062],[-4.59644,-4.3996]],[[448.47525,441.12933],[4.72423,3.37644],[-2.23801,4.07068]]],&quot;closed&quot;:true}]}" fill="#ffffff" stroke="none" stroke-width="0.5" stroke-linecap="butt"></path><path d="M213.39786,48.87491c0.9767,0.67722 0.29948,1.65392 0.29948,1.65392l-0.05927,-0.26483c-0.02016,1.10351 -0.14026,2.20922 -0.06626,3.31044c0.03354,0.49916 0.28528,0.98284 0.24177,1.48122c-0.09706,1.11183 -0.87245,2.05518 -1.34896,3.0644c-0.43864,0.92904 -0.75316,1.93036 -1.33052,2.78016c-1.95409,2.81822 -2.93113,5.92645 -4.90731,8.74605c-0.53298,0.76046 -1.14472,1.82794 -2.06037,2.32033c0.50507,0.38102 1.04681,0.65065 2.02448,0.41641c2.71837,-0.65127 1.90472,-1.73965 2.20549,-3.61377c0.00903,-0.05627 0.01839,-0.11274 0.02756,-0.16904c0.76486,-0.23053 1.545,-0.4259 2.35786,-0.47963c3.28252,-0.21702 6.62774,0.14264 9.91541,-0.07825c1.58442,-0.10645 3.19413,-0.20117 4.78921,-0.1433c-0.0462,0.25987 -0.00745,0.47245 -0.00745,0.47245l0.18477,0.88804c0.40582,1.02638 0.90122,2.02706 1.22503,3.0822c0.62127,2.02446 0.00963,4.41367 -0.16646,6.44489c-0.08485,0.97873 -0.13184,1.98151 -0.41084,2.92346c-0.38422,1.29722 -0.63876,2.96611 -1.64609,3.96325c-0.35615,0.35254 -0.85577,0.54353 -1.205,0.90292c-1.50159,1.5453 -2.75035,3.34848 -5.11073,3.77587c-0.71571,0.1296 -2.94141,-0.26668 -3.43572,-0.33822c-5.28459,-0.82153 -9.93065,-3.00787 -14.31039,-6.01723c-1.92642,-1.32367 -4.20005,-4.12047 -3.97145,-6.65649c0.05055,-0.56074 0.44944,-1.03572 0.63634,-1.5668c0.37792,-1.07391 0.69732,-2.17376 1.10023,-3.23855c0,0 0.06232,-0.16511 0.07554,-0.39149c0.77037,-0.45083 1.54807,-0.89034 2.33668,-1.2936c-0.57291,-0.48468 -1.11896,-0.96096 -1.57494,-1.17292c-2.66886,-1.24064 -5.2859,-2.48945 -7.7392,-4.19052c0,0 -0.9767,-0.67722 -0.29948,-1.65392c0.67722,-0.9767 1.65392,-0.29948 1.65392,-0.29948c0.72922,0.50563 1.37421,1.15541 2.17888,1.52947c0.45443,0.21124 0.9909,0.20566 1.44293,0.42199c0.85766,0.41046 1.48187,1.22453 2.34408,1.62533c0.45443,0.21124 0.9909,0.20566 1.44293,0.42199c0.01986,0.0095 2.40347,1.63029 2.50927,1.7212c0.19338,0.16618 0.21887,0.58195 0.47312,0.60105c0.21687,0.01629 0.24724,-0.35786 0.36943,-0.53776c0.49859,-0.73405 0.99442,-1.47008 1.50425,-2.19637c1.09384,-1.55828 1.56302,-3.37135 2.37344,-5.06474c0.05384,-0.11251 1.59117,-2.32174 1.7212,-2.50927c0.52226,-0.73359 0.75431,-1.63547 1.13879,-2.44978c0.44319,-0.93866 1.08552,-1.09586 1.12036,-2.16553c0.04884,-1.49961 -0.20672,-3.16053 -0.17842,-4.70988l0.4825,-1.04619c0,0 0.67722,-0.9767 1.65392,-0.29948z" fill="#ffffff" stroke="none" stroke-width="0.5" stroke-linecap="butt"></path><path d="M277.67838,101.02599c0.56479,-1.0161 1.0456,-2.04993 1.40423,-2.99898c0.16565,-0.23538 0.3414,-0.47467 0.52253,-0.71592c2.11001,-1.28815 4.49494,-2.24936 6.22867,-4.03404c0.99515,-1.02439 1.49952,-2.52362 2.47142,-3.56309c0.86218,-0.92213 1.68208,-1.9033 2.53749,-2.83171c0.75922,-0.82402 1.77265,-1.38822 2.61551,-2.12647c1.78119,-1.56011 3.58576,-3.34723 5.53373,-4.69446c0.85542,-0.59162 1.84602,-1.0103 2.60115,-1.72549c1.7365,0.71845 1.93704,3.37214 1.79186,4.99587c-0.34873,3.90016 -3.0818,6.6762 -3.85764,10.47622c-0.35265,1.72723 -0.36169,2.39017 -0.36643,4.05956c-0.00051,0.17954 0.27303,1.62379 -0.30197,1.91081c-0.7018,0.35032 -1.5827,0.11439 -2.33437,0.33853c-0.51053,0.15223 -0.96049,0.50698 -1.48416,0.60491c-1.04692,0.19579 -2.13826,-0.06209 -3.20315,-0.08155c-2.73344,-0.0413 -5.40678,0.73264 -8.11472,0.76874c-0.70863,0.00945 -1.39757,-0.31462 -2.10618,-0.30426c-0.64472,0.00944 -1.25642,0.37163 -1.9011,0.35984c-0.50104,-0.00917 -0.94356,-0.39249 -1.44374,-0.42332c-0.19062,-0.01175 -0.38916,-0.01668 -0.59313,-0.01518z" data-paper-data="{&quot;noHover&quot;:false,&quot;origItem&quot;:[&quot;Path&quot;,{&quot;applyMatrix&quot;:true,&quot;segments&quot;:[[[505.25325,598.37134],[-0.41632,-0.68716],[1.09241,1.80308]],[[507.25325,604.37134],[-1.16936,-1.75415],[1.50461,2.25704]],[[513.05621,610.07645],[-1.5781,-2.20628],[1.73451,2.42495]],[[517.05621,618.07645],[-1.73134,-2.42721],[6.61606,9.27524]],[[539.16025,644.2265],[-6.40962,-9.54894],[2.48542,3.72813]],[[546.53553,655.46447],[-3.18645,-3.15005],[1.59384,1.57564]],[[552.16994,659.13329],[-1.75008,-1.40007],[2.57671,2.06137]],[[558.91342,666.3806],[-2.8934,-1.58648],[2.37064,1.29984]],[[566.2265,662.83975],[-0.62194,0.42863],[5.78272,-3.98531]],[[581.08658,654.3806],[-6.81666,2.92125],[14.99708,-6.42693]],[[626.49037,642.67545],[-14.31945,8.14358],[5.96148,-3.39034]],[[639.46447,624.53553],[1.67879,7.72561],[-4.28273,-0.89622]],[[627.26527,619.68943],[4.09586,1.53915],[-9.32715,-3.50497]],[[597.78732,611.85071],[9.6633,2.41809],[-4.57269,-1.14425]],[[584.19909,607.93544],[4.66873,0.64947],[-5.26022,-0.73175]],[[568.38908,605.96254],[5.25473,0.77022],[-5.9234,-0.86824]],[[550.19909,605.93544],[5.927,0.9848],[-10.32593,-1.71571]],[[521.33671,594.0555],[9.51131,4.20678],[-1.26825,-0.04788]],[[517.61092,593.96254],[1.21083,0.00842],[-4.14069,1.03517]],[[503.88318,596.28594],[4.86669,-0.48315],[0.4941,0.70157]]],&quot;closed&quot;:true}]}" fill="#a1adff" stroke="none" stroke-width="0.5" stroke-linecap="butt"></path><path d="M278.85806,87.87863c-1.34694,-2.66182 -3.97189,-4.47131 -6.47211,-6.1814c0.4204,-0.79781 0.77137,-1.63853 1.20759,-2.42812c1.18798,-2.15031 2.88493,-4.17465 4.28814,-6.19836c1.17839,-1.69949 2.26356,-3.81842 3.67126,-5.33134c3.55648,-3.82232 7.81614,-6.39506 12.34023,-8.88575c1.76725,-0.58396 3.58504,-1.48687 5.46348,-1.64196c3.429,-0.2831 6.73643,0.13333 10.1737,0.19838c1.11791,0.02116 2.24126,0.1597 3.35498,0.06067c0.40143,-0.03569 0.80593,-0.43552 1.1768,-0.27781c0.24712,0.10509 -0.40402,0.35478 -0.61942,0.51515c-0.32553,0.24238 -0.68499,0.43837 -1.00172,0.69215c-0.90032,0.72138 -1.78724,1.45952 -2.67726,2.19357c-0.46365,0.3824 -0.83536,0.8823 -1.3448,1.20115c-0.52442,0.32822 -1.21881,0.34175 -1.71344,0.71333c-0.41207,0.30956 -0.52518,0.90577 -0.90463,1.25455c-1.27137,1.1686 -1.64281,1.07344 -3.16957,1.44291c-2.37033,2.01139 -5.11415,3.53895 -7.44774,5.57761c-3.70814,3.23949 -6.97301,6.85406 -10.23228,10.49146c-0.43603,0.48662 -1.03996,0.80378 -1.47485,1.29139c-0.72834,0.81662 -1.0976,1.92147 -1.86513,2.70137c-0.67613,0.68703 -1.46714,1.28077 -2.01639,2.07291z" data-paper-data="{&quot;noHover&quot;:false,&quot;origItem&quot;:[&quot;Path&quot;,{&quot;applyMatrix&quot;:true,&quot;segments&quot;:[[[555.80091,570.06456],[0,0],[4.05518,0]],[[567.80091,572.06456],[-3.99594,-0.69058],[4.5361,0.78393]],[[581.61092,572.03746],[-4.5691,-0.56044],[2.72829,0.33465]],[[589.61092,574.03746],[-2.72751,-0.34094],[20.38799,2.54851]],[[650.28334,584.1675],[-20.08836,-5.05418],[12.64192,3.18067]],[[687.35917,596.59156],[-12.63567,-3.37304],[4.93713,4.39261]],[[699.94554,604.09022],[-7.08768,-1.59407],[2.11535,0.47576]],[[706.44892,604.21454],[-2.05796,-0.68254],[2.47032,0.81931]],[[713.02277,608.42743],[-2.39179,-1.0262],[2.32352,0.99691]],[[720.39794,610.1994],[-2.43343,-0.68626],[4.67121,1.31734]],[[734.39794,614.1994],[-4.6521,-1.3833],[1.63659,0.48664]],[[739.19188,616.00368],[-1.61829,-0.54441],[1.07076,0.36022]],[[742.45744,616.91072],[0.22907,1.10626],[-0.34378,-1.66023]],[[738.67545,613.50963],[1.08568,1.30224],[-3.0121,-3.61294]],[[730.83975,601.7735],[2.60665,3.91554],[-8.01468,-12.03912]],[[707.13329,566.16994],[9.19849,11.17597],[-5.03903,-6.12232]],[[688.37134,551.25325],[6.25516,4.70984],[-19.45555,-9.67001]],[[628.19909,529.93544],[21.7397,3.13274],[-8.60484,-1.23998]],[[601,530],[8.70017,0],[-10.35997,0]],[[569.30642,530.01371],[10.28171,-1.04752],[-3.77542,0.38465]],[[558.02047,531.65312],[3.7659,-0.45906],[0.08129,12.74299]],[[552.17412,568.80835],[5.97355,-11.03733],[0,0]]],&quot;closed&quot;:true}]}" fill="#a1adff" stroke="none" stroke-width="0.5" stroke-linecap="butt"></path><path d="M222.8534,104.08007c-1.57679,-0.79733 -2.97451,-0.91372 -4.43868,-1.92215c-3.65466,-0.92554 -6.83995,-4.04546 -10.8521,-3.72025c-0.63204,0.05123 -1.17514,0.48154 -1.78132,0.6677c-0.53676,0.16484 -1.13027,0.0524 -1.59594,0.36614c-0.52061,0.35075 -0.77777,0.98548 -1.14646,1.49354c-0.34194,0.4712 -0.72311,0.97417 -1.0091,1.51967c-0.32585,-0.07462 -0.70758,-0.09779 -1.00492,-0.24535c-0.99365,-0.49313 -1.73484,-1.41915 -2.73544,-1.89801c-0.45203,-0.21633 -0.98868,-0.21129 -1.4431,-0.42253c-1.2671,-0.58901 -2.60587,-1.82727 -3.74215,-2.61514c-1.29763,-0.89975 -3.02372,-1.75218 -4.15011,-2.86069c-1.14354,-1.12539 -2.03731,-2.01143 -3.39308,-2.9515c-1.2323,-0.85445 -2.02588,-1.4226 -2.97115,-2.56572c-0.20815,-0.25172 -0.62477,-0.38162 -0.68297,-0.70303c-0.0582,-0.32141 0.2858,-0.58953 0.39324,-0.89799c0.42446,-1.21864 0.46431,-2.62618 1.40268,-3.60182c0.45293,-0.47092 1.02996,-0.81355 1.47433,-1.29255c1.75645,-1.89336 3.45803,-4.06094 5.56418,-5.63565c0.95826,-0.71646 2.08148,-1.19502 3.03908,-1.91236c0.46089,-0.25175 0.9647,-0.49691 1.42411,-0.76578c-0.4305,1.07463 -0.82273,2.18605 -0.89327,3.01311c-0.22394,2.62547 1.16892,4.59406 2.63437,6.53148c2.4699,3.26539 6.12911,4.50839 9.67482,6.18511c0.43684,0.20658 0.75538,0.61792 1.19329,0.82223c2.02631,0.94543 4.58916,1.32667 6.76884,1.66813c1.09334,0.15585 3.01361,0.54584 4.1599,0.33828c2.86932,-0.51955 4.53217,-2.56127 6.38911,-4.46943c0.74955,-0.77023 1.72564,-1.40088 2.21739,-2.35653c1.11603,-2.16886 1.50581,-4.53507 1.71375,-6.89896c0.20889,-2.37469 0.78006,-4.86927 0.09234,-7.2301c-0.02283,-0.0784 -1.24149,-3.15817 -1.29727,-3.29924l-0.04217,-0.31278c0.55831,0.08833 1.11503,0.20535 1.66516,0.35819c2.27954,-0.41276 4.51218,0.54549 6.81106,0.74667c0.49159,0.04302 0.97595,-0.23429 1.46826,-0.20034c2.32074,0.16005 4.72857,1.3265 6.89653,2.03822c1.13774,0.3735 2.42117,0.24939 3.52263,0.71921c0.4252,0.18137 0.70444,0.63191 1.13586,0.79797c0.77795,0.29944 1.6404,0.32494 2.43467,0.57794c1.22861,0.39137 2.27544,1.22219 3.44358,1.76821c3.37225,1.57627 6.6113,2.88512 9.71971,5.02321c1.87593,0.81316 3.50414,1.8602 5.13656,2.98487c0.03527,0.02932 0.07329,0.05827 0.1142,0.08663c0.04241,0.0294 0.08426,0.05575 0.12551,0.07914c0.60273,0.41775 1.20791,0.8463 1.82802,1.27627c2.11177,1.46426 4.77625,3.34915 5.18567,6.06792l0.88294,1.03634c0,0 0.92921,0.67506 1.60643,-0.30164c0.32148,-0.46365 0.27024,-0.85925 0.12771,-1.14752c0.01953,-0.01291 0.02997,-0.02073 0.02997,-0.02073l1.34653,-1.02705c0.0293,-0.04225 0.05931,-0.08387 0.08998,-0.125l0.07866,-0.02295c-0.96195,1.41585 -1.01902,2.7695 -1.75259,4.22516c-0.41984,0.83311 -1.0442,1.66513 -1.65887,2.47269c-0.37326,0.22831 -0.73565,0.46823 -1.08077,0.72567c0,0 -0.88296,0.66193 -0.31085,1.56087c-0.49768,1.14895 -1.14885,2.38402 -1.88811,3.50757c-0.38177,0.06088 -0.75046,0.1252 -1.0935,0.18592l-0.66161,0.11995c0,0 -1.16977,0.21261 -0.95801,1.38211c0.08942,0.49383 0.34949,0.7417 0.62028,0.8629c-0.76667,0.67173 -1.68884,1.17709 -2.38539,1.92254c-0.64772,0.6932 -1.32487,1.36035 -1.98564,2.04114c-0.31194,0.32138 -0.40586,0.8304 -0.7524,1.11414c-0.49969,0.40915 -1.16497,0.56511 -1.71361,0.90584c-0.79799,0.49559 -1.38428,1.3242 -2.23917,1.71352c-0.81582,0.37152 -1.82608,0.12002 -2.647,0.48014c-0.48417,0.2124 -0.80288,0.71054 -1.28001,0.93832c-0.04365,0.02084 -0.12364,0.01065 -0.16751,0.03103c-0.25257,-1.07213 -1.32717,-0.84006 -1.32717,-0.84006c-1.32416,0.23977 -2.79841,0.35836 -4.08525,0.747c-0.48712,0.14711 -0.90043,0.55128 -1.40752,0.59351c-0.66821,0.05565 -1.31781,-0.31798 -1.98828,-0.30948c-0.68733,0.00872 -1.34486,0.32882 -2.03146,0.36195c-1.93045,0.09312 -2.78889,-0.45981 -4.76916,-0.30964c-1.28766,0.09764 -2.50633,0.66993 -3.78798,0.82788c-0.26059,0.03211 -0.53847,0.02229 -0.80382,0.06023c0.40857,-0.467 0.79457,-0.9568 1.21349,-1.41143c0.79198,-0.85949 1.92451,-1.35572 2.70566,-2.22506c0.83727,-0.93179 1.27756,-2.17511 2.13315,-3.0901c0.34227,-0.36603 0.85467,-0.53908 1.20214,-0.90017c1.85072,-1.92327 2.90841,-4.51711 4.13481,-6.78739c1.15002,-2.12888 3.15022,-4.5309 1.99362,-7.18227c-1.44069,-3.30261 -5.59665,-3.97992 -8.60113,-4.8003c-2.68894,0.4389 -5.02147,0.23959 -7.30633,2.16354c-1.04938,0.88363 -1.37515,2.36565 -1.85781,3.54319c-0.76553,1.86764 -1.45075,3.9362 -2.29582,5.74569c-0.21964,0.4703 -0.53052,0.93996 -0.86852,1.40212c-0.33699,0.17197 -0.4871,0.48713 -0.55293,0.72593c-0.32503,0.41764 -0.64956,0.82591 -0.92334,1.21985c-0.39826,0.57302 -1.43134,2.16493 -2.02052,2.42827c-0.45461,0.2032 -1.00261,-0.1819 -1.49296,-0.09517c-0.41741,0.07383 -0.76666,0.38785 -1.16015,0.53894c-0.14256,-0.37503 -0.32011,-0.77457 -0.53101,-1.31292c0,0 -0.4392,-1.10634 -1.54446,-0.66933c-0.39442,0.15595 -0.59277,0.39679 -0.68433,0.64234z" data-paper-data="{&quot;noHover&quot;:false,&quot;origItem&quot;:[&quot;Path&quot;,{&quot;applyMatrix&quot;:true,&quot;segments&quot;:[[[365.7735,414.83975],[-1.48459,-0.98973],[4.16025,2.7735]],[[367.16025,421.7735],[0,0],[-1.35563,2.0196]],[[363.89285,426.75084],[0.95479,-1.39184],[1.4656,0.99816]],[[368.53553,429.46447],[-1.25582,-1.26607],[1.47528,1.48732]],[[371.7822,434.84556],[-1.79227,-1.08458],[2.32275,1.4056]],[[385.01568,436.00002],[-2.93572,-0.00325],[2.01817,0.00223]],[[391.44281,436.26239],[-2.22298,-0.12256],[0.98335,-0.34485]],[[395.27527,436.42998],[-1.40236,-0.75279],[2.40801,0.06069]],[[402.19909,436.06456],[-2.15239,0.36805],[8.28145,-1.41609]],[[427.51999,430.1983],[-8.29184,1.83041],[5.22795,-1.15406]],[[444.14876,428.13376],[-5.57035,-1.50971],[12.12852,3.28715]],[[469.25325,448.37134],[-7.96311,-8.24402],[4.36588,12.35353]],[[473.25325,489.62866],[7.96416,-12.89748],[-6.39373,10.35427]],[[443.61092,499.96254],[10.11665,-1.1274],[-10.78859,1.20228]],[[410.19909,501.93544],[11.08548,1.78789],[-2.08129,-0.33568]],[[404.19909,499.93544],[2.08588,0.30586],[-5.21425,-0.76459]],[[388.38908,499.96254],[5.2284,0.66096],[-4.87797,-0.61666]],[[374.19909,495.93544],[4.86986,0.67769],[-2.57594,-0.35847]],[[366.4056,495.11988],[2.59391,0.29306],[0.76726,0.82639]],[[368.66144,497.59503],[-0.73568,-0.82391],[3.61836,4.05228]],[[380.59178,508.69857],[-3.42427,-4.21757],[5.26615,6.48616]],[[390.94103,525.92294],[-4.94946,-6.45065],[1.76033,2.29425]],[[397.05621,532.07645],[-1.67775,-2.35531],[1.63659,2.29752]],[[400.74839,539.69099],[-1.79417,-2.1767],[1.36157,1.65186]],[[406.16994,543.13329],[-1.67628,-1.33139],[4.42831,3.5172]],[[418.53553,555.46447],[-4.0031,-4.0031],[0,0]],[[418.79214,562.2654],[3.1011,-3.44323],[0.1756,0.10282]],[[419.32053,562.5711],[-0.17668,-0.10096],[1.93119,1.10354]],[[425.62866,564.74675],[-1.89492,-1.16472],[3.21285,1.9748]],[[433.62866,572.74675],[-3.24005,-1.92984],[3.39519,2.02224]],[[444.91342,576.3806],[-3.62621,-1.57079],[2.4931,1.07995]],[[452.14876,580.13376],[-2.61232,-0.74674],[1.81163,0.51786]],[[457.80091,580.06456],[-1.85884,-0.30802],[3.93753,0.65246]],[[469.61092,582.03746],[-3.94921,-0.57758],[4.24688,0.62111]],[[481.96953,585.67699],[-4.1601,-1.04029],[-0.23009,-1.22672]],[[483.46447,581.46447],[-1.4929,1.4929],[3.53553,-3.53553]],[490.53553,581.46447],[[492.53553,583.46447],[0,0],[1.0322,1.0404]],[[495.79851,586.79955],[-1.12561,-1.17389],[5.65642,-0.13755]],[[512.44293,584.92207],[-5.16512,1.03359],[1.73636,-4.13276]],[[518.58114,582.25658],[0,0],[1.7173,0.57603]],[[523.67894,584.2543],[-1.68406,-0.74312],[4.26529,0.18918]],[[536.19909,584.06456],[-3.88662,0.54562],[6.79092,-0.95334]],[[555,580],[-7.20074,0.06836],[0,0]],[[554.84714,579.94669],[0,0],[-0.21571,-0.0074]],[[554.19909,579.93544],[0.21633,0],[0,0]],[547.41886,577.74342],[[547.2753,577.68949],[0.09146,0.03656],[-0.65493,1.18375]],[[543,580],[2.37356,0],[-5,0]],[538,575],[[539.46447,569.46447],[0,0],[8.4178,-7.93268]],[[548,537],[0,10.81075],[0,-3.17451]],[[548.02746,527.62341],[0.0006,3.08513],[-0.01803,-0.19865]],[[548,527],[0,0.21709],[0,-0.20941]],[[548.02558,526.39773],[-0.01681,0.19223],[-0.02494,-8.3395]],[[546.02433,501.49269],[1.6856,8.43466],[-0.05956,-15.87158]],[[540.07659,455.87181],[2.63427,15.43697],[-0.9125,-5.3473]],[[537.93041,439.74015],[1.5921,5.1857],[-1.02925,-3.3524]],[[534.09022,429.94554],[0.82962,3.4073],[-0.46007,-1.88953]],[[534.12509,424.11143],[0.39225,1.90477],[-1.01611,-4.93418]],[[528.16611,410.22266],[1.43605,4.8287],[-2.73638,-9.20106]],[[518.68535,381.52661],[5.00979,8.40682],[-1.06275,-1.78337]],[[514.47533,376.93702],[1.02969,1.80266],[-4.81518,-8.42988]],[[500.74675,351.62866],[6.89132,6.89132],[-0.79034,-2.26827]],[[497.99859,345.01887],[1.03297,2.1419],[0,0]],[[497.16025,345.7735],[0,0],[-0.35401,0.53101]],[[488.86671,358.16994],[0.2163,-0.26689],[-6.51324,8.03674]],[[463.50963,375.32455],[8.71046,-4.97025],[-8.67082,4.94763]],[[435.61092,385.96254],[10.17337,-1.34074],[-4.48262,0.59076]],[[422.19909,383.93544],[4.45959,0.74499],[-11.04816,-1.84563]],[[391.46447,372.53553],[8.6743,8.6743],[-3.46538,-3.46538]],[[382.5143,357.20873],[2.08207,4.15344],[-4.04451,-8.35401]],[[372.06456,329.80091],[1.58885,9.27159],[-0.34336,-2.00366]],[[372.04957,323.70234],[0.33299,2.00541],[-2.7028,-16.27744]],[[370.25658,275.41886],[-5.36831,16.36639],[3.18514,-9.71054]],[[386.53651,250.649],[-9.6135,5.51939],[3.02837,-1.73868]],[[399.10236,246.51239],[-4.74713,1.08775],[-2.03079,-0.94375]],[[393.08658,243.6194],[1.97517,0.9899],[-4.77548,-1.59099]],[[379.19662,237.69514],[4.774,1.59542],[-10.49273,-3.50655]],[[346.38908,231.96254],[10.75609,1.53372],[-2.72121,-0.38802]],[[338.38908,229.96254],[2.71378,0.43701],[-5.62235,-0.90538]],[[322.58114,233.74342],[5.23055,-1.4538],[-1.32395,0.36798]],[[318.53553,234.53553],[0.97166,-0.97166],[-0.97166,0.97166]],[[317.74342,238.58114],[0.37128,-1.32303],[-1.68604,6.00814]],[[316,255],[0,-6.30849],[0,6.94059]],[[313.93544,273.80091],[1.14945,-6.65109],[-1.13221,6.55136]],[[314,295],[0,-6.64294],[0,5.81693]],[[313.93544,314.19909],[-1.00107,-5.79251],[0.35902,2.07739]],[[315.93544,320.19909],[-0.33568,-2.08129],[0.74305,4.60713]],[[315.93544,334.19909],[-0.67705,-4.61729],[0.20261,1.38171]],[[317.32563,338.15688],[-0.52312,-1.30541],[2.57146,-0.31893]],[[325,338],[-2.4487,-0.05259],[2.64025,0.05671]],[[332.91342,338.3806],[-2.46055,-0.95906],[2.20091,0.85785]],[[338.16994,343.13329],[-1.85655,-1.46052],[2.09666,1.64941]],[[344.74839,347.69099],[-1.69221,-2.06227],[10.74193,13.09105]],[[357.91624,394.08861],[-5.56097,-14.85341],[0.0235,7.47923]],[[361.91252,414.01532],[-1.02328,-7.36253],[1.06839,-0.27206]]],&quot;closed&quot;:true}]}" fill="#a1adff" stroke="none" stroke-width="0.5" stroke-linecap="butt"></path><path d="M218.27968,77.01373c0.10123,0.1634 0.19907,0.34135 0.29082,0.53966c0.18822,0.40678 0.05514,0.91463 0.23958,1.32314c0.20621,0.45673 0.70502,0.7422 0.90115,1.20335c0.37162,0.87379 0.52908,3.29728 0.17666,4.05334c-0.28577,0.61305 -0.99771,0.91884 -1.54888,1.31089c-0.60022,0.42694 -1.15784,1.11588 -1.89408,1.13814c-0.50847,0.01538 -2.6815,-1.59777 -3.1907,-1.95804c-1.03066,-1.36882 -2.47218,-3.33937 -2.10757,-5.22802c0.10693,-0.55389 0.59463,-0.9589 0.90161,-1.43216c0.11835,-0.18245 0.43319,-0.32525 0.37408,-0.53454c-0.05253,-0.18602 -0.37993,-0.07622 -0.56359,-0.13646c-0.58222,-0.19096 -1.30317,-0.17851 -1.73177,-0.61639c-1.33589,-1.3648 -1.6237,-4.32779 -0.62368,-5.91548c0.30013,-0.4765 0.92005,-0.65692 1.32444,-1.04885c0.46484,-0.45054 0.64779,-1.29573 1.27192,-1.46759c0.77059,-0.21218 1.6069,0.17891 2.35132,0.4699c2.60894,1.01979 4.0415,4.51222 4.50165,6.99734c0,0 0.17517,0.96738 -0.67296,1.30181z" fill="#ff0000" stroke="none" stroke-width="0.5" stroke-linecap="butt"></path><path d="M213.48956,51.90526c0.71242,0.95133 -0.23891,1.66375 -0.23891,1.66375l-1.06016,0.77475c-1.02861,1.52353 -2.08215,3.02982 -3.12958,4.54045c-0.50563,0.72922 -1.15112,1.37621 -1.52947,2.17888c-0.85101,1.80543 -1.25365,4.12934 -1.90432,6.02751c-0.59712,1.74196 -1.17421,3.44959 -3.0903,4.22854c-2.1715,0.88277 -3.18477,-0.36532 -4.81923,-1.49862c-2.41598,-1.67519 -4.37681,-3.6133 -6.76134,-5.26669c0,0 -0.9767,-0.67722 -0.29948,-1.65392c0.67722,-0.9767 1.65392,-0.29948 1.65392,-0.29948c2.39807,1.66277 4.34288,3.58977 6.76134,5.26669c0.60186,0.41732 1.69998,1.73488 2.5152,1.27289c1.61169,-0.91336 1.93265,-3.03452 2.47858,-4.6373c0.48683,-1.42926 0.67569,-3.09975 1.32049,-4.46367c0.05179,-0.10954 1.59299,-2.32436 1.72121,-2.50927c1.11978,-1.61496 2.23669,-3.2316 3.37177,-4.83586l1.34653,-1.02755c0,0 0.95133,-0.71242 1.66375,0.23891z" fill="#c1c1c1" stroke="none" stroke-width="0.5" stroke-linecap="butt"></path></g></g></svg>