<svg version="1.1" xmlns="http://www.w3.org/2000/svg" xmlns:xlink="http://www.w3.org/1999/xlink" width="219.95414" height="206.73441" viewBox="0,0,219.95414,206.73441"><g transform="translate(-253.01548,-157.28328)"><g data-paper-data="{&quot;isPaintingLayer&quot;:true}" fill-rule="nonzero" stroke="none" stroke-width="0.5" stroke-linecap="butt" stroke-linejoin="miter" stroke-miterlimit="10" stroke-dasharray="" stroke-dashoffset="0" style="mix-blend-mode: normal"><path d="M313.97704,196.99949c-0.34557,-3.98269 -0.49629,-7.98632 -0.23644,-12.07179c0.28692,-4.51113 1.48159,-9.14539 1.96325,-13.65536c0.66061,-6.18551 2.68211,-16.75631 11.78708,-12.81099c2.15495,0.93377 5.37297,4.21631 7.23317,6c2.48536,3.09814 4.42234,6.3364 6.61001,9.61774c3.1024,4.65336 6.81083,9.02797 9.8094,13.7355c1.84223,2.89216 3.89576,6.49583 5.49572,9.49232c0.24202,0.45326 0.50288,0.90742 0.73941,1.37096c0.5693,-1.1551 1.44228,-2.35572 1.94157,-3.35459c3.54941,-7.10079 7.50121,-14.00264 11.0289,-21.07439c3.1774,-5.29567 5.91958,-9.94748 10.31711,-14.36986l0.13004,-0.05876l-0.02447,-0.03059l2.43267,-1.94614c0.43024,-0.35027 0.97924,-0.56027 1.57729,-0.56027c1.38071,0 2.5,1.11929 2.5,2.5v2.93787l-0.40913,0c0.69295,5.79883 0.0056,11.38167 -0.54526,17.52269c-0.69758,7.77674 -1.11785,15.62844 -1.99766,23.38372c-0.56403,4.9718 -0.89771,9.68485 -0.93909,14.70074c-0.01371,1.66204 0.24319,3.34561 -0.02315,4.98623c-0.07773,0.47881 -1.39437,1.31335 -0.96341,1.09068c1.14482,-0.59149 1.69933,-1.94473 2.65044,-2.81413c2.92365,-2.67249 6.29973,-4.73129 9.51245,-7.02628c12.14098,-9.10269 25.47732,-16.66724 38.35463,-24.59157c2.71414,-1.67021 5.06698,-3.52776 8.12451,-4.56078c1.62376,-0.5486 3.40318,-2.29846 4.91872,-1.49803c5.07215,2.67883 1.70675,7.66266 0.22628,10.41955c-3.38886,6.31061 -8.16489,12.00922 -12.12807,17.95484c-3.45392,5.72652 -7.09939,11.40803 -10.95459,16.87342c-1.46854,2.0819 -2.60978,4.44888 -4.32437,6.31861c3.21707,-0.73473 7.83162,0.14564 10.55541,0.14564c11.37481,0 23.66895,-0.51432 34.57607,3.06616c2.49518,0.88254 6.34649,1.53887 6.60588,5.30958c0.03566,0.51837 -4.77,6.33967 -5.23585,6.756c-3.34601,2.99029 -8.35908,4.43576 -12.37056,6.28414c-3.36321,1.54967 -6.44712,3.46211 -9.85997,4.92637c-2.96683,1.2729 -5.86201,2.65199 -8.82632,3.92257c-0.86163,0.36931 -1.67847,0.87991 -2.5238,1.29626c1.28201,0.763 2.42475,2.02922 2.87454,2.51288c2.37681,2.5558 4.7831,5.72621 6.99473,8.48413c9.14915,11.43738 17.94336,22.80337 28.29329,33.17175l0.0483,0.10722l0.0262,-0.02183l2.43772,2.92526c0.36806,0.43538 0.58995,0.99831 0.58995,1.61307c0,1.38071 -1.11929,2.5 -2.5,2.5c-0.25848,0 -0.5078,-0.03923 -0.74232,-0.11205l-3.37199,-0.96343l0.00232,-0.00812c-0.01813,-0.00241 -0.03625,-0.00487 -0.05438,-0.00737c-4.15069,-0.57295 -7.55706,-3.25221 -11.17146,-5.05887c-4.80077,-2.39967 -9.50837,-4.81854 -14.24122,-7.36639c-4.16622,-2.24282 -8.4302,-4.13418 -12.67358,-6.14402c1.26454,2.58225 2.20743,5.17972 3.40305,7.81214c4.05213,8.92162 9.27947,17.08604 13.66622,25.86367c2.50411,5.01058 4.40013,10.24087 6.47609,15.43075l-0.00178,0.078l0.02603,-0.00868l0.96084,2.88251c0.09499,0.2642 0.14675,0.54902 0.14675,0.84593c0,1.38071 -1.11929,2.5 -2.5,2.5c-0.76522,0 -1.45014,-0.3438 -1.90872,-0.88536l-2.87076,-3.34921c-2.8425,-2.21556 -4.51176,-5.31239 -7.17038,-7.66444c-3.28682,-2.90782 -6.8332,-5.49568 -10.20021,-8.25343c-2.53898,-2.07956 -4.6876,-4.86684 -7.31608,-6.83194c-2.82887,-2.11491 -5.9109,-3.89515 -8.9499,-5.64067c-0.85933,-0.49358 -2.11184,-1.87402 -2.75418,-1.11939c-2.86462,3.36537 -3.20397,9.12943 -3.89906,13.24057c-2.80866,8.42598 -3.23784,18.08029 -8.55212,25.56036c-1.20546,1.69674 -1.99029,4.66577 -4.0705,4.73493c-4.3077,0.14322 -4.75905,-6.8328 -5.41272,-9.10537c-2.05424,-7.1418 -5.25669,-13.9642 -7.35633,-21.09358c-1.49219,-5.06677 -2.19657,-10.26302 -3.47483,-15.36889c-0.10197,-0.61939 -0.28291,-1.52178 -0.33782,-2.34144c-1.24658,0.81418 -2.80425,1.25699 -3.91228,2.2622c-2.12886,1.9313 -3.81016,4.30951 -5.84223,6.3424c-4.36512,4.36687 -8.86191,8.65549 -13.57164,12.65504c-5.33135,4.52744 -10.86515,8.98386 -14.33023,15.13195l-0.02217,0.01771l0.00861,0.00517l-1.44536,2.40893c-0.43183,0.74893 -1.24069,1.25305 -2.16731,1.25305c-1.38071,0 -2.5,-1.11929 -2.5,-2.5c0,-0.11851 0.00825,-0.23509 0.0242,-0.34921l0.48475,-3.87804l0.06004,0.00751c0.00034,-0.11696 0.00284,-0.23405 0.00768,-0.35128c0.05466,-1.32378 1.08127,-2.42104 1.54511,-3.6621c0.89135,-2.3849 1.60737,-4.8317 2.41332,-7.24679c2.63716,-7.90245 5.6892,-15.60497 8.32396,-23.50296c0.78252,-2.34567 1.17489,-4.80707 1.90707,-7.16894c0.22627,-0.72991 0.93796,-1.29303 1.02082,-2.0527c0.02984,-0.27362 -0.48732,-0.32865 -0.76233,-0.31733c-0.99524,0.04095 -2.02402,0.10567 -2.95104,0.47011c-5.3044,2.0853 -10.53001,6.13679 -15.15786,9.37737c-13.42991,9.72014 -24.87223,21.92897 -39.15611,30.53556l-2.41299,1.44779c-0.38339,0.2392 -0.83629,0.37741 -1.32147,0.37741c-1.38071,0 -2.5,-1.11929 -2.5,-2.5c0,-0.34826 0.07121,-0.67989 0.19986,-0.98112l0.95823,-2.39558l0.00528,0.00211c0.00205,-0.01012 0.00413,-0.02023 0.00622,-0.03034c1.10039,-5.32341 6.13428,-10.26967 9.03105,-14.61137c3.56006,-5.33586 6.98737,-10.63046 10.86126,-15.796c2.10768,-2.81044 4.24625,-5.56873 6.39225,-8.35928c0.99497,-1.29381 1.76632,-2.78077 2.93787,-3.91716c0.36869,-0.35762 1.9193,-0.09418 1.49311,-0.38086c-1.47982,-0.99539 -3.56795,-0.21453 -5.32496,-0.52042c-3.08786,-0.53758 -6.84296,-1.40874 -9.90409,-2.08893c-11.53945,-2.56445 -23.22554,-4.55699 -34.90652,-6.29199l-0.26753,-0.20791l-0.04227,0.09862l-3.37456,-1.44624c-0.91919,-0.36945 -1.56816,-1.26922 -1.56816,-2.32056c0,-1.18975 0.83109,-2.18539 1.9444,-2.43804l3.86643,-0.96661l0.01134,0.04534c0.09594,-0.0351 0.19244,-0.06888 0.28954,-0.10126c1.18046,-0.39357 2.48864,-0.01568 3.73297,-0.01873c3.80136,-0.00931 8.09821,0.62862 11.84067,0.03228c3.5234,-0.56143 7.46029,-1.70166 10.87935,-2.84439c4.47528,-1.49574 8.74567,-3.52381 13.26449,-4.91053c1.18881,-0.36482 2.37648,-0.74116 3.58761,-1.02304c-0.12382,-0.05394 -0.22044,-0.09538 -0.28113,-0.11691c-3.72875,-1.32296 -7.15749,-3.13075 -10.89068,-4.45367c-7.64227,-3.81377 -15.67757,-6.92861 -23.52387,-10.29155c-6.09831,-2.61375 -11.86619,-5.82854 -18.04605,-8.29437l-2.39416,-0.95766c-0.94948,-0.35452 -1.62559,-1.26971 -1.62559,-2.34282c0,-1.32366 1.0287,-2.40705 2.33024,-2.49433l4.96329,-0.38179l0.0008,0.0104c0.02331,-0.005 0.04664,-0.00994 0.06998,-0.01483c6.73404,-1.4116 14.57088,0.30231 21.43827,-0.10527c8.36498,-0.49646 16.8951,-1.09925 25.18009,-1.10041c0.18106,-0.00003 -0.28637,-0.22215 -0.42106,-0.34316c-1.00371,-0.9017 -2.018,-1.79244 -2.9936,-2.72448c-0.90521,-0.86478 -1.68419,-1.86417 -2.64706,-2.66426c-3.36975,-2.80009 -7.29939,-5.05585 -10.74895,-7.8155c-6.22486,-4.97989 -11.82844,-10.33489 -15.80033,-17.38182c-2.98599,-5.29774 -4.87853,-10.7602 -8.83043,-15.5432l-2.28168,-1.82535c-0.5823,-0.45772 -0.9563,-1.16848 -0.9563,-1.9666c0,-1.28702 0.97254,-2.3469 2.22282,-2.48481l3.88426,-0.48553l0.00688,0.05507c0.11755,-0.02648 0.2356,-0.05115 0.35419,-0.07385c1.02567,-0.19633 2.05142,0.42368 3.09308,0.49764c4.60622,0.32707 8.81341,0.76609 13.39776,1.49001c9.48653,1.49803 19.37485,2.74689 28.69932,5.41146z" fill="#ffa000"></path><path d="M415.49064,285.40988c-2.23607,-1.11803 -1.11803,-3.3541 -1.11803,-3.3541l0.89417,-1.76902c0.20196,-0.50429 0.37458,-1.06536 0.53371,-1.65788l-0.35904,0.71807c-0.40086,0.84561 -1.26228,1.43041 -2.26029,1.43041c-1.38071,0 -2.5,-1.11929 -2.5,-2.5c0,-0.34826 0.07121,-0.67989 0.19986,-0.98112l0.95823,-2.39558l0.19597,0.07839l0.33468,-0.66935c0.46941,-1.25507 0.93771,-2.51055 1.4083,-3.76517c0.4731,-1.26131 0.94606,-2.52269 1.42281,-3.78263c2.76997,-7.3204 -4.61946,2.23229 -5.43779,3.26411c-0.37471,0.47246 -0.66543,1.02309 -0.97791,1.55088c-0.41786,0.95145 -0.81836,1.91248 -1.18692,2.89053l-0.19563,0.14705l0.08781,0.05268l-1.44536,2.40893c-0.43183,0.74893 -1.24069,1.25305 -2.16731,1.25305c-1.19872,0 -2.20039,-0.84367 -2.44363,-1.96962c-3.30642,1.52339 -7.08284,1.66081 -11.03256,0.38697c-3.44745,-1.11185 -3.74504,-1.91722 -6.12154,-4.27527c-1.17751,-2.00046 -1.79869,-3.71266 -2.12593,-5.50699c-0.5333,0.19041 -1.07721,0.3534 -1.61508,0.5057c-1.78486,0.50537 -5.63443,0.72179 -7.66424,0.57184c-4.22732,-0.31231 -7.00524,-1.58469 -10.82832,-3.23484c-2.61146,-1.74257 -5.4677,-3.89114 -7.5618,-6.52457c-0.86581,0.85981 -2.02659,1.44192 -2.98554,2.21404c-10.58959,1.71931 -22.24328,-0.04267 -32.25696,-3.8817c-2.69309,-1.03247 -9.60122,-3.1669 -9.91766,-6.73674c-0.13925,-1.57097 2.11997,-2.34169 3.06581,-3.60373c0.4943,-0.65955 0.79964,-1.44248 1.23882,-2.13995c2.29412,-3.64331 4.51855,-7.12019 6.60664,-10.74927c0.10135,-0.2903 0.25472,-0.55619 0.44895,-0.78649c0.16893,-0.29837 0.33693,-0.59791 0.50394,-0.89879c-1.06101,-0.41933 -1.45333,-1.59629 -1.45333,-1.59629l-0.59281,-1.90595c-0.30178,-2.20067 -2.61828,-6.68916 -2.47335,-8.67752c0.59684,-8.18827 11.46769,-6.20433 16.87693,-5.43158c4.43248,-0.0101 8.81302,-0.0314 13.15618,1.04672c2.05496,0.51011 4.2207,0.70315 6.15818,1.55713c4.96623,2.18896 11.49875,8.2389 8.12622,14.37541c-1.82239,3.31594 -7.3741,5.22605 -10.56054,6.45374c-0.77579,0.2989 -1.53771,0.57616 -2.28957,0.83138c0.74204,0.57528 1.45944,1.20442 2.14887,1.89341c1.03401,1.03335 2.10052,2.25368 3.05801,3.59494c0.09575,-0.20238 0.19314,-0.41106 0.29169,-0.62737l3.28752,-1.53271c0,0 2.32119,-0.92848 3.24967,1.39272c0.92848,2.32119 -1.39272,3.24967 -1.39272,3.24967l-1.60893,0.42587c-1.60011,6.39386 2.15936,10.2667 7.25731,13.66125c3.14085,1.33507 5.3068,2.40505 8.75748,2.6409c1.64589,0.1125 4.54746,-0.04378 6.04582,-0.40745c1.17684,-0.28563 2.00544,-0.69593 2.56138,-1.201c-0.00033,-0.10022 -0.00056,-0.20126 -0.00072,-0.30318v-2.93787c0,0 0,-0.75102 0.41163,-1.4298c-0.41,-1.06313 -0.9991,-2.17304 -1.57877,-3.25518c-0.36995,-0.69064 -3.03689,-4.55649 -3.70254,-5.06197c-4.8758,-3.70256 -11.97729,-2.67394 -13.76157,3.19284c0,0 -0.79057,2.37171 -3.16228,1.58114c-2.37171,-0.79057 -1.58114,-3.16228 -1.58114,-3.16228c1.21294,-3.42932 0.99275,-4.37216 4.39765,-6.66569c4.76074,-3.20682 12.57491,-2.31766 17.09522,1.04493c1.26829,0.94346 4.29213,5.17526 5.11106,6.68951c0.74327,1.37435 1.47807,2.86178 2.00872,4.37729c2.26989,-1.50985 4.57408,-2.55068 7.51281,-3.18333c1.88733,-0.4063 6.08205,-0.91753 7.9508,-0.47774c1.3377,0.31481 2.54799,1.06392 3.71087,1.79622c1.76769,1.11317 3.00877,2.39279 3.80841,3.77842c0.4825,-0.28356 1.1365,-0.41502 2.00016,-0.12713c1.25534,0.41845 1.62475,1.27985 1.69438,1.99808c2.95275,-0.74681 6.24269,0.04092 7.26902,3.62346c0.26609,0.92882 0.17148,2.1213 -0.13034,3.42773c0.63431,0.38676 1.08283,1.04811 1.18042,1.81888l0.48445,3.39113l-0.03455,0.00494c0.02209,0.1083 0.04201,0.21718 0.05958,0.32669c0.53254,3.31951 -1.4299,7.2576 -2.62694,10.25366l-1.06441,2.14814c0,0 -1.11803,2.23607 -3.3541,1.11803zM388.2212,269.39416c4.51184,4.57147 11.246,4.30616 15.13887,-0.95824c2.77519,-3.75295 4.70074,-7.63073 0.14974,-10.57638c-0.68488,-0.44329 -1.36866,-0.96384 -2.16487,-1.14165c-1.07344,-0.23973 -4.86535,0.3111 -5.75926,0.50155c-3.19004,0.67965 -5.28078,1.90008 -7.77326,3.91395c0,0 -0.05229,0.04183 -0.14659,0.10324c-0.15982,0.77015 -0.44714,1.51785 -0.89126,2.23037c0.00692,2.10218 0.18709,3.89737 1.44663,5.92716zM323.99407,226.84209c0.55456,-0.47783 1.44078,-0.86388 2.65867,-0.25494c2.23607,1.11803 1.11803,3.3541 1.11803,3.3541c-0.31002,0.62004 -0.62244,1.23299 -0.93762,1.84004c5.29766,0.53936 10.67953,1.24556 15.5151,3.25023c2.14157,-0.55218 4.21367,-1.38855 6.2801,-2.1757c2.32033,-0.88387 6.42272,-2.12121 8.04597,-4.31845c1.92035,-2.59939 -4.17043,-6.58664 -5.58384,-7.16897c-5.4444,-2.24313 -12.1052,-2.2809 -17.89866,-2.2926c-2.20933,-0.31562 -4.44609,-0.47041 -6.67781,-0.48336c-1.53472,-0.0089 -3.33711,-0.62848 -4.59762,0.24706c-0.79805,0.55432 0.48422,2.04322 0.55342,2.20021c0.80632,1.8292 1.21436,3.82063 1.52427,5.80238zM341.13451,240.10784c-3.34584,0.50998 -6.73619,0.5254 -10.54376,0.00711c-1.8462,-0.25131 -3.99092,0.35187 -5.54948,-0.66917c-0.21116,-0.13833 -0.41151,-0.28843 -0.60265,-0.44857l-0.04124,0.04812l-1.07096,-0.91797c-1.12308,1.9187 -2.29002,3.81878 -3.5135,5.74279c-1.31253,2.06405 -2.26681,4.88648 -4.49036,5.7631c0.05508,-0.00152 0.10433,0.00058 0.14503,0.00723c0.9327,0.15247 1.82672,0.50398 2.69987,0.86565c2.01734,0.83561 4.01582,1.74471 6.11128,2.35868c8.20942,2.4054 16.64777,3.99738 25.2352,3.04264c3.09447,-2.43521 2.08182,-6.04608 -0.07158,-8.99617c-2.337,-3.20161 -5.16413,-5.33617 -8.30785,-6.80343z" fill="#000000"></path><path d="M415.49064,297.16136c-2.23607,-1.11803 -1.11803,-3.3541 -1.11803,-3.3541l0.64559,-1.24801c4.74612,-7.11604 7.45007,-14.99106 11.661,-22.37727c0,0 1.24035,-2.17061 3.41096,-0.93026c2.17061,1.24035 0.93026,3.41096 0.93026,3.41096c-4.28155,7.47411 -7.03091,15.45042 -11.84196,22.67007l-0.3337,0.71057c0,0 -1.11803,2.23607 -3.3541,1.11803z" fill="#000000"></path><path d="M408.72258,301.29068c0,-1.38071 1.11929,-2.5 2.5,-2.5c1.38071,0 2.5,1.11929 2.5,2.5c0,1.38071 -1.11929,2.5 -2.5,2.5c-1.38071,0 -2.5,-1.11929 -2.5,-2.5z" fill="#000000"></path></g></g></svg>