<svg version="1.1" xmlns="http://www.w3.org/2000/svg" xmlns:xlink="http://www.w3.org/1999/xlink" width="561.56156" height="420.42042" viewBox="0,0,561.56156,420.42042"><g transform="translate(26.51652,18.1982)"><g data-paper-data="{&quot;isPaintingLayer&quot;:true}" fill-rule="nonzero" stroke-linejoin="miter" stroke-miterlimit="10" stroke-dasharray="" stroke-dashoffset="0" style="mix-blend-mode: normal"><path d="M-26.51652,402.22222v-420.42042h561.56156v420.42042z" fill="#000000" stroke="none" stroke-width="0" stroke-linecap="butt"></path><path d="M326.33634,89.15916c0,42.7067 -34.95674,77.32733 -78.07807,77.32733c-43.12133,0 -78.07807,-34.62062 -78.07807,-77.32733c0,-42.7067 34.95674,-77.32733 78.07807,-77.32733c43.12133,0 78.07807,34.62062 78.07807,77.32733z" fill="#cecece" stroke="none" stroke-width="0" stroke-linecap="butt"></path><path d="M262.84378,118.19596c0.13262,0.04429 0.24248,0.09994 0.33324,0.1633c0.07117,-0.03444 0.14179,-0.06909 0.21176,-0.10402c0,0 0.9235,-0.46108 1.41988,0.41539c0.03329,-0.02913 0.06643,-0.05842 0.09941,-0.0879c0.36051,-0.32219 0.51232,-0.8403 0.88295,-1.1508c0.6284,-0.52645 1.57931,-0.56342 2.20031,-1.09857c0.65073,-0.56077 0.95272,-1.43698 1.52628,-2.07647c0.39434,-0.43966 0.9382,-0.74616 1.27204,-1.23334c0.23152,-0.33786 0.18343,-0.80808 0.37493,-1.17013c0.40566,-0.76691 0.82897,-1.52466 1.22,-2.29914c0.4205,-0.83285 1.10045,-1.51139 1.6014,-2.29748c-0.26877,-0.03703 -0.56059,-0.18769 -0.7656,-0.5983c-0.4855,-0.97241 0.4869,-1.45791 0.4869,-1.45791l0.55008,-0.27464c0.28559,-0.14118 0.59277,-0.29187 0.91231,-0.44311c0.36113,-1.17571 0.61646,-2.42491 0.75902,-3.56103c-0.73253,-0.64258 -0.1269,-1.44912 -0.1269,-1.44912c0.23701,-0.31441 0.49374,-0.61745 0.76292,-0.9135c0.33271,-0.86639 0.66787,-1.75555 0.823,-2.59447c0.27105,-1.4658 -0.02516,-2.6669 0.45658,-4.15625l-0.02152,0.02785c-0.01638,0.04396 -0.03205,0.08824 -0.04695,0.13284l-0.91883,1.24701c0,0 -0.00717,0.00955 -0.02101,0.02588c0.19897,0.21655 0.34543,0.5512 0.18199,1.04058c-0.34429,1.0309 -1.37519,0.68661 -1.37519,0.68661l-1.04047,-0.68312c-1.05592,-2.28182 -3.87682,-3.2509 -6.10578,-3.99532c-0.65452,-0.21859 -1.29524,-0.43901 -1.93137,-0.65132c-0.0422,-0.00996 -0.08567,-0.02232 -0.13043,-0.03727c-0.04318,-0.01442 -0.08394,-0.03005 -0.12241,-0.04674c-1.72116,-0.56911 -3.4176,-1.06905 -5.27272,-1.30231c-3.2765,-1.08062 -6.45148,-1.39526 -9.81567,-1.91509c-1.16534,-0.18007 -2.29499,-0.63949 -3.47381,-0.66831c-0.76207,-0.01863 -1.52424,0.1809 -2.28389,0.11733c-0.42126,-0.03525 -0.78074,-0.35863 -1.20048,-0.40892c-1.0873,-0.13026 -2.17945,0.30867 -3.27391,0.27226c-2.0855,-0.06939 -4.4911,-0.47527 -6.56939,-0.02123c-0.44087,0.09632 -0.7936,0.46382 -1.23618,0.55199c-2.06964,0.41232 -4.26803,0.14153 -6.16341,1.08786c-0.52209,0.00676 -1.0393,0.04599 -1.55204,0.11147l0.09786,0.22481c0.0851,0.10956 1.94468,2.50059 1.98481,2.56357c1.20852,1.8963 1.36591,4.2712 1.79088,6.40937c0.42304,2.12844 0.69636,4.29481 0.27227,6.48467c-0.18686,0.96491 -0.88078,1.75749 -1.34147,2.62567c-1.1413,2.15082 -2.08102,4.36071 -4.46678,5.55188c-0.95311,0.47587 -2.77665,0.64668 -3.77638,0.78996c-2.00093,0.25865 -4.34948,0.5781 -6.3705,0.26726c-0.43676,-0.06718 -0.82203,-0.34742 -1.25843,-0.41685c-3.54219,-0.56358 -7.07378,-0.72125 -10.07855,-2.95506c-1.78279,-1.32537 -3.51002,-2.70005 -3.98603,-5.06222c-0.14995,-0.74411 -0.09023,-1.822 0.01238,-2.87567c-0.33442,0.35373 -0.67061,0.70205 -1.01071,1.04113c-0.65687,0.87505 -1.52023,1.58145 -2.17791,2.45589c-1.4455,1.92193 -2.38416,4.25744 -3.44103,6.36952c-0.26738,0.53434 -0.68626,0.98229 -0.96323,1.51172c-0.57382,1.09687 -0.24855,2.34108 -0.30897,3.51963c-0.0153,0.29831 -0.24869,0.62143 -0.11526,0.88867c0.13343,0.26724 0.53236,0.27424 0.77958,0.44189c1.12266,0.76134 1.9645,1.05565 3.26519,1.49004c1.43101,0.47792 2.44204,1.0253 3.73421,1.72028c1.2728,0.68456 3.00563,0.98901 4.37528,1.44643c1.19934,0.40055 2.69079,1.14287 3.95402,1.33534c0.45304,0.06902 0.92256,-0.07331 1.3748,0.00079c1.00106,0.16404 1.8879,0.78568 2.88652,0.96402c0.29883,0.05337 0.60657,0.00387 0.91174,-0.0141c0.11131,-0.55215 0.31664,-1.09186 0.4961,-1.59311c0.1935,-0.54046 0.25621,-1.1641 0.62338,-1.60538c0.32842,-0.39472 0.91289,-0.47431 1.34187,-0.75653c0.48445,-0.31871 0.85097,-0.83561 1.39269,-1.0425c3.43879,-1.31334 7.02759,0.60371 10.47298,0.47993c1.54368,0.51016 2.7952,0.25218 4.38367,0.54818c0.01748,-0.23902 0.12955,-0.50135 0.43585,-0.73929c0.85831,-0.66678 1.52509,0.19153 1.52509,0.19153c0.32305,0.41857 0.58001,0.72371 0.80124,1.01641c0.30672,-0.23345 0.53167,-0.59863 0.87919,-0.77037c0.40824,-0.20176 0.986,-0.00402 1.33303,-0.29886c0.44975,-0.38211 0.94645,-2.04392 1.14927,-2.64898c0.13943,-0.41595 0.31832,-0.85719 0.49666,-1.30708c-0.00339,-0.22649 0.04668,-0.54133 0.29845,-0.77864c0.17833,-0.4923 0.3291,-0.98359 0.40142,-1.45272c0.27828,-1.80498 0.34049,-3.78895 0.53406,-5.62461c0.12205,-1.15737 0.02453,-2.52614 0.71937,-3.57068c1.5129,-2.27431 3.65317,-2.70835 5.90125,-3.78251c2.84768,-0.04951 6.67107,-0.51395 8.78187,2.01621c1.69458,2.03124 0.55368,4.65975 0.08951,6.82323c-0.495,2.30718 -0.76196,4.86221 -1.89393,7.0247c-0.21253,0.40601 -0.61882,0.69036 -0.82551,1.09936c-0.51669,1.02242 -0.58677,2.2291 -1.08307,3.26158c-0.46303,0.96328 -1.33235,1.69099 -1.80741,2.64839c-0.25129,0.50642 -0.46577,1.03607 -0.7048,1.55071c0.22322,-0.10129 0.44513,-0.19972 0.66566,-0.29467c1.08465,-0.467 2.00547,-1.27962 3.11084,-1.69522c1.69994,-0.63914 2.59315,-0.37146 4.26396,-0.94776c0.59425,-0.20497 1.08867,-0.65337 1.68981,-0.83711c0.5864,-0.17923 1.25187,-0.01689 1.8242,-0.23693c0.43434,-0.16698 0.69312,-0.62685 1.08306,-0.88078c0.43351,-0.28232 0.90824,-0.53081 1.39477,-0.76493l0.07895,-0.30818c0,0 0.34429,-1.0309 1.37519,-0.68661zM263.0339,123.62652c0,0 -0.00029,0.49704 -0.3366,0.81869c0.31064,0.94759 0.67445,1.88074 0.87036,2.85696c0.08522,0.42463 -0.10362,0.87508 -0.01579,1.29917c0.49921,2.41039 2.74281,4.81143 4.29007,6.54436c1.50133,1.68149 3.27395,3.7717 5.3235,4.84639c1.04119,0.54595 2.17154,0.92096 3.18037,1.5246c1.48625,0.8893 2.67748,1.7993 4.32341,2.35654c1.4313,-0.01591 2.91108,0.17321 4.32728,0.12652c1.13157,-0.0373 2.20748,-0.51786 3.3285,-0.67644c1.09261,-0.15456 2.08709,-0.04891 3.02282,-0.85529c0.87404,-0.7532 1.60819,-2.1901 2.30334,-3.11586c0.4553,-0.60634 1.22807,-1.02628 1.45267,-1.75051c0.23612,-0.76135 -1.19705,-1.21495 -1.41788,-1.34108c-0.9966,-0.56921 -2.09538,-0.94159 -3.10708,-1.4835c-1.66909,-0.89403 -2.69898,-2.27587 -4.53215,-2.8881c-1.75147,-1.29053 -3.35933,-2.87101 -5.17972,-4.0462c-0.62841,-0.40569 -1.34699,-0.67009 -1.94423,-1.12041c-0.4163,-0.31389 -2.37948,-2.40657 -2.84021,-2.81713c-0.4272,-0.38067 -2.00771,-1.41344 -2.32098,-1.77577c-0.29922,-0.34607 -0.38493,-0.83355 -0.63427,-1.21712c-0.95555,-1.46992 -1.77472,-2.8735 -2.56568,-4.43982c-0.44264,0.61235 -0.96702,1.35037 -1.17845,1.53058c-0.62388,0.53179 -1.58504,0.55685 -2.20031,1.09857c-0.32505,0.2862 -0.44516,0.75933 -0.76808,1.04793c-1.01427,0.90645 -2.18867,1.63225 -3.14881,2.59586c0,0 -0.07632,0.07624 -0.2049,0.15663c-0.01939,0.2346 -0.02996,0.47499 -0.02719,0.72446zM249.61457,114.17729l-1.09936,-0.82551c-0.87057,-0.65454 -1.87671,-1.13032 -2.69037,-1.85438c-0.41972,-0.3735 -0.67091,-0.90329 -1.04495,-1.32253c-0.71769,-0.80443 -1.65835,-1.38254 -2.42036,-2.14512c-0.66877,-0.66926 -1.24452,-1.42647 -1.8779,-2.12917c-0.40995,1.22519 -0.29204,3.32125 -0.41283,4.27972c-0.14927,1.18451 -0.08643,2.39237 -0.27732,3.57089c-0.1062,0.65563 -0.33461,1.34546 -0.58772,2.02742c0.66412,2.03144 2.14888,3.55693 3.52512,5.1978l0.88473,0.43657c0,0 0.96473,0.5006 0.46414,1.46532c-0.5006,0.96473 -1.46532,0.46414 -1.46532,0.46414l-1.2346,-0.66314c-1.17049,-1.34476 -2.32179,-2.60862 -3.20236,-4.05633c-0.34552,0.98665 -0.77097,1.97972 -1.5453,2.68561c-0.43635,0.39779 -1.16458,0.25882 -1.692,0.52427c-0.34098,0.17162 -0.59785,0.49176 -0.8934,0.73696c0.08372,0.37239 0.10901,0.76441 0.27856,1.10401c0.21762,0.43587 0.64465,0.73524 0.90907,1.14442c0.74716,1.15617 1.13418,2.2458 1.99869,3.35036l0.38874,0.73135c0,0 0.01578,0.03161 0.03595,0.08627c1.72365,-0.42829 3.43404,-1.14484 5.10467,-1.92844l0.55168,-0.84029c0.6158,-0.28496 1.14876,-0.77592 1.54205,-1.32887c0.58952,-0.76627 0.84733,-1.73812 1.28307,-2.60115c0.46928,-0.92948 1.32185,-1.63396 1.77007,-2.57378c0.50499,-1.05884 0.59865,-2.28551 1.12041,-3.33618c0.20382,-0.41044 0.60844,-0.69577 0.82551,-1.09936c0.15113,-0.28098 0.28436,-0.57093 0.40306,-0.86768c-0.36161,-0.02282 -0.64174,-0.23317 -0.64174,-0.23317zM243.88395,106.48013c0.79786,0.79915 1.77317,1.41571 2.52637,2.25709c0.32229,0.36002 0.51738,0.83197 0.87834,1.15321c0.76258,0.67867 1.71513,1.11059 2.5318,1.72311l1.03987,0.78084c0.26991,-1.19727 0.43621,-2.42411 0.68123,-3.56249c0.25507,-1.18509 1.48233,-3.77053 0.37128,-4.99987c-1.60101,-1.77145 -4.57078,-1.24049 -6.61396,-1.29218c-1.22361,0.64474 -2.40066,0.92791 -3.42211,1.66945c0.68519,0.74173 1.29351,1.55602 2.00718,2.27084zM233.39273,125.97615c-0.3028,-0.46856 -0.76501,-0.8322 -1.01422,-1.33133c-0.3528,-0.70661 -0.53292,-1.24516 -0.73114,-1.75668c-0.479,-0.15882 -0.95287,-0.40521 -1.67258,-0.55247c-1.52776,-0.31259 -2.83332,-0.03471 -4.3339,-0.54131c-1.61422,0.08685 -3.4279,-0.47419 -5.21288,-0.79186c0.04231,0.66134 0.09959,1.32209 0.11459,1.98453c0.00922,0.40734 -0.18816,0.83791 -0.05025,1.22131c0.14962,0.41598 0.61937,0.63989 0.85436,1.01432c0.02337,0.03724 0.56506,1.12011 0.98002,1.95092c2.67992,0.4588 5.38174,0.83831 8.03378,1.27288c1.51085,0.24758 2.55381,0.83662 4.12893,0.95151c0.30645,0.00111 0.61299,-0.01107 0.91948,-0.03531c-0.82653,-1.11415 -1.27137,-2.23396 -2.01619,-3.38651zM222.56024,130.0745c-0.97241,0.4855 -1.45791,-0.4869 -1.45791,-0.4869l-0.22645,-0.45355c-0.59145,-0.10943 -1.18124,-0.22362 -1.76863,-0.34369c-0.10186,-0.02082 -0.2035,-0.04341 -0.30492,-0.06762c0.95074,0.46102 1.97409,0.80801 2.82409,1.43431c0,0 0.86912,0.65263 0.2165,1.52175c-0.65263,0.86912 -1.52175,0.2165 -1.52175,0.2165c-0.76627,-0.58952 -1.739,-0.84559 -2.60115,-1.28307c-0.81733,-0.41473 -1.38825,-1.22305 -2.19872,-1.65103c-0.42607,-0.22499 -0.97465,-0.19994 -1.36036,-0.4887c-0.46392,-0.34732 -0.69085,-0.93518 -1.0956,-1.34996c-0.29108,-0.2983 -0.72738,-0.47552 -1.03384,-0.75114c-0.10068,-0.01912 -0.20159,-0.03646 -0.30274,-0.05187c-0.45304,-0.06902 -0.92425,0.08293 -1.3748,-0.00079c-0.99734,-0.18534 -1.88368,-0.81123 -2.88652,-0.96402c-0.45304,-0.06902 -0.92256,0.07331 -1.3748,-0.00079c-1.39104,-0.22794 -2.96286,-0.97472 -4.29317,-1.41901c-3.24274,-1.08299 -6.12994,-2.48753 -9.34656,-3.57986c-1.21508,-0.41263 -3.4435,-1.36695 -4.06392,-2.60958c-0.13958,-0.27956 -0.11553,-2.74285 -0.11288,-3.23572c0.01114,-2.07172 0.58302,-2.79459 1.48294,-4.59065c1.12299,-2.24126 2.14169,-4.7077 3.67276,-6.74968c0.68462,-0.91307 1.58164,-1.65309 2.26705,-2.56557c1.55077,-1.5518 3.0321,-3.29035 4.62516,-4.87197c-2.15927,-0.34785 -4.29211,-0.76607 -6.48126,-1.49719c0,0 -1.0309,-0.34429 -0.68661,-1.37519c0.34429,-1.0309 1.37519,-0.68661 1.37519,-0.68661c2.65332,0.88614 5.22222,1.28799 7.86403,1.6815c0.12141,-0.09823 0.24376,-0.19495 0.3671,-0.29005c0.83714,-0.64545 1.92587,-0.88261 2.83217,-1.42667c0.2546,-0.15284 0.50606,-0.30247 0.7554,-0.44897c0.00149,-0.68561 0.03099,-1.3742 -0.03481,-2.05489c-0.2727,-2.82107 -0.20897,-5.3311 0.6986,-8.04858c0.07151,-0.98045 0.1177,-1.96377 0.11767,-2.94683l0.00079,-1.3748c0,0 0.00063,-1.08687 1.0875,-1.08625c1.08687,0.00063 1.08625,1.0875 1.08625,1.0875l-0.00079,1.3748c-0.00129,1.12697 -0.06966,2.25381 -0.16093,3.37708c-0.91568,2.74178 -1.01071,5.65837 -0.78864,8.54553c1.27168,-0.67453 2.56002,-1.27085 4.00579,-1.80028c1.95569,-0.71616 4.09786,-0.925 6.05006,-1.64627c2.56552,-0.94787 5.33293,-2.00832 8.11315,-1.96254c1.90713,-0.95219 4.08239,-0.67207 6.15166,-1.08505c0.46303,-0.09241 0.83594,-0.47114 1.29847,-0.56605c2.27043,-0.46593 4.82267,-0.10776 7.09317,-0.02403c1.13956,0.04202 2.27639,-0.37859 3.41086,-0.26313c0.44448,0.04524 0.8285,0.3797 1.27368,0.41739c0.68446,0.05795 1.36964,-0.15567 2.05625,-0.13547c1.26516,0.03723 2.4831,0.49615 3.73372,0.69098c3.41501,0.532 6.6578,0.8202 9.9792,1.94576c1.67228,0.20975 3.00362,0.5664 4.49476,1.04342c0.14277,-0.74208 0.21913,-1.50192 0.38642,-2.23888c0.51409,-2.26467 1.50081,-4.53767 2.23814,-6.74542c0.63702,-1.90739 1.09839,-4.13551 1.99651,-5.93373c0.22064,-0.44177 0.61467,-0.77525 0.87996,-1.19174c1.3155,-2.0653 2.29562,-4.3117 3.94024,-6.16213c1.31941,-1.48451 2.84329,-2.8437 4.25152,-4.24427c1.62687,-1.12917 3.12388,-2.46408 4.98466,-3.20253c2.98768,-1.18565 6.0817,-1.65808 9.17704,-2.50263c1.19013,-0.32472 5.00218,-1.79772 5.97884,-0.84096c1.60965,1.57685 -0.09251,3.22398 -0.81406,4.29803c-0.89247,1.32846 -1.78203,3.04386 -2.84201,4.23594c-0.3186,0.3583 -0.86588,0.47511 -1.15447,0.85799c-0.23978,0.31813 -0.13613,0.80758 -0.35286,1.14185c-0.69386,1.0702 -1.69417,1.98236 -2.81417,2.59259c-1.39875,2.29737 -3.35357,4.14481 -4.79156,6.40356c-2.36532,3.71536 -4.23271,7.61177 -6.12021,11.55253c-0.25811,0.53888 -0.70378,0.97349 -0.96323,1.51172c-0.22158,0.45969 -0.72542,2.43234 -0.98269,2.92383c-0.1548,0.29572 -0.32993,0.58261 -0.50296,0.87035c0.7079,-0.09394 1.06142,0.61412 1.06142,0.61412l0.33314,1.37987c-0.37219,1.07002 -0.23828,1.9325 -0.27861,2.92268c0.50206,-0.5737 0.95479,-1.17894 1.30872,-1.84549c0.59393,-1.11855 0.65512,-2.53474 1.22079,-3.67393c0.26574,-0.53516 0.70501,-0.97289 0.96323,-1.51172c0.25646,-0.53516 0.3021,-1.15699 0.56954,-1.68675c0.48914,-0.96892 1.25153,-1.77466 1.83456,-2.69015c1.20631,-1.89416 2.37081,-3.98463 3.7844,-5.73106c0.7907,-0.97688 1.74687,-1.80948 2.56301,-2.7652c0.73486,-0.01923 1.49581,-0.25269 2.20459,-0.0577c1.49981,0.41261 2.779,2.45612 3.28152,3.80712c0.59528,1.60038 0.9957,3.66567 0.74184,5.37422c-0.33258,2.23837 -1.14873,4.41884 -0.95496,6.75977c0.18016,2.17644 1.9654,4.98239 0.42032,6.976c-0.29647,0.38254 -1.94079,0.98189 -2.44202,1.30581c-0.46856,0.3028 -0.83105,0.76734 -1.33133,1.01422c-0.12781,0.06307 -2.97723,0.83201 -3.22516,0.89947c-2.38199,0.6389 -4.4956,2.0138 -6.83747,2.73451c-0.61942,0.19062 -1.30522,0.08401 -1.92487,0.27385c-0.61198,0.18749 -1.10701,0.67618 -1.7246,0.84425c-0.44219,0.12033 -0.92691,-0.09779 -1.3748,-0.00079c-0.55166,0.11947 -1.16955,0.34867 -1.77751,0.61268c-0.2407,0.66192 -0.51195,1.29069 -0.81042,1.85701c-0.48546,0.92113 -1.30726,1.64106 -1.77007,2.57378c-0.39799,0.80208 -0.83723,1.58302 -1.25733,2.37375c-0.21582,0.40621 -0.19145,0.92453 -0.45137,1.30403c-0.14618,0.21344 -0.32119,0.40288 -0.50725,0.58327c0.00305,0.00567 0.00457,0.00873 0.00457,0.00873l0.27464,0.55008c0.79165,1.58558 1.60812,2.96701 2.55693,4.44488c0.19581,0.30499 0.23043,0.7063 0.4643,0.98319c0.5543,0.65625 1.43442,0.95559 2.07647,1.52628c0.96162,0.85475 1.70001,1.95771 2.73054,2.72799c0.56163,0.4198 1.24065,0.6576 1.82921,1.03873c1.75962,1.13944 3.32384,2.65227 4.98918,3.93349c1.84084,0.61479 2.87849,2.01982 4.53818,2.89128c1.47228,0.77305 4.04362,1.3124 5.04017,2.79384c0.45346,0.67409 0.69058,1.55351 0.60377,2.36127c-0.0661,0.615 -0.66961,1.04054 -1.02387,1.54758c-0.98842,1.41468 -2.16673,3.4643 -3.47525,4.57967c-1.26234,1.07602 -2.63252,1.12641 -4.12739,1.34027c-1.1924,0.17059 -2.34267,0.64686 -3.54628,0.6944c-1.5316,0.06049 -3.19991,-0.13877 -4.74623,-0.15367c-1.97224,-0.65237 -3.33555,-1.57793 -5.09709,-2.64088c-0.9696,-0.58508 -2.0687,-0.92663 -3.06722,-1.46085c-1.455,-0.77843 -2.57521,-2.09509 -3.78034,-3.16838c-1.82941,-1.62927 -3.58142,-3.37915 -4.89425,-5.49438c-1.77806,-2.8648 -2.26428,-5.88021 -3.13268,-9.06829c0,0 -0.24403,-0.89682 0.54856,-1.25748c0.03351,-0.36298 0.08599,-0.71055 0.14132,-1.05448c-0.43284,0.31495 -0.78187,0.76749 -1.278,0.9639c-0.63512,0.25145 -1.37281,0.10945 -2.02555,0.31077c-0.57437,0.17715 -1.04181,0.61659 -1.61065,0.81075c-1.365,0.4659 -2.87501,0.42596 -4.22506,0.93355c-0.5421,0.20382 -2.28374,1.33902 -2.97601,1.6393c-4.56871,1.9817 -9.42729,5.02824 -14.51804,5.03786c-1.64473,-0.13365 -2.84044,-0.74147 -4.3937,-0.97813c-2.28388,-0.34797 -4.60143,-0.68216 -6.90836,-1.06729c-0.07893,0.2011 -0.24032,0.39898 -0.54248,0.54985zM219.50704,126.38058c-0.3142,-0.51531 -0.87359,-0.89037 -1.06893,-1.46142c-0.43251,-1.26438 -0.11532,-2.67022 -0.19325,-4.00425c0,0 -0.00266,-0.04563 0.00247,-0.11872c-0.66608,0.01366 -1.31377,0.11875 -1.9299,0.36684c-0.43165,0.1738 -0.68931,0.63279 -1.08306,0.88078c-0.26064,0.16416 -0.6554,0.11041 -0.85845,0.34204c-0.15432,0.17604 -0.57367,1.46635 -0.6812,2.19143c1.96162,0.6344 3.85042,1.6847 5.84988,2.08377c0.04746,0.00948 0.09495,0.0189 0.14244,0.0283c-0.05808,-0.10399 -0.11795,-0.20699 -0.18002,-0.30878zM208.59999,92.93035c0.21608,1.72227 1.21373,2.4598 -1.00578,3.72793c-1.40831,0.80465 -2.06999,-0.1231 -3.2721,-0.31361c-0.42622,-0.06755 -0.84961,-0.13225 -1.27076,-0.19581c-0.80475,0.7133 -1.56986,1.48685 -2.31863,2.27881c0.04639,0.20212 0.03396,0.36247 0.03396,0.36247c-0.08092,1.03795 -0.08024,2.08075 -0.13688,3.12031c-0.02801,0.5141 -0.25712,1.0313 -0.15784,1.53651c0.44901,2.28483 3.15571,4.14902 5.18595,4.81749c4.61575,1.51978 9.2315,2.24474 14.08109,1.61211c0.45227,-0.06383 2.50331,-0.28376 3.0984,-0.58087c1.9626,-0.97989 2.5906,-2.87578 3.51291,-4.61702c0.2145,-0.40497 0.60318,-0.69864 0.82551,-1.09936c0.62885,-1.13341 0.42306,-2.65748 0.42802,-3.89468c0.00361,-0.89838 -0.2121,-1.78611 -0.38835,-2.66703c-0.36579,-1.82824 -0.43764,-4.07272 -1.50166,-5.69075c-0.55456,-0.84331 -1.24257,-1.59087 -1.86176,-2.38792l-0.38874,-0.73135c0,0 -0.08803,-0.17632 -0.11405,-0.41629c-1.41507,0.35782 -2.7995,0.85614 -4.16313,1.35549c-2.82953,1.03615 -5.83673,1.57568 -8.66273,2.60712c-0.69981,0.25542 -1.33035,0.62293 -1.94273,1.02125c0.00637,0.05178 0.0128,0.10352 0.01929,0.15524zM206.6232,94.71346c0.2724,-0.06546 0.21046,-0.36923 0.08852,-0.71109c-0.00355,0.00213 -0.0071,0.00425 -0.01065,0.00638c-0.34397,0.20575 -0.71803,0.36069 -1.09321,0.51265c0.40241,0.12939 0.82286,0.23832 1.01534,0.19206zM278.20659,103.3303c0.44698,-0.10107 0.93261,0.1211 1.3748,0.00079c0.56896,-0.15481 1.01231,-0.63016 1.57586,-0.80361c0.61941,-0.19064 1.30522,-0.08402 1.92487,-0.27385c2.36794,-0.72542 4.50351,-2.09274 6.91367,-2.75675c0.93981,-0.25573 1.956,-0.30673 2.8249,-0.7468c0.43462,-0.22012 0.73524,-0.64465 1.14442,-0.90907c0.60245,-0.38932 1.43226,-0.40401 1.9586,-0.89133c0.43124,-0.39927 -0.18093,-1.59388 -0.22648,-1.75163c-0.4235,-1.46671 -0.58794,-2.03973 -0.72086,-3.64634c-0.29242,-3.53465 1.40611,-6.65421 0.71308,-10.16735c-0.28852,-1.46259 -1.13824,-3.73825 -2.84671,-3.92409c-0.47969,0.8213 -1.23982,1.44303 -1.83919,2.18153c-1.36491,1.68172 -2.48204,3.71212 -3.646,5.538c-0.55079,0.864 -1.28753,1.61414 -1.74292,2.53202c-0.51309,1.03416 -0.97479,2.09347 -1.49543,3.12385c-0.58689,1.1615 -0.64696,2.59433 -1.25813,3.74855c-1.06477,2.01086 -2.91454,3.46144 -4.43683,5.13281c-0.0972,0.25819 -0.19061,0.51271 -0.27572,0.76178c-0.07169,0.92501 -0.23074,1.95369 -0.46624,2.99037c0.17867,-0.05356 0.35396,-0.10037 0.52431,-0.13888zM275.85095,90.95921c0.27923,-0.8361 0.82113,-1.56011 1.23867,-2.33644c0.47398,-0.88127 0.51518,-1.94575 0.94535,-2.84921c0.25687,-0.53948 0.70512,-0.97284 0.96323,-1.51172c1.92934,-4.02811 3.84111,-8.0181 6.26644,-11.8119c1.5263,-2.38749 3.54906,-4.41583 5.11459,-6.78879c1.24563,-0.71547 1.59604,-0.72714 2.41276,-2.07871c0.24375,-0.40338 0.19101,-0.95499 0.47345,-1.33231c0.33903,-0.45291 0.945,-0.64283 1.32128,-1.0653c0.36554,-0.41042 0.56414,-0.94413 0.87319,-1.39859c0.59326,-0.8724 1.1832,-1.74717 1.78874,-2.61108c0.21303,-0.30392 0.47843,-0.568 0.70211,-0.86417c0.148,-0.19596 0.65574,-0.58189 0.41188,-0.61084c-0.36598,-0.04344 -0.6184,0.4114 -0.96166,0.54558c-0.95233,0.37225 -1.97252,0.53961 -2.95931,0.80743c-3.03411,0.82347 -6.03548,1.3092 -8.97314,2.43618c-1.60928,0.61737 -2.96565,1.87582 -4.36745,2.84119c-3.33345,3.34548 -6.39581,6.67182 -8.5387,10.9384c-0.84818,1.68876 -1.2605,3.81855 -1.85958,5.61235c-0.71337,2.13602 -1.68755,4.34351 -2.17956,6.53552c-0.18067,0.8049 -0.27446,1.63176 -0.43912,2.43982c2.63294,0.86071 5.39375,1.77222 7.25809,3.76387z" fill="#000000" stroke="none" stroke-width="0.5" stroke-linecap="butt"></path><path d="M263.04189,122.89187c0.12857,-0.08039 0.20503,-0.15688 0.20503,-0.15688c0.96014,-0.9636 2.13743,-1.69349 3.15169,-2.59994c0.32292,-0.2886 0.4442,-0.76294 0.76925,-1.04913c0.61527,-0.54172 1.57887,-0.56879 2.20275,-1.10058c0.21142,-0.18022 0.73782,-0.9195 1.18046,-1.53185c0.79095,1.56632 1.61027,2.96982 2.56581,4.43974c0.24935,0.38357 0.335,0.87108 0.63422,1.21715c0.31327,0.36233 1.89678,1.39373 2.32398,1.7744c0.46074,0.41056 2.43217,2.50193 2.84847,2.81583c0.59724,0.45032 1.32653,0.718 1.95494,1.12369c1.82039,1.17519 3.4384,2.77609 5.18986,4.06662c1.83318,0.61223 2.86223,1.99835 4.53132,2.89238c1.0117,0.5419 2.11027,0.91499 3.10686,1.48419c0.22083,0.12613 1.65366,0.58068 1.41754,1.34203c-0.2246,0.72423 -0.99854,1.14668 -1.45384,1.75302c-0.69515,0.92576 -1.43218,2.36673 -2.30621,3.11993c-0.93574,0.80637 -1.93294,0.7033 -3.02555,0.85786c-1.12102,0.15858 -2.20088,0.64162 -3.33245,0.67892c-1.4162,0.04669 -2.90227,-0.14046 -4.33356,-0.12456c-1.64593,-0.55723 -2.84537,-1.46756 -4.33162,-2.35687c-1.00883,-0.60364 -2.14591,-0.98148 -3.1871,-1.52743c-2.04955,-1.07468 -3.83094,-3.17587 -5.33227,-4.85736c-1.54726,-1.73294 -3.79182,-4.14502 -4.29103,-6.5554c-0.08783,-0.42409 0.10138,-0.87629 0.01616,-1.30092c-0.19592,-0.97623 -0.5587,-1.91239 -0.86934,-2.85998c0.33631,-0.32164 0.33705,-0.81969 0.33705,-0.81969c-0.00277,-0.24948 0.00817,-0.49059 0.02756,-0.72519z" data-paper-data="{&quot;noHover&quot;:false,&quot;origItem&quot;:[&quot;Path&quot;,{&quot;applyMatrix&quot;:true,&quot;segments&quot;:[[[394.58114,561.74342],[1.08454,-0.37565],[0,0]],[[390.51834,561.46774],[1.89356,0.99876],[-3.68208,2.73637]],[[379.32053,569.4289],[3.9742,-2.2775],[-1.72863,0.99063]],[[373.62866,571.25325],[1.72249,-1.00127],[-9.79008,5.69088]],[[351.32455,599.50963],[5.30678,-9.27673],[-5.14924,9.00133]],[[337.93544,629.80091],[1.70256,-10.50918],[-0.86492,5.33875]],[[335.91764,645.90003],[1.16379,-5.28166],[-1.71454,7.78111]],[[331.93544,668.19909],[0.03288,-7.99395],[2.15519,6.2222]],[[337.68943,687.26527],[-2.26751,-6.11145],[1.81178,4.88316]],[[345.49158,700.80324],[-2.32558,-4.66042],[2.26665,4.54231]],[[353.62866,712.74675],[-4.88218,-2.90792],[4.56026,2.71618]],[[370.58114,718.25658],[-5.05252,-1.68417],[3.30923,1.10308]],[[380.33633,722.04424],[-3.48742,0.07536],[3.6662,-0.07922]],[[384.12181,713.90306],[-0.22854,1.14738],[1.03138,-5.17807]],[[386.0671,698.18362],[-0.89025,5.20419],[1.46873,-8.58582]],[[392.06456,674.19909],[0,8.89114],[3.07877,-9.52308]],[[402.17162,645.70126],[-2.47508,9.65572],[0.85442,-3.33323]],[[404.22719,635.58501],[-1.0946,3.26225],[0.76299,-2.27393]],[[412.3806,619.08658],[-1.12002,2.60869],[1.0385,-2.41883]],[[416.74675,606.37134],[-1.12446,1.89497],[1.07401,-1.80996]],[[421.13329,601.83006],[-1.31032,1.64697],[5.02141,-6.31156]],[[436.76726,584.16484],[-5.68192,5.73383],[-3.317,-1.03906]],[[428.37134,581.25325],[1.09446,0.65991],[-3.2296,-1.94728]],[[420.37134,573.25325],[3.26041,1.89525],[-1.72249,-1.00127]],[[414.67947,571.4289],[1.72986,0.98849],[-5.4333,-3.10474]],[[398.76393,561.47214],[5.60379,2.78526],[0,0]],[[397.78192,560.80634],[0.53814,0.44387],[-1.05193,0.25726]]],&quot;closed&quot;:true}]}" fill="#a0d6ff" stroke="none" stroke-width="0.5" stroke-linecap="butt"></path><path d="M219.69909,126.70746c-0.0475,-0.0094 -0.09545,-0.01852 -0.14291,-0.028c-1.99945,-0.39907 -3.92036,-1.46063 -5.88198,-2.09503c0.10754,-0.72508 0.52656,-2.02865 0.68088,-2.2047c0.20304,-0.23163 0.59974,-0.18246 0.86038,-0.34662c0.39374,-0.24799 0.66028,-0.71555 1.09193,-0.88936c0.61612,-0.24808 1.28072,-0.35452 1.9468,-0.36818c-0.00513,0.07309 -0.00218,0.11882 -0.00218,0.11882c0.07793,1.33403 -0.23495,2.77886 0.19757,4.04324c0.19535,0.57105 0.73112,0.90962 1.04532,1.42493c0.06207,0.10179 0.14611,0.24092 0.2042,0.34491z" data-paper-data="{&quot;noHover&quot;:false,&quot;origItem&quot;:[&quot;Path&quot;,{&quot;applyMatrix&quot;:true,&quot;segments&quot;:[[[319.13329,375.83006],[-0.35371,0.41915],[1.79064,-2.12193]],[[323.95238,369.03616],[-2.20709,1.68455],[4.88673,-3.72978]],[[341.14305,362.35762],[-5.70738,2.2841],[0,0]],[[341.66467,362.19541],[-0.3264,0.08412],[-1.03026,-2.8865]],[[337.25161,354.30901],[1.98035,2.32687],[-1.38743,-1.6302]],[[331.83006,350.86671],[1.65589,1.35667],[-1.09612,-0.89805]],[[329.08658,347.6194],[1.3066,0.54841],[-0.99305,-0.4168]],[[318.53172,347.84052],[3.32054,-0.58741],[0.09045,9.4839]],[[317.9642,376.40273],[-1.17242,-9.30607],[0.02783,0.22092]],[[318.04829,377.06552],[-0.02822,-0.22094],[0.36911,-0.40497]]],&quot;closed&quot;:true}]}" fill="#ffffff" stroke="none" stroke-width="0.5" stroke-linecap="butt"></path><path d="M235.42807,129.37296c-0.30648,0.02424 -0.61368,0.03755 -0.92013,0.03644c-1.57512,-0.11489 -2.62309,-0.69832 -4.13393,-0.9459c-2.65203,-0.43458 -5.38796,-0.8242 -8.06788,-1.283c-0.41496,-0.83081 -0.95778,-1.92089 -0.98115,-1.95813c-0.23499,-0.37444 -0.70451,-0.60126 -0.85412,-1.01724c-0.1379,-0.3834 0.06025,-0.81733 0.05103,-1.22467c-0.015,-0.66245 -0.07037,-1.32751 -0.11268,-1.98885c1.78499,0.31768 3.60582,0.87125 5.22004,0.7844c1.50058,0.5066 2.83034,0.2293 4.3581,0.5419c0.71971,0.14726 1.19934,0.39967 1.67834,0.55849c0.19821,0.51152 0.38155,1.05864 0.73435,1.76525c0.24921,0.49913 0.7115,0.86856 1.01429,1.33711c0.74483,1.15255 1.18723,2.28005 2.01376,3.39421z" data-paper-data="{&quot;noHover&quot;:false,&quot;origItem&quot;:[&quot;Path&quot;,{&quot;applyMatrix&quot;:true,&quot;segments&quot;:[[[341.13329,435.83006],[-3.94366,4.92957],[1.60325,-2.00406]],[[345.46447,429.46447],[-1.81475,1.81475],[2.56915,-2.56915]],[[352.06419,423.71423],[-1.94314,1.61031],[-0.00503,-2.32152]],[[352.03746,415.61092],[0.40626,3.35501],[-0.86239,-7.12181]],[[348.08376,395.91139],[-0.02375,7.28593],[-2.73134,-6.91697]],[[343.94238,372.01133],[1.21505,8.25161],[-2.82408,1.14838]],[[335.44998,375.40333],[2.86869,-1.03081],[-1.76398,0.63385]],[[330.04762,376.96384],[1.472,-1.16045],[-1.59705,1.25904]],[[326.86671,382.16994],[1.29139,-1.57101],[-0.12843,0.15624]],[[319.78216,389.28925],[3.02046,-3.02139],[1.90341,12.36226]],[[325.93544,426.19909],[-1.9685,-12.20529],[1.12144,6.95328]],[[327.8006,445.60206],[-1.79408,-7.04038],[0.44176,1.33879]],[[329.2946,449.56268],[-0.55238,-1.30201],[3.65706,-5.23011]]],&quot;closed&quot;:true}]}" fill="#ffffff" stroke="none" stroke-width="0.5" stroke-linecap="butt"></path><path d="M250.27574,114.40071c-0.1187,0.29675 -0.25128,0.58811 -0.40241,0.86909c-0.21707,0.40359 -0.62097,0.69091 -0.82479,1.10136c-0.52176,1.05068 -0.61496,2.28827 -1.11996,3.34711c-0.44823,0.93982 -1.30634,1.65475 -1.77562,2.58424c-0.43573,0.86303 -0.70082,1.83989 -1.29033,2.60616c-0.39328,0.55294 -0.93146,1.04536 -1.54726,1.33033l-0.55337,0.84048c-1.67063,0.78359 -3.39109,1.49844 -5.11475,1.92673c-0.02017,-0.05466 -0.03607,-0.08632 -0.03607,-0.08632l-0.38991,-0.73191c-0.86452,-1.10456 -1.25771,-2.19889 -2.00487,-3.35506c-0.26442,-0.40918 -0.69354,-0.7112 -0.91116,-1.14708c-0.16956,-0.3396 -0.19615,-0.73384 -0.27986,-1.10624c0.29555,-0.2452 0.59153,-0.58431 0.93251,-0.75593c0.52742,-0.26545 1.21659,-0.10739 1.65295,-0.50518c0.77433,-0.70589 1.24084,-1.70969 1.58637,-2.69634c0.88057,1.44771 2.0141,2.691 3.18459,4.03577l1.22861,0.66287c0,0 0.95806,0.50232 1.45866,-0.46241c0.5006,-0.96473 -0.44578,-1.42593 -0.44578,-1.42593l-0.88953,-0.43486c-1.37624,-1.64088 -2.88191,-3.20221 -3.54603,-5.23365c0.25312,-0.68196 0.48785,-1.37656 0.59404,-2.0322c0.19089,-1.17852 0.13248,-2.38802 0.28174,-3.57253c0.12078,-0.95847 0.00531,-3.055 0.41526,-4.28019c0.63338,0.7027 1.21243,1.45973 1.8812,2.12899c0.76201,0.76258 1.7088,1.3417 2.42649,2.14613c0.37404,0.41924 0.62879,0.95052 1.04851,1.32402c0.81366,0.72406 1.82661,1.20545 2.69719,1.85998l1.10127,0.82829c0,0 0.28072,0.21145 0.64233,0.23427z" data-paper-data="{&quot;noHover&quot;:false,&quot;origItem&quot;:[&quot;Path&quot;,{&quot;applyMatrix&quot;:true,&quot;segments&quot;:[[416.25658,489.41886],[[418.25658,483.41886],[0,0],[1.58735,-4.75254]],[[422.42743,468.97723],[-1.97368,4.60553],[1.0181,-2.37572]],[[426.67545,462.49037],[-1.28427,2.24304],[2.46421,-4.30387]],[[432.50842,448.80324],[-2.21699,4.43628],[1.9457,-3.89342]],[[439.0623,437.50635],[-2.1432,3.78773],[-5.94344,-0.00337]],[[419.78639,441.94174],[4.35824,-0.86973],[-5.38607,1.07484]],[[403.80091,445.93544],[5.42058,-0.8845],[-3.01557,0.49206]],[[394.09792,446.32547],[3.34453,0.11065],[-7.89626,5.85822]],[[376.55469,469.28177],[5.1543,-8.39636],[0,0]],[375.93903,473.77844],[[370.22156,477.93903],[4.93903,0.77844],[-4.93903,-0.77844]],[366.06097,472.22156],[[367.15539,465.86809],[0,0],[4.16206,-7.06706]],[[380.18822,445.98361],[-5.03375,5.95202],[-4.8087,-0.06985]],[[366.2178,443.15444],[4.20852,2.35007],[-2.37159,-1.32431]],[[361.46447,436.53553],[1.92688,1.91451],[-1.24576,-1.23776]],[[356.94686,433.71119],[1.5006,0.93228],[-1.5029,0.90795]],[[352.53553,436.53553],[1.23474,-1.23474],[-1.58477,1.58477]],[[348.86671,442.16994],[1.40007,-1.75008],[-3.95604,4.94505]],[[337.16025,455.7735],[3.55985,-5.38191],[0,0]],[334.53553,458.53553],[[334.21151,458.81812],[0.20911,-0.16768],[4.38065,6.89692]],[[350.06502,478.28176],[-5.85373,-6.14778],[0,0]],[[354.53553,479.46447],[0,0],[2.14083,2.27175]],[[362.58114,484.25658],[-2.98587,-0.91029],[4.20265,1.45568]],[[375.80091,486.06456],[-4.40079,-0.64362],[4.73962,0.69318]],[[389.61092,490.03746],[-4.75403,-0.58623],[5.3561,0.66047]],[[405.80091,490.06456],[-5.34492,-0.74556],[2.08797,0.29125]],[[411.80091,492.06456],[-2.07739,-0.35902],[1.44628,0.24995]],[[416.17435,492.55882],[-1.46782,-0.08549],[-0.42738,-1.6111]]],&quot;closed&quot;:true}]}" fill="#ffffff" stroke="none" stroke-width="0.5" stroke-linecap="butt"></path><path d="M241.85681,104.2007c1.02146,-0.74154 2.20973,-1.03602 3.43334,-1.68076c2.04318,0.05169 5.04094,-0.46947 6.64194,1.30198c1.11105,1.22934 -0.11626,3.83511 -0.37134,5.02019c-0.24502,1.13838 -0.41873,2.37326 -0.68863,3.57053l-1.0413,-0.78c-0.81667,-0.61251 -1.77778,-1.04188 -2.54035,-1.72055c-0.36096,-0.32124 -0.56319,-0.79378 -0.88549,-1.15381c-0.7532,-0.84137 -1.7449,-1.47854 -2.54276,-2.27769c-0.71367,-0.71482 -1.32023,-1.53817 -2.00541,-2.2799z" data-paper-data="{&quot;noHover&quot;:false,&quot;origItem&quot;:[&quot;Path&quot;,{&quot;applyMatrix&quot;:true,&quot;segments&quot;:[[[441.49158,453.19676],[2.07905,-4.15573],[-2.32433,4.646]],[[435.32455,467.50963],[2.57366,-4.51266],[-1.10126,1.93095]],[[431.57257,473.02277],[0.8757,-2.04315],[-1.85005,4.31648]],[[427.74342,486.58114],[1.48256,-4.45608],[0,0]],[[425.85164,492.25647],[0,0],[5.61756,-0.56704]],[[442.38908,490.03746],[-5.32429,0.5898],[5.54276,-0.614]],[[464.74675,484.37134],[-3.74502,6.63949],[5.39651,-9.56739]],[[460.74675,453.62866],[2.75191,8.99062],[-4.59644,-4.3996]],[[448.47525,441.12933],[4.72423,3.37644],[-2.23801,4.07068]]],&quot;closed&quot;:true}]}" fill="#ffffff" stroke="none" stroke-width="0.5" stroke-linecap="butt"></path><path d="M207.87725,74.17073c1.0309,0.34429 0.68661,1.37519 0.68661,1.37519l-0.11988,-0.21731c0.265,0.9739 0.44284,1.97532 0.78991,2.92308c0.15732,0.4296 0.50222,0.78972 0.59171,1.23837c0.19963,1.0009 -0.23939,2.02767 -0.39915,3.0357c-0.14706,0.92794 -0.16664,1.88754 -0.45578,2.78145c-0.99344,2.97461 -1.05487,5.95351 -2.06735,8.93499c-0.27307,0.80411 -0.53661,1.89794 -1.21429,2.56477c0.54099,0.2051 1.08564,0.303 1.88389,-0.15309c2.21951,-1.26813 1.22641,-2.01513 1.01033,-3.7374c-0.00649,-0.05172 -0.01274,-0.10368 -0.01911,-0.15545c0.61238,-0.39832 1.24719,-0.76968 1.947,-1.0251c2.826,-1.03144 5.85478,-1.5727 8.68431,-2.60886c1.36363,-0.49935 2.75247,-0.99489 4.16755,-1.35271c0.02601,0.23996 0.11449,0.41666 0.11449,0.41666l0.3897,0.73224c0.6192,0.79706 1.31045,1.5486 1.86501,2.39191c1.06402,1.61803 1.13916,3.87212 1.50494,5.70037c0.17625,0.88093 0.3919,1.77326 0.38829,2.67164c-0.00497,1.23721 0.19913,2.76747 -0.42972,3.90089c-0.22233,0.40072 -0.61201,0.69638 -0.82651,1.10134c-0.92231,1.74124 -1.5566,3.64409 -3.5192,4.62398c-0.5951,0.29712 -2.65047,0.51943 -3.10273,0.58326c-4.8496,0.63263 -9.4883,-0.09642 -14.10406,-1.6162c-2.03024,-0.66848 -4.74266,-2.54122 -5.19167,-4.82605c-0.09928,-0.5052 0.12922,-1.02436 0.15723,-1.53846c0.05664,-1.03956 0.05527,-2.0869 0.13619,-3.12486c0,0 0.01241,-0.16091 -0.03398,-0.36303c0.56078,-0.59312 1.1309,-1.17819 1.71988,-1.73422c-0.62711,-0.27871 -1.22848,-0.55693 -1.68306,-0.62619c-2.66072,-0.40539 -5.27805,-0.83123 -7.86749,-1.69603c0,0 -1.0309,-0.34429 -0.68661,-1.37519c0.34429,-1.0309 1.37519,-0.68661 1.37519,-0.68661c0.76969,0.25706 1.50236,0.66224 2.30458,0.78447c0.45304,0.06902 0.92256,-0.07331 1.3748,0.00079c0.85806,0.14061 1.61458,0.69534 2.47416,0.82631c0.45304,0.06902 0.92256,-0.07331 1.3748,0.00079c0.01987,0.00326 2.52757,0.81544 2.64373,0.86814c0.21233,0.09634 0.34122,0.4548 0.56932,0.40643c0.19455,-0.04126 0.12536,-0.37749 0.18654,-0.56672c0.24964,-0.77213 0.49636,-1.54528 0.75785,-2.31348c0.56103,-1.64818 0.50844,-3.36 0.78605,-5.05418c0.01844,-0.11256 0.80204,-2.4458 0.86814,-2.64373c0.27054,-0.77779 0.2432,-1.62896 0.37211,-2.4423c0.14859,-0.93755 0.6722,-1.2401 0.42874,-2.18805c-0.3413,-1.32896 -0.99115,-2.72155 -1.36322,-4.08892l0.15556,-1.04202c0,0 0.34429,-1.0309 1.37519,-0.68661z" fill="#ffffff" stroke="none" stroke-width="0.5" stroke-linecap="butt"></path><path d="M277.66689,103.48453c0.2355,-1.03669 0.39273,-2.06742 0.46443,-2.99243c0.08511,-0.24907 0.1781,-0.50415 0.2753,-0.76234c1.52229,-1.67137 3.36968,-3.12616 4.43445,-5.13702c0.61117,-1.15422 0.66986,-2.59954 1.25675,-3.76104c0.52064,-1.03038 0.98904,-2.10175 1.50213,-3.13591c0.45539,-0.91788 1.2005,-1.67279 1.75129,-2.53679c1.16397,-1.82587 2.29029,-3.85702 3.65521,-5.53874c0.59938,-0.7385 1.36173,-1.35982 1.84141,-2.18112c1.70846,0.18584 2.56434,2.46404 2.85286,3.92663c0.69302,3.51314 -0.99506,6.65029 -0.70264,10.18493c0.13291,1.60661 0.29481,2.1909 0.71831,3.6576c0.04555,0.15775 0.65567,1.35551 0.22443,1.75478c-0.52634,0.48732 -1.36009,0.50588 -1.96253,0.89521c-0.40918,0.26442 -0.7133,0.69113 -1.14792,0.91125c-0.86889,0.44008 -1.893,0.49328 -2.83281,0.74901c-2.41016,0.66401 -4.55871,2.02829 -6.92666,2.75371c-0.61966,0.18983 -1.30747,0.08184 -1.92688,0.27248c-0.56356,0.17345 -1.00776,0.64812 -1.57672,0.80292c-0.44219,0.12031 -0.92887,-0.10282 -1.37585,-0.00175c-0.17035,0.03852 -0.3459,0.08506 -0.52457,0.13862z" data-paper-data="{&quot;noHover&quot;:false,&quot;origItem&quot;:[&quot;Path&quot;,{&quot;applyMatrix&quot;:true,&quot;segments&quot;:[[[505.25325,598.37134],[-0.41632,-0.68716],[1.09241,1.80308]],[[507.25325,604.37134],[-1.16936,-1.75415],[1.50461,2.25704]],[[513.05621,610.07645],[-1.5781,-2.20628],[1.73451,2.42495]],[[517.05621,618.07645],[-1.73134,-2.42721],[6.61606,9.27524]],[[539.16025,644.2265],[-6.40962,-9.54894],[2.48542,3.72813]],[[546.53553,655.46447],[-3.18645,-3.15005],[1.59384,1.57564]],[[552.16994,659.13329],[-1.75008,-1.40007],[2.57671,2.06137]],[[558.91342,666.3806],[-2.8934,-1.58648],[2.37064,1.29984]],[[566.2265,662.83975],[-0.62194,0.42863],[5.78272,-3.98531]],[[581.08658,654.3806],[-6.81666,2.92125],[14.99708,-6.42693]],[[626.49037,642.67545],[-14.31945,8.14358],[5.96148,-3.39034]],[[639.46447,624.53553],[1.67879,7.72561],[-4.28273,-0.89622]],[[627.26527,619.68943],[4.09586,1.53915],[-9.32715,-3.50497]],[[597.78732,611.85071],[9.6633,2.41809],[-4.57269,-1.14425]],[[584.19909,607.93544],[4.66873,0.64947],[-5.26022,-0.73175]],[[568.38908,605.96254],[5.25473,0.77022],[-5.9234,-0.86824]],[[550.19909,605.93544],[5.927,0.9848],[-10.32593,-1.71571]],[[521.33671,594.0555],[9.51131,4.20678],[-1.26825,-0.04788]],[[517.61092,593.96254],[1.21083,0.00842],[-4.14069,1.03517]],[[503.88318,596.28594],[4.86669,-0.48315],[0.4941,0.70157]]],&quot;closed&quot;:true}]}" fill="#a0d6ff" stroke="none" stroke-width="0.5" stroke-linecap="butt"></path><path d="M275.33435,91.64075c-1.86434,-1.99164 -4.63225,-2.90766 -7.26519,-3.76836c0.16467,-0.80806 0.25739,-1.63601 0.43805,-2.44091c0.49201,-2.19201 1.46309,-4.40384 2.17647,-6.53986c0.59908,-1.7938 1.00888,-3.93193 1.85705,-5.62069c2.14288,-4.26657 5.22318,-7.61635 8.55663,-10.96182c1.4018,-0.96537 2.76626,-2.2237 4.37554,-2.84106c2.93766,-1.12698 5.94781,-1.60872 8.98192,-2.43218c0.9868,-0.26782 2.00843,-0.43398 2.96075,-0.80623c0.34325,-0.13417 0.59592,-0.5888 0.9619,-0.54536c0.24386,0.02895 -0.26379,0.41495 -0.41179,0.61091c-0.22368,0.29617 -0.48902,0.56031 -0.70205,0.86424c-0.60555,0.86392 -1.19504,1.73912 -1.78831,2.61152c-0.30906,0.45447 -0.5073,0.98854 -0.87284,1.39896c-0.37628,0.42248 -0.98239,0.61224 -1.32142,1.06516c-0.28243,0.37731 -0.22899,0.92969 -0.47274,1.33307c-0.81671,1.35157 -1.16716,1.3632 -2.41279,2.07867c-1.56553,2.37296 -3.5829,4.41687 -5.10919,6.80436c-2.42533,3.79379 -4.36544,7.80328 -6.29478,11.83139c-0.25811,0.53888 -0.70702,0.97203 -0.96388,1.5115c-0.43017,0.90347 -0.4713,1.96797 -0.94528,2.84924c-0.41754,0.77633 -0.95983,1.5002 -1.23907,2.33629z" data-paper-data="{&quot;noHover&quot;:false,&quot;origItem&quot;:[&quot;Path&quot;,{&quot;applyMatrix&quot;:true,&quot;segments&quot;:[[[555.80091,570.06456],[0,0],[4.05518,0]],[[567.80091,572.06456],[-3.99594,-0.69058],[4.5361,0.78393]],[[581.61092,572.03746],[-4.5691,-0.56044],[2.72829,0.33465]],[[589.61092,574.03746],[-2.72751,-0.34094],[20.38799,2.54851]],[[650.28334,584.1675],[-20.08836,-5.05418],[12.64192,3.18067]],[[687.35917,596.59156],[-12.63567,-3.37304],[4.93713,4.39261]],[[699.94554,604.09022],[-7.08768,-1.59407],[2.11535,0.47576]],[[706.44892,604.21454],[-2.05796,-0.68254],[2.47032,0.81931]],[[713.02277,608.42743],[-2.39179,-1.0262],[2.32352,0.99691]],[[720.39794,610.1994],[-2.43343,-0.68626],[4.67121,1.31734]],[[734.39794,614.1994],[-4.6521,-1.3833],[1.63659,0.48664]],[[739.19188,616.00368],[-1.61829,-0.54441],[1.07076,0.36022]],[[742.45744,616.91072],[0.22907,1.10626],[-0.34378,-1.66023]],[[738.67545,613.50963],[1.08568,1.30224],[-3.0121,-3.61294]],[[730.83975,601.7735],[2.60665,3.91554],[-8.01468,-12.03912]],[[707.13329,566.16994],[9.19849,11.17597],[-5.03903,-6.12232]],[[688.37134,551.25325],[6.25516,4.70984],[-19.45555,-9.67001]],[[628.19909,529.93544],[21.7397,3.13274],[-8.60484,-1.23998]],[[601,530],[8.70017,0],[-10.35997,0]],[[569.30642,530.01371],[10.28171,-1.04752],[-3.77542,0.38465]],[[558.02047,531.65312],[3.7659,-0.45906],[0.08129,12.74299]],[[552.17412,568.80835],[5.97355,-11.03733],[0,0]]],&quot;closed&quot;:true}]}" fill="#a0d6ff" stroke="none" stroke-width="0.5" stroke-linecap="butt"></path><path d="M230.32056,120.21085c-1.58847,-0.29599 -2.84528,-0.0401 -4.38897,-0.55026c-3.44539,0.12377 -7.04091,-1.79907 -10.4797,-0.48574c-0.54172,0.20689 -0.90825,0.72378 -1.3927,1.04249c-0.42897,0.28222 -0.97879,0.33556 -1.30721,0.73027c-0.36717,0.44128 -0.43032,1.06437 -0.62381,1.60483c-0.17946,0.50125 -0.38523,1.04043 -0.49654,1.59258c-0.30517,0.01797 -0.64621,0.09542 -0.94504,0.04206c-0.99862,-0.17835 -1.88651,-0.80138 -2.88758,-0.96542c-0.45224,-0.07411 -0.92205,0.0678 -1.37509,-0.00122c-1.26323,-0.19246 -2.75571,-0.93651 -3.95505,-1.33705c-1.36964,-0.45742 -3.10329,-0.76354 -4.37608,-1.4481c-1.29217,-0.69498 -2.30377,-1.24383 -3.73478,-1.72175c-1.30069,-0.4344 -2.14289,-0.72985 -3.26555,-1.49119c-0.24721,-0.16765 -0.64623,-0.17495 -0.77966,-0.44219c-0.13343,-0.26724 0.09986,-0.59074 0.11516,-0.88905c0.06042,-1.17854 -0.26519,-2.42437 0.30863,-3.52124c0.27697,-0.52944 0.69575,-0.97805 0.96313,-1.51238c1.05687,-2.11208 1.99533,-4.45084 3.44082,-6.37277c0.65768,-0.87444 1.52111,-1.5823 2.17798,-2.45735c0.3401,-0.33908 0.71958,-0.68336 1.05399,-1.03709c-0.10261,1.05367 -0.16221,2.12982 -0.01226,2.87393c0.47602,2.36217 2.20307,3.73349 3.98587,5.05886c3.00477,2.23381 6.53548,2.38756 10.07768,2.95114c0.4364,0.06944 0.82142,0.34894 1.25818,0.41611c2.02102,0.31084 4.36852,-0.01103 6.36945,-0.26968c0.99972,-0.14328 2.78537,-0.29287 3.73848,-0.76874c2.38577,-1.19117 3.32246,-3.4095 4.46376,-5.56032c0.46068,-0.86818 1.15599,-1.67186 1.34286,-2.63677c0.42409,-2.18986 0.16008,-4.36693 -0.26296,-6.49537c-0.42498,-2.13817 -0.56265,-4.47438 -1.77117,-6.37068c-0.04013,-0.06297 -1.89893,-2.45438 -1.98404,-2.56393l-0.11715,-0.26378c0.51275,-0.06549 1.03145,-0.10539 1.55355,-0.11215c1.89538,-0.94632 4.10081,-0.67708 6.17045,-1.0894c0.44257,-0.08817 0.79673,-0.45569 1.2376,-0.55201c2.07829,-0.45403 4.49086,-0.04689 6.57635,0.02249c1.09447,0.03641 2.18934,-0.40133 3.27663,-0.27107c0.41973,0.05029 0.78029,0.37426 1.20155,0.40951c0.75964,0.06357 1.52329,-0.135 2.28536,-0.11637c1.17882,0.02882 2.31063,0.48999 3.47597,0.67006c3.36419,0.51983 6.54292,0.83903 9.81943,1.91965c1.85513,0.23326 3.5527,0.73529 5.27386,1.30439c0.03848,0.0167 0.07926,0.03238 0.12244,0.0468c0.04476,0.01495 0.08825,0.02735 0.13045,0.03732c0.63614,0.21232 1.27718,0.43348 1.93171,0.65208c2.22896,0.74441 5.05088,1.71649 6.1068,3.99831l1.04059,0.68357c0,0 0.98866,0.35457 1.33295,-0.67633c0.16344,-0.48938 0.01711,-0.82354 -0.18186,-1.04008c0.01384,-0.01634 0.021,-0.02588 0.021,-0.02588l0.91896,-1.24657c0.0149,-0.0446 0.03058,-0.08882 0.04696,-0.13279l0.06317,-0.0403c-0.48174,1.48936 -0.18505,2.69229 -0.45611,4.15809c-0.15513,0.83891 -0.49008,1.72926 -0.82279,2.59566c-0.26918,0.29605 -0.52585,0.5995 -0.76286,0.91391c0,0 -0.60554,0.80728 0.12698,1.44986c-0.14256,1.13612 -0.39778,2.38715 -0.75892,3.56287c-0.31954,0.15124 -0.62673,0.30217 -0.91231,0.44335l-0.55008,0.27479c0,0 -0.97243,0.48631 -0.48693,1.45872c0.20501,0.41061 0.49681,0.56157 0.76558,0.5986c-0.50095,0.7861 -1.18102,1.46598 -1.60152,2.29883c-0.39102,0.77447 -0.81455,1.53361 -1.22021,2.30052c-0.19151,0.36205 -0.14356,0.83295 -0.37508,1.17082c-0.33384,0.48719 -0.87791,0.79454 -1.27225,1.2342c-0.57356,0.63949 -0.87597,1.5171 -1.5267,2.07787c-0.621,0.53514 -1.5723,0.57317 -2.2007,1.09961c-0.37062,0.31049 -0.52279,0.82944 -0.88329,1.15163c-0.03298,0.02948 -0.10581,0.04103 -0.1391,0.07015c-0.49639,-0.87648 -1.38029,-0.39746 -1.38029,-0.39746c-1.10101,0.54971 -2.36481,1.03149 -3.39491,1.70234c-0.38993,0.25394 -0.64922,0.71462 -1.08356,0.8816c-0.57234,0.22004 -1.23832,0.05846 -1.82472,0.23769c-0.60115,0.18374 -1.09637,0.6332 -1.69061,0.83816c-1.67081,0.5763 -2.56605,0.31082 -4.26599,0.94996c-1.10537,0.4156 -2.02858,1.23019 -3.11323,1.69718c-0.22053,0.09495 -0.467,0.15751 -0.69021,0.2588c0.23904,-0.51463 0.45241,-1.04349 0.70369,-1.54992c0.47506,-0.9574 1.34214,-1.68316 1.80517,-2.64644c0.4963,-1.03248 0.56429,-2.23673 1.08098,-3.25916c0.20669,-0.40901 0.61217,-0.69219 0.8247,-1.09819c1.13196,-2.16249 1.39597,-4.71048 1.89097,-7.01766c0.46417,-2.16348 1.60472,-4.78453 -0.08986,-6.81577c-2.1108,-2.53016 -5.93268,-2.06004 -8.78035,-2.01053c-2.24808,1.07416 -4.34678,1.49674 -5.85968,3.77105c-0.69484,1.04454 -0.60115,2.42901 -0.72319,3.58637c-0.19357,1.83565 -0.26517,3.82709 -0.54345,5.63208c-0.07233,0.46912 -0.22491,0.96107 -0.40324,1.45337c-0.25178,0.2373 -0.30281,0.55242 -0.29942,0.77892c-0.17834,0.44989 -0.35864,0.89145 -0.49806,1.3074c-0.20282,0.60506 -0.7019,2.26719 -1.15165,2.64931c-0.34703,0.29485 -0.92675,0.09717 -1.33499,0.29893c-0.34751,0.17174 -0.57366,0.53688 -0.88038,0.77033c-0.22122,-0.2927 -0.47945,-0.59796 -0.8025,-1.01653c0,0 -0.66898,-0.8587 -1.52729,-0.19192c-0.30629,0.23794 -0.41872,0.50019 -0.43619,0.7392z" data-paper-data="{&quot;noHover&quot;:false,&quot;origItem&quot;:[&quot;Path&quot;,{&quot;applyMatrix&quot;:true,&quot;segments&quot;:[[[365.7735,414.83975],[-1.48459,-0.98973],[4.16025,2.7735]],[[367.16025,421.7735],[0,0],[-1.35563,2.0196]],[[363.89285,426.75084],[0.95479,-1.39184],[1.4656,0.99816]],[[368.53553,429.46447],[-1.25582,-1.26607],[1.47528,1.48732]],[[371.7822,434.84556],[-1.79227,-1.08458],[2.32275,1.4056]],[[385.01568,436.00002],[-2.93572,-0.00325],[2.01817,0.00223]],[[391.44281,436.26239],[-2.22298,-0.12256],[0.98335,-0.34485]],[[395.27527,436.42998],[-1.40236,-0.75279],[2.40801,0.06069]],[[402.19909,436.06456],[-2.15239,0.36805],[8.28145,-1.41609]],[[427.51999,430.1983],[-8.29184,1.83041],[5.22795,-1.15406]],[[444.14876,428.13376],[-5.57035,-1.50971],[12.12852,3.28715]],[[469.25325,448.37134],[-7.96311,-8.24402],[4.36588,12.35353]],[[473.25325,489.62866],[7.96416,-12.89748],[-6.39373,10.35427]],[[443.61092,499.96254],[10.11665,-1.1274],[-10.78859,1.20228]],[[410.19909,501.93544],[11.08548,1.78789],[-2.08129,-0.33568]],[[404.19909,499.93544],[2.08588,0.30586],[-5.21425,-0.76459]],[[388.38908,499.96254],[5.2284,0.66096],[-4.87797,-0.61666]],[[374.19909,495.93544],[4.86986,0.67769],[-2.57594,-0.35847]],[[366.4056,495.11988],[2.59391,0.29306],[0.76726,0.82639]],[[368.66144,497.59503],[-0.73568,-0.82391],[3.61836,4.05228]],[[380.59178,508.69857],[-3.42427,-4.21757],[5.26615,6.48616]],[[390.94103,525.92294],[-4.94946,-6.45065],[1.76033,2.29425]],[[397.05621,532.07645],[-1.67775,-2.35531],[1.63659,2.29752]],[[400.74839,539.69099],[-1.79417,-2.1767],[1.36157,1.65186]],[[406.16994,543.13329],[-1.67628,-1.33139],[4.42831,3.5172]],[[418.53553,555.46447],[-4.0031,-4.0031],[0,0]],[[418.79214,562.2654],[3.1011,-3.44323],[0.1756,0.10282]],[[419.32053,562.5711],[-0.17668,-0.10096],[1.93119,1.10354]],[[425.62866,564.74675],[-1.89492,-1.16472],[3.21285,1.9748]],[[433.62866,572.74675],[-3.24005,-1.92984],[3.39519,2.02224]],[[444.91342,576.3806],[-3.62621,-1.57079],[2.4931,1.07995]],[[452.14876,580.13376],[-2.61232,-0.74674],[1.81163,0.51786]],[[457.80091,580.06456],[-1.85884,-0.30802],[3.93753,0.65246]],[[469.61092,582.03746],[-3.94921,-0.57758],[4.24688,0.62111]],[[481.96953,585.67699],[-4.1601,-1.04029],[-0.23009,-1.22672]],[[483.46447,581.46447],[-1.4929,1.4929],[3.53553,-3.53553]],[490.53553,581.46447],[[492.53553,583.46447],[0,0],[1.0322,1.0404]],[[495.79851,586.79955],[-1.12561,-1.17389],[5.65642,-0.13755]],[[512.44293,584.92207],[-5.16512,1.03359],[1.73636,-4.13276]],[[518.58114,582.25658],[0,0],[1.7173,0.57603]],[[523.67894,584.2543],[-1.68406,-0.74312],[4.26529,0.18918]],[[536.19909,584.06456],[-3.88662,0.54562],[6.79092,-0.95334]],[[555,580],[-7.20074,0.06836],[0,0]],[[554.84714,579.94669],[0,0],[-0.21571,-0.0074]],[[554.19909,579.93544],[0.21633,0],[0,0]],[547.41886,577.74342],[[547.2753,577.68949],[0.09146,0.03656],[-0.65493,1.18375]],[[543,580],[2.37356,0],[-5,0]],[538,575],[[539.46447,569.46447],[0,0],[8.4178,-7.93268]],[[548,537],[0,10.81075],[0,-3.17451]],[[548.02746,527.62341],[0.0006,3.08513],[-0.01803,-0.19865]],[[548,527],[0,0.21709],[0,-0.20941]],[[548.02558,526.39773],[-0.01681,0.19223],[-0.02494,-8.3395]],[[546.02433,501.49269],[1.6856,8.43466],[-0.05956,-15.87158]],[[540.07659,455.87181],[2.63427,15.43697],[-0.9125,-5.3473]],[[537.93041,439.74015],[1.5921,5.1857],[-1.02925,-3.3524]],[[534.09022,429.94554],[0.82962,3.4073],[-0.46007,-1.88953]],[[534.12509,424.11143],[0.39225,1.90477],[-1.01611,-4.93418]],[[528.16611,410.22266],[1.43605,4.8287],[-2.73638,-9.20106]],[[518.68535,381.52661],[5.00979,8.40682],[-1.06275,-1.78337]],[[514.47533,376.93702],[1.02969,1.80266],[-4.81518,-8.42988]],[[500.74675,351.62866],[6.89132,6.89132],[-0.79034,-2.26827]],[[497.99859,345.01887],[1.03297,2.1419],[0,0]],[[497.16025,345.7735],[0,0],[-0.35401,0.53101]],[[488.86671,358.16994],[0.2163,-0.26689],[-6.51324,8.03674]],[[463.50963,375.32455],[8.71046,-4.97025],[-8.67082,4.94763]],[[435.61092,385.96254],[10.17337,-1.34074],[-4.48262,0.59076]],[[422.19909,383.93544],[4.45959,0.74499],[-11.04816,-1.84563]],[[391.46447,372.53553],[8.6743,8.6743],[-3.46538,-3.46538]],[[382.5143,357.20873],[2.08207,4.15344],[-4.04451,-8.35401]],[[372.06456,329.80091],[1.58885,9.27159],[-0.34336,-2.00366]],[[372.04957,323.70234],[0.33299,2.00541],[-2.7028,-16.27744]],[[370.25658,275.41886],[-5.36831,16.36639],[3.18514,-9.71054]],[[386.53651,250.649],[-9.6135,5.51939],[3.02837,-1.73868]],[[399.10236,246.51239],[-4.74713,1.08775],[-2.03079,-0.94375]],[[393.08658,243.6194],[1.97517,0.9899],[-4.77548,-1.59099]],[[379.19662,237.69514],[4.774,1.59542],[-10.49273,-3.50655]],[[346.38908,231.96254],[10.75609,1.53372],[-2.72121,-0.38802]],[[338.38908,229.96254],[2.71378,0.43701],[-5.62235,-0.90538]],[[322.58114,233.74342],[5.23055,-1.4538],[-1.32395,0.36798]],[[318.53553,234.53553],[0.97166,-0.97166],[-0.97166,0.97166]],[[317.74342,238.58114],[0.37128,-1.32303],[-1.68604,6.00814]],[[316,255],[0,-6.30849],[0,6.94059]],[[313.93544,273.80091],[1.14945,-6.65109],[-1.13221,6.55136]],[[314,295],[0,-6.64294],[0,5.81693]],[[313.93544,314.19909],[-1.00107,-5.79251],[0.35902,2.07739]],[[315.93544,320.19909],[-0.33568,-2.08129],[0.74305,4.60713]],[[315.93544,334.19909],[-0.67705,-4.61729],[0.20261,1.38171]],[[317.32563,338.15688],[-0.52312,-1.30541],[2.57146,-0.31893]],[[325,338],[-2.4487,-0.05259],[2.64025,0.05671]],[[332.91342,338.3806],[-2.46055,-0.95906],[2.20091,0.85785]],[[338.16994,343.13329],[-1.85655,-1.46052],[2.09666,1.64941]],[[344.74839,347.69099],[-1.69221,-2.06227],[10.74193,13.09105]],[[357.91624,394.08861],[-5.56097,-14.85341],[0.0235,7.47923]],[[361.91252,414.01532],[-1.02328,-7.36253],[1.06839,-0.27206]]],&quot;closed&quot;:true}]}" fill="#a0d6ff" stroke="none" stroke-width="0.5" stroke-linecap="butt"></path><path d="M219.37151,97.62207c0.13073,0.11751 0.2622,0.24866 0.39355,0.39924c0.26944,0.30888 0.28272,0.78879 0.54928,1.10016c0.29803,0.34811 0.80905,0.47093 1.09936,0.82551c0.55008,0.67186 1.30917,2.75902 1.19348,3.51301c-0.09381,0.61138 -0.64046,1.06221 -1.02387,1.54758c-0.41753,0.52856 -0.73055,1.27621 -1.37117,1.48436c-0.44242,0.14376 -2.76331,-0.71566 -3.30261,-0.90149c-1.25544,-0.9376 -3.02572,-2.29817 -3.18949,-4.04956c-0.04803,-0.51363 0.27635,-0.99411 0.4246,-1.48822c0.05715,-0.19049 0.29696,-0.3965 0.19145,-0.56508c-0.09377,-0.14984 -0.35305,0.03042 -0.52971,0.02459c-0.56003,-0.01848 -1.18973,0.17714 -1.67816,-0.09745c-1.52237,-0.85587 -2.53409,-3.38323 -2.06295,-5.0332c0.1414,-0.49519 0.63939,-0.81239 0.89397,-1.26005c0.29265,-0.5146 0.23673,-1.30343 0.7406,-1.61418c0.62211,-0.38368 1.45647,-0.2546 2.18451,-0.18986c2.55154,0.22687 4.70384,2.92573 5.74442,4.98944c0,0 0.4016,0.80435 -0.25726,1.31521z" fill="#000000" stroke="none" stroke-width="0.5" stroke-linecap="butt"></path><path d="M208.73407,76.80746c0.86912,0.65263 0.2165,1.52175 0.2165,1.52175l-0.7322,0.95172c-0.51267,1.60096 -1.05164,3.19318 -1.58415,4.78763c-0.25706,0.76969 -0.65796,1.50302 -0.78447,2.30458c-0.28454,1.80293 -0.04266,3.94616 -0.12758,5.77917c-0.07793,1.68217 -0.14706,3.32907 -1.62958,4.50375c-1.68013,1.33126 -2.88938,0.49519 -4.61454,-0.08097c-2.55005,-0.85165 -4.7679,-2.05071 -7.28476,-2.89128c0,0 -1.0309,-0.34429 -0.68661,-1.37519c0.34429,-1.0309 1.37519,-0.68661 1.37519,-0.68661c2.53114,0.84534 4.73209,2.03875 7.28476,2.89128c0.63526,0.21216 1.9368,1.08748 2.53409,0.47307c1.18085,-1.21469 0.9192,-3.159 0.98785,-4.70588c0.06122,-1.37941 -0.20095,-2.89425 0.01569,-4.25677c0.0174,-0.10943 0.80296,-2.44856 0.86814,-2.64374c0.56928,-1.70458 1.13563,-3.4099 1.72107,-5.10901l0.91883,-1.24701c0,0 0.65263,-0.86912 1.52175,-0.2165z" fill="#c1c1c1" stroke="none" stroke-width="0.5" stroke-linecap="butt"></path><text transform="translate(131.14114,202.52252) scale(0.76028,0.76028)" font-size="40" xml:space="preserve" fill="#ffffff" fill-rule="nonzero" stroke="none" stroke-width="1" stroke-linecap="butt" stroke-linejoin="miter" stroke-miterlimit="10" stroke-dasharray="" stroke-dashoffset="0" font-family="Sans Serif" font-weight="normal" text-anchor="start" style="mix-blend-mode: normal"><tspan x="0" dy="0">"KABOOOM!!!!"</tspan></text><path d="M443.45346,220.54054v27.19574h-402.4024" fill="none" stroke="#ff0000" stroke-width="4" stroke-linecap="round"></path><path d="M440.45045,218.99868v-17.45294h30.03003v17.45294z" fill="#51ca69" stroke="none" stroke-width="0" stroke-linecap="butt"></path><text transform="translate(123.63363,291.11111) scale(0.5,0.5)" font-size="40" xml:space="preserve" fill="#51ca69" fill-rule="nonzero" stroke="none" stroke-width="1" stroke-linecap="butt" stroke-linejoin="miter" stroke-miterlimit="10" stroke-dasharray="" stroke-dashoffset="0" font-family="Sans Serif" font-weight="normal" text-anchor="start" style="mix-blend-mode: normal"><tspan x="0" dy="0">Click Green Flag to Restart</tspan></text><text transform="translate(203.21321,346.66667) scale(0.5,0.5)" font-size="40" xml:space="preserve" fill="#ffffff" fill-rule="nonzero" stroke="none" stroke-width="1" stroke-linecap="butt" stroke-linejoin="miter" stroke-miterlimit="10" stroke-dasharray="" stroke-dashoffset="0" font-family="Sans Serif" font-weight="normal" text-anchor="start" style="mix-blend-mode: normal"><tspan x="0" dy="0">AS Studios</tspan></text><path d="M256,232.51201v30" fill="none" stroke="#ff0000" stroke-width="4" stroke-linecap="round"></path></g></g></svg>