<svg version="1.1" xmlns="http://www.w3.org/2000/svg" xmlns:xlink="http://www.w3.org/1999/xlink" width="263.42688" height="277.23155" viewBox="0,0,263.42688,277.23155"><g transform="translate(-71.15505,-70.55039)"><g data-paper-data="{&quot;isPaintingLayer&quot;:true}" fill-rule="nonzero" stroke="none" stroke-linecap="butt" stroke-linejoin="miter" stroke-miterlimit="10" stroke-dasharray="" stroke-dashoffset="0" style="mix-blend-mode: normal"><path d="M291.08932,220.61326c-2.43078,-1.62051 -0.81026,-4.05129 -0.81026,-4.05129l0.88686,-1.21733c2.17914,-5.44786 4.13579,-12.85812 0.40334,-17.50832c-0.30821,0.67637 -0.65141,1.33893 -1.02862,1.98354l-1.60792,1.73127c0,0 -2.06576,2.06576 -4.13151,0c-2.06576,-2.06576 0,-4.13151 0,-4.13151l0.72922,-0.60587c2.71844,-4.38301 3.24245,-11.10249 -0.12887,-15.07985c-0.12598,0.74572 -0.25869,1.48834 -0.40857,2.22396l-1.25641,3.17396c0,0 -1.08499,2.71247 -3.79746,1.62749c-2.71247,-1.08499 -1.62749,-3.79746 -1.62749,-3.79746l1.08073,-2.66888c0.59792,-3.06033 0.88506,-6.26325 1.72961,-9.26593c0.41957,-1.49176 1.70072,-2.86493 0.7598,-4.44334c-0.52087,-0.87376 -1.31357,-1.55358 -1.97035,-2.33037c0,0 -1.825,-2.28125 0.45624,-4.10625c2.28125,-1.825 4.10625,0.45624 4.10625,0.45624c0.90131,1.17082 2.0942,2.16659 2.70393,3.51247c1.82805,4.03521 0.61025,4.5665 -0.40877,8.41092c-0.05548,0.20933 -0.1087,0.41942 -0.15991,0.63022c5.51509,3.79819 7.55414,10.16822 6.75165,16.42076c8.11654,6.24184 6.80219,17.0065 3.23002,25.93695l-1.45028,2.28837c0,0 -1.62051,2.43078 -4.05129,0.81026z" fill="#000000" stroke-width="0.5"></path><path d="M227.5,315.25c0,-0.67111 0.18016,-1.16207 0.44375,-1.52123c-0.34185,-0.58419 -0.6837,-1.16838 -1.02555,-1.75257c-0.22677,-1.06682 -0.42874,-2.14103 -0.60593,-3.22111c-4.99168,0.07303 -9.57834,0.90944 -14.56227,0.98887c0,1.35642 0,2.71284 0,4.06927c0.3306,0.11541 0.67418,0.32543 1.01777,0.66901c1.76777,1.76777 0,3.53553 0,3.53553c-0.27138,0.26884 -0.53211,0.54369 -0.78374,0.82372l0.19133,0.62688c0,0 0.60634,2.42536 -1.81902,3.0317c-0.44642,0.1116 -0.83121,0.1205 -1.16194,0.06071c-1.38074,2.10391 -2.63792,4.28447 -4.26104,6.2742c-0.63788,0.78195 -1.13701,1.66769 -1.68757,2.51341c-0.04553,0.06994 -0.1056,0.15917 -0.17406,0.25921c1.88489,-2.51699 3.79338,-4.2569 6.3433,-6.29095c0.82264,-0.65622 1.30348,-1.77859 2.27064,-2.19327c1.69862,-0.72829 3.78991,-1.95683 5.43236,-1.10944c4.15093,2.14158 1.89754,6.78145 1.36323,9.54153c-0.455,2.35042 0.84649,3.25084 2.3921,1.38021c1.55373,-5.09646 2.03374,-13.17407 9.64411,-8.67244c1.2678,0.74992 1.74557,2.37442 2.56264,3.60002c0.51726,0.77588 0.90378,1.63523 1.43736,2.39998c0.17455,0.25017 0.41856,0.79308 0.67117,0.62208c1.17282,-0.7939 0.57388,-2.83744 0.34362,-4.23486c-0.5243,-3.18196 -3.19459,-6.44146 -5.51211,-8.83614c-0.03755,-0.02175 -0.07403,-0.04445 -0.10946,-0.06797c-0.44596,-0.02855 -2.41071,-0.28007 -2.41071,-2.49635zM240.39273,330.97446c-0.68513,1.82979 -1.74664,3.96846 -3.58139,4.64022c-4.2632,1.56089 -6.26532,-2.53871 -7.89147,-4.97793c-0.51726,-0.77588 -0.97443,-1.59051 -1.43736,-2.39998c-0.13809,-0.24147 -0.32649,-1.02626 -0.36448,-0.7507c-0.3922,2.84507 -0.96415,5.17097 -1.99141,8.07826c-1.05664,0.99846 -1.80675,2.49023 -3.16992,2.99537c-3.40002,1.25992 -6.74129,-0.05782 -8.26641,-3.35299c-0.59723,-1.29037 -0.31759,-2.84781 -0.17157,-4.26217c0.1277,-1.23692 0.61951,-2.40945 0.98311,-3.5986c0.09163,-0.29969 0.68939,-0.91048 0.38012,-0.85987c-1.16544,0.19072 -1.37606,1.95804 -2.29699,2.69729c-0.89158,0.71569 -2.05959,1.07326 -2.86693,1.88278c-2.5891,2.59609 -8.21739,11.27256 -11.61606,4.07963c-0.72374,5.4405 -2.68109,11.50704 -7.77014,12.58211c-1.39202,0.29407 -2.7625,-0.68799 -4.1224,-1.10617c-1.19073,-0.36616 -2.45692,-0.60184 -3.52376,-1.24508c-0.27864,-0.16801 -4.65977,-4.51819 -4.8123,-4.8123c-0.31894,-0.61497 0.64392,-1.80209 0.00859,-2.07826c-0.69303,-0.30125 -1.12702,1.23083 -1.88197,1.26393c-1.18343,0.0519 -2.22725,-0.86863 -3.40046,-1.03228c-1.32055,-0.1842 -2.68007,0.18856 -4,0c-1.0435,-0.14907 -1.96081,-0.82335 -3,-1c-1.09261,-0.18573 -2.35357,0.46031 -3.324,-0.07499c-1.89385,-1.04465 -4.64171,-2.23401 -4.77554,-4.39273c-0.12262,-1.97796 2.63749,-3.00354 4.24518,-4.16228c1.15607,-0.83324 2.33012,-1.53432 3.52311,-1.94869c-0.54677,-0.17797 -1.10102,-0.32631 -1.66875,-0.42131c-2.5867,-0.43284 -4.23748,0.85678 -7,0c-1.84818,-0.5732 -4.48488,-1.03746 -5.03267,-2.89334c-0.71225,-2.41309 5.10515,-6.4582 6.70866,-6.96711c4.58745,-1.45593 9.75418,2.16328 14.12492,2.92501c1.16897,0.20373 2.45297,-0.27873 3.55625,0.15802c0.43908,0.17382 0.77137,0.51061 1.08414,0.88056c0.13368,-2.12494 0.05607,-4.18398 0.21399,-6.4015c0.32383,-4.54737 1.32046,-9.03502 2.08764,-13.5183c1.42204,-3.57029 1.96763,-7.51958 3.69308,-10.98663c2.32512,-4.672 6.0666,-9.1752 7.84977,-14.15107c0.96017,-2.67932 1.38761,-5.59031 2.5934,-8.2333c0.37588,-0.82389 0.78851,-1.63056 1.22876,-2.42405l-1.49804,-0.48431c0,0 -2.37171,-0.79057 -1.58114,-3.16228c0.79057,-2.37171 3.16228,-1.58114 3.16228,-1.58114l2.60665,0.90287c1.35724,-2.01268 2.78887,-3.98539 4.12385,-5.99348c-1.16471,-0.35013 -2.29054,-0.59794 -3.31392,-0.69203c-2.41815,-0.22233 -5.31588,0.33373 -8.16781,1.34535c-3.11476,-0.09329 -6.2437,-0.15534 -9.27119,0.12574c-6.15704,0.57163 -12.50646,1.22278 -18.64166,-0.00427c-8.24337,0.03642 -16.24632,-1.32761 -23.45082,-5.68066c-3.64522,-2.20248 -5.9144,-5.90601 -9.44279,-8.24076c-6.67745,-4.41849 -15.00159,-7.85042 -20.12182,-14.1235c-0.56275,1.78329 -1.27672,3.95614 -1.90628,4.52138c-1.57025,1.40983 -3.55694,3.55828 -5.58617,2.97903c-2.93369,-0.83743 -3.4165,-9.43061 -3.56727,-11.94421c-0.12383,-2.06458 0.0595,-4.08334 0.30937,-6.10312c-1.2557,0.33045 -2.42243,-0.44737 -2.42243,-0.44737l-1.21733,-0.88686c-5.31306,-2.22434 -6.92526,-6.35484 -11.23001,-9.75835c-1.95571,-1.54625 -4.38115,-2.65604 -5.83066,-4.68449c-3.90325,-5.46222 -4.70943,-12.34029 -5.77025,-18.75644c-0.39024,-2.36029 -1.02521,-4.94714 -0.58631,-7.37537c0.7097,-3.92645 3.05592,-7.05541 5.05288,-10.38365c0,0 0.27744,-0.46241 0.79261,-0.87069c-3.63379,-8.72826 -1.07189,-20.48197 3.89974,-28.62114c-0.80496,-2.41499 -1.47759,-4.74296 -0.96596,-7.53607c1.70942,-9.33229 8.69228,-17.76944 18.07145,-19.84076c0,0 0.41903,-0.08381 0.9686,-0.02705c0.89517,-2.76856 2.21318,-5.39895 3.60713,-7.50265c0.60889,-0.91892 4.03466,-5.37548 4.62355,-5.65716c3.18879,-1.52531 8.23616,0.33802 11.15576,1.65338c1.38331,0.62322 3.10083,0.8559 4.08241,2.0128c0.94563,1.11455 0.802,2.81114 1.20301,4.21672c1.20961,6.04803 1.26405,12.21316 2.35615,18.21779c1.99835,10.98741 7.15035,22.86082 13.54644,32.33726c0.89486,-0.28905 1.79932,-0.54788 2.71273,-0.77476c0.06705,-1.30867 0.14746,-2.59628 0.15274,-3.78805c1.32204,-6.76111 2.74603,-13.06349 5.25051,-19.25712c-1.06801,0.36056 -2.11056,0.92644 -3.17233,1.28225c0,0 -2.77151,0.92384 -3.69534,-1.84767c-0.92384,-2.77151 1.84767,-3.69534 1.84767,-3.69534c1.70252,-0.56476 5.7455,-2.11177 7.61807,-1.89053c0.03767,0.00445 0.07517,0.00911 0.1125,0.01396c0.64837,-1.71729 1.43999,-4.01344 1.9759,-4.72469c2.95723,-3.92486 8.27655,-5.68365 12.63299,-6.87914c2.53038,-0.6944 5.09892,-1.68372 7.69365,-2.58978c0.16054,-0.18031 0.27971,-0.27962 0.27971,-0.27962c2.34173,-1.69774 2.26321,-3.21021 2.46018,-6.11721c0.17633,-2.6024 -0.4052,-5.64397 -1.3531,-8.07782c-1.52125,-3.90602 -5.34209,-6.54785 -5.99382,-11.01893c-0.91445,-6.27343 3.03272,-10.06034 9.23892,-8.42271c0.25005,0.06598 1.07395,0.5182 2.06029,1.09087c1.12943,-2.90223 4.53896,-5.28019 7.26137,-5.51289c2.58721,-0.22114 6.36656,1.34451 8.36507,2.99399c1.02738,0.84795 2.00896,1.82484 2.66872,2.98201c1.26561,-1.05867 2.79821,-2.09112 4.42923,-2.09342c1.69999,-0.0024 3.22488,1.21146 4.58773,2.22761c0.94145,0.70195 4.77622,4.60593 4.82691,7.10066c1.16373,-0.67577 2.46702,-1.35217 3.75358,-1.13135c5.85375,1.00471 8.1914,8.85675 8.83418,13.62962c-0.02378,5.9201 -1.76552,11.52109 -3.19777,17.25004l-0.45536,1.17486c1.67068,0.74197 3.22287,1.67993 4.32208,3.08895c0.24844,0.31847 0.47336,0.6588 0.67848,1.01649c0.66289,0.08866 1.31695,0.19478 1.88694,0.52196c1.97776,1.13529 3.68627,3.68956 5.04864,5.49716l0.89718,0.85567c0,0 2.06575,2.06575 0,4.13151c-2.06575,2.06575 -4.13151,0 -4.13151,0l-0.41082,-0.42266c1.82882,6.14545 3.63093,12.71515 3.63093,19.10328c0.96101,4.80507 1.33162,10.97184 -0.1069,15.72743c-3.13985,10.38004 -12.77185,16.73102 -22.89318,20.45565c-0.11226,0.08183 -0.23479,0.16118 -0.36838,0.23751c-0.58721,0.33554 -1.11615,0.45747 -1.58234,0.44671c-0.35956,0.12011 -0.71925,0.23704 -1.07881,0.35086c1.72896,5.32229 3.23545,10.70769 5.77446,15.77493c3.75337,7.49084 8.07783,15.13951 10.63335,23.21132c0.27923,-0.15125 0.56095,-0.29488 0.84787,-0.4224c0.9075,-0.40333 2.00733,-0.19612 2.92142,-0.58428c3.68539,-1.56497 5.83176,-5.83907 8.36415,-8.62993c10.1683,-11.20609 20.15651,-23.55098 26.93916,-37.14811c2.7287,-8.1861 6.7405,-15.93976 9.24728,-24.25442c1.76754,-5.8627 2.33661,-12.36646 3.43246,-18.39134c0.82427,-4.53177 2.21965,-9.77482 1.7192,-14.37685c-0.31579,-2.90398 -1.19244,-5.89738 -1.75285,-8.76427c-0.01484,-3.34929 -1.29514,-11.5735 1.45931,-14.07235c1.35241,-1.22692 3.49262,-1.11626 5.29692,-1.39695c6.10291,-0.94943 10.9495,0.72535 14.38747,6.01124c2.76187,4.24638 4.03249,8.72053 4.56277,13.32246c11.14581,2.62685 13.78312,14.19441 14.40454,24.73428c3.41314,0.69547 6.68881,1.48585 9.26756,4.10479c3.40575,3.45882 3.77401,8.56956 3.77708,13.16717c0.00137,2.04705 -0.13285,4.1189 -0.40364,6.18434c0.2972,0.15582 0.47578,0.29869 0.47578,0.29869c15.39425,12.59091 0.97115,34.49358 -8.99672,45.71381c-3.02989,3.41057 -5.20401,7.29674 -8.87534,10.05023c-4.56783,6.23677 -10.16407,10.78469 -15.89308,15.88675c-2.56059,2.28038 -5.08217,5.0164 -8.07318,6.77442c-3.78789,2.22639 -8.24762,1.96859 -12.32413,3.1976c-3.37789,1.0184 -6.30749,1.80627 -9.71304,2.42053c-2.09718,0.37827 -4.0545,1.03522 -6.01932,1.63283c3.21838,1.9387 6.69969,5.57571 8.09815,8.65945c0.71012,1.56586 1.80188,3.25048 1.48353,4.9401c-0.16615,0.88187 -0.77219,1.55833 -1.4583,2.1974c0.66218,0.37229 1.3216,0.77629 1.97952,1.21799c2.45505,1.64822 4.86444,2.28014 5.81566,5.59049c2.50036,8.70155 -9.15532,16.01333 -17.14094,17.5681c-0.49489,0.77342 -1.26832,1.16013 -1.26832,1.16013l-0.972,0.47638c-1.29317,0.70597 -2.42648,1.87433 -3.87953,2.1179c-3.14483,0.52716 -6.5979,-1.36904 -9.29146,-2.52208c-3.51972,-1.50669 -6.3662,-3.01145 -8.88593,-5.4336c-0.06259,0.24984 -0.12383,0.50004 -0.18371,0.7506c-0.05162,-0.04281 -0.10368,-0.08518 -0.1562,-0.12709c-0.2568,-0.20491 -0.55025,-0.31258 -0.86624,-0.36045c-0.51719,3.32172 -0.78637,6.68884 -0.81709,10.06059c0.06292,0.23169 0.09866,0.49484 0.09866,0.79373c0,0.29414 -0.03461,0.55368 -0.09568,0.78268c0.02276,1.77 0.11081,3.53952 0.26275,5.30269c0.20735,0.19979 0.40082,0.46025 0.569,0.7966c0.58441,1.16882 0.25239,2.03216 -0.19768,2.59002c0.15389,1.15538 0.33516,2.30635 0.54342,3.45123c0.43731,0.70508 0.87462,1.41017 1.31193,2.11525l0.55082,1.88856c3.91546,4.09537 9.14559,10.92878 6.94818,16.79743zM198.75421,329.15162c0.89655,-2.09021 2.95813,-3.46965 4.21768,-5.3634c1.45613,-2.1893 2.45001,-4.25474 3.77811,-6.24009c0,-2.65781 0,-5.31562 0,-7.97342c0,-14.97629 4.62074,-29.4149 11.7549,-42.51311c0.05311,-1.0036 0.53041,-1.57147 1.05356,-1.8928c0.96987,-1.70577 1.98148,-3.38767 3.03002,-5.04387c0.01185,-0.14234 0.03282,-0.29116 0.06394,-0.44674c0.2064,-1.03201 0.71023,-1.61787 1.2704,-1.94512c-0.18239,-0.0597 -0.37517,-0.13909 -0.56534,-0.24469l-1.93036,0.4256c-0.65075,-0.00352 -1.30285,0.01897 -1.95349,0.06654c0.04412,0.12489 0.08305,0.25819 0.11612,0.40046c1.64678,1.74275 -0.07198,3.46151 -0.07198,3.46151c-5.42817,5.40247 -7.89711,12.94152 -10.98717,19.75637c-1.6527,3.64489 -3.16853,7.29965 -4.59584,10.97976c0.32815,0.36872 0.56524,0.90151 0.56524,1.67139c0,1.89377 -1.43455,2.35299 -2.13028,2.46435c-1.45837,3.94599 -2.83665,7.92738 -4.19344,11.96298c-0.46007,2.80699 -0.66928,5.6175 -1.063,8.4058c0.96712,3.95051 1.36932,8.16654 1.38671,12.1747c-0.00148,0.15246 -0.00363,0.30905 -0.00655,0.46946c0.09141,-0.19468 0.17977,-0.38683 0.26078,-0.57567zM189.76393,313.13197c0.8336,-1.66721 2.28874,-1.46982 2.97517,-1.26148c0.04492,-0.40027 0.09045,-0.80066 0.13791,-1.20095l-0.66758,-0.04783c-3.08554,-1.06874 -6.15705,-0.95762 -9.35566,-0.89424c-0.26628,1.66083 -0.48851,3.32693 -0.6086,5.00259c-0.21475,2.99651 -0.00281,5.77556 -0.45653,8.75505c0.53331,0.48651 1.00183,1.29917 0.58307,2.55547c-0.2247,0.67411 -0.57714,1.09275 -0.96655,1.34669c-0.32257,0.60347 -0.94687,1.18745 -2.15516,1.18745c-1.52514,0 -2.11986,-0.93042 -2.35177,-1.65605c-0.42106,-0.14459 -0.82993,-0.31524 -1.21256,-0.54203c-0.70231,-0.41626 -0.88594,-1.50982 -1.64238,-1.81693c-0.37275,-0.15133 -0.77583,-0.0841 -1.18532,0.00773l0.8779,0.29263c1.02156,0.31417 1.76412,1.26534 1.76412,2.38994c0,0.88153 -0.45626,1.6565 -1.14551,2.10163l-2.96774,1.97849l-0.06094,-0.09141c-0.19354,0.14353 -0.39357,0.27875 -0.60135,0.40402c-0.89931,0.54219 -2.13717,-0.23665 -3.15008,0.04039c-0.63673,0.17416 -1.33413,0.61427 -2.02182,1.03141c0.28441,0.0023 0.5676,0.02207 0.8479,0.06775c1.04037,0.16955 1.9565,0.85093 3,1c1.31993,0.18856 2.68077,-0.19344 4,0c0.91483,0.13414 1.67549,0.93585 2.59954,0.96772c1.39361,0.04806 2.88085,-1.37937 4.11803,-0.73607c1.3031,0.67757 1.19324,2.70012 2.00859,3.92174c1.45626,2.18187 3.37201,3.07469 5.66394,3.94262c0.64824,0.24548 1.18514,0.92515 1.8776,0.89383c1.5956,-0.07218 1.71031,-2.49761 1.96012,-3.31269c1.05859,-3.45392 1.86345,-6.57817 1.87172,-10.21727c0.0127,-2.50144 -0.14843,-5.19347 -0.56241,-7.80579c-0.72989,-0.22469 -1.6876,-0.81432 -1.6876,-2.36167c0,-0.91107 0.33202,-1.49012 0.75406,-1.85814c-0.11724,-0.3985 -0.24238,-0.79089 -0.37577,-1.17599l-0.74633,0.4455c0,0 -2.23607,-1.11803 -1.11803,-3.3541zM161.81431,321.76638c-0.07158,-0.01667 -0.14317,-0.03289 -0.21477,-0.04866c-0.32606,-0.07178 -0.64513,-0.05285 -0.96008,0.02372c0.12757,0.00536 0.24839,0.00857 0.36054,0.00857c0.27685,0 0.54804,0.00557 0.81431,0.01638zM225.41324,299.75c-3.98496,0 -9.17947,0 -12.41324,0c0,0 -0.22782,0 -0.54591,-0.06877c-0.23663,1.67745 -0.41596,3.3645 -0.53441,5.05965c4.68617,-0.09158 9.05156,-0.84454 13.75404,-0.97244c-0.12372,-1.33508 -0.21054,-2.67547 -0.26048,-4.01843zM225,294.75h0.39757c0.0932,-3.0202 0.37238,-6.03621 0.83756,-9.01699c-0.14542,0.01699 -0.23513,0.01699 -0.23513,0.01699h-3c-2.29445,-0.02178 -4.60728,-0.42244 -6.79057,-1.12829c0,0 -0.02753,-0.00918 -0.07567,-0.02852c-1.14887,3.32921 -2.09829,6.71922 -2.8163,10.15681c3.89418,0 7.78836,0 11.68254,0zM223,280.75h3c0,0 0.55111,0 1.13583,0.25876c1.01164,-4.47658 2.45615,-8.83271 4.33357,-12.95819c0.88636,-1.94769 1.52467,-3.70026 2.47759,-5.43265c-0.20404,-0.10244 -0.40964,-0.19808 -0.61585,-0.28663c-2.23952,-0.96169 -4.31,-0.82967 -6.19222,-0.05395c-0.62493,0.97137 -1.23656,1.95257 -1.83378,2.94316c0.84135,0.1744 1.67237,0.39494 2.48543,0.6578l1.9772,1.60394c0,0 1.76777,1.76777 0,3.53553c-1.76777,1.76777 -3.53553,0 -3.53553,0l-0.0228,-0.39606c-1.1382,-0.39424 -2.33335,-0.66729 -3.53853,-0.79344c-1.77192,3.27713 -3.37679,6.64405 -4.77733,10.08532c1.63422,0.55388 3.38223,0.85783 5.10644,0.83642zM193.79057,305.87829l0.07918,-0.0485c1.0861,-3.24948 2.19668,-6.46627 3.35883,-9.65845c-3.52345,-0.76797 -7.03855,-1.32756 -10.45047,-2.37083c-1.05087,2.74055 -1.53266,5.73991 -2.62058,8.44784c-0.13379,0.82841 -0.27846,1.65653 -0.42672,2.48489c3.42514,-0.02109 6.64823,0.04212 10.05976,1.14505zM193.40046,289.78228c1.92107,0.32557 3.75725,1.01883 5.62242,1.59486c1.38158,-3.58682 2.84666,-7.14732 4.43453,-10.6932c-0.15511,-0.03128 -0.24798,-0.06224 -0.24798,-0.06224l-3,-1c-1.6421,-0.56878 -3.40273,-0.88531 -5.14102,-0.87239c-1.56901,3.63055 -3.92216,7.0476 -5.94706,10.47985c1.40346,0.27391 2.86569,0.31358 4.2791,0.55311zM201.79057,274.87829l3,1c0,0 0.30332,0.10111 0.65685,0.33947c1.1567,-2.65182 2.305,-5.32027 3.61006,-7.89404c-3.0712,-0.84242 -6.01675,-1.85209 -9.10997,-2.32976c-0.70974,1.17855 -1.36364,2.38232 -1.92623,3.62538c-0.61186,1.35192 -0.9957,2.78286 -1.36675,4.21091c1.74354,0.15161 3.47718,0.51173 5.13604,1.04804zM211.60634,263.82464c0,0 0.00014,0.00003 0.00041,0.0001c0.74463,-1.16121 1.54811,-2.28529 2.42868,-3.35994c-0.3934,-0.2085 -0.8232,-0.39978 -1.30147,-0.60486c-0.81674,-1.65039 -2.51782,-2.78523 -4.48397,-2.78523h-1.03646c-0.30728,-0.14949 -0.61934,-0.29754 -0.93489,-0.44312c-1.06087,1.61945 -2.20333,3.21251 -3.32727,4.81898c2.89505,0.64929 5.71937,1.64161 8.65495,2.37407zM236.0306,270.09885c-1.94082,4.27467 -3.36294,8.77397 -4.29265,13.38584c0.87253,-1.70819 1.98991,-3.25276 3.02657,-4.8504c-0.12556,0.3326 -0.24841,0.66624 -0.36859,1.00088c0.30157,0.25744 0.46971,0.48163 0.46971,0.48163c2.36978,3.25283 5.10433,4.51601 8.74651,6.07906c2.00753,0.86154 3.25768,1.70062 4.5309,1.86737c-1.18378,-1.27368 -2.16742,-2.87157 -3.34457,-4.44073l-0.31291,-0.27138c0,0 -2.06576,-2.06576 0,-4.13151c2.06576,-2.06576 4.13151,0 4.13151,0l0.85566,0.89719c1.11511,1.48719 1.83749,3.33334 3.27168,4.51584c1.77667,1.46489 8.77758,-2.37028 9.85638,-2.9452c1.89611,-1.01049 6.6064,-4.47242 5.71897,-7.07393c-0.40514,-1.18769 -2.98692,-2.22864 -3.53289,-2.58949c-1.52178,-1.0058 -3.04722,-1.78252 -4.59925,-2.42667c-0.70001,0.07838 -1.60462,-0.03812 -2.32371,-0.86966c-2.36976,-0.80291 -4.82445,-1.41581 -7.4409,-2.16183c0,0 -2.80902,-0.80257 -2.00644,-3.61159c0.80257,-2.80902 3.61159,-2.00644 3.61159,-2.00644c2.90382,0.83148 5.64483,1.53904 8.29323,2.4644c0.51486,-0.25719 1.27532,-0.30016 1.48097,-0.82705c0.15058,-0.38579 -0.59076,-0.58271 -0.8536,-0.90274c-1.06766,-1.29997 -1.83517,-2.85029 -3.02468,-4.0398c-2.88024,-2.88024 -6.82142,-3.7314 -10.85859,-4.19973l-0.51415,0.96537c-0.85498,0.87181 -0.94125,2.43055 -0.62404,3.60971c0,0 0.33092,1.98552 -1.20474,2.935c-0.19954,0.66723 -0.56426,1.12312 -0.56426,1.12312c-2.54648,3.15238 -4.72004,6.54196 -6.54059,10.1027c0.43688,-1.66018 1.59031,-3.39988 0.94657,-4.9541c-0.19334,-0.46678 -0.44087,-0.9129 -0.7318,-1.33512c-0.65279,1.3321 -1.11788,2.70272 -1.8019,4.20927zM234.85432,258.555l0.59563,-0.05673c0,0 1.52231,0 2.36914,1.0989c0.20901,0.05861 0.42684,0.15194 0.65195,0.28843c0.36742,-0.49091 0.74234,-0.97745 1.1248,-1.45948c0,0 0.14623,-0.1828 0.40768,-0.40351c-0.25756,-1.24686 -0.63973,-2.49957 -0.3804,-3.72214c0.12319,-0.58076 0.42546,-1.08637 0.78947,-1.56606c-0.25829,-0.03701 -0.5146,-0.07642 -0.76863,-0.11874c0,0 -2.88167,-0.48028 -2.4014,-3.36195c0.40836,-2.45017 2.55279,-2.46984 3.18585,-2.4208c0.17309,-0.02049 0.28011,-0.02049 0.28011,-0.02049l0.59563,0.05673c3.07026,-0.60017 5.98813,-0.59884 9.04934,-1.21108c4.49717,0.03856 8.30467,-2.09767 12.67417,-2.89792c0.95788,-0.17543 1.96212,0.16743 2.92142,0c3.15304,-0.55031 6.05477,-2.25813 9.24358,-2.90241c2.47055,-0.49917 5.65899,-0.63459 7.86633,-1.99657c2.63196,-1.62398 4.8321,-4.05139 7.11822,-6.07984c5.68821,-5.04708 11.01272,-9.58301 15.65829,-15.66461c3.57782,-2.68336 5.68912,-6.48278 8.6532,-9.81544c1.39656,-1.57022 2.6633,-3.25635 3.86824,-4.97799c0.02032,-0.02904 3.6238,-4.48971 4.00346,-5.12665c4.23618,-7.10686 9.64279,-18.35724 3.65525,-25.41191c-1.43644,5.1203 -3.76079,9.98262 -6.98877,14.07518l-3.6135,1.56226c0,0 -2.71247,1.08499 -3.79746,-1.62749c-1.08499,-2.71247 1.62749,-3.79746 1.62749,-3.79746l2.22935,-0.77488c4.25446,-6.32886 6.44525,-14.63428 6.45134,-22.22117c0.00224,-2.80341 0.10149,-6.93404 -2.06576,-9.03564c-1.38941,-1.34733 -3.14162,-1.88557 -4.95435,-2.26323c0.00734,0.87089 0.00869,1.71811 0.00869,2.53461c0,3.6221 0.05532,6.94358 -0.64102,10.50577l0.05673,1.7642c0,0 0,2.92142 -2.92142,2.92142c-2.92142,0 -2.92142,-2.92142 -2.92142,-2.92142l0.05673,-2.91008c1.73492,-8.44241 1.28943,-19.49426 -1.10419,-27.80884c-0.91095,-3.16427 -3.61413,-7.25087 -6.78629,-8.63428c0.0221,4.49024 -0.32982,9.05701 -0.39895,13.61285l-1.32481,3.45395c0,0 -1.08499,2.71247 -3.79746,1.62749c-2.71247,-1.08499 -1.62749,-3.79746 -1.62749,-3.79746l1.01233,-2.38889c-0.19839,-8.91595 1.63534,-17.33023 -2.13347,-25.71213c-0.95949,-2.13392 -2.4693,-5.86251 -5.1262,-6.56134c-1.74311,-0.45849 -3.60601,0.18223 -5.40634,0.09604c-0.57588,-0.02757 -1.22438,-0.53204 -1.71449,-0.22839c-0.32527,0.20153 0.25967,0.72912 0.29074,1.1105c0.21901,2.68895 0.01456,5.49122 0,8.18853c0.58677,2.85535 1.4818,5.8654 1.75285,8.76427c0.67906,7.26252 -1.54093,15.36435 -2.96394,22.47933c-0.82445,4.12224 -1.19683,8.4966 -2.40151,12.52949c-2.54333,8.51421 -6.65817,16.45054 -9.44982,24.82548c-7.11146,14.19513 -17.32886,27.11143 -27.98358,38.80888c-1.52128,1.67015 -2.5716,3.74599 -4.16906,5.34345c-0.4534,0.4534 -5.33556,4.34253 -6.1639,4.72374c-0.90215,0.41517 -2.01392,0.18095 -2.92142,0.58428c-0.72416,0.32185 -1.4338,0.6908 -2.14656,1.05103c-0.24021,0.45241 -0.65614,0.88572 -1.34248,1.22888c-0.90212,0.45107 -1.64852,0.43494 -2.2392,0.22046c-0.04982,0.01191 -0.09975,0.02341 -0.14983,0.03446c0,0 -2.86469,0.57294 -3.43763,-2.29175c-0.26011,-1.30054 0.1883,-2.12874 0.75551,-2.64542c-2.36863,-8.0568 -6.82722,-15.68324 -10.53617,-23.11608c-2.7035,-5.41788 -4.26667,-11.1738 -6.14964,-16.83722c-0.47516,0.11224 -0.94753,0.21936 -1.41642,0.32152c-0.40132,0.32555 -0.89267,0.57752 -1.49636,0.73176c-1.14902,0.29358 -2.31109,-0.21689 -3.38162,-0.94275c1.35691,2.72555 2.84769,5.4292 3.80487,8.25943c4.0302,11.91662 8.2652,23.8967 14.56984,34.92981l0.03931,0.04743c0.85633,0.25582 2.00108,0.93982 2.00108,2.76856c0,0.22211 -0.01689,0.42733 -0.04809,0.61696c0.02508,0.70351 -0.2282,1.51133 -1.14571,2.24535c-1.76854,1.41483 -3.26286,0.36175 -3.84522,-0.18307c-3.77886,-0.72698 -6.58519,-2.88562 -10.28197,-4.73636c-4.48757,-2.24664 -10.30013,-4.96925 -13.72552,-8.84054c-2.72397,-3.07855 -5.05691,-6.95715 -7.49192,-10.46923c-3.31626,5.90952 -7.49354,11.24522 -12.32593,16.06721c-2.67885,2.67309 -5.57485,5.42645 -9.15653,6.87739c-5.04448,2.04352 -10.54346,3.41146 -15.91825,4.08331l-2.629,-0.45419c0,0 -1.93637,-0.48409 -2.20788,-2.25255c-0.06682,0.00175 -0.1334,0.00264 -0.19974,0.00264c-2.32046,0 -4.69806,-1.21016 -6.7755,-2.10049c-0.30929,-0.07732 -0.61234,-0.15829 -0.90935,-0.24289c1.39619,0.94089 2.78814,1.88876 4.15378,2.80499c3.43982,2.30781 5.71534,6.01491 9.25432,8.11921c6.54181,3.88982 13.54058,4.80867 20.9548,4.83646c5.81661,1.16332 11.74833,0.51579 17.58398,-0.00427c6.16267,-0.54919 12.50032,0.63539 18.6502,0.00427c1.63972,-0.16827 3.27452,-0.44622 4.91784,-0.55402c0.45277,-0.34307 1.42895,-0.92094 2.54892,-0.59479c0.60547,-0.0703 2.78928,-0.1465 3.28151,2.31464c0.33404,1.67018 -0.50043,2.56135 -1.25441,3.01416c1.39859,0.48264 2.80717,0.92793 4.21538,1.38872c0.07413,-2.14632 2.36567,-2.60464 2.36567,-2.60464c2.10931,-0.41233 4.26656,-0.63149 6.41578,-0.64102l1.62859,-0.49706c0,0 1.48322,-0.3708 2.57194,0.49706c0.33372,0 0.66744,0 1.00117,0c0.53513,-0.46418 1.32194,-0.79861 2.42901,-0.52318c0.78873,-0.1402 2.6067,-0.20576 3.32079,1.93648c0.8363,2.50891 -1.35565,3.50369 -1.77853,3.66967c-0.09149,0.27094 -0.18352,0.54176 -0.27634,0.81233c1.49633,0.14849 2.99396,0.28818 4.53058,0.58855zM108.96863,173.91479l-0.68375,-1.39008c-2.22386,-5.79789 -2.80356,-14.49684 -0.58428,-20.28279c0,0 0.56791,-1.41979 1.90918,-1.79409c-0.43715,-3.66328 0.25613,-7.35955 2.55615,-10.55946c0,0 1.75285,-2.33714 4.08999,-0.58428c2.33714,1.75285 0.58428,4.08999 0.58428,4.08999c-3.16593,3.95288 -1.13459,10.29375 1.75285,14.02283l0.31291,0.27138c0,0 2.06576,2.06576 0,4.13151c-2.06576,2.06576 -4.13151,0 -4.13151,0l-0.85566,-0.89719c-0.58965,-0.8047 -1.13428,-1.6489 -1.6252,-2.52292c0.0389,1.14804 0.27971,2.32121 0.44241,3.98789c0.31529,3.22969 -0.30697,4.94469 0.97384,7.96715l0.48482,0.94706c0,0 0.03565,0.07131 0.0834,0.19626c5.41481,-6.69023 12.20117,-12.52988 19.88098,-16.21716c-6.53096,-9.9839 -11.70081,-22.20837 -13.7754,-33.62168c-1.07934,-5.93794 -1.12367,-12.03557 -2.31813,-18.00785c0.01148,-0.54204 0.39373,-1.2201 0.03444,-1.62612c-0.39543,-0.44685 -1.19168,-0.14391 -1.76044,-0.32434c-0.9406,-0.29838 -5.23666,-2.50806 -6.37278,-1.85232c-1.26923,0.73256 -1.57093,2.47476 -2.38787,3.69139c-2.06216,3.07108 -4.48324,8.57979 -3.64562,12.42453c0.58203,2.67156 2.33934,5.51726 3.72638,7.81367l1.31351,1.19015c0,0 2.06576,2.06576 0,4.13151c-2.06576,2.06576 -4.13151,0 -4.13151,0l-2.1922,-2.31555c-1.69937,-2.84882 -3.82648,-6.3956 -4.4536,-9.71486c-0.19711,-1.04329 -0.26248,-2.13485 -0.2188,-3.24929c-8.87394,2.29707 -12.94256,11.91198 -11.39109,20.32792c0.4857,0.65227 0.54823,1.3469 0.46128,1.92748c0.98688,3.32766 2.91438,6.34784 5.83734,8.48707l-0.58428,-0.58428c0,0 2.92142,0 2.92142,2.92142c0,2.92142 -2.92142,2.92142 -2.92142,2.92142l-2.92142,-0.58428c-2.6623,-2.0336 -4.3512,-4.09063 -5.61174,-6.58634c-3.79843,9.049 -4.5904,21.5517 5.52816,25.49238l0.08358,-0.20895c0,0 2.92142,0 2.92142,2.92142c0,2.92142 -2.92142,2.92142 -2.92142,2.92142l-2.25356,-0.20895c-2.73308,-1.11596 -4.92039,-2.65541 -6.62914,-4.50045c-1.40301,2.16264 -2.96499,4.42358 -3.42501,6.93021c-0.27158,1.47982 0.3733,4.2359 0.58226,5.47889c0.9324,5.54636 1.49265,11.50684 4.74687,16.30063c1.52083,2.24033 2.50153,1.72959 4.68646,3.49549c3.67128,2.96722 5.31229,7.26234 9.80424,8.93876l2.14697,1.36065c0.91987,-7.68865 2.00047,-15.35414 4.73809,-22.6414c2.10943,-3.70387 3.71198,-7.63866 6.02728,-11.2408c0.4567,-0.71054 0.92864,-1.41642 1.41535,-2.11635c-1.49999,-0.15877 -2.24999,-1.65876 -2.24999,-1.65876zM141.38014,160.33832c-1.73882,1.30411 -3.15421,0.34431 -3.76495,-0.2326c-9.41025,4.21408 -17.39698,12.18955 -22.89187,20.73569c-2.17744,3.38655 -3.66434,7.09501 -5.65841,10.57249c-3.30146,8.82453 -4.56733,19.15967 -5.182,28.54368c-0.07107,1.08511 0.12872,2.31006 0.35298,3.54917c0.10349,-0.2129 0.20333,-0.4256 0.29663,-0.63839c2.28453,-5.21073 5.32839,-10.27487 7.88171,-15.37746c4.13947,-7.24994 8.75299,-15.31785 15.00069,-21.01794c9.30142,-8.48616 26.74232,-15.12368 37.47379,-5.45333c2.01398,1.81483 2.74262,3.47683 4.05481,5.75561c2.96214,5.18794 6.7565,11.67365 4.93384,17.87693c-1.35056,4.59651 -4.96136,8.73259 -7.95271,12.31984c-5.02817,6.02982 -10.67859,11.01125 -17.49814,14.66746c2.15956,-0.58461 4.28947,-1.29008 6.37418,-2.10948c2.82179,-1.10911 5.11896,-3.49809 7.20343,-5.58735c5.97266,-5.98639 10.87456,-12.76103 14.21738,-20.5872c1.83734,-3.66966 4.54749,-7.22428 5.67337,-11.22059c0.51028,-1.81122 -0.56386,-3.82163 -0.09638,-5.64438c0.52042,-2.02914 0.85057,-4.67152 2.68577,-5.68159c1.40713,-0.77447 3.57814,2.56952 4.70211,2.26195c0.0536,-0.02678 0.10893,-0.05291 0.16607,-0.07833c0.07798,-0.05455 0.14917,-0.13324 0.21274,-0.23964c0.7078,-1.18481 0.13213,-3.56206 1.47801,-3.8676c1.62896,-0.36981 3.20971,0.877 4.62071,1.93176c0.12399,-0.75675 0.37837,-1.49934 0.7231,-2.17545c0.88711,-1.73986 1.48716,-4.10264 3.2932,-4.84578c3.39341,-1.3963 6.98418,2.14441 9.15217,5.05124c4.4766,-1.72242 8.64667,-4.0869 11.55634,-7.43562c2.40673,-2.76988 5.33462,-5.19446 6.41811,-8.85116c1.20666,-4.07243 0.71093,-9.39764 -0.1069,-13.48679c0,-6.70396 -2.07819,-13.55568 -3.98309,-19.90538c-0.46961,-1.56538 -0.74261,-3.53692 -1.29105,-5.30563c-0.95936,-0.26602 -1.96731,-0.5235 -3.00424,-0.75113c0.51457,4.45322 0.23314,8.61734 -0.01766,13.0788c-0.35686,6.34818 0.70152,14.36342 -2.76322,20.06208c-1.46024,2.40175 -3.01212,3.40942 -5.10936,5.15787c-7.53665,4.26421 -14.94277,5.03381 -23.43252,4.00734c-3.32738,-0.4023 -7.59648,-1.18272 -10.36231,-3.2855c-1.04332,-0.79321 -2.02854,-1.92039 -2.91486,-3.22312l-0.09101,0.0088c-7.54087,6.17193 -17.92786,5.10485 -25.19628,-0.55031c0.42129,1.48092 1.08871,2.90089 1.35568,4.41728l1.42301,1.77672c0,0 1.75285,2.33714 -0.58428,4.08999c-2.33714,1.75285 -4.08999,-0.58428 -4.08999,-0.58428l-2.08269,-2.89756c-0.48219,-2.20491 -1.52643,-4.26678 -1.95458,-6.48281c-0.01131,-0.05853 -0.02221,-0.11734 -0.03272,-0.17638c-0.08899,0.60268 -0.41437,1.24742 -1.18856,1.82806zM215.37936,112.11343c1.26638,-5.06554 3.06323,-10.23975 3.0346,-15.46989c-0.30058,-2.73062 -1.26238,-4.85514 -2.75744,-7.18183c-0.23946,-0.37267 -0.43029,-0.99095 -0.87313,-1.00185c-0.52619,-0.01296 -0.76034,0.78958 -1.26189,0.94928c-1.68064,0.53513 -3.59135,1.87573 -5.17564,1.1005c-1.56177,-0.76421 -1.46832,-3.15232 -2.22083,-4.71976c-0.79411,-1.6541 -1.80206,-3.22895 -3.01635,-4.60451c-0.27364,-0.31 -0.4521,-0.88545 -0.86558,-0.88858c-2.05569,-0.01555 -2.73803,4.10274 -4.78306,3.8932c-4.31867,-0.4425 -4.97015,-7.81174 -10.13672,-7.80109c-2.53569,0.00524 -1.59984,1.97219 -1.67706,3.20295l0.73792,3.32062c0.0544,0.22282 0.08324,0.45567 0.08324,0.69525c0,1.61345 -1.30797,2.92142 -2.92142,2.92142c-1.10613,0 -2.06868,-0.61475 -2.56465,-1.52123l-1.23133,-2.15484c-1.33559,-0.76135 -3.95989,-2.94316 -5.38352,-2.71443c-1.76719,0.28393 0.50108,4.11104 0.56853,4.26588c1.27055,2.91699 3.48591,4.87356 4.69984,7.85206c1.85991,4.56341 2.54445,9.9405 1.15661,14.5474c0.20538,-0.02712 0.41085,-0.05141 0.6164,-0.07267c3.01979,-0.31246 6.30458,-0.01345 9.34001,0c2.10944,0.42189 4.28524,0.38427 6.42713,0.58428c6.11046,0.5706 12.32189,3.0512 17.98679,5.31773zM164.41541,134.88391c2.62299,0.74205 4.7338,-0.12951 7.35889,-0.64866c7.01101,-1.38653 12.31034,-6.09671 17.83876,-10.19922c5.09836,-2.08172 9.91629,-5.12913 15.20595,-6.68065c1.4162,-0.41539 2.89626,-0.67116 4.40727,-0.79658c-4.08869,-1.58938 -8.40097,-3.05597 -12.62696,-3.42873c-2.1429,-0.18902 -4.31769,-0.1624 -6.42713,-0.58428c-2.68043,0.01447 -5.52395,-0.25449 -8.18853,0c-5.13283,0.49023 -10.34322,3.24398 -15.27635,4.58043c-3.14984,0.85332 -7.40048,1.8908 -9.56982,4.80655c-0.81501,1.09544 -1.07075,2.48771 -1.46057,3.8176c3.05196,3.11482 4.49198,7.93221 8.7385,9.13356zM192.69974,136.39783c0.18705,2.05281 -2.4677,3.32884 -3.96513,4.74544c-0.74229,0.70222 -3.10149,0.54073 -2.68731,1.47484c0.52274,1.17895 2.34389,1.07716 3.52925,1.58518l2.44614,2.80932c0,0 0.63493,0.76192 0.72096,1.76783c5.05461,-0.21163 10.21643,0.42854 15.45943,1.6066l2.75746,1.16904c1.95974,-4.67063 1.30972,-10.23276 1.60942,-15.68902c0.23142,-4.21325 0.55339,-8.11335 0.01809,-12.33034l-0.2101,-1.25222c-2.03756,-0.07477 -4.04654,0.101 -5.89405,0.67152c-4.88211,1.50759 -9.24494,4.31852 -14.00828,6.17361c-0.99119,0.75534 -2.04008,1.55694 -3.13802,2.37378c1.67225,0.16411 3.03939,1.35254 3.36214,4.89445zM181.69578,206.4968c2.89256,3.85675 5.48961,8.46055 8.59657,12.06624c2.86511,3.32502 8.17919,5.62006 11.983,7.51943c0.78086,0.38992 1.58849,0.88455 2.41395,1.40009c-4.83137,-9.63059 -8.50622,-19.82969 -11.83661,-29.98916c-0.97594,-2.97716 -2.65754,-5.83983 -4.0715,-8.72308c-0.27307,-0.03181 -0.53344,-0.09007 -0.77406,-0.17782c0.02517,0.39751 0.02396,0.79832 0.01842,1.19029c-0.01842,1.30362 -0.16722,2.61742 -0.49122,3.88027c-1.11864,4.36009 -4.03208,8.18411 -6.01232,12.15079c-0.04943,0.11496 -0.09916,0.22973 -0.1492,0.3443zM128.81916,210.07776c-1.93875,-2.17939 -5.36589,-3.64428 -8.27804,-4.85113c-1.01618,1.6413 -2.00225,3.31968 -2.97541,5.02126c-0.10328,0.20672 -0.20742,0.41337 -0.31234,0.61997c0.53284,0.71352 0.63546,1.5344 0.63546,1.5344l0.32726,2.77968c1.07507,2.80937 2.06615,5.17278 3.33629,7.12909c4.21617,-2.03242 6.53062,-5.62099 10.03616,-8.85884c-0.88514,-1.16282 -1.80621,-2.29172 -2.76938,-3.37443zM146.67376,199.80663c0.08318,0.08292 0.166,0.16618 0.24846,0.24978c2.16546,-2.08427 4.21898,-4.28443 6.07055,-6.69255c-3.04139,-3.64353 -6.83836,-6.09211 -11.93193,-5.35651c0,0 -2.26362,0.28296 -3.04034,-1.6515c-2.09155,1.28224 -4.00867,2.72569 -5.7863,4.30219c5.25848,2.26296 10.42903,5.15041 14.43955,9.14858zM144.40355,222.61138l0.9692,1.25467c0,0 0.87779,1.17039 0.56278,2.47588c2.97802,-1.62742 5.70685,-3.54958 8.24328,-5.71188c-0.34162,-0.37443 -0.51243,-0.71605 -0.51243,-0.71605l-0.31302,-0.63611c-2.26534,-3.96436 -4.61939,-7.51115 -7.23593,-10.65769c-2.22021,1.916 -4.48033,3.78998 -6.70266,5.70118c1.78348,2.72757 3.42363,5.551 4.98877,8.29zM133.10165,206.10295c1.02279,1.0915 1.99745,2.24728 2.93112,3.44842c2.03634,-1.73072 4.09791,-3.43662 6.12178,-5.18214c-3.98594,-3.79218 -8.6215,-6.84801 -14.35419,-9.21203c-1.41645,1.62883 -2.74316,3.34702 -4.00644,5.13336c3.36416,1.48143 6.90058,3.24353 9.30772,5.81238zM158.42638,216.379l0.07917,0.15662c1.66333,-1.73494 3.24567,-3.57591 4.76773,-5.50301c-0.43189,-0.42482 -0.64784,-0.85671 -0.64784,-0.85671l-0.70256,-1.41516c-1.66514,-2.93291 -3.38477,-6.7657 -5.47228,-10.34602c-1.77228,2.14615 -3.69488,4.13784 -5.70225,6.04192c2.89858,3.7411 5.35471,7.85652 7.67805,11.92236zM206.41075,155.94819c-8.99279,-1.97051 -17.77693,-2.23215 -26.01556,1.61689c1.99326,1.35739 5.11133,1.79017 7.38855,2.0498c6.94521,0.79187 13.20781,0.59662 19.41502,-3.00408c0.08445,-0.07034 0.16754,-0.1411 0.24927,-0.21231zM140.69848,227.37175l-1.36794,-1.86152c-1.37925,-2.41368 -2.81679,-4.85004 -4.35674,-7.22165c-3.20166,3.05181 -5.613,6.05833 -9.14995,8.2818c1.42955,0.885 3.1517,1.58819 5.29017,2.12281c0.68392,0.2931 3.87323,1.79475 4.91019,1.79475c1.74193,0 4.05475,-1.18243 5.91221,-2.13313c-0.77189,-0.36166 -1.23794,-0.98305 -1.23794,-0.98305zM168.28521,202.95902c1.43809,-4.18545 -2.45721,-9.86219 -4.41471,-13.28491c-0.34867,-0.61572 -0.72527,-1.19124 -1.12715,-1.72738c-0.93972,1.84858 -1.74372,3.77013 -2.77261,5.56629c2.58205,3.9659 4.7515,8.39276 6.99036,12.28837c0.53593,-0.93413 0.99628,-1.88823 1.32411,-2.84237zM160.12365,141.48615c-0.20474,0.93475 -2.34061,0.40712 -2.53683,1.34368c-0.17572,0.83864 1.7488,0.89685 1.89032,1.74194c0.09163,0.54716 0.18125,1.13137 0.23461,1.72231c3.33249,-0.04574 6.6659,0.49294 9.92688,1.67901c-0.19212,-2.59019 0.54047,-4.87628 1.53849,-7.10371c-2.80131,0.51779 -5.63486,0.47814 -8.42662,-0.38484c-0.91145,-0.28175 -1.6833,-0.60825 -2.35834,-0.98046c-0.03267,0.68205 -0.13171,1.35742 -0.26853,1.98208zM168.7619,153.90521c-5.49254,-2.37618 -11.35153,-2.28815 -16.89595,-0.33155c5.13652,4.17256 12.79344,5.40421 18.12412,0.85536l0.11602,-0.06551zM158.07465,184.28236c0.01592,-0.09869 0.03781,-0.20991 0.06793,-0.3292c-3.33118,-1.79851 -7.30127,-2.18646 -11.27306,-1.36068c3.69263,0.93075 6.67291,3.06048 9.21613,5.82262c0.66731,-1.37763 1.27799,-2.79462 1.989,-4.13274zM113.33449,223.44105c1.46395,2.00029 3.23264,3.30608 5.1444,4.45947c-2.19592,-2.57224 -3.77618,-5.75803 -5.23922,-9.48602c-0.67284,1.26392 -1.33322,2.53174 -1.96039,3.80638c1.24853,0.1446 2.05521,1.22016 2.05521,1.22016zM152.18305,134.25852c0.7366,-0.51936 1.49342,-0.95373 2.29002,-1.14821c-0.35553,-0.51367 -0.75952,-1.12884 -1.21117,-1.72813c-0.38611,0.95617 -0.7442,1.91434 -1.07885,2.87634z" fill="#000000" stroke-width="0.5"></path><path d="M153.25961,131.33224c0.45165,0.59929 0.90641,1.27668 1.26194,1.79035c-0.7966,0.19448 -1.63303,0.65569 -2.36963,1.17505c0.33465,-0.962 0.72159,-2.00923 1.1077,-2.9654z" data-paper-data="{&quot;noHover&quot;:false,&quot;origItem&quot;:[&quot;Path&quot;,{&quot;applyMatrix&quot;:true,&quot;segments&quot;:[[[212.18305,146.25852],[0.33465,-0.962],[0.7366,-0.51936]],[[214.47307,145.11031],[-0.7966,0.19448],[-0.35553,-0.51367]],[[213.2619,143.38218],[0.45165,0.59929],[-0.38611,0.95617]]],&quot;closed&quot;:true,&quot;fillColor&quot;:[0,0,0,1]}]}" fill="#ffffff" stroke-width="0.5"></path><path d="M158.43426,216.42838c-2.32334,-4.06584 -4.83236,-8.25235 -7.73094,-11.99345c2.00737,-1.90408 3.97193,-3.92396 5.74421,-6.07011c2.08751,3.58032 3.8586,7.47567 5.52374,10.40858l0.69925,1.42417c0,0 0.21437,0.43491 0.64626,0.85973c-1.52206,1.9271 -3.13974,3.79271 -4.80307,5.52765l-0.07946,-0.15657z" data-paper-data="{&quot;noHover&quot;:false,&quot;origItem&quot;:[&quot;Path&quot;,{&quot;applyMatrix&quot;:true,&quot;segments&quot;:[[218.42638,228.379],[[218.50555,228.53562],[0,0],[1.66333,-1.73494]],[[223.27328,223.03261],[-1.52206,1.9271],[-0.43189,-0.42482]],[222.62544,222.1759],[[221.92288,220.76074],[0,0],[-1.66514,-2.93291]],[[216.4506,210.41472],[2.08751,3.58032],[-1.77228,2.14615]],[[210.74835,216.45664],[2.00737,-1.90408],[2.89858,3.7411]],[[218.4264,228.379],[-2.32334,-4.06584],[0,0]]],&quot;closed&quot;:true,&quot;fillColor&quot;:[0,0,0,1]}]}" fill="#ffffff" stroke-width="0.5"></path><path d="M166.97547,205.84928c-2.23886,-3.89561 -4.46211,-8.4011 -7.04416,-12.367c1.02889,-1.79616 1.86383,-3.73625 2.80355,-5.58483c0.40188,0.53614 0.78412,1.11101 1.13279,1.72673c1.9575,3.42272 5.88314,9.19115 4.44505,13.3766c-0.32783,0.95414 -0.80129,1.91436 -1.33722,2.84849z" data-paper-data="{&quot;noHover&quot;:false,&quot;origItem&quot;:[&quot;Path&quot;,{&quot;applyMatrix&quot;:true,&quot;segments&quot;:[[[228.28521,214.95902],[-0.32783,0.95414],[1.43809,-4.18545]],[[223.8705,201.67411],[1.9575,3.42272],[-0.34867,-0.61572]],[[222.74335,199.94673],[0.40188,0.53614],[-0.93972,1.84858]],[[219.97074,205.51302],[1.02889,-1.79616],[2.58205,3.9659]],[[226.9611,217.80139],[-2.23886,-3.89561],[0.53593,-0.93413]]],&quot;closed&quot;:true,&quot;fillColor&quot;:[0,0,0,1]}]}" fill="#ffffff" stroke-width="0.5"></path><path d="M156.12336,188.44794c-2.54322,-2.76214 -5.60628,-4.94634 -9.29891,-5.87709c3.97179,-0.82578 8.0356,-0.4278 11.36678,1.37071c-0.03012,0.11929 -0.05146,0.23314 -0.06738,0.33183c-0.71101,1.33812 -1.33318,2.79691 -2.00049,4.17454z" data-paper-data="{&quot;noHover&quot;:false,&quot;origItem&quot;:[&quot;Path&quot;,{&quot;applyMatrix&quot;:true,&quot;segments&quot;:[[[218.07465,196.28236],[-0.71101,1.33812],[0.01592,-0.09869]],[[218.14258,195.95316],[-0.03012,0.11929],[-3.33118,-1.79851]],[[206.86952,194.59248],[3.97179,-0.82578],[3.69263,0.93075]],[[216.08565,200.4151],[-2.54322,-2.76214],[0.66731,-1.37763]]],&quot;closed&quot;:true,&quot;fillColor&quot;:[0,0,0,1]}]}" fill="#ffffff" stroke-width="0.5"></path><path d="M146.69995,199.84921c-4.01052,-3.99817 -9.25583,-6.94013 -14.51431,-9.20309c1.77763,-1.5765 3.71546,-3.04956 5.80701,-4.3318c0.77672,1.93446 3.05388,1.64512 3.05388,1.64512c5.09357,-0.7356 8.95484,1.76165 11.99623,5.40518c-1.85157,2.40812 -3.92846,4.64984 -6.09392,6.73411c-0.08246,-0.0836 -0.1657,-0.1666 -0.24888,-0.24952z" data-paper-data="{&quot;noHover&quot;:false,&quot;origItem&quot;:[&quot;Path&quot;,{&quot;applyMatrix&quot;:true,&quot;segments&quot;:[[[206.67376,211.80663],[0,0],[0.08318,0.08292]],[[206.92222,212.05641],[-0.08246,-0.0836],[2.16546,-2.08427]],[[212.99277,205.36386],[-1.85157,2.40812],[-3.04139,-3.64353]],[[201.06084,200.00735],[5.09357,-0.7356],[0,0]],[[198.0205,198.35585],[0.77672,1.93446],[-2.09155,1.28224]],[[192.2342,202.65804],[1.77763,-1.5765],[5.25848,2.26296]],[[206.67375,211.80662],[-4.01052,-3.99817],[0,0]]],&quot;closed&quot;:true,&quot;fillColor&quot;:[0,0,0,1]}]}" fill="#ffffff" stroke-width="0.5"></path><path d="M133.10334,206.15291c-2.40714,-2.56885 -5.99404,-4.39189 -9.3582,-5.87332c1.26328,-1.78634 2.60959,-3.53416 4.02604,-5.16299c5.73269,2.36402 10.44627,5.47117 14.43221,9.26335c-2.02387,1.74552 -4.11472,3.48672 -6.15106,5.21744c-0.93367,-1.20114 -1.92619,-2.35297 -2.94898,-3.44447z" data-paper-data="{&quot;noHover&quot;:false,&quot;origItem&quot;:[&quot;Path&quot;,{&quot;applyMatrix&quot;:true,&quot;segments&quot;:[[[193.10165,218.10295],[0,0],[1.02279,1.0915]],[[196.03277,221.55137],[-0.93367,-1.20114],[2.03634,-1.73072]],[[202.15455,216.36923],[-2.02387,1.74552],[-3.98594,-3.79218]],[[187.80036,207.1572],[5.73269,2.36402],[-1.41645,1.62883]],[[183.79392,212.29056],[1.26328,-1.78634],[3.36416,1.48143]],[[193.10164,218.10294],[-2.40714,-2.56885],[0,0]]],&quot;closed&quot;:true,&quot;fillColor&quot;:[0,0,0,1]}]}" fill="#ffffff" stroke-width="0.5"></path><path d="M144.38241,222.65669c-1.56514,-2.739 -3.23012,-5.62742 -5.0136,-8.35499c2.22233,-1.9112 4.52459,-3.81536 6.7448,-5.73136c2.61654,3.14654 5.02263,6.7564 7.28797,10.72076l0.31193,0.63959c0,0 0.16967,0.34455 0.51129,0.71898c-2.53643,2.1623 -5.31609,4.11461 -8.29411,5.74203c0.31501,-1.30549 -0.56883,-2.47684 -0.56883,-2.47684l-0.97945,-1.25816z" data-paper-data="{&quot;noHover&quot;:false,&quot;origItem&quot;:[&quot;Path&quot;,{&quot;applyMatrix&quot;:true,&quot;segments&quot;:[[204.40355,234.61138],[205.37275,235.86605],[[205.93553,238.34193],[0.31501,-1.30549],[2.97802,-1.62742]],[[214.17881,232.63005],[-2.53643,2.1623],[-0.34162,-0.37443]],[213.66638,231.914],[[213.35336,231.27789],[0,0],[-2.26534,-3.96436]],[[206.11743,220.6202],[2.61654,3.14654],[-2.22021,1.916]],[[199.41477,226.32138],[2.22233,-1.9112],[1.78348,2.72757]],[[204.40354,234.61138],[-1.56514,-2.739],[0,0]]],&quot;closed&quot;:true,&quot;fillColor&quot;:[0,0,0,1]}]}" fill="#ffffff" stroke-width="0.5"></path><path d="M131.6385,213.44999c-3.50554,3.23785 -5.88586,6.87603 -10.10203,8.90845c-1.27014,-1.95631 -2.29405,-4.35602 -3.36912,-7.16539l-0.32745,-2.80102c0,0 -0.10003,-0.8294 -0.63287,-1.54292c0.10492,-0.2066 0.21093,-0.41734 0.31421,-0.62406c0.97316,-1.70158 1.98303,-3.40264 2.99921,-5.04394c2.91215,1.20685 6.39827,2.68512 8.33702,4.86451c0.96317,1.08271 1.89589,2.24155 2.78103,3.40437z" data-paper-data="{&quot;noHover&quot;:false,&quot;origItem&quot;:[&quot;Path&quot;,{&quot;applyMatrix&quot;:true,&quot;segments&quot;:[[[188.81916,222.07776],[0.96317,1.08271],[-1.93875,-2.17939]],[[180.54112,217.22663],[2.91215,1.20685],[-1.01618,1.6413]],[[177.56571,222.24789],[0.97316,-1.70158],[-0.10328,0.20672]],[[177.25337,222.86786],[0.10492,-0.2066],[0.53284,0.71352]],[177.88883,224.40226],[[178.21609,227.18194],[0,0],[1.07507,2.80937]],[[181.55238,234.31103],[-1.27014,-1.95631],[4.21617,-2.03242]],[[191.58854,225.45219],[-3.50554,3.23785],[-0.88514,-1.16282]]],&quot;closed&quot;:true,&quot;fillColor&quot;:[0,0,0,1]}]}" fill="#ffffff" stroke-width="0.5"></path><path d="M140.74429,227.39181c0,0 0.4651,0.62343 1.23699,0.98509c-1.85746,0.9507 -4.19856,2.15821 -5.94049,2.15821c-1.03696,0 -4.26988,-1.50676 -4.9538,-1.79986c-2.13847,-0.53462 -3.88185,-1.2668 -5.3114,-2.1518c3.53695,-2.22347 6.00538,-5.29228 9.20704,-8.34409c1.53995,2.37161 3.01764,4.86727 4.39689,7.28095l1.36477,1.87148z" data-paper-data="{&quot;noHover&quot;:false,&quot;origItem&quot;:[&quot;Path&quot;,{&quot;applyMatrix&quot;:true,&quot;segments&quot;:[[200.69848,239.37175],[[199.33054,237.51023],[0,0],[-1.37925,-2.41368]],[[194.9738,230.28858],[1.53995,2.37161],[-3.20166,3.05181]],[[185.82385,238.57038],[3.53695,-2.22347],[1.42955,0.885]],[[191.11402,240.69319],[-2.13847,-0.53462],[0.68392,0.2931]],[[196.02421,242.48794],[-1.03696,0],[1.74193,0]],[[201.93642,240.35481],[-1.85746,0.9507],[-0.77189,-0.36166]],[200.69848,239.37176]],&quot;closed&quot;:true,&quot;fillColor&quot;:[0,0,0,1]}]}" fill="#ffffff" stroke-width="0.5"></path><path d="M160.07945,141.46276c0.13682,-0.62466 0.24578,-1.31304 0.27845,-1.99509c0.67504,0.37221 1.45881,0.6904 2.37026,0.97215c2.79176,0.86298 5.69373,0.92792 8.49504,0.41013c-0.99802,2.22743 -1.73772,4.5643 -1.5456,7.15449c-3.26098,-1.18607 -6.67719,-1.73207 -10.00968,-1.68633c-0.05336,-0.59094 -0.14842,-1.19079 -0.24005,-1.73795c-0.14152,-0.84509 -2.06631,-0.91832 -1.89059,-1.75696c0.19622,-0.93656 2.33746,-0.4257 2.5422,-1.36045z" data-paper-data="{&quot;noHover&quot;:false,&quot;origItem&quot;:[&quot;Path&quot;,{&quot;applyMatrix&quot;:true,&quot;segments&quot;:[[[220.12365,153.48615],[0,0],[-0.20474,0.93475]],[[217.58682,154.82983],[0.19622,-0.93656],[-0.17572,0.83864]],[[219.47714,156.57177],[-0.14152,-0.84509],[0.09163,0.54716]],[[219.71175,158.29408],[-0.05336,-0.59094],[3.33249,-0.04574]],[[229.63863,159.97309],[-3.26098,-1.18607],[-0.19212,-2.59019]],[[231.17712,152.86938],[-0.99802,2.22743],[-2.80131,0.51779]],[[222.7505,152.48454],[2.79176,0.86298],[-0.91145,-0.28175]],[[220.39216,151.50408],[0.67504,0.37221],[-0.03267,0.68205]],[[220.12363,153.48616],[0.13682,-0.62466],[0,0]]],&quot;closed&quot;:true,&quot;fillColor&quot;:[0,0,0,1]}]}" fill="#ffffff" stroke-width="0.5"></path><path d="M192.64989,136.39406c-0.32275,-3.54191 -1.68411,-4.75014 -3.35636,-4.91425c1.09794,-0.81684 2.15757,-1.6321 3.14876,-2.38744c4.76334,-1.85509 9.18204,-4.67339 14.06415,-6.18098c1.84751,-0.57052 3.86709,-0.73911 5.90465,-0.66434l0.21202,1.25402c0.5353,4.21699 0.22812,8.14878 -0.0033,12.36203c-0.2997,5.45626 0.33139,11.06165 -1.62835,15.73228l-2.76112,-1.16642c-5.243,-1.17806 -10.45665,-1.8166 -15.51126,-1.60497c-0.08603,-1.00591 -0.72599,-1.77108 -0.72599,-1.77108l-2.45675,-2.8199c-1.18536,-0.50802 -3.0123,-0.41635 -3.53504,-1.5953c-0.41418,-0.93411 1.94452,-0.77384 2.68681,-1.47606c1.49743,-1.4166 4.14882,-2.71481 3.96177,-4.76762z" data-paper-data="{&quot;noHover&quot;:false,&quot;origItem&quot;:[&quot;Path&quot;,{&quot;applyMatrix&quot;:true,&quot;segments&quot;:[[[252.69974,148.39783],[0,0],[0.18705,2.05281]],[[248.73461,153.14327],[1.49743,-1.4166],[-0.74229,0.70222]],[[246.0473,154.61811],[-0.41418,-0.93411],[0.52274,1.17895]],[[249.57655,156.20329],[-1.18536,-0.50802],[0,0]],[252.02269,159.01261],[[252.74365,160.78044],[-0.08603,-1.00591],[5.05461,-0.21163]],[[268.20308,162.38704],[-5.243,-1.17806],[0,0]],[[270.96054,163.55608],[0,0],[1.95974,-4.67063]],[[272.56996,147.86706],[-0.2997,5.45626],[0.23142,-4.21325]],[[272.58805,135.53672],[0.5353,4.21699],[0,0]],[[272.37795,134.2845],[0,0],[-2.03756,-0.07477]],[[266.4839,134.95602],[1.84751,-0.57052],[-4.88211,1.50759]],[[252.47562,141.12963],[4.76334,-1.85509],[-0.99119,0.75534]],[[249.3376,143.50341],[1.09794,-0.81684],[1.67225,0.16411]],[[252.69974,148.39786],[-0.32275,-3.54191],[0,0]]],&quot;closed&quot;:true,&quot;fillColor&quot;:[0,0,0,1]}]}" fill="#ffffff" stroke-width="0.5"></path><path d="M211.63904,263.86245c-2.93558,-0.73246 -5.84145,-1.75182 -8.7365,-2.40111c1.12394,-1.60647 2.28901,-3.25287 3.34988,-4.87232c0.31555,0.14558 0.63502,0.28988 0.9423,0.43937l1.05142,-0.00352c1.96615,0 3.72089,1.18037 4.53763,2.83076c0.47827,0.20508 0.90821,0.40282 1.30161,0.61132c-0.88057,1.07465 -1.70128,2.2344 -2.44591,3.39561c-0.00027,-0.00007 -0.00041,-0.0001 -0.00041,-0.0001z" data-paper-data="{&quot;noHover&quot;:false,&quot;origItem&quot;:[&quot;Path&quot;,{&quot;applyMatrix&quot;:true,&quot;segments&quot;:[[271.60634,275.82464],[[271.60675,275.82474],[-0.00027,-0.00007],[0.74463,-1.16121]],[[274.03543,272.4648],[-0.88057,1.07465],[-0.3934,-0.2085]],[[272.73396,271.85994],[0.47827,0.20508],[-0.81674,-1.65039]],[[268.24999,269.07471],[1.96615,0],[0,0]],[[267.21353,269.07471],[0,0],[-0.30728,-0.14949]],[[266.27864,268.63159],[0.31555,0.14558],[-1.06087,1.61945]],[[262.95137,273.45057],[1.12394,-1.60647],[2.89505,0.64929]],[[271.60632,275.82464],[-2.93558,-0.73246],[0,0]]],&quot;closed&quot;:true,&quot;fillColor&quot;:[0,0,0,1]}]}" fill="#ffde00" stroke-width="0.5"></path><path d="M196.60875,273.85036c0.37105,-1.42805 0.75288,-2.8938 1.36474,-4.24572c0.56259,-1.24306 1.23956,-2.47559 1.9493,-3.65414c3.09322,0.47767 6.10912,1.51033 9.18032,2.35275c-1.30506,2.57377 -2.47637,5.30728 -3.63307,7.9591c-0.35353,-0.23836 -0.66067,-0.33773 -0.66067,-0.33773l-3.03237,-0.99822c-1.65886,-0.53631 -3.42469,-0.92444 -5.16823,-1.07605z" data-paper-data="{&quot;noHover&quot;:false,&quot;origItem&quot;:[&quot;Path&quot;,{&quot;applyMatrix&quot;:true,&quot;segments&quot;:[[[261.79057,286.87829],[-1.65886,-0.53631],[0,0]],[264.79057,287.87829],[[265.44742,288.21776],[-0.35353,-0.23836],[1.1567,-2.65182]],[[269.05748,280.32372],[-1.30506,2.57377],[-3.0712,-0.84242]],[[259.94751,277.99396],[3.09322,0.47767],[-0.70974,1.17855]],[[258.02128,281.61934],[0.56259,-1.24306],[-0.61186,1.35192]],[[256.65453,285.83025],[0.37105,-1.42805],[1.74354,0.15161]]],&quot;closed&quot;:true,&quot;fillColor&quot;:[0,0,0,1]}]}" fill="#ffde00" stroke-width="0.5"></path><path d="M193.37434,289.82492c-1.41341,-0.23953 -2.89276,-0.29672 -4.29622,-0.57063c2.0249,-3.43225 4.41179,-6.92352 5.9808,-10.55407c1.73829,-0.01292 3.53764,0.31213 5.17974,0.88091l3.01285,1.01356c0,0 0.09346,0.0319 0.24857,0.06318c-1.58787,3.54588 -3.07575,7.17833 -4.45733,10.76515c-1.86517,-0.57603 -3.74732,-1.27253 -5.66839,-1.5981z" data-paper-data="{&quot;noHover&quot;:false,&quot;origItem&quot;:[&quot;Path&quot;,{&quot;applyMatrix&quot;:true,&quot;segments&quot;:[[[253.40046,301.78228],[0,0],[1.92107,0.32557]],[[259.02288,303.37714],[-1.86517,-0.57603],[1.38158,-3.58682]],[[263.45741,292.68394],[-1.58787,3.54588],[-0.15511,-0.03128]],[263.20943,292.6217],[[260.20943,291.6217],[0,0],[-1.6421,-0.56878]],[[255.06841,290.74931],[1.73829,-0.01292],[-1.56901,3.63055]],[[249.12135,301.22916],[2.0249,-3.43225],[1.40346,0.27391]],[[253.40045,301.78227],[-1.41341,-0.23953],[0,0]]],&quot;closed&quot;:true,&quot;fillColor&quot;:[0,0,0,1]}]}" fill="#ffde00" stroke-width="0.5"></path><path d="M183.69033,304.76259c0.14826,-0.82836 0.28668,-1.66803 0.42047,-2.49644c1.08792,-2.70793 1.5903,-5.76772 2.64117,-8.50827c3.41192,1.04327 6.99708,1.62161 10.52053,2.38958c-1.16215,3.19218 -2.29203,6.47636 -3.37813,9.72584l-0.07977,0.04883c-3.41153,-1.10293 -6.69914,-1.18063 -10.12428,-1.15954z" data-paper-data="{&quot;noHover&quot;:false,&quot;origItem&quot;:[&quot;Path&quot;,{&quot;applyMatrix&quot;:true,&quot;segments&quot;:[[[253.79057,317.87829],[-3.41153,-1.10293],[0,0]],[[253.86975,317.82979],[0,0],[1.0861,-3.24948]],[[257.22858,308.17134],[-1.16215,3.19218],[-3.52345,-0.76797]],[[246.77811,305.80051],[3.41192,1.04327],[-1.05087,2.74055]],[[244.15753,314.24835],[1.08792,-2.70793],[-0.13379,0.82841]],[[243.73081,316.73324],[0.14826,-0.82836],[3.42514,-0.02109]]],&quot;closed&quot;:true,&quot;fillColor&quot;:[0,0,0,1]}]}" fill="#ffde00" stroke-width="0.5"></path><path d="M222.98521,280.79777c-1.72421,0.02141 -3.49157,-0.29378 -5.12579,-0.84766c1.40054,-3.44127 2.99418,-6.86569 4.7661,-10.14282c1.20518,0.12615 2.4646,0.37389 3.6028,0.76813l0.03922,0.40695c0,0 1.68262,1.80723 3.45039,0.03946c1.76777,-1.76776 0.01448,-3.50422 0.01448,-3.50422l-1.95807,-1.592c-0.81306,-0.26286 -1.62285,-0.48095 -2.4642,-0.65535c0.59722,-0.99059 1.21051,-2.07109 1.83544,-3.04246c1.88222,-0.77572 3.97781,-0.89678 6.21733,0.06491c0.20621,0.08855 0.4139,0.18601 0.61794,0.28845c-0.95292,1.73239 -1.58207,3.49629 -2.46843,5.44398c-1.87742,4.12548 -3.35874,8.55666 -4.37038,13.03324c-0.58472,-0.25876 -1.14164,-0.25837 -1.14164,-0.25837l-3.01523,-0.00224z" data-paper-data="{&quot;noHover&quot;:false,&quot;origItem&quot;:[&quot;Path&quot;,{&quot;applyMatrix&quot;:true,&quot;segments&quot;:[[283,292.75],[286,292.75],[[287.13583,293.00876],[-0.58472,-0.25876],[1.01164,-4.47658]],[[291.4694,280.05057],[-1.87742,4.12548],[0.88636,-1.94769]],[[293.94699,274.61792],[-0.95292,1.73239],[-0.20404,-0.10244]],[[293.33114,274.33129],[0.20621,0.08855],[-2.23952,-0.96169]],[[287.13892,274.27734],[1.88222,-0.77572],[-0.62493,0.97137]],[[285.30514,277.2205],[0.59722,-0.99059],[0.84135,0.1744]],[[287.79057,277.8783],[-0.81306,-0.26286],[0,0]],[289.76777,279.48224],[[289.76777,283.01777],[1.76777,-1.76776],[-1.76777,1.76777]],[286.23224,283.01777],[[286.20944,282.62171],[0,0],[-1.1382,-0.39424]],[[282.67091,281.82827],[1.20518,0.12615],[-1.77192,3.27713]],[[277.89358,291.91359],[1.40054,-3.44127],[1.63422,0.55388]],[[283.00002,292.75001],[-1.72421,0.02141],[0,0]]],&quot;closed&quot;:true,&quot;fillColor&quot;:[0,0,0,1]}]}" fill="#ffde00" stroke-width="0.5"></path><path d="M213.27815,294.78091c0.71801,-3.43759 1.67759,-6.89913 2.82646,-10.22834c0.04814,0.01934 0.07597,0.02831 0.07597,0.02831c2.18329,0.70585 4.55672,1.10873 6.85117,1.13051l3.01055,0.01197c0,0 0.0901,0.00062 0.23552,-0.01637c-0.46518,2.98078 -0.74995,6.05634 -0.84315,9.07654l-0.39882,0.00133c-3.89418,0 -7.86352,-0.00395 -11.7577,-0.00395z" data-paper-data="{&quot;noHover&quot;:false,&quot;origItem&quot;:[&quot;Path&quot;,{&quot;applyMatrix&quot;:true,&quot;segments&quot;:[[[285,306.75],[-3.89418,0],[0,0]],[[285.39757,306.75],[0,0],[0.0932,-3.0202]],[[286.23513,297.73301],[-0.46518,2.98078],[-0.14542,0.01699]],[286,297.75],[[283,297.75],[0,0],[-2.29445,-0.02178]],[[276.20943,296.62171],[2.18329,0.70585],[0,0]],[[276.13376,296.59319],[0.04814,0.01934],[-1.14887,3.32921]],[[273.31746,306.75],[0.71801,-3.43759],[3.89418,0]]],&quot;closed&quot;:true,&quot;fillColor&quot;:[0,0,0,1]}]}" fill="#ffde00" stroke-width="0.5"></path><path d="M225.4601,299.73258c0.04994,1.34296 0.13866,2.71182 0.26238,4.0469c-4.70248,0.1279 -9.16356,0.88708 -13.84973,0.97866c0.11845,-1.69515 0.29826,-3.41799 0.53489,-5.09544c0.31809,0.06877 0.54633,0.06775 0.54633,0.06775c3.23377,0 8.52117,0.00211 12.50613,0.00211z" data-paper-data="{&quot;noHover&quot;:false,&quot;origItem&quot;:[&quot;Path&quot;,{&quot;applyMatrix&quot;:true,&quot;segments&quot;:[[[285.41324,311.75],[0,0],[-3.98496,0]],[[273,311.75],[3.23377,0],[0,0]],[[272.45409,311.68123],[0.31809,0.06877],[-0.23663,1.67745]],[[271.91968,316.74088],[0.11845,-1.69515],[4.68617,-0.09158]],[[285.67372,315.76844],[-4.70248,0.1279],[-0.12372,-1.33508]],[[285.41324,311.75001],[0.04994,1.34296],[0,0]]],&quot;closed&quot;:true,&quot;fillColor&quot;:[0,0,0,1]}]}" fill="#ffde00" stroke-width="0.5"></path><path d="M227.53978,315.21974c0,2.21628 1.97221,2.48175 2.41817,2.5103c0.03543,0.02352 0.07205,0.04665 0.1096,0.0684c2.31752,2.39468 4.98788,5.68576 5.51218,8.86772c0.23026,1.39742 0.82446,3.45123 -0.34836,4.24513c-0.25261,0.171 -0.58237,-0.42336 -0.75692,-0.67353c-0.53358,-0.76475 -0.92218,-1.6202 -1.43944,-2.39608c-0.81707,-1.2256 -1.20141,-2.81573 -2.46921,-3.56565c-7.61037,-4.50163 -8.13276,3.61285 -9.68649,8.70931c-1.54561,1.87063 -2.85794,0.97033 -2.40294,-1.38009c0.53431,-2.76008 2.74445,-7.43615 -1.40648,-9.57773c-1.64245,-0.84739 -3.63686,0.35649 -5.33548,1.08478c-0.96716,0.41468 -1.45024,1.52981 -2.27288,2.18603c-2.54992,2.03405 -4.46253,3.76579 -6.34742,6.28278c0.06846,-0.10004 0.04356,-0.13654 0.08909,-0.20648c0.55056,-0.84572 1.0478,-1.7348 1.68568,-2.51675c1.62312,-1.98973 2.8751,-4.18732 4.25584,-6.29123c0.33073,0.05979 0.71557,0.0513 1.16199,-0.0603c2.42536,-0.60634 1.8202,-3.05042 1.8202,-3.05042l-0.19033,-0.63028c0.25163,-0.28003 0.51499,-0.56125 0.78637,-0.83009c0,0 1.77761,-1.78129 0.00984,-3.54906c-0.34359,-0.34358 -0.68802,-0.55275 -1.01862,-0.66816c0,-1.35643 0.00808,-2.71956 0.00808,-4.07598c4.98393,-0.07943 9.62215,-0.91818 14.61383,-0.99121c0.17719,1.08008 0.3864,2.15907 0.61317,3.22589c0.34185,0.58419 0.68978,1.17409 1.03163,1.75828c-0.26359,0.35916 -0.44111,0.85331 -0.44111,1.52442z" data-paper-data="{&quot;noHover&quot;:false,&quot;origItem&quot;:[&quot;Path&quot;,{&quot;applyMatrix&quot;:true,&quot;segments&quot;:[[[287.5,327.25],[0,0],[0,-0.67111]],[[287.94375,325.72877],[-0.26359,0.35916],[-0.34185,-0.58419]],[[286.9182,323.9762],[0.34185,0.58419],[-0.22677,-1.06682]],[[286.31227,320.75509],[0.17719,1.08008],[-4.99168,0.07303]],[[271.75,321.74396],[4.98393,-0.07943],[0,1.35642]],[[271.75,325.81323],[0,-1.35643],[0.3306,0.11541]],[[272.76777,326.48224],[-0.34359,-0.34358],[1.76777,1.76777]],[[272.76777,330.01777],[0,0],[-0.27138,0.26884]],[[271.98403,330.84149],[0.25163,-0.28003],[0,0]],[272.17536,331.46837],[[270.35634,334.50007],[2.42536,-0.60634],[-0.44642,0.1116]],[[269.1944,334.56078],[0.33073,0.05979],[-1.38074,2.10391]],[[264.93336,340.83498],[1.62312,-1.98973],[-0.63788,0.78195]],[[263.24579,343.34839],[0.55056,-0.84572],[-0.04553,0.06994]],[[263.07173,343.6076],[0.06846,-0.10004],[1.88489,-2.51699]],[[269.41503,337.31665],[-2.54992,2.03405],[0.82264,-0.65622]],[[271.68567,335.12338],[-0.96716,0.41468],[1.69862,-0.72829]],[[277.11803,334.01394],[-1.64245,-0.84739],[4.15093,2.14158]],[[278.48126,343.55547],[0.53431,-2.76008],[-0.455,2.35042]],[[280.87336,344.93568],[-1.54561,1.87063],[1.55373,-5.09646]],[[290.51747,336.26324],[-7.61037,-4.50163],[1.2678,0.74992]],[[293.08011,339.86326],[-0.81707,-1.2256],[0.51726,0.77588]],[[294.51747,342.26324],[-0.53358,-0.76475],[0.17455,0.25017]],[[295.18864,342.88532],[-0.25261,0.171],[1.17282,-0.7939]],[[295.53226,338.65046],[0.23026,1.39742],[-0.5243,-3.18196]],[[290.02015,329.81432],[2.31752,2.39468],[-0.03755,-0.02175]],[[289.91069,329.74635],[0.03543,0.02352],[-0.44596,-0.02855]],[[287.49998,327.25],[0,2.21628],[0,0]]],&quot;closed&quot;:true,&quot;fillColor&quot;:[0,0,0,1]}]}" fill="#ffde00" stroke-width="0.5"></path><path d="M189.7947,313.09259c-1.11804,2.23607 1.12518,3.36093 1.12518,3.36093l0.74663,-0.44514c0.13339,0.3851 0.26081,0.78041 0.37805,1.17891c-0.42204,0.36802 -0.75191,0.9503 -0.75191,1.86137c0,1.54735 0.96211,2.1462 1.692,2.37089c0.41398,2.61232 0.57691,5.33172 0.56421,7.83316c-0.00827,3.6391 -0.82826,6.78971 -1.88685,10.24363c-0.24981,0.81508 -0.37213,3.24624 -1.96773,3.31842c-0.69246,0.03132 -1.23214,-0.64676 -1.88038,-0.89224c-2.29193,-0.86793 -4.22019,-1.75615 -5.67645,-3.93802c-0.81535,-1.22162 -0.71254,-3.24312 -2.01564,-3.92069c-1.23718,-0.6433 -2.74733,0.78047 -4.14094,0.73241c-0.92405,-0.03187 -1.69709,-0.84095 -2.61192,-0.97509c-1.31923,-0.19344 -2.68865,0.17962 -4.00858,-0.00894c-1.0435,-0.14907 -1.96428,-0.83801 -3.00465,-1.00756c-0.2803,-0.04568 -0.56411,-0.06673 -0.84852,-0.06903c0.68769,-0.41714 1.47594,-0.89904 2.11267,-1.0732c1.01291,-0.27704 2.24787,0.49636 3.14718,-0.04583c0.20778,-0.12527 0.40789,-0.26036 0.60143,-0.40389l0.06064,0.09092l2.88255,-1.92612c0.68925,-0.44513 1.13985,-1.23367 1.13985,-2.1152c0,-1.1246 -0.74274,-2.09955 -1.7643,-2.41372l-0.87776,-0.29321c0.40949,-0.09183 0.90891,-0.13237 1.28166,0.01896c0.75644,0.30711 0.94221,1.3842 1.64452,1.80046c0.38263,0.22679 0.78991,0.38668 1.21097,0.53127c0.23191,0.72563 0.78412,1.61904 2.30926,1.61904c1.20829,0 1.78414,-0.56053 2.10671,-1.164c0.38941,-0.25394 0.73455,-0.64303 0.95925,-1.31714c0.41876,-1.2563 -0.03166,-2.03371 -0.56497,-2.52022c0.45372,-2.97949 0.26207,-5.74848 0.47682,-8.74499c0.12009,-1.67566 0.3637,-3.43943 0.62998,-5.10026c3.19861,-0.06338 6.29177,-0.16429 9.37731,0.90445l0.66861,0.04869c-0.04746,0.40029 -0.1594,0.87543 -0.20432,1.2757c-0.68643,-0.20834 -2.13851,-0.40313 -2.97211,1.26408z" data-paper-data="{&quot;noHover&quot;:false,&quot;origItem&quot;:[&quot;Path&quot;,{&quot;applyMatrix&quot;:true,&quot;segments&quot;:[[[249.76393,325.13197],[0,0],[0.8336,-1.66721]],[[252.7391,323.87049],[-0.68643,-0.20834],[0.04492,-0.40027]],[[252.87701,322.66954],[-0.04746,0.40029],[0,0]],[[252.20943,322.62171],[0,0],[-3.08554,-1.06874]],[[242.85377,321.72747],[3.19861,-0.06338],[-0.26628,1.66083]],[[242.24517,326.73006],[0.12009,-1.67566],[-0.21475,2.99651]],[[241.78864,335.48511],[0.45372,-2.97949],[0.53331,0.48651]],[[242.37171,338.04058],[0.41876,-1.2563],[-0.2247,0.67411]],[[241.40516,339.38727],[0.38941,-0.25394],[-0.32257,0.60347]],[[239.25,340.57472],[1.20829,0],[-1.52514,0]],[[236.89823,338.91867],[0.23191,0.72563],[-0.42106,-0.14459]],[[235.68567,338.37664],[0.38263,0.22679],[-0.70231,-0.41626]],[[234.04329,336.55971],[0.75644,0.30711],[-0.37275,-0.15133]],[[232.85797,336.56744],[0.40949,-0.09183],[0,0]],[[233.73587,336.86007],[0,0],[1.02156,0.31417]],[[235.49999,339.25001],[0,-1.1246],[0,0.88153]],[[234.35448,341.35164],[0.68925,-0.44513],[0,0]],[231.38674,343.33013],[[231.3258,343.23872],[0,0],[-0.19354,0.14353]],[[230.72445,343.64274],[0.20778,-0.12527],[-0.89931,0.54219]],[[227.57437,343.68313],[1.01291,-0.27704],[-0.63673,0.17416]],[[225.55255,344.71454],[0.68769,-0.41714],[0.28441,0.0023]],[[226.40045,344.78229],[-0.2803,-0.04568],[1.04037,0.16955]],[[229.40045,345.78229],[-1.0435,-0.14907],[1.31993,0.18856]],[[233.40045,345.78229],[-1.31923,-0.19344],[0.91483,0.13414]],[[235.99999,346.75001],[-0.92405,-0.03187],[1.39361,0.04806]],[[240.11802,346.01394],[-1.23718,-0.6433],[1.3031,0.67757]],[[242.12661,349.93568],[-0.81535,-1.22162],[1.45626,2.18187]],[[247.79055,353.8783],[-2.29193,-0.86793],[0.64824,0.24548]],[[249.66815,354.77213],[-0.69246,0.03132],[1.5956,-0.07218]],[[251.62827,351.45944],[-0.24981,0.81508],[1.05859,-3.45392]],[[253.49999,341.24217],[-0.00827,3.6391],[0.0127,-2.50144]],[[252.93758,333.43638],[0.41398,2.61232],[-0.72989,-0.22469]],[[251.24998,331.07471],[0,1.54735],[0,-0.91107]],[[252.00404,329.21657],[-0.42204,0.36802],[-0.11724,-0.3985]],[[251.62827,328.04058],[0.13339,0.3851],[0,0]],[250.88194,328.48608],[[249.76391,325.13198],[-1.11804,2.23607],[0,0]]],&quot;closed&quot;:true,&quot;fillColor&quot;:[0,0,0,1]}]}" fill="#ffde00" stroke-width="0.5"></path><path d="M207.49793,156.39528c-0.08173,0.07121 -0.16478,0.14271 -0.24923,0.21305c-6.20721,3.6007 -12.56646,3.81627 -19.51167,3.0244c-2.27722,-0.25963 -5.39857,-0.70916 -7.39183,-2.06655c8.23863,-3.84904 17.12248,-3.59375 26.11527,-1.62324z" data-paper-data="{&quot;noHover&quot;:false,&quot;origItem&quot;:[&quot;Path&quot;,{&quot;applyMatrix&quot;:true,&quot;segments&quot;:[[[266.41075,167.94819],[0,0],[-8.99279,-1.97051]],[[240.39519,169.56508],[8.23863,-3.84904],[1.99326,1.35739]],[[247.78374,171.61488],[-2.27722,-0.25963],[6.94521,0.79187]],[[267.19876,168.6108],[-6.20721,3.6007],[0.08445,-0.07034]],[[267.44803,168.39849],[-0.08173,0.07121],[0,0]]],&quot;closed&quot;:true}]}" fill="#cd894a" stroke-width="0.5"></path><path d="M170.15605,154.36158l-0.11601,0.06585c-5.33068,4.54885 -13.08719,3.31258 -18.22371,-0.85998c5.54442,-1.9566 11.50275,-2.0436 16.99529,0.33258z" data-paper-data="{&quot;noHover&quot;:false,&quot;origItem&quot;:[&quot;Path&quot;,{&quot;applyMatrix&quot;:true,&quot;segments&quot;:[[[228.7619,165.90521],[0,0],[-5.49254,-2.37618]],[[211.86595,165.57366],[5.54442,-1.9566],[5.13652,4.17256]],[[229.99007,166.42902],[-5.33068,4.54885],[0,0]],[230.10609,166.36351]],&quot;closed&quot;:true}]}" fill="#cd894a" stroke-width="0.5"></path><path d="" data-paper-data="{&quot;noHover&quot;:false,&quot;origItem&quot;:[&quot;Path&quot;,{&quot;applyMatrix&quot;:true,&quot;segments&quot;:[[[246.39373,286.60007],[0,0],[0.16112,0.26853]],[[246.87709,287.40566],[-0.16112,-0.26853],[0.88808,-0.71481]],[[249.47446,286.49358],[-0.8159,-0.28866],[1.68416,0.59583]],[[251.74967,291.346],[-0.3808,-1.74539],[0.02007,0.09198]],[[251.79421,291.62272],[-0.00983,-0.09249],[0.86761,-1.48258]],[[254.20188,288.61663],[-0.46841,0.19929],[1.51219,-0.64341]],[[259.11377,289.04028],[-1.58602,-0.43039],[0.52137,0.14148]],[[260.74961,289.88682],[-0.55762,-0.38478],[0.00025,-0.00034]],[260.74999,289.88631],[[263.35773,287.05096],[0,0],[0.46224,0.04571]],[[264.74445,287.18808],[-0.46224,-0.04571],[0,0]],[264.37828,286.17689],[[264.33314,284.62228],[-0.20644,0.79988],[0,0]],[[262.24999,282.88632],[0,0],[0,-3.33042]],[[262.93908,272.94676],[-0.46222,3.28404],[-3.87646,0.20772]],[[251.33545,274.61937],[3.80066,-0.75289],[-0.33673,1.25579]],[[250.18805,278.3333],[0.4446,-1.21364],[0,0]],[251.24998,279.38632],[[250.74998,282.88632],[2,-1.5],[-0.50613,0.3796]],[[249.34385,283.44181],[0.42588,-0.02044],[-0.98033,1.06479]],[[246.2158,286.35346],[1.08485,-0.90507],[0.11714,0.14533]],[246.39371,286.60008]],&quot;closed&quot;:true,&quot;fillColor&quot;:[0,0,0,1]}]}" fill="#ffde00" stroke-width="0.5"></path><path d="" data-paper-data="{&quot;noHover&quot;:false,&quot;origItem&quot;:[&quot;Path&quot;,{&quot;applyMatrix&quot;:true,&quot;segments&quot;:[[264.64366,262.81167],[[263.25,262.38631],[0,0],[-2.12507,-0.00499]],[[256.89645,261.86118],[2.10422,0.29697],[0,0]],[[256.07497,261.5917],[0.44116,0.21515],[-0.79187,1.22689]],[[254.04344,265.38137],[0.53957,-1.30445],[-0.52142,1.26056]],[[252.73125,269.2646],[0.37278,-1.32054],[3.67154,-0.67557]],[[263.84128,267.9121],[-3.70062,0.12385],[0.37104,-1.69681]],[[265.15379,262.87599],[-0.50438,1.65887],[-0.30539,-0.01314]],[264.64366,262.81166]],&quot;closed&quot;:true,&quot;fillColor&quot;:[0,0,0,1]}]}" fill="#ffde00" stroke-width="0.5"></path><path d="" data-paper-data="{&quot;noHover&quot;:false,&quot;origItem&quot;:[&quot;Path&quot;,{&quot;applyMatrix&quot;:true,&quot;segments&quot;:[[263.25,257.38631],[265.85634,257.96095],[[266.71662,258.35904],[-0.44433,-0.2941],[1.34901,-3.46255]],[[271.71932,248.3853],[-1.99015,3.16962],[0,0]],[[270.25972,248.33775],[0,0],[-1.60443,-0.32971]],[[265.51831,247.72886],[1.5764,0.16572],[-0.62636,1.40148]],[[263.32463,251.78127],[0.85408,-1.29044],[-1.18462,1.78984]],[[259.31857,257.13758],[1.40315,-1.79877],[1.30611,0.15222]],[[263.25001,257.3863],[-1.31277,0.00356],[0,0]]],&quot;closed&quot;:true,&quot;fillColor&quot;:[0,0,0,1]}]}" fill="#ffde00" stroke-width="0.5"></path><path d="" data-paper-data="{&quot;noHover&quot;:false,&quot;origItem&quot;:[&quot;Path&quot;,{&quot;applyMatrix&quot;:true,&quot;segments&quot;:[[243.17848,248.06512],[244.54057,248.5146],[[245.0278,248.74721],[-0.27568,-0.16209],[1.13678,-1.45287]],[[248.76073,244.76889],[-1.37047,1.16203],[-1.48471,-0.48522]],[[244.32153,243.2075],[1.47228,0.5828],[0,0]],[[243.14568,242.29271],[0.47738,0.6354],[-0.32265,0.23472]],[[242.06434,243.01293],[0.40479,-0.24406],[-1.84329,1.11139]],[[237.06525,246.34714],[1.55367,-1.15893],[2.07765,0.40179]],[[243.17849,248.06511],[-2.08133,-0.82389],[0,0]]],&quot;closed&quot;:true,&quot;fillColor&quot;:[0,0,0,1]}]}" fill="#ffde00" stroke-width="0.5"></path><path d="" data-paper-data="{&quot;noHover&quot;:false,&quot;origItem&quot;:[&quot;Path&quot;,{&quot;applyMatrix&quot;:true,&quot;segments&quot;:[[237.67848,257.06512],[[238.69615,257.86558],[0,0],[1.00006,-1.44877]],[[241.67538,253.49134],[-0.98097,1.47118],[0.12046,-0.18066]],[[242.03814,252.94836],[-0.12141,0.18127],[0,0]],[[241.32153,252.7075],[0,0],[-2.52496,-1.02245]],[[233.83901,250.85229],[2.69209,0.44838],[0,0]],[[232.44534,250.16607],[0.61013,0.55563],[-1.31932,1.15895]],[[228.3197,253.75844],[1.3928,-1.2409],[3.14316,1.03035]],[[237.67849,257.06511],[-3.09659,-1.23863],[0,0]]],&quot;closed&quot;:true,&quot;fillColor&quot;:[0,0,0,1]}]}" fill="#ffde00" stroke-width="0.5"></path><path d="" data-paper-data="{&quot;noHover&quot;:false,&quot;origItem&quot;:[&quot;Path&quot;,{&quot;applyMatrix&quot;:true,&quot;segments&quot;:[[[230.24029,268.43486],[-4.03621,-0.789],[0,0]],[230.75,268.38631],[[231.57217,268.52767],[-0.45387,-0.14136],[1.37091,-2.22528]],[[235.8726,261.96242],[-1.47892,2.16419],[-0.24657,-0.16455]],[235.48224,261.65408],[[235.82153,261.7075],[0,0],[-3.81147,-1.52459]],[[224.27203,257.69198],[3.88847,1.27812],[-0.90667,0.99573]],[[221.82017,260.78788],[0.71266,-1.07017],[-1.4638,2.19811]],[[218.53796,268.33675],[0.78949,-2.72002],[3.92046,-0.17273]]],&quot;closed&quot;:true,&quot;fillColor&quot;:[0,0,0,1]}]}" fill="#ffde00" stroke-width="0.5"></path><path d="" data-paper-data="{&quot;noHover&quot;:false,&quot;origItem&quot;:[&quot;Path&quot;,{&quot;applyMatrix&quot;:true,&quot;segments&quot;:[[[213.25,283.88631],[0,0],[-0.34223,-0.00104]],[[212.23486,283.90792],[0.33474,-0.01503],[0.70105,0.25279]],[[213.92872,285.16027],[-0.39191,-0.6084],[0.76729,1.19114]],[[213.32098,289.35567],[0.734,-1.39151],[1.02972,-0.4673]],[[216.38732,288.96891],[-1.0034,-0.30277],[1.55833,0.47022]],[[219.80258,292.4591],[-1.01737,-1.27061],[0.50314,0.62838]],[[221.15897,294.45717],[-0.65755,0.46438],[4.0084,-2.8308]],[[227.58756,283.3196],[-0.99169,4.36756],[-1.83756,-0.39716]],[225.75,280.8863],[[225.92881,279.45782],[0,0],[0.86288,-2.14003]],[[228.84355,273.2574],[-1.06918,2.00177],[-3.93234,-0.71085]],[[217.30996,273.36527],[3.90321,-0.13289],[-0.2137,1.01374]],[[216.70904,276.337],[0.19036,-0.96136],[-0.15585,0.9185]],[[216.24148,279.0925],[0.15586,-0.9185],[0,0]],[216.25,281.3863],[[213.75,283.8863],[2.5,0],[-0.10505,0]],[[213.44789,283.87343],[0.09642,0.00846],[-0.12335,0.01287]],[213.25,283.8863]],&quot;closed&quot;:true,&quot;fillColor&quot;:[0,0,0,1]}]}" fill="#ffde00" stroke-width="0.5"></path><path d="M247.05127,253.38622c4.03717,0.46833 8.01857,1.32383 10.89881,4.20407c1.18951,1.18951 1.97336,2.75189 3.04103,4.05186c0.26285,0.32004 1.00779,0.52111 0.8572,0.9069c-0.20566,0.5269 -1.05713,0.64313 -1.57199,0.90032c-2.6484,-0.92535 -5.34797,-1.61175 -8.25179,-2.44323c0,0 -2.78441,-0.80635 -3.58698,2.00267c-0.80257,2.80902 1.97204,3.50019 1.97204,3.50019c2.61645,0.74601 5.14032,1.39827 7.51009,2.20119c0.71909,0.83154 1.62589,0.95791 2.3259,0.87954c1.55203,0.64415 3.07771,1.43403 4.59949,2.43983c0.54597,0.36085 3.12654,1.40928 3.53168,2.59697c0.88743,2.60152 -3.83804,6.09128 -5.73415,7.10177c-1.0788,0.57492 -8.11591,4.42742 -9.89258,2.96252c-1.43418,-1.1825 -2.17401,-3.0296 -3.28911,-4.51679l-0.86212,-0.89892c0,0 -2.08442,-2.07602 -4.15018,-0.01026c-2.06576,2.06575 0.06515,4.03509 0.06515,4.03509l0.31146,0.27061c1.17716,1.56915 2.12323,3.27642 3.30702,4.5501c-1.27323,-0.16675 -2.53887,-1.01109 -4.5464,-1.87263c-3.64217,-1.56305 -6.40123,-2.8496 -8.77101,-6.10243c0,0 -0.16908,-0.22593 -0.47065,-0.48337c0.10512,-0.29273 0.21232,-0.58484 0.32162,-0.8763c1.24497,-1.90609 2.38933,-3.8782 2.87692,-6.28648c0.03477,-0.17172 0.07907,-0.34449 0.13006,-0.51801c1.80375,-3.50899 3.94875,-6.85611 6.44809,-9.95014c0,0 0.36924,-0.45933 0.56879,-1.12656c1.53565,-0.94949 1.21456,-2.94041 1.21456,-2.94041c-0.31721,-1.17916 -0.22448,-2.74024 0.6305,-3.61205z" data-paper-data="{&quot;noHover&quot;:false,&quot;origItem&quot;:[&quot;Path&quot;,{&quot;applyMatrix&quot;:true,&quot;segments&quot;:[[[281.25,239.88631],[0,0],[-0.73165,0.74605]],[[280.71598,242.97531],[-0.27145,-1.00906],[0,0]],[[279.68503,245.48693],[1.31413,-0.81252],[-0.17076,0.57098]],[[279.20217,246.44804],[0,0],[-3.65629,4.52625]],[[270.84804,261.47416],[1.93994,-5.40216],[0.25807,0.2203]],[[271.24999,261.88631],[0,0],[2.02793,2.7836]],[[278.73479,267.08845],[-3.11678,-1.33758],[1.71794,0.73726]],[[282.6121,268.68645],[-1.08956,-0.1427],[-1.01302,-1.08995]],[[279.74999,264.88631],[1.00735,1.3428],[0,0]],[279.48222,264.65408],[[279.48222,261.11855],[-1.76777,1.76776],[1.76777,-1.76777]],[283.01775,261.11855],[[283.74998,261.88632],[0,0],[0.95425,1.27266]],[[286.54971,265.75074],[-1.2273,-1.01192],[1.52038,1.25358]],[[294.98428,263.23039],[-0.92318,0.49199],[1.62259,-0.86472]],[[299.87827,257.17689],[0.75942,2.22624],[-0.3467,-1.01636]],[[296.85501,254.96094],[0.46721,0.3088],[-1.30226,-0.86071]],[[292.91921,252.88432],[1.32815,0.55123],[-0.59903,0.06707]],[[290.9307,252.14011],[0.61536,0.71159],[-2.02792,-0.68709]],[[284.56317,250.29013],[2.23902,0.6384],[0,0]],[[282.84616,247.19952],[-0.6868,2.40381],[0.6868,-2.40381]],[[285.93677,245.48251],[0,0],[2.48494,0.71154]],[[293.03368,247.59141],[-2.26636,-0.79187],[0.44059,-0.22009]],[[294.30102,246.88366],[-0.17599,0.45089],[0.12886,-0.33014]],[[293.57055,246.11114],[0.22493,0.27387],[-0.91365,-1.11245]],[[290.98219,242.65409],[1.01792,1.01792],[-2.46476,-2.46476]],[[281.68998,239.06018],[3.4548,0.40077],[0,0]]],&quot;closed&quot;:true,&quot;fillColor&quot;:[0,0,0,1]}]}" fill="#864100" stroke-width="0.5"></path><path d="M108.95802,173.85728c0,0 0.74474,1.50121 2.24473,1.65999c-0.48671,0.69993 -0.93175,1.51942 -1.38845,2.22996c-2.3153,3.60215 -3.932,7.53789 -6.04143,11.24176c-2.73762,7.28726 -3.82184,14.95244 -4.74171,22.64108l-2.14936,-1.36097c-4.49194,-1.67642 -6.14572,-5.97509 -9.817,-8.94231c-2.18493,-1.76591 -3.17185,-1.25812 -4.69268,-3.49845c-3.25422,-4.79379 -3.82919,-10.76579 -4.76159,-16.31215c-0.20896,-1.243 -0.8585,-4.0048 -0.58693,-5.48462c0.46002,-2.50663 2.12108,-4.82908 3.52409,-6.99171c1.70875,1.84504 3.88646,3.37135 6.61955,4.48731l2.25058,0.20609c0,0 2.84404,0.08756 2.84404,-2.83386c0,-2.92142 -2.92954,-2.93013 -2.92954,-2.93013l-0.08338,0.20921c-10.11856,-3.94068 -9.33043,-16.50885 -5.53199,-25.55786c1.26054,2.4957 3.05395,4.60414 5.71625,6.63774l2.81359,0.53931c0,0 2.93029,-0.01422 2.93029,-2.93564c0,-2.92142 -2.83289,-2.84515 -2.83289,-2.84515l0.49638,0.50729c-2.92297,-2.13923 -4.84663,-5.1634 -5.83351,-8.49107c0.08695,-0.58058 0.02591,-1.27658 -0.4598,-1.92885c-1.55146,-8.41594 2.54539,-18.04455 11.41933,-20.34162c-0.04368,1.11444 0.02115,2.20611 0.21827,3.24939c0.62712,3.31926 2.75932,6.8653 4.45869,9.71412l2.19648,2.31527c0,0 2.07478,2.06621 4.14054,0.00044c2.06576,-2.06575 -0.01382,-4.01548 -0.01382,-4.01548l-1.31089,-1.18992c-1.38704,-2.29641 -3.13812,-5.14204 -3.72015,-7.8136c-0.83762,-3.84474 1.58327,-9.47021 3.64543,-12.54129c0.81693,-1.21663 1.12097,-2.95869 2.3902,-3.69125c1.13612,-0.65574 5.43902,1.55489 6.37963,1.85327c0.56875,0.18043 1.36686,-0.12212 1.7623,0.32473c0.35929,0.40602 -0.0226,1.08416 -0.03408,1.6262c1.19445,5.97228 1.24848,12.07315 2.32781,18.0111c2.07458,11.41331 7.27953,23.6906 13.81049,33.6745c-7.67981,3.68728 -14.49648,9.5789 -19.91129,16.26913c-0.04775,-0.12496 -0.13968,-0.29867 -0.13968,-0.29867l-0.48491,-0.947c-1.28081,-3.02246 -0.67282,-4.72638 -0.98811,-7.95607c-0.1627,-1.66668 -0.41504,-2.82195 -0.45394,-3.96999c0.49092,0.87402 1.13899,1.7716 1.72864,2.5763l0.75777,0.8334c0,0 2.06124,2.07378 4.127,0.00802c2.06576,-2.06575 -0.00473,-4.11579 -0.00473,-4.11579l-0.31305,-0.27041c-2.88744,-3.72908 -4.90042,-10.01905 -1.73448,-13.97194c0,0 1.76044,-2.33125 -0.5767,-4.0841c-2.33714,-1.75285 -4.08056,0.58927 -4.08056,0.58927c-2.30002,3.1999 -2.93501,6.79607 -2.49786,10.45935c-1.34127,0.3743 -1.9141,1.79067 -1.9141,1.79067c-2.21928,5.78596 -1.67965,14.47683 0.5442,20.27472l0.68234,1.39033z" data-paper-data="{&quot;noHover&quot;:false,&quot;origItem&quot;:[&quot;Path&quot;,{&quot;applyMatrix&quot;:true,&quot;segments&quot;:[[163.51393,171.00422],[[162.92881,169.81466],[0,0],[-1.90306,-4.96153]],[[162.42881,152.45771],[-1.89914,4.95132],[0,0]],[[164.06259,150.92242],[-1.14779,0.32031],[-0.37409,-3.13484]],[[166.25001,141.88619],[-1.96824,2.73831],[0,0]],[[169.75001,141.38619],[-2,-1.5],[2,1.5]],[[170.25001,144.88619],[0,0],[-2.70924,3.38267]],[[171.75001,156.88619],[-2.47092,-3.19115],[0,0]],[172.01778,157.11842],[[172.01778,160.65395],[1.76777,-1.76776],[-1.76777,1.76777]],[168.48225,160.65395],[[167.75002,159.88618],[0,0],[-0.50459,-0.68862]],[[166.35926,157.7272],[0.4201,0.74794],[0.03329,0.98243]],[[166.73785,161.13983],[-0.13923,-1.42626],[0.26981,2.7638]],[[167.57121,167.9577],[-1.09605,-2.58646],[0,0]],[167.98609,168.76814],[[168.05746,168.93609],[-0.04086,-0.10693],[4.63371,-5.72515]],[[185.07056,155.0583],[-6.57198,3.15538],[-5.58885,-8.5437]],[[173.2823,126.28663],[1.77532,9.76691],[-0.92364,-5.08138]],[[171.29857,110.87646],[1.02215,5.11076],[0.00982,-0.46385]],[[171.32804,109.48491],[0.30746,0.34745],[-0.33839,-0.38239]],[[169.82155,109.20736],[0.48671,0.1544],[-0.80492,-0.25534]],[[164.36806,107.62224],[0.97223,-0.56115],[-1.08614,0.62689]],[[162.32465,110.78114],[0.69909,-1.04113],[-1.76469,2.62807]],[[159.20492,121.4134],[-0.71679,-3.29013],[0.49807,2.28618]],[[162.39376,128.09993],[-1.18696,-1.96515],[0,0]],[163.51779,129.1184],[[163.51779,132.65393],[1.76777,-1.76776],[-1.76777,1.76777]],[159.98226,132.65393],[[158.10629,130.6724],[0,0],[-1.45423,-2.43787]],[[154.29513,122.35893],[0.53666,2.84045],[-0.16868,-0.89279]],[[154.10789,119.57836],[-0.03738,0.95368],[-7.59385,1.96571]],[[144.35999,136.97393],[-1.32766,-7.20192],[0.41564,0.55818]],[[144.75473,138.62337],[0.07441,-0.49683],[0.84452,2.84764]],[[149.75002,145.88616],[-2.50132,-1.83064],[0,0]],[149.25002,145.38616],[[151.75002,147.88616],[0,-2.5],[0,2.5]],[149.25002,150.38616],[[146.75002,149.88616],[0,0],[-2.27826,-1.74025]],[[141.94779,144.24992],[1.0787,2.13569],[-3.2505,7.74366]],[[146.6785,166.06496],[-8.65893,-3.37223],[0,0]],[146.75002,165.88615],[[149.25002,168.38615],[0,-2.5],[0,2.5]],[146.75002,170.88615],[[144.82154,170.70734],[0,0],[-2.33883,-0.95498]],[[139.14867,166.85609],[1.46226,1.57889],[-1.20062,1.85067]],[[136.21773,172.7866],[0.39366,-2.14504],[-0.2324,1.26635]],[[136.716,177.47515],[-0.17882,-1.06369],[0.7979,4.74628]],[[140.77812,191.42437],[-2.78479,-4.10227],[1.30145,1.91716]],[[144.78855,194.41563],[-1.86975,-1.51117],[3.14169,2.53919]],[[153.1785,202.06495],[-3.84397,-1.43459],[0,0]],[[155.01576,203.22932],[0,0],[0.78718,-6.57954]],[[159.07037,183.854],[-2.34271,6.23605],[1.80514,-3.16958]],[[164.2282,174.23471],[-1.98131,3.08253],[0.39082,-0.60804]],[[165.43938,172.42365],[-0.4165,0.59896],[-1.28361,-0.13587]],[163.51396,171.00417]],&quot;closed&quot;:true,&quot;fillColor&quot;:[0,0,0,1]}]}" fill="#864100" stroke-width="0.5"></path><path d="M234.85916,258.61325c-1.53662,-0.30037 -3.03765,-0.43988 -4.53398,-0.58837c0.09282,-0.27057 0.18186,-0.65821 0.27335,-0.92915c0.42288,-0.16598 2.61956,-1.04401 1.78326,-3.55292c-0.71409,-2.14224 -2.53473,-2.07661 -3.32346,-1.9364c-1.10707,-0.27543 -1.89589,0.05898 -2.43102,0.52316c-0.33373,0 -0.66828,-0.00002 -1.002,-0.00002c-1.08872,-0.86786 -2.57408,-0.49719 -2.57408,-0.49719l-1.62989,0.49695c-2.14922,0.00952 -4.31149,0.22796 -6.42081,0.64029c0,0 -2.29293,0.45803 -2.36707,2.60435c-1.40821,-0.46079 -2.82011,-0.90689 -4.2187,-1.38953c0.75398,-0.45281 1.58876,-1.3439 1.25473,-3.01408c-0.49222,-2.46115 -2.67901,-2.38583 -3.28449,-2.31553c-1.11997,-0.32615 -2.09785,0.25114 -2.55062,0.59421c-1.64332,0.1078 -3.28134,0.38446 -4.92107,0.55273c-6.14988,0.63112 -12.498,-0.55932 -18.66067,-0.01013c-5.83566,0.52006 -11.77422,1.16194 -17.59083,-0.00138c-7.41422,-0.02779 -14.41962,-0.95422 -20.96143,-4.84403c-3.53898,-2.1043 -5.81797,-5.8167 -9.25779,-8.12451c-1.36565,-0.91623 -2.75871,-1.86613 -4.15491,-2.80702c0.297,0.08459 0.70329,0.1108 1.01258,0.18813c2.07745,0.89033 4.4537,2.09811 6.77416,2.09811c0.06634,0 0.1329,-0.00093 0.19972,-0.00269c0.27152,1.76845 2.20701,2.25112 2.20701,2.25112l2.62845,0.45335c5.37479,-0.67185 10.87175,-2.04266 15.91623,-4.08618c3.58169,-1.45094 6.38426,-4.13411 9.06311,-6.8072c4.83238,-4.82198 9.10614,-10.2234 12.4224,-16.13293c2.43501,3.51209 4.76013,7.38064 7.4841,10.45918c3.42539,3.87129 9.22514,6.58393 13.71271,8.83057c3.69678,1.85074 6.49269,4.00467 10.27155,4.73165c0.58237,0.54482 2.07305,1.5968 3.84159,0.18197c0.91751,-0.73401 1.14117,-1.4288 1.11609,-2.13231c0.0312,-0.18962 0.04797,-0.39487 0.04797,-0.61698c0,-1.82874 -1.1476,-2.51356 -2.00393,-2.76938l-0.03937,-0.04744c-6.30464,-11.03311 -10.57478,-23.04369 -14.60497,-34.96031c-0.95719,-2.83024 -2.45276,-5.54868 -3.80966,-8.27423c1.07053,0.72587 2.347,1.21268 3.49602,0.9191c0.60369,-0.15424 0.98106,-0.38047 1.38238,-0.70603c0.46889,-0.10216 1.05542,-0.23427 1.53058,-0.34652c1.88297,5.66342 3.42906,11.38922 6.13256,16.80711c3.70894,7.43285 8.14107,15.04503 10.5097,23.10184c-0.56721,0.51668 -1.01549,1.34492 -0.75537,2.64545c0.57294,2.86469 3.43331,2.29089 3.43331,2.29089c0.05008,-0.01105 0.09985,-0.02258 0.14967,-0.03448c0.59068,0.21448 1.33461,0.23027 2.23673,-0.2208c0.68634,-0.34316 1.10087,-0.77661 1.34108,-1.22902c0.71276,-0.36023 1.41994,-0.72936 2.1441,-1.05121c0.9075,-0.40333 2.01575,-0.16919 2.91789,-0.58435c0.82834,-0.38121 5.70217,-4.26965 6.15558,-4.72305c1.59746,-1.59746 2.64059,-3.6717 4.16187,-5.34186c10.65472,-11.69745 20.8299,-24.55601 27.94135,-38.75114c2.79165,-8.37494 6.91339,-16.28527 9.45673,-24.79948c1.20469,-4.0329 1.582,-8.39956 2.40645,-12.5218c1.423,-7.11498 3.65093,-15.20826 2.97187,-22.47078c-0.27105,-2.89887 -1.16236,-5.9059 -1.74914,-8.76125c0.01456,-2.6973 0.22151,-5.49781 0.0025,-8.18676c-0.03107,-0.38139 -0.55161,-1.00649 -0.22634,-1.20802c0.49011,-0.30365 1.1394,0.20134 1.71528,0.22891c1.80033,0.08618 3.66537,-0.55301 5.40848,-0.09453c2.65689,0.69883 4.17048,4.43049 5.12997,6.56441c3.76881,8.3819 1.94414,16.80629 2.14252,25.72224l-1.01175,2.38974c0,0 -1.08333,2.71503 1.62914,3.80002c2.71247,1.08498 3.69731,-1.56728 3.69731,-1.56728l1.32564,-3.45261c0.06913,-4.55584 0.51562,-9.19089 0.49352,-13.68113c3.17216,1.38341 5.87937,5.47555 6.79032,8.63983c2.39363,8.31458 2.8461,19.38199 1.11118,27.8244l-0.05623,2.91198c0,0 0.00054,2.92381 2.92196,2.92381c2.92142,0 2.80721,-2.89675 2.80721,-2.89675l-0.05647,-1.76309c0.69634,-3.5622 0.6429,-6.87759 0.6429,-10.49969c0,-0.8165 0.1077,-1.70568 0.10036,-2.57657c1.81273,0.37766 3.56578,0.91812 4.95519,2.26545c2.16725,2.1016 2.06962,6.2376 2.06737,9.04101c-0.00609,7.58689 -2.19517,15.90573 -6.44962,22.2346l-2.22935,0.77539c0,0 -2.71254,1.08766 -1.62755,3.80013c1.08499,2.71248 3.68077,1.62148 3.68077,1.62148l3.61344,-1.56111c3.22797,-4.09256 5.66881,-8.95875 7.10525,-14.07905c5.98754,7.05467 0.58053,18.32048 -3.65565,25.42734c-0.37966,0.63694 -3.98382,5.10117 -4.00414,5.13021c-1.20495,1.72164 -2.47261,3.41137 -3.86917,4.98159c-2.96408,3.33267 -5.07822,7.13975 -8.65604,9.82311c-4.64556,6.0816 -9.97815,10.63053 -15.66636,15.67762c-2.28612,2.02845 -4.49092,4.4609 -7.12287,6.08488c-2.20733,1.36198 -5.39991,1.50103 -7.87046,2.00019c-3.18881,0.64428 -6.09655,2.3563 -9.2496,2.90662c-0.9593,0.16743 -1.96533,-0.17439 -2.92321,0.00104c-4.3695,0.80025 -8.18683,2.94086 -12.684,2.90229c-3.06121,0.61224 -5.98666,0.61293 -9.05692,1.21309l-0.59612,-0.05664c0,0 -0.10726,0.00005 -0.28035,0.02053c-0.63306,-0.04904 -2.78049,-0.02891 -3.18885,2.42126c-0.48027,2.88167 2.38496,3.24626 2.38496,3.24626c0.25402,0.04231 0.52894,0.19709 0.78723,0.2341c-0.36401,0.47969 -0.66709,0.98543 -0.79028,1.56619c-0.25933,1.22257 0.1227,2.4753 0.38026,3.72216c-0.26144,0.22071 -0.40802,0.40355 -0.40802,0.40355c-0.48196,0.60745 -0.95317,1.22223 -1.41127,1.84371c-0.64295,-1.7714 -2.73769,-1.7712 -2.73769,-1.7712l-0.59608,0.05677z" data-paper-data="{&quot;noHover&quot;:false,&quot;origItem&quot;:[&quot;Path&quot;,{&quot;applyMatrix&quot;:true,&quot;segments&quot;:[[271.24029,243.43486],[271.75,243.38631],[[274.09117,244.90218],[-0.5502,-1.51587],[0.39202,-0.53183]],[[275.29783,243.32457],[-0.41244,0.51982],[0,0]],[[275.6467,242.97927],[-0.22373,0.18887],[-0.22041,-1.067]],[[275.32117,239.79406],[-0.22192,1.04621],[0.10542,-0.49698]],[[275.99676,238.45391],[-0.3115,0.41049],[-0.22103,-0.03167]],[[275.33901,238.3523],[0.21738,0.03621],[0,0]],[[273.28402,235.47532],[-0.41099,2.46598],[0.34945,-2.09673]],[[276.0103,233.40373],[-0.54174,-0.04197],[0.14812,-0.01753]],[276.25,233.3862],[[276.75971,233.43475],[0,0],[2.62737,-0.51359]],[[284.50366,232.39837],[-2.61962,0.52392],[3.84844,0.033]],[[295.34955,229.91848],[-3.73919,0.68481],[0.8197,-0.15012]],[[297.84955,229.91848],[-0.82092,0.14328],[2.69821,-0.47093]],[[305.75972,227.43475],[-2.72882,0.55134],[2.11417,-0.42716]],[[312.49131,225.72619],[-1.88892,1.16551],[2.25229,-1.38972]],[[318.58271,220.52338],[-1.95634,1.73584],[4.86767,-4.31903]],[[331.98225,207.11843],[-3.97543,5.20431],[3.06171,-2.29628]],[[339.3872,198.71889],[-2.5365,2.85192],[1.1951,-1.34371]],[[342.69744,194.45899],[-1.03113,1.47329],[0.01739,-0.02485]],[[346.12339,190.07187],[-0.32489,0.54506],[3.6251,-6.08168]],[[349.25136,168.32569],[5.12382,6.03702],[-1.22923,4.38168]],[[343.27074,180.37049],[2.76233,-3.5022],[0,0]],[340.1785,181.70739],[[336.92883,180.31467],[0.92848,2.3212],[-0.92848,-2.32119]],[338.32155,177.065],[[340.22931,176.4019],[0,0],[3.64074,-5.41591]],[[345.75003,157.38619],[-0.00521,6.49246],[0.00192,-2.39901]],[[343.98226,149.65396],[1.85462,1.79844],[-1.18898,-1.15297]],[[339.74259,147.71721],[1.55124,0.32318],[0.00628,0.74526]],[[339.75003,149.8862],[0,-0.69872],[0,3.0996]],[[339.20148,158.87649],[0.59589,-3.04834],[0,0]],[339.25003,160.3862],[[336.75003,162.8862],[2.5,0],[-2.5,0]],[334.25003,160.3862],[[334.29858,157.89591],[0,0],[1.48465,-7.22457]],[[333.35367,134.09857],[2.04834,7.11518],[-0.77954,-2.70782]],[[327.54632,126.70981],[2.71457,1.18385],[0.01891,3.84251]],[[327.20492,138.35897],[0.05916,-3.89865],[0,0]],[326.07122,141.31468],[[322.82155,142.7074],[2.32119,0.92847],[-2.32119,-0.92848]],[321.42883,139.45773],[[322.29513,137.41344],[0,0],[-0.16977,-7.6298]],[[320.46942,115.41035],[3.22515,7.17279],[-0.82108,-1.8261]],[[316.08269,109.7955],[2.27363,0.59802],[-1.49166,-0.39235]],[[311.45623,109.87769],[1.54063,0.07375],[-0.49281,-0.02359]],[[309.98906,109.68225],[0.41941,-0.25985],[-0.27835,0.17246]],[[310.23786,110.63256],[-0.02659,-0.32637],[0.18742,2.30106]],[[310.23786,117.63987],[0.01246,-2.30821],[0.50213,2.44346]],[[311.73786,125.13987],[-0.23195,-2.4807],[0.5811,6.21488]],[[309.20148,144.3765],[1.21773,-6.08863],[-0.70552,3.5276]],[[307.14639,155.09858],[1.03091,-3.45114],[-2.17645,7.28601]],[[299.05973,176.34292],[2.38895,-7.16683],[-6.08561,12.14745]],[[275.11285,209.55352],[9.11775,-10.01006],[-1.30183,1.42923]],[[271.54519,214.12616],[1.36702,-1.36702],[-0.388,0.388]],[[266.27045,218.16849],[0.70885,-0.32622],[-0.77201,0.35528]],[[263.77045,218.66849],[0.77659,-0.34515],[-0.6197,0.27542]],[[261.93354,219.56791],[0.60994,-0.30827],[-0.20556,0.38715]],[[260.78472,220.61952],[0.58733,-0.29366],[-0.77199,0.386]],[[258.86853,220.80818],[0.50547,0.18354],[-0.04263,0.01019]],[[258.74031,220.83767],[0.04286,-0.00946],[0,0]],[[255.79857,218.87651],[0.49029,2.45145],[-0.22259,-1.11293]],[[256.4451,216.6127],[-0.48539,0.44215],[-2.02695,-6.89459]],[[247.4288,196.83117],[3.17392,6.36064],[-2.31351,-4.63634]],[[242.16626,182.42276],[1.61135,4.84646],[-0.40662,0.09605]],[[240.95416,182.6979],[0.40125,-0.08742],[-0.34343,0.27859]],[[239.67365,183.3241],[0.51661,-0.13199],[-0.98327,0.25123]],[[236.77984,182.51734],[0.9161,0.62116],[1.16117,2.33238]],[[240.03585,189.58533],[-0.81911,-2.42197],[3.44883,10.19762]],[[252.50395,219.47643],[-5.39518,-9.44156],[0,0]],[[252.53759,219.51702],[0,0],[0.7328,0.21892]],[[254.25001,221.88621],[0,-1.56494],[0,0.19007]],[[254.20886,222.41417],[0.0267,-0.16227],[0.02146,0.60203]],[[253.22842,224.33562],[0.78516,-0.62813],[-1.51342,1.21074]],[[249.93788,224.17896],[0.49836,0.46623],[-3.23375,-0.62211]],[[241.13911,220.12583],[3.16351,1.58377],[-3.84023,-1.92256]],[[229.39353,212.56056],[2.93127,3.31285],[-2.33103,-2.63446]],[[222.98234,203.60154],[2.08375,3.00546],[-2.83788,5.05706]],[[212.43446,217.35101],[4.1353,-4.1264],[-2.29242,2.28749]],[[204.59878,223.23632],[3.06502,-1.24164],[-4.3168,1.74874]],[[190.97678,226.7306],[4.59946,-0.57493],[0,0]],[188.72702,226.34193],[[186.83763,224.41432],[0.23235,1.51335],[-0.05718,0.0015]],[[186.6667,224.41658],[0.05677,0],[-1.98573,0]],[[180.86858,222.61909],[1.77777,0.7619],[-0.26467,-0.06617]],[[180.09041,222.41124],[0.25416,0.07239],[1.19479,0.80516]],[[183.645,224.8116],[-1.16865,-0.78406],[2.94362,1.9749]],[[191.56436,231.75959],[-3.02847,-1.80075],[5.59814,3.3287]],[[209.49638,235.89838],[-6.3447,-0.02378],[4.97755,0.99551]],[[224.54383,235.89473],[-4.99385,0.44504],[5.27369,-0.46997]],[[240.50369,235.89838],[-5.26274,0.54008],[1.40319,-0.144]],[[244.71212,235.42428],[-1.40627,0.09225],[0.38746,-0.29358]],[[246.89335,234.91529],[-0.95841,-0.2791],[0.51813,-0.06016]],[[249.70149,236.89604],[-0.42122,-2.10612],[0.28585,1.42925]],[[248.62803,239.4754],[0.64522,-0.38749],[1.19684,0.41302]],[[252.23533,240.66379],[-1.20507,-0.39432],[0.06344,-1.83671]],[[254.25975,238.43488],[0,0],[1.80504,-0.35285]],[[259.75004,237.88633],[-1.83919,0.00815],[0,0]],[261.1437,237.46097],[[263.34463,237.88633],[-0.93167,-0.74267],[0.28558,0]],[[264.20138,237.88633],[-0.28559,0],[0.45794,-0.39722]],[[266.28,237.43862],[-0.94737,-0.2357],[0.67495,-0.11998]],[[269.12176,239.09576],[-0.61108,-1.83322],[0.71566,2.14699]],[[267.59979,242.23607],[0.36188,-0.14204],[-0.07829,0.23186]],[[267.36331,242.93122],[0.07943,-0.23154],[1.28048,0.12707]],[[271.24034,243.43487],[-1.31496,-0.25704],[0,0]]],&quot;closed&quot;:true,&quot;fillColor&quot;:[0,0,0,1]}]}" fill="#864100" stroke-width="0.5"></path><path d="M215.20421,112.67353c-5.6649,-2.26652 -11.91363,-4.72913 -18.02409,-5.29973c-2.14189,-0.20001 -4.34605,-0.16701 -6.45549,-0.5889c-3.03543,-0.01345 -6.34181,-0.32862 -9.36161,-0.01616c-0.20555,0.02127 -0.41166,0.04477 -0.61704,0.07189c1.38784,-4.6069 0.69092,-10.02858 -1.16899,-14.59199c-1.21393,-2.9785 -3.42412,-4.95234 -4.69467,-7.86933c-0.06745,-0.15485 -2.33173,-3.98902 -0.56454,-4.27294c1.42362,-0.22872 4.14415,2.01935 5.47975,2.78069l1.23323,2.15201c0.49596,0.90648 1.35984,1.45864 2.46597,1.45864c1.61345,0 2.93209,-1.32041 2.93209,-2.93387c0,-0.23958 -0.02767,-0.47342 -0.08207,-0.69625l-0.73393,-3.32366c0.07722,-1.23076 -0.85055,-3.20244 1.68514,-3.20768c5.16657,-0.01066 5.85129,7.35333 10.16996,7.79583c2.04503,0.20954 2.74281,-3.90443 4.7985,-3.88888c0.41349,0.00313 0.59595,0.58051 0.86959,0.89051c1.21428,1.37556 2.23906,2.96381 3.03317,4.6179c0.75251,1.56744 0.67045,3.97571 2.23222,4.73991c1.58429,0.77523 3.38336,-0.53089 5.06399,-1.06603c0.50155,-0.1597 0.84738,-0.99658 1.37357,-0.98362c0.44284,0.0109 0.63465,0.63257 0.87411,1.00524c1.49506,2.32669 2.45844,4.47133 2.75901,7.20195c0.02863,5.23014 -1.78319,10.43815 -3.04957,15.50369z" data-paper-data="{&quot;noHover&quot;:false,&quot;origItem&quot;:[&quot;Path&quot;,{&quot;applyMatrix&quot;:true,&quot;segments&quot;:[[[254.57464,118.11786],[0,0],[1.0837,-4.33482]],[[257.17149,104.87954],[0.0245,4.47568],[-0.25722,-2.33672]],[[254.81182,98.73371],[1.27939,1.99106],[-0.20492,-0.31891]],[[254.06464,97.87638],[0.37896,0.00933],[-0.45029,-0.01109]],[[252.98478,98.68872],[0.4292,-0.13666],[-1.4382,0.45794]],[[248.55574,99.63047],[1.35575,0.6634],[-1.33648,-0.65397]],[[246.65527,95.59155],[0.64396,1.34133],[-0.67956,-1.41549]],[[244.07404,91.65125],[1.03912,1.17713],[-0.23417,-0.26528]],[[243.33332,90.89085],[0.35384,0.00268],[-1.75915,-0.01331]],[[239.24023,94.22245],[1.75003,0.17931],[-3.69569,-0.37867]],[[230.56576,87.54669],[4.42128,-0.00912],[-2.16991,0.00448]],[[229.13062,90.28761],[0.06608,-1.05322],[0,0]],[[229.76209,93.12922],[0,0],[0.04655,0.19068]],[[229.83332,93.72418],[0,-0.20502],[0,1.38071]],[[227.33332,96.22418],[1.38071,0],[-0.94657,0]],[[225.13863,94.92239],[0.42442,0.77572],[0,0]],[[224.08492,93.07839],[0,0],[-1.14293,-0.65152]],[[219.47799,90.75552],[1.21826,-0.19573],[-1.51227,0.24297]],[[219.96451,94.40604],[-0.05772,-0.13251],[1.08727,2.49621]],[[223.98639,101.12542],[-1.03882,-2.54884],[1.59161,3.90513]],[[224.97616,113.57432],[1.18764,-3.94234],[0.17575,-0.02321]],[[225.50364,113.51213],[-0.1759,0.0182],[2.58418,-0.26739]],[[233.49633,113.51213],[-2.59756,-0.01151],[1.80515,0.36103]],[[238.99633,114.01213],[-1.83292,-0.17116],[5.22901,0.48829]],[[254.38848,118.56276],[-4.84772,-1.93957],[0,0]]],&quot;closed&quot;:true,&quot;fillColor&quot;:[0,0,0,1]}]}" fill="#ff0000" stroke-width="0.5"></path><path d="M155.61863,125.75458c0.38982,-1.32989 0.64556,-2.7307 1.46057,-3.82614c2.16934,-2.91574 6.42445,-3.97173 9.5743,-4.82506c4.93314,-1.33645 10.19488,-4.12576 15.32771,-4.61599c2.66457,-0.25449 5.54357,0.02466 8.224,0.01019c2.10944,0.42189 4.29783,0.40826 6.44073,0.59728c4.22599,0.37276 8.54802,1.85928 12.63672,3.44866c-1.51101,0.12542 -2.99133,0.38026 -4.40753,0.79566c-5.28966,1.55152 -10.10533,4.617 -15.20369,6.69873c-5.52842,4.10252 -10.92794,8.85163 -17.93895,10.23816c-2.62509,0.51915 -4.74389,1.38047 -7.36688,0.63841c-4.24652,-1.20135 -5.69503,-6.04509 -8.747,-9.15991z" data-paper-data="{&quot;noHover&quot;:false,&quot;origItem&quot;:[&quot;Path&quot;,{&quot;applyMatrix&quot;:true,&quot;segments&quot;:[[[210.96237,137.60364],[-3.63395,-1.02805],[2.24462,0.63501]],[[217.25972,137.04855],[-2.24641,0.44426],[5.99965,-1.18652]],[[232.52519,128.32059],[-4.73093,3.51072],[4.36291,-1.78143]],[[245.53764,122.60364],[-4.52661,1.32771],[1.21191,-0.35547]],[[249.30915,121.92197],[-1.29304,0.10733],[-3.49889,-1.36011]],[[238.50366,118.98784],[3.61638,0.31899],[-1.83378,-0.16175]],[[233.00366,118.48784],[1.80515,0.36103],[-2.29377,0.01238]],[[225.99635,118.48784],[2.2802,-0.21778],[-4.39241,0.41951]],[[212.92365,122.40753],[4.22152,-1.14366],[-2.69547,0.73023]],[[204.7343,126.52072],[1.85641,-2.49514],[-0.69744,0.93742]],[[203.48442,129.78762],[0.33359,-1.13805],[2.61171,2.6655]]],&quot;closed&quot;:true,&quot;fillColor&quot;:[0,0,0],&quot;strokeWidth&quot;:0.5}]}" fill="#cd894a" stroke-width="0.25"></path><path d="M141.33233,160.30475c0.77419,-0.58064 1.10215,-1.22879 1.19113,-1.83146c0.01051,0.05905 0.11211,0.19153 0.12342,0.25006c0.42815,2.21603 1.47757,4.27036 1.95976,6.47527l2.0846,2.89398c0,0 1.64987,2.28208 3.98701,0.52922c2.33714,-1.75285 0.59113,-4.09943 0.59113,-4.09943l-1.42232,-1.77748c-0.26697,-1.51639 -0.93061,-2.94011 -1.35191,-4.42102c7.26842,5.65516 17.71788,6.71203 25.25875,0.5401l0.09122,-0.00871c0.88631,1.30273 1.88227,2.43607 2.92559,3.22928c2.76583,2.10278 7.05166,2.90202 10.37904,3.30433c8.48975,1.02647 15.78982,0.30497 23.32647,-3.95924c2.09724,-1.74845 3.65034,-2.75296 5.11058,-5.15471c3.46474,-5.69866 2.41414,-13.70068 2.77099,-20.04886c0.2508,-4.46146 0.53755,-8.61966 0.02299,-13.07288c1.03693,0.22764 2.12774,0.40274 3.0871,0.66876c0.54843,1.76871 0.82391,3.743 1.29352,5.30838c1.9049,6.3497 3.99147,13.21455 3.99147,19.91852c0.81783,4.08915 1.31735,9.42519 0.11069,13.49762c-1.08349,3.6567 -4.01008,6.08871 -6.41681,8.85859c-2.90967,3.34872 -7.19622,5.71754 -11.67282,7.43996c-2.168,-2.90684 -5.64226,-6.45167 -9.03567,-5.05537c-1.80605,0.74314 -2.40583,3.11445 -3.29293,4.85431c-0.34473,0.67611 -0.59944,1.42295 -0.72343,2.17971c-1.411,-1.05476 -2.99147,-2.30476 -4.62043,-1.93495c-1.34588,0.30555 -0.77152,2.69216 -1.47933,3.87697c-0.06357,0.1064 -0.13491,0.18574 -0.21289,0.24029c-0.05713,0.02542 -0.22609,0.02427 -0.2797,0.05105c-1.12398,0.30757 -3.18072,-3.01215 -4.58785,-2.23768c-1.8352,1.01008 -2.17197,3.67073 -2.69239,5.69987c-0.46747,1.82275 0.59901,3.84372 0.08873,5.65494c-1.12588,3.99631 -3.85728,7.56573 -5.69462,11.23538c-3.34282,7.82616 -8.27128,14.60489 -14.24395,20.59129c-2.08447,2.08926 -4.38897,4.47719 -7.21076,5.5863c-2.08472,0.8194 -4.18495,1.41199 -6.34451,1.99661c6.81955,-3.65621 12.45192,-8.64039 17.48009,-14.6702c2.99135,-3.58725 6.58569,-7.72086 7.93625,-12.31737c1.82266,-6.20328 -1.93585,-12.57779 -4.89799,-17.76573c-1.31219,-2.27878 -2.07256,-3.93897 -4.08654,-5.7538c-10.73147,-9.67035 -28.10285,-3.10338 -37.40427,5.38278c-6.2477,5.70009 -10.8672,13.75276 -15.00667,21.0027c-2.55331,5.10259 -5.60116,10.1606 -7.88569,15.37133c-0.0933,0.21278 -0.28676,0.49543 -0.39024,0.70833c-0.22426,-1.2391 -0.42544,-2.46598 -0.35437,-3.55109c0.61467,-9.38401 1.87193,-19.73823 5.1734,-28.56276c1.99407,-3.47747 3.47939,-7.19604 5.65683,-10.58258c5.49489,-8.54613 13.49014,-16.55617 22.90039,-20.77025c0.61074,0.57691 2.02805,1.53379 3.76687,0.22968z" data-paper-data="{&quot;noHover&quot;:false,&quot;origItem&quot;:[&quot;Path&quot;,{&quot;applyMatrix&quot;:true,&quot;segments&quot;:[[[191.25,159.38619],[0,0],[-1.48799,1.11599]],[[188.02815,159.18714],[0.52264,0.49369],[-8.0528,3.60619]],[[168.43849,176.93165],[4.70224,-7.31333],[-1.86334,2.89803]],[[163.59632,185.97903],[1.70642,-2.97584],[-2.82522,7.55157]],[[159.16184,210.40521],[0.526,-8.03034],[-0.06082,0.92858]],[[159.4639,213.4424],[-0.19191,-1.06036],[0.08856,-0.18219]],[[159.71774,212.8961],[-0.07984,0.18209],[1.95498,-4.45907]],[[166.46249,199.73688],[-2.18499,4.36653],[3.54234,-6.20412]],[[179.29929,181.75083],[-5.34645,4.87784],[7.95967,-7.26201]],[[211.36739,177.08416],[-9.18343,-8.27538],[1.72346,1.55304]],[[214.83728,182.00951],[-1.1229,-1.95006],[2.53484,4.43957]],[[219.0594,197.30765],[1.55974,-5.30844],[-1.15574,3.93345]],[[212.25389,207.85032],[2.55984,-3.06978],[-4.30284,5.16]],[[197.2799,220.40196],[5.83581,-3.12879],[1.84804,-0.50028]],[[202.73459,218.59678],[-1.78399,0.7012],[2.41474,-0.94912]],[[208.89891,213.81542],[-1.78378,1.78788],[5.11109,-5.12284]],[[221.0654,196.19798],[-2.86061,6.69722],[1.5723,-3.1403]],[[225.92037,186.59599],[-0.96347,3.41983],[0.43667,-1.54995]],[[225.83789,181.76583],[-0.40004,1.55981],[0.44535,-1.73643]],[[228.13623,176.90382],[-1.57047,0.86437],[1.20415,-0.66275]],[[232.16005,178.83948],[-0.96184,0.2632],[0.04587,-0.02292]],[[232.30216,178.77245],[-0.04889,0.02175],[0.06673,-0.04668]],[[232.48421,178.56738],[-0.0544,0.09105],[0.6057,-1.0139]],[[233.74901,175.25769],[-1.15173,0.26147],[1.39398,-0.31646]],[[237.70317,176.91079],[-1.20746,-0.90261],[0.1061,-0.64759]],[[238.32196,175.04915],[-0.295,0.57858],[0.75914,-1.48888]],[[241.14011,170.90239],[-1.54552,0.63594],[2.9039,-1.19488]],[[248.97206,175.22498],[-1.85526,-2.48752],[3.83084,-1.47396]],[[258.86137,168.86197],[-2.48994,2.86566],[2.05955,-2.37032]],[[264.35365,161.28761],[-0.92719,3.12921],[1.0326,-3.48497]],[[264.26217,149.74632],[0.69986,3.49928],[0,-5.7369]],[[260.85365,132.71234],[1.63011,5.43374],[-0.40187,-1.33957]],[[259.74884,128.17206],[0.46932,1.51357],[-0.82097,-0.22765]],[[257.17797,127.52928],[0.88735,0.1948],[0.44034,3.81083]],[[257.16286,138.72143],[0.21462,-3.81788],[-0.30538,5.43244]],[[254.79824,155.8895],[2.96494,-4.87661],[-1.2496,2.05529]],[[250.42592,160.30333],[1.79471,-1.49623],[-6.44947,3.64909]],[[230.3736,163.7326],[7.26508,0.8784],[-2.8474,-0.34427]],[[221.50608,160.92104],[2.36685,1.79945],[-0.89282,-0.67879]],[[219.0117,158.16286],[0.75846,1.11481],[0,0]],[[218.93382,158.17039],[0,0],[-6.45308,5.28161]],[[197.37217,157.69946],[6.21993,4.83939],[0.36052,1.26729]],[[198.53229,161.47954],[-0.22846,-1.29765],[0,0]],[199.75003,162.99996],[[199.25003,166.49996],[2,-1.5],[-2,1.5]],[195.75003,165.99996],[[193.96777,163.52038],[0,0],[-0.41263,-1.88685]],[[192.29514,157.97273],[0.36639,1.89636],[-0.00968,-0.05009]],[[192.26714,157.82179],[0.00899,0.05053],[-0.07615,0.51574]],[[191.25003,159.38615],[0.66251,-0.49688],[0,0]]],&quot;closed&quot;:true,&quot;fillColor&quot;:[0,0,0],&quot;strokeWidth&quot;:0.5}]}" fill="#cd894a" stroke-width="0.25"></path><path d="" fill="#000000" stroke-width="0.5"></path><path d="M297.67684,212.75483c-0.88127,-1.61151 0.73023,-2.49278 0.73023,-2.49278l0.03022,0.59663c0.91322,-2.9798 0.4719,-6.16449 0.49576,-9.27205c0.01946,-2.53397 0.4338,-3.18861 -0.358,-5.64544c-0.2009,-0.62338 -0.71439,-1.10789 -0.95569,-1.71678c-0.27456,-0.69282 -0.16488,-1.54036 -0.58028,-2.15909c-0.71131,-1.05948 -2.10925,-1.41827 -3.19718,-2.10419c-0.08826,0.37101 -0.20639,0.72463 -0.44378,1.0146c-0.58794,0.71817 -1.58188,0.97131 -2.37282,1.45697l-0.91161,0.49852c0,0 -1.61151,0.88127 -2.49278,-0.73023c-0.88127,-1.61151 0.73023,-2.49278 0.73023,-2.49278l0.91161,-0.49852c0.42453,-0.17904 1.00266,-0.16447 1.2736,-0.53713c0.35266,-0.48507 0.13873,-1.21264 0.39332,-1.75564c0.60336,-1.28689 2.58031,-3.50846 2.39503,-5.14951c-0.0584,-0.51725 -0.65805,-0.82336 -0.86146,-1.30251c-0.38349,-0.90333 -0.65354,-1.85435 -0.88372,-2.80834c-0.7305,-3.02764 -0.56908,-4.46108 -3.25173,-6.22205c0,0 -0.13191,-0.09155 -0.29066,-0.25952c-0.55493,1.71583 -1.18625,3.42073 -1.68402,5.06205l-1.47295,2.16388c0,0 -1.04726,1.50892 -2.55618,0.46167c-1.50892,-1.04726 -0.46167,-2.55618 -0.46167,-2.55618l1.17642,-1.65343c0.78752,-2.81758 2.12533,-5.78964 2.52967,-8.67092c0.14033,-0.99994 -0.02287,-2.02737 0.1211,-3.0268c0.10144,-0.70417 0.49875,-1.34266 0.60955,-2.04542c0.43227,-2.74167 -1.59419,-3.4827 -3.80008,-4.09925c0,0 -1.76266,-0.51635 -1.24631,-2.27901c0.51635,-1.76266 2.27901,-1.24631 2.27901,-1.24631c2.05785,0.6241 3.29549,0.72518 4.87342,2.47902c2.33066,2.59052 1.32844,4.87699 0.90949,7.7852c-0.14397,0.99942 0.02621,2.02786 -0.1211,3.0268c-0.07485,0.50756 -0.17346,1.01837 -0.29017,1.53103c0.79381,-0.19394 1.51898,0.30936 1.51898,0.30936c3.33136,2.40156 3.81237,4.49365 4.72465,8.36364c0.37807,1.60381 1.68726,2.95054 1.82993,4.59212c0.16041,1.84565 -0.76031,3.6043 -1.68078,5.22296c0.27562,0.10102 0.45322,0.22428 0.45322,0.22428c0.52746,0.36608 4.03013,2.765 4.25032,3.07092c0.59692,0.82932 0.60311,1.9562 1.00074,2.89746c2.28491,5.40888 2.58866,13.34936 0.96224,19.10335l-1.79299,1.59368c0,0 -1.61151,0.88127 -2.49278,-0.73023z" fill="#000000" stroke-width="0.5"></path></g></g></svg>