<svg version="1.1" xmlns="http://www.w3.org/2000/svg" xmlns:xlink="http://www.w3.org/1999/xlink" width="120" height="93.66108" viewBox="0,0,120,93.66108"><g transform="translate(-137.5,-196.33892)"><g data-paper-data="{&quot;isPaintingLayer&quot;:true}" fill-rule="nonzero" stroke="#000000" stroke-linecap="butt" stroke-linejoin="miter" stroke-miterlimit="10" stroke-dasharray="" stroke-dashoffset="0" style="mix-blend-mode: normal"><path d="M256,243.5c0,24.85281 -26.19134,45 -58.5,45c-32.30866,0 -58.5,-20.14719 -58.5,-45c0,-24.85281 26.19134,-45 58.5,-45c32.30866,0 58.5,20.14719 58.5,45z" fill="#ffffff" stroke-width="3"></path><path d="M240.97646,224.65397c-3.59643,11.31638 -18.67245,16.62541 -33.67323,11.85805c-15.00078,-4.76736 -24.24584,-17.80581 -20.64941,-29.12219c3.59643,-11.31638 17.98087,-11.67347 32.98165,-6.90611c15.00078,4.76736 24.93742,12.85387 21.34099,24.17025z" fill="#ff4c4c" stroke-width="2.5"></path><path d="M195.67394,278.48248c-4.78002,8.7165 -19.25417,9.97017 -32.32892,2.80014c-13.07475,-7.17003 -19.79897,-20.0486 -15.01895,-28.7651c4.78002,-8.7165 19.25417,-9.97017 32.32892,-2.80014c13.07475,7.17003 19.79897,20.0486 15.01895,28.7651z" fill="#83ff73" stroke-width="2.5"></path><path d="M214.25522,277.98078c4.38039,6.37148 12.75672,2.84418 21.17618,-2.9442c8.41946,-5.78838 13.69377,-11.64589 9.31337,-18.01737c-4.38039,-6.37148 -14.75672,-6.84418 -23.17618,-1.0558c-8.41946,5.78838 -11.69377,15.64589 -7.31337,22.01737z" fill="#4c7fff" stroke-width="2.5"></path></g></g></svg>