<svg version="1.1" xmlns="http://www.w3.org/2000/svg" xmlns:xlink="http://www.w3.org/1999/xlink" width="83.03566" height="91.27319" viewBox="0,0,83.03566,91.27319"><g transform="translate(-143.89435,-187.30783)"><g data-paper-data="{&quot;isPaintingLayer&quot;:true}" fill-rule="nonzero" stroke-linecap="butt" stroke-linejoin="miter" stroke-miterlimit="10" stroke-dasharray="" stroke-dashoffset="0" style="mix-blend-mode: normal"><path d="M225.32513,241.52784c-0.47628,4.19132 -1.60308,9.79918 -5.6431,10.99851c-1.51053,0.44843 -3.18666,-0.36336 -4.61268,-1.03364c-1.07393,-0.50478 -1.71245,-1.64939 -2.64813,-2.37921c-2.04825,-1.59761 -4.21734,-3.05533 -6.12313,-4.82045c-0.45687,-0.43145 -2.86245,-2.88955 -3.78566,-3.15789c-0.9046,-0.26293 -0.78432,1.71395 -1.13254,2.58927c-0.72865,1.83162 -2.00404,3.49095 -2.33113,5.43486c-0.38521,2.28941 -0.31429,4.63492 -0.59953,6.93892c-0.19635,1.586 0.27468,3.48588 -0.71491,4.74073c-4.98541,6.32169 -7.79505,0.20637 -10.45272,-3.18136c-0.28434,-0.36244 -1.345,-0.9605 -1.99637,-1.70921c-0.35322,1.26261 -0.98444,3.08977 -1.07339,3.59677c-0.24476,1.39507 -0.35805,6.27258 -0.69095,7.42305c-0.30443,1.05206 -1.4025,1.79194 -1.6015,2.86892c-0.16264,0.88015 0.39149,1.74677 0.58725,2.62015c-0.46834,1.92321 0.02675,4.40285 -1.40503,5.76964c-1.03013,0.98336 -2.83304,-0.39673 -4.25683,-0.36479c-1.13303,0.02541 -2.24414,0.74738 -3.35748,0.53559c-3.24377,-0.61707 -8.23813,-3.86374 -10.29761,-6.43696c-3.25895,-4.07191 -5.0807,-9.60522 -6.69876,-14.34557c-1.37634,-4.03218 -4.80564,-7.37423 -6.23332,-11.40814c-0.35169,-0.99369 -0.2204,-2.11455 -0.56091,-3.11213c-0.64609,-1.89278 -2.20964,-3.3799 -2.87692,-5.2653c-1.05008,-2.96698 -2.0711,-6.12313 -2.66307,-9.24529c-0.8313,-5.13742 0.40906,-9.27574 2.36799,-13.99147c0.90432,-2.17697 1.36508,-4.6251 2.80393,-6.49237c3.82311,-4.96147 9.4979,-8.9972 14.40395,-12.65053c1.34071,-0.99838 5.07392,-5.07277 6.3205,-5.75389c0.44262,-0.24185 8.75169,-2.36664 9.21588,-2.38663c0.97293,-0.04189 1.83696,0.75956 2.80997,0.79942c0.99535,0.04078 1.93882,-0.58313 2.93483,-0.5641c5.01291,0.09577 9.42193,0.43456 14.23622,1.84675c7.00887,2.20642 11.13559,8.42529 14.50868,14.59868c1.42596,2.60977 3.48914,5.46784 4.47906,8.26485c0.35169,0.99369 0.21444,2.11661 0.56091,3.11213c0.32869,0.94443 1.11422,1.68667 1.43846,2.63265c0.68356,1.99429 0.43016,4.23277 1.12182,6.22427c0.96747,2.78567 3.33945,5.09831 4.31537,7.89795c0.08801,0.25248 1.1383,6.13375 1.22461,6.61265c0,0 0.38776,2.15142 -1.57376,2.79322zM221.22399,234.68502c-0.07505,-0.3032 -0.16207,-0.60331 -0.26489,-0.89935c-0.96747,-2.78567 -3.33945,-5.09831 -4.31537,-7.89795c-0.69394,-1.9907 -0.41817,-4.23698 -1.12182,-6.22427c-2.3997,-6.7774 -5.90254,-15.94695 -11.33181,-20.93959c-2.2265,-2.04744 -3.41548,-3.76809 -6.34754,-4.53449c-4.34203,-1.27367 -8.16315,-1.55811 -12.74164,-1.64536c-1.11193,-0.02119 -2.17819,0.60194 -3.28944,0.55771c-0.91114,-0.03627 -1.70667,-0.81846 -2.61817,-0.79284c-2.32326,0.0653 -4.70326,0.66053 -6.74285,1.77495c-2.3242,1.26993 -3.68385,3.83856 -5.80235,5.42809c-4.57066,3.42943 -9.68771,7.08108 -13.35195,11.63136c-1.68089,2.08734 -1.15054,2.98266 -2.13568,5.32289c-1.54988,3.68181 -2.91624,7.20719 -2.08309,11.2313c0.47969,2.8521 1.52765,5.74449 2.45747,8.46854c0.64609,1.89278 2.20964,3.3799 2.87692,5.2653c0.35169,0.99369 0.2204,2.11455 0.56091,3.11213c1.37615,4.03162 4.80595,7.37512 6.23332,11.40814c0.35169,0.99369 0.2204,2.11455 0.56091,3.11213c0.60296,1.76648 1.81825,3.26041 2.71323,4.8984c1.2548,2.29653 2.17281,5.05508 4.44318,6.57647c1.68056,1.12615 3.32361,2.60249 5.32202,2.91696c0.96351,0.15162 1.90349,-0.7392 2.86679,-0.58623c0.55855,0.0887 0.65865,1.46628 1.17131,1.22747c0.48665,-0.2267 -0.51449,-0.94241 -0.77174,-1.41361c-0.17819,-1.20138 -0.73819,-2.4068 -0.53456,-3.60412c0.2195,-1.29065 1.37255,-2.26336 1.74585,-3.5182c1.13789,-3.82493 -0.37027,-9.74935 2.45139,-13.14372c1.2457,-1.49853 2.6879,-3.56519 4.63657,-3.56065c1.57858,0.00368 2.01732,2.43145 3.10166,3.57866c0.72407,0.76605 1.66539,1.32382 2.31601,2.15316c0.89959,1.14669 1.05932,2.8106 2.09127,3.8398c0.65446,0.65271 0.11265,-1.84535 0.14862,-2.76897c0.13527,-3.47302 0.27018,-7.35715 1.60184,-10.6144c0.45481,-1.11247 1.19481,-2.09123 1.67368,-3.19356c0.4706,-1.08328 0.33117,-2.51109 1.16701,-3.34557c4.57039,-4.56302 8.19022,-1.18023 11.79147,2.12556c1.81242,1.69212 3.91088,3.04928 5.85497,4.58833c0.97841,0.77456 1.64058,2.94889 2.79933,2.48573c1.09498,-0.43765 0.89387,-2.18795 1.21297,-3.32316c0.53312,-1.89666 0.85544,-3.8584 1.02135,-5.82156l-0.6625,-0.33684c0,0 -1.19871,-2.19388 0.99516,-3.39259c0.10225,-0.05587 0.20234,-0.10437 0.30025,-0.14606z" data-paper-data="{&quot;index&quot;:null}" fill="#000000" stroke="none" stroke-width="0.5"></path><path d="M221.00877,233.79157c0.10282,0.29604 0.18969,0.59729 0.26475,0.90049c-0.09791,0.04169 -0.19804,0.09044 -0.30029,0.14631c-2.19387,1.19871 -0.99606,3.39723 -0.99606,3.39723l0.66245,0.33705c-0.16592,1.96315 -0.49065,3.93216 -1.02377,5.82881c-0.3191,1.13521 -0.11994,2.8896 -1.21491,3.32727c-1.15877,0.46315 -1.9098,-1.757 -2.88821,-2.53156c-1.94409,-1.53906 -4.04367,-2.89382 -5.85609,-4.58594c-3.60125,-3.30578 -7.13335,-6.64134 -11.70372,-2.07832c-0.83583,0.83448 -0.70246,2.26984 -1.17305,3.35313c-0.47886,1.10233 -1.22572,2.08698 -1.68053,3.19945c-1.33165,3.25725 -1.47852,7.14764 -1.61378,10.62067c-0.03597,0.92362 0.50416,3.42226 -0.1503,2.76954c-1.03195,-1.0292 -1.19316,-2.69265 -2.09274,-3.83935c-0.65062,-0.82935 -1.59529,-1.38626 -2.31935,-2.15232c-1.08434,-1.14722 -1.52885,-3.57408 -3.10742,-3.57776c-1.94867,-0.00454 -3.40164,2.06199 -4.64733,3.56052c-2.82166,3.39436 -1.31468,9.31863 -2.45256,13.14356c-0.37329,1.25484 -1.52785,2.2273 -1.74735,3.51796c-0.20363,1.19732 0.37235,2.30404 0.55054,3.50541c0.25725,0.4712 1.24476,1.28597 0.75813,1.51266c-0.51267,0.23881 -0.61425,-1.13899 -1.1728,-1.22768c-0.96331,-0.15297 -1.90627,0.73728 -2.86979,0.58567c-1.9984,-0.31447 -3.64786,-1.79268 -5.32842,-2.91883c-2.27038,-1.5214 -3.19576,-4.28333 -4.45057,-6.57987c-0.89498,-1.63799 -2.11568,-3.13545 -2.71864,-4.90192c-0.34051,-0.99757 -0.21181,-2.12051 -0.56349,-3.1142c-1.42737,-4.03303 -4.86896,-7.39135 -6.24511,-11.42297c-0.34051,-0.99758 -0.21122,-2.12274 -0.5629,-3.11643c-0.66729,-1.88541 -2.23348,-3.38118 -2.87956,-5.27395c-0.92982,-2.72406 -1.97877,-5.6291 -2.45846,-8.4812c-0.83314,-4.02412 0.53665,-7.56542 2.08653,-11.24722c0.98513,-2.34024 0.45834,-3.24279 2.13923,-5.33013c3.66425,-4.55028 8.79922,-8.21962 13.36988,-11.64904c2.11849,-1.58953 3.48772,-4.16243 5.81192,-5.43235c2.03959,-1.11441 4.42871,-1.71169 6.75198,-1.77699c0.9115,-0.02562 1.71045,0.75626 2.62159,0.79252c1.11125,0.04423 2.18201,-0.57896 3.29394,-0.55777c4.57849,0.08725 8.41639,0.37516 12.75843,1.64882c2.93207,0.76641 4.13022,2.49182 6.35673,4.53927c5.42927,4.99265 8.95235,14.18919 11.35205,20.96658c0.70366,1.98729 0.42982,4.24296 1.12376,6.23366c0.97593,2.79964 3.34785,5.1235 4.31532,7.90917z" data-paper-data="{&quot;noHover&quot;:false,&quot;origItem&quot;:[&quot;Path&quot;,{&quot;applyMatrix&quot;:true,&quot;segments&quot;:[[[156.66648,252.01579],[-0.07951,-0.30206],[0.10591,-0.01036]],[[157,252],[-0.11652,0],[2.5,0]],[159.5,254.5],[[159.08013,255.11325],[0,0],[1.0869,1.64322]],[[162.76777,259.73223],[-1.37726,-1.40878],[0.82434,0.8432]],[[165.42562,262.06688],[-1.17075,0.14095],[1.23894,-0.14916]],[[166.6903,258.54329],[-0.48721,1.14885],[0.96808,-2.28276]],[[169.62829,251.70943],[-0.77914,2.35395],[1.5752,-4.62774]],[[178.95671,244.1903],[-6.19863,-1.81285],[1.13361,0.33153]],[[181.58497,246.56664],[-0.93239,-0.725],[0.94878,0.73774]],[[184.58497,248.56664],[-0.93253,-0.75817],[2.7304,2.21989]],[[191.08013,257.11325],[-1.78397,-2.9829],[0.47443,0.79327]],[[192.53822,259.47189],[-0.26135,0.8866],[0.4121,-1.39798]],[[192.53228,255.09954],[-0.2396,1.43762],[0.17329,-1.03975]],[[193.53228,252.09954],[-0.26809,1.01943],[0.40149,-1.52666]],[[194.53822,247.47189],[-1.38351,0.76013],[1.70788,-0.93834]],[[200.31433,248.37337],[-1.81168,-0.71774],[4.1037,1.62578]],[[208.76777,258.73223],[-2.83255,-2.81097],[0.92927,0.92219]],[[211.98677,260.98252],[-0.81147,-1.02737],[0.75279,0.95307]],[[213.24579,264.40162],[-0.41967,-1.1397],[0.00019,0.53685]],[[213.24634,266.01217],[-0.53574,0.0344],[0.56439,-0.03624]],[[213.68567,264.37337],[-0.44763,0.34565],[0.772,-0.59613]],[[216.48252,263.51323],[-0.77284,0.59504],[1.60292,-1.23417]],[[219.75421,258.40162],[-0.9348,1.79406],[1.26288,-2.42371]],[[220.5,250.5],[0,2.61699],[0,-1.86655]],[[220.53228,244.90046],[0.31787,1.83928],[-0.17951,-1.0387]],[[219.53228,241.90046],[0.16784,1.04064],[-0.68119,-4.22358]],[[219.53228,228.90046],[0.72547,4.19779],[-0.17951,-1.0387]],[[218.53228,225.90046],[0.16784,1.04064],[-0.31845,-1.97448]],[[218.53228,219.90046],[0.34059,1.97079],[-0.49018,-2.83633]],[[216.62829,211.29057],[0.94659,2.73286],[-1.19837,-3.93084]],[[209.41503,202.43336],[3.12547,2.48782],[-1.98662,-1.58131]],[[204.98862,198.78629],[2.47591,1.02578],[-5.39735,-2.23614]],[[187.69454,194.98127],[5.65534,0.81792],[-2.62124,-0.3791]],[[180,193],[2.64851,0],[-2.32419,0]],[[173.23175,194.6755],[2.0701,-1.05667],[-0.81217,0.41457]],[[171.31433,196.62663],[0.78218,-0.4687],[-0.95397,0.57164]],[[168.16027,197.71445],[0.96561,-0.55175],[-3.97602,2.27189]],[[157.76777,205.26777],[3.19965,-3.19965],[-2.20555,2.07844]],[[154.37171,212.29057],[0.97215,-2.86432],[-2.37055,6.98455]],[[154.46772,236.09954],[-1.14381,-7.09812],[0.33539,2.08134]],[[156.46772,242.09954],[-0.34555,-2.07967],[0.48597,2.92476]],[[156.46772,251.09954],[-0.48668,-2.90845],[0.05172,0.30909]]],&quot;closed&quot;:true}],&quot;index&quot;:null}" fill="#ffffff" stroke="none" stroke-width="0.5"></path><path d="M154.36665,221.12545c-4.86986,-6.70175 -1.01296,-14.28621 7.92272,-20.77936c8.93568,-6.49315 19.56637,-9.43618 24.43624,-2.73442c4.86986,6.70175 1.57387,17.39835 -7.36181,23.8915c-8.93568,6.49315 -20.12728,6.32405 -24.99715,-0.37771z" data-paper-data="{&quot;index&quot;:null}" fill="#75a2ff" stroke="#000000" stroke-width="2.5"></path><path d="M204.74794,214.61124c4.11958,-2.25091 9.71324,0.04974 12.49377,5.13864c2.78053,5.0889 1.69502,11.03899 -2.42457,13.2899c-4.11958,2.25091 -9.71324,-0.04974 -12.49377,-5.13864c-2.78053,-5.0889 -1.69502,-11.03899 2.42457,-13.2899z" data-paper-data="{&quot;index&quot;:null}" fill="#80ff75" stroke="#000000" stroke-width="2.5"></path></g></g></svg>