<svg version="1.1" xmlns="http://www.w3.org/2000/svg" xmlns:xlink="http://www.w3.org/1999/xlink" width="249.04387" height="168.18552" viewBox="0,0,249.04387,168.18552"><g transform="translate(-47.76875,-125.72609)"><g data-paper-data="{&quot;isPaintingLayer&quot;:true}" fill-rule="nonzero" stroke="none" stroke-linecap="butt" stroke-linejoin="miter" stroke-miterlimit="10" stroke-dasharray="" stroke-dashoffset="0" style="mix-blend-mode: normal"><path d="" fill="#000000" stroke-width="0.5"></path><path d="M148.75,231c-3.03594,-0.02591 -5.67361,1.07409 -8.65602,1.47513c-3.96724,0.53348 -7.92345,0.68634 -11.85369,1.47632c-8.22488,1.64498 -16.11774,2.54855 -24.49029,2.54855c-5.77606,0 -10.48992,-0.01635 -15.93155,-2.18004c-6.73314,-2.67722 -12.26786,-5.64417 -12.5585,-13.43951c-3.36191,-0.93143 -6.48666,-2.41524 -8.91057,-5.25637c-1.09802,-1.28702 -1.55696,-3.00403 -2.33544,-4.50604c0,0 -0.24408,-0.48815 -0.27606,-1.12233c-0.2008,-0.08113 -0.40073,-0.16658 -0.59975,-0.25657c-2.94259,-1.33059 -5.2913,-3.63123 -8.37291,-4.94127c0,0 -1.91729,-0.8217 -1.49862,-2.71528c-1.12524,-0.18901 -2.22977,-0.43012 -3.0809,-1.13247c-1.34613,-1.11084 -1.6113,-3.09643 -2.41695,-4.64465c0.95431,-4.44575 0.40651,-7.33542 5.02456,-9.61516c1.18401,-0.5845 2.63685,-0.1514 3.95671,-0.1903c3.4919,-0.10292 7.0066,-0.00298 10.5,0c10.77654,0.00921 21.83063,0.24623 32.57252,1.33508c4.03702,-7.14119 12.19164,-12.58259 19.85685,-14.98163c0.06546,-0.22158 0.11427,-0.45498 0.14216,-0.70018c1.21927,-0.50734 2.47787,-0.89198 3.77805,-1.121c1.01604,-0.17897 2.07317,0.12865 3.09499,-0.01355c2.37216,-0.33011 4.5435,-1.58719 6.90501,-1.98645c2.04076,-0.34504 4.27332,0.12364 6.16871,-0.70778c0.97703,-0.42858 1.56171,-1.41171 1.92543,-2.60494c-1.72171,0.08431 -3.41552,0.28044 -4.69369,0.28044c0,0 -2.5,0 -2.5,-2.5c0,-2.5 2.5,-2.5 2.5,-2.5c1.69436,0 3.52685,-0.13794 5.36312,-0.16462c0.04584,-0.67894 0.09099,-1.28012 0.16915,-1.73583c0.4019,-2.34324 0.98823,-4.10148 1.9481,-5.60977c-0.09164,-1.9139 1.91328,-2.41513 1.91328,-2.41513c0.06642,-0.0163 0.13281,-0.03241 0.1992,-0.04832c0.59043,-0.53685 1.25974,-1.065 2.02039,-1.60646c0,0 2.05567,-1.37044 3.44227,0.65694c3.16899,-0.39035 6.33446,-0.58602 9.54402,-1.04454c1.0435,-0.14908 1.95935,-0.83216 3,-1c0.56457,-0.09106 1.16627,-0.16998 1.79518,-0.23677c1.12109,-5.23192 3.14879,-8.64156 6.33723,-13.02089c1.65472,-2.27275 2.19529,-3.90199 4.55627,-5.55248c2.97736,-2.08138 6.0812,-2.33094 9.51107,-2.93093c2.88384,-0.50447 3.4618,-1.04308 6.47113,0.17677c5.55461,2.25159 10.18772,6.94624 14.36821,11.14426c2.26189,3.04023 4.02866,6.46622 4.5872,10.29125c0.39926,2.73421 -0.04389,5.31676 0.33248,8.02163c1.09592,0.47122 2.19257,0.94137 3.09619,1.70069c3.22055,2.70625 3.48051,7.27763 5.47212,10.55986c0.48908,0.80603 1.51844,1.18946 2,2c0.60611,1.02018 0.71236,2.26833 1.18308,3.35762c1.78694,4.13515 3.59158,8.08532 4.17157,12.65125c0.08199,0.64543 0.03264,1.29931 -0.01425,1.95285c0.03296,0.21312 0.03296,0.35265 0.03296,0.35265c0,0.3565 -0.0288,0.78035 -0.07009,1.24233c0.00853,0.11933 0.02086,0.23841 0.03783,0.35718c0.02565,0.17956 0.06777,0.35523 0.12068,0.52837l-0.21725,0.97762c-0.25916,0.5058 -0.40363,0.95544 -0.47249,1.20559c1.68513,-0.23034 3.27593,-0.61185 5.10497,-0.79893c8.05341,-0.82375 15.76416,-2.59244 23.53398,-4.90852c5.1271,-1.52832 9.7166,-4.44332 15,-5.5c5.84868,-2.33947 13.57421,-3.50919 19.37624,-0.3162c4.09705,2.2547 6.34691,4.57731 5.82396,9.4589c-0.13537,1.26363 -0.17941,2.67888 -0.94429,3.69378c-1.41813,1.88167 -3.53261,2.64712 -5.82533,3.05849c0.39503,1.89548 0.94618,3.78639 0.77413,5.69694c-0.21247,2.35935 -1.08526,4.54598 -2.35832,6.50263c0.00646,0.01015 0.00972,0.01558 0.00972,0.01558c0.60079,1.08997 1.61728,2.03916 1.80237,3.2699c0.47567,3.16305 -0.25561,6.06779 -1.68707,8.65988c0.91048,0.84753 0.71584,2.21001 0.71584,2.21001l-0.00001,-0.00001c-0.91177,6.17771 -4.10489,13.15909 -9.59865,16.73355c-2.40464,1.56455 -5.35385,2.21299 -8.39674,2.3999c0.34748,1.67968 0.4811,3.3809 0.51201,4.80679c0.02917,1.34537 0.43604,2.93912 -0.36485,4.02053c-1.20795,1.63103 -2.36872,2.26403 -3.62621,2.50475c0.39815,0.43098 0.72561,0.90249 0.89231,1.45646c0.63128,2.09778 -1.35314,7.08835 -3.3183,7.9818c-1.79262,0.81501 -7.27277,-0.89139 -9.1229,-1.31825c-3.14449,-0.7255 -6.82253,-0.85171 -9.88098,-1.93304c-0.12697,0.80172 -0.423,1.47879 -0.95461,1.90149l-0.00001,0.00003c-1.36157,1.08263 -3.50052,0.29127 -5.21857,0.01873c-8.51791,-1.35122 -14.05528,-8.50166 -18.89737,-14.92628l-0.3203,-0.30548c-0.85342,0.00229 -1.73755,-0.07202 -2.66999,-0.24307l-0.55459,-0.24374c-2.17002,0.81207 -4.21834,2.02423 -5.97949,3.31033c-0.49412,0.36084 -0.98941,0.68302 -1.47432,0.99153c-0.23618,1.37061 -1.71074,1.86213 -1.71074,1.86213l-1.04222,0.07926c-0.80127,0.72762 -1.46156,1.61089 -1.88366,2.86037c-0.50715,1.50122 -0.70451,3.07621 -0.70782,4.66617c1.10564,0.01673 2.21917,0.02249 3.34313,0.02249h2c0,0 2.5,0 2.5,2.5c0,2.5 -2.5,2.5 -2.5,2.5h-2c-0.95413,0 -1.90129,-0.00454 -2.84283,-0.01631c0.0916,0.51452 0.19109,1.0239 0.29428,1.52602l0.37665,1.07525c1.32038,0.40994 1.62335,1.92475 1.62335,1.92475l0.4648,2.34862c1.28215,3.95229 2.27077,9.59655 -0.23684,13.36648c-0.80794,1.21467 -1.59829,2.79373 -3.0044,3.18234c-1.36605,0.37753 -2.861,-0.37269 -4.1185,-1.07378c-0.89694,0.95184 -1.65367,2.07368 -2.74217,2.79326c-0.9899,0.6544 -2.26215,0.72692 -3.35762,1.18308c-2.22613,0.92696 -5.56312,3.61942 -8.22447,0.95806c-1.28075,-1.28075 -1.18508,-3.27022 -0.6051,-5.03175c-0.02411,0.01049 -0.04785,0.02051 -0.07119,0.03003c-2.51548,1.02589 -5.15415,1.18369 -6.96952,-0.92285c-3.32209,0.69166 -6.6874,1.37712 -10.08642,1.1568c-1.30566,-0.08463 -2.80385,0.28215 -3.90157,-0.42983c-1.00997,-0.65506 -1.02559,-2.18716 -1.68554,-3.19394c-0.22417,-0.34199 -0.61463,-0.73184 -1.08703,-1.13238l-2.56174,-0.85391c-1.02156,-0.31417 -1.76412,-1.26534 -1.76412,-2.38994c0,-0.92661 0.50412,-1.73548 1.25305,-2.1673l2.46071,-1.47643l0.03171,0.05286l0.14362,-0.14874c2.86667,-1.14667 5.30757,-2.61321 8.25101,-3.60785c0.42415,-0.16944 0.83105,-0.41523 1.24889,-0.61259c-0.68004,-0.75963 -1.20739,-1.69424 -1.84991,-2.48921c-2.73322,-3.38171 -4.55032,-7.63607 -5.28252,-11.97175c-0.24937,-0.03822 -0.49832,-0.08065 -0.74685,-0.12754c0,0 -2.45145,-0.49029 -1.96116,-2.94174c0.32846,-1.64234 1.53715,-1.96435 2.29924,-1.998c-0.01968,-4.28908 0.76193,-8.95564 3.0651,-12.38795c1.49258,-2.22431 3.6437,-3.81727 5.8941,-5.28373c-0.68715,0.0435 -1.37407,0.0922 -2.06065,0.14779c-1.56819,0.12696 -2.87919,1.27198 -4.34485,1.84397c-0.28979,0.11309 -1.03359,0.27287 -1.90711,0.43772c-0.0722,0.14912 -0.14082,0.3003 -0.20571,0.45344c-0.2774,-0.0868 -0.55385,-0.17519 -0.8289,-0.26551c-1.31061,0.23046 -2.6341,0.43938 -3.04877,0.50854c0,0 -2.46598,0.411 -2.87698,-2.05499c-0.07981,-0.47887 -0.05113,-0.88026 0.04691,-1.21618c-0.45799,-0.3481 -0.91814,-0.69252 -1.42931,-0.94903c-1.8265,-0.91654 -3.6108,-1.67814 -5.16879,-2.81972c-0.00815,-0.02717 -0.01681,-0.05439 -0.02601,-0.08166c-0.05627,-0.16693 -0.11556,-0.32892 -0.17774,-0.48609zM89.68155,229.68004c4.8039,1.9344 8.95131,1.81996 14.06845,1.81996c8.04441,0 15.60324,-0.87016 23.50971,-2.45145c4.01349,-0.79901 8.04676,-0.98369 12.09668,-1.51871c2.66121,-0.35156 5.06835,-1.14568 7.6774,-1.4281c-1.23963,-3.08138 -1.57255,-6.86313 -2.43407,-9.90278c-1.05205,-3.71185 -1.11918,-6.83772 -1.0997,-10.69897c0.0037,-0.73436 -0.28614,-2.04868 -0.05919,-3.08037c-0.65651,0.25683 -1.34875,0.43282 -2.04035,0.54809c-0.98639,0.1644 -2.01273,-0.15909 -3,0c-1.94958,0.31416 -3.73649,1.27953 -5.60988,1.90399c-3.40776,1.1064 -4.59195,3.01037 -7.47624,4.75491c-0.95161,0.57557 -2.18776,0.5373 -3.15407,1.08783c-2.4604,1.40175 -4.44647,3.54359 -6.90545,4.94782c-1.22358,0.69874 -2.61624,1.09089 -3.79304,1.86583c-0.9433,0.62118 -1.46082,1.85121 -2.50507,2.28159c-0.99645,0.41069 -2.20794,-0.25221 -3.23225,0.08303c-0.71046,0.23252 -1.27572,0.86114 -1.87108,1.36785l1.75294,0.31408c0,0 0.42616,0.10654 0.87655,0.40894c-2.40679,-0.03404 -4.76103,-0.13819 -7.15558,-0.45574c-3.58035,-1.33824 -3.35147,-5.44003 -2.80854,-9.33331c0.47943,-3.4381 1.45018,-6.72256 2.01355,-10.09499c0.12379,-0.74103 0.20829,-1.48999 0.2853,-2.24027c-1.56761,-0.52777 -1.56761,-2.35926 -1.56761,-2.35926v-0.49999c0.01262,-1.48676 0.21691,-2.93574 0.58613,-4.33914c-11.09516,-1.05081 -22.47281,-1.16086 -33.58613,-1.16086c-2.4903,0 -5.01212,0.10421 -7.5,0c-0.68345,-0.02863 -1.40043,-0.42406 -2.04329,-0.1903c-1.57959,0.57437 -1.73223,3.36044 -1.97544,4.38484c1.08431,2.52059 6.04431,2.35722 8.41192,2.83459c5.39127,1.08701 11.73587,0.62514 17.11652,-0.48058l3.09663,0.5261c0,0 2.42536,0.60634 1.81902,3.0317c-0.60634,2.42536 -3.0317,1.81902 -3.0317,1.81902l-0.90337,-0.4739c-5.47905,1.07104 -11.06674,1.35568 -16.59441,0.78742c0.88112,0.56324 1.7748,1.09106 2.71601,1.522c4.984,2.28196 11.29569,0.99261 16.56534,1.74542l2.32278,-0.00629c0,0 2.5,0 2.5,2.5c0,2.5 -2.5,2.5 -2.5,2.5l-2.67722,-0.00629c-3.93921,-0.56274 -8.07787,-0.24485 -12.07725,-0.6607c0.18022,0.37213 0.38958,0.72555 0.6551,1.04292c3.97239,4.74794 11.57532,4.57047 17.08966,5.67262l1.50971,-0.04855c0,0 2.5,0 2.5,2.5c0,2.5 -2.5,2.5 -2.5,2.5l-2.49029,-0.04855c-1.91932,-0.38412 -3.92353,-0.66729 -5.9247,-1.00217c0.67316,4.54941 5.1194,6.02861 9.34654,7.73076zM276.87377,236.4129c2.82608,-1.95844 4.87408,-5.02442 6.12482,-8.30075c-1.604,1.35999 -3.31523,2.54331 -4.96235,3.53159l-1.78624,0.35627c0,0 -2.5,0 -2.5,-2.5c0,-2.02834 1.64567,-2.41102 2.26662,-2.48321c4.1713,-2.61907 10.73614,-8.03355 8.85818,-13.25638c-1.26451,1.14617 -2.63612,2.14665 -4.0139,2.97921l-2.68243,1.08157c0,0 -2.32119,0.92848 -3.24967,-1.39272c-0.92848,-2.32119 1.39272,-3.24967 1.39272,-3.24967l2.31757,-0.91843c3.13549,-1.86233 6.83043,-5.49542 7.11857,-9.45594c0.11509,-1.58186 -0.38587,-3.13277 -0.74216,-4.69423c-1.23343,0.15756 -2.41196,0.36912 -3.45416,0.75447c-1.8499,0.68399 -3.5522,1.7226 -5.38286,2.45651l-1.42848,0.17881c0,0 -2.5,0 -2.5,-2.5c0,-2.5 2.5,-2.5 2.5,-2.5l-0.42848,0.17881c3.98236,-1.58909 7.23759,-2.86721 11.47777,-3.63785c1.1382,-0.20686 5.08531,-0.36804 5.90716,-1.48108c1.87768,-2.54297 -1.37942,-4.91 -3.12033,-5.84732c-4.69764,-2.52924 -10.97631,-1.17518 -15.62376,0.6838c-5.27027,1.05405 -9.88096,3.95556 -15,5.5c-10.39223,3.13539 -21.81442,6.0628 -32.71237,6.10364c0,0 -2.5,0 -2.5,-2.5c0,-0.5364 0.11509,-0.95772 0.29589,-1.28863c-0.15443,-0.49114 -0.14617,-1.10094 0.21806,-1.82938c0.00755,-0.0151 0.01515,-0.03005 0.0228,-0.04485c0.07363,-1.47016 0.21325,-2.91311 0.21325,-3.83714c0,0 0,-0.20728 0.05969,-0.50248c0.01253,-0.39907 0.00756,-0.79701 -0.04098,-1.19206c-0.50629,-4.12063 -2.24522,-7.61936 -3.82843,-11.34875c-0.36026,-0.84862 -0.33867,-1.8542 -0.81692,-2.64238c-0.48908,-0.80603 -1.51844,-1.18946 -2,-2c-1.6348,-2.75164 -1.86588,-7.2497 -4.52788,-9.44014c-0.11264,-0.09268 -0.22986,-0.17812 -0.35085,-0.25762c-0.37033,0.36311 -0.9222,0.63367 -1.74464,0.63367c-2.11332,0 -2.44019,-1.78645 -2.49075,-2.33908c-3.82988,-1.11291 -7.39926,-1.50246 -11.36559,-2.48582c-6.01747,-1.49188 -11.78377,-2.91892 -17.79412,-3.95763c-2.16774,-0.37463 -4.39967,0.03228 -6.59955,0.03228c-2.19987,0 -4.4318,-0.40691 -6.59955,-0.03228c-1.03869,0.17951 -1.9565,0.85093 -3,1c-4.65111,0.66443 -9.2537,0.70125 -13.85514,1.73281c-0.79764,1.55211 -0.81209,3.7724 -0.91954,5.60633c0.94198,0.23491 1.84557,0.57667 2.68856,1.06651c3.50448,2.0364 5.86148,7.75556 9.77014,9.31144c0.84775,-0.14216 1.7909,0.09928 2.66553,0.06518c0,0 0.7156,0 1.38109,0.38286c0.49017,-0.03321 0.96113,-0.09458 1.417,-0.1801c0.02652,-0.08122 0.05325,-0.16234 0.0802,-0.24333c0,0 0.79057,-2.37171 3.16228,-1.58114c0.32093,0.10698 0.58396,0.24291 0.79888,0.398c2.00763,-0.99192 3.96852,-2.26427 6.39916,-3.31257c1.262,-0.54429 2.73655,-0.4591 4,-1c1.07581,-0.46056 1.86463,-1.43953 2.913,-1.95951c0.1866,-0.09255 5.93067,-2.0002 6.30781,-2.12592c3.59536,-1.16236 9.73619,-2.22106 13.51503,-1.02102c2.15296,0.68371 3.9176,2.32346 6.06611,3.02102l0.20943,-0.12829c0,0 2.5,0 2.5,2.5c0,2.5 -2.5,2.5 -2.5,2.5l-0.97593,-0.06993c0.71941,2.08974 0.46749,4.37396 0.47593,6.56993c0.01622,4.22154 0.17649,7.75472 -1.12829,11.79057c-1.81519,5.33279 -5.83944,12.63688 -11.64725,14.60216c-1.17647,0.3981 -2.48261,0.08746 -3.72446,0.10727c-3.85619,0.06152 -6.99861,-0.05091 -10.69897,-1.0997c-4.24923,-1.20436 -8.71515,-1.34399 -12.06879,-4.63253c-0.7811,-0.76594 -1.46689,-1.56698 -2.06493,-2.39738c-1.36326,0.69891 -2.76134,1.19036 -4.17591,1.49531c1.02033,0.31647 1.98871,0.76553 3.60599,1.77872c4.5918,2.87664 8.27851,6.6659 12.93885,9.4621l1.60051,1.06361c0,0 0.1445,0.09634 0.33194,0.27631c0.14543,-0.35794 0.25689,-0.75196 0.32986,-1.18647c0,0 0.49029,-2.45145 2.94174,-1.96116c2.45145,0.49029 1.96116,2.94174 1.96116,2.94174c-0.22306,1.01004 -0.21483,2.10088 -0.66918,3.03014c-2.44992,5.01063 -9.17939,5.51806 -14.03592,6.46741l-2.74634,0.01217c0,0 -2.5,0 -2.5,-2.5c0,-2.5 2.5,-2.5 2.5,-2.5l2.25366,0.01216c1.86286,-0.38281 3.99535,-0.57274 5.84206,-1.11287l-0.38196,-0.25556c-4.71842,-2.83105 -8.47111,-6.56027 -13.06115,-9.53789c-2.42711,-1.5745 -3.33848,-1.40581 -6.29927,-2.19093c-5.0276,-1.33318 -9.61861,-2.43435 -14.85334,-2.41491c-6.46896,-0.01442 -14.49313,0.12637 -20.68866,2.36468c-3.86477,1.39625 -5.78991,4.14412 -8.54358,6.90309c-2.91612,2.92174 -5.49542,5.94021 -7.99365,9.11401c0.52148,0.10721 1.04604,0.23979 1.51918,0.05828c0.70884,-0.27195 0.86585,-1.29336 1.49493,-1.71841c1.30291,-0.88034 2.84191,-1.35364 4.20696,-2.13417c2.52029,-1.44108 4.57565,-3.60867 7.09455,-5.05218c0.86432,-0.49532 1.98955,-0.40327 2.84593,-0.91217c0.71667,-0.42588 1.07511,-1.29006 1.72936,-1.80673c1.99201,-1.57315 4.3915,-2.62045 6.7944,-3.43836c0.46939,-0.15646 6.11762,-2.04927 6.39012,-2.09601c0.98561,-0.16905 2.01361,0.1644 3,0c1.03975,-0.17329 1.94591,-1.00074 3,-1c1.84033,0.0013 4.25355,-0.41043 5.42856,1.00595c1.04166,1.25564 -0.4452,3.23483 -0.56038,4.86223c-0.06118,0.86442 0.02728,1.73298 0.03228,2.59955c0.01268,2.19984 -0.34344,4.42179 -0.03228,6.59955c0.33336,2.33315 1.38601,4.50764 1.95763,6.79412c0.52695,2.10778 0.5804,4.4308 1.70127,6.29201c0.07663,0.12725 0.1553,0.2492 0.23591,0.36622c0.53907,-0.03211 1.08444,-0.04946 1.6375,-0.05191h0.5c0,0 2.5,0 2.5,2.5c0,0.26291 -0.02765,0.49818 -0.07713,0.7087c0.38751,0.17145 0.78051,0.34881 1.17548,0.54553c1.0758,0.53582 1.92715,1.4583 3,2c0.83621,0.42221 1.72478,0.79227 2.64387,1.12788c0.20496,-0.06139 0.40726,-0.13197 0.60627,-0.2139c1.5001,-0.61755 2.94817,-1.48929 4.50021,-1.92512c0.37375,-0.64641 1.26048,-1.67524 2.94185,-1.11479c0.46802,0.156 0.8129,0.37359 1.06501,0.62236c5.04579,-0.36643 10.16071,-0.29156 15.18822,-0.74213c6.85257,-0.61413 13.25475,-2.50852 20.2062,-2.50852c3.60623,0.05472 5.60823,0.86546 8.5,3l1.97672,1.48254c0.62044,0.45492 1.02328,1.18914 1.02328,2.01746c0,1.38071 -1.11929,2.5 -2.5,2.5c-0.18573,0 -0.36673,-0.02025 -0.54091,-0.05867l-2.44938,-0.48988l0.01126,-0.0563c-0.0777,0.00144 -0.15548,0.00187 -0.23334,0.00121c-1.38067,-0.01166 -2.6709,-1.07709 -4.04129,-0.90852c-0.21789,0.0268 -0.43543,0.05636 -0.65254,0.08866c2.33191,2.39506 4.17376,4.51033 6.04993,7.63727l0.12403,0.01847c0,0 0.14596,0.14596 0.31206,0.39595c0.11389,-0.04236 0.22805,-0.08387 0.34247,-0.1245c0.52551,-0.45518 1.127,-0.54771 1.62828,-0.51251c2.72176,-0.74635 5.56579,-0.96983 8.43971,-0.44263c0,0 0.03691,0.00738 0.10077,0.02486c0.85802,-0.31342 1.725,-0.64733 2.61837,-0.94512l0.00002,-0.00001c0,0 0.04155,-0.01385 0.11548,-0.03238c0.56811,-0.59143 1.11384,-1.20157 1.63174,-1.83249c-1.14163,-0.30816 -2.28911,-0.58583 -3.44694,-0.81197l-1.77748,-1.18368c0,0 -0.88019,-0.88019 -0.77731,-2.01948l-1.31126,-0.32291c0,0 -2.42536,-0.60634 -1.81902,-3.0317v-0.00001c0.60634,-2.42536 3.0317,-1.81902 3.0317,-1.81902l1.80466,0.45937c2.70744,0.45153 5.3882,0.97631 8.07929,1.51453c4.05686,0.83368 8.11253,0.12375 12.21591,0.45997c1.88172,0.15418 3.778,0.20657 5.64055,0.51565c7.40455,1.22874 14.50945,2.92958 21.62911,-0.30476c0.14464,-0.06571 0.31768,-0.13366 0.50973,-0.20527c0.44326,0.38243 0.88936,0.76178 1.33806,1.13815c0.5178,1.02991 1.05892,2.04324 1.62769,3.03562c-0.45029,0.17577 -0.9241,0.36391 -1.42719,0.5927c-2.06038,0.93699 -4.11781,1.5281 -6.17654,1.86924c2.62495,-0.03317 5.16606,-0.44791 7.02616,-1.73694zM261.00366,242.48783c-5.75025,-0.59011 -11.51861,0.5828 -17.24395,-0.53638c-2.68917,-0.54283 -5.31814,-1.35219 -7.94248,-2.1673c-2.21609,3.07939 -4.98947,5.7495 -8.0055,8.168c0,0 -0.00008,0.00006 -0.00023,0.00018c2.01638,2.65427 4.31458,5.38277 6.78587,6.94181l0.00003,0.00001c1.70315,1.07445 3.73815,1.48067 5.62717,2.19696c-1.82084,-1.414 -3.46771,-3.05084 -5.24233,-4.82336l-2,-2c0,0 -1.76777,-1.76777 0,-3.53553c1.76777,-1.76777 3.53553,0 3.53553,0l2,2c0.80612,0.80712 1.58119,1.60045 2.3667,2.35566c0.39241,0.11276 0.65177,0.26838 0.65177,0.26838c1.05462,0.69314 2.40676,1.06973 3.16387,2.07941c0.19968,0.26629 0.41362,0.6581 0.61998,1.13279c0.69685,0.40231 1.43846,0.76114 2.24125,1.06684c2.96549,1.12925 6.63715,1.21006 9.73713,1.92559c1.31664,0.30391 2.63299,0.61397 3.93211,0.98572c0.66202,0.18944 1.2704,0.83421 1.94499,0.69603c0.38193,-0.07824 0.11786,-0.77479 0.24262,-1.14415c0.10434,-0.3089 0.57812,-0.57914 0.43907,-0.87405c-0.33581,-0.71222 -1.10608,-1.30096 -2.0557,-1.79453c-0.63349,0.13863 -1.91589,0.22341 -2.66651,-1.07395c-1.28412,-0.42209 -2.51278,-0.74194 -3.24496,-1.00852c-1.69705,-0.61789 -4.60572,-1.89861 -6.1249,-2.5496c0,0 -2.29786,-0.9848 -1.31306,-3.28266c0.9848,-2.29786 3.28266,-1.31306 3.28266,-1.31306c3.07787,1.31927 6.97862,2.25439 10.26419,3.83326l1.27824,-0.49029c0.10511,0.00095 3.36815,0.24116 3.84614,-0.35944c0.21696,-0.27261 -0.28938,-0.63934 -0.36485,-0.97947c-0.23692,-1.0677 -0.17339,-3.41655 -0.55921,-5.25394c-1.82174,-0.11091 -3.58695,-0.29932 -5.19563,-0.4644zM123.74029,176.95145c-1.39148,0.26389 -2.8788,0.69267 -4.39707,1.26679c-0.9299,0.67262 -1.8127,1.4255 -2.70522,2.1704c-3.02425,2.52405 -5.68319,4.69878 -8.51138,7.4257c-0.97181,3.07158 -2.84724,5.29227 -3.72633,8.38464c-1.18367,4.16382 -1.31827,8.4013 -1.91903,12.60649c-0.12099,0.84694 -0.38975,1.87417 -0.66592,2.95295c2.55079,-3.2285 5.19278,-6.30787 8.16689,-9.27593h0.00001c2.4685,-2.46348 3.87734,-4.55648 7.01295,-6.3945c7.16369,-4.1992 17.68393,-4.32175 25.75481,-4.33773c1.55264,0.00489 3.05829,0.09166 4.53831,0.24516c-6.47859,-4.0665 -11.60492,-10.8947 -12.98976,-17.75512c0,0 -0.01889,-0.09444 -0.03072,-0.24995c-2.37508,0.42075 -4.57424,1.64166 -6.96237,1.99093c-0.64103,0.09375 -1.29628,-0.01035 -1.94636,-0.04514c-0.59157,0.80987 -1.6188,1.01532 -1.6188,1.01532zM203.86137,140.88825c-3.89023,-3.87181 -7.77396,-7.3648 -12.63179,-9.85574c-1.63136,-0.83651 -4.97174,0.40238 -6.52887,0.67677c-4.31136,0.75974 -5.47241,2.62984 -7.93266,6.01659c-2.52294,3.47305 -4.15506,6.00261 -5.16769,9.79521c2.77283,-0.0181 5.57476,0.15229 7.8001,0.5112c1.04065,0.16784 1.9565,0.85092 3,1c2.76093,0.39443 5.61387,0.3118 8.29852,1.06742c3.4769,0.9786 7.01154,2.41231 10.60649,2.91903c2.18187,0.30754 4.06759,0.62983 6.01197,1.10903c-0.40229,-4.67055 -0.21889,-8.97387 -3.45606,-13.23951zM179.79855,194.75971c0.22306,-1.01004 0.44612,-2.02009 0.66918,-3.03014c0.81644,-1.03153 1.36951,-2.34318 2.44933,-3.09459c1.49633,-1.04125 3.59447,-0.80345 5.22203,-1.6246c2.14714,-1.0833 3.50281,-2.37113 5.74173,-3.05851c0.17215,-0.05285 -0.36859,-0.01008 -0.53413,-0.08095c-0.51888,-0.22215 -0.96378,-0.60744 -1.49818,-0.78912c-0.9524,-0.32378 -2.14885,-0.08476 -2.93144,-0.71679c-3.57692,-2.88878 -2.61097,-6.42053 -0.99887,-10.0165c3.01986,-6.73616 9.26897,-5.83311 14.41714,-2.98768c-1.38016,-1.15131 -3.21071,-1.77312 -4.72208,-2.7807l-1.1457,-0.55857c-1.90377,0.02081 -3.58218,0.12457 -5.67698,0.85015c-1.89508,0.6317 -3.90859,0.97457 -5.69219,1.87408c-1.10135,0.55543 -1.95344,1.55417 -3.087,2.04049c-1.26304,0.54188 -2.73542,0.46173 -4,1c-1.02266,0.4353 -1.79109,1.32536 -2.75657,1.87599c-1.84141,1.05018 -3.76665,1.96288 -5.75972,2.60432c-1.44636,5.75665 -1.35818,11.69111 3.27267,16.46564c1.70418,1.75706 4.45786,2.26968 7.01341,2.73962zM155.07059,188.02519c0.21902,-0.29673 3.56413,-3.92545 3.24134,-4.72216c-0.28437,-0.70189 -1.19557,-1.04354 -1.43365,-1.76245c-0.29541,-0.89203 0.06542,-1.88995 -0.08318,-2.8178c-0.19872,-1.24086 -1.40812,-2.4767 -0.95226,-3.64777c0.03574,-0.09181 0.07522,-0.18175 0.1182,-0.26986c-2.96686,-2.37555 -4.81444,-5.98721 -8.27538,-8.17852c-0.30212,-0.19129 -0.63746,-0.34683 -0.99883,-0.47232c-0.83083,2.63922 -2.22598,5.33357 -4.45509,6.5212c-0.92294,0.49173 -1.93187,0.72975 -2.97586,0.86424c0.27061,1.41267 0.58927,3.31908 1.20856,4.55c2.41282,4.79573 7.96501,9.76971 13.86011,11.76255zM194.25,265c0,2.09292 -1.75212,2.43371 -2.32272,2.48921c0.13762,0.33817 0.27523,0.67634 0.41285,1.0145c0.44756,0.0288 2.40988,0.28139 2.40988,2.49629c0,2.5 -2.5,2.5 -2.5,2.5c-0.14819,-0.01112 -0.30068,-0.01179 -0.45687,-0.00257c-0.16272,0.03876 -0.32151,0.05579 -0.47469,0.05601c-3.11479,0.54045 -7.36307,4.49125 -8.53129,7.91737c0.55358,0.67732 0.52666,1.4699 0.4095,2.01005c0.19109,-0.06854 0.37771,-0.16348 0.49742,-0.24691c0.81422,-0.56744 1.3683,-1.54467 2.29724,-1.89396c1.63488,-0.61474 3.77276,-1.97108 5.16027,-0.91016c2.35791,1.80291 1.46421,5.11592 0.29122,7.37108c0.44087,-0.22332 0.89615,-0.42114 1.3505,-0.61061c1.28988,-0.53789 2.73857,-0.90816 3.75252,-1.86994c0.56427,-1.20222 0.43023,-3.19479 1.6928,-3.60664c1.54463,-0.50385 3.13836,0.88509 4.62229,1.54667c0.33391,0.14887 0.34858,0.82484 0.71409,0.83247c0.2725,0.00569 -0.07806,-0.55525 -0.0044,-0.81766c0.17045,-0.60726 0.62553,-1.12505 0.72452,-1.74796c0.42831,-2.69516 -0.09836,-5.37556 -0.96136,-7.88556l-0.45125,-2.23547c-1.09938,-0.40112 -1.50421,-1.61563 -1.50421,-1.61563l-0.57974,-1.80028c-0.16927,-0.86595 -0.3324,-1.75522 -0.47286,-2.65809c-2.03707,-0.10298 -4.05897,-0.26442 -6.08019,-0.51283c0.00297,0.05871 0.00449,0.11891 0.00449,0.18063zM175.37625,269.10123c1.08345,1.20269 3.61753,1.89472 3.37192,3.49471c-0.36075,2.35001 -5.08282,3.92845 -7.13827,4.75153c-2.03728,0.66853 -3.80826,1.60375 -5.67515,2.48102c0.5344,0.53427 0.98605,1.18084 1.40236,1.79528c0.34277,0.50589 -0.12328,1.37968 0.31446,1.80606c0.28165,0.27434 0.70821,-0.38166 1.09843,-0.42983c0.77567,-0.09575 1.56539,0.06459 2.34465,0.00483c2.11431,-0.16213 4.17923,-0.54628 6.24368,-0.96353c0.49957,-4.6956 5.80679,-9.31032 8.91167,-11.5413c0.39341,-0.28268 0.76445,-0.61279 1.14577,-0.92325c-0.18444,-0.46771 -0.36886,-0.93541 -0.5533,-1.40312c-0.05877,-0.34561 -0.12291,-0.69054 -0.19134,-1.03494c-4.36053,-0.34514 -8.76197,0.09797 -13.116,-0.24966c0.57856,0.75799 1.1949,1.49484 1.84112,2.21219zM192.46376,245.64373c0,0 -0.25628,-0.15377 -0.53847,-0.4436c-0.97722,1.63597 -1.73057,3.42064 -2.20872,5.33573c0.73041,0.10179 1.62319,0.51546 1.95878,1.8578c0.60634,2.42535 -1.81902,3.03169 -1.81902,3.03169l-0.64846,0.14298c0.07945,1.14058 0.28149,2.29226 0.54089,3.44367c3.3906,0.72022 6.74305,1.09877 10.13446,1.29336c-0.00592,-2.09895 0.26286,-4.17629 1.00209,-6.11671c0.39947,-1.04857 0.8575,-1.91849 1.37225,-2.67087c-3.26507,-1.96139 -6.52367,-3.91728 -9.7938,-5.87406zM195.03624,241.35627c3.66025,2.20158 7.30116,4.3847 10.96242,6.57868c0.85423,-0.61305 1.78043,-1.2319 2.77571,-1.95299c0.78028,-0.56532 1.58724,-1.10163 2.41728,-1.60004l-0.08538,-0.09567c-2.05078,-3.41798 -3.83253,-5.23862 -6.62403,-8.01847c0,0 -0.3062,-0.30619 -0.53628,-0.79115c-3.41037,1.28232 -6.52818,3.26355 -9.01496,5.82322c0.06786,0.034 0.10524,0.05643 0.10524,0.05643zM188.53839,241c1.88791,-2.82897 4.25735,-5.29753 6.83538,-7.08711c0.26466,-0.18372 2.18706,-0.93546 3.67365,-1.51924c-3.50317,0.57138 -6.98379,1.2655 -10.59122,1.59783c-2.21407,0.20397 -4.43285,0.32709 -6.65335,0.42595c-0.24669,0.33919 -0.49112,0.53474 -0.49112,0.53474c-2.60231,2.07235 -6.30281,3.65306 -8.86338,6.04783c4.93388,0 9.86776,0 14.80164,0zM185.8821,246c-5.31201,0 -11.40914,0 -16.46289,0c-0.66445,2.21653 -0.8487,4.68969 -0.80101,6.98455c5.15005,0.01502 10.64799,-1.41066 15.81526,-1.85442c0.27411,-1.72996 0.77089,-3.45623 1.44864,-5.13013zM184.82465,260.39366c0.03817,-0.15268 0.08354,-0.29334 0.13508,-0.42291c-0.28196,-1.27456 -0.52016,-2.5557 -0.66002,-3.8508c-5.03083,0.38414 -10.14764,1.56815 -15.16819,1.72868c0.28393,1.27789 0.69237,2.50496 1.20491,3.68543c0.50663,-0.06497 0.90386,0.01448 0.90386,0.01448c4.48499,0.92167 9.11568,0.48606 13.70843,0.56666c-0.21543,-0.43255 -0.30558,-0.99555 -0.12408,-1.72155z" fill="#000000" stroke-width="0.5"></path><path d="M89.65724,229.72376c-4.22714,-1.70215 -8.69302,-3.20123 -9.36618,-7.75064c2.00117,0.33488 4.08744,0.56186 6.00676,0.94598l2.48677,0.04482c0,0 2.43108,0.07246 2.43108,-2.42754c0,-2.5 -2.50861,-2.51075 -2.50861,-2.51075l-1.51096,0.04632c-5.51434,-1.10215 -13.12303,-0.94635 -17.09542,-5.69429c-0.26552,-0.31737 -0.47491,-0.67254 -0.65513,-1.04467c3.99938,0.41585 8.23801,0.09631 12.17722,0.65905l2.57729,0.01001c0,0 2.50046,-0.00906 2.50046,-2.50906c0,-2.5 -2.40234,-2.4795 -2.40234,-2.4795l-2.32235,0.00464c-5.26965,-0.75281 -11.67916,0.51602 -16.66316,-1.76594c-0.94121,-0.43094 -1.83464,-0.96009 -2.71576,-1.52333c5.52767,0.56826 11.11804,0.27478 16.59709,-0.79626l0.90328,0.47411c0,0 2.42857,0.59978 3.03491,-1.82558c0.60634,-2.42536 -1.73471,-2.97806 -1.73471,-2.97806l-3.0952,-0.52829c-5.38065,1.10572 -11.72036,1.5571 -17.11163,0.47009c-2.36761,-0.47737 -7.42252,-0.3455 -8.50683,-2.86609c0.24321,-1.0244 0.3976,-3.81499 1.97719,-4.38936c0.64286,-0.23376 1.36012,0.16104 2.04357,0.18967c2.48788,0.10421 5.01144,-0.00343 7.50174,-0.00343c11.11332,0 22.5292,0.0847 33.62436,1.13551c-0.36922,1.4034 -0.55906,2.95126 -0.57168,4.43802l-0.01834,0.40169c0,0 0.00472,1.83083 1.57233,2.3586c-0.07701,0.75028 -0.1497,1.59851 -0.27349,2.33954c-0.56337,3.37243 -1.49277,6.59549 -1.9722,10.03359c-0.54293,3.89328 -0.81764,7.95707 2.76271,9.29531c2.39455,0.31755 4.71966,0.42916 7.12645,0.4632c-0.45039,-0.3024 -0.82569,-0.32287 -0.82569,-0.32287l-1.79602,-0.40409c0.59536,-0.50671 1.15098,-1.13017 1.86144,-1.36269c1.02431,-0.33524 2.22746,0.33485 3.22391,-0.07584c1.04425,-0.43038 1.55424,-1.64984 2.49754,-2.27102c1.1768,-0.77494 2.56545,-1.15706 3.78903,-1.8558c2.45898,-1.40423 4.44323,-3.53115 6.90363,-4.9329c0.96631,-0.55053 2.20256,-0.51031 3.15417,-1.08588c2.88429,-1.74454 4.06931,-3.64224 7.47707,-4.74864c1.87339,-0.62446 3.7582,-1.61017 5.70778,-1.92433c0.98727,-0.15909 2.01377,0.16514 3.00016,0.00074c0.6916,-0.11527 1.38381,-0.29141 2.04032,-0.54824c-0.22695,1.03169 0.06347,2.3494 0.05977,3.08376c-0.01948,3.86125 0.04781,6.99916 1.09986,10.71101c0.86152,3.03965 1.19245,6.83094 2.43208,9.91232c-2.60905,0.28242 -5.01764,1.08057 -7.67885,1.43213c-4.04992,0.53502 -8.08746,0.72788 -12.10095,1.52689c-7.90647,1.58129 -15.49787,2.47343 -23.54228,2.47343c-5.11714,0 -9.29832,0.10902 -14.10222,-1.82538z" data-paper-data="{&quot;noHover&quot;:false,&quot;origItem&quot;:[&quot;Path&quot;,{&quot;applyMatrix&quot;:true,&quot;segments&quot;:[[[89.68155,229.68004],[0,0],[4.8039,1.9344]],[[103.75,231.5],[-5.11714,0],[8.04441,0]],[[127.25971,229.04855],[-7.90647,1.58129],[4.01349,-0.79901]],[[139.35639,227.52984],[-4.04992,0.53502],[2.66121,-0.35156]],[[147.03379,226.10174],[-2.60905,0.28242],[-1.23963,-3.08138]],[[144.59972,216.19896],[0.86152,3.03965],[-1.05205,-3.71185]],[[143.50002,205.49999],[-0.01948,3.86125],[0.0037,-0.73436]],[[143.44083,202.41962],[-0.22695,1.03169],[-0.65651,0.25683]],[[141.40048,202.96771],[0.6916,-0.11527],[-0.98639,0.1644]],[[138.40048,202.96771],[0.98727,-0.15909],[-1.94958,0.31416]],[[132.7906,204.8717],[1.87339,-0.62446],[-3.40776,1.1064]],[[125.31436,209.62661],[2.88429,-1.74454],[-0.95161,0.57557]],[[122.16029,210.71444],[0.96631,-0.55053],[-2.4604,1.40175]],[[115.25484,215.66226],[2.45898,-1.40423],[-1.22358,0.69874]],[[111.4618,217.52809],[1.1768,-0.77494],[-0.9433,0.62118]],[[108.95673,219.80968],[1.04425,-0.43038],[-0.99645,0.41069]],[[105.72448,219.89271],[1.02431,-0.33524],[-0.71046,0.23252]],[[103.8534,221.26056],[0.59536,-0.50671],[0,0]],[105.60634,221.57464],[[106.48289,221.98358],[-0.45039,-0.3024],[-2.40679,-0.03404]],[[99.32731,221.52784],[2.39455,0.31755],[-3.58035,-1.33824]],[[96.51877,212.19453],[-0.54293,3.89328],[0.47943,-3.4381]],[[98.53232,202.09954],[-0.56337,3.37243],[0.12379,-0.74103]],[[98.81762,199.85927],[-0.07701,0.75028],[-1.56761,-0.52777]],[97.25001,197.50001],[[97.25001,197.00002],[0,0],[0.01262,-1.48676]],[[97.83614,192.66088],[-0.36922,1.4034],[-11.09516,-1.05081]],[[64.25001,191.50002],[11.11332,0],[-2.4903,0]],[[56.75001,191.50002],[2.48788,0.10421],[-0.68345,-0.02863]],[[54.70672,191.30972],[0.64286,-0.23376],[-1.57959,0.57437]],[[52.73128,195.69456],[0.24321,-1.0244],[1.08431,2.52059]],[[61.1432,198.52915],[-2.36761,-0.47737],[5.39127,1.08701]],[[78.25972,198.04857],[-5.38065,1.10572],[0,0]],[81.35635,198.57467],[[83.17537,201.60637],[0.60634,-2.42536],[-0.60634,2.42536]],[80.14367,203.42539],[[79.2403,202.95149],[0,0],[-5.47905,1.07104]],[[62.64589,203.73891],[5.52767,0.56826],[0.88112,0.56324]],[[65.3619,205.26091],[-0.94121,-0.43094],[4.984,2.28196]],[[81.92724,207.00633],[-5.26965,-0.75281],[0,0]],[84.25002,207.00004],[[86.75002,209.50004],[0,-2.5],[0,2.5]],[84.25002,212.00004],[[81.5728,211.99375],[0,0],[-3.93921,-0.56274]],[[69.49555,211.33305],[3.99938,0.41585],[0.18022,0.37213]],[[70.15065,212.37597],[-0.26552,-0.31737],[3.97239,4.74794]],[[87.24031,218.04859],[-5.51434,-1.10215],[0,0]],[88.75002,218.00004],[[91.25002,220.50004],[0,-2.5],[0,2.5]],[88.75002,223.00004],[[86.25973,222.95149],[0,0],[-1.91932,-0.38412]],[[80.33503,221.94932],[2.00117,0.33488],[0.67316,4.54941]],[[89.68157,229.68008],[-4.22714,-1.70215],[0,0]]],&quot;closed&quot;:true,&quot;fillColor&quot;:[0,0,0,1]}]}" fill="#864100" stroke-width="0.5"></path><path d="M269.89099,238.17471c2.05873,-0.34114 4.02812,-0.97959 6.0885,-1.91659c0.50309,-0.22879 0.97661,-0.41632 1.4269,-0.5921c-0.56878,-0.99238 -1.11041,-2.00464 -1.6282,-3.03454c-0.4487,-0.37637 -0.89492,-0.75545 -1.33818,-1.13788c-0.19205,0.07161 -0.27401,0.18085 -0.41865,0.24656c-7.11966,3.23434 -14.22806,1.53989 -21.63261,0.31115c-1.86255,-0.30908 -3.76009,-0.35962 -5.64181,-0.5138c-4.10338,-0.33622 -8.16341,0.37902 -12.22027,-0.45466c-2.69109,-0.53822 -5.37566,-1.05937 -8.0831,-1.5109l-1.80567,-0.45853c0,0 -2.42884,-0.60375 -3.03518,1.82161v0.00001c-0.60634,2.42536 1.76306,2.94882 1.76306,2.94882l1.36786,0.40535c-0.10288,1.13929 0.72033,1.93731 0.72033,1.93731l1.77681,1.18415c1.15783,0.22614 2.36499,0.58402 3.50661,0.89218c-0.51791,0.63092 -1.06549,1.24243 -1.6336,1.83387c-0.07393,0.01853 -0.11557,0.03244 -0.11557,0.03244l-0.00002,0.00001c-0.89337,0.29779 -1.76252,0.63315 -2.62054,0.94657c-0.06386,-0.01748 -0.10083,-0.02482 -0.10083,-0.02482c-2.87392,-0.5272 -5.7248,-0.30013 -8.44656,0.44622c-0.50128,-0.0352 -1.10442,0.058 -1.62993,0.51318c-0.11442,0.04063 -0.22894,0.08228 -0.34283,0.12464c-0.1661,-0.24999 -0.31221,-0.39589 -0.31221,-0.39589l-0.12414,-0.01843c-1.87617,-3.12694 -3.72177,-5.24098 -6.05368,-7.63604c0.21711,-0.0323 0.40639,-0.15778 0.62428,-0.18458c1.37039,-0.16857 2.65641,0.89835 4.03708,0.91001c0.07786,0.00066 0.15539,0.00033 0.23309,-0.00111l-0.01122,0.05629l2.44711,0.49088c0.17418,0.03842 0.35468,0.05891 0.54041,0.05891c1.38071,0 2.49642,-1.11738 2.49642,-2.49809c0,-0.82832 -0.35207,-1.47639 -0.97251,-1.93131l-1.97784,-1.4819c-2.89177,-2.13454 -4.90278,-2.94136 -8.50901,-2.99608c-6.95145,0 -13.38523,1.89408 -20.2378,2.50821c-5.02751,0.45057 -10.15755,0.36734 -15.20334,0.73377c-0.25211,-0.24877 -0.59812,-0.4673 -1.06614,-0.6233c-1.68137,-0.56045 -2.56937,0.46725 -2.94312,1.11366c-1.55204,0.43583 -3.0016,1.30615 -4.5017,1.9237c-0.19901,0.08193 -0.40151,0.15231 -0.60647,0.2137c-0.91909,-0.33561 -1.80946,-0.70758 -2.64567,-1.12979c-1.07285,-0.5417 -1.92636,-1.46677 -3.00216,-2.00259c-0.39497,-0.19672 -0.78864,-0.37496 -1.17615,-0.54641c0.04948,-0.21052 0.07683,-0.4462 0.07683,-0.70911c0,-2.5 -2.50187,-2.50275 -2.50187,-2.50275l-0.50013,-0.00021c-0.55306,0.00245 -1.09883,0.01915 -1.6379,0.05126c-0.08061,-0.11702 -0.15949,-0.23931 -0.23612,-0.36656c-1.12087,-1.86121 -1.17704,-4.18951 -1.70399,-6.29729c-0.57162,-2.28648 -1.62656,-4.46725 -1.95992,-6.8004c-0.31116,-2.17776 0.0436,-4.40577 0.03092,-6.60561c-0.005,-0.86657 -0.0938,-1.73764 -0.03262,-2.60206c0.11518,-1.6274 1.60176,-3.61137 0.5601,-4.86701c-1.17501,-1.41638 -3.48823,-1.00483 -5.32856,-1.00613c-1.05409,-0.00074 -1.96025,0.82583 -3,0.99912c-0.98639,0.1644 -2.01439,-0.16903 -3,0.00002c-0.2725,0.04674 -5.92077,1.93805 -6.39016,2.09451c-2.4029,0.81791 -4.80252,1.86309 -6.79453,3.43624c-0.65425,0.51667 -1.01279,1.37977 -1.72946,1.80565c-0.85638,0.5089 -1.98165,0.41647 -2.84597,0.91179c-2.5189,1.44351 -4.57459,3.6087 -7.09488,5.04978c-1.36505,0.78053 -2.90418,1.25306 -4.20709,2.1334c-0.62908,0.42505 -0.78623,1.44571 -1.49507,1.71766c-0.47314,0.18151 -1.09592,0.0677 -1.6174,-0.03951c2.49823,-3.1738 5.07691,-6.19658 7.99303,-9.11832c2.75367,-2.75897 4.67857,-5.51075 8.54334,-6.907c6.19553,-2.23831 14.31968,-2.37953 20.78864,-2.36511c5.23473,-0.01944 9.8257,1.07904 14.8533,2.41222c2.96079,0.78512 3.8719,0.61296 6.29901,2.18746c4.59004,2.97762 8.33568,6.68626 13.0541,9.51731l0.2971,0.30846c-1.84671,0.54013 -3.98098,0.72702 -5.84384,1.10983l-2.25441,-0.01361c0,0 -2.41121,-0.04598 -2.41121,2.45402c0,2.5 2.49755,2.49592 2.49755,2.49592l2.74504,-0.01403c4.85653,-0.94935 11.58047,-1.46311 14.03039,-6.47374c0.45435,-0.92926 0.37312,-1.95195 0.59618,-2.96199c0,0 0.48413,-2.46067 -1.96732,-2.95096c-2.45145,-0.49029 -2.85341,1.9143 -2.85341,1.9143c-0.07297,0.43451 -0.18551,0.82664 -0.33094,1.18458c-0.18744,-0.17997 -0.41815,-0.22565 -0.41815,-0.22565l-1.60237,-1.06717c-4.66034,-2.7962 -8.35183,-6.6073 -12.94363,-9.48394c-1.61728,-1.01319 -2.58558,-1.46467 -3.60591,-1.78114c1.41457,-0.30495 2.91225,-0.78784 4.27551,-1.48675c0.59804,0.8304 1.28411,1.62783 2.06521,2.39377c3.35364,3.28854 7.81868,3.41658 12.06791,4.62094c3.70036,1.04879 6.83549,1.14334 10.69168,1.08182c1.24185,-0.01981 2.53534,0.27765 3.71181,-0.12045c5.80781,-1.96528 9.77092,-9.19032 11.58611,-14.52311c1.30478,-4.03585 1.15648,-7.56164 1.14026,-11.78318c-0.00844,-2.19597 0.24828,-4.47838 -0.47113,-6.56812l1.00788,-0.02482c0,0 2.46443,0.09343 2.46443,-2.40657c0,-2.5 -2.4956,-2.49845 -2.4956,-2.49845l-0.2092,0.12836c-2.14851,-0.69756 -3.90416,-2.33552 -6.05712,-3.01923c-3.77884,-1.20004 -9.90122,-0.14284 -13.49658,1.01952c-0.37714,0.12572 -6.11273,2.0302 -6.29933,2.12275c-1.04837,0.51998 -1.833,1.49668 -2.90881,1.95724c-1.26345,0.5409 -2.7337,0.45279 -3.9957,0.99708c-2.43064,1.0483 -4.3849,2.31463 -6.39253,3.30655c-0.21492,-0.15509 -0.47774,-0.29124 -0.79867,-0.39822c-2.37171,-0.79057 -3.15976,1.57814 -3.15976,1.57814c-0.02695,0.08099 -0.0535,0.16188 -0.08002,0.2431c-0.45587,0.08552 -0.92613,0.14595 -1.4163,0.17916c-0.66549,-0.38286 -1.38076,-0.38332 -1.38076,-0.38332c-0.87463,0.0341 -1.90017,-0.26399 -2.74792,-0.12183c-3.90866,-1.55588 -6.26454,-7.27665 -9.76902,-9.31305c-0.84299,-0.48984 -1.74691,-0.83114 -2.68889,-1.06605c0.10745,-1.83393 0.12428,-4.05732 0.92192,-5.60943c4.60144,-1.03156 9.21038,-1.07476 13.86149,-1.73919c1.0435,-0.14907 1.96338,-0.82213 3.00207,-1.00164c2.16775,-0.37463 4.40387,0.02945 6.60374,0.02945c2.19988,0 4.43694,-0.40962 6.60468,-0.03499c6.01035,1.03871 11.79432,2.46134 17.81179,3.95322c3.96633,0.98336 7.55013,1.37412 11.38001,2.48703c0.05056,0.55263 0.38124,2.34013 2.49456,2.34013c0.82244,0 1.37611,-0.26995 1.74644,-0.63306c0.12099,0.0795 0.23872,0.16513 0.35136,0.25781c2.662,2.19044 2.90358,6.6939 4.53838,9.44554c0.48156,0.81054 1.51444,1.19658 2.00352,2.00261c0.47825,0.78818 0.45952,1.79626 0.81978,2.64488c1.58321,3.72939 3.33369,7.2446 3.83998,11.36523c0.04854,0.39505 0.0543,0.79494 0.04177,1.19401c-0.05969,0.2952 -0.05939,0.50328 -0.05939,0.50328c0,0.92403 -0.13767,2.37381 -0.2113,3.84397c-0.00765,0.0148 -0.01523,0.02983 -0.02278,0.04493c-0.36423,0.72844 -0.37188,1.34177 -0.21745,1.83291c-0.18079,0.33091 -0.29561,0.7548 -0.29561,1.2912c0,2.5 2.40018,2.5031 2.40018,2.5031c10.89795,-0.04084 22.32034,-2.96255 32.71258,-6.09794c5.11904,-1.54444 9.73006,-4.44325 15.00033,-5.4973c4.64745,-1.85898 11.02514,-3.22694 15.72279,-0.69769c1.74091,0.93732 4.99834,3.30767 3.12066,5.85064c-0.82185,1.11305 -4.76893,1.27485 -5.90713,1.48172c-4.24018,0.77064 -7.49535,2.05078 -11.47771,3.63987l0.42848,-0.17892c0,0 -2.50001,0.00168 -2.50001,2.50168c0,2.5 2.49994,2.50161 2.49994,2.50161l1.32861,-0.18395c1.83067,-0.73391 3.53291,-1.77088 5.38281,-2.45486c1.0422,-0.38535 2.32072,-0.59569 3.55415,-0.75325c0.35629,1.56147 0.85715,3.11506 0.74206,4.69692c-0.28814,3.96051 -3.98383,7.59965 -7.11931,9.46199l-2.31773,0.91925c0,0 -2.32168,0.93063 -1.3932,3.25182c0.92848,2.32119 3.15272,1.36818 3.15272,1.36818l2.68219,-1.08059c1.37777,-0.83256 2.84719,-1.81228 4.11169,-2.95845c1.87796,5.22283 -4.68931,10.64589 -8.86062,13.26496c-0.62095,0.0722 -2.26734,0.45665 -2.26734,2.48499c0,2.5 2.40837,2.45995 2.40837,2.45995l1.78599,-0.35571c1.64713,-0.98828 3.45124,-2.13466 5.05523,-3.49465c-1.25074,3.27633 -3.30099,6.34753 -6.12707,8.30597c-1.8601,1.28903 -4.40256,1.7063 -7.02752,1.73947z" data-paper-data="{&quot;noHover&quot;:false,&quot;origItem&quot;:[&quot;Path&quot;,{&quot;applyMatrix&quot;:true,&quot;segments&quot;:[[[276.87377,236.4129],[-1.8601,1.28903],[2.82608,-1.95844]],[[282.99859,228.11215],[-1.25074,3.27633],[-1.604,1.35999]],[[278.03624,231.64373],[1.64713,-0.98828],[0,0]],[276.25,232],[[273.75,229.5],[0,2.5],[0,-2.02834]],[[276.01662,227.01679],[-0.62095,0.0722],[4.1713,-2.61907]],[[284.8748,213.76041],[1.87796,5.22283],[-1.26451,1.14617]],[[280.86091,216.73962],[1.37777,-0.83256],[0,0]],[278.17848,217.82119],[[274.92881,216.42848],[0.92848,2.32119],[-0.92848,-2.32119]],[276.32152,213.17881],[[278.63909,212.26038],[0,0],[3.13549,-1.86233]],[[285.75766,202.80445],[-0.28814,3.96051],[0.11509,-1.58186]],[[285.0155,198.11022],[0.35629,1.56147],[-1.23343,0.15756]],[[281.56134,198.86468],[1.0422,-0.38535],[-1.8499,0.68399]],[[276.17848,201.32119],[1.83067,-0.73391],[0,0]],[274.75,201.5],[[272.25,199],[0,2.5],[0,-2.5]],[274.75,196.5],[[274.32152,196.67881],[0,0],[3.98236,-1.58909]],[[285.7993,193.04096],[-4.24018,0.77064],[1.1382,-0.20686]],[[291.70646,191.55988],[-0.82185,1.11305],[1.87768,-2.54297]],[[288.58613,185.71256],[1.74091,0.93732],[-4.69764,-2.52924]],[[272.96237,186.39636],[4.64745,-1.85898],[-5.27027,1.05405]],[[257.96237,191.89636],[5.11904,-1.54444],[-10.39223,3.13539]],[[225.25,198],[10.89795,-0.04084],[0,0]],[[222.75,195.5],[0,2.5],[0,-0.5364]],[[223.04589,194.21137],[-0.18079,0.33091],[-0.15443,-0.49114]],[[223.26394,192.38199],[-0.36423,0.72844],[0.00755,-0.0151]],[[223.28674,192.33714],[-0.00765,0.0148],[0.07363,-1.47016]],[[223.49999,188.5],[0,0.92403],[0,0]],[[223.55968,187.99752],[-0.05969,0.2952],[0.01253,-0.39907]],[[223.5187,186.80546],[0.04854,0.39505],[-0.50629,-4.12063]],[[219.69027,175.45671],[1.58321,3.72939],[-0.36026,-0.84862]],[[218.87335,172.81433],[0.47825,0.78818],[-0.48908,-0.80603]],[[216.87335,170.81433],[0.48156,0.81054],[-1.6348,-2.75164]],[[212.34547,161.37419],[2.662,2.19044],[-0.11264,-0.09268]],[[211.99462,161.11657],[0.12099,0.0795],[-0.37033,0.36311]],[[210.24998,161.75024],[0.82244,0],[-2.11332,0]],[[207.75923,159.41116],[0.05056,0.55263],[-3.82988,-1.11291]],[[196.39364,156.92534],[3.96633,0.98336],[-6.01747,-1.49188]],[[178.59952,152.96771],[6.01035,1.03871],[-2.16774,-0.37463]],[[171.99997,152.99999],[2.19988,0],[-2.19987,0]],[[165.40042,152.96771],[2.16775,-0.37463],[-1.03869,0.17951]],[[162.40042,153.96771],[1.0435,-0.14907],[-4.65111,0.66443]],[[148.54528,155.70052],[4.60144,-1.03156],[-0.79764,1.55211]],[[147.62574,161.30685],[0.10745,-1.83393],[0.94198,0.23491]],[[150.3143,162.37336],[-0.84299,-0.48984],[3.50448,2.0364]],[[160.08444,171.6848],[-3.90866,-1.55588],[0.84775,-0.14216]],[[162.74997,171.74998],[-0.87463,0.0341],[0,0]],[[164.13106,172.13284],[-0.66549,-0.38286],[0.49017,-0.03321]],[[165.54806,171.95274],[-0.45587,0.08552],[0.02652,-0.08122]],[[165.62826,171.70941],[-0.02695,0.08099],[0,0]],[[168.79054,170.12827],[-2.37171,-0.79057],[0.32093,0.10698]],[[169.58942,170.52627],[-0.21492,-0.15509],[2.00763,-0.99192]],[[175.98858,167.2137],[-2.43064,1.0483],[1.262,-0.54429]],[[179.98858,166.2137],[-1.26345,0.5409],[1.07581,-0.46056]],[[182.90158,164.25419],[-1.04837,0.51998],[0.1866,-0.09255]],[[189.20939,162.12827],[-0.37714,0.12572],[3.59536,-1.16236]],[[202.72442,161.10725],[-3.77884,-1.20004],[2.15296,0.68371]],[[208.79053,164.12827],[-2.14851,-0.69756],[0,0]],[208.99996,163.99998],[[211.49996,166.49998],[0,-2.5],[0,2.5]],[208.99996,168.99998],[[208.02403,168.93005],[0,0],[0.71941,2.08974]],[[208.49996,175.49998],[-0.00844,-2.19597],[0.01622,4.22154]],[[207.37167,187.29055],[1.30478,-4.03585],[-1.81519,5.33279]],[[195.72442,201.89271],[5.80781,-1.96528],[-1.17647,0.3981]],[[191.99996,201.99998],[1.24185,-0.01981],[-3.85619,0.06152]],[[181.30099,200.90028],[3.70036,1.04879],[-4.24923,-1.20436]],[[169.2322,196.26775],[3.35364,3.28854],[-0.7811,-0.76594]],[[167.16727,193.87037],[0.59804,0.8304],[-1.36326,0.69891]],[[162.99136,195.36568],[1.41457,-0.30495],[1.02033,0.31647]],[[166.59735,197.1444],[-1.61728,-1.01319],[4.5918,2.87664]],[[179.5362,206.6065],[-4.66034,-2.7962],[0,0]],[181.13671,207.67011],[[181.46865,207.94642],[-0.18744,-0.17997],[0.14543,-0.35794]],[[181.79851,206.75995],[-0.07297,0.43451],[0,0]],[[184.74025,204.79879],[-2.45145,-0.49029],[2.45145,0.49029]],[[186.70141,207.74053],[0,0],[-0.22306,1.01004]],[[186.03223,210.77067],[0.45435,-0.92926],[-2.44992,5.01063]],[[171.99631,217.23808],[4.85653,-0.94935],[0,0]],[169.24997,217.25025],[[166.74997,214.75025],[0,2.5],[0,-2.5]],[169.24997,212.25025],[[171.50363,212.26241],[0,0],[1.86286,-0.38281]],[[177.34569,211.14954],[-1.84671,0.54013],[0,0]],[[176.96373,210.89398],[0,0],[-4.71842,-2.83105]],[[163.90258,201.35609],[4.59004,2.97762],[-2.42711,-1.5745]],[[157.60331,199.16516],[2.96079,0.78512],[-5.0276,-1.33318]],[[142.74997,196.75025],[5.23473,-0.01944],[-6.46896,-0.01442]],[[122.06131,199.11493],[6.19553,-2.23831],[-3.86477,1.39625]],[[113.51773,206.01802],[2.75367,-2.75897],[-2.91612,2.92174]],[[105.52408,215.13203],[2.49823,-3.1738],[0.52148,0.10721]],[[107.04326,215.19031],[-0.47314,0.18151],[0.70884,-0.27195]],[[108.53819,213.4719],[-0.62908,0.42505],[1.30291,-0.88034]],[[112.74515,211.33773],[-1.36505,0.78053],[2.52029,-1.44108]],[[119.8397,206.28555],[-2.5189,1.44351],[0.86432,-0.49532]],[[122.68563,205.37338],[-0.85638,0.5089],[0.71667,-0.42588]],[[124.41499,203.56665],[-0.65425,0.51667],[1.99201,-1.57315]],[[131.20939,200.12829],[-2.4029,0.81791],[0.46939,-0.15646]],[[137.59951,198.03228],[-0.2725,0.04674],[0.98561,-0.16905]],[[140.59951,198.03228],[-0.98639,0.1644],[1.03975,-0.17329]],[[143.59951,197.03228],[-1.05409,-0.00074],[1.84033,0.0013]],[[149.02807,198.03823],[-1.17501,-1.41638],[1.04166,1.25564]],[[148.46769,202.90046],[0.11518,-1.6274],[-0.06118,0.86442]],[[148.49997,205.50001],[-0.005,-0.86657],[0.01268,2.19984]],[[148.46769,212.09956],[-0.31116,-2.17776],[0.33336,2.33315]],[[150.42532,218.89368],[-0.57162,-2.28648],[0.52695,2.10778]],[[152.12659,225.18569],[-1.12087,-1.86121],[0.07663,0.12725]],[[152.3625,225.55191],[-0.08061,-0.11702],[0.53907,-0.03211]],[[154,225.5],[-0.55306,0.00245],[0,0]],[154.5,225.5],[[157,228],[0,-2.5],[0,0.26291]],[[156.92287,228.7087],[0.04948,-0.21052],[0.38751,0.17145]],[[158.09835,229.25423],[-0.39497,-0.19672],[1.0758,0.53582]],[[161.09835,231.25423],[-1.07285,-0.5417],[0.83621,0.42221]],[[163.74222,232.38211],[-0.91909,-0.33561],[0.20496,-0.06139]],[[164.34849,232.16821],[-0.19901,0.08193],[1.5001,-0.61755]],[[168.8487,230.24309],[-1.55204,0.43583],[0.37375,-0.64641]],[[171.79055,229.1283],[-1.68137,-0.56045],[0.46802,0.156]],[[172.85556,229.75066],[-0.25211,-0.24877],[5.04579,-0.36643]],[[188.04378,229.00853],[-5.02751,0.45057],[6.85257,-0.61413]],[[208.24998,226.50001],[-6.95145,0],[3.60623,0.05472]],[[216.74998,229.50001],[-2.89177,-2.13454],[0,0]],[[218.7267,230.98255],[0,0],[0.62044,0.45492]],[[219.74998,233.00001],[0,-0.82832],[0,1.38071]],[[217.24998,235.50001],[1.38071,0],[-0.18573,0]],[[216.70907,235.44134],[0.17418,0.03842],[0,0]],[214.25969,234.95146],[[214.27095,234.89516],[0,0],[-0.0777,0.00144]],[[214.03761,234.89637],[0.07786,0.00066],[-1.38067,-0.01166]],[[209.99632,233.98785],[1.37039,-0.16857],[-0.21789,0.0268]],[[209.34378,234.07651],[0.21711,-0.0323],[2.33191,2.39506]],[[215.39371,241.71378],[-1.87617,-3.12694],[0,0]],[215.51774,241.73225],[[215.8298,242.1282],[-0.1661,-0.24999],[0.11389,-0.04236]],[[216.17227,242.0037],[-0.11442,0.04063],[0.52551,-0.45518]],[[217.80055,241.49119],[-0.50128,-0.0352],[2.72176,-0.74635]],[[226.24026,241.04856],[-2.87392,-0.5272],[0,0]],[[226.34103,241.07342],[-0.06386,-0.01748],[0.85802,-0.31342]],[[228.9594,240.1283],[-0.89337,0.29779],[0,0]],[228.95942,240.12829],[[229.0749,240.09591],[-0.07393,0.01853],[0.56811,-0.59143]],[[230.70665,238.26342],[-0.51791,0.63092],[-1.14163,-0.30816]],[[227.25971,237.45145],[1.15783,0.22614],[0,0]],[225.48223,236.26777],[[224.70492,234.24828],[-0.10288,1.13929],[0,0]],[223.39366,233.92537],[[221.57464,230.89367],[-0.60634,2.42536],[0,0]],[[221.57464,230.89366],[0,0],[0.60634,-2.42536]],[224.60634,229.07464],[[226.411,229.53401],[0,0],[2.70744,0.45153]],[[234.49029,231.04854],[-2.69109,-0.53822],[4.05686,0.83368]],[[246.7062,231.50851],[-4.10338,-0.33622],[1.88172,0.15418]],[[252.34675,232.02416],[-1.86255,-0.30908],[7.40455,1.22874]],[[273.97586,231.7194],[-7.11966,3.23434],[0.14464,-0.06571]],[[274.48559,231.51413],[-0.19205,0.07161],[0.44326,0.38243]],[[275.82365,232.65228],[-0.4487,-0.37637],[0.5178,1.02991]],[[277.45135,235.6879],[-0.56878,-0.99238],[-0.45029,0.17577]],[[276.02415,236.2806],[0.50309,-0.22879],[-2.06038,0.93699]],[[269.84761,238.14984],[2.05873,-0.34114],[2.62495,-0.03317]]],&quot;closed&quot;:true}]}" fill="#864100" stroke-width="0.5"></path><path d="M154.3457,189.89761c-5.8951,-1.99284 -11.51843,-7.01161 -13.93125,-11.80734c-0.61929,-1.23092 -0.93324,-3.15904 -1.20385,-4.57171c1.04399,-0.13449 2.05939,-0.38283 2.98233,-0.87456c2.22911,-1.18763 3.65432,-3.89969 4.48515,-6.53891c0.36137,0.12549 0.70062,0.28049 1.00274,0.47178c3.46094,2.19131 5.35903,5.83236 8.32589,8.20791c-0.04298,0.08811 -0.08195,0.17924 -0.11769,0.27105c-0.45586,1.17107 0.75717,2.43057 0.95589,3.67143c0.1486,0.92785 -0.21622,1.94134 0.07919,2.83337c0.23808,0.71891 1.14716,1.06484 1.43153,1.76673c0.32279,0.79671 -3.03947,4.44348 -3.25849,4.74021z" data-paper-data="{&quot;noHover&quot;:false,&quot;origItem&quot;:[&quot;Path&quot;,{&quot;applyMatrix&quot;:true,&quot;segments&quot;:[[[155.07059,188.02519],[0,0],[0.21902,-0.29673]],[[158.31193,183.30303],[0.32279,0.79671],[-0.28437,-0.70189]],[[156.87828,181.54058],[0.23808,0.71891],[-0.29541,-0.89203]],[[156.7951,178.72278],[0.1486,0.92785],[-0.19872,-1.24086]],[[155.84284,175.07501],[-0.45586,1.17107],[0.03574,-0.09181]],[[155.96104,174.80515],[-0.04298,0.08811],[-2.96686,-2.37555]],[[147.68566,166.62663],[3.46094,2.19131],[-0.30212,-0.19129]],[[146.68683,166.15431],[0.36137,0.12549],[-0.83083,2.63922]],[[142.23174,172.67551],[2.22911,-1.18763],[-0.92294,0.49173]],[[139.25588,173.53975],[1.04399,-0.13449],[0.27061,1.41267]],[[140.46444,178.08975],[-0.61929,-1.23092],[2.41282,4.79573]],[[154.32455,189.8523],[-5.8951,-1.99284],[0,0]]],&quot;closed&quot;:true,&quot;fillColor&quot;:[0,0,0,1]}]}" fill="#ffffff" stroke-width="0.5"></path><path d="M179.76307,195.51846c-2.55555,-0.46994 -5.32753,-0.9949 -7.03171,-2.75196c-4.63085,-4.77453 -4.73077,-10.75673 -3.28441,-16.51338c1.99307,-0.64144 3.92533,-1.5691 5.76674,-2.61928c0.96548,-0.55063 1.74297,-1.45062 2.76563,-1.88592c1.26458,-0.53827 2.75249,-0.46695 4.01553,-1.00883c1.13356,-0.48632 2.00051,-1.48785 3.10186,-2.04328c1.7836,-0.89951 3.8166,-1.23913 5.71168,-1.87083c2.0948,-0.72558 3.78527,-0.82272 5.68904,-0.84353l1.14833,0.56067c1.51137,1.00758 3.26801,1.69541 4.64817,2.84672c-5.14817,-2.84543 -11.36969,-3.72844 -14.38955,3.00772c-1.6121,3.59597 -2.51904,7.10108 1.05788,9.98986c0.78259,0.63203 1.88693,0.35433 2.83933,0.67811c0.5344,0.18168 1.07268,0.60274 1.59156,0.82489c0.16554,0.07087 0.70653,0.02746 0.53438,0.08031c-2.23892,0.68738 -3.62189,2.00343 -5.76903,3.08673c-1.62756,0.82115 -3.76067,0.58478 -5.257,1.62603c-1.07982,0.75141 -1.63815,2.061 -2.45459,3.09253c-0.22306,1.01005 -0.40643,1.92834 -0.62949,2.93838z" data-paper-data="{&quot;noHover&quot;:false,&quot;origItem&quot;:[&quot;Path&quot;,{&quot;applyMatrix&quot;:true,&quot;segments&quot;:[[[179.79855,194.75971],[0,0],[0.22306,-1.01004]],[[180.46773,191.72957],[-0.22306,1.01005],[0.81644,-1.03153]],[[182.91706,188.63498],[-1.07982,0.75141],[1.49633,-1.04125]],[[188.13909,187.01038],[-1.62756,0.82115],[2.14714,-1.0833]],[[193.88082,183.95187],[-2.23892,0.68738],[0.17215,-0.05285]],[[193.34669,183.87092],[0.16554,0.07087],[-0.51888,-0.22215]],[[191.84851,183.0818],[0.5344,0.18168],[-0.9524,-0.32378]],[[188.91707,182.36501],[0.78259,0.63203],[-3.57692,-2.88878]],[[187.9182,172.34851],[-1.6121,3.59597],[3.01986,-6.73616]],[[202.33534,169.36083],[-5.14817,-2.84543],[-1.38016,-1.15131]],[[197.61326,166.58013],[1.51137,1.00758],[0,0]],[[196.46756,166.02156],[0,0],[-1.90377,0.02081]],[[190.79058,166.87171],[2.0948,-0.72558],[-1.89508,0.6317]],[[185.09839,168.74579],[1.7836,-0.89951],[-1.10135,0.55543]],[[182.01139,170.78628],[1.13356,-0.48632],[-1.26304,0.54188]],[[178.01139,171.78628],[1.26458,-0.53827],[-1.02266,0.4353]],[[175.25482,173.66227],[0.96548,-0.55063],[-1.84141,1.05018]],[[169.4951,176.26659],[1.99307,-0.64144],[-1.44636,5.75665]],[[172.76777,192.73223],[-4.63085,-4.77453],[1.70418,1.75706]],[[179.78118,195.47185],[-2.55555,-0.46994],[0,0]]],&quot;closed&quot;:true,&quot;fillColor&quot;:[0,0,0,1]}]}" fill="#ffffff" stroke-width="0.5"></path><path d="M203.91109,140.88291c3.23717,4.26564 3.04589,8.60169 3.44818,13.27224c-1.94438,-0.4792 -3.83464,-0.79557 -6.01651,-1.10311c-3.59495,-0.50672 -7.15889,-1.92438 -10.63579,-2.90298c-2.68465,-0.75562 -5.58211,-0.68821 -8.34304,-1.08264c-1.0435,-0.14908 -1.96651,-0.84199 -3.00716,-1.00983c-2.22534,-0.35891 -5.03166,-0.53992 -7.80449,-0.52182c1.01263,-3.7926 2.64597,-6.35325 5.16891,-9.8263c2.46025,-3.38675 3.6479,-5.28515 7.95926,-6.04489c1.55713,-0.27439 4.92545,-1.51698 6.55681,-0.68047c4.85783,2.49094 8.7836,6.02799 12.67383,9.8998z" data-paper-data="{&quot;noHover&quot;:false,&quot;origItem&quot;:[&quot;Path&quot;,{&quot;applyMatrix&quot;:true,&quot;segments&quot;:[[[203.86137,140.88825],[0,0],[-3.89023,-3.87181]],[[191.22958,131.03251],[4.85783,2.49094],[-1.63136,-0.83651]],[[184.70071,131.70928],[1.55713,-0.27439],[-4.31136,0.75974]],[[176.76805,137.72587],[2.46025,-3.38675],[-2.52294,3.47305]],[[171.60036,147.52108],[1.01263,-3.7926],[2.77283,-0.0181]],[[179.40046,148.03228],[-2.22534,-0.35891],[1.04065,0.16784]],[[182.40046,149.03228],[-1.0435,-0.14908],[2.76093,0.39443]],[[190.69898,150.0997],[-2.68465,-0.75562],[3.4769,0.9786]],[[201.30547,153.01873],[-3.59495,-0.50672],[2.18187,0.30754]],[[207.31744,154.12776],[-1.94438,-0.4792],[-0.40229,-4.67055]],[[203.86138,140.88825],[3.23717,4.26564],[0,0]]],&quot;closed&quot;:true,&quot;fillColor&quot;:[0,0,0,1]}]}" fill="#ff0000" stroke-width="0.5"></path><path d="M175.3866,269.15013c-0.64622,-0.71735 -1.29055,-1.5499 -1.86911,-2.30789c4.35403,0.34763 8.81202,-0.08008 13.17255,0.26506c0.06843,0.3444 0.13481,0.69233 0.19358,1.03794c0.18444,0.46771 0.372,0.94061 0.55644,1.40832c-0.38132,0.31046 -0.75175,0.64177 -1.14516,0.92445c-3.10488,2.23098 -8.45212,6.91745 -8.95169,11.61305c-2.06445,0.41725 -4.16329,0.79235 -6.2776,0.95448c-0.77926,0.05976 -1.57555,-0.10618 -2.35122,-0.01043c-0.39022,0.04817 -0.81809,0.70279 -1.09974,0.42845c-0.43774,-0.42638 0.02405,-1.30552 -0.31872,-1.81141c-0.41631,-0.61444 -0.87269,-1.26956 -1.40709,-1.80383c1.86689,-0.87727 3.63777,-1.81272 5.67505,-2.48125c2.05545,-0.82308 6.79223,-2.38212 7.15298,-4.73213c0.24561,-1.59999 -2.24683,-2.28211 -3.33028,-3.4848z" data-paper-data="{&quot;noHover&quot;:false,&quot;origItem&quot;:[&quot;Path&quot;,{&quot;applyMatrix&quot;:true,&quot;segments&quot;:[[[175.37625,269.10123],[0,0],[1.08345,1.20269]],[[178.74817,272.59594],[0.24561,-1.59999],[-0.36075,2.35001]],[[171.6099,277.34747],[2.05545,-0.82308],[-2.03728,0.66853]],[[165.93475,279.82849],[1.86689,-0.87727],[0.5344,0.53427]],[[167.33711,281.62377],[-0.41631,-0.61444],[0.34277,0.50589]],[[167.65157,283.42983],[-0.43774,-0.42638],[0.28165,0.27434]],[[168.75,283],[-0.39022,0.04817],[0.77567,-0.09575]],[[171.09465,283.00483],[-0.77926,0.05976],[2.11431,-0.16213]],[[177.33833,282.0413],[-2.06445,0.41725],[0.49957,-4.6956]],[[186.25,270.5],[-3.10488,2.23098],[0.39341,-0.28268]],[[187.39577,269.57675],[-0.38132,0.31046],[-0.18444,-0.46771]],[[186.84247,268.17363],[0.18444,0.46771],[-0.05877,-0.34561]],[[186.65113,267.13869],[0.06843,0.3444],[-4.36053,-0.34514]],[[173.53513,266.88903],[4.35403,0.34763],[0.57856,0.75799]],[[175.37625,269.10122],[-0.64622,-0.71735],[0,0]]],&quot;closed&quot;:true,&quot;fillColor&quot;:[0,0,0,1]}]}" fill="#ffde00" stroke-width="0.5"></path><path d="M194.24722,265.04993c0,-0.06172 0.004,-0.22177 0.00103,-0.28048c2.02122,0.24841 4.06646,0.41711 6.10353,0.52009c0.14046,0.90287 0.31019,1.79695 0.47946,2.6629l0.58535,1.80597c0,0 0.41074,1.22328 1.51012,1.6244l0.45527,2.24562c0.863,2.51 1.38638,5.22559 0.95807,7.92075c-0.09899,0.62291 -0.55803,1.14742 -0.72848,1.75468c-0.07366,0.26241 0.27533,0.82547 0.00283,0.81978c-0.36551,-0.00763 -0.37961,-0.68434 -0.71352,-0.83321c-1.48393,-0.66158 -3.08513,-2.04257 -4.62976,-1.53872c-1.26257,0.41185 -1.14557,2.41397 -1.70984,3.61619c-1.01395,0.96178 -2.48187,1.33436 -3.77175,1.87225c-0.45435,0.18947 -0.91515,0.38656 -1.35602,0.60988c1.17299,-2.25516 2.05031,-5.57439 -0.3076,-7.3773c-1.38751,-1.06092 -3.54145,0.28005 -5.17633,0.89479c-0.92894,0.34929 -1.40028,1.27038 -2.2145,1.83782c-0.11971,0.08343 -0.38852,0.23533 -0.57961,0.30387c0.11716,-0.54015 0.14013,-1.33957 -0.41345,-2.01689c1.16822,-3.42612 5.42962,-7.43683 8.54441,-7.97728c0.15318,-0.00022 0.31679,-0.0208 0.47951,-0.05956c0.15619,-0.00922 0.31401,-0.01156 0.4622,-0.00044c0,0 2.51144,0.09386 2.51144,-2.40614c0,-2.2149 -1.94382,-2.46705 -2.39138,-2.49585c-0.13762,-0.33816 -0.29271,-0.77478 -0.43033,-1.11295c0.5706,-0.0555 2.33492,-0.3971 2.33492,-2.49002z" data-paper-data="{&quot;noHover&quot;:false,&quot;origItem&quot;:[&quot;Path&quot;,{&quot;applyMatrix&quot;:true,&quot;segments&quot;:[[[194.25,265],[0,0],[0,2.09292]],[[191.92728,267.48921],[0.5706,-0.0555],[0.13762,0.33817]],[[192.34013,268.50371],[-0.13762,-0.33816],[0.44756,0.0288]],[[194.75001,271],[0,-2.2149],[0,2.5]],[[192.25001,273.5],[0,0],[-0.14819,-0.01112]],[[191.79314,273.49743],[0.15619,-0.00922],[-0.16272,0.03876]],[[191.31845,273.55344],[0.15318,-0.00022],[-3.11479,0.54045]],[[182.78716,281.47081],[1.16822,-3.42612],[0.55358,0.67732]],[[183.19666,283.48086],[0.11716,-0.54015],[0.19109,-0.06854]],[[183.69408,283.23395],[-0.11971,0.08343],[0.81422,-0.56744]],[[185.99132,281.33999],[-0.92894,0.34929],[1.63488,-0.61474]],[[191.15159,280.42983],[-1.38751,-1.06092],[2.35791,1.80291]],[[191.44281,287.80091],[1.17299,-2.25516],[0.44087,-0.22332]],[[192.79331,287.1903],[-0.45435,0.18947],[1.28988,-0.53789]],[[196.54583,285.32036],[-1.01395,0.96178],[0.56427,-1.20222]],[[198.23863,281.71372],[-1.26257,0.41185],[1.54463,-0.50385]],[[202.86092,283.26039],[-1.48393,-0.66158],[0.33391,0.14887]],[[203.57501,284.09286],[-0.36551,-0.00763],[0.2725,0.00569]],[[203.57061,283.2752],[-0.07366,0.26241],[0.17045,-0.60726]],[[204.29513,281.52724],[-0.09899,0.62291],[0.42831,-2.69516]],[[203.33377,273.64168],[0.863,2.51],[0,0]],[[202.88252,271.40621],[0,0],[-1.09938,-0.40112]],[201.37831,269.79058],[[200.79857,267.9903],[0,0],[-0.16927,-0.86595]],[[200.32571,265.33221],[0.14046,0.90287],[-2.03707,-0.10298]],[[194.24552,264.81938],[2.02122,0.24841],[0.00297,0.05871]],[[194.25001,265.00001],[0,-0.06172],[0,0]]],&quot;closed&quot;:true,&quot;fillColor&quot;:[0,0,0,1]}]}" fill="#ffde00" stroke-width="0.5"></path><path d="M192.44287,245.59829c3.27013,1.95678 6.59875,3.9488 9.86382,5.91019c-0.51475,0.75238 -0.97374,1.64502 -1.37321,2.69359c-0.73923,1.94042 -1.03209,4.04816 -1.02617,6.14711c-3.39141,-0.19459 -6.80249,-0.58082 -10.19309,-1.30104c-0.2594,-1.15141 -0.4728,-2.31942 -0.55225,-3.46l0.64885,-0.14209c0,0 2.42107,-0.63145 1.81473,-3.0568c-0.33559,-1.34234 -1.22548,-1.76889 -1.95589,-1.87068c0.47815,-1.91509 1.25591,-3.72712 2.23313,-5.36309c0.28219,0.28983 0.54009,0.44282 0.54009,0.44282z" data-paper-data="{&quot;noHover&quot;:false,&quot;origItem&quot;:[&quot;Path&quot;,{&quot;applyMatrix&quot;:true,&quot;segments&quot;:[[192.46376,245.64373],[[191.92529,245.20013],[0.28219,0.28983],[-0.97722,1.63597]],[[189.71657,250.53586],[0.47815,-1.91509],[0.73041,0.10179]],[[191.67535,252.39366],[-0.33559,-1.34234],[0.60634,2.42535]],[189.85633,255.42535],[[189.20787,255.56833],[0,0],[0.07945,1.14058]],[[189.74876,259.012],[-0.2594,-1.15141],[3.3906,0.72022]],[[199.88322,260.30536],[-3.39141,-0.19459],[-0.00592,-2.09895]],[[200.88531,254.18865],[-0.73923,1.94042],[0.39947,-1.04857]],[[202.25756,251.51778],[-0.51475,0.75238],[-3.26507,-1.96139]],[[192.46376,245.64372],[3.27013,1.95678],[0,0]]],&quot;closed&quot;:true,&quot;fillColor&quot;:[0,0,0,1]}]}" fill="#ffde00" stroke-width="0.5"></path><path d="M194.98629,241.3541c0,0 -0.03737,-0.02275 -0.10523,-0.05675c2.48678,-2.55967 5.66156,-4.58791 9.07193,-5.87023c0.23008,0.48496 0.54189,0.79228 0.54189,0.79228c2.7915,2.77985 4.60822,4.66414 6.659,8.08212l0.08526,0.09603c-0.83004,0.49841 -1.64446,1.04905 -2.42474,1.61437c-0.99528,0.72109 -1.94018,1.3552 -2.79441,1.96825c-3.66126,-2.19398 -7.37345,-4.4245 -11.0337,-6.62608z" data-paper-data="{&quot;noHover&quot;:false,&quot;origItem&quot;:[&quot;Path&quot;,{&quot;applyMatrix&quot;:true,&quot;segments&quot;:[[[195.03624,241.35627],[0,0],[3.66025,2.20158]],[[205.99866,247.93495],[-3.66126,-2.19398],[0.85423,-0.61305]],[[208.77437,245.98196],[-0.99528,0.72109],[0.78028,-0.56532]],[[211.19165,244.38192],[-0.83004,0.49841],[0,0]],[[211.10627,244.28625],[0,0],[-2.05078,-3.41798]],[[204.48224,236.26778],[2.7915,2.77985],[0,0]],[[203.94596,235.47663],[0.23008,0.48496],[-3.41037,1.28232]],[[194.931,241.29985],[2.48678,-2.55967],[0.06786,0.034]],[195.03624,241.35628]],&quot;closed&quot;:true,&quot;fillColor&quot;:[0,0,0,1]}]}" fill="#ffde00" stroke-width="0.5"></path><path d="M187.26647,241.0472c-4.93388,0 -9.93181,-0.03181 -14.86569,-0.03181c2.56057,-2.39477 6.26211,-4.00917 8.86442,-6.08152c0,0 0.24767,-0.20226 0.49436,-0.54145c2.2205,-0.09886 4.51795,-0.2323 6.73202,-0.43627c3.60743,-0.33233 7.10025,-1.00651 10.60342,-1.57789c-1.48659,0.58378 -3.40853,1.33702 -3.67319,1.52074c-2.57803,1.78958 -4.9683,4.31398 -6.85621,7.14295z" data-paper-data="{&quot;noHover&quot;:false,&quot;origItem&quot;:[&quot;Path&quot;,{&quot;applyMatrix&quot;:true,&quot;segments&quot;:[[[188.53839,241],[0,0],[1.88791,-2.82897]],[[195.37377,233.91289],[-2.57803,1.78958],[0.26466,-0.18372]],[[199.04742,232.39365],[-1.48659,0.58378],[-3.50317,0.57138]],[[188.4562,233.99148],[3.60743,-0.33233],[-2.21407,0.20397]],[[181.80285,234.41743],[2.2205,-0.09886],[-0.24669,0.33919]],[[181.31173,234.95217],[0,0],[-2.60231,2.07235]],[[172.44835,241],[2.56057,-2.39477],[4.93388,0]],[[187.24999,241],[-4.93388,0],[0,0]]],&quot;closed&quot;:true,&quot;fillColor&quot;:[0,0,0,1]}]}" fill="#ffde00" stroke-width="0.5"></path><path d="M184.48221,251.14124c-5.16727,0.44376 -10.76031,1.87709 -15.91036,1.86207c-0.04769,-2.29486 0.13725,-4.80715 0.8017,-7.02368c5.05375,0 11.24289,0.00163 16.5549,0.00163c-0.67775,1.6739 -1.17213,3.43003 -1.44624,5.15999z" data-paper-data="{&quot;noHover&quot;:false,&quot;origItem&quot;:[&quot;Path&quot;,{&quot;applyMatrix&quot;:true,&quot;segments&quot;:[[[185.8821,246],[-0.67775,1.6739],[-5.31201,0]],[[169.41921,246],[5.05375,0],[-0.66445,2.21653]],[[168.6182,252.98455],[-0.04769,-2.29486],[5.15005,0.01502]],[[184.43346,251.13013],[-5.16727,0.44376],[0.27411,-1.72996]]],&quot;closed&quot;:true,&quot;fillColor&quot;:[0,0,0,1]}]}" fill="#ffde00" stroke-width="0.5"></path><path d="M184.874,260.40164c-0.1815,0.726 -0.09392,1.29866 0.12151,1.73121c-4.59275,-0.0806 -9.31639,0.35656 -13.80138,-0.56511c0,0 -0.39814,-0.08181 -0.90477,-0.01684c-0.51254,-1.18047 -0.92325,-2.4324 -1.20718,-3.71029c5.02055,-0.16053 10.23288,-1.35571 15.26371,-1.73985c0.13986,1.2951 0.38161,2.60068 0.66357,3.87524c-0.05154,0.12957 -0.09728,0.27297 -0.13545,0.42565z" data-paper-data="{&quot;noHover&quot;:false,&quot;origItem&quot;:[&quot;Path&quot;,{&quot;applyMatrix&quot;:true,&quot;segments&quot;:[[[184.82465,260.39366],[0,0],[0.03817,-0.15268]],[[184.95973,259.97075],[-0.05154,0.12957],[-0.28196,-1.27456]],[[184.29971,256.11995],[0.13986,1.2951],[-5.03083,0.38414]],[[169.13152,257.84863],[5.02055,-0.16053],[0.28393,1.27789]],[[170.33643,261.53406],[-0.51254,-1.18047],[0.50663,-0.06497]],[[171.24029,261.54854],[0,0],[4.48499,0.92167]],[[184.94872,262.1152],[-4.59275,-0.0806],[-0.21543,-0.43255]],[[184.82464,260.39365],[-0.1815,0.726],[0,0]]],&quot;closed&quot;:true,&quot;fillColor&quot;:[0,0,0,1]}]}" fill="#ffde00" stroke-width="0.5"></path><path d="M241.22783,237.44503c0.49178,0.05355 0.99645,0.08353 1.5021,0.0971c0.65804,0.77888 1.72859,0.89499 1.72859,0.89499c4.02353,0.44678 8.13778,1.2345 12.17403,1.52543c2.05815,0.14835 6.48178,-0.36837 8.33071,0.63334c1.84434,0.99922 1.47015,5.92092 1.84524,7.61129c0.07547,0.34013 0.5817,0.70933 0.36474,0.98194c-0.47799,0.6006 -3.7412,0.36235 -3.84631,0.3614l-1.37737,0.47734c-3.28557,-1.57887 -7.18359,-2.48859 -10.26146,-3.80786c0,0 -2.20357,-1.01801 -3.18837,1.27985c-0.9848,2.29786 1.23513,3.25827 1.23513,3.25827c1.51918,0.65099 4.41643,1.94397 6.11348,2.56186c0.73218,0.26658 1.95901,0.58944 3.24313,1.01153c0.75062,1.29736 2.03248,1.21358 2.66597,1.07495c0.94962,0.49357 1.80739,1.13069 2.1432,1.84291c0.13905,0.29491 -0.33607,0.56735 -0.44041,0.87625c-0.12476,0.36936 0.13772,1.06823 -0.24421,1.14647c-0.67459,0.13818 -1.28398,-0.50526 -1.946,-0.6947c-1.29912,-0.37175 -2.61941,-0.67734 -3.93605,-0.98125c-3.09998,-0.71553 -6.80669,-0.78157 -9.77218,-1.91082c-0.80279,-0.3057 -1.56017,-0.66694 -2.25702,-1.06925c-0.20636,-0.47469 -0.42725,-0.86933 -0.62693,-1.13562c-0.75711,-1.00968 -2.12997,-1.40553 -3.18459,-2.09867c0,0 -0.26118,-0.15898 -0.65359,-0.27174c-0.78551,-0.75521 -1.56549,-1.56564 -2.37161,-2.37276l-2.00001,-2.00998c0,0 -1.66815,-1.75907 -3.43592,0.0087c-1.76777,1.76776 -0.00055,3.52348 -0.00055,3.52348l1.99781,1.99157c1.77462,1.77252 3.40523,3.38675 5.22607,4.80075c-1.88902,-0.71629 -3.99873,-1.05914 -5.70188,-2.13359l-0.00003,-0.00001c-2.47129,-1.55904 -4.77564,-4.31125 -6.79202,-6.96552c0.00015,-0.00012 0.00023,-0.00018 0.00023,-0.00018c4.07376,-3.26667 7.72275,-7.03107 10.1358,-11.60435c0.05241,0.00126 0.10513,0.00217 0.15754,0.00324c1.02438,0.49744 2.05653,0.97212 3.17275,1.09366z" data-paper-data="{&quot;noHover&quot;:false,&quot;origItem&quot;:[&quot;Path&quot;,{&quot;applyMatrix&quot;:true,&quot;segments&quot;:[[[241.25366,237.48783],[0,0],[-1.11622,-0.12154]],[[238.08683,236.38998],[1.02438,0.49744],[-0.05241,-0.00107]],[[237.9296,236.38648],[0.05241,0.00126],[-2.41305,4.57328]],[[227.81172,247.95215],[4.07376,-3.26667],[0,0]],[[227.81149,247.95233],[0.00015,-0.00012],[2.01638,2.65427]],[[234.59736,254.89414],[-2.47129,-1.55904],[0,0]],[[234.59739,254.89415],[0,0],[1.70315,1.07445]],[[240.22456,257.09111],[-1.88902,-0.71629],[-1.82084,-1.414]],[[234.98223,252.26775],[1.77462,1.77252],[0,0]],[232.98223,250.26775],[[232.98223,246.73222],[-1.76777,1.76776],[1.76777,-1.76777]],[236.51776,246.73222],[[238.51776,248.73222],[0,0],[0.80612,0.80712]],[[240.88446,251.08788],[-0.78551,-0.75521],[0.39241,0.11276]],[[241.53623,251.35626],[0,0],[1.05462,0.69314]],[[244.7001,253.43567],[-0.75711,-1.00968],[0.19968,0.26629]],[[245.32008,254.56846],[-0.20636,-0.47469],[0.69685,0.40231]],[[247.56133,255.6353],[-0.80279,-0.3057],[2.96549,1.12925]],[[257.29846,257.56089],[-3.09998,-0.71553],[1.31664,0.30391]],[[261.23057,258.54661],[-1.29912,-0.37175],[0.66202,0.18944]],[[263.17556,259.24264],[-0.67459,0.13818],[0.38193,-0.07824]],[[263.41818,258.09849],[-0.12476,0.36936],[0.10434,-0.3089]],[[263.85725,257.22444],[0.13905,0.29491],[-0.33581,-0.71222]],[[261.80155,255.42991],[0.94962,0.49357],[-0.63349,0.13863]],[[259.13504,254.35596],[0.75062,1.29736],[-1.28412,-0.42209]],[[255.89008,253.34744],[0.73218,0.26658],[-1.69705,-0.61789]],[[249.76518,250.79784],[1.51918,0.65099],[0,0]],[[248.45212,247.51518],[-0.9848,2.29786],[0.9848,-2.29786]],[[251.73478,246.20212],[0,0],[3.07787,1.31927]],[[261.99897,250.03538],[-3.28557,-1.57887],[0,0]],[[263.27721,249.54509],[0,0],[0.10511,0.00095]],[[267.12335,249.18565],[-0.47799,0.6006],[0.21696,-0.27261]],[[266.7585,248.20618],[0.07547,0.34013],[-0.37509,-1.69037]],[[264.91705,240.615],[1.84434,0.99922],[-1.84893,-1.00171]],[[256.59464,239.99515],[2.05815,0.14835],[-4.03625,-0.29093]],[[244.4739,238.48469],[4.02353,0.44678],[0,0]],[[242.75095,237.58749],[0.65804,0.77888],[-0.50565,-0.01357]],[[241.25367,237.48783],[0.49178,0.05355],[0,0]]],&quot;closed&quot;:true,&quot;fillColor&quot;:[0,0,0],&quot;strokeWidth&quot;:0.5}]}" fill="#864100" stroke-width="0.25"></path><path d="M110.02398,202.45495c-2.97411,2.96806 -5.61938,6.04301 -8.17017,9.27151c0.27617,-1.07878 0.46592,-2.0448 0.58691,-2.89174c0.60076,-4.20519 0.72657,-8.46379 1.91024,-12.62761c0.87909,-3.09237 2.75607,-5.33592 3.72788,-8.4075c2.82819,-2.72692 5.50815,-4.92916 8.5324,-7.45321c2.32041,-1.93661 4.60153,-3.93503 7.78877,-4.42868c0.95694,-0.14821 1.95535,0.15433 2.9135,0.0142c2.38813,-0.34927 4.60212,-1.56529 6.9772,-1.98604c0.01183,0.15551 0.03102,0.25011 0.03102,0.25011c1.38484,6.86042 6.53796,13.73099 13.01655,17.79749c-1.48002,-0.1535 -3.08554,-0.23526 -4.63818,-0.24015c-8.07088,0.01598 -18.58723,0.15501 -25.75092,4.35421c-3.13561,1.83802 -4.4567,3.88393 -6.9252,6.34741z" data-paper-data="{&quot;noHover&quot;:false,&quot;origItem&quot;:[&quot;Path&quot;,{&quot;applyMatrix&quot;:true,&quot;segments&quot;:[[[109.98224,202.48248],[0,0],[2.4685,-2.46348]],[[116.99519,196.08798],[-3.13561,1.83802],[7.16369,-4.1992]],[[142.75,191.75025],[-8.07088,0.01598],[1.55264,0.00489]],[[147.28831,191.99541],[-1.48002,-0.1535],[-6.47859,-4.0665]],[[134.29855,174.24029],[1.38484,6.86042],[0,0]],[[134.26783,173.99034],[0.01183,0.15551],[-2.37508,0.42075]],[[127.30546,175.98127],[2.38813,-0.34927],[-0.95815,0.14013]],[[124.40045,175.96772],[0.95694,-0.14821],[-3.18724,0.49365]],[[116.638,180.38863],[2.32041,-1.93661],[-3.02425,2.52405]],[[108.12662,187.81433],[2.82819,-2.72692],[-0.97181,3.07158]],[[104.40029,196.19897],[0.87909,-3.09237],[-1.18367,4.16382]],[[102.48126,208.80546],[0.60076,-4.20519],[-0.12099,0.84694]],[[101.81534,211.75841],[0.27617,-1.07878],[2.55079,-3.2285]],[[109.98223,202.48248],[-2.97411,2.96806],[0,0]]],&quot;closed&quot;:true,&quot;fillColor&quot;:[0,0,0],&quot;strokeWidth&quot;:0.5}]}" fill="#864100" stroke-width="0.25"></path><path d="M221.60339,230.93458c-0.60634,2.42536 1.76176,2.94971 1.76176,2.94971l2.19402,0.54158c1.42329,0.23706 2.83651,0.49711 4.25016,0.76696c0.59305,0.2689 1.15794,0.26936 1.15794,0.26936l0.23171,0.00011c0.43363,0.08484 0.93355,0.24537 1.36734,0.33155c-0.99504,1.55893 -2.17294,3.00049 -3.46202,4.3425c-0.07393,0.01853 -0.11557,0.03244 -0.11557,0.03244l-0.00002,0.00001c-0.89337,0.29779 -1.76247,0.63316 -2.62049,0.94658c-0.06386,-0.01748 -0.10083,-0.02482 -0.10083,-0.02482c-2.87392,-0.5272 -5.72465,-0.30009 -8.44641,0.44626c-0.50128,-0.0352 -1.10439,0.05802 -1.6299,0.5132c-0.11442,0.04063 -0.22893,0.08228 -0.34282,0.12464c-0.1661,-0.24999 -0.3122,-0.39589 -0.3122,-0.39589l-0.12414,-0.01843c-1.87617,-3.12694 -3.72154,-5.24098 -6.05345,-7.63604c0.21711,-0.0323 0.40446,-0.15719 0.62235,-0.18399c1.37039,-0.16857 2.65652,0.8984 4.03719,0.91006c0.07786,0.00066 0.1554,0.00033 0.2331,-0.00111l-0.01122,0.05628l2.44717,0.4909c0.17418,0.03842 0.3547,0.05891 0.54043,0.05891c1.38071,0 2.49647,-1.11733 2.49647,-2.49804c0,-0.82832 -0.3506,-1.47727 -0.97104,-1.93219l-1.97777,-1.48191c-2.89177,-2.13454 -4.90242,-2.94129 -8.50865,-2.99601c-6.95145,0 -13.38532,1.89484 -20.23789,2.50897c-5.02751,0.45057 -10.15805,0.36745 -15.20384,0.73388c-0.25211,-0.24877 -0.59815,-0.46729 -1.06617,-0.62329c-1.68137,-0.56045 -2.56944,0.46723 -2.94319,1.11364c-1.55204,0.43583 -3.00168,1.30611 -4.50178,1.92366c-0.19901,0.08193 -0.40152,0.15231 -0.60648,0.2137c-0.91909,-0.33561 -1.80951,-0.70759 -2.64572,-1.1298c-1.07285,-0.5417 -1.92642,-1.46679 -3.00222,-2.00261c-2.28381,-1.13748 -4.50564,-1.63322 -5.97544,-4.07383c-1.12087,-1.86121 -1.17711,-4.18955 -1.70406,-6.29733c-0.57162,-2.28648 -1.62662,-4.46733 -1.95998,-6.80048c-0.31116,-2.17776 0.04356,-4.40586 0.03088,-6.6057c-0.005,-0.86657 -0.09381,-1.73768 -0.03263,-2.6021c0.11518,-1.6274 1.60175,-3.61145 0.56009,-4.86709c-1.17501,-1.41638 -3.48823,-1.00483 -5.32856,-1.00613c-1.05409,-0.00074 -1.96025,0.82582 -3,0.99911c-0.98639,0.1644 -2.01439,-0.16903 -3,0.00002c-0.2725,0.04674 -5.92077,1.93803 -6.39016,2.09449c-2.4029,0.81791 -4.80252,1.86307 -6.79453,3.43622c-0.65425,0.51667 -1.01279,1.37976 -1.72946,1.80564c-0.85638,0.5089 -1.98165,0.41646 -2.84597,0.91178c-2.5189,1.44351 -4.57459,3.60868 -7.09488,5.04976c-1.36505,0.78053 -2.90418,1.25305 -4.20709,2.13339c-0.62908,0.42505 -0.78623,1.4457 -1.49507,1.71765c-0.47314,0.18151 -1.09589,0.06785 -1.61737,-0.03936c2.49823,-3.1738 5.0769,-6.19661 7.99302,-9.11835c2.75367,-2.75897 4.67857,-5.51079 8.54334,-6.90704c6.19553,-2.23831 14.31968,-2.37953 20.78864,-2.36511c5.23473,-0.01944 9.8257,1.07899 14.8533,2.41217c2.96079,0.78512 3.87188,0.61287 6.29899,2.18737c4.59004,2.97762 8.33525,6.68567 13.05367,9.51672l0.29802,0.30991c-1.84671,0.54013 -3.98115,0.72684 -5.84401,1.10965l-2.25446,-0.01367c0,0 -2.41172,-0.04695 -2.41172,2.45305c0,2.5 2.49745,2.49586 2.49745,2.49586l2.74496,-0.01408c4.85653,-0.94935 11.57973,-1.46363 14.02965,-6.47426c0.45435,-0.92926 0.37541,-1.94956 0.59847,-2.9596c0,0 0.48359,-2.46087 -1.96786,-2.95116c-2.45145,-0.49029 -2.85448,1.91232 -2.85448,1.91232c-0.07297,0.43451 -0.18557,0.82664 -0.331,1.18458c-0.18744,-0.17997 -0.41708,-0.22386 -0.41708,-0.22386l-1.60252,-1.0673c-4.66034,-2.7962 -8.35219,-6.60807 -12.94399,-9.48471c-1.61728,-1.01319 -2.58557,-1.46473 -3.6059,-1.7812c1.41457,-0.30495 2.8129,-0.79919 4.17616,-1.4981c0.59804,0.8304 1.38345,1.6393 2.16455,2.40524c3.35364,3.28854 7.81859,3.41608 12.06782,4.62044c3.70036,1.04879 6.8339,1.14138 10.69009,1.07986c1.24185,-0.01981 2.53145,0.27658 3.70792,-0.12152c5.80781,-1.96528 9.7748,-9.18833 11.58999,-14.52112c1.30478,-4.03585 1.15679,-7.56079 1.14057,-11.78233c-0.00844,-2.19597 0.24845,-4.47815 -0.47096,-6.56789l1.01026,-0.02398c0,0 2.46224,0.09257 2.46224,-2.40743c0,-2.5 -2.49563,-2.49834 -2.49563,-2.49834l-0.20921,0.12836c-2.14851,-0.69756 -3.90419,-2.33532 -6.05715,-3.01903c-3.77884,-1.20004 -9.90116,-0.14245 -13.49652,1.01991c-0.37714,0.12572 -6.1126,2.03035 -6.2992,2.1229c-1.04837,0.51998 -1.83292,1.49675 -2.90873,1.95731c-1.26345,0.5409 -2.73356,0.45282 -3.99556,0.99711c-2.43064,1.0483 -4.38469,2.31462 -6.39232,3.30654c-0.21492,-0.15509 -0.47773,-0.29126 -0.79866,-0.39824c-2.37171,-0.79057 -3.15967,1.57811 -3.15967,1.57811c-0.02695,0.08099 -0.0535,0.16188 -0.08002,0.2431c-0.45587,0.08552 -0.9261,0.14594 -1.41627,0.17915c-0.66549,-0.38286 -1.38074,-0.38334 -1.38074,-0.38334c-0.87463,0.0341 -1.89958,-0.26483 -2.74733,-0.12267c-3.90866,-1.55588 -6.26458,-7.27657 -9.76906,-9.31297c-0.84299,-0.48984 -1.74693,-0.83112 -2.68891,-1.06603c0.10745,-1.83393 0.12431,-4.05732 0.92195,-5.60943c4.60144,-1.03156 9.21054,-1.07481 13.86165,-1.73924c1.0435,-0.14907 1.96342,-0.82213 3.00211,-1.00164c2.16775,-0.37463 4.40398,0.02945 6.60385,0.02945c2.19988,0 4.43705,-0.40958 6.60479,-0.03495c6.01035,1.03871 11.79462,2.46159 17.81209,3.95347c3.96633,0.98336 7.55011,1.37441 11.37999,2.48732c0.05056,0.55263 0.38123,2.34021 2.49455,2.34021c0.82244,0 1.37606,-0.26993 1.74639,-0.63304c0.12099,0.0795 0.23871,0.16514 0.35135,0.25782c2.662,2.19044 2.90351,6.69413 4.53831,9.44577c0.48156,0.81054 1.51434,1.19661 2.00342,2.00264c0.47825,0.78818 0.45945,1.7963 0.81971,2.64492c1.58321,3.72939 3.33323,7.24447 3.83952,11.3651c0.04854,0.39505 0.05426,0.7949 0.04173,1.19397c-0.05969,0.2952 -0.05941,0.50327 -0.05941,0.50327c0,0.92403 -0.13778,2.37364 -0.21141,3.8438c-0.00765,0.0148 -0.01523,0.02983 -0.02278,0.04493c-0.49107,0.98213 -0.33438,1.75298 -0.00499,2.30374c0.03774,0.86604 0.14849,1.63813 0.38545,2.17904c0.57401,-0.22969 1.1006,-0.35308 1.75664,-0.35308c0.24269,0 0.58129,0.01389 0.81474,0.04731c0.30811,0.12269 0.61623,0.2385 0.92452,0.34795c-0.13849,0.95062 -0.26404,1.90323 -0.38378,2.85603l-0.472,2.83201c-0.05485,0.29662 -0.08352,0.60242 -0.08352,0.91491c0,2.76142 2.23858,5 5,5c2.2492,0 4.15153,-1.48512 4.77988,-3.52824l0.96354,-2.89062l-0.41492,-0.13831l0.06597,-0.3958c0.0942,-0.16047 0.18373,-0.32302 0.26817,-0.48779l0.58565,0.07321c0.50588,0.81533 1.23974,1.47439 2.11253,1.88813l2.90312,1.45156l0.07958,-0.15916c0.19881,0.15289 0.40202,0.30045 0.61027,0.44194c0.69914,0.47502 2.31176,0.65521 3.91664,0.71997c-1.6964,0.79975 -2.87042,2.52533 -2.87042,4.52512c0,2.76142 2.23858,5 5,5c0.2696,0 0.53422,-0.02134 0.79225,-0.06242l1.44068,-0.20581c0.27333,0.29076 0.54061,0.57651 0.78719,0.85855c0.46447,0.53127 3.74314,2.90337 6.42788,4.79479c-0.52616,1.61752 -0.1475,3.70335 1.49579,6.53844c1.16888,2.01661 3.75266,2.83104 5.87866,3.78663c2.74159,1.23228 5.69257,1.43015 8.31909,0.72271c0.04145,0.03583 0.08292,0.07164 0.12441,0.10741c-0.18599,0.06959 -0.35372,0.13572 -0.49452,0.19968c-7.11966,3.23434 -14.22796,1.53979 -21.63251,0.31105c-1.86255,-0.30908 -3.76004,-0.35965 -5.64176,-0.51383c-4.10338,-0.33622 -8.16326,0.37893 -12.22012,-0.45475c-2.69109,-0.53822 -5.3755,-1.05943 -8.08294,-1.51096l-1.80562,-0.45854c0,0 -2.42875,-0.60373 -3.03509,1.82163z" data-paper-data="{&quot;noHover&quot;:false,&quot;origItem&quot;:[&quot;Path&quot;,{&quot;applyMatrix&quot;:true,&quot;segments&quot;:[[[221.57464,230.89366],[0,0],[0.60634,-2.42536]],[224.60634,229.07464],[[226.411,229.53401],[0,0],[2.70744,0.45153]],[[234.49029,231.04854],[-2.69109,-0.53822],[4.05686,0.83368]],[[246.7062,231.50851],[-4.10338,-0.33622],[1.88172,0.15418]],[[252.34675,232.02416],[-1.86255,-0.30908],[7.40455,1.22874]],[[273.97586,231.7194],[-7.11966,3.23434],[0.96001,-0.43612]],[[277.86442,229.70027],[-0.71769,1.04818],[0.34402,-0.50244]],[[278.2508,227.97644],[0.02936,0.62678],[-2.77068,1.17503]],[[270.10633,230.42535],[2.29258,-0.57545],[0,0]],[268.10633,230.92535],[[265.07463,229.10633],[0.60634,2.42536],[-0.60634,-2.42536]],[266.89365,226.07463],[[268.89365,225.57463],[0,0],[2.95536,-0.73565]],[[278.80137,222.16568],[-2.45099,2.01953],[0.19239,-0.15853]],[[280.02211,219.33182],[0.13652,0.52545],[-0.16781,-0.64588]],[[279.05512,217.58232],[0.37677,0.56107],[-5.64119,2.109]],[[261.49999,221.99999],[5.80264,-0.04925],[0,0]],[259.23222,220.76776],[[259.23222,217.23223],[-1.76777,1.76776],[1.32725,-1.32725]],[[262.46579,216.98497],[-0.57907,-0.41423],[6.11873,-0.25365]],[[280.86518,211.58411],[-5.65922,1.96054],[0.13251,-0.04591]],[[286.60726,209.27553],[-0.7204,1.48014],[0.32706,-0.67198]],[[285.74836,207.32414],[0.61125,0.63622],[-2.37295,1.8435]],[[278.19102,211.40259],[2.58874,-0.80831],[-4.94318,1.54346]],[[261.08899,211.46598],[4.98277,0.81703],[0,0]],[260.49999,211.5],[[257.99999,209],[0,2.5],[0,-2.5]],[260.49999,206.5],[[261.91099,206.53402],[0,0],[7.42871,1.26107]],[[284.23223,202.23224],[-5.71706,5.71705],[1.88521,-1.88521]],[[289.28453,194.84169],[-1.21162,2.20965],[0.46759,-0.85274]],[[290.59071,190.66734],[0.34794,1.34313],[-0.46007,-1.77598]],[[287.97586,188.78061],[1.56341,0.67687],[-0.75357,-0.32625]],[[282.84466,186.49518],[1.16759,0.12598],[-1.93589,-0.20887]],[[276.20303,189.19153],[1.53198,-0.76619],[-8.39958,5.03975]],[[247.50001,200.00002],[10.13287,-0.06427],[-2.80332,0.01778]],[[238.79381,198.9915],[2.80962,0.25542],[-4.44971,-0.40452]],[[226.21481,196.55073],[4.06422,1.61838],[-0.23345,-0.03342]],[[225.50001,196.50002],[0.24269,0],[-0.65604,0]],[[223.64342,196.85606],[0.57401,-0.22969],[-0.23696,-0.54091]],[[223.25826,194.68133],[0.03774,0.86604],[-0.32939,-0.55076]],[[223.26394,192.38199],[-0.49107,0.98213],[0.00755,-0.0151]],[[223.28674,192.33714],[-0.00765,0.0148],[0.07363,-1.47016]],[[223.49999,188.5],[0,0.92403],[0,0]],[[223.55968,187.99752],[-0.05969,0.2952],[0.01253,-0.39907]],[[223.5187,186.80546],[0.04854,0.39505],[-0.50629,-4.12063]],[[219.69027,175.45671],[1.58321,3.72939],[-0.36026,-0.84862]],[[218.87335,172.81433],[0.47825,0.78818],[-0.48908,-0.80603]],[[216.87335,170.81433],[0.48156,0.81054],[-1.6348,-2.75164]],[[212.34547,161.37419],[2.662,2.19044],[-0.11264,-0.09268]],[[211.99462,161.11657],[0.12099,0.0795],[-0.37033,0.36311]],[[210.24998,161.75024],[0.82244,0],[-2.11332,0]],[[207.75923,159.41116],[0.05056,0.55263],[-3.82988,-1.11291]],[[196.39364,156.92534],[3.96633,0.98336],[-6.01747,-1.49188]],[[178.59952,152.96771],[6.01035,1.03871],[-2.16774,-0.37463]],[[171.99997,152.99999],[2.19988,0],[-2.19987,0]],[[165.40042,152.96771],[2.16775,-0.37463],[-1.03869,0.17951]],[[162.40042,153.96771],[1.0435,-0.14907],[-4.65111,0.66443]],[[148.54528,155.70052],[4.60144,-1.03156],[-0.79764,1.55211]],[[147.62574,161.30685],[0.10745,-1.83393],[0.94198,0.23491]],[[150.3143,162.37336],[-0.84299,-0.48984],[3.50448,2.0364]],[[160.08444,171.6848],[-3.90866,-1.55588],[0.84775,-0.14216]],[[162.74997,171.74998],[-0.87463,0.0341],[0,0]],[[164.13106,172.13284],[-0.66549,-0.38286],[0.49017,-0.03321]],[[165.54806,171.95274],[-0.45587,0.08552],[0.02652,-0.08122]],[[165.62826,171.70941],[-0.02695,0.08099],[0,0]],[[168.79054,170.12827],[-2.37171,-0.79057],[0.32093,0.10698]],[[169.58942,170.52627],[-0.21492,-0.15509],[2.00763,-0.99192]],[[175.98858,167.2137],[-2.43064,1.0483],[1.262,-0.54429]],[[179.98858,166.2137],[-1.26345,0.5409],[1.07581,-0.46056]],[[182.90158,164.25419],[-1.04837,0.51998],[0.1866,-0.09255]],[[189.20939,162.12827],[-0.37714,0.12572],[3.59536,-1.16236]],[[202.72442,161.10725],[-3.77884,-1.20004],[2.15296,0.68371]],[[208.79053,164.12827],[-2.14851,-0.69756],[0,0]],[208.99996,163.99998],[[211.49996,166.49998],[0,-2.5],[0,2.5]],[208.99996,168.99998],[[208.02403,168.93005],[0,0],[0.71941,2.08974]],[[208.49996,175.49998],[-0.00844,-2.19597],[0.01622,4.22154]],[[207.37167,187.29055],[1.30478,-4.03585],[-1.81519,5.33279]],[[195.72442,201.89271],[5.80781,-1.96528],[-1.17647,0.3981]],[[191.99996,201.99998],[1.24185,-0.01981],[-3.85619,0.06152]],[[181.30099,200.90028],[3.70036,1.04879],[-4.24923,-1.20436]],[[169.2322,196.26775],[3.35364,3.28854],[-0.7811,-0.76594]],[[167.16727,193.87037],[0.59804,0.8304],[-1.36326,0.69891]],[[162.99136,195.36568],[1.41457,-0.30495],[1.02033,0.31647]],[[166.59735,197.1444],[-1.61728,-1.01319],[4.5918,2.87664]],[[179.5362,206.6065],[-4.66034,-2.7962],[0,0]],[181.13671,207.67011],[[181.46865,207.94642],[-0.18744,-0.17997],[0.14543,-0.35794]],[[181.79851,206.75995],[-0.07297,0.43451],[0,0]],[[184.74025,204.79879],[-2.45145,-0.49029],[2.45145,0.49029]],[[186.70141,207.74053],[0,0],[-0.22306,1.01004]],[[186.03223,210.77067],[0.45435,-0.92926],[-2.44992,5.01063]],[[171.99631,217.23808],[4.85653,-0.94935],[0,0]],[169.24997,217.25025],[[166.74997,214.75025],[0,2.5],[0,-2.5]],[169.24997,212.25025],[[171.50363,212.26241],[0,0],[1.86286,-0.38281]],[[177.34569,211.14954],[-1.84671,0.54013],[0,0]],[[176.96373,210.89398],[0,0],[-4.71842,-2.83105]],[[163.90258,201.35609],[4.59004,2.97762],[-2.42711,-1.5745]],[[157.60331,199.16516],[2.96079,0.78512],[-5.0276,-1.33318]],[[142.74997,196.75025],[5.23473,-0.01944],[-6.46896,-0.01442]],[[122.06131,199.11493],[6.19553,-2.23831],[-3.86477,1.39625]],[[113.51773,206.01802],[2.75367,-2.75897],[-2.91612,2.92174]],[[105.52408,215.13203],[2.49823,-3.1738],[0.52148,0.10721]],[[107.04326,215.19031],[-0.47314,0.18151],[0.70884,-0.27195]],[[108.53819,213.4719],[-0.62908,0.42505],[1.30291,-0.88034]],[[112.74515,211.33773],[-1.36505,0.78053],[2.52029,-1.44108]],[[119.8397,206.28555],[-2.5189,1.44351],[0.86432,-0.49532]],[[122.68563,205.37338],[-0.85638,0.5089],[0.71667,-0.42588]],[[124.41499,203.56665],[-0.65425,0.51667],[1.99201,-1.57315]],[[131.20939,200.12829],[-2.4029,0.81791],[0.46939,-0.15646]],[[137.59951,198.03228],[-0.2725,0.04674],[0.98561,-0.16905]],[[140.59951,198.03228],[-0.98639,0.1644],[1.03975,-0.17329]],[[143.59951,197.03228],[-1.05409,-0.00074],[1.84033,0.0013]],[[149.02807,198.03823],[-1.17501,-1.41638],[1.04166,1.25564]],[[148.46769,202.90046],[0.11518,-1.6274],[-0.06118,0.86442]],[[148.49997,205.50001],[-0.005,-0.86657],[0.01268,2.19984]],[[148.46769,212.09956],[-0.31116,-2.17776],[0.33336,2.33315]],[[150.42532,218.89368],[-0.57162,-2.28648],[0.52695,2.10778]],[[152.12659,225.18569],[-1.12087,-1.86121],[1.4698,2.44061]],[[158.09835,229.25423],[-2.28381,-1.13748],[1.0758,0.53582]],[[161.09835,231.25423],[-1.07285,-0.5417],[0.83621,0.42221]],[[163.74222,232.38211],[-0.91909,-0.33561],[0.20496,-0.06139]],[[164.34849,232.16821],[-0.19901,0.08193],[1.5001,-0.61755]],[[168.8487,230.24309],[-1.55204,0.43583],[0.37375,-0.64641]],[[171.79055,229.1283],[-1.68137,-0.56045],[0.46802,0.156]],[[172.85556,229.75066],[-0.25211,-0.24877],[5.04579,-0.36643]],[[188.04378,229.00853],[-5.02751,0.45057],[6.85257,-0.61413]],[[208.24998,226.50001],[-6.95145,0],[3.60623,0.05472]],[[216.74998,229.50001],[-2.89177,-2.13454],[0,0]],[[218.7267,230.98255],[0,0],[0.62044,0.45492]],[[219.74998,233.00001],[0,-0.82832],[0,1.38071]],[[217.24998,235.50001],[1.38071,0],[-0.18573,0]],[[216.70907,235.44134],[0.17418,0.03842],[0,0]],[214.25969,234.95146],[[214.27095,234.89516],[0,0],[-0.0777,0.00144]],[[214.03761,234.89637],[0.07786,0.00066],[-1.38067,-0.01166]],[[209.99632,233.98785],[1.37039,-0.16857],[-0.21789,0.0268]],[[209.34378,234.07651],[0.21711,-0.0323],[2.33191,2.39506]],[[215.39371,241.71378],[-1.87617,-3.12694],[0,0]],[215.51774,241.73225],[[215.8298,242.1282],[-0.1661,-0.24999],[0.11389,-0.04236]],[[216.17227,242.0037],[-0.11442,0.04063],[0.52551,-0.45518]],[[217.80055,241.49119],[-0.50128,-0.0352],[2.72176,-0.74635]],[[226.24026,241.04856],[-2.87392,-0.5272],[0,0]],[[226.34103,241.07342],[-0.06386,-0.01748],[0.85802,-0.31342]],[[228.9594,240.1283],[-0.89337,0.29779],[0,0]],[228.95942,240.12829],[[229.0749,240.09591],[-0.07393,0.01853],[1.28908,-1.34201]],[[232.53288,235.75668],[-0.99504,1.55893],[-0.43379,-0.08618]],[[231.23183,235.5],[0.43363,0.08484],[0,0]],[230.99999,235.5],[[229.84151,235.2311],[0.59305,0.2689],[-1.41365,-0.26985]],[[225.589,234.466],[1.42329,0.23706],[0,0]],[223.39366,233.92537],[[221.57464,230.89367],[-0.60634,2.42536],[0,0]]],&quot;closed&quot;:true,&quot;fillColor&quot;:[0,0,0],&quot;strokeWidth&quot;:0.5}]}" fill="#864100" stroke-width="0.25"></path><path d="" fill="#000000" stroke-width="0.5"></path></g></g></svg>