<svg version="1.1" xmlns="http://www.w3.org/2000/svg" xmlns:xlink="http://www.w3.org/1999/xlink" width="69.10099" height="19.44461" viewBox="0,0,69.10099,19.44461"><g transform="translate(-133.90056,-179.84507)"><g data-paper-data="{&quot;isPaintingLayer&quot;:true}" fill="#864100" fill-rule="nonzero" stroke="#000000" stroke-width="3" stroke-linecap="butt" stroke-linejoin="miter" stroke-miterlimit="10" stroke-dasharray="" stroke-dashoffset="0" style="mix-blend-mode: normal"><path d="M201.52937,183.96465c0.23228,1.18945 -0.95718,1.42173 -0.95718,1.42173l-0.91814,0.16976c-2.10893,0.67924 -4.25967,0.21718 -6.29345,0.79175c-0.49965,0.14116 -0.86863,0.65383 -1.38434,0.71399c-0.4815,0.05618 -0.91907,-0.43851 -1.4013,-0.38902c-0.3937,0.0404 -0.62164,0.52908 -1.00277,0.63572c-1.08224,0.3028 -2.24023,0.30039 -3.30796,0.65092c-1.08257,0.05521 -2.11845,0.47067 -3.19164,0.62326c-0.333,0.04735 -0.72772,-0.37171 -0.99503,-0.16758c-0.2553,0.19495 0.07707,0.66588 -0.04605,0.96257c-0.06811,0.16413 -1.89722,2.8381 -1.99008,2.9259c-1.44226,1.36372 -3.81361,2.04102 -5.5746,2.78866c-0.70081,0.29753 -1.8575,1.20943 -2.53859,1.40489c-1.50921,0.43312 -3.29109,0.43481 -4.83893,0.729c-0.63484,0.12066 -1.20895,0.53334 -1.85437,0.56533c-0.5366,0.02659 -1.02821,-0.33848 -1.56237,-0.39601c-1.01611,-0.10943 -2.04518,0.25913 -3.06197,0.15616c-0.92879,-0.09407 -1.85234,-0.3612 -2.78411,-0.30372c-3.0869,-0.09125 -5.90853,-1.08703 -8.87693,-1.91111c-2.32006,-0.64408 -4.98987,-1.04403 -7.18939,-2.01212c-0.10064,-0.04429 -2.53234,-1.68515 -2.71303,-1.80769c-1.14859,-0.77885 -4.02216,-2.80616 -3.60563,-4.58576c0.22233,-0.94992 2.31577,-2.38065 3.29794,-2.74871c0.76572,-0.28694 3.39755,-0.47861 3.88895,-0.55224c2.12036,-0.31766 4.23642,-0.82835 6.3409,-1.23929c1.95022,-0.35505 3.84007,-0.28738 5.78073,-0.45884c2.95581,-0.26114 5.94764,-0.90545 8.95282,-0.59506c1.9531,0.20172 3.83042,0.84933 5.78103,1.09498c0.66197,0.08336 1.34196,-0.05249 2.00092,0.05202c1.53171,0.24294 2.89954,1.10312 4.33,1.70223c1.51756,0.6356 3.463,0.95526 5.02463,1.38879c0,0 0.59504,0.16519 0.81768,0.68449c0.32891,-0.00225 0.66623,0.01142 0.97181,-0.0598c1.05568,-0.24608 2.10907,-0.56805 3.19164,-0.62326c0.99206,-0.32568 2.06805,-0.32051 3.07531,-0.5956c0.50086,-0.13679 0.86863,-0.65383 1.38434,-0.71399c0.4815,-0.05618 0.91907,0.43851 1.4013,0.38902c0.3937,-0.0404 0.62074,-0.53235 1.00277,-0.63572c2.06587,-0.55896 4.1326,-0.06826 6.21373,-0.76709l1.20962,-0.24575c0,0 1.18945,-0.23228 1.42173,0.95718z"></path></g></g></svg>