<svg version="1.1" xmlns="http://www.w3.org/2000/svg" xmlns:xlink="http://www.w3.org/1999/xlink" width="512.51052" height="405.90391" viewBox="0,0,512.51052,405.90391"><g transform="translate(14.00295,30.91809)"><g data-paper-data="{&quot;isPaintingLayer&quot;:true}" fill-rule="nonzero" stroke-linejoin="miter" stroke-miterlimit="10" stroke-dasharray="" stroke-dashoffset="0" style="mix-blend-mode: normal"><path d="M-13.00295,373.98581v-403.9039h510.51052v403.90391z" fill="#000000" stroke="#000000" stroke-width="2" stroke-linecap="butt"/><path d="M302.00001,71.50305c0,36.45079 -30.44464,66 -68,66c-37.55536,0 -68,-29.54921 -68,-66c0,-36.45079 30.44464,-66 68,-66c37.55536,0 68,29.54921 68,66z" fill="#c7c7c7" stroke="#000000" stroke-width="2" stroke-linecap="butt"/><text transform="translate(39.16869,167.67322) scale(0.52639,0.52323)" font-size="40" xml:space="preserve" fill="#ffffff" fill-rule="nonzero" stroke="none" stroke-width="1" stroke-linecap="butt" stroke-linejoin="miter" stroke-miterlimit="10" stroke-dasharray="" stroke-dashoffset="0" font-family="Sans Serif" font-weight="normal" text-anchor="start" style="mix-blend-mode: normal"><tspan x="0" dy="0">"I might be small but I already won this</tspan><tspan x="0" dy="48px">                              brawl!"</tspan></text><path d="M72.50006,209.53384l-36,-8h28" fill="none" stroke="#000000" stroke-width="0.5" stroke-linecap="round"/><path d="M439.50005,196.53384v22h-410" fill="none" stroke="#ff0000" stroke-width="3" stroke-linecap="round"/><path d="M28.50006,228.53383v-21" fill="none" stroke="#ff0000" stroke-width="3.5" stroke-linecap="round"/><path d="M174.50006,226.53384v-21" fill="none" stroke="#ff0000" stroke-width="3" stroke-linecap="round"/><path d="M313.50005,223.53384v-16" fill="none" stroke="#ff0000" stroke-width="3" stroke-linecap="round"/><path d="M438.75231,201.53384v-11h21v11z" fill="#00ff2d" stroke="#00ff15" stroke-width="3" stroke-linecap="butt"/><text transform="translate(82.7523,279.78381) scale(0.56501,0.56501)" font-size="40" xml:space="preserve" fill="#00ca25" fill-rule="nonzero" stroke="none" stroke-width="1" stroke-linecap="butt" stroke-linejoin="miter" stroke-miterlimit="10" stroke-dasharray="" stroke-dashoffset="0" font-family="Sans Serif" font-weight="normal" text-anchor="start" style="mix-blend-mode: normal"><tspan x="0" dy="0">Click Green Flag To Try Again</tspan></text><text transform="translate(174.75231,348.03386) scale(0.63001,0.63001)" font-size="40" xml:space="preserve" fill="#ffffff" fill-rule="nonzero" stroke="none" stroke-width="1" stroke-linecap="butt" stroke-linejoin="miter" stroke-miterlimit="10" stroke-dasharray="" stroke-dashoffset="0" font-family="Sans Serif" font-weight="normal" text-anchor="start" style="mix-blend-mode: normal"><tspan x="0" dy="0">AS Studios</tspan></text><path d="M283.01778,117.81411c1.76777,1.76777 0,3.53553 0,3.53553l-0.26777,0.23223c-1.25214,1.57162 -3.01932,2.7023 -4.77519,3.67941c-1.45635,0.81044 -2.54604,2.18527 -4,3c-2.32057,1.30034 -4.88334,2.42632 -7.41452,3.33656c-0.09624,0.19046 -0.22415,0.38576 -0.38976,0.5845c-1.60046,1.92056 -3.52101,0.3201 -3.52101,0.3201c-7.1868,-6.03817 -13.54944,-14.72048 -17.2761,-23.42263c-0.04045,0.00137 -0.08159,0.00208 -0.12344,0.00208c-0.28647,0 -0.54011,-0.03283 -0.76469,-0.09096c-2.28494,1.37673 -4.67909,2.509 -7.28925,3.05084c-2.81949,0.58531 -5.81545,-0.47261 -8.65226,-0.46841c-1.2192,-0.21515 -2.50269,-0.19941 -3.65758,-0.64544c-0.62909,-0.24296 -0.83794,-1.26828 -1.50743,-1.34936c-0.43152,-0.05226 -0.39419,0.80666 -0.73382,1.07794c-2.88314,2.30285 -9.2903,5.80946 -9.94008,9.89815c-0.86627,5.45099 1.8396,10.31991 2.00922,15.60515c0.00002,0.00061 0.00004,0.00122 0.00006,0.00183c0.96616,0.89402 1.92298,1.77186 2.8036,2.65248c0,0 1.76777,1.76777 0,3.53553c-1.76777,1.76777 -3.53553,0 -3.53553,0c-0.01525,-0.01525 -0.03052,-0.0305 -0.0458,-0.04574c-1.11316,0.51592 -2.84636,-0.2043 -4.17672,-0.27057c-4.62878,-0.23057 -8.25563,-1.88273 -11.80488,-4.71151c-6.60594,-8.81772 -3.97611,-20.72419 -3.20001,-30.89529c0.42144,-5.52309 0.88468,-12.20712 3.83516,-17.10336c1.92478,-3.19413 4.11231,-4.93562 7.07094,-5.93613c-0.30421,-1.43833 -0.70263,-3.66031 -0.84054,-4.21614c-2.19538,-8.84775 -2.06698,-19.80015 2.803,-27.90336c2.45465,-4.08432 7.01796,-6.48204 10.73165,-9.26029c2.33376,-1.39771 5.06591,-4.48831 7.6044,-5.29709c3.6326,-1.15738 8.35008,-0.42872 12.03691,-0.11612c6.45684,0.54745 14.27955,-1.36226 20.12989,2.40073c0.84828,0.54562 1.3666,1.49679 2.1623,2.11659c1.18655,0.92425 2.55584,1.59208 3.84696,2.36807c2.40497,-0.61458 4.76412,-1.24998 7.18604,-2.21875l3.53482,0.39584c0,0 2.42536,0.60634 1.81902,3.0317v-0.00001c-0.60634,2.42536 -3.0317,1.81902 -3.0317,1.81902l-0.46518,-0.60416c-0.44886,0.17954 -0.89596,0.34821 -1.34185,0.50784c1.00854,1.49249 1.68745,2.89191 2.192,4.4978c2.7121,1.52257 5.08144,3.49151 6.96098,6.56226c1.1347,2.81963 2.77704,5.48495 3.65675,8.39854c3.29344,10.90786 0.48523,27.96634 -10.84042,33.47842c-1.62593,0.79133 -3.65893,0.93177 -5.68354,0.98355c2.66009,6.53068 5.56484,13.24821 11.00353,17.85621l0.3563,-0.37359c0,0 1.76777,-1.76777 3.53553,0zM230.2716,75.75409c-0.17424,-1.41968 2.2477,-1.77057 3.40323,-2.61354c0.34866,-0.25435 1.2013,-0.25447 1.10478,-0.67512c-0.0996,-0.43409 -0.89545,-0.08833 -1.31454,-0.23904c-1.18227,-0.42515 -2.40053,-0.81496 -3.46635,-1.48019c-2.93077,-1.82924 -4.4998,-3.34093 -2.98477,-7.28235c0.22507,-0.58553 0.7075,-0.9909 1.24702,-1.35631c-0.43966,-0.53774 -0.91963,-1.04535 -1.46626,-1.49291c-0.56775,-0.46485 -1.40288,-0.44405 -2.06883,-0.75215c-0.57969,-0.26819 -1.13998,-0.53814 -1.68355,-0.78366c-0.00498,0.0121 -0.00778,0.01841 -0.00778,0.01841c-1.0405,2.33303 -2.35594,4.75774 -2.80869,7.33141c-0.78763,4.47725 2.68874,6.19966 6.1422,7.91718c1.21527,0.6044 2.34646,1.40098 3.62738,1.84978c0.11675,0.04091 0.23538,0.07877 0.35579,0.11372c-0.02941,-0.17765 -0.05599,-0.36265 -0.07963,-0.55523zM250.07121,75.1534c0.08144,0.20359 0.13787,0.39646 0.17307,0.57894c0.81891,0.10004 1.67267,-0.13853 2.50574,-0.15046c1.56023,-0.02235 3.27367,0.05815 4.98536,0.00448c-2.53152,-2.83583 -1.66649,-7.67382 -0.22497,-10.61538c0.24197,-0.49376 1.84467,-2.03013 1.36791,-3.09852c-0.67274,-1.50758 -2.65409,-2.15015 -3.35121,-3.64662c-0.74495,-1.59915 -1.06109,-4.55025 -0.46558,-6.66077c-4.949,3.67507 -7.29876,10.38309 -11.93212,14.27341c0.34244,1.21478 0.74742,2.41482 1.0469,3.64078c0.30461,1.24696 -0.09366,2.82879 1.17559,3.68325c0.36398,0.24503 0.72788,0.49975 1.09569,0.75037l0.37397,-0.15219c0,0 2.32119,-0.92848 3.24967,1.39272zM245.92366,79.48942c-4.13393,0.70721 -8.97424,2.13248 -13.17364,2.09247c-4.14323,-0.03948 -4.90446,-0.89903 -8.61803,-2.76393c-5.43595,-2.72985 -9.93435,-6.36618 -8.8578,-13.08282c0.43038,-2.68515 1.4374,-4.83585 2.52211,-7.19369c-0.69539,0.38223 -1.37436,1.0321 -2.04628,2.04045c0,0 -1.5,2 -3.5,0.5c-2,-1.5 -0.5,-3.5 -0.5,-3.5c0.66698,-0.83357 1.0986,-1.93019 2.00094,-2.5007c5.18234,-3.27656 8.05812,-2.0673 13.0232,0.2201c0.96448,0.44433 2.10913,0.5756 2.93117,1.24785c1.39764,1.14296 2.47055,2.64101 3.5728,4.07097c0.95641,1.24078 1.34765,3.68056 3.46923,3.01283c0.52252,-0.16445 1.01347,-0.37019 1.4773,-0.61114c0.27209,-0.36506 0.6962,-0.68219 1.35145,-0.84966c3.2719,-2.43384 5.12761,-6.68672 7.78528,-9.72826c1.71579,-1.96362 3.39781,-4.05245 5.57431,-5.48862c0.20636,-0.13617 3.35845,-1.19298 5.23803,-1.81799c-0.96282,-0.68479 -1.91541,-1.34852 -2.79993,-1.96828c-1.80756,-1.26651 -5.84827,-1.45509 -7.77912,-1.59193c-3.34529,-0.23709 -6.74694,0.26686 -10.091,-0.00733c-3.12375,-0.25613 -6.8812,-0.94199 -9.96309,-0.11613c-1.88736,0.50576 -4.58562,3.61499 -6.3956,4.70291c-3.08518,2.32023 -7.23272,4.33885 -9.26835,7.73971c-4.15582,6.943 -4.09422,16.5669 -2.197,24.09664c1.10279,4.37676 0.97418,6.0057 5.49885,7.76784l1.3621,0.44948c0,0 2.37171,0.79057 1.58114,3.16228c-0.79057,2.37171 -3.16228,1.58114 -3.16228,1.58114l-1.6379,-0.55052c-1.78092,-0.72718 -3.48973,-1.49598 -4.89827,-2.65129c-4.55843,1.03193 -6.11826,4.90465 -7.25004,9.44494c-1.88717,7.5706 -2.42321,15.60457 -2.42321,23.38516c0,4.63143 -0.1016,9.40496 2.79516,13.26006c2.35499,1.89489 3.56444,2.22098 6.46515,2.74654c-1.25979,-1.30969 -2.42668,-2.68092 -3.36615,-4.15922c-5.66865,-8.91989 -7.0786,-21.71543 0.8659,-29.64255c3.09219,-3.08542 6.91,-3.66938 10.76717,-5.15973c4.57561,-0.0174 8.57013,1.93318 13.22642,1.46706c7.12881,-0.71364 9.7555,-4.60503 14.47858,-9.27993c1.97937,-1.95918 4.31678,-3.07076 6.34019,-4.87352c-0.4413,-0.17282 -0.89704,-0.33436 -1.36299,-0.48701c0,0 -2.37171,-0.79057 -1.58114,-3.16228c0.19813,-0.5944 0.49558,-0.99017 0.83011,-1.24955c-0.68135,-0.19612 -1.34241,-0.42076 -1.97677,-0.6738zM267.06433,78.20851c-3.42366,2.20079 -8.51832,3.11454 -13.43071,2.77045c5.24329,2.60067 8.27873,6.85226 7.06783,13.59321l-0.0861,0.11646c0.86345,-0.19661 1.74352,-0.37791 2.64435,-0.5582l2.5,-0.5c0,0 2.35647,-0.47129 2.91075,1.82064c1.18102,-0.06986 2.26494,-0.23779 3.0236,-0.63524c8.97305,-4.70079 10.74764,-18.82532 8.15958,-27.52158c-0.78446,-2.63591 -2.32712,-5.0445 -3.34325,-7.60146c-0.25744,-0.44283 -0.53904,-0.85526 -0.84196,-1.24071c0.39528,7.27108 -2.91478,16.09923 -8.6041,19.75643zM264.47385,104.55098c-0.11043,0.25092 -0.29406,0.4186 -0.59673,0.45097c-1.79841,0.19232 -3.2376,-1.68923 -4.59762,-2.88154c-0.36766,-0.32233 -0.67564,-0.72295 -0.91631,-1.16164c-0.47793,1.44753 -1.90132,1.48846 -3.54372,1.10038c-0.10356,0.05957 -0.20713,0.12047 -0.31076,0.18275c-1.62672,0.97764 -3.22449,2.10877 -4.83653,3.25344c0.07782,0.33915 0.07782,0.58655 0.07782,0.58655l-0.17881,0.07152c2.9926,7.55156 8.40468,15.39489 14.54826,21.00364c4.18535,-1.40731 7.1855,-3.83842 10.88167,-5.95886c-4.88565,-4.53242 -7.9778,-10.48094 -10.52727,-16.64722zM255.48223,93.31411l0.31632,0.27748c0.59983,-2.58719 0.07412,-4.46478 -1.14127,-5.88146l-0.13951,0.13951c-2.17967,2.15377 -4.87453,3.3482 -7,5.5c-2.12834,2.1547 -3.78525,4.82037 -6.22924,6.70275c-3.1566,2.43123 -7.37281,3.62572 -11.29219,4.01732c-4.57704,0.4573 -8.43129,-1.4987 -12.77358,-1.53294c-2.90108,1.20831 -5.88782,1.48811 -8.23283,3.84027c-5.78614,5.80378 -4.70771,15.13437 -0.96935,21.94635c-0.51158,-2.91906 -0.78163,-5.88219 -0.22548,-8.71428c0.95032,-4.8393 4.60541,-6.19174 7.68713,-9.29499c1.36177,-1.37129 2.71719,-2.80997 4.37279,-3.80685c1.08221,-0.65163 2.00394,-1.87137 3.26618,-1.92206c2.05498,-0.08253 3.80151,1.69741 5.83499,2.0052c2.29763,0.0033 5.10833,1.03336 7.34774,0.5316c2.41278,-0.5406 4.64979,-1.68621 6.79413,-3.0556c0.68426,-3.45283 1.7436,-7.72606 5.69796,-8.44295c1.49783,-0.27155 2.98743,0.60064 4.45389,1.00893c0.19553,0.05444 0.39288,0.16667 0.58934,0.29505c0.41394,-0.1989 0.82927,-0.38342 1.24657,-0.5555c-1.06645,-1.59497 0.39639,-3.05782 0.39639,-3.05782z" fill="#000000" stroke="none" stroke-width="0.5" stroke-linecap="butt"/><path d="M250.06699,75.20323c-0.92848,-2.3212 -3.26474,-1.39642 -3.26474,-1.39642l-0.37514,0.15169c-0.36781,-0.25062 -0.73695,-0.50807 -1.10093,-0.7531c-1.26925,-0.85446 -0.88343,-2.44687 -1.18804,-3.69383c-0.29948,-1.22596 -0.71451,-2.44505 -1.05695,-3.65983c4.63336,-3.89032 7.04707,-10.65906 11.99607,-14.33412c-0.59551,2.11052 -0.26331,5.07049 0.48164,6.66964c0.69712,1.49647 2.69542,2.16649 3.36816,3.67407c0.47676,1.06839 -1.12568,2.62583 -1.36765,3.11959c-1.44152,2.94156 -2.3311,7.81322 0.20042,10.64905c-1.71169,0.05367 -3.44252,-0.02094 -5.00275,0.00141c-0.83307,0.01193 -1.69721,0.25089 -2.51612,0.15085c-0.0352,-0.18248 -0.09255,-0.37542 -0.17399,-0.57901z" data-paper-data="{&quot;noHover&quot;:false,&quot;origItem&quot;:[&quot;Path&quot;,{&quot;applyMatrix&quot;:true,&quot;segments&quot;:[[[500.14239,150.30677],[0,0],[0.16288,0.40718]],[[500.48853,151.46465],[-0.0704,-0.36496],[1.63782,0.20008]],[[505.50001,151.16373],[-1.66614,0.02386],[3.12046,-0.0447]],[[515.47073,151.17269],[-3.42338,0.10734],[-5.06304,-5.67166]],[[515.02079,129.94193],[-2.88304,5.88312],[0.48394,-0.98752]],[[517.75661,123.74489],[0.95352,2.13678],[-1.34548,-3.01516]],[[511.05419,116.45165],[1.39424,2.99294],[-1.4899,-3.1983]],[[510.12303,103.13011],[-1.19102,4.22104],[-9.898,7.35014]],[[486.25879,131.67693],[9.26672,-7.78064],[0.68488,2.42956]],[[488.35259,138.95849],[-0.59896,-2.45192],[0.60922,2.49392]],[[490.70377,146.32499],[-2.5385,-1.70892],[0.72796,0.49006]],[[492.89515,147.82573],[-0.73562,-0.50124],[0,0]],[493.64309,147.52135],[[500.14243,150.30679],[-1.85696,-4.6424],[0,0]]],&quot;closed&quot;:true,&quot;fillColor&quot;:[0,0,0,1]}]}" fill="#ffffff" stroke="none" stroke-width="0.5" stroke-linecap="butt"/><path d="M230.36718,76.3567c-0.12041,-0.03495 -0.24066,-0.07229 -0.3574,-0.1132c-1.28092,-0.4488 -2.43448,-1.24393 -3.64975,-1.84833c-3.45346,-1.71752 -6.97105,-3.49791 -6.18342,-7.97516c0.45275,-2.57367 1.79459,-5.03423 2.83509,-7.36726c0,0 0.00287,-0.00635 0.00785,-0.01844c0.54357,0.24552 1.11021,0.51276 1.6899,0.78095c0.66595,0.3081 1.5129,0.28474 2.08065,0.74959c0.54663,0.44756 1.03839,0.95547 1.47805,1.49321c-0.53952,0.36541 -1.024,0.87 -1.24907,1.45553c-1.51503,3.94142 0.01682,5.36499 2.94759,7.19423c1.06582,0.66523 2.27619,1.06333 3.45846,1.48848c0.41909,0.15071 1.29678,-0.13768 1.39638,0.29641c0.09652,0.42065 -0.76039,0.42642 -1.10905,0.68077c-1.15553,0.84297 -3.59858,1.20812 -3.42434,2.6278c0.02364,0.19258 0.04965,0.37777 0.07906,0.55542z" data-paper-data="{&quot;noHover&quot;:false,&quot;origItem&quot;:[&quot;Path&quot;,{&quot;applyMatrix&quot;:true,&quot;segments&quot;:[[[460.54317,151.50815],[0.04728,0.38516],[-0.34848,-2.83936]],[[467.34963,146.28107],[-2.31106,1.68594],[0.69732,-0.5087]],[[469.55919,144.93083],[0.19304,0.8413],[-0.1992,-0.86818]],[[466.93011,144.45275],[0.83818,0.30142],[-2.36454,-0.8503]],[[459.99741,141.49237],[2.13164,1.33046],[-5.86154,-3.65848]],[[454.02787,126.92767],[-3.03006,7.88284],[0.45014,-1.17106]],[[456.52191,124.21505],[-1.07904,0.73082],[-0.87932,-1.07548]],[[453.58939,121.22923],[1.09326,0.89512],[-1.1355,-0.9297]],[[449.45173,119.72493],[1.3319,0.6162],[-1.15938,-0.53638]],[[446.08463,118.15761],[1.08714,0.49104],[-0.00996,0.0242]],[[446.06907,118.19443],[0,0],[-2.081,4.66606]],[[440.45169,132.85725],[0.9055,-5.14734],[-1.57526,8.9545]],[[452.73609,148.69161],[-6.90692,-3.43504],[2.43054,1.2088]],[[459.99085,152.39117],[-2.56184,-0.8976],[0.2335,0.08182]],[[460.70243,152.61861],[-0.24082,-0.0699],[-0.05882,-0.3553]]],&quot;closed&quot;:true,&quot;fillColor&quot;:[0,0,0,1]}]}" fill="#ffffff" stroke="none" stroke-width="0.5" stroke-linecap="butt"/><path d="M264.48506,104.50224c2.54947,6.16628 5.674,12.18801 10.55965,16.72043c-3.69617,2.12044 -6.73298,4.57658 -10.91833,5.98389c-6.14358,-5.60875 -11.60506,-13.528 -14.59766,-21.07955l0.17909,-0.07196c0,0 0.00082,-0.24864 -0.077,-0.58779c1.61204,-1.14467 3.22369,-2.28949 4.85041,-3.26713c0.10363,-0.06228 0.20828,-0.12387 0.31184,-0.18344c1.6424,0.38808 3.07786,0.3417 3.55579,-1.10583c0.24067,0.43869 0.55078,0.83873 0.91844,1.16106c1.36002,1.19231 2.82007,3.0731 4.61848,2.88078c0.30267,-0.03237 0.48886,-0.19953 0.59929,-0.45045z" data-paper-data="{&quot;noHover&quot;:false,&quot;origItem&quot;:[&quot;Path&quot;,{&quot;applyMatrix&quot;:true,&quot;segments&quot;:[[[528.94767,209.10193],[0,0],[-0.22086,0.50184]],[[527.75421,210.00387],[0.60534,-0.06474],[-3.59682,0.38464]],[[518.55897,204.24079],[2.72004,2.38462],[-0.73532,-0.64466]],[[516.72635,201.91751],[0.48134,0.87738],[-0.95586,2.89506]],[[509.63891,204.11827],[3.2848,0.77616],[-0.20712,0.11914]],[[509.01739,204.48377],[0.20726,-0.12456],[-3.25344,1.95528]],[[499.34433,210.99065],[3.22408,-2.28934],[0.15564,0.6783]],[499.49997,212.16375],[[499.14235,212.30679],[0,0],[5.9852,15.10312]],[[528.23887,254.31407],[-12.28716,-11.2175],[8.3707,-2.81462]],[[550.00221,242.39635],[-7.39234,4.24088],[-9.7713,-9.06484]],[[528.94767,209.10191],[5.09894,12.33256],[0,0]]],&quot;closed&quot;:true,&quot;fillColor&quot;:[0,0,0,1]}]}" fill="#864100" stroke="none" stroke-width="0.5" stroke-linecap="butt"/><path d="M255.5253,93.28877c0,0 -1.46074,1.46681 -0.39429,3.06178c-0.4173,0.17208 -0.92299,0.39945 -1.33693,0.59835c-0.19646,-0.12838 -0.39336,-0.23969 -0.58889,-0.29413c-1.46646,-0.40829 -2.95275,-1.27482 -4.45058,-1.00327c-3.95436,0.71689 -4.92458,4.94714 -5.60884,8.39997c-2.14434,1.36939 -4.37964,2.52234 -6.79242,3.06294c-2.23941,0.50176 -5.06291,-0.48665 -7.36054,-0.48995c-2.03348,-0.30779 -3.7713,-2.10067 -5.82628,-2.01814c-1.26224,0.05069 -2.17979,1.25635 -3.262,1.90798c-1.6556,0.99688 -3.0111,2.42097 -4.37287,3.79226c-3.08172,3.10325 -6.74171,4.44051 -7.69203,9.27981c-0.55615,2.83209 -0.36772,5.85149 0.14386,8.77055c-3.73836,-6.81198 -4.82955,-16.1799 0.95659,-21.98368c2.34501,-2.35216 5.33539,-2.64725 8.23647,-3.85556c4.34229,0.03424 8.23654,1.95971 12.81358,1.50241c3.91938,-0.3916 8.18204,-1.56616 11.33864,-3.99739c2.44399,-1.88238 4.02278,-4.48574 6.15112,-6.64044c2.12547,-2.1518 4.89651,-3.41101 7.07618,-5.56478l0.13949,-0.13953c1.21539,1.41668 1.74626,3.30168 1.14643,5.88887l-0.40285,-0.22737z" data-paper-data="{&quot;noHover&quot;:false,&quot;origItem&quot;:[&quot;Path&quot;,{&quot;applyMatrix&quot;:true,&quot;segments&quot;:[[255.48224,93.31409],[[255.79855,93.59157],[0,0],[0.59983,-2.58719]],[[254.65729,87.71011],[1.21539,1.41668],[0,0]],[[254.51777,87.84962],[0,0],[-2.17967,2.15377]],[[247.51777,93.34962],[2.12547,-2.1518],[-2.12834,2.1547]],[[241.28854,100.05237],[2.44399,-1.88238],[-3.1566,2.43123]],[[229.99635,104.06969],[3.91938,-0.3916],[-4.57704,0.4573]],[[217.22276,102.53675],[4.34229,0.03424],[-2.90108,1.20831]],[[208.98993,106.37702],[2.34501,-2.35216],[-5.78614,5.80378]],[[208.02059,128.32337],[-3.73836,-6.81198],[-0.51158,-2.91906]],[[207.7951,119.60909],[-0.55615,2.83209],[0.95032,-4.8393]],[[215.48223,110.3141],[-3.08172,3.10325],[1.36177,-1.37129]],[[219.85503,106.50725],[-1.6556,0.99688],[1.08221,-0.65163]],[[223.1212,104.58519],[-1.26224,0.05069],[2.05498,-0.08253]],[[228.95619,106.59039],[-2.03348,-0.30779],[2.29763,0.0033]],[[236.30393,107.12199],[-2.23941,0.50176],[2.41278,-0.5406]],[[243.09806,104.06639],[-2.14434,1.36939],[0.68426,-3.45283]],[[248.79602,95.62344],[-3.95436,0.71689],[1.49783,-0.27155]],[[253.24991,96.63238],[-1.46646,-0.40829],[0.19553,0.05444]],[[253.83925,96.92743],[-0.19646,-0.12838],[0.41394,-0.1989]],[[255.08582,96.37193],[-0.4173,0.17208],[-1.06645,-1.59497]],[255.48221,93.3141]],&quot;closed&quot;:true,&quot;fillColor&quot;:[0,0,0,1]}]}" fill="#cd894a" stroke="none" stroke-width="0.5" stroke-linecap="butt"/><path d="M267.07304,78.15927c5.68932,-3.6572 8.97003,-12.39057 8.57475,-19.66165c0.30292,0.38545 0.62872,0.70824 0.88616,1.15107c1.01613,2.55696 2.57487,4.97918 3.35933,7.61509c2.58806,8.69626 0.7858,22.8998 -8.18725,27.60059c-0.75866,0.39745 -1.85083,0.5667 -3.03185,0.63656c-0.55428,-2.29193 -2.91904,-1.82071 -2.91904,-1.82071l-2.50685,0.49889c-0.90083,0.18029 -1.78709,0.35971 -2.65054,0.55632l0.0862,-0.11642c1.2109,-6.74095 -1.85499,-11.02523 -7.09828,-13.6259c4.91239,0.34409 10.06372,-0.63304 13.48738,-2.83383z" data-paper-data="{&quot;noHover&quot;:false,&quot;origItem&quot;:[&quot;Path&quot;,{&quot;applyMatrix&quot;:true,&quot;segments&quot;:[[[267.06433,78.20849],[0,0],[-3.42366,2.20079]],[[253.63363,80.97893],[4.91239,0.34409],[5.24329,2.60067]],[[260.70145,94.57214],[1.2109,-6.74095],[0,0]],[[260.61535,94.68861],[0,0],[0.86345,-0.19661]],[[263.2597,94.13041],[-0.90083,0.18029],[0,0]],[265.7597,93.63041],[[268.67045,95.45105],[-0.55428,-2.29193],[1.18102,-0.06986]],[[271.69405,94.8158],[-0.75866,0.39745],[8.97305,-4.70079]],[[279.85363,67.29422],[2.58806,8.69626],[-0.78446,-2.63591]],[[276.51038,59.69276],[1.01613,2.55696],[-0.25744,-0.44283]],[[275.66842,58.45205],[0.30292,0.38545],[0.39528,7.27108]],[[267.06432,78.20849],[5.68932,-3.6572],[0,0]]],&quot;closed&quot;:true,&quot;fillColor&quot;:[0,0,0,1]}]}" fill="#cd894a" stroke="none" stroke-width="0.5" stroke-linecap="butt"/><path d="M246.27579,79.34448c0.63436,0.25304 1.29697,0.48085 1.97832,0.67697c-0.33453,0.25938 -0.63121,0.65697 -0.82934,1.25137c-0.79057,2.37171 1.58359,3.17035 1.58359,3.17035c0.46595,0.15265 0.92202,0.31587 1.36332,0.48869c-2.02341,1.80276 -4.36015,2.92627 -6.33952,4.88545c-4.72308,4.6749 -7.39462,8.61285 -14.52343,9.32649c-4.65629,0.46612 -8.69639,-1.50492 -13.272,-1.48752c-3.85717,1.49035 -7.59174,2.01904 -10.68393,5.10446c-7.9445,7.92712 -6.5533,20.70477 -0.88465,29.62466c0.93947,1.4783 2.06271,2.93937 3.3225,4.24906c-2.90071,-0.52556 -4.11614,-0.8547 -6.47113,-2.74959c-2.89676,-3.8551 -2.80366,-8.63503 -2.80366,-13.26646c0,-7.78059 0.5224,-15.83641 2.40957,-23.40701c1.13178,-4.54029 2.68948,-8.43035 7.24791,-9.46228c1.40854,1.15531 3.21701,1.92159 4.99793,2.64877l1.63756,0.54792c0,0 2.27239,0.80101 3.06296,-1.5707c0.79057,-2.37171 -1.58005,-3.17564 -1.58005,-3.17564l-1.36198,-0.45001c-4.52467,-1.76214 -4.39065,-3.40482 -5.49344,-7.78158c-1.89722,-7.52974 -1.93695,-17.17383 2.21887,-24.11683c2.03563,-3.40086 6.19617,-5.42359 9.28135,-7.74382c1.80998,-1.08792 4.51572,-4.19786 6.40308,-4.70362c3.08189,-0.82586 6.84971,-0.13912 9.97346,0.11701c3.34406,0.27419 6.75508,-0.227 10.10037,0.01009c1.93085,0.13684 5.97818,0.32869 7.78574,1.5952c0.88452,0.61976 1.7836,1.36791 2.74642,2.0527c-1.87958,0.62501 -5.02878,1.68364 -5.23514,1.81981c-2.1765,1.43617 -3.85634,3.5262 -5.57213,5.48982c-2.65767,3.04154 -4.50957,7.2962 -7.78147,9.73004c-0.65525,0.16747 -1.07781,0.48522 -1.3499,0.85028c-0.46383,0.24095 -0.95271,0.44742 -1.47523,0.61187c-2.12158,0.66773 -2.50561,-1.77026 -3.46202,-3.01104c-1.10225,-1.42996 -2.16867,-2.92733 -3.56631,-4.07029c-0.82204,-0.67225 -1.96225,-0.80355 -2.92673,-1.24788c-4.96508,-2.2874 -7.82339,-3.50076 -13.00573,-0.2242c-0.90234,0.57051 -1.33036,1.66539 -1.99734,2.49896c0,0 -1.54881,1.91274 0.45119,3.41274c2,1.5 3.50471,-0.50243 3.50471,-0.50243c0.67192,-1.00835 1.38802,-1.56547 2.08341,-1.9477c-1.08471,2.35784 -2.08354,4.5048 -2.51392,7.18995c-1.07655,6.71664 3.37719,10.26367 8.81314,12.99352c3.71357,1.8649 4.52013,2.72732 8.66336,2.7668c4.1994,0.04001 9.05833,-1.36581 13.19226,-2.07302z" data-paper-data="{&quot;noHover&quot;:false,&quot;origItem&quot;:[&quot;Path&quot;,{&quot;applyMatrix&quot;:true,&quot;segments&quot;:[[[245.92365,79.4894],[0,0],[-4.13393,0.70721]],[[232.75001,81.58186],[4.1994,0.04001],[-4.14323,-0.03948]],[[224.13198,78.81794],[3.71357,1.8649],[-5.43595,-2.72985]],[[215.27418,65.73512],[-1.07655,6.71664],[0.43038,-2.68515]],[[217.79629,58.54143],[-1.08471,2.35784],[-0.69539,0.38223]],[[215.75001,60.58188],[0.67192,-1.00835],[0,0]],[[212.25001,61.08188],[2,1.5],[-2,-1.5]],[[211.75001,57.58188],[0,0],[0.66698,-0.83357]],[[213.75095,55.08118],[-0.90234,0.57051],[5.18234,-3.27656]],[[226.77415,55.30128],[-4.96508,-2.2874],[0.96448,0.44433]],[[229.70532,56.54913],[-0.82204,-0.67225],[1.39764,1.14296]],[[233.27812,60.62009],[-1.10225,-1.42996],[0.95641,1.24078]],[[236.74735,63.63293],[-2.12158,0.66773],[0.52252,-0.16445]],[[238.22465,63.02178],[-0.46383,0.24095],[0.27209,-0.36506]],[[239.5761,62.17212],[-0.65525,0.16747],[3.2719,-2.43384]],[[247.36138,52.44387],[-2.65767,3.04154],[1.71579,-1.96362]],[[252.93569,46.95525],[-2.1765,1.43617],[0.20636,-0.13617]],[[258.17372,45.13726],[-1.87958,0.62501],[-0.96282,-0.68479]],[[255.37379,43.16898],[0.88452,0.61976],[-1.80756,-1.26651]],[[247.59467,41.57705],[1.93085,0.13684],[-3.34529,-0.23709]],[[237.50367,41.56972],[3.34406,0.27419],[-3.12375,-0.25613]],[[227.54058,41.45359],[3.08189,-0.82586],[-1.88736,0.50576]],[[221.14498,46.1565],[1.80998,-1.08792],[-3.08518,2.32023]],[[211.87663,53.89621],[2.03563,-3.40086],[-4.15582,6.943]],[[209.67963,77.99285],[-1.89722,-7.52974],[1.10279,4.37676]],[[215.17848,85.76069],[-4.52467,-1.76214],[0,0]],[216.54058,86.21016],[[218.12172,89.37245],[0.79057,-2.37171],[-0.79057,2.37171]],[214.95944,90.95359],[[213.32154,90.40307],[0,0],[-1.78092,-0.72718]],[[208.42327,87.75177],[1.40854,1.15531],[-4.55843,1.03193]],[[201.17323,97.19671],[1.13178,-4.54029],[-1.88717,7.5706]],[[198.75002,120.58188],[0,-7.78059],[0,4.63143]],[[201.54518,133.84193],[-2.89676,-3.8551],[2.35499,1.89489]],[[208.01033,136.58847],[-2.90071,-0.52556],[-1.25979,-1.30969]],[[204.64418,132.42925],[0.93947,1.4783],[-5.66865,-8.91989]],[[205.51008,102.7867],[-7.9445,7.92712],[3.09219,-3.08542]],[[216.27725,97.62697],[-3.85717,1.49035],[4.57561,-0.0174]],[[229.50367,99.09404],[-4.65629,0.46612],[7.12881,-0.71364]],[[243.98224,89.8141],[-4.72308,4.6749],[1.97937,-1.95918]],[[250.32244,84.94059],[-2.02341,1.80276],[-0.4413,-0.17282]],[[248.95945,84.45358],[0.46595,0.15265],[0,0]],[[247.37831,81.29129],[-0.79057,2.37171],[0.19813,-0.5944]],[[248.20842,80.04174],[-0.33453,0.25938],[-0.68135,-0.19612]],[[246.23165,79.36794],[0.63436,0.25304],[0,0]]],&quot;closed&quot;:true,&quot;fillColor&quot;:[0,0,0,1]}]}" fill="#cd894a" stroke="none" stroke-width="0.5" stroke-linecap="butt"/></g></g></svg>