<svg version="1.1" xmlns="http://www.w3.org/2000/svg" xmlns:xlink="http://www.w3.org/1999/xlink" width="512.51052" height="405.90391" viewBox="0,0,512.51052,405.90391"><g transform="translate(14.00299,30.91815)"><g data-paper-data="{&quot;isPaintingLayer&quot;:true}" fill-rule="nonzero" stroke-linejoin="miter" stroke-miterlimit="10" stroke-dasharray="" stroke-dashoffset="0" style="mix-blend-mode: normal"><path d="M-13.00299,373.98576v-403.9039h510.51052v403.90391z" fill="#000000" stroke="#000000" stroke-width="2" stroke-linecap="butt"/><path d="M298.91594,80.57959c0,39.7645 -31.34007,72 -70,72c-38.65993,0 -70,-32.2355 -70,-72c0,-39.7645 31.34007,-72 70,-72c38.65993,0 70,32.2355 70,72z" fill="#c7c7c7" stroke="#000000" stroke-width="2" stroke-linecap="butt"/><path d="M163.31594,101.01236l-1.41091,-1.8896c-3.88863,-4.10338 -4.69963,-12.60931 -2.6084,-17.94038c0.11295,-0.63499 0.41564,-1.06172 0.77146,-1.34849c0.29967,-0.29562 0.75206,-0.58711 1.35717,-0.55893c0.19692,-0.02867 0.32405,-0.02867 0.32405,-0.02867c1.75887,0 3.61862,0.69741 5.27554,0.10727c1.00925,-0.35946 1.66861,-1.37238 2.62608,-1.85305c1.81188,-0.90962 4.04222,-0.84337 5.78405,-1.88084c1.62002,-0.96492 2.39448,-3.01113 4,-4c0.89751,-0.5528 2.08854,-0.47052 3,-1c0.92816,-0.53918 1.62288,-1.37575 2.31206,-2.22113c-1.70872,-2.12242 -3.33724,-4.28356 -4.14409,-6.95092c-2.2027,-7.28191 1.44805,-18.02406 7.35783,-22.68288c4.11862,-3.24681 9.03718,-5.17518 13.55365,-7.75751c-0.45528,-2.26264 -0.77735,-4.48901 0.20261,-6.7924c0.85518,-2.01009 2.52508,-3.05669 3.89363,-4.61758c2.98811,-3.40807 5.16173,-5.6777 9.88863,-5.86199l1.40208,0.76184c0.34037,-0.15985 0.60763,-0.2133 0.60763,-0.2133l2.5,-0.5c0.75931,-0.1483 1.51861,-0.2966 2.27792,-0.44491c4.76264,-1.90505 9.81637,-1.88631 14.43718,0.71695c0.53816,0.30318 0.79819,1.0108 1.36745,1.25058c1.35804,0.57204 1.86545,-1.72435 2.38702,-2.05546c1.20922,-0.76765 2.5899,-1.58104 4.02072,-1.5157c1.60279,0.0732 3.36112,0.69757 4.42199,1.90126c0.98233,1.11458 1.08743,2.84176 1.06754,4.32731c-0.01521,1.1354 -0.7646,2.1386 -1.16834,3.19991c-1.02463,2.69345 -2.27225,4.83898 -3.64178,7.29633c-0.53311,0.95657 -0.77253,1.79663 -1.05164,2.544c5.67575,2.83896 10.60577,5.85526 13.6083,11.61315c1.82123,3.64816 3.37459,7.25278 3.75177,11.37169c0.24547,2.68056 0.01217,5.54905 0.01217,8.24634c0,1.29698 -0.71377,2.6655 -0.26394,3.88197c0.43547,1.17762 2.36338,0.84928 3.55451,1.24632c2.021,0.67366 3.99757,1.60373 5.70943,2.87171c6.18255,4.57943 11.07822,9.45618 15.07462,16.10502c2.25986,3.056 2.98693,6.44131 4.66499,9.78406c1.52298,3.03383 2.87285,6.08672 4.16577,9.20168c0.86673,0.22519 1.30009,1.09192 1.30009,1.09192l0.65143,1.40936c1.08787,4.47488 0.36903,7.33857 -1.65143,11.3795c0,0 -0.41089,0.82178 -1.23267,1.07287c-0.06234,0.07437 -0.13056,0.14886 -0.20505,0.22336c-1.76776,1.76776 -3.53554,0 -3.53554,0c-2.90256,-2.91083 -6.34701,-4.70683 -9.39953,-7.40494c-7.07659,-6.25498 -15.04559,-10.92176 -23.4436,-15.1232c-3.58197,-1.79202 -6.64145,-4.22829 -10.43374,-5.46834c-1.45224,-0.88698 -3.03357,-1.56801 -4.67146,-2.10748c-2.71404,2.09014 -4.56835,4.76194 -7.28389,6.8362c-2.00687,1.48135 -4.70956,3.3011 -6.97957,4.28226c-4.82987,2.08761 -10.56056,1.65889 -15.51072,0.66918c-9.40378,-1.88014 -18.00436,-6.16013 -22.07989,-14.75295c-1.85336,1.42084 -3.75724,2.77581 -5.59485,4.2459c-5.47098,4.37678 -11.1122,8.16385 -17.7944,10.43836c0,0 -1.53274,0.51091 -2.5446,-0.52088c-0.42722,-0.24859 -0.67935,-0.58476 -0.67935,-0.58476zM164.92683,96.50196l0.53164,0.70604c5.89027,-2.01474 10.87962,-5.53407 15.70586,-9.39506c1.25118,-1.00095 2.5461,-1.94337 3.83413,-2.89286c-3.14511,-2.69008 -1.20096,-3.9349 0.93516,-6.59913c-1.40713,-0.48717 -2.87101,-1.11603 -3.34146,-2.4107c-0.02964,-0.08159 -0.05311,-0.16498 -0.0707,-0.25004c-0.15822,0.05859 -0.31162,0.12778 -0.45783,0.21271c-1.63047,0.94716 -2.3852,3.02636 -4,4c-2.37142,1.42985 -3.88541,0.95852 -6.21594,2.11916c-1.19324,0.59426 -2.10342,1.74347 -3.37392,2.14694c-0.35796,0.11368 -4.26481,0.11228 -5.99749,0.10875c-0.90316,3.95205 -0.06502,9.92773 2.45055,12.25419zM224.49926,94.73522l-1.42847,-0.17881c-5.87765,-2.35386 -14.40929,-4.41122 -13.02641,-12.79396c0.17175,-1.04115 0.7558,-1.97047 1.1337,-2.95571c0,0 0.92848,-2.32119 3.24967,-1.39271c2.32119,0.92848 1.39271,3.24967 1.39271,3.24967c-0.3334,0.78675 -1.27653,2.3312 -0.9119,3.40419c0.25573,0.75256 0.65732,1.38267 1.16272,1.91876c-0.22113,-0.86008 0.1068,-1.6799 0.1068,-1.6799l1.14178,-2.79633c5.661,-7.43015 15.87573,-10.04956 24.88561,-9.26667c4.8951,0.42535 9.6716,2.60925 14.50616,3.59513c10.46503,4.14256 20.28481,10.78465 27.71378,19.36803c-0.81006,-2.11146 -1.56475,-4.19335 -3.00076,-6.0767c-3.64515,-6.08634 -9.04707,-12.93713 -15.58564,-16.18053c-2.97078,-1.47362 -7.22946,-1.1608 -9.07581,-4.59641c-0.57243,-1.06515 -0.21181,-2.40994 -0.26393,-3.61803c-0.10725,-2.48613 -0.00576,-5.01132 0,-7.5c0.01076,-4.64746 -1.16697,-8.25062 -3.23607,-12.38196c-2.22928,-4.74028 -6.84342,-7.11271 -11.37484,-9.37842c-0.92235,-0.46117 -1.8609,-0.89943 -2.81357,-1.31218c-0.68665,-0.1418 -1.38623,-0.39525 -2.06581,-0.47598c0,0 -0.96835,-0.19367 -1.56611,-0.94617c-5.96667,-2.09009 -12.35505,-3.12317 -18.69725,-2.51745c-3.44936,0.32944 -6.66061,2.19953 -9.84052,3.73072c-0.17245,0.70756 -0.66583,1.52593 -1.99483,1.74743c-0.55604,0.09267 -1.00759,0.03907 -1.37351,-0.09955c-7.1812,4.08843 -14.73129,6.48009 -17.12123,15.27523c-0.88271,3.24843 -2.02489,5.75411 -1.01989,9.14596c0.70976,2.39541 2.44554,4.38956 4.08854,6.33898c0.24642,0.06897 0.5252,0.17911 0.78722,0.35497c0.65654,-0.09656 1.45982,0.05638 2.18006,0.95668c1.56174,1.95217 -0.39044,3.51391 -0.39044,3.51391c-0.8962,0.70687 -1.57623,1.66685 -2.36001,2.50005c0.51519,0.02289 1.03251,0.06511 1.54462,0.05995l0.22366,0.1378l0.02029,-0.10142l2.45459,0.49092c1.16847,0.20986 2.05512,1.23166 2.05512,2.46054c0,1.18976 -0.83109,2.18539 -1.94439,2.43804l-0.29277,0.07319c0.1926,0.00422 2.48716,0.10474 2.48716,2.49981c0,0.50012 -0.10005,0.9002 -0.26012,1.22024c0.00666,0.0862 0.01012,0.17572 0.01012,0.26872c0,1.40718 -0.79206,2.02229 -1.48452,2.29118c3.37261,7.00798 10.85514,10.23292 18.47482,11.75736c3.87205,0.77467 8.70685,1.41567 12.48928,-0.33081c1.96868,-0.90901 4.27097,-2.37828 6.02042,-3.71773c1.70014,-1.24428 3.07475,-2.79263 4.52916,-4.29234l-1.1355,-0.28231c0,0 -2.42535,-0.60634 -1.81902,-3.03169c0.60634,-2.42535 3.0317,-1.81902 3.0317,-1.81902l1.88395,0.4739c3.67056,0.74851 7.33923,1.78196 10.55435,3.68017c6.61988,2.24549 12.3185,6.92166 18.56627,10.03167c6.11388,3.04336 11.44875,6.8083 16.5564,11.3768c2.63646,2.35816 5.59991,4.0622 8.26244,6.35768c0.02389,-0.05458 0.04738,-0.10887 0.07047,-0.1629c-0.76091,-0.37428 -1.17082,-1.09162 -1.17082,-1.09162c-2.57265,-4.5025 -5.11728,-9.60798 -8.29991,-13.70181c-6.97492,-8.9719 -16.78166,-15.90645 -27.24185,-20.14217c-9.79512,-1.91311 -18.59008,-5.89473 -28.08461,-0.70484c-2.08921,1.142 -4.12376,2.1081 -5.52361,4.03329l-0.85822,2.20367c0,0 -0.61877,1.54693 -2.10888,1.60996c2.03484,0.93217 4.43052,1.42692 6.21617,2.14037l-0.42848,-0.1788c0,0 2.48846,0.01725 2.49996,2.49996c0,2.5 -2.5,2.5 -2.5,2.5zM226.99931,92.23526l-0.00004,-0.01729c0.00003,0.00575 0.00004,0.01152 0.00004,0.01729zM240.81986,26.01041c1.27645,-2.30542 2.30372,-4.22807 3.35822,-6.70367c0.34371,-0.80691 1.38321,-1.74135 0.89921,-2.47278c-0.29511,-0.44597 -1.17458,0.01205 -1.5573,0.38555c-0.6575,0.64166 -0.88279,1.77824 -1.72206,2.15194c-1.50877,0.6718 -3.25253,1.00097 -4.89091,0.7926c-1.04519,-0.13293 -1.70864,-1.24299 -2.63256,-1.74942c-3.59999,-1.9733 -6.95129,-1.72767 -10.56282,-0.28306c-0.90736,0.18503 -1.81471,0.37007 -2.72207,0.5551l-2.5,0.5c0,0 -0.73641,0.14728 -1.48273,-0.12322c-1.04298,0.51674 -1.99331,0.02776 -2.46426,-0.30672c-2.2849,0.29106 -3.56614,2.2971 -5.15466,4.11649c-1.21047,1.38639 -3.49672,2.70427 -3.38864,4.862c0.01811,0.36148 0.05859,0.72019 0.11389,1.0771c3.26379,-1.56593 6.53759,-3.19222 10.13977,-3.56494c7.90219,-0.81765 15.97902,0.75233 23.30668,3.69852c0.57335,-0.40134 0.54336,-1.64071 1.26025,-2.9355zM190.6445,80.02585c-0.29948,0.29291 -0.56135,0.66071 -0.83651,0.99403c0.05331,-0.0254 0.10873,-0.04975 0.16631,-0.07297c0.34238,-0.31435 0.67852,-0.63662 1.00719,-0.96841l2.53458,-0.67055z" fill="#000000" stroke="none" stroke-width="0.5" stroke-linecap="butt"/><path d="M162.42717,84.23848c1.73268,0.00353 5.64245,-0.00486 6.00041,-0.11854c1.2705,-0.40347 2.20486,-1.57846 3.3981,-2.17272c2.33053,-1.16064 3.89275,-0.68702 6.26417,-2.11687c1.6148,-0.97364 2.37361,-3.05004 4.00408,-3.9972c0.14621,-0.08493 0.30029,-0.1536 0.45851,-0.21219c0.01759,0.08506 0.04166,0.16893 0.0713,0.25052c0.47045,1.29467 1.94409,1.93416 3.35122,2.42133c-2.13612,2.66423 -4.07206,3.93037 -0.92695,6.62045c-1.28803,0.94949 -2.58339,1.90823 -3.83457,2.90918c-4.82624,3.86099 -9.89581,7.40996 -15.78608,9.4247l-0.53404,-0.70808c-2.51557,-2.32646 -3.36931,-8.34853 -2.46615,-12.30058z" data-paper-data="{&quot;noHover&quot;:false,&quot;origItem&quot;:[&quot;Path&quot;,{&quot;applyMatrix&quot;:true,&quot;segments&quot;:[[[329.85364,193.00389],[-5.03114,-4.65292],[0,0]],[[330.91692,194.41597],[0,0],[11.78054,-4.02948]],[[362.32864,175.62585],[-9.65248,7.72198],[2.50236,-2.0019]],[[369.9969,169.84013],[-2.57606,1.89898],[-6.29022,-5.38016]],[[371.86722,156.64187],[-4.27224,5.32846],[-2.81426,-0.97434]],[[365.1843,151.82047],[0.9409,2.58934],[-0.05928,-0.16318]],[[365.0429,151.32039],[0.03518,0.17012],[-0.31644,0.11718]],[[364.12724,151.74581],[0.29242,-0.16986],[-3.26094,1.89432]],[[356.12724,159.74581],[3.2296,-1.94728],[-4.74284,2.8597]],[[343.69536,163.98413],[4.66106,-2.32128],[-2.38648,1.18852]],[[336.94752,168.27801],[2.541,-0.80694],[-0.71592,0.22736]],[[324.95254,168.49551],[3.46536,0.00706],[-1.80632,7.9041]]],&quot;closed&quot;:true,&quot;fillColor&quot;:[0,0,0,1]}]}" fill="#864100" stroke="none" stroke-width="0.5" stroke-linecap="butt"/><path d="M240.86879,26.02072c-0.71689,1.29479 -0.69006,2.54399 -1.26341,2.94533c-7.32766,-2.94619 -15.49862,-4.52365 -23.40081,-3.706c-3.60218,0.37272 -6.77984,1.97159 -10.04363,3.53752c-0.0553,-0.35691 -0.19204,-0.68866 -0.21015,-1.05014c-0.10808,-2.15773 2.17666,-3.48759 3.38713,-4.87398c1.58852,-1.81939 2.8728,-3.84283 5.1577,-4.13389c0.47095,0.33448 1.42239,0.82069 2.46537,0.30395c0.74632,0.2705 1.48401,0.12051 1.48401,0.12051l2.50726,-0.51064c0.90736,-0.18503 1.83327,-0.38314 2.74063,-0.56817c3.61153,-1.44461 7.02621,-1.66644 10.6262,0.30686c0.92392,0.50643 1.59144,1.6277 2.63663,1.76063c1.63838,0.20837 3.28453,-0.09911 4.7933,-0.77091c0.83927,-0.3737 1.06574,-1.50577 1.72324,-2.14743c0.38272,-0.3735 1.35774,-0.86102 1.65285,-0.41505c0.484,0.73143 -0.55417,1.67127 -0.89788,2.47818c-1.0545,2.4756 -2.08199,4.41781 -3.35844,6.72323z" data-paper-data="{&quot;noHover&quot;:false,&quot;origItem&quot;:[&quot;Path&quot;,{&quot;applyMatrix&quot;:true,&quot;segments&quot;:[[[481.63968,52.02077],[0,0],[2.5529,-4.61084]],[[488.35612,38.61343],[-2.109,4.9512],[0.68742,-1.61382]],[[490.15454,33.66787],[0.968,1.46286],[-0.59022,-0.89194]],[[487.03994,34.43897],[0.76544,-0.747],[-1.315,1.28332]],[[483.59582,38.74285],[1.67854,-0.7474],[-3.01754,1.3436]],[[473.814,40.32805],[3.27676,0.41674],[-2.09038,-0.26586]],[[468.54888,36.82921],[1.84784,1.01286],[-7.19998,-3.9466]],[[447.42324,36.26309],[7.22306,-2.88922],[-1.81472,0.37006]],[[441.9791,37.37329],[1.81472,-0.37006],[0,0]],[436.9791,38.37329],[[434.01364,38.12685],[1.49264,0.541],[-2.08596,1.03348]],[[429.08512,37.51341],[0.9419,0.66896],[-4.5698,0.58212]],[[418.7758,45.74639],[3.17704,-3.63878],[-2.42094,2.77278]],[[411.99852,55.47039],[-0.21616,-4.31546],[0.03622,0.72296]],[[412.2263,57.62459],[-0.1106,-0.71382],[6.52758,-3.13186]],[[432.50584,50.49471],[-7.20436,0.74544],[15.80438,-1.6353]],[[479.1192,57.89175],[-14.65532,-5.89238],[1.1467,-0.80268]],[[481.6397,52.02075],[-1.43378,2.58958],[0,0]]],&quot;closed&quot;:true}]}" fill="#ff0000" stroke="none" stroke-width="0.5" stroke-linecap="butt"/><path d="M226.97372,92.27819c-0.0115,-2.48271 -2.50637,-2.50449 -2.50637,-2.50449l0.42927,0.17944c-1.78565,-0.71345 -4.19012,-1.21724 -6.22496,-2.14941c1.49011,-0.06303 2.10885,-1.60999 2.10885,-1.60999l0.85644,-2.2062c1.39985,-1.92519 3.51861,-2.9452 5.60782,-4.0872c9.49453,-5.18989 18.20164,-1.20278 27.99676,0.71033c10.46019,4.23572 20.35458,11.21796 27.3295,20.18986c3.18263,4.09383 5.72416,9.20367 8.29681,13.70617c0,0 0.40985,0.71741 1.17076,1.09169c-0.02309,0.05403 -0.04666,0.10842 -0.07055,0.163c-2.66253,-2.29548 -5.62609,-3.99937 -8.26255,-6.35754c-5.10765,-4.5685 -10.44383,-8.33188 -16.55771,-11.37524c-6.24777,-3.11001 -11.95625,-7.77755 -18.57613,-10.02304c-3.21512,-1.89821 -6.91376,-2.92332 -10.58432,-3.67183l-1.89242,-0.47501c0,0 -2.39504,-0.70117 -3.00138,1.72418c-0.60633,2.42535 1.81057,3.02895 1.81057,3.02895l1.11673,0.38047c-1.45441,1.49971 -2.83768,3.04592 -4.53782,4.2902c-1.74945,1.33945 -4.05927,2.80542 -6.02795,3.71443c-3.78243,1.74648 -8.62957,1.09606 -12.50162,0.32139c-7.61968,-1.52444 -15.11413,-4.77013 -18.48674,-11.77811c0.69246,-0.26889 1.48399,-0.88598 1.48399,-2.29316c0,-0.093 -0.00353,-0.18281 -0.01019,-0.26901c0.16007,-0.32004 0.25984,-0.72139 0.25984,-1.22151c0,-2.39507 -2.29513,-2.49881 -2.48773,-2.50303l0.29277,-0.07322c1.1133,-0.25265 1.9441,-1.25077 1.9441,-2.44053c0,-1.22888 -0.88683,-2.25363 -2.0553,-2.46349l-2.45461,-0.49152l-0.02029,0.10153l-0.22366,-0.13795c-0.51211,0.00516 -1.02943,-0.03715 -1.54462,-0.06004c0.78378,-0.8332 1.46384,-1.79583 2.36004,-2.5027c0,0 1.95246,-1.56554 0.39072,-3.51771c-0.72024,-0.9003 -1.52343,-1.05396 -2.17997,-0.9574c-0.26202,-0.17586 -0.54077,-0.28625 -0.78719,-0.35522c-1.643,-1.94942 -3.37781,-3.94874 -4.08757,-6.34415c-1.005,-3.39185 0.13972,-5.90522 1.02243,-9.15365c2.38994,-8.79514 9.95189,-11.20381 17.13309,-15.29224c0.36592,0.13862 0.81816,0.19159 1.3742,0.09892c1.329,-0.2215 1.82439,-1.04159 1.99684,-1.74915c3.17991,-1.53119 6.39995,-3.407 9.84931,-3.73644c6.3422,-0.60572 12.74949,0.42205 18.71616,2.51214c0.59776,0.7525 1.56801,0.94606 1.56801,0.94606c0.67958,0.08073 1.3818,0.33415 2.06845,0.47595c0.95267,0.41275 1.89499,0.85121 2.81734,1.31238c4.53142,2.26571 9.16435,4.64369 11.39363,9.38397c2.0691,4.13134 3.26126,7.74593 3.2505,12.39339c-0.00576,2.48868 -0.09943,5.02605 0.00782,7.51218c0.05212,1.20809 -0.30552,2.56146 0.26691,3.62661c1.84635,3.43561 6.10651,3.13495 9.07729,4.60857c6.53857,3.2434 11.93726,10.11178 15.58241,16.19812c1.43601,1.88335 2.09896,3.92569 2.90902,6.03715c-7.42897,-8.58338 -17.25314,-15.21161 -27.71817,-19.35417c-4.83456,-0.98588 -9.61096,-3.15319 -14.50606,-3.57854c-9.00988,-0.78289 -19.12904,1.80907 -24.79004,9.23922l-1.14358,2.79241c0,0 -0.41563,0.8678 -0.1945,1.72788c-0.5054,-0.53609 -0.909,-1.17 -1.16473,-1.92256c-0.36463,-1.07299 0.57639,-2.62264 0.90979,-3.40939c0,0 0.92664,-2.32817 -1.39455,-3.25665c-2.32119,-0.92848 -3.15166,1.3729 -3.15166,1.3729c-0.3779,0.98524 -0.96308,1.91026 -1.13483,2.95141c-1.38288,8.38274 7.13003,10.41426 13.00768,12.76812l1.42645,0.17744c0,0 2.44746,0.08507 2.44746,-2.41493z" data-paper-data="{&quot;noHover&quot;:false,&quot;origItem&quot;:[&quot;Path&quot;,{&quot;applyMatrix&quot;:true,&quot;segments&quot;:[[448.9985,189.47039],[[446.14156,189.11277],[0,0],[-11.7553,-4.70772]],[[420.08874,163.52485],[-2.76576,16.76548],[0.3435,-2.0823]],[[422.35614,157.61343],[-0.7558,1.97048],[0,0]],[[428.85548,154.82801],[-4.64238,-1.85696],[4.64238,1.85696]],[[431.6409,161.32735],[0,0],[-0.6668,1.5735]],[[429.8171,168.13573],[-0.72926,-2.14598],[0.51146,1.50512]],[[432.14254,171.97325],[-1.0108,-1.07218],[-0.44226,-1.72016]],[432.35614,168.61345],[[434.6397,163.02079],[0,0],[11.322,-14.8603]],[[484.41092,144.48745],[-18.01976,-1.56578],[9.7902,0.8507]],[[513.42324,151.67771],[-9.66912,-1.97176],[20.93006,8.28512]],[[568.8508,190.41377],[-14.85794,-17.16676],[-1.62012,-4.22292]],[[562.84928,178.26037],[2.87202,3.7667],[-7.2903,-12.17268]],[[531.678,145.89931],[13.07714,6.4868],[-5.94156,-2.94724]],[[513.52638,136.70649],[3.6927,6.87122],[-1.14486,-2.1303]],[[512.99852,129.47043],[0.10424,2.41618],[-0.2145,-4.97226]],[[512.99852,114.47043],[-0.01152,4.97736],[0.02152,-9.29492]],[[506.52638,89.70651],[4.1382,8.26268],[-4.45856,-9.48056]],[[483.7767,70.94967],[9.06284,4.53142],[-1.8447,-0.92234]],[[478.14956,68.32531],[1.90534,0.8255],[-1.3733,-0.2836]],[[474.01794,67.37335],[1.35916,0.16146],[0,0]],[[470.88572,65.48101],[1.19552,1.505],[-11.93334,-4.18018]],[[433.49122,60.44611],[12.6844,-1.21144],[-6.89872,0.65888]],[[413.81018,67.90755],[6.35982,-3.06238],[-0.3449,1.41512]],[[409.82052,71.40241],[2.658,-0.443],[-1.11208,0.18534]],[[407.0735,71.20331],[0.73184,0.27724],[-14.3624,8.17686]],[[372.83104,101.75377],[4.77988,-17.59028],[-1.76542,6.49686]],[[370.79126,120.04569],[-2.01,-6.7837],[1.41952,4.79082]],[[378.96834,132.72365],[-3.286,-3.89884],[0.49284,0.13794]],[[380.54278,133.43359],[-0.52404,-0.35172],[1.31308,-0.19312]],[[384.9029,135.34695],[-1.44048,-1.8006],[3.12348,3.90434]],[[384.12202,142.37477],[0,0],[-1.7924,1.41374]],[[379.402,147.37487],[1.56756,-1.6664],[1.03038,0.04578]],[[382.49124,147.49477],[-1.02422,0.01032],[0,0]],[382.93856,147.77037],[382.97914,147.56753],[[387.88832,148.54937],[0,0],[2.33694,0.41972]],[[391.99856,153.47045],[0,-2.45776],[0,2.37952]],[[388.10978,158.34653],[2.2266,-0.5053],[0,0]],[[387.52424,158.49291],[0,0],[0.3852,0.00844]],[[392.49856,163.49253],[0,-4.79014],[0,1.00024]],[[391.97832,165.93301],[0.32014,-0.64008],[0.01332,0.1724]],[[391.99856,166.47045],[0,-0.186],[0,2.81436]],[[389.02952,171.05281],[1.38492,-0.53778],[6.74522,14.01596]],[[425.97916,194.56753],[-15.23936,-3.04888],[7.7441,1.54934]],[[450.95772,193.90591],[-7.56486,3.49296],[3.93736,-1.81802]],[[462.99856,186.47045],[-3.4989,2.6789],[3.40028,-2.48856]],[[472.05688,177.88577],[-2.90882,2.99942],[0,0]],[469.78588,177.32115],[[466.14784,171.25777],[-1.21266,4.8507],[1.21268,-4.8507]],[472.21124,167.61973],[[475.97914,168.56753],[0,0],[7.34112,1.49702]],[[497.08784,175.92787],[-6.43024,-3.79642],[13.23976,4.49098]],[[534.22038,195.99121],[-12.49554,-6.22002],[12.22776,6.08672]],[[567.33318,218.74481],[-10.2153,-9.137],[5.27293,4.71633]],[[583.85805,231.46017],[-5.32506,-4.59096],[0.04778,-0.10916]],[[583.999,231.13437],[-0.04618,0.10805],[-1.52182,-0.74855]],[[581.65736,228.95113],[0,0],[-5.1453,-9.005]],[[565.05754,201.54751],[6.36526,8.18766],[-13.94984,-17.9438]],[[510.57384,161.26317],[20.92038,8.47144],[-19.59024,-3.82622]],[[454.40462,159.85349],[18.98906,-10.37978],[-4.17842,2.284]],[[443.3574,167.92007],[2.7997,-3.85038],[0,0]],[441.64096,172.32741],[[437.4232,175.54733],[2.98022,-0.12606],[4.06968,1.86434]],[[449.85554,179.82807],[-3.5713,-1.4269],[0,0]],[448.99858,179.47047],[[453.9985,184.47039],[-0.02301,-4.96541],[0,5]]],&quot;closed&quot;:true}]}" fill="#cc894a" stroke="none" stroke-width="0.5" stroke-linecap="butt"/><path d="M246.37903,54.29034c-0.16916,0.56269 -0.54889,0.94242 -0.54889,0.94242l0.04131,-0.18645c-0.38861,0.72203 -1.44615,1.5843 -0.97768,2.25726c0.59204,0.85047 2.0829,1.19518 2.16811,2.22792c0.10583,1.28266 -0.99179,2.39172 -1.69819,3.46757c-0.1509,0.22983 -0.31551,0.44746 -0.49209,0.65189c2.70499,-2.06163 4.255,-6.37007 4.2178,-9.3341c-0.33242,-1.9896 -0.88676,-3.46358 -1.79567,-5.27053l-0.92613,-1.5321c0,0 -0.15733,-0.26222 -0.24642,-0.64311c-0.32005,0.36206 -0.65559,0.76057 -1.03808,1.10438c-0.49997,0.4494 -0.99465,0.95025 -1.49227,1.47306c0.8702,0.24676 1.66449,0.74623 2.71952,1.24782c0,0 1.78885,0.89443 0.89443,2.68328c-0.231,0.462 -0.52166,0.74502 -0.82576,0.9107zM237.10553,64.32946c-2.39716,-2.10455 -2.57755,-5.83281 -1.41969,-9.04563c-1.15642,0.27431 -2.34913,0.35392 -3.56272,0.2805c-0.1214,0.26225 -0.24925,0.51869 -0.3831,0.76975c-0.35914,1.25232 -0.64462,2.61521 -0.3776,3.69164c0.51348,2.06993 3.0426,3.56917 5.75884,4.31752c-0.00525,-0.00458 -0.0105,-0.00917 -0.01574,-0.01377zM214.79994,53.11965c-0.08738,0.07364 -0.13291,0.1597 -0.09725,0.26986c0.129,0.39847 0.88684,0.11916 1.18743,0.41081c1.27628,1.23833 2.02652,2.92335 3.07973,4.35622c0,1.10801 0.3238,2.26439 0,3.32403c-0.43784,1.43284 -1.48258,2.708 -2.82977,3.69513c1.13933,-0.51829 2.27886,-1.08528 3.43976,-1.6463c2.84332,-2.91635 6.49371,-5.17471 8.45623,-8.71526c-4.20162,-1.22306 -8.44718,-3.6716 -12.13904,-5.72838c0.04886,0.16661 0.09263,0.33646 0.1365,0.50625c0.13128,0.12054 0.25885,0.26902 0.37982,0.45047c1.1094,1.6641 -0.5547,2.7735 -0.5547,2.7735l-0.20045,-0.06441c-0.16639,0.11547 -0.36748,0.21689 -0.60983,0.29768c-0.08535,0.02845 -0.16814,0.05178 -0.24843,0.0704zM204.52868,64.14723c-0.35053,-0.75577 -0.02494,-1.6679 -0.10593,-2.49705c-0.33636,-3.44356 -1.04283,-8.01832 0.5003,-11.31371c0.99387,-2.12244 2.97929,-3.73355 5.1282,-4.1763c-1.49043,-0.57871 -3.06086,-0.9926 -4.63531,-1.00828c-1.41182,-0.01406 -2.28289,0.73931 -3.67964,0.97417c-0.81798,0.13755 -1.55708,0.16494 -2.26878,0.24811c0.49955,0.78219 0.17912,1.7435 0.17912,1.7435c-1.71386,5.09553 -1.37084,9.31644 1.19932,14.0905c1.16954,2.17242 2.49536,4.57796 5.22368,4.96954c1.10156,0.1581 2.16093,0.17206 3.19082,0.07474c-2.01866,-0.16615 -3.80682,-1.11093 -4.73177,-3.10522zM250.87146,47.25747c1.13341,2.27886 1.78656,4.21834 2.20433,6.72947c-0.042,5.49021 -3.01014,12.509 -8.74695,14.41248c-5.42555,1.8002 -14.71239,-1.22922 -16.68378,-6.86906c-1.83216,1.7808 -3.85937,3.4127 -5.72637,5.24403c-5.19197,2.66188 -10.51818,5.44216 -16.48979,4.35169c-9.58155,-1.74968 -11.90837,-14.47344 -10.03753,-22.61506c-0.64565,0.66844 -1.23795,1.39848 -1.89456,2.0551l0.19274,0.40419c0,0 -0.48507,1.94029 -2.42536,1.45521c-1.94029,-0.48507 -1.45521,-2.42536 -1.45521,-2.42536l0.8594,-2.26248c0.26901,-0.26901 3.41038,-3.4211 3.57813,-3.5416c2.26589,-1.62778 4.32048,-1.60101 6.84906,-2.01836c1.4604,-0.24104 2.84024,-1.01605 4.32036,-1.02583c3.08437,-0.02036 6.19847,1.20362 8.89443,2.54448c4.07061,2.0353 8.1493,4.06887 12.2804,5.9745c1.18573,0.54696 2.41334,1.11772 3.67343,1.5c0.27355,-0.05618 0.59459,-0.05316 0.97014,0.04073c0.32117,0.08029 0.57588,0.20045 0.77734,0.34509c1.28253,0.16494 2.59302,0.04671 3.92217,-0.56436c3.06489,-1.40905 5.55291,-5.19886 8.14824,-7.3307c0.85287,-0.70056 1.4702,-1.85542 2.541,-2.12291c1.02637,-0.25639 2.06131,0.4772 3.09196,0.7158c0,0 1.89737,0.63246 1.26491,2.52982c-0.20331,0.60992 -0.53732,0.95843 -0.89701,1.15055z" fill="#000000" stroke="none" stroke-width="0.5" stroke-linecap="butt"/><path d="M246.38101,54.24039c0.3041,-0.16568 0.5719,-0.3533 0.8029,-0.81531c0.89442,-1.78885 -0.87322,-2.67871 -0.87322,-2.67871c-1.05503,-0.50159 -1.87103,-1.09626 -2.74123,-1.34302c0.49762,-0.52281 1.00518,-1.02773 1.50514,-1.47713c0.38249,-0.34381 0.72523,-0.74304 1.04528,-1.1051c0.08909,0.38089 0.2479,0.6431 0.2479,0.6431l0.93354,1.53267c0.90891,1.80695 1.50296,3.31411 1.83538,5.30371c0.0372,2.96403 -1.56872,7.33796 -4.27371,9.39959c0.17658,-0.20443 0.35607,-0.52091 0.50697,-0.75074c0.7064,-1.07585 1.78943,-2.18461 1.6836,-3.46727c-0.08521,-1.03274 -1.59664,-1.28735 -2.18868,-2.13782c-0.46847,-0.67296 0.57251,-1.59685 0.96112,-2.31887l-0.04578,0.2045c0,0 0.43164,-0.42692 0.6008,-0.98962z" data-paper-data="{&quot;noHover&quot;:false,&quot;origItem&quot;:[&quot;Path&quot;,{&quot;applyMatrix&quot;:true,&quot;segments&quot;:[[[492.75802,108.58065],[0,0],[-0.33832,1.12538]],[491.66024,110.46549],[[491.74286,110.09259],[0,0],[-0.77722,1.44406]],[[489.7875,114.60711],[-0.93694,-1.34592],[1.18408,1.70094]],[[494.12372,119.06295],[-0.17042,-2.06548],[0.21166,2.56532]],[[490.72734,125.99809],[1.4128,-2.1517],[-0.3018,0.45966]],[[489.74316,127.30187],[0.35316,-0.40886],[5.40998,-4.12326]],[[498.17876,108.63367],[0.0744,5.92806],[-0.66484,-3.9792]],[[494.58742,98.09261],[1.81782,3.6139],[0,0]],[492.73516,95.02841],[[492.24232,93.74219],[0.17818,0.76178],[-0.6401,0.72412]],[[490.16616,95.95095],[0.76498,-0.68762],[-0.99994,0.8988]],[[487.18162,98.89707],[0.99524,-1.04562],[1.7404,0.49352]],[[492.62066,101.39271],[-2.11006,-1.00318],[0,0]],[[494.40952,106.75927],[1.78884,-3.5777],[-0.462,0.924]],[[492.758,108.58067],[0.6082,-0.33136],[0,0]]],&quot;closed&quot;:true,&quot;fillColor&quot;:[0,0,0,1]}]}" fill="#ffffff" stroke="none" stroke-width="0.5" stroke-linecap="butt"/><path d="M237.0784,64.28746c0.00524,0.0046 0.06479,0.09317 0.07004,0.09775c-2.71624,-0.74835 -5.32239,-2.28582 -5.83587,-4.35575c-0.26702,-1.07643 0.03954,-2.48395 0.39868,-3.73627c0.13385,-0.25106 0.26862,-0.51158 0.39002,-0.77383c1.21359,0.07342 2.44385,-0.0087 3.60027,-0.28301c-1.15786,3.21282 -0.96603,7.03056 1.43113,9.13511z" data-paper-data="{&quot;noHover&quot;:false,&quot;origItem&quot;:[&quot;Path&quot;,{&quot;applyMatrix&quot;:true,&quot;segments&quot;:[[[474.21102,128.65889],[0,0],[-4.79432,-4.2091]],[[471.37164,110.56763],[-2.31572,6.42564],[-2.31284,0.54862]],[[464.2462,111.12863],[2.42718,0.14684],[-0.2428,0.5245]],[[463.48,112.66813],[0.2677,-0.50212],[-0.71828,2.50464]],[[462.7248,120.05141],[-0.53404,-2.15286],[1.02696,4.13986]],[[474.24248,128.68645],[-5.43248,-1.4967],[-0.0105,-0.00916]],[[474.211,128.65891],[0.01048,0.0092],[0,0]]],&quot;closed&quot;:true,&quot;fillColor&quot;:[0,0,0,1]}]}" fill="#ffffff" stroke="none" stroke-width="0.5" stroke-linecap="butt"/><path d="M215.0064,53.02211c0.24235,-0.08079 0.44577,-0.18551 0.61216,-0.30098l0.20076,0.06401c0,0 1.67482,-1.11955 0.56543,-2.78365c-0.12097,-0.18145 -0.24878,-0.32977 -0.38006,-0.45031c-0.04387,-0.16979 -0.08687,-0.34016 -0.13573,-0.50677c3.69186,2.05678 8.01275,4.53028 12.21437,5.75334c-1.96252,3.54055 -5.67357,5.86348 -8.51689,8.77983c-1.1609,0.56102 -2.31423,1.12178 -3.45356,1.64007c1.34719,-0.98713 2.39505,-2.26042 2.83289,-3.69326c0.3238,-1.05964 -0.02185,-2.24013 -0.02185,-3.34814c-1.05321,-1.43287 -1.80021,-3.16358 -3.07649,-4.4019c-0.30059,-0.29165 -1.05931,-0.01084 -1.18831,-0.40931c-0.03566,-0.11016 0.0108,-0.19781 0.09818,-0.27145c0.08029,-0.01862 0.16376,-0.04301 0.24911,-0.07146z" data-paper-data="{&quot;noHover&quot;:false,&quot;origItem&quot;:[&quot;Path&quot;,{&quot;applyMatrix&quot;:true,&quot;segments&quot;:[[[429.59988,106.23927],[0.16058,-0.03724],[-0.17476,0.14728]],[[429.40538,106.77899],[-0.07132,-0.22032],[0.258,0.79694]],[[431.78024,107.60061],[-0.60118,-0.5833],[2.55256,2.47666]],[[437.9397,116.31305],[-2.10642,-2.86574],[0,2.21602]],[[437.9397,122.96111],[0.6476,-2.11928],[-0.87568,2.86568]],[[432.28016,130.35137],[2.69438,-1.97426],[2.27866,-1.03658]],[[439.15968,127.05877],[-2.3218,1.12204],[5.68664,-5.8327]],[[456.07214,109.62825],[-3.92504,7.0811],[-8.40324,-2.44612]],[[431.79406,98.17149],[7.38372,4.11356],[0.09772,0.33322]],[[432.06706,99.18399],[-0.08774,-0.33958],[0.26256,0.24108]],[[432.8267,100.08493],[-0.24194,-0.3629],[2.2188,3.3282]],[431.7173,105.63193],[[431.3164,105.50311],[0,0],[-0.33278,0.23094]],[[430.09674,106.09847],[0.4847,-0.16158],[-0.1707,0.0569]]],&quot;closed&quot;:true,&quot;fillColor&quot;:[0,0,0,1]}]}" fill="#ffffff" stroke="none" stroke-width="0.5" stroke-linecap="butt"/><path d="M204.52736,64.09724c0.92495,1.99429 2.69397,2.94343 4.71263,3.10958c-1.02989,0.09732 -2.06091,0.17835 -3.16247,0.02025c-2.72832,-0.39158 -4.08716,-2.80326 -5.2567,-4.97568c-2.57016,-4.77406 -2.91301,-9.08152 -1.19915,-14.17705c0,0 0.3233,-0.96284 -0.17625,-1.74503c0.7117,-0.08317 1.4605,-0.11415 2.27848,-0.2517c1.39675,-0.23486 2.28513,-0.98954 3.69695,-0.97548c1.57445,0.01568 3.16468,0.43588 4.65511,1.01459c-2.14891,0.44275 -4.16415,2.14706 -5.15802,4.26949c-1.54313,3.29539 -0.83253,7.77042 -0.49616,11.21398c0.08099,0.82915 -0.24496,1.74128 0.10557,2.49705z" data-paper-data="{&quot;noHover&quot;:false,&quot;origItem&quot;:[&quot;Path&quot;,{&quot;applyMatrix&quot;:true,&quot;segments&quot;:[[[409.05732,128.29443],[0,0],[-0.70106,-1.51154]],[[408.84546,123.30033],[0.16198,1.6583],[-0.67272,-6.88712]],[[409.84606,100.67291],[-3.08626,6.59078],[1.98774,-4.24488]],[[420.10246,92.32031],[-4.29782,0.8855],[-2.98086,-1.15742]],[[410.83184,90.30375],[3.1489,0.03136],[-2.82364,-0.02812]],[[403.47256,92.25209],[2.7935,-0.46972],[-1.63596,0.2751]],[[398.935,92.74831],[1.4234,-0.16634],[0.9991,1.56438]],[[399.29324,96.23531],[0,0],[-3.42772,10.19106]],[[401.69188,124.41631],[-5.14032,-9.54812],[2.33908,4.34484]],[[412.13924,134.35539],[-5.45664,-0.78316],[2.20312,0.3162]],[[418.52088,134.50487],[-2.05978,0.19464],[-4.03732,-0.3323]],[[409.05734,128.29443],[1.8499,3.98858],[0,0]]],&quot;closed&quot;:true,&quot;fillColor&quot;:[0,0,0,1]}]}" fill="#ffffff" stroke="none" stroke-width="0.5" stroke-linecap="butt"/><text transform="translate(7.21813,176.51578) scale(0.58667,0.58667)" font-size="40" xml:space="preserve" fill="#ffffff" fill-rule="nonzero" stroke="none" stroke-width="1" stroke-linecap="butt" stroke-linejoin="miter" stroke-miterlimit="10" stroke-dasharray="" stroke-dashoffset="0" font-family="Sans Serif" font-weight="normal" text-anchor="start" style="mix-blend-mode: normal"><tspan x="0" dy="0">"The Skies are High but your end is nigh!"</tspan></text><path d="M72.50002,209.53381l-36,-8h28" fill="none" stroke="#000000" stroke-width="0.5" stroke-linecap="round"/><path d="M437.50002,196.53381v22h-408" fill="none" stroke="#ff0000" stroke-width="3" stroke-linecap="round"/><path d="M28.50002,228.5338v-21" fill="none" stroke="#ff0000" stroke-width="3.5" stroke-linecap="round"/><path d="M174.50002,205.53381v21" fill="none" stroke="#ff0000" stroke-width="3" stroke-linecap="round"/><path d="M313.50001,223.53381v-16" fill="none" stroke="#ff0000" stroke-width="3" stroke-linecap="round"/><path d="M436.75227,201.53381v-11h21v11z" fill="#00ff2d" stroke="#00ff15" stroke-width="3" stroke-linecap="butt"/><text transform="translate(82.75226,279.7838) scale(0.56501,0.56501)" font-size="40" xml:space="preserve" fill="#00ca25" fill-rule="nonzero" stroke="none" stroke-width="1" stroke-linecap="butt" stroke-linejoin="miter" stroke-miterlimit="10" stroke-dasharray="" stroke-dashoffset="0" font-family="Sans Serif" font-weight="normal" text-anchor="start" style="mix-blend-mode: normal"><tspan x="0" dy="0">Click Green Flag To Try Again</tspan></text><text transform="translate(174.75227,348.03381) scale(0.63001,0.63001)" font-size="40" xml:space="preserve" fill="#ffffff" fill-rule="nonzero" stroke="none" stroke-width="1" stroke-linecap="butt" stroke-linejoin="miter" stroke-miterlimit="10" stroke-dasharray="" stroke-dashoffset="0" font-family="Sans Serif" font-weight="normal" text-anchor="start" style="mix-blend-mode: normal"><tspan x="0" dy="0">AS Studios</tspan></text></g></g></svg>