<svg version="1.1" xmlns="http://www.w3.org/2000/svg" xmlns:xlink="http://www.w3.org/1999/xlink" width="257.89071" height="168.18552" viewBox="0,0,257.89071,168.18552"><g transform="translate(-41.1518,-125.72604)"><g data-paper-data="{&quot;isPaintingLayer&quot;:true}" fill-rule="nonzero" stroke="none" stroke-linecap="butt" stroke-linejoin="miter" stroke-miterlimit="10" stroke-dasharray="" stroke-dashoffset="0" style="mix-blend-mode: normal"><path d="" fill="#000000" stroke-width="0.5"></path><path d="" fill="#000000" stroke-width="0.5"></path><path d="M154.75,224c0,1.57078 -0.98694,2.15462 -1.7206,2.37162c1.4025,1.46168 3.21406,1.95872 5.06894,2.88256c0.40521,0.20182 0.77857,0.4585 1.14392,0.72902c0.08173,0.05442 0.16355,0.11505 0.24334,0.18247c0.51979,0.39333 1.03404,0.79631 1.61274,1.08851c0.83621,0.42221 1.72478,0.79227 2.64387,1.12788c0.20496,-0.06139 0.40726,-0.13197 0.60627,-0.2139c1.5001,-0.61755 2.94817,-1.48929 4.50021,-1.92512c0.37375,-0.64641 1.26048,-1.67524 2.94185,-1.11479c0.46802,0.156 0.8129,0.37359 1.06501,0.62236c5.04579,-0.36643 10.16071,-0.29156 15.18822,-0.74213c6.85257,-0.61413 13.25475,-2.50852 20.2062,-2.50852c3.60623,0.05472 5.60823,0.86546 8.5,3l1.97672,1.48254c0.62044,0.45492 1.02328,1.18914 1.02328,2.01746c0,1.38071 -1.11929,2.5 -2.5,2.5c-0.18573,0 -0.36673,-0.02025 -0.54091,-0.05867l-2.44938,-0.48988l0.01126,-0.0563c-0.0777,0.00144 -0.15548,0.00187 -0.23334,0.00121c-1.38067,-0.01166 -2.6709,-1.07709 -4.04129,-0.90852c-0.21789,0.0268 -0.43543,0.05636 -0.65254,0.08866c2.33191,2.39506 4.17376,4.51033 6.04993,7.63727l0.12403,0.01847c0,0 0.14596,0.14596 0.31206,0.39595c0.11389,-0.04236 0.22805,-0.08387 0.34247,-0.1245c0.52551,-0.45518 1.127,-0.54771 1.62828,-0.51251c2.72176,-0.74635 5.56579,-0.96983 8.43971,-0.44263c0,0 0.03691,0.00738 0.10077,0.02486c0.85802,-0.31342 1.725,-0.64733 2.61837,-0.94512l0.00002,-0.00001c0,0 0.04155,-0.01385 0.11548,-0.03238c1.37518,-1.43164 2.61923,-2.97286 3.65494,-4.65321l-0.07887,-0.02657c-0.38594,0.04668 -0.77087,0.08387 -1.15098,0.08387h-0.5c0,0 -2.5,0 -2.5,-2.5l0.00001,0.00002c0,-1.38542 0.76776,-2.00309 1.45234,-2.27846c1.17761,-1.32664 2.91569,-0.4576 2.91569,-0.4576l0.11681,0.234c1.60694,0.0003 3.89994,0.0129 4.18249,0.09277c1.59286,0.45026 2.92986,1.77926 4.57901,1.92145c3.89745,0.33604 8.19787,-0.78837 11.8532,-1.97989c9.51911,-0.10595 21.6705,2.21761 30.06358,-3.14481c4.28936,-2.74051 7.05752,-4.68996 6.68498,-9.43566c-0.33211,0.23952 -0.67683,0.4649 -1.03378,0.67482c-3.00172,1.76527 -6.05177,1.37337 -9.31433,1.37337h-0.5c0,0 -2.5,0 -2.5,-2.5c0,-2.5 2.5,-2.5 2.5,-2.5h0.5c2.03274,0 4.833,0.5253 6.68567,-0.62663c3.24942,-2.02038 5.41433,-6.47023 4.45965,-10.08907c-2.96693,2.26216 -6.70477,4.03842 -9.62119,5.4963l-2.59566,1.04059c0,0 -2.32119,0.92848 -3.24967,-1.39272c-0.92848,-2.32119 1.39272,-3.24967 1.39272,-3.24967l2.40434,-0.95941c5.52872,-2.76506 10.52373,-5.51044 13.25479,-11.26824c1.93811,-4.08604 2.01766,-8.1346 -1.55175,-10.35206c-1.74985,3.17173 -3.96344,6.12726 -6.07703,8.82028c-2.15255,1.12247 -4.3125,2.23102 -6.48383,3.31669l-2,1c0,0 -2.23607,1.11803 -3.3541,-1.11803c-1.11803,-2.23607 1.11803,-3.3541 1.11803,-3.3541l2,-1c1.82886,-0.91443 3.66584,-1.81313 5.51617,-2.68331c2.92485,-4.18812 5.73201,-8.2106 7.18716,-13.22806c0.23347,-0.80504 1.37549,-5.18357 0.08178,-5.73755c-1.2472,-0.53406 -2.73308,0.0976 -4.06753,-0.1473c-2.50231,-0.45923 -3.81165,-1.56219 -6.22332,0.11938c-2.70761,1.88792 -4.3615,4.61476 -6.48759,7.0509c-2.37589,2.72236 -4.95823,4.95823 -7.5,7.5c-6.56262,8.75017 -18.03707,13.24109 -28.28601,15.78828c-4.53434,1.12693 -10.19971,2.50752 -12.91233,-2.96957c-0.88104,-1.77892 -0.1903,-6.40144 -0.1903,-8.45671c0,0 0,-0.20728 0.05969,-0.50248c0.01253,-0.39907 0.00756,-0.79701 -0.04098,-1.19206c-0.50629,-4.12063 -2.24522,-7.61936 -3.82843,-11.34875c-0.36026,-0.84862 -0.33867,-1.8542 -0.81692,-2.64238c-0.48908,-0.80603 -1.51844,-1.18946 -2,-2c-1.6348,-2.75164 -1.86588,-7.2497 -4.52788,-9.44014c-0.11264,-0.09268 -0.22986,-0.17812 -0.35085,-0.25762c-0.37033,0.36311 -0.9222,0.63367 -1.74464,0.63367c-2.11332,0 -2.44019,-1.78645 -2.49075,-2.33908c-3.82988,-1.11291 -7.39926,-1.50246 -11.36559,-2.48582c-6.01747,-1.49188 -11.78377,-2.91892 -17.79412,-3.95763c-2.16774,-0.37463 -4.39967,0.03228 -6.59955,0.03228c-2.19987,0 -4.4318,-0.40691 -6.59955,-0.03228c-1.03869,0.17951 -1.9565,0.85093 -3,1c-4.65111,0.66443 -9.2537,0.70125 -13.85514,1.73281c-0.79764,1.55211 -0.81209,3.7724 -0.91954,5.60633c0.94198,0.23491 1.84557,0.57667 2.68856,1.06651c3.50448,2.0364 5.86148,7.75556 9.77014,9.31144c0.84775,-0.14216 1.7909,0.09928 2.66553,0.06518c0,0 0.7156,0 1.38109,0.38286c0.49017,-0.03321 0.96113,-0.09458 1.417,-0.1801c0.02652,-0.08122 0.05325,-0.16234 0.0802,-0.24333c0,0 0.79057,-2.37171 3.16228,-1.58114c0.32093,0.10698 0.58396,0.24291 0.79888,0.398c2.00763,-0.99192 3.96852,-2.26427 6.39916,-3.31257c1.262,-0.54429 2.73655,-0.4591 4,-1c1.07581,-0.46056 1.86463,-1.43953 2.913,-1.95951c0.1866,-0.09255 5.93067,-2.0002 6.30781,-2.12592c3.59536,-1.16236 9.73619,-2.22106 13.51503,-1.02102c2.15296,0.68371 3.9176,2.32346 6.06611,3.02102l0.20943,-0.12829c0,0 2.5,0 2.5,2.5c0,2.5 -2.5,2.5 -2.5,2.5l-0.97593,-0.06993c0.71941,2.08974 0.46749,4.37396 0.47593,6.56993c0.01622,4.22154 0.17649,7.75472 -1.12829,11.79057c-1.81519,5.33279 -5.83944,12.63688 -11.64725,14.60216c-1.17647,0.3981 -2.48261,0.08746 -3.72446,0.10727c-3.85619,0.06152 -6.99861,-0.05091 -10.69897,-1.0997c-4.24923,-1.20436 -8.71515,-1.34399 -12.06879,-4.63253c-0.7811,-0.76594 -1.46689,-1.56698 -2.06493,-2.39738c-1.36326,0.69891 -2.76134,1.19036 -4.17591,1.49531c1.02033,0.31647 1.98871,0.76553 3.60599,1.77872c4.5918,2.87664 8.27851,6.6659 12.93885,9.4621l1.60051,1.06361c0,0 0.1445,0.09634 0.33194,0.27631c0.14543,-0.35794 0.25689,-0.75196 0.32986,-1.18647c0,0 0.49029,-2.45145 2.94174,-1.96116c2.45145,0.49029 1.96116,2.94174 1.96116,2.94174c-0.22306,1.01004 -0.21483,2.10088 -0.66918,3.03014c-2.44992,5.01063 -9.17939,5.51806 -14.03592,6.46741l-2.74634,0.01217c0,0 -2.5,0 -2.5,-2.5c0,-2.5 2.5,-2.5 2.5,-2.5l2.25366,0.01216c1.86286,-0.38281 3.99535,-0.57274 5.84206,-1.11287l-0.38196,-0.25556c-4.71842,-2.83105 -8.47111,-6.56027 -13.06115,-9.53789c-2.42711,-1.5745 -3.33848,-1.40581 -6.29927,-2.19093c-5.0276,-1.33318 -9.61861,-2.43435 -14.85334,-2.41491c-6.46896,-0.01442 -14.49313,0.12637 -20.68866,2.36468c-3.86477,1.39625 -5.78991,4.14412 -8.54358,6.90309c-2.91612,2.92174 -5.49542,5.94021 -7.99365,9.11401c0.52148,0.10721 1.04604,0.23979 1.51918,0.05828c0.70884,-0.27195 0.86585,-1.29336 1.49493,-1.71841c1.30291,-0.88034 2.84191,-1.35364 4.20696,-2.13417c2.52029,-1.44108 4.57565,-3.60867 7.09455,-5.05218c0.86432,-0.49532 1.98955,-0.40327 2.84593,-0.91217c0.71667,-0.42588 1.07511,-1.29006 1.72936,-1.80673c1.99201,-1.57315 4.3915,-2.62045 6.7944,-3.43836c0.22367,-0.07456 1.62331,-0.54339 3.05686,-1.01886c0.8966,-1.94036 3.02431,-1.23112 3.02431,-1.23112l0.41363,0.13788c0.95356,-0.13001 1.94379,0.17468 2.89531,0.01609c1.03975,-0.17329 1.94591,-1.00074 3,-1c1.84033,0.0013 4.25355,-0.41043 5.42856,1.00595c1.04166,1.25564 -0.4452,3.23483 -0.56038,4.86223c-0.06118,0.86442 0.02728,1.73298 0.03228,2.59955c0.01268,2.19984 -0.34344,4.42179 -0.03228,6.59955c0.20872,1.46077 0.69939,2.85935 1.17742,4.26215c0.84399,0.58624 1.05635,1.64804 1.05635,1.64804h0.00001c0.04434,0.2268 0.0805,0.46117 0.1107,0.70156c0.45879,0.05518 0.95719,0.27254 1.45559,0.77095l0.00002,0.00001c0.76023,0.76023 0.86659,1.52046 0.74087,2.14008c0.73566,0.21211 1.74137,0.79204 1.74137,2.37769zM129.53294,233.37424c-5.54429,1.57909 -10.6122,4.5532 -16.17542,6.04383c-9.02005,2.41687 -17.55111,4.24722 -26.91761,3.06263c-4.03794,-0.51068 -7.04792,-1.95166 -10.86355,-3.07316c-1.22387,-0.35972 -2.69239,-0.10371 -3.73335,-0.84104c-1.51776,-1.07505 -2.54728,-3.93394 -3.27313,-5.78279c-1.48935,-0.25436 -2.98754,-0.69936 -4.63421,-1.65707c-4.14699,-2.41192 -6.13482,-8.06589 -9.45344,-11.35886c0,0 -1.76777,-1.76777 0,-3.53553c0.36797,-0.36797 0.73594,-0.58275 1.08797,-0.69217c-3.79383,-3.23998 -6.74108,-7.38649 -8.22401,-12.35326c0,0 -0.22507,-0.78775 0.03343,-1.59019c-1.3549,-0.70132 -2.59275,-1.69328 -3.65772,-3.13484c-5.29499,-7.16736 -1.98726,-18.71681 6.0714,-22.27147c2.82019,-1.24398 3.96586,-0.59262 6.76805,-0.05498c8.00746,4.00373 17.41923,3.23203 25.41347,7.68527c1.53759,0.85652 2.80929,2.15782 4.38609,2.93979c1.77741,0.88145 3.73818,1.58496 5.15686,2.97185c1.69929,1.66123 2.59796,4.30302 4.60846,5.68066c0.74981,0.51379 1.97873,0.75377 3.1285,0.8906c0.09139,-0.50586 0.20298,-1.00741 0.34501,-1.50253c0.92192,-3.21385 2.69535,-5.65699 3.9172,-8.67035c-0.03059,-0.06448 -0.06,-0.13183 -0.08813,-0.20216c-0.92848,-2.32119 1.39272,-3.24967 1.39272,-3.24967c3.12879,-1.08751 2.22281,-2.87264 4.9667,-4.70691c0.68458,-0.45763 1.6011,-0.80215 2.57832,-1.07718c3.37114,-2.82396 7.09105,-5.13289 11.23304,-5.86248c1.01604,-0.17897 2.07317,0.12865 3.09499,-0.01355c2.37216,-0.33011 4.5435,-1.58719 6.90501,-1.98645c2.04076,-0.34504 4.27332,0.12364 6.16871,-0.70778c0.97703,-0.42858 1.56171,-1.41171 1.92543,-2.60494c-1.72171,0.08431 -3.41552,0.28044 -4.69369,0.28044c0,0 -2.5,0 -2.5,-2.5c0,-2.5 2.5,-2.5 2.5,-2.5c1.69436,0 3.52685,-0.13794 5.36312,-0.16462c0.04584,-0.67894 0.09099,-1.28012 0.16915,-1.73583c0.4019,-2.34324 0.98823,-4.10148 1.9481,-5.60977c-0.09164,-1.9139 1.91328,-2.41513 1.91328,-2.41513c0.06642,-0.0163 0.13281,-0.03241 0.1992,-0.04832c0.59043,-0.53685 1.25974,-1.065 2.02039,-1.60646c0,0 2.05567,-1.37044 3.44227,0.65694c3.16899,-0.39035 6.33446,-0.58602 9.54402,-1.04454c1.0435,-0.14908 1.95935,-0.83216 3,-1c0.56457,-0.09106 1.16627,-0.16998 1.79518,-0.23677c1.12109,-5.23192 3.14879,-8.64156 6.33723,-13.02089c1.65472,-2.27275 2.19529,-3.90199 4.55627,-5.55248c2.97736,-2.08138 6.0812,-2.33094 9.51107,-2.93093c2.88384,-0.50447 3.4618,-1.04308 6.47113,0.17677c5.55461,2.25159 10.18772,6.94624 14.36821,11.14426c2.26189,3.04023 4.02866,6.46622 4.5872,10.29125c0.39926,2.73421 -0.04389,5.31676 0.33248,8.02163c1.09592,0.47122 2.19257,0.94137 3.09619,1.70069c3.22055,2.70625 3.48051,7.27763 5.47212,10.55986c0.48908,0.80603 1.51844,1.18946 2,2c0.60611,1.02018 0.71236,2.26833 1.18308,3.35762c1.78694,4.13515 3.59158,8.08532 4.17157,12.65125c0.08199,0.64543 0.03264,1.29931 -0.01425,1.95285c0.03296,0.21312 0.03296,0.35265 0.03296,0.35265c0,0.3565 -0.0288,0.78035 -0.07009,1.24233c0.00853,0.11933 0.02086,0.23841 0.03783,0.35718c0.02565,0.17956 0.06777,0.35523 0.12068,0.52837l-0.28112,1.26503l-0.12309,0.49237c-0.06976,1.02161 -0.07283,1.98807 0.12549,2.65801c0.27565,0.93115 1.85548,0.92869 2.43665,0.96888c2.46051,0.17013 5.26509,-0.84799 7.65103,-1.43845c2.88498,-0.71396 5.40306,-2.13822 8.07849,-3.35432c5.6189,-2.55404 10.8581,-5.32087 14.63551,-10.3574c2.5551,-2.5551 5.11254,-4.77904 7.5,-7.5c3.16876,-3.61141 5.76019,-7.82222 10.67627,-9.25835c2.12028,-0.6194 4.43892,0.03697 6.61282,0.42864c2.49599,0.4497 3.28582,-0.96085 5.93247,0.8527c3.12434,2.14088 2.85062,4.48497 2.65855,7.82122c-0.11141,1.93521 -0.5296,3.82075 -1.16451,5.64923c0.37127,0.1477 0.72746,0.32213 1.04926,0.55747c7.33757,5.36615 4.85641,14.58417 0.50147,21.01552c2.12212,4.08622 1.71523,9.18798 -0.64645,13.22144c0.56634,0.59051 0.72021,1.35986 0.72021,1.35986l-0.00001,-0.00002c0.57247,3.05368 0.8529,7.29948 -0.74727,10.16994c-2.26565,4.06424 -9.21615,7.9145 -13.49182,9.21671c-4.41238,1.34385 -9.36059,1.5775 -14.30594,1.49194c0.41977,0.0995 0.81745,0.25201 1.17651,0.49666c3.32162,2.26328 4.07912,7.74494 4.15855,11.40882c0.02917,1.34537 0.43604,2.93912 -0.36485,4.02053c-1.20795,1.63103 -2.36872,2.26403 -3.62621,2.50475c0.39815,0.43098 0.72561,0.90249 0.89231,1.45646c0.63128,2.09778 -1.35314,7.08835 -3.3183,7.9818c-1.79262,0.81501 -7.27277,-0.89139 -9.1229,-1.31825c-3.14449,-0.7255 -6.82253,-0.85171 -9.88098,-1.93304c-0.12697,0.80172 -0.423,1.47879 -0.95461,1.90149l-0.00001,0.00003c-1.36157,1.08263 -3.50052,0.29127 -5.21857,0.01873c-8.51791,-1.35122 -14.05528,-8.50166 -18.89737,-14.92628l-0.3203,-0.30548c-0.85342,0.00229 -1.73755,-0.07202 -2.66999,-0.24307l-0.55459,-0.24374c-2.17002,0.81207 -4.21834,2.02423 -5.97949,3.31033c-0.49412,0.36084 -0.98941,0.68302 -1.47432,0.99153c-0.23618,1.37061 -1.71074,1.86213 -1.71074,1.86213l-1.04222,0.07926c-0.80127,0.72762 -1.46156,1.61089 -1.88366,2.86037c-0.50715,1.50122 -0.70451,3.07621 -0.70782,4.66617c1.10564,0.01673 2.21917,0.02249 3.34313,0.02249h2c0,0 2.5,0 2.5,2.5c0,2.5 -2.5,2.5 -2.5,2.5h-2c-0.95413,0 -1.90129,-0.00454 -2.84283,-0.01631c0.0916,0.51452 0.19109,1.0239 0.29428,1.52602l0.37665,1.07525c1.32038,0.40994 1.62335,1.92475 1.62335,1.92475l0.4648,2.34862c1.28215,3.95229 2.27077,9.59655 -0.23684,13.36648c-0.80794,1.21467 -1.59829,2.79373 -3.0044,3.18234c-1.36605,0.37753 -2.861,-0.37269 -4.1185,-1.07378c-0.89694,0.95184 -1.65367,2.07368 -2.74217,2.79326c-0.9899,0.6544 -2.26215,0.72692 -3.35762,1.18308c-2.22613,0.92696 -5.56312,3.61942 -8.22447,0.95806c-1.28075,-1.28075 -1.18508,-3.27022 -0.6051,-5.03175c-0.02411,0.01049 -0.04785,0.02051 -0.07119,0.03003c-2.51548,1.02589 -5.15415,1.18369 -6.96952,-0.92285c-3.32209,0.69166 -6.6874,1.37712 -10.08642,1.1568c-1.30566,-0.08463 -2.80385,0.28215 -3.90157,-0.42983c-1.00997,-0.65506 -1.02559,-2.18716 -1.68554,-3.19394c-0.22417,-0.34199 -0.61463,-0.73184 -1.08703,-1.13238l-2.56174,-0.85391c-1.02156,-0.31417 -1.76412,-1.26534 -1.76412,-2.38994c0,-0.92661 0.50412,-1.73548 1.25305,-2.1673l2.46071,-1.47643l0.03171,0.05286l0.14362,-0.14874c2.86667,-1.14667 5.30757,-2.61321 8.25101,-3.60785c0.42415,-0.16944 0.83105,-0.41523 1.24889,-0.61259c-0.68004,-0.75963 -1.20739,-1.69424 -1.84991,-2.48921c-2.73322,-3.38171 -4.55032,-7.63607 -5.28252,-11.97175c-0.24937,-0.03822 -0.49832,-0.08065 -0.74685,-0.12754c0,0 -2.45145,-0.49029 -1.96116,-2.94174c0.32846,-1.64234 1.53715,-1.96435 2.29924,-1.998c-0.01968,-4.28908 0.76193,-8.95564 3.0651,-12.38795c1.49258,-2.22431 3.6437,-3.81727 5.8941,-5.28373c-0.68715,0.0435 -1.37407,0.0922 -2.06065,0.14779c-1.56819,0.12696 -2.87919,1.27198 -4.34485,1.84397c-0.28979,0.11309 -1.03359,0.27287 -1.90711,0.43772c-0.0722,0.14912 -0.14082,0.3003 -0.20571,0.45344c-0.2774,-0.0868 -0.55385,-0.17519 -0.8289,-0.26551c-1.31061,0.23046 -2.6341,0.43938 -3.04877,0.50854c0,0 -2.46598,0.411 -2.87698,-2.05499c-0.07981,-0.47887 -0.05113,-0.88026 0.04691,-1.21618c-0.14141,-0.10748 -0.28303,-0.21461 -0.42629,-0.31891l-2.55616,-0.54407c-1.32206,-0.77606 -4.37584,-2.39921 -5.455,-3.65746c-0.729,-0.84997 -1.236,-1.71578 -1.59873,-2.59867c-6.03788,1.53347 -11.80142,3.56592 -17.76184,5.79857zM74.65699,234.43351c0.65502,0.38028 1.53139,-0.02284 2.26665,0.15896c3.58689,0.88688 6.36539,2.46165 10.13645,2.92684c8.69393,1.07246 16.50704,-0.67489 24.8882,-2.89853c5.5066,-1.46099 10.53152,-4.42243 16.01878,-5.99501c6.1367,-2.30391 12.08968,-4.38259 18.3221,-5.95222c-0.04305,-0.42847 -0.08497,-0.86089 -0.13297,-1.29736c-0.15167,-0.06259 -0.30709,-0.11794 -0.46583,-0.16562c-0.35245,-1.73598 -0.6535,-3.46933 -1.09063,-5.01164c-0.95586,-3.37248 -1.09867,-6.26123 -1.10218,-9.65731c-0.46996,-0.22853 -0.76531,-0.52387 -0.76531,-0.52387c-1.07042,-1.13588 -2.52987,-1.94092 -4.0228,-2.39606l-1.31047,-0.43682c-1.57082,0.42174 -3.06005,1.1707 -4.60836,1.6868c-3.40776,1.1064 -4.59195,3.01037 -7.47624,4.75491c-0.95161,0.57557 -2.18776,0.5373 -3.15407,1.08783c-2.4604,1.40175 -4.44647,3.54359 -6.90545,4.94782c-1.22358,0.69874 -2.61624,1.09089 -3.79304,1.86583c-0.9433,0.62118 -1.46082,1.85121 -2.50507,2.28159c-0.99645,0.41069 -2.20794,-0.25221 -3.23225,0.08303c-1.26155,0.41288 -2.06527,2.07468 -3.39262,2.08515c-6.67141,0.05263 -6.47716,-5.02132 -5.8131,-9.78334c0.47943,-3.4381 1.45018,-6.72256 2.01355,-10.09499c0.04829,-0.28909 0.09061,-0.57939 0.12883,-0.8705c-1.85088,-0.20451 -3.53204,-0.48996 -5.28738,-1.64189c-2.47394,-1.62352 -3.43383,-4.29281 -5.39154,-6.31934c-1.4131,-1.46277 -1.92071,-1.0596 -3.84314,-2.02815c-3.16647,-1.5953 -5.90051,-4.17577 -9.25287,-5.39358c-6.49139,-2.35812 -13.6913,-1.85322 -19.94756,-4.98135c-7.43615,-1.60591 -10.91584,9.37156 -7.16055,14.67354c2.50645,3.53878 8.5087,2.85009 12.38289,3.49579l1.589,-0.03402c0,0 2.5,0 2.5,2.5c0,2.5 -2.5,2.5 -2.5,2.5l-2.411,-0.03402c-2.25532,-0.37589 -4.56747,-0.50397 -6.77593,-0.84118c2.47637,6.95547 9.15411,11.73167 15.9775,14.00348l2.32746,1.13564c0,0 2.23607,1.11803 1.11803,3.3541c-1.11803,2.23607 -3.3541,1.11803 -3.3541,1.11803l-1.67254,-0.86436c-2.27615,-0.75956 -4.48246,-1.73998 -6.55297,-2.93206c0.96442,1.21145 1.8652,2.47736 2.74507,3.74829c0.71413,1.03152 2.24696,3.53641 3.4128,4.18544c2.99809,1.66905 5.45054,1.13954 8.53243,1.65079c1.8865,0.31295 3.74108,0.99729 5.65325,0.97584h1c0,0 2.5,0 2.5,2.5c0,2.5 -2.5,2.5 -2.5,2.5h-1c-2.14287,-0.01819 -4.23323,-0.67021 -6.34675,-1.02416c-0.1984,-0.03323 -0.39449,-0.0635 -0.58852,-0.09136c0.17848,0.43915 0.43339,0.81166 0.84226,1.04903zM103.73069,199.31009c-0.03144,0.25149 -0.08518,0.47429 -0.15639,0.67165c-0.48121,2.93292 -0.6734,5.8862 -1.09306,8.82372c-0.12099,0.84694 -0.38975,1.87417 -0.66592,2.95295c2.55079,-3.2285 5.19278,-6.30787 8.16689,-9.27593h0.00001c2.4685,-2.46348 3.87734,-4.55648 7.01295,-6.3945c7.16369,-4.1992 17.68393,-4.32175 25.75481,-4.33773c1.55264,0.00489 3.05829,0.09166 4.53831,0.24516c-6.47859,-4.0665 -11.60492,-10.8947 -12.98976,-17.75512c0,0 -0.01889,-0.09444 -0.03072,-0.24995c-2.37508,0.42075 -4.57424,1.64166 -6.96237,1.99093c-0.95815,0.14013 -1.94807,-0.16176 -2.90501,-0.01355c-1.80253,0.27918 -3.30683,1.03717 -4.69342,1.99339c0.02787,0.1653 0.04297,0.34454 0.04297,0.53888l0.00001,0.00001c0,2.5 -2.5,2.5 -2.5,2.5l-0.00971,-0.04855c-0.20987,0.04153 -0.88979,0.16597 -1.66455,0.32262c-2.59553,2.1626 -4.9566,4.13698 -7.44913,6.54026c-0.97181,3.07158 -2.84724,5.29227 -3.72633,8.38464c-0.25951,0.91288 -0.46859,1.82929 -0.64322,2.74813c-0.00199,0.11551 -0.01055,0.23642 -0.02637,0.36299zM203.86137,140.88825c-3.89023,-3.87181 -7.77396,-7.3648 -12.63179,-9.85574c-1.63136,-0.83651 -4.97174,0.40238 -6.52887,0.67677c-4.31136,0.75974 -5.47241,2.62984 -7.93266,6.01659c-2.52294,3.47305 -4.15506,6.00261 -5.16769,9.79521c2.77283,-0.0181 5.57476,0.15229 7.8001,0.5112c1.04065,0.16784 1.9565,0.85092 3,1c2.76093,0.39443 5.61387,0.3118 8.29852,1.06742c3.4769,0.9786 7.01154,2.41231 10.60649,2.91903c2.18187,0.30754 4.06759,0.62983 6.01197,1.10903c-0.40229,-4.67055 -0.21889,-8.97387 -3.45606,-13.23951zM241.25366,237.48783c-1.16223,-0.12655 -2.2269,-0.64049 -3.2935,-1.15943c-2.4129,4.59984 -6.05745,8.34327 -10.14844,11.62376c0,0 -0.00008,0.00006 -0.00023,0.00018c2.01638,2.65427 4.31458,5.38277 6.78587,6.94181l0.00003,0.00001c1.70315,1.07445 3.73815,1.48067 5.62717,2.19696c-1.82084,-1.414 -3.46771,-3.05084 -5.24233,-4.82336l-2,-2c0,0 -1.76777,-1.76777 0,-3.53553c1.76777,-1.76777 3.53553,0 3.53553,0l2,2c0.80612,0.80712 1.58119,1.60045 2.3667,2.35566c0.39241,0.11276 0.65177,0.26838 0.65177,0.26838c1.05462,0.69314 2.40676,1.06973 3.16387,2.07941c0.19968,0.26629 0.41362,0.6581 0.61998,1.13279c0.69685,0.40231 1.43846,0.76114 2.24125,1.06684c2.96549,1.12925 6.63715,1.21006 9.73713,1.92559c1.31664,0.30391 2.63299,0.61397 3.93211,0.98572c0.66202,0.18944 1.2704,0.83421 1.94499,0.69603c0.38193,-0.07824 0.11786,-0.77479 0.24262,-1.14415c0.10434,-0.3089 0.57812,-0.57914 0.43907,-0.87405c-0.33581,-0.71222 -1.10608,-1.30096 -2.0557,-1.79453c-0.63349,0.13863 -1.91589,0.22341 -2.66651,-1.07395c-1.28412,-0.42209 -2.51278,-0.74194 -3.24496,-1.00852c-1.69705,-0.61789 -4.60572,-1.89861 -6.1249,-2.5496c0,0 -2.29786,-0.9848 -1.31306,-3.28266c0.9848,-2.29786 3.28266,-1.31306 3.28266,-1.31306c3.07787,1.31927 6.97862,2.25439 10.26419,3.83326l1.27824,-0.49029c0.10511,0.00095 3.36815,0.24116 3.84614,-0.35944c0.21696,-0.27261 -0.28938,-0.63934 -0.36485,-0.97947c-0.37509,-1.69037 0.00289,-6.59196 -1.84145,-7.59118c-1.84893,-1.00171 -6.26426,-0.4715 -8.32241,-0.61985c-4.03625,-0.29093 -8.09721,-1.06368 -12.12074,-1.51046c0,0 -1.06491,-0.11832 -1.72295,-0.8972c-0.50565,-0.01357 -1.0055,-0.04611 -1.49728,-0.09966zM179.79855,194.75971c0.22306,-1.01004 0.44612,-2.02009 0.66918,-3.03014c0.81644,-1.03153 1.36951,-2.34318 2.44933,-3.09459c1.49633,-1.04125 3.59447,-0.80345 5.22203,-1.6246c2.14714,-1.0833 3.50281,-2.37113 5.74173,-3.05851c0.17215,-0.05285 -0.36859,-0.01008 -0.53413,-0.08095c-0.51888,-0.22215 -0.96378,-0.60744 -1.49818,-0.78912c-0.9524,-0.32378 -2.14885,-0.08476 -2.93144,-0.71679c-3.57692,-2.88878 -2.61097,-6.42053 -0.99887,-10.0165c3.01986,-6.73616 9.26897,-5.83311 14.41714,-2.98768c-1.38016,-1.15131 -3.21071,-1.77312 -4.72208,-2.7807l-1.1457,-0.55857c-1.90377,0.02081 -3.58218,0.12457 -5.67698,0.85015c-1.89508,0.6317 -3.90859,0.97457 -5.69219,1.87408c-1.10135,0.55543 -1.95344,1.55417 -3.087,2.04049c-1.26304,0.54188 -2.73542,0.46173 -4,1c-1.02266,0.4353 -1.79109,1.32536 -2.75657,1.87599c-1.84141,1.05018 -3.76665,1.96288 -5.75972,2.60432c-1.44636,5.75665 -1.35818,11.69111 3.27267,16.46564c1.70418,1.75706 4.45786,2.26968 7.01341,2.73962zM155.07059,188.02519c0.21902,-0.29673 3.56413,-3.92545 3.24134,-4.72216c-0.28437,-0.70189 -1.19557,-1.04354 -1.43365,-1.76245c-0.29541,-0.89203 0.06542,-1.88995 -0.08318,-2.8178c-0.19872,-1.24086 -1.40812,-2.4767 -0.95226,-3.64777c0.03574,-0.09181 0.07522,-0.18175 0.1182,-0.26986c-2.96686,-2.37555 -4.81444,-5.98721 -8.27538,-8.17852c-0.30212,-0.19129 -0.63746,-0.34683 -0.99883,-0.47232c-0.83083,2.63922 -2.22598,5.33357 -4.45509,6.5212c-0.92294,0.49173 -1.93187,0.72975 -2.97586,0.86424c0.27061,1.41267 0.58927,3.31908 1.20856,4.55c2.41282,4.79573 7.96501,9.76971 13.86011,11.76255zM194.25,265c0,2.09292 -1.75212,2.43371 -2.32272,2.48921c0.13762,0.33817 0.27523,0.67634 0.41285,1.0145c0.44756,0.0288 2.40988,0.28139 2.40988,2.49629c0,2.5 -2.5,2.5 -2.5,2.5c-0.14819,-0.01112 -0.30068,-0.01179 -0.45687,-0.00257c-0.16272,0.03876 -0.32151,0.05579 -0.47469,0.05601c-3.11479,0.54045 -7.36307,4.49125 -8.53129,7.91737c0.55358,0.67732 0.52666,1.4699 0.4095,2.01005c0.19109,-0.06854 0.37771,-0.16348 0.49742,-0.24691c0.81422,-0.56744 1.3683,-1.54467 2.29724,-1.89396c1.63488,-0.61474 3.77276,-1.97108 5.16027,-0.91016c2.35791,1.80291 1.46421,5.11592 0.29122,7.37108c0.44087,-0.22332 0.89615,-0.42114 1.3505,-0.61061c1.28988,-0.53789 2.73857,-0.90816 3.75252,-1.86994c0.56427,-1.20222 0.43023,-3.19479 1.6928,-3.60664c1.54463,-0.50385 3.13836,0.88509 4.62229,1.54667c0.33391,0.14887 0.34858,0.82484 0.71409,0.83247c0.2725,0.00569 -0.07806,-0.55525 -0.0044,-0.81766c0.17045,-0.60726 0.62553,-1.12505 0.72452,-1.74796c0.42831,-2.69516 -0.09836,-5.37556 -0.96136,-7.88556l-0.45125,-2.23547c-1.09938,-0.40112 -1.50421,-1.61563 -1.50421,-1.61563l-0.57974,-1.80028c-0.16927,-0.86595 -0.3324,-1.75522 -0.47286,-2.65809c-2.03707,-0.10298 -4.05897,-0.26442 -6.08019,-0.51283c0.00297,0.05871 0.00449,0.11891 0.00449,0.18063zM175.37625,269.10123c1.08345,1.20269 3.61753,1.89472 3.37192,3.49471c-0.36075,2.35001 -5.08282,3.92845 -7.13827,4.75153c-2.03728,0.66853 -3.80826,1.60375 -5.67515,2.48102c0.5344,0.53427 0.98605,1.18084 1.40236,1.79528c0.34277,0.50589 -0.12328,1.37968 0.31446,1.80606c0.28165,0.27434 0.70821,-0.38166 1.09843,-0.42983c0.77567,-0.09575 1.56539,0.06459 2.34465,0.00483c2.11431,-0.16213 4.17923,-0.54628 6.24368,-0.96353c0.49957,-4.6956 5.80679,-9.31032 8.91167,-11.5413c0.39341,-0.28268 0.76445,-0.61279 1.14577,-0.92325c-0.18444,-0.46771 -0.36886,-0.93541 -0.5533,-1.40312c-0.05877,-0.34561 -0.12291,-0.69054 -0.19134,-1.03494c-4.36053,-0.34514 -8.76197,0.09797 -13.116,-0.24966c0.57856,0.75799 1.1949,1.49484 1.84112,2.21219zM192.46376,245.64373c0,0 -0.25628,-0.15377 -0.53847,-0.4436c-0.97722,1.63597 -1.73057,3.42064 -2.20872,5.33573c0.73041,0.10179 1.62319,0.51546 1.95878,1.8578c0.60634,2.42535 -1.81902,3.03169 -1.81902,3.03169l-0.64846,0.14298c0.07945,1.14058 0.28149,2.29226 0.54089,3.44367c3.3906,0.72022 6.74305,1.09877 10.13446,1.29336c-0.00592,-2.09895 0.26286,-4.17629 1.00209,-6.11671c0.39947,-1.04857 0.8575,-1.91849 1.37225,-2.67087c-3.26507,-1.96139 -6.52367,-3.91728 -9.7938,-5.87406zM195.03624,241.35627c3.66025,2.20158 7.30116,4.3847 10.96242,6.57868c0.85423,-0.61305 1.78043,-1.2319 2.77571,-1.95299c0.78028,-0.56532 1.58724,-1.10163 2.41728,-1.60004l-0.08538,-0.09567c-2.05078,-3.41798 -3.83253,-5.23862 -6.62403,-8.01847c0,0 -0.3062,-0.30619 -0.53628,-0.79115c-3.41037,1.28232 -6.52818,3.26355 -9.01496,5.82322c0.06786,0.034 0.10524,0.05643 0.10524,0.05643zM188.53839,241c1.88791,-2.82897 4.25735,-5.29753 6.83538,-7.08711c0.26466,-0.18372 2.18706,-0.93546 3.67365,-1.51924c-3.50317,0.57138 -6.98379,1.2655 -10.59122,1.59783c-2.21407,0.20397 -4.43285,0.32709 -6.65335,0.42595c-0.24669,0.33919 -0.49112,0.53474 -0.49112,0.53474c-2.60231,2.07235 -6.30281,3.65306 -8.86338,6.04783c4.93388,0 9.86776,0 14.80164,0zM185.8821,246c-5.31201,0 -11.40914,0 -16.46289,0c-0.66445,2.21653 -0.8487,4.68969 -0.80101,6.98455c5.15005,0.01502 10.64799,-1.41066 15.81526,-1.85442c0.27411,-1.72996 0.77089,-3.45623 1.44864,-5.13013zM184.82465,260.39366c0.03817,-0.15268 0.08354,-0.29334 0.13508,-0.42291c-0.28196,-1.27456 -0.52016,-2.5557 -0.66002,-3.8508c-5.03083,0.38414 -10.14764,1.56815 -15.16819,1.72868c0.28393,1.27789 0.69237,2.50496 1.20491,3.68543c0.50663,-0.06497 0.90386,0.01448 0.90386,0.01448c4.48499,0.92167 9.11568,0.48606 13.70843,0.56666c-0.21543,-0.43255 -0.30558,-0.99555 -0.12408,-1.72155z" fill="#000000" stroke-width="0.5"></path><path d="M74.62441,234.47143c-0.40887,-0.23737 -0.66528,-0.61122 -0.84376,-1.05037c0.19403,0.02786 0.45772,-0.01556 0.65612,0.01767c2.11352,0.35395 4.19656,1.00048 6.33943,1.01867l0.99874,-0.00075c0,0 2.45168,0.08753 2.45168,-2.41247c0,-2.5 -2.50578,-2.50358 -2.50578,-2.50358l-1.00128,-0.00095c-1.91217,0.02145 -3.77331,-0.66892 -5.65981,-0.98187c-3.08189,-0.51125 -5.54036,0.01011 -8.53845,-1.65894c-1.16584,-0.64903 -2.702,-3.16064 -3.41613,-4.19216c-0.87987,-1.27093 -1.68603,-2.56862 -2.65045,-3.78007c2.07051,1.19208 4.27448,2.16577 6.55063,2.92533l1.67155,0.86221c0,0 2.14654,1.16259 3.26457,-1.07348c1.11804,-2.23607 -1.12059,-3.36008 -1.12059,-3.36008l-2.32843,-1.13869c-6.82339,-2.27181 -13.50253,-7.0686 -15.9789,-14.02407c2.20846,0.33721 4.52063,0.46514 6.77595,0.84103l2.41106,0.03358c0,0 2.50084,-0.00425 2.50084,-2.50425c0,-2.5 -2.40349,-2.47394 -2.40349,-2.47394l-1.58882,0.0334c-3.87419,-0.6457 -9.97265,0.01572 -12.4791,-3.52306c-3.75529,-5.30198 -0.2687,-16.29415 7.16745,-14.68824c6.25626,3.12813 13.46367,2.61462 19.95506,4.97274c3.35236,1.21781 6.0922,3.79372 9.25867,5.38902c1.92243,0.96855 2.43496,0.56247 3.84806,2.02524c1.95771,2.02653 2.92626,4.69232 5.4002,6.31584c1.75534,1.15193 3.46506,1.43735 5.31594,1.64186c-0.03822,0.29111 -0.07975,0.58165 -0.12804,0.87074c-0.56337,3.37243 -1.54492,6.7544 -2.02435,10.1925c-0.66406,4.76202 -0.88407,9.74102 5.78734,9.68839c1.32735,-0.01047 2.11935,-1.66449 3.3809,-2.07737c1.02431,-0.33524 2.23058,0.33306 3.22703,-0.07763c1.04425,-0.43038 1.5563,-1.65234 2.4996,-2.27352c1.1768,-0.77494 2.566,-1.15917 3.78958,-1.85791c2.45898,-1.40423 4.44252,-3.5329 6.90292,-4.93465c0.96631,-0.55053 2.20239,-0.51009 3.154,-1.08566c2.88429,-1.74454 4.06884,-3.64192 7.4766,-4.74832c1.54831,-0.5161 3.03772,-1.26372 4.60854,-1.68546l1.40949,0.42289c1.49293,0.45514 2.9527,1.26329 4.02312,2.39917c0,0 0.29539,0.29595 0.76535,0.52448c0.00351,3.39608 0.1459,6.29481 1.10176,9.66729c0.43713,1.54231 0.73729,3.28031 1.08974,5.01629c0.15874,0.04768 0.31415,0.10308 0.46582,0.16567c0.048,0.43647 0.08963,0.87004 0.13268,1.29851c-6.23242,1.56963 -12.19102,3.66143 -18.32772,5.96534c-5.48726,1.57258 -10.52855,4.55049 -16.03515,6.01148c-8.38116,2.22364 -16.23607,3.976 -24.93,2.90354c-3.77106,-0.46519 -6.56442,-2.04777 -10.15131,-2.93465c-0.73526,-0.1818 -1.61385,0.21952 -2.26887,-0.16076z" data-paper-data="{&quot;noHover&quot;:false,&quot;origItem&quot;:[&quot;Path&quot;,{&quot;applyMatrix&quot;:true,&quot;segments&quot;:[[[74.65699,234.43351],[0,0],[0.65502,0.38028]],[[76.92364,234.59247],[-0.73526,-0.1818],[3.58689,0.88688]],[[87.06009,237.51931],[-3.77106,-0.46519],[8.69393,1.07246]],[[111.94829,234.62078],[-8.38116,2.22364],[5.5066,-1.46099]],[[127.96707,228.62577],[-5.48726,1.57258],[6.1367,-2.30391]],[[146.28917,222.67355],[-6.23242,1.56963],[-0.04305,-0.42847]],[[146.1562,221.37619],[0.048,0.43647],[-0.15167,-0.06259]],[[145.69037,221.21057],[0.15874,0.04768],[-0.35245,-1.73598]],[[144.59974,216.19893],[0.43713,1.54231],[-0.95586,-3.37248]],[[143.49756,206.54162],[0.00351,3.39608],[-0.46996,-0.22853]],[[142.73225,206.01775],[0,0],[-1.07042,-1.13588]],[[138.70945,203.62169],[1.49293,0.45514],[0,0]],[[137.39898,203.18487],[0,0],[-1.57082,0.42174]],[[132.79062,204.87167],[1.54831,-0.5161],[-3.40776,1.1064]],[[125.31438,209.62658],[2.88429,-1.74454],[-0.95161,0.57557]],[[122.16031,210.71441],[0.96631,-0.55053],[-2.4604,1.40175]],[[115.25486,215.66223],[2.45898,-1.40423],[-1.22358,0.69874]],[[111.46182,217.52806],[1.1768,-0.77494],[-0.9433,0.62118]],[[108.95675,219.80965],[1.04425,-0.43038],[-0.99645,0.41069]],[[105.7245,219.89268],[1.02431,-0.33524],[-1.26155,0.41288]],[[102.33188,221.97783],[1.32735,-0.01047],[-6.67141,0.05263]],[[96.51878,212.19449],[-0.66406,4.76202],[0.47943,-3.4381]],[[98.53233,202.0995],[-0.56337,3.37243],[0.04829,-0.28909]],[[98.66116,201.229],[-0.03822,0.29111],[-1.85088,-0.20451]],[[93.37378,199.58711],[1.75534,1.15193],[-2.47394,-1.62352]],[[87.98224,193.26777],[1.95771,2.02653],[-1.4131,-1.46277]],[[84.1391,191.23962],[1.92243,0.96855],[-3.16647,-1.5953]],[[74.88623,185.84604],[3.35236,1.21781],[-6.49139,-2.35812]],[[54.93867,180.86469],[6.25626,3.12813],[-7.43615,-1.60591]],[[47.77812,195.53823],[-3.75529,-5.30198],[2.50645,3.53878]],[[60.16101,199.03402],[-3.87419,-0.6457],[0,0]],[61.75001,199],[[64.25001,201.5],[0,-2.5],[0,2.5]],[61.75001,204],[[59.33901,203.96598],[0,0],[-2.25532,-0.37589]],[[52.56308,203.1248],[2.20846,0.33721],[2.47637,6.95547]],[[68.54058,217.12828],[-6.82339,-2.27181],[0,0]],[70.86804,218.26392],[[71.98607,221.61802],[1.11804,-2.23607],[-1.11803,2.23607]],[68.63197,222.73605],[[66.95943,221.87169],[0,0],[-2.27615,-0.75956]],[[60.40646,218.93963],[2.07051,1.19208],[0.96442,1.21145]],[[63.15153,222.68792],[-0.87987,-1.27093],[0.71413,1.03152]],[[66.56433,226.87336],[-1.16584,-0.64903],[2.99809,1.66905]],[[75.09676,228.52415],[-3.08189,-0.51125],[1.8865,0.31295]],[[80.75001,229.49999],[-1.91217,0.02145],[0,0]],[81.75001,229.49999],[[84.25001,231.99999],[0,-2.5],[0,2.5]],[81.75001,234.49999],[[80.75001,234.49999],[0,0],[-2.14287,-0.01819]],[[74.40326,233.47583],[2.11352,0.35395],[-0.1984,-0.03323]],[[73.81474,233.38447],[0.19403,0.02786],[0.17848,0.43915]],[[74.657,234.4335],[-0.40887,-0.23737],[0,0]]],&quot;closed&quot;:true,&quot;fillColor&quot;:[0,0,0,1]}]}" fill="#864100" stroke-width="0.5"></path><path d="M87.85659,173.74001c0.15444,0.07365 0.30884,0.14741 0.46322,0.22128c-0.15553,-0.03872 -0.31136,-0.07505 -0.4675,-0.10886c0.00163,-0.03746 0.00305,-0.07493 0.00428,-0.11242z" fill="#000000" stroke-width="0.5"></path><path d="M179.76307,195.51846c-2.55555,-0.46994 -5.32753,-0.9949 -7.03171,-2.75196c-4.63085,-4.77453 -4.73077,-10.75673 -3.28441,-16.51338c1.99307,-0.64144 3.92533,-1.5691 5.76674,-2.61928c0.96548,-0.55063 1.74297,-1.45062 2.76563,-1.88592c1.26458,-0.53827 2.75249,-0.46695 4.01553,-1.00883c1.13356,-0.48632 2.00051,-1.48785 3.10186,-2.04328c1.7836,-0.89951 3.8166,-1.23913 5.71168,-1.87083c2.0948,-0.72558 3.78527,-0.82272 5.68904,-0.84353l1.14833,0.56067c1.51137,1.00758 3.26801,1.69541 4.64817,2.84672c-5.14817,-2.84543 -11.36969,-3.72844 -14.38955,3.00772c-1.6121,3.59597 -2.51904,7.10108 1.05788,9.98986c0.78259,0.63203 1.88693,0.35433 2.83933,0.67811c0.5344,0.18168 1.07268,0.60274 1.59156,0.82489c0.16554,0.07087 0.70653,0.02746 0.53438,0.08031c-2.23892,0.68738 -3.62189,2.00343 -5.76903,3.08673c-1.62756,0.82115 -3.76067,0.58478 -5.257,1.62603c-1.07982,0.75141 -1.63815,2.061 -2.45459,3.09253c-0.22306,1.01005 -0.40643,1.92834 -0.62949,2.93838z" data-paper-data="{&quot;noHover&quot;:false,&quot;origItem&quot;:[&quot;Path&quot;,{&quot;applyMatrix&quot;:true,&quot;segments&quot;:[[[179.79855,194.75971],[0,0],[0.22306,-1.01004]],[[180.46773,191.72957],[-0.22306,1.01005],[0.81644,-1.03153]],[[182.91706,188.63498],[-1.07982,0.75141],[1.49633,-1.04125]],[[188.13909,187.01038],[-1.62756,0.82115],[2.14714,-1.0833]],[[193.88082,183.95187],[-2.23892,0.68738],[0.17215,-0.05285]],[[193.34669,183.87092],[0.16554,0.07087],[-0.51888,-0.22215]],[[191.84851,183.0818],[0.5344,0.18168],[-0.9524,-0.32378]],[[188.91707,182.36501],[0.78259,0.63203],[-3.57692,-2.88878]],[[187.9182,172.34851],[-1.6121,3.59597],[3.01986,-6.73616]],[[202.33534,169.36083],[-5.14817,-2.84543],[-1.38016,-1.15131]],[[197.61326,166.58013],[1.51137,1.00758],[0,0]],[[196.46756,166.02156],[0,0],[-1.90377,0.02081]],[[190.79058,166.87171],[2.0948,-0.72558],[-1.89508,0.6317]],[[185.09839,168.74579],[1.7836,-0.89951],[-1.10135,0.55543]],[[182.01139,170.78628],[1.13356,-0.48632],[-1.26304,0.54188]],[[178.01139,171.78628],[1.26458,-0.53827],[-1.02266,0.4353]],[[175.25482,173.66227],[0.96548,-0.55063],[-1.84141,1.05018]],[[169.4951,176.26659],[1.99307,-0.64144],[-1.44636,5.75665]],[[172.76777,192.73223],[-4.63085,-4.77453],[1.70418,1.75706]],[[179.78118,195.47185],[-2.55555,-0.46994],[0,0]]],&quot;closed&quot;:true,&quot;fillColor&quot;:[0,0,0,1]}]}" fill="#ffffff" stroke-width="0.5"></path><path d="M154.3457,189.89761c-5.8951,-1.99284 -11.51843,-7.01161 -13.93125,-11.80734c-0.61929,-1.23092 -0.93324,-3.15904 -1.20385,-4.57171c1.04399,-0.13449 2.05939,-0.38283 2.98233,-0.87456c2.22911,-1.18763 3.65432,-3.89969 4.48515,-6.53891c0.36137,0.12549 0.70062,0.28049 1.00274,0.47178c3.46094,2.19131 5.35903,5.83236 8.32589,8.20791c-0.04298,0.08811 -0.08195,0.17924 -0.11769,0.27105c-0.45586,1.17107 0.75717,2.43057 0.95589,3.67143c0.1486,0.92785 -0.21622,1.94134 0.07919,2.83337c0.23808,0.71891 1.14716,1.06484 1.43153,1.76673c0.32279,0.79671 -3.03947,4.44348 -3.25849,4.74021z" data-paper-data="{&quot;noHover&quot;:false,&quot;origItem&quot;:[&quot;Path&quot;,{&quot;applyMatrix&quot;:true,&quot;segments&quot;:[[[155.07059,188.02519],[0,0],[0.21902,-0.29673]],[[158.31193,183.30303],[0.32279,0.79671],[-0.28437,-0.70189]],[[156.87828,181.54058],[0.23808,0.71891],[-0.29541,-0.89203]],[[156.7951,178.72278],[0.1486,0.92785],[-0.19872,-1.24086]],[[155.84284,175.07501],[-0.45586,1.17107],[0.03574,-0.09181]],[[155.96104,174.80515],[-0.04298,0.08811],[-2.96686,-2.37555]],[[147.68566,166.62663],[3.46094,2.19131],[-0.30212,-0.19129]],[[146.68683,166.15431],[0.36137,0.12549],[-0.83083,2.63922]],[[142.23174,172.67551],[2.22911,-1.18763],[-0.92294,0.49173]],[[139.25588,173.53975],[1.04399,-0.13449],[0.27061,1.41267]],[[140.46444,178.08975],[-0.61929,-1.23092],[2.41282,4.79573]],[[154.32455,189.8523],[-5.8951,-1.99284],[0,0]]],&quot;closed&quot;:true,&quot;fillColor&quot;:[0,0,0,1]}]}" fill="#ffffff" stroke-width="0.5"></path><path d="M203.9111,140.88289c3.23717,4.26564 3.04589,8.60169 3.44818,13.27224c-1.94438,-0.4792 -3.83464,-0.79557 -6.01651,-1.10311c-3.59495,-0.50672 -7.15889,-1.92438 -10.63579,-2.90298c-2.68465,-0.75562 -5.58211,-0.68821 -8.34304,-1.08264c-1.0435,-0.14908 -1.96651,-0.84199 -3.00716,-1.00983c-2.22534,-0.35891 -5.03166,-0.53992 -7.80449,-0.52182c1.01263,-3.7926 2.64597,-6.35325 5.16891,-9.8263c2.46025,-3.38675 3.6479,-5.28515 7.95926,-6.04489c1.55713,-0.27439 4.92545,-1.51698 6.55681,-0.68047c4.85783,2.49094 8.7836,6.02799 12.67383,9.8998z" data-paper-data="{&quot;noHover&quot;:false,&quot;origItem&quot;:[&quot;Path&quot;,{&quot;applyMatrix&quot;:true,&quot;segments&quot;:[[[203.86137,140.88825],[0,0],[-3.89023,-3.87181]],[[191.22958,131.03251],[4.85783,2.49094],[-1.63136,-0.83651]],[[184.70071,131.70928],[1.55713,-0.27439],[-4.31136,0.75974]],[[176.76805,137.72587],[2.46025,-3.38675],[-2.52294,3.47305]],[[171.60036,147.52108],[1.01263,-3.7926],[2.77283,-0.0181]],[[179.40046,148.03228],[-2.22534,-0.35891],[1.04065,0.16784]],[[182.40046,149.03228],[-1.0435,-0.14908],[2.76093,0.39443]],[[190.69898,150.0997],[-2.68465,-0.75562],[3.4769,0.9786]],[[201.30547,153.01873],[-3.59495,-0.50672],[2.18187,0.30754]],[[207.31744,154.12776],[-1.94438,-0.4792],[-0.40229,-4.67055]],[[203.86138,140.88825],[3.23717,4.26564],[0,0]]],&quot;closed&quot;:true,&quot;fillColor&quot;:[0,0,0,1]}]}" fill="#ff0000" stroke-width="0.5"></path><path d="M187.26647,241.04721c-4.93388,0 -9.93181,-0.03181 -14.86569,-0.03181c2.56057,-2.39477 6.26211,-4.00917 8.86442,-6.08152c0,0 0.24767,-0.20226 0.49436,-0.54145c2.2205,-0.09886 4.51795,-0.2323 6.73202,-0.43627c3.60743,-0.33233 7.10025,-1.00651 10.60342,-1.57789c-1.48659,0.58378 -3.40853,1.33702 -3.67319,1.52074c-2.57803,1.78958 -4.9683,4.31398 -6.85621,7.14295z" data-paper-data="{&quot;noHover&quot;:false,&quot;origItem&quot;:[&quot;Path&quot;,{&quot;applyMatrix&quot;:true,&quot;segments&quot;:[[[188.53839,241],[0,0],[1.88791,-2.82897]],[[195.37377,233.91289],[-2.57803,1.78958],[0.26466,-0.18372]],[[199.04742,232.39365],[-1.48659,0.58378],[-3.50317,0.57138]],[[188.4562,233.99148],[3.60743,-0.33233],[-2.21407,0.20397]],[[181.80285,234.41743],[2.2205,-0.09886],[-0.24669,0.33919]],[[181.31173,234.95217],[0,0],[-2.60231,2.07235]],[[172.44835,241],[2.56057,-2.39477],[4.93388,0]],[[187.24999,241],[-4.93388,0],[0,0]]],&quot;closed&quot;:true,&quot;fillColor&quot;:[0,0,0,1]}]}" fill="#ffde00" stroke-width="0.5"></path><path d="M184.48221,251.14124c-5.16727,0.44376 -10.76031,1.87709 -15.91036,1.86207c-0.04769,-2.29486 0.13725,-4.80715 0.8017,-7.02368c5.05375,0 11.24289,0.00163 16.5549,0.00163c-0.67775,1.6739 -1.17213,3.43003 -1.44624,5.15999z" data-paper-data="{&quot;noHover&quot;:false,&quot;origItem&quot;:[&quot;Path&quot;,{&quot;applyMatrix&quot;:true,&quot;segments&quot;:[[[185.8821,246],[-0.67775,1.6739],[-5.31201,0]],[[169.41921,246],[5.05375,0],[-0.66445,2.21653]],[[168.6182,252.98455],[-0.04769,-2.29486],[5.15005,0.01502]],[[184.43346,251.13013],[-5.16727,0.44376],[0.27411,-1.72996]]],&quot;closed&quot;:true,&quot;fillColor&quot;:[0,0,0,1]}]}" fill="#ffde00" stroke-width="0.5"></path><path d="M184.874,260.40164c-0.1815,0.726 -0.09392,1.29866 0.12151,1.73121c-4.59275,-0.0806 -9.31639,0.35656 -13.80138,-0.56511c0,0 -0.39814,-0.08181 -0.90477,-0.01684c-0.51254,-1.18047 -0.92325,-2.4324 -1.20718,-3.71029c5.02055,-0.16053 10.23288,-1.35571 15.26371,-1.73985c0.13986,1.2951 0.38161,2.60068 0.66357,3.87524c-0.05154,0.12957 -0.09728,0.27297 -0.13545,0.42565z" data-paper-data="{&quot;noHover&quot;:false,&quot;origItem&quot;:[&quot;Path&quot;,{&quot;applyMatrix&quot;:true,&quot;segments&quot;:[[[184.82465,260.39366],[0,0],[0.03817,-0.15268]],[[184.95973,259.97075],[-0.05154,0.12957],[-0.28196,-1.27456]],[[184.29971,256.11995],[0.13986,1.2951],[-5.03083,0.38414]],[[169.13152,257.84863],[5.02055,-0.16053],[0.28393,1.27789]],[[170.33643,261.53406],[-0.51254,-1.18047],[0.50663,-0.06497]],[[171.24029,261.54854],[0,0],[4.48499,0.92167]],[[184.94872,262.1152],[-4.59275,-0.0806],[-0.21543,-0.43255]],[[184.82464,260.39365],[-0.1815,0.726],[0,0]]],&quot;closed&quot;:true,&quot;fillColor&quot;:[0,0,0,1]}]}" fill="#ffde00" stroke-width="0.5"></path><path d="M175.38661,269.15013c-0.64622,-0.71735 -1.29055,-1.5499 -1.86911,-2.30789c4.35403,0.34763 8.81202,-0.08008 13.17255,0.26506c0.06843,0.3444 0.13481,0.69233 0.19358,1.03794c0.18444,0.46771 0.372,0.94061 0.55644,1.40832c-0.38132,0.31046 -0.75175,0.64177 -1.14516,0.92445c-3.10488,2.23098 -8.45212,6.91745 -8.95169,11.61305c-2.06445,0.41725 -4.16329,0.79235 -6.2776,0.95448c-0.77926,0.05976 -1.57555,-0.10618 -2.35122,-0.01043c-0.39022,0.04817 -0.81809,0.70279 -1.09974,0.42845c-0.43774,-0.42638 0.02405,-1.30552 -0.31872,-1.81141c-0.41631,-0.61444 -0.87269,-1.26956 -1.40709,-1.80383c1.86689,-0.87727 3.63777,-1.81272 5.67505,-2.48125c2.05545,-0.82308 6.79223,-2.38212 7.15298,-4.73213c0.24561,-1.59999 -2.24683,-2.28211 -3.33028,-3.4848z" data-paper-data="{&quot;noHover&quot;:false,&quot;origItem&quot;:[&quot;Path&quot;,{&quot;applyMatrix&quot;:true,&quot;segments&quot;:[[[175.37625,269.10123],[0,0],[1.08345,1.20269]],[[178.74817,272.59594],[0.24561,-1.59999],[-0.36075,2.35001]],[[171.6099,277.34747],[2.05545,-0.82308],[-2.03728,0.66853]],[[165.93475,279.82849],[1.86689,-0.87727],[0.5344,0.53427]],[[167.33711,281.62377],[-0.41631,-0.61444],[0.34277,0.50589]],[[167.65157,283.42983],[-0.43774,-0.42638],[0.28165,0.27434]],[[168.75,283],[-0.39022,0.04817],[0.77567,-0.09575]],[[171.09465,283.00483],[-0.77926,0.05976],[2.11431,-0.16213]],[[177.33833,282.0413],[-2.06445,0.41725],[0.49957,-4.6956]],[[186.25,270.5],[-3.10488,2.23098],[0.39341,-0.28268]],[[187.39577,269.57675],[-0.38132,0.31046],[-0.18444,-0.46771]],[[186.84247,268.17363],[0.18444,0.46771],[-0.05877,-0.34561]],[[186.65113,267.13869],[0.06843,0.3444],[-4.36053,-0.34514]],[[173.53513,266.88903],[4.35403,0.34763],[0.57856,0.75799]],[[175.37625,269.10122],[-0.64622,-0.71735],[0,0]]],&quot;closed&quot;:true,&quot;fillColor&quot;:[0,0,0,1]}]}" fill="#ffde00" stroke-width="0.5"></path><path d="M194.24722,265.04992c0,-0.06172 0.004,-0.22177 0.00103,-0.28048c2.02122,0.24841 4.06646,0.41711 6.10353,0.52009c0.14046,0.90287 0.31019,1.79695 0.47946,2.6629l0.58535,1.80597c0,0 0.41074,1.22328 1.51012,1.6244l0.45527,2.24562c0.863,2.51 1.38638,5.22559 0.95807,7.92075c-0.09899,0.62291 -0.55803,1.14742 -0.72848,1.75468c-0.07366,0.26241 0.27533,0.82547 0.00283,0.81978c-0.36551,-0.00763 -0.37961,-0.68434 -0.71352,-0.83321c-1.48393,-0.66158 -3.08513,-2.04257 -4.62976,-1.53872c-1.26257,0.41185 -1.14557,2.41397 -1.70984,3.61619c-1.01395,0.96178 -2.48187,1.33436 -3.77175,1.87225c-0.45435,0.18947 -0.91515,0.38656 -1.35602,0.60988c1.17299,-2.25516 2.05031,-5.57439 -0.3076,-7.3773c-1.38751,-1.06092 -3.54145,0.28005 -5.17633,0.89479c-0.92894,0.34929 -1.40028,1.27038 -2.2145,1.83782c-0.11971,0.08343 -0.38852,0.23533 -0.57961,0.30387c0.11716,-0.54015 0.14013,-1.33957 -0.41345,-2.01689c1.16822,-3.42612 5.42962,-7.43683 8.54441,-7.97728c0.15318,-0.00022 0.31679,-0.0208 0.47951,-0.05956c0.15619,-0.00922 0.31401,-0.01156 0.4622,-0.00044c0,0 2.51144,0.09386 2.51144,-2.40614c0,-2.2149 -1.94382,-2.46705 -2.39138,-2.49585c-0.13762,-0.33816 -0.29271,-0.77478 -0.43033,-1.11295c0.5706,-0.0555 2.33492,-0.3971 2.33492,-2.49002z" data-paper-data="{&quot;noHover&quot;:false,&quot;origItem&quot;:[&quot;Path&quot;,{&quot;applyMatrix&quot;:true,&quot;segments&quot;:[[[194.25,265],[0,0],[0,2.09292]],[[191.92728,267.48921],[0.5706,-0.0555],[0.13762,0.33817]],[[192.34013,268.50371],[-0.13762,-0.33816],[0.44756,0.0288]],[[194.75001,271],[0,-2.2149],[0,2.5]],[[192.25001,273.5],[0,0],[-0.14819,-0.01112]],[[191.79314,273.49743],[0.15619,-0.00922],[-0.16272,0.03876]],[[191.31845,273.55344],[0.15318,-0.00022],[-3.11479,0.54045]],[[182.78716,281.47081],[1.16822,-3.42612],[0.55358,0.67732]],[[183.19666,283.48086],[0.11716,-0.54015],[0.19109,-0.06854]],[[183.69408,283.23395],[-0.11971,0.08343],[0.81422,-0.56744]],[[185.99132,281.33999],[-0.92894,0.34929],[1.63488,-0.61474]],[[191.15159,280.42983],[-1.38751,-1.06092],[2.35791,1.80291]],[[191.44281,287.80091],[1.17299,-2.25516],[0.44087,-0.22332]],[[192.79331,287.1903],[-0.45435,0.18947],[1.28988,-0.53789]],[[196.54583,285.32036],[-1.01395,0.96178],[0.56427,-1.20222]],[[198.23863,281.71372],[-1.26257,0.41185],[1.54463,-0.50385]],[[202.86092,283.26039],[-1.48393,-0.66158],[0.33391,0.14887]],[[203.57501,284.09286],[-0.36551,-0.00763],[0.2725,0.00569]],[[203.57061,283.2752],[-0.07366,0.26241],[0.17045,-0.60726]],[[204.29513,281.52724],[-0.09899,0.62291],[0.42831,-2.69516]],[[203.33377,273.64168],[0.863,2.51],[0,0]],[[202.88252,271.40621],[0,0],[-1.09938,-0.40112]],[201.37831,269.79058],[[200.79857,267.9903],[0,0],[-0.16927,-0.86595]],[[200.32571,265.33221],[0.14046,0.90287],[-2.03707,-0.10298]],[[194.24552,264.81938],[2.02122,0.24841],[0.00297,0.05871]],[[194.25001,265.00001],[0,-0.06172],[0,0]]],&quot;closed&quot;:true,&quot;fillColor&quot;:[0,0,0,1]}]}" fill="#ffde00" stroke-width="0.5"></path><path d="M192.44288,245.59829c3.27013,1.95678 6.59875,3.9488 9.86382,5.91019c-0.51475,0.75238 -0.97374,1.64502 -1.37321,2.69359c-0.73923,1.94042 -1.03209,4.04816 -1.02617,6.14711c-3.39141,-0.19459 -6.80249,-0.58082 -10.19309,-1.30104c-0.2594,-1.15141 -0.4728,-2.31942 -0.55225,-3.46l0.64885,-0.14209c0,0 2.42107,-0.63145 1.81473,-3.0568c-0.33559,-1.34234 -1.22548,-1.76889 -1.95589,-1.87068c0.47815,-1.91509 1.25591,-3.72712 2.23313,-5.36309c0.28219,0.28983 0.54009,0.44282 0.54009,0.44282z" data-paper-data="{&quot;noHover&quot;:false,&quot;origItem&quot;:[&quot;Path&quot;,{&quot;applyMatrix&quot;:true,&quot;segments&quot;:[[192.46376,245.64373],[[191.92529,245.20013],[0.28219,0.28983],[-0.97722,1.63597]],[[189.71657,250.53586],[0.47815,-1.91509],[0.73041,0.10179]],[[191.67535,252.39366],[-0.33559,-1.34234],[0.60634,2.42535]],[189.85633,255.42535],[[189.20787,255.56833],[0,0],[0.07945,1.14058]],[[189.74876,259.012],[-0.2594,-1.15141],[3.3906,0.72022]],[[199.88322,260.30536],[-3.39141,-0.19459],[-0.00592,-2.09895]],[[200.88531,254.18865],[-0.73923,1.94042],[0.39947,-1.04857]],[[202.25756,251.51778],[-0.51475,0.75238],[-3.26507,-1.96139]],[[192.46376,245.64372],[3.27013,1.95678],[0,0]]],&quot;closed&quot;:true,&quot;fillColor&quot;:[0,0,0,1]}]}" fill="#ffde00" stroke-width="0.5"></path><path d="M194.98629,241.35411c0,0 -0.03737,-0.02275 -0.10523,-0.05675c2.48678,-2.55967 5.66156,-4.58791 9.07193,-5.87023c0.23008,0.48496 0.54189,0.79228 0.54189,0.79228c2.7915,2.77985 4.60822,4.66414 6.659,8.08212l0.08526,0.09603c-0.83004,0.49841 -1.64446,1.04905 -2.42474,1.61437c-0.99528,0.72109 -1.94018,1.3552 -2.79441,1.96825c-3.66126,-2.19398 -7.37345,-4.4245 -11.0337,-6.62608z" data-paper-data="{&quot;noHover&quot;:false,&quot;origItem&quot;:[&quot;Path&quot;,{&quot;applyMatrix&quot;:true,&quot;segments&quot;:[[[195.03624,241.35627],[0,0],[3.66025,2.20158]],[[205.99866,247.93495],[-3.66126,-2.19398],[0.85423,-0.61305]],[[208.77437,245.98196],[-0.99528,0.72109],[0.78028,-0.56532]],[[211.19165,244.38192],[-0.83004,0.49841],[0,0]],[[211.10627,244.28625],[0,0],[-2.05078,-3.41798]],[[204.48224,236.26778],[2.7915,2.77985],[0,0]],[[203.94596,235.47663],[0.23008,0.48496],[-3.41037,1.28232]],[[194.931,241.29985],[2.48678,-2.55967],[0.06786,0.034]],[195.03624,241.35628]],&quot;closed&quot;:true,&quot;fillColor&quot;:[0,0,0,1]}]}" fill="#ffde00" stroke-width="0.5"></path><path d="M241.22777,237.44507c0.49178,0.05355 0.99646,0.08352 1.50211,0.09709c0.65804,0.77888 1.72859,0.89498 1.72859,0.89498c4.02353,0.44678 8.13788,1.23455 12.17413,1.52548c2.05815,0.14835 6.48174,-0.36837 8.33067,0.63334c1.84434,0.99922 1.47012,5.92093 1.84521,7.6113c0.07547,0.34013 0.5817,0.70933 0.36474,0.98194c-0.47799,0.6006 -3.74121,0.36237 -3.84632,0.36142l-1.37735,0.47715c-3.28557,-1.57887 -7.18371,-2.48877 -10.26158,-3.80804c0,0 -2.20306,-1.01641 -3.18786,1.28145c-0.9848,2.29786 1.23491,3.25681 1.23491,3.25681c1.51918,0.65099 4.41631,1.94401 6.11336,2.5619c0.73218,0.26658 1.95899,0.58946 3.24311,1.01155c0.75062,1.29736 2.03247,1.21359 2.66596,1.07496c0.94962,0.49357 1.80732,1.13081 2.14313,1.84303c0.13905,0.29491 -0.33607,0.56735 -0.44041,0.87625c-0.12476,0.36936 0.13772,1.06823 -0.24421,1.14647c-0.67459,0.13818 -1.28398,-0.50525 -1.946,-0.69469c-1.29912,-0.37175 -2.61942,-0.67734 -3.93606,-0.98125c-3.09998,-0.71553 -6.80664,-0.78163 -9.77213,-1.91088c-0.80279,-0.3057 -1.56011,-0.66692 -2.25696,-1.06923c-0.20636,-0.47469 -0.42721,-0.8693 -0.62689,-1.13559c-0.75711,-1.00968 -2.12997,-1.40542 -3.18459,-2.09856c0,0 -0.2612,-0.15898 -0.65361,-0.27174c-0.78551,-0.75521 -1.56556,-1.56564 -2.37168,-2.37276l-2.00004,-2.01001c0,0 -1.66813,-1.7593 -3.4359,0.00847c-1.76777,1.76776 -0.00058,3.52348 -0.00058,3.52348l1.99779,1.99157c1.77462,1.77252 3.40521,3.3868 5.22605,4.8008c-1.88902,-0.71629 -3.99862,-1.05901 -5.70177,-2.13346l-0.00003,-0.00001c-2.47129,-1.55904 -4.77569,-4.31125 -6.79207,-6.96552c0.00015,-0.00012 0.00023,-0.00018 0.00023,-0.00018c4.09099,-3.28049 7.75357,-7.06277 10.16647,-11.66261c1.0666,0.51894 2.13734,1.02856 3.29957,1.15511z" data-paper-data="{&quot;noHover&quot;:false,&quot;origItem&quot;:[&quot;Path&quot;,{&quot;applyMatrix&quot;:true,&quot;segments&quot;:[[[241.25366,237.48783],[0,0],[-1.16223,-0.12655]],[[237.96016,236.3284],[1.0666,0.51894],[-2.4129,4.59984]],[[227.81172,247.95216],[4.09099,-3.28049],[0,0]],[[227.81149,247.95234],[0.00015,-0.00012],[2.01638,2.65427]],[[234.59736,254.89415],[-2.47129,-1.55904],[0,0]],[[234.59739,254.89416],[0,0],[1.70315,1.07445]],[[240.22456,257.09112],[-1.88902,-0.71629],[-1.82084,-1.414]],[[234.98223,252.26776],[1.77462,1.77252],[0,0]],[232.98223,250.26776],[[232.98223,246.73223],[-1.76777,1.76776],[1.76777,-1.76777]],[236.51776,246.73223],[[238.51776,248.73223],[0,0],[0.80612,0.80712]],[[240.88446,251.08789],[-0.78551,-0.75521],[0.39241,0.11276]],[[241.53623,251.35627],[0,0],[1.05462,0.69314]],[[244.7001,253.43568],[-0.75711,-1.00968],[0.19968,0.26629]],[[245.32008,254.56847],[-0.20636,-0.47469],[0.69685,0.40231]],[[247.56133,255.63531],[-0.80279,-0.3057],[2.96549,1.12925]],[[257.29846,257.5609],[-3.09998,-0.71553],[1.31664,0.30391]],[[261.23057,258.54662],[-1.29912,-0.37175],[0.66202,0.18944]],[[263.17556,259.24265],[-0.67459,0.13818],[0.38193,-0.07824]],[[263.41818,258.0985],[-0.12476,0.36936],[0.10434,-0.3089]],[[263.85725,257.22445],[0.13905,0.29491],[-0.33581,-0.71222]],[[261.80155,255.42992],[0.94962,0.49357],[-0.63349,0.13863]],[[259.13504,254.35597],[0.75062,1.29736],[-1.28412,-0.42209]],[[255.89008,253.34745],[0.73218,0.26658],[-1.69705,-0.61789]],[[249.76518,250.79785],[1.51918,0.65099],[0,0]],[[248.45212,247.51519],[-0.9848,2.29786],[0.9848,-2.29786]],[[251.73478,246.20213],[0,0],[3.07787,1.31927]],[[261.99897,250.03539],[-3.28557,-1.57887],[0,0]],[[263.27721,249.5451],[0,0],[0.10511,0.00095]],[[267.12335,249.18566],[-0.47799,0.6006],[0.21696,-0.27261]],[[266.7585,248.20619],[0.07547,0.34013],[-0.37509,-1.69037]],[[264.91705,240.61501],[1.84434,0.99922],[-1.84893,-1.00171]],[[256.59464,239.99516],[2.05815,0.14835],[-4.03625,-0.29093]],[[244.4739,238.4847],[4.02353,0.44678],[0,0]],[[242.75095,237.5875],[0.65804,0.77888],[-0.50565,-0.01357]],[[241.25367,237.48784],[0.49178,0.05355],[0,0]]],&quot;closed&quot;:true,&quot;fillColor&quot;:[0,0,0],&quot;strokeWidth&quot;:0.5}]}" fill="#864100" stroke-width="0.25"></path><path d="M110.02397,202.45496c-2.97411,2.96806 -5.61938,6.04301 -8.17017,9.27151c0.27617,-1.07878 0.46592,-2.0448 0.58691,-2.89174c0.60076,-4.20519 0.72657,-8.46379 1.91024,-12.62761c0.87909,-3.09237 2.75607,-5.33592 3.72788,-8.4075c2.82819,-2.72692 5.50815,-4.92916 8.5324,-7.45321c2.32041,-1.93661 4.60153,-3.93503 7.78877,-4.42868c0.95694,-0.14821 1.95535,0.15433 2.9135,0.0142c2.38813,-0.34927 4.60212,-1.56529 6.9772,-1.98604c0.01183,0.15551 0.03102,0.25011 0.03102,0.25011c1.38484,6.86042 6.53796,13.73099 13.01655,17.79749c-1.48002,-0.1535 -3.08554,-0.23526 -4.63818,-0.24015c-8.07088,0.01598 -18.58723,0.15501 -25.75092,4.35421c-3.13561,1.83802 -4.4567,3.88393 -6.9252,6.34741z" data-paper-data="{&quot;noHover&quot;:false,&quot;origItem&quot;:[&quot;Path&quot;,{&quot;applyMatrix&quot;:true,&quot;segments&quot;:[[[109.98224,202.48248],[0,0],[2.4685,-2.46348]],[[116.99519,196.08798],[-3.13561,1.83802],[7.16369,-4.1992]],[[142.75,191.75025],[-8.07088,0.01598],[1.55264,0.00489]],[[147.28831,191.99541],[-1.48002,-0.1535],[-6.47859,-4.0665]],[[134.29855,174.24029],[1.38484,6.86042],[0,0]],[[134.26783,173.99034],[0.01183,0.15551],[-2.37508,0.42075]],[[127.30546,175.98127],[2.38813,-0.34927],[-0.95815,0.14013]],[[124.40045,175.96772],[0.95694,-0.14821],[-3.18724,0.49365]],[[116.638,180.38863],[2.32041,-1.93661],[-3.02425,2.52405]],[[108.12662,187.81433],[2.82819,-2.72692],[-0.97181,3.07158]],[[104.40029,196.19897],[0.87909,-3.09237],[-1.18367,4.16382]],[[102.48126,208.80546],[0.60076,-4.20519],[-0.12099,0.84694]],[[101.81534,211.75841],[0.27617,-1.07878],[2.55079,-3.2285]],[[109.98223,202.48248],[-2.97411,2.96806],[0,0]]],&quot;closed&quot;:true,&quot;fillColor&quot;:[0,0,0],&quot;strokeWidth&quot;:0.5}]}" fill="#864100" stroke-width="0.25"></path><path d="M228.53141,233.03888c0,2.5 2.43686,2.42246 2.43686,2.42246l0.4997,0.00025c0.38011,0 0.76433,-0.03659 1.15027,-0.08327l0.14436,0.10214c-1.03571,1.68035 -2.28421,3.22501 -3.65939,4.65665c-0.07393,0.01853 -0.11557,0.03244 -0.11557,0.03244l-0.00002,0.00001c-0.89337,0.29779 -1.76257,0.63313 -2.62059,0.94655c-0.06386,-0.01748 -0.10083,-0.02482 -0.10083,-0.02482c-2.87392,-0.5272 -5.72496,-0.30019 -8.44672,0.44616c-0.50128,-0.0352 -1.10444,0.05798 -1.62995,0.51316c-0.11442,0.04063 -0.22894,0.08227 -0.34283,0.12463c-0.1661,-0.24999 -0.31222,-0.39589 -0.31222,-0.39589l-0.12414,-0.01843c-1.87617,-3.12694 -3.72202,-5.24098 -6.05393,-7.63604c0.21711,-0.0323 0.40857,-0.15839 0.62646,-0.18519c1.37039,-0.16857 2.65629,0.89829 4.03696,0.90995c0.07786,0.00066 0.15539,0.00033 0.23309,-0.00111l-0.01122,0.05629l2.44704,0.49085c0.17418,0.03842 0.35467,0.0589 0.5404,0.0589c1.38071,0 2.49637,-1.11744 2.49637,-2.49815c0,-0.82832 -0.35376,-1.47542 -0.9742,-1.93034l-1.97792,-1.48188c-2.89177,-2.13454 -4.90318,-2.94146 -8.50941,-2.99618c-6.95145,0 -13.38507,1.89324 -20.23764,2.50737c-5.02751,0.45057 -10.15701,0.36724 -15.2028,0.73367c-0.25211,-0.24877 -0.59808,-0.4673 -1.0661,-0.6233c-1.68137,-0.56045 -2.5693,0.46728 -2.94305,1.11369c-1.55204,0.43583 -3.00151,1.30619 -4.50161,1.92374c-0.19901,0.08193 -0.4015,0.15232 -0.60646,0.21371c-0.91909,-0.33561 -1.80941,-0.70757 -2.64562,-1.12978c-1.07285,-0.5417 -1.9263,-1.46675 -3.0021,-2.00257c-2.28381,-1.13748 -4.50542,-1.63311 -5.97522,-4.07372c-1.12087,-1.86121 -1.17696,-4.18946 -1.70391,-6.29724c-0.57162,-2.28648 -1.62649,-4.46717 -1.95985,-6.80032c-0.31116,-2.17776 0.04365,-4.40568 0.03097,-6.60552c-0.005,-0.86657 -0.09378,-1.7376 -0.0326,-2.60202c0.11518,-1.6274 1.60177,-3.61129 0.56011,-4.86693c-1.17501,-1.41638 -3.48823,-1.00482 -5.32856,-1.00612c-1.05409,-0.00074 -1.96025,0.82585 -3,0.99914c-0.98639,0.1644 -2.01439,-0.16903 -3,0.00002c-0.2725,0.04674 -5.92077,1.93807 -6.39016,2.09453c-2.4029,0.81791 -4.80252,1.86312 -6.79453,3.43627c-0.65425,0.51667 -1.01279,1.37978 -1.72946,1.80566c-0.85638,0.5089 -1.98165,0.41647 -2.84597,0.91179c-2.5189,1.44351 -4.57458,3.60871 -7.09487,5.04979c-1.36505,0.78053 -2.90418,1.25306 -4.20709,2.1334c-0.62908,0.42505 -0.78623,1.44571 -1.49507,1.71766c-0.47314,0.18151 -1.09596,0.06752 -1.61744,-0.03969c2.49823,-3.1738 5.07692,-6.19655 7.99304,-9.11829c2.75367,-2.75897 4.67858,-5.51071 8.54335,-6.90696c6.19553,-2.23831 14.31968,-2.37953 20.78864,-2.36511c5.23473,-0.01944 9.8257,1.07909 14.8533,2.41227c2.96079,0.78512 3.87191,0.61305 6.29902,2.18755c4.59004,2.97762 8.33612,6.68688 13.05454,9.51793l0.29617,0.30693c-1.84671,0.54013 -3.98081,0.72721 -5.84367,1.11002l-2.25436,-0.01355c0,0 -2.41069,-0.04496 -2.41069,2.45504c0,2.5 2.49766,2.49599 2.49766,2.49599l2.74512,-0.01397c4.85653,-0.94935 11.5812,-1.46255 14.03112,-6.47318c0.45435,-0.92926 0.37084,-1.95448 0.5939,-2.96452c0,0 0.48467,-2.46042 -1.96678,-2.95071c-2.45145,-0.49029 -2.85236,1.91633 -2.85236,1.91633c-0.07297,0.43451 -0.18545,0.82665 -0.33088,1.18459c-0.18744,-0.17997 -0.41921,-0.2275 -0.41921,-0.2275l-1.60222,-1.06704c-4.66034,-2.7962 -8.35147,-6.60651 -12.94327,-9.48315c-1.61728,-1.01319 -2.58558,-1.46461 -3.60591,-1.78108c1.41457,-0.30495 2.91227,-0.78807 4.27553,-1.48698c0.59804,0.8304 1.28409,1.62792 2.06519,2.39386c3.35364,3.28854 7.81876,3.41708 12.06799,4.62144c3.70036,1.04879 6.83684,1.14521 10.69303,1.08369c1.24185,-0.01981 2.5386,0.27916 3.71507,-0.11894c5.80781,-1.96528 9.76836,-9.19246 11.58355,-14.52525c1.30478,-4.03585 1.15595,-7.56265 1.13973,-11.78419c-0.00844,-2.19597 0.24805,-4.47863 -0.47136,-6.56837l1.00518,-0.02568c0,0 2.46693,0.09434 2.46693,-2.40566c0,-2.5 -2.49558,-2.49856 -2.49558,-2.49856l-0.2092,0.12835c-2.14851,-0.69756 -3.90414,-2.33574 -6.0571,-3.01945c-3.77884,-1.20004 -9.90131,-0.14328 -13.49667,1.01908c-0.37714,0.12572 -6.11289,2.03004 -6.29949,2.12259c-1.04837,0.51998 -1.83309,1.49662 -2.9089,1.95718c-1.26345,0.5409 -2.73384,0.45277 -3.99584,0.99706c-2.43064,1.0483 -4.38513,2.31464 -6.39276,3.30656c-0.21492,-0.15509 -0.47776,-0.29123 -0.79869,-0.39821c-2.37171,-0.79057 -3.15986,1.57817 -3.15986,1.57817c-0.02695,0.08099 -0.05351,0.16188 -0.08003,0.2431c-0.45587,0.08552 -0.92616,0.14597 -1.41633,0.17918c-0.66549,-0.38286 -1.38078,-0.3833 -1.38078,-0.3833c-0.87463,0.0341 -1.90078,-0.26309 -2.74853,-0.12093c-3.90866,-1.55588 -6.26451,-7.27674 -9.76899,-9.31314c-0.84299,-0.48984 -1.74689,-0.83116 -2.68887,-1.06607c0.10745,-1.83393 0.12423,-4.05732 0.92187,-5.60943c4.60144,-1.03156 9.2102,-1.07471 13.86131,-1.73914c1.0435,-0.14907 1.96333,-0.82213 3.00202,-1.00164c2.16775,-0.37463 4.40376,0.02944 6.60363,0.02944c2.19988,0 4.43681,-0.40965 6.60455,-0.03502c6.01035,1.03871 11.79397,2.46107 17.81144,3.95295c3.96633,0.98336 7.55013,1.3738 11.38001,2.48671c0.05056,0.55263 0.38123,2.34003 2.49455,2.34003c0.82244,0 1.37617,-0.26998 1.7465,-0.63309c0.12099,0.0795 0.23872,0.16512 0.35136,0.2578c2.662,2.19044 2.90363,6.69363 4.53843,9.44527c0.48156,0.81054 1.51454,1.19653 2.00362,2.00256c0.47825,0.78818 0.45959,1.79621 0.81985,2.64483c1.58321,3.72939 3.33422,7.24471 3.84051,11.36534c0.04854,0.39505 0.05435,0.79498 0.04182,1.19405c-0.05969,0.2952 -0.05937,0.5033 -0.05937,0.5033c0,2.05527 -0.68752,6.69441 0.19352,8.47333c2.71262,5.47709 8.27811,4.09424 12.81245,2.96731c10.24894,-2.54719 21.7243,-7.02475 28.28692,-15.77492c2.54177,-2.54177 5.12503,-4.77388 7.50092,-7.49624c2.12609,-2.43614 3.78089,-5.16015 6.4885,-7.04807c2.41167,-1.68157 3.81567,-0.61083 6.31798,-0.1516c1.33445,0.2449 2.82056,-0.38604 4.06776,0.14802c1.29371,0.55398 0.15249,4.93537 -0.08098,5.74041c-1.45515,5.01746 -4.26113,9.04658 -7.18598,13.2347c-1.85033,0.87018 -3.68718,1.77022 -5.51604,2.68465l-1.99996,1.00056c0,0 -2.23595,1.12025 -1.11792,3.35632c1.11803,2.23606 3.25412,1.11977 3.25412,1.11977l2.00001,-0.99938c2.17133,-1.08567 4.33136,-2.19236 6.48391,-3.31483c2.11359,-2.69302 4.42653,-5.65901 6.17638,-8.83074c3.56941,2.21746 3.49039,6.27163 1.55228,10.35767c-2.73106,5.7578 -7.72627,8.50991 -13.25499,11.27497l-2.40442,0.96017c0,0 -2.3215,0.93066 -1.39302,3.25185c0.92848,2.3212 3.15098,1.37662 3.15098,1.37662l2.59552,-1.03972c2.91642,-1.45788 6.75356,-3.22297 9.72049,-5.48513c0.95468,3.61884 -1.21101,8.07452 -4.46043,10.0949c-1.85267,1.15193 -4.65316,0.62776 -6.6859,0.62776l-0.50001,0.00006c0,0 -2.50044,0.00182 -2.50044,2.50182c0,2.5 2.49972,2.50104 2.49972,2.50104l0.40375,-0.02712c3.26256,0 6.31209,0.39392 9.31381,-1.37135c0.35695,-0.20992 0.7991,-0.41277 1.13121,-0.65229c0.37254,4.7457 -2.39729,6.70092 -6.68665,9.44143c-8.39308,5.36242 -20.54896,3.04824 -30.06807,3.15419c-3.65533,1.19152 -7.95998,2.32181 -11.85743,1.98577c-1.64915,-0.14219 -2.9871,-1.47008 -4.57996,-1.92034c-0.28255,-0.07987 -2.57753,-0.09036 -4.18447,-0.09066l-0.11675,-0.23406c0,0 -1.73999,-0.86721 -2.9176,0.45943c-0.68458,0.27537 -1.45451,0.8949 -1.45451,2.28032z" data-paper-data="{&quot;noHover&quot;:false,&quot;origItem&quot;:[&quot;Path&quot;,{&quot;applyMatrix&quot;:true,&quot;segments&quot;:[[[228.5,233],[0,0],[0,-1.38542]],[[229.95234,230.72154],[-0.68458,0.27537],[1.17761,-1.32664]],[232.86803,230.26394],[[232.98484,230.49794],[0,0],[1.60694,0.0003]],[[237.16733,230.59071],[-0.28255,-0.07987],[1.59286,0.45026]],[[241.74634,232.51216],[-1.64915,-0.14219],[3.89745,0.33604]],[[253.59954,230.53227],[-3.65533,1.19152],[9.51911,-0.10595]],[[283.66312,227.38746],[-8.39308,5.36242],[4.28936,-2.74051]],[[290.3481,217.9518],[0.37254,4.7457],[-0.33211,0.23952]],[[289.31432,218.62662],[0.35695,-0.20992],[-3.00172,1.76527]],[[279.99999,219.99999],[3.26256,0],[0,0]],[279.49999,219.99999],[[276.99999,217.49999],[0,2.5],[0,-2.5]],[279.49999,214.99999],[[279.99999,214.99999],[0,0],[2.03274,0]],[[286.68566,214.37336],[-1.85267,1.15193],[3.24942,-2.02038]],[[291.14531,204.28429],[0.95468,3.61884],[-2.96693,2.26216]],[[281.52412,209.78059],[2.91642,-1.45788],[0,0]],[278.92846,210.82118],[[275.67879,209.42846],[0.92848,2.3212],[-0.92848,-2.32119]],[277.07151,206.17879],[[279.47585,205.21938],[0,0],[5.52872,-2.76506]],[[292.73064,193.95114],[-2.73106,5.7578],[1.93811,-4.08604]],[[291.17889,183.59908],[3.56941,2.21746],[-1.74985,3.17173]],[[285.10186,192.41936],[2.11359,-2.69302],[-2.15255,1.12247]],[[278.61803,195.73605],[2.17133,-1.08567],[0,0]],[276.61803,196.73605],[[273.26393,195.61802],[1.11803,2.23606],[-1.11803,-2.23607]],[274.38196,192.26392],[[276.38196,191.26392],[0,0],[1.82886,-0.91443]],[[281.89813,188.58061],[-1.85033,0.87018],[2.92485,-4.18812]],[[289.08529,175.35255],[-1.45515,5.01746],[0.23347,-0.80504]],[[289.16707,169.615],[1.29371,0.55398],[-1.2472,-0.53406]],[[285.09954,169.4677],[1.33445,0.2449],[-2.50231,-0.45923]],[[278.87622,169.58708],[2.41167,-1.68157],[-2.70761,1.88792]],[[272.38863,176.63798],[2.12609,-2.43614],[-2.37589,2.72236]],[[264.88863,184.13798],[2.54177,-2.54177],[-6.56262,8.75017]],[[236.60262,199.92626],[10.24894,-2.54719],[-4.53434,1.12693]],[[223.69029,196.95669],[2.71262,5.47709],[-0.88104,-1.77892]],[[223.49999,188.49998],[0,2.05527],[0,0]],[[223.55968,187.9975],[-0.05969,0.2952],[0.01253,-0.39907]],[[223.5187,186.80544],[0.04854,0.39505],[-0.50629,-4.12063]],[[219.69027,175.45669],[1.58321,3.72939],[-0.36026,-0.84862]],[[218.87335,172.81431],[0.47825,0.78818],[-0.48908,-0.80603]],[[216.87335,170.81431],[0.48156,0.81054],[-1.6348,-2.75164]],[[212.34547,161.37417],[2.662,2.19044],[-0.11264,-0.09268]],[[211.99462,161.11655],[0.12099,0.0795],[-0.37033,0.36311]],[[210.24998,161.75022],[0.82244,0],[-2.11332,0]],[[207.75923,159.41114],[0.05056,0.55263],[-3.82988,-1.11291]],[[196.39364,156.92532],[3.96633,0.98336],[-6.01747,-1.49188]],[[178.59952,152.96769],[6.01035,1.03871],[-2.16774,-0.37463]],[[171.99997,152.99997],[2.19988,0],[-2.19987,0]],[[165.40042,152.96769],[2.16775,-0.37463],[-1.03869,0.17951]],[[162.40042,153.96769],[1.0435,-0.14907],[-4.65111,0.66443]],[[148.54528,155.7005],[4.60144,-1.03156],[-0.79764,1.55211]],[[147.62574,161.30683],[0.10745,-1.83393],[0.94198,0.23491]],[[150.3143,162.37334],[-0.84299,-0.48984],[3.50448,2.0364]],[[160.08444,171.68478],[-3.90866,-1.55588],[0.84775,-0.14216]],[[162.74997,171.74996],[-0.87463,0.0341],[0,0]],[[164.13106,172.13282],[-0.66549,-0.38286],[0.49017,-0.03321]],[[165.54806,171.95272],[-0.45587,0.08552],[0.02652,-0.08122]],[[165.62826,171.70939],[-0.02695,0.08099],[0,0]],[[168.79054,170.12825],[-2.37171,-0.79057],[0.32093,0.10698]],[[169.58942,170.52625],[-0.21492,-0.15509],[2.00763,-0.99192]],[[175.98858,167.21368],[-2.43064,1.0483],[1.262,-0.54429]],[[179.98858,166.21368],[-1.26345,0.5409],[1.07581,-0.46056]],[[182.90158,164.25417],[-1.04837,0.51998],[0.1866,-0.09255]],[[189.20939,162.12825],[-0.37714,0.12572],[3.59536,-1.16236]],[[202.72442,161.10723],[-3.77884,-1.20004],[2.15296,0.68371]],[[208.79053,164.12825],[-2.14851,-0.69756],[0,0]],[208.99996,163.99996],[[211.49996,166.49996],[0,-2.5],[0,2.5]],[208.99996,168.99996],[[208.02403,168.93003],[0,0],[0.71941,2.08974]],[[208.49996,175.49996],[-0.00844,-2.19597],[0.01622,4.22154]],[[207.37167,187.29053],[1.30478,-4.03585],[-1.81519,5.33279]],[[195.72442,201.89269],[5.80781,-1.96528],[-1.17647,0.3981]],[[191.99996,201.99996],[1.24185,-0.01981],[-3.85619,0.06152]],[[181.30099,200.90026],[3.70036,1.04879],[-4.24923,-1.20436]],[[169.2322,196.26773],[3.35364,3.28854],[-0.7811,-0.76594]],[[167.16727,193.87035],[0.59804,0.8304],[-1.36326,0.69891]],[[162.99136,195.36566],[1.41457,-0.30495],[1.02033,0.31647]],[[166.59735,197.14438],[-1.61728,-1.01319],[4.5918,2.87664]],[[179.5362,206.60648],[-4.66034,-2.7962],[0,0]],[181.13671,207.67009],[[181.46865,207.9464],[-0.18744,-0.17997],[0.14543,-0.35794]],[[181.79851,206.75993],[-0.07297,0.43451],[0,0]],[[184.74025,204.79877],[-2.45145,-0.49029],[2.45145,0.49029]],[[186.70141,207.74051],[0,0],[-0.22306,1.01004]],[[186.03223,210.77065],[0.45435,-0.92926],[-2.44992,5.01063]],[[171.99631,217.23806],[4.85653,-0.94935],[0,0]],[169.24997,217.25023],[[166.74997,214.75023],[0,2.5],[0,-2.5]],[169.24997,212.25023],[[171.50363,212.26239],[0,0],[1.86286,-0.38281]],[[177.34569,211.14952],[-1.84671,0.54013],[0,0]],[[176.96373,210.89396],[0,0],[-4.71842,-2.83105]],[[163.90258,201.35607],[4.59004,2.97762],[-2.42711,-1.5745]],[[157.60331,199.16514],[2.96079,0.78512],[-5.0276,-1.33318]],[[142.74997,196.75023],[5.23473,-0.01944],[-6.46896,-0.01442]],[[122.06131,199.11491],[6.19553,-2.23831],[-3.86477,1.39625]],[[113.51773,206.018],[2.75367,-2.75897],[-2.91612,2.92174]],[[105.52408,215.13201],[2.49823,-3.1738],[0.52148,0.10721]],[[107.04326,215.19029],[-0.47314,0.18151],[0.70884,-0.27195]],[[108.53819,213.47188],[-0.62908,0.42505],[1.30291,-0.88034]],[[112.74515,211.33771],[-1.36505,0.78053],[2.52029,-1.44108]],[[119.8397,206.28553],[-2.5189,1.44351],[0.86432,-0.49532]],[[122.68563,205.37336],[-0.85638,0.5089],[0.71667,-0.42588]],[[124.41499,203.56663],[-0.65425,0.51667],[1.99201,-1.57315]],[[131.20939,200.12827],[-2.4029,0.81791],[0.46939,-0.15646]],[[137.59951,198.03226],[-0.2725,0.04674],[0.98561,-0.16905]],[[140.59951,198.03226],[-0.98639,0.1644],[1.03975,-0.17329]],[[143.59951,197.03226],[-1.05409,-0.00074],[1.84033,0.0013]],[[149.02807,198.03821],[-1.17501,-1.41638],[1.04166,1.25564]],[[148.46769,202.90044],[0.11518,-1.6274],[-0.06118,0.86442]],[[148.49997,205.49999],[-0.005,-0.86657],[0.01268,2.19984]],[[148.46769,212.09954],[-0.31116,-2.17776],[0.33336,2.33315]],[[150.42532,218.89366],[-0.57162,-2.28648],[0.52695,2.10778]],[[152.12659,225.18567],[-1.12087,-1.86121],[1.4698,2.44061]],[[158.09835,229.25421],[-2.28381,-1.13748],[1.0758,0.53582]],[[161.09835,231.25421],[-1.07285,-0.5417],[0.83621,0.42221]],[[163.74222,232.38209],[-0.91909,-0.33561],[0.20496,-0.06139]],[[164.34849,232.16819],[-0.19901,0.08193],[1.5001,-0.61755]],[[168.8487,230.24307],[-1.55204,0.43583],[0.37375,-0.64641]],[[171.79055,229.12828],[-1.68137,-0.56045],[0.46802,0.156]],[[172.85556,229.75064],[-0.25211,-0.24877],[5.04579,-0.36643]],[[188.04378,229.00851],[-5.02751,0.45057],[6.85257,-0.61413]],[[208.24998,226.49999],[-6.95145,0],[3.60623,0.05472]],[[216.74998,229.49999],[-2.89177,-2.13454],[0,0]],[[218.7267,230.98253],[0,0],[0.62044,0.45492]],[[219.74998,232.99999],[0,-0.82832],[0,1.38071]],[[217.24998,235.49999],[1.38071,0],[-0.18573,0]],[[216.70907,235.44132],[0.17418,0.03842],[0,0]],[214.25969,234.95144],[[214.27095,234.89514],[0,0],[-0.0777,0.00144]],[[214.03761,234.89635],[0.07786,0.00066],[-1.38067,-0.01166]],[[209.99632,233.98783],[1.37039,-0.16857],[-0.21789,0.0268]],[[209.34378,234.07649],[0.21711,-0.0323],[2.33191,2.39506]],[[215.39371,241.71376],[-1.87617,-3.12694],[0,0]],[215.51774,241.73223],[[215.8298,242.12818],[-0.1661,-0.24999],[0.11389,-0.04236]],[[216.17227,242.00368],[-0.11442,0.04063],[0.52551,-0.45518]],[[217.80055,241.49117],[-0.50128,-0.0352],[2.72176,-0.74635]],[[226.24026,241.04854],[-2.87392,-0.5272],[0,0]],[[226.34103,241.0734],[-0.06386,-0.01748],[0.85802,-0.31342]],[[228.9594,240.12828],[-0.89337,0.29779],[0,0]],[228.95942,240.12827],[[229.0749,240.09589],[-0.07393,0.01853],[1.37518,-1.43164]],[[232.72984,235.44268],[-1.03571,1.68035],[0,0]],[[232.65097,235.41611],[0,0],[-0.38594,0.04668]],[[231.49999,235.49998],[0.38011,0],[0,0]],[230.99999,235.49998],[[228.49999,232.99998],[0,2.5],[0,0]]],&quot;closed&quot;:true,&quot;fillColor&quot;:[0,0,0],&quot;strokeWidth&quot;:0.5}]}" fill="#864100" stroke-width="0.25"></path><path d="M232.72132,191.3853c-0.01431,0.08933 -0.12513,0.19675 -0.30887,0.31677c0.1159,-0.19587 0.23184,-0.39154 0.34801,-0.58683c-0.01179,0.09054 -0.0248,0.18056 -0.03914,0.27006z" fill="#000000" stroke-width="0.5"></path></g></g></svg>