<svg version="1.1" xmlns="http://www.w3.org/2000/svg" xmlns:xlink="http://www.w3.org/1999/xlink" width="512.51052" height="405.90391" viewBox="0,0,512.51052,405.90391"><g transform="translate(14.00297,30.91809)"><g data-paper-data="{&quot;isPaintingLayer&quot;:true}" fill-rule="nonzero" stroke-linejoin="miter" stroke-miterlimit="10" stroke-dasharray="" stroke-dashoffset="0" style="mix-blend-mode: normal"><path d="M237.07841,64.28748c0.00524,0.0046 0.06479,0.09317 0.07004,0.09775c-2.71624,-0.74835 -5.32239,-2.28582 -5.83587,-4.35575c-0.26702,-1.07643 0.03954,-2.48395 0.39868,-3.73627c0.13385,-0.25106 0.26862,-0.51158 0.39002,-0.77383c1.21359,0.07342 2.44385,-0.0087 3.60027,-0.28301c-1.15786,3.21282 -0.96603,7.03056 1.43113,9.13511z" data-paper-data="{&quot;noHover&quot;:false,&quot;origItem&quot;:[&quot;Path&quot;,{&quot;applyMatrix&quot;:true,&quot;segments&quot;:[[[474.21102,128.65889],[0,0],[-4.79432,-4.2091]],[[471.37164,110.56763],[-2.31572,6.42564],[-2.31284,0.54862]],[[464.2462,111.12863],[2.42718,0.14684],[-0.2428,0.5245]],[[463.48,112.66813],[0.2677,-0.50212],[-0.71828,2.50464]],[[462.7248,120.05141],[-0.53404,-2.15286],[1.02696,4.13986]],[[474.24248,128.68645],[-5.43248,-1.4967],[-0.0105,-0.00916]],[[474.211,128.65891],[0.01048,0.0092],[0,0]]],&quot;closed&quot;:true,&quot;fillColor&quot;:[0,0,0,1]}]}" fill="#ffffff" stroke="none" stroke-width="0.5" stroke-linecap="butt"/><path d="M246.38103,54.24041c0.3041,-0.16568 0.5719,-0.3533 0.8029,-0.81531c0.89442,-1.78885 -0.87322,-2.67871 -0.87322,-2.67871c-1.05503,-0.50159 -1.87103,-1.09626 -2.74123,-1.34302c0.49762,-0.52281 1.00518,-1.02773 1.50514,-1.47713c0.38249,-0.34381 0.72523,-0.74304 1.04528,-1.1051c0.08909,0.38089 0.2479,0.6431 0.2479,0.6431l0.93354,1.53267c0.90891,1.80695 1.50296,3.31411 1.83538,5.30371c0.0372,2.96403 -1.56872,7.33796 -4.27371,9.39959c0.17658,-0.20443 0.35607,-0.52091 0.50697,-0.75074c0.7064,-1.07585 1.78943,-2.18461 1.6836,-3.46727c-0.08521,-1.03274 -1.59664,-1.28735 -2.18868,-2.13782c-0.46847,-0.67296 0.57251,-1.59685 0.96112,-2.31887l-0.04578,0.2045c0,0 0.43164,-0.42692 0.6008,-0.98962z" data-paper-data="{&quot;noHover&quot;:false,&quot;origItem&quot;:[&quot;Path&quot;,{&quot;applyMatrix&quot;:true,&quot;segments&quot;:[[[492.75802,108.58065],[0,0],[-0.33832,1.12538]],[491.66024,110.46549],[[491.74286,110.09259],[0,0],[-0.77722,1.44406]],[[489.7875,114.60711],[-0.93694,-1.34592],[1.18408,1.70094]],[[494.12372,119.06295],[-0.17042,-2.06548],[0.21166,2.56532]],[[490.72734,125.99809],[1.4128,-2.1517],[-0.3018,0.45966]],[[489.74316,127.30187],[0.35316,-0.40886],[5.40998,-4.12326]],[[498.17876,108.63367],[0.0744,5.92806],[-0.66484,-3.9792]],[[494.58742,98.09261],[1.81782,3.6139],[0,0]],[492.73516,95.02841],[[492.24232,93.74219],[0.17818,0.76178],[-0.6401,0.72412]],[[490.16616,95.95095],[0.76498,-0.68762],[-0.99994,0.8988]],[[487.18162,98.89707],[0.99524,-1.04562],[1.7404,0.49352]],[[492.62066,101.39271],[-2.11006,-1.00318],[0,0]],[[494.40952,106.75927],[1.78884,-3.5777],[-0.462,0.924]],[[492.758,108.58067],[0.6082,-0.33136],[0,0]]],&quot;closed&quot;:true,&quot;fillColor&quot;:[0,0,0,1]}]}" fill="#ffffff" stroke="none" stroke-width="0.5" stroke-linecap="butt"/><path d="M204.52737,64.09726c0.92495,1.99429 2.69397,2.94343 4.71263,3.10958c-1.02989,0.09732 -2.06091,0.17835 -3.16247,0.02025c-2.72832,-0.39158 -4.08716,-2.80326 -5.2567,-4.97568c-2.57016,-4.77406 -2.91301,-9.08152 -1.19915,-14.17705c0,0 0.3233,-0.96284 -0.17625,-1.74503c0.7117,-0.08317 1.4605,-0.11415 2.27848,-0.2517c1.39675,-0.23486 2.28513,-0.98954 3.69695,-0.97548c1.57445,0.01568 3.16468,0.43588 4.65511,1.01459c-2.14891,0.44275 -4.16415,2.14706 -5.15802,4.26949c-1.54313,3.29539 -0.83253,7.77042 -0.49616,11.21398c0.08099,0.82915 -0.24496,1.74128 0.10557,2.49705z" data-paper-data="{&quot;noHover&quot;:false,&quot;origItem&quot;:[&quot;Path&quot;,{&quot;applyMatrix&quot;:true,&quot;segments&quot;:[[[409.05732,128.29443],[0,0],[-0.70106,-1.51154]],[[408.84546,123.30033],[0.16198,1.6583],[-0.67272,-6.88712]],[[409.84606,100.67291],[-3.08626,6.59078],[1.98774,-4.24488]],[[420.10246,92.32031],[-4.29782,0.8855],[-2.98086,-1.15742]],[[410.83184,90.30375],[3.1489,0.03136],[-2.82364,-0.02812]],[[403.47256,92.25209],[2.7935,-0.46972],[-1.63596,0.2751]],[[398.935,92.74831],[1.4234,-0.16634],[0.9991,1.56438]],[[399.29324,96.23531],[0,0],[-3.42772,10.19106]],[[401.69188,124.41631],[-5.14032,-9.54812],[2.33908,4.34484]],[[412.13924,134.35539],[-5.45664,-0.78316],[2.20312,0.3162]],[[418.52088,134.50487],[-2.05978,0.19464],[-4.03732,-0.3323]],[[409.05734,128.29443],[1.8499,3.98858],[0,0]]],&quot;closed&quot;:true,&quot;fillColor&quot;:[0,0,0,1]}]}" fill="#ffffff" stroke="none" stroke-width="0.5" stroke-linecap="butt"/><path d="M215.00642,53.02213c0.24235,-0.08079 0.44577,-0.18551 0.61216,-0.30098l0.20076,0.06401c0,0 1.67482,-1.11955 0.56543,-2.78365c-0.12097,-0.18145 -0.24878,-0.32977 -0.38006,-0.45031c-0.04387,-0.16979 -0.08687,-0.34016 -0.13573,-0.50677c3.69186,2.05678 8.01275,4.53028 12.21437,5.75334c-1.96252,3.54055 -5.67357,5.86348 -8.51689,8.77983c-1.1609,0.56102 -2.31423,1.12178 -3.45356,1.64007c1.34719,-0.98713 2.39505,-2.26042 2.83289,-3.69326c0.3238,-1.05964 -0.02185,-2.24013 -0.02185,-3.34814c-1.05321,-1.43287 -1.80021,-3.16358 -3.07649,-4.4019c-0.30059,-0.29165 -1.05931,-0.01084 -1.18831,-0.40931c-0.03566,-0.11016 0.0108,-0.19781 0.09818,-0.27145c0.08029,-0.01862 0.16376,-0.04301 0.24911,-0.07146z" data-paper-data="{&quot;noHover&quot;:false,&quot;origItem&quot;:[&quot;Path&quot;,{&quot;applyMatrix&quot;:true,&quot;segments&quot;:[[[429.59988,106.23927],[0.16058,-0.03724],[-0.17476,0.14728]],[[429.40538,106.77899],[-0.07132,-0.22032],[0.258,0.79694]],[[431.78024,107.60061],[-0.60118,-0.5833],[2.55256,2.47666]],[[437.9397,116.31305],[-2.10642,-2.86574],[0,2.21602]],[[437.9397,122.96111],[0.6476,-2.11928],[-0.87568,2.86568]],[[432.28016,130.35137],[2.69438,-1.97426],[2.27866,-1.03658]],[[439.15968,127.05877],[-2.3218,1.12204],[5.68664,-5.8327]],[[456.07214,109.62825],[-3.92504,7.0811],[-8.40324,-2.44612]],[[431.79406,98.17149],[7.38372,4.11356],[0.09772,0.33322]],[[432.06706,99.18399],[-0.08774,-0.33958],[0.26256,0.24108]],[[432.8267,100.08493],[-0.24194,-0.3629],[2.2188,3.3282]],[431.7173,105.63193],[[431.3164,105.50311],[0,0],[-0.33278,0.23094]],[[430.09674,106.09847],[0.4847,-0.16158],[-0.1707,0.0569]]],&quot;closed&quot;:true,&quot;fillColor&quot;:[0,0,0,1]}]}" fill="#ffffff" stroke="none" stroke-width="0.5" stroke-linecap="butt"/><path d="M240.8688,26.02074c-0.71689,1.29479 -0.69006,2.54399 -1.26341,2.94533c-7.32766,-2.94619 -15.49862,-4.52365 -23.40081,-3.706c-3.60218,0.37272 -6.77984,1.97159 -10.04363,3.53752c-0.0553,-0.35691 -0.19204,-0.68866 -0.21015,-1.05014c-0.10808,-2.15773 2.17666,-3.48759 3.38713,-4.87398c1.58852,-1.81939 2.8728,-3.84283 5.1577,-4.13389c0.47095,0.33448 1.42239,0.82069 2.46537,0.30395c0.74632,0.2705 1.48401,0.12051 1.48401,0.12051l2.50726,-0.51064c0.90736,-0.18503 1.83327,-0.38314 2.74063,-0.56817c3.61153,-1.44461 7.02621,-1.66644 10.6262,0.30686c0.92392,0.50643 1.59144,1.6277 2.63663,1.76063c1.63838,0.20837 3.28453,-0.09911 4.7933,-0.77091c0.83927,-0.3737 1.06574,-1.50577 1.72324,-2.14743c0.38272,-0.3735 1.35774,-0.86102 1.65285,-0.41505c0.484,0.73143 -0.55417,1.67127 -0.89788,2.47818c-1.0545,2.4756 -2.08199,4.41781 -3.35844,6.72323z" data-paper-data="{&quot;noHover&quot;:false,&quot;origItem&quot;:[&quot;Path&quot;,{&quot;applyMatrix&quot;:true,&quot;segments&quot;:[[[481.63968,52.02077],[0,0],[2.5529,-4.61084]],[[488.35612,38.61343],[-2.109,4.9512],[0.68742,-1.61382]],[[490.15454,33.66787],[0.968,1.46286],[-0.59022,-0.89194]],[[487.03994,34.43897],[0.76544,-0.747],[-1.315,1.28332]],[[483.59582,38.74285],[1.67854,-0.7474],[-3.01754,1.3436]],[[473.814,40.32805],[3.27676,0.41674],[-2.09038,-0.26586]],[[468.54888,36.82921],[1.84784,1.01286],[-7.19998,-3.9466]],[[447.42324,36.26309],[7.22306,-2.88922],[-1.81472,0.37006]],[[441.9791,37.37329],[1.81472,-0.37006],[0,0]],[436.9791,38.37329],[[434.01364,38.12685],[1.49264,0.541],[-2.08596,1.03348]],[[429.08512,37.51341],[0.9419,0.66896],[-4.5698,0.58212]],[[418.7758,45.74639],[3.17704,-3.63878],[-2.42094,2.77278]],[[411.99852,55.47039],[-0.21616,-4.31546],[0.03622,0.72296]],[[412.2263,57.62459],[-0.1106,-0.71382],[6.52758,-3.13186]],[[432.50584,50.49471],[-7.20436,0.74544],[15.80438,-1.6353]],[[479.1192,57.89175],[-14.65532,-5.89238],[1.1467,-0.80268]],[[481.6397,52.02075],[-1.43378,2.58958],[0,0]]],&quot;closed&quot;:true}]}" fill="#ff0000" stroke="none" stroke-width="0.5" stroke-linecap="butt"/><path d="M246.37905,54.29036c-0.16916,0.56269 -0.54889,0.94242 -0.54889,0.94242l0.04131,-0.18645c-0.38861,0.72203 -1.44615,1.5843 -0.97768,2.25726c0.59204,0.85047 2.0829,1.19518 2.16811,2.22792c0.10583,1.28266 -0.99179,2.39172 -1.69819,3.46757c-0.1509,0.22983 -0.31551,0.44746 -0.49209,0.65189c2.70499,-2.06163 4.255,-6.37007 4.2178,-9.3341c-0.33242,-1.9896 -0.88676,-3.46358 -1.79567,-5.27053l-0.92613,-1.5321c0,0 -0.15733,-0.26222 -0.24642,-0.64311c-0.32005,0.36206 -0.65559,0.76057 -1.03808,1.10438c-0.49997,0.4494 -0.99465,0.95025 -1.49227,1.47306c0.8702,0.24676 1.66449,0.74623 2.71952,1.24782c0,0 1.78885,0.89443 0.89443,2.68328c-0.231,0.462 -0.52166,0.74502 -0.82576,0.9107zM237.10554,64.32948c-2.39716,-2.10455 -2.57755,-5.83281 -1.41969,-9.04563c-1.15642,0.27431 -2.34913,0.35392 -3.56272,0.2805c-0.1214,0.26225 -0.24925,0.51869 -0.3831,0.76975c-0.35914,1.25232 -0.64462,2.61521 -0.3776,3.69164c0.51348,2.06993 3.0426,3.56917 5.75884,4.31752c-0.00525,-0.00458 -0.0105,-0.00917 -0.01574,-0.01377zM214.79995,53.11967c-0.08738,0.07364 -0.13291,0.1597 -0.09725,0.26986c0.129,0.39847 0.88684,0.11916 1.18743,0.41081c1.27628,1.23833 2.02652,2.92335 3.07973,4.35622c0,1.10801 0.3238,2.26439 0,3.32403c-0.43784,1.43284 -1.48258,2.708 -2.82977,3.69513c1.13933,-0.51829 2.27886,-1.08528 3.43976,-1.6463c2.84332,-2.91635 6.49371,-5.17471 8.45623,-8.71526c-4.20162,-1.22306 -8.44718,-3.6716 -12.13904,-5.72838c0.04886,0.16661 0.09263,0.33646 0.1365,0.50625c0.13128,0.12054 0.25885,0.26902 0.37982,0.45047c1.1094,1.6641 -0.5547,2.7735 -0.5547,2.7735l-0.20045,-0.06441c-0.16639,0.11547 -0.36748,0.21689 -0.60983,0.29768c-0.08535,0.02845 -0.16814,0.05178 -0.24843,0.0704zM204.5287,64.14723c-0.35053,-0.75577 -0.02494,-1.6679 -0.10593,-2.49705c-0.33636,-3.44356 -1.04283,-8.01832 0.5003,-11.31371c0.99387,-2.12244 2.97929,-3.73355 5.1282,-4.1763c-1.49043,-0.57871 -3.06086,-0.9926 -4.63531,-1.00828c-1.41182,-0.01406 -2.28289,0.73931 -3.67964,0.97417c-0.81798,0.13755 -1.55708,0.16494 -2.26878,0.24811c0.49955,0.78219 0.17912,1.7435 0.17912,1.7435c-1.71386,5.09553 -1.37084,9.31644 1.19932,14.0905c1.16954,2.17242 2.49536,4.57796 5.22368,4.96954c1.10156,0.1581 2.16093,0.17206 3.19082,0.07474c-2.01866,-0.16615 -3.80682,-1.11093 -4.73177,-3.10522zM250.87148,47.25749c1.13341,2.27886 1.78656,4.21834 2.20433,6.72947c-0.042,5.49021 -3.01014,12.509 -8.74695,14.41248c-5.42555,1.8002 -14.71239,-1.22922 -16.68378,-6.86906c-1.83216,1.7808 -3.85937,3.4127 -5.72637,5.24403c-5.19197,2.66188 -10.51818,5.44216 -16.48979,4.35169c-9.58155,-1.74968 -11.90837,-14.47344 -10.03753,-22.61506c-0.64565,0.66844 -1.23795,1.39848 -1.89456,2.0551l0.19274,0.40419c0,0 -0.48507,1.94029 -2.42536,1.45521c-1.94029,-0.48507 -1.45521,-2.42536 -1.45521,-2.42536l0.8594,-2.26248c0.26901,-0.26901 3.41038,-3.4211 3.57813,-3.5416c2.26589,-1.62778 4.32048,-1.60101 6.84906,-2.01836c1.4604,-0.24104 2.84024,-1.01605 4.32036,-1.02583c3.08437,-0.02036 6.19847,1.20362 8.89443,2.54448c4.07061,2.0353 8.1493,4.06887 12.2804,5.9745c1.18573,0.54696 2.41334,1.11772 3.67343,1.5c0.27355,-0.05618 0.59459,-0.05316 0.97014,0.04073c0.32117,0.08029 0.57588,0.20045 0.77734,0.34509c1.28253,0.16494 2.59302,0.04671 3.92217,-0.56436c3.06489,-1.40905 5.55291,-5.19886 8.14824,-7.3307c0.85287,-0.70056 1.4702,-1.85542 2.541,-2.12291c1.02637,-0.25639 2.06131,0.4772 3.09196,0.7158c0,0 1.89737,0.63246 1.26491,2.52982c-0.20331,0.60992 -0.53732,0.95843 -0.89701,1.15055z" fill="#000000" stroke="none" stroke-width="0.5" stroke-linecap="butt"/><path d="M163.31596,101.01238l-1.41091,-1.8896c-3.88863,-4.10338 -4.69963,-12.60931 -2.6084,-17.94038c0.11295,-0.63499 0.41564,-1.06172 0.77146,-1.34849c0.29967,-0.29562 0.75206,-0.58711 1.35717,-0.55893c0.19692,-0.02867 0.32405,-0.02867 0.32405,-0.02867c1.75887,0 3.61862,0.69741 5.27554,0.10727c1.00925,-0.35946 1.66861,-1.37238 2.62608,-1.85305c1.81188,-0.90962 4.04222,-0.84337 5.78405,-1.88084c1.62002,-0.96492 2.39448,-3.01113 4,-4c0.89751,-0.5528 2.08854,-0.47052 3,-1c0.92816,-0.53918 1.62288,-1.37575 2.31206,-2.22113c-1.70872,-2.12242 -3.33724,-4.28356 -4.14409,-6.95092c-2.2027,-7.28191 1.44805,-18.02406 7.35783,-22.68288c4.11862,-3.24681 9.03718,-5.17518 13.55365,-7.75751c-0.45528,-2.26264 -0.77735,-4.48901 0.20261,-6.7924c0.85518,-2.01009 2.52508,-3.05669 3.89363,-4.61758c2.98811,-3.40807 5.16173,-5.6777 9.88863,-5.86199l1.40208,0.76184c0.34037,-0.15985 0.60763,-0.2133 0.60763,-0.2133l2.5,-0.5c0.75931,-0.1483 1.51861,-0.2966 2.27792,-0.44491c4.76264,-1.90505 9.81637,-1.88631 14.43718,0.71695c0.53816,0.30318 0.79819,1.0108 1.36745,1.25058c1.35804,0.57204 1.86545,-1.72435 2.38702,-2.05546c1.20922,-0.76765 2.5899,-1.58104 4.02072,-1.5157c1.60279,0.0732 3.36112,0.69757 4.42199,1.90126c0.98233,1.11458 1.08743,2.84176 1.06754,4.32731c-0.01521,1.1354 -0.7646,2.1386 -1.16834,3.19991c-1.02463,2.69345 -2.27225,4.83898 -3.64178,7.29633c-0.53311,0.95657 -0.77253,1.79663 -1.05164,2.544c5.67575,2.83896 10.60577,5.85526 13.6083,11.61315c1.82123,3.64816 3.37459,7.25278 3.75177,11.37169c0.24547,2.68056 0.01217,5.54905 0.01217,8.24634c0,1.29698 -0.71377,2.6655 -0.26394,3.88197c0.43547,1.17762 2.36338,0.84928 3.55451,1.24632c2.021,0.67366 3.99757,1.60373 5.70943,2.87171c6.18255,4.57943 11.07822,9.45618 15.07462,16.10502c2.25986,3.056 2.98693,6.44131 4.66499,9.78406c1.52298,3.03383 2.87285,6.08672 4.16577,9.20168c0.86673,0.22519 1.30009,1.09192 1.30009,1.09192l0.65143,1.40936c1.08787,4.47488 0.36903,7.33857 -1.65143,11.3795c0,0 -0.41089,0.82178 -1.23267,1.07287c-0.06234,0.07437 -0.13056,0.14886 -0.20505,0.22336c-1.76776,1.76776 -3.53554,0 -3.53554,0c-2.90256,-2.91083 -6.34701,-4.70683 -9.39953,-7.40494c-7.07659,-6.25498 -15.04559,-10.92176 -23.4436,-15.1232c-3.58197,-1.79202 -6.64145,-4.22829 -10.43374,-5.46834c-1.45224,-0.88698 -3.03357,-1.56801 -4.67146,-2.10748c-2.71404,2.09014 -4.56835,4.76194 -7.28389,6.8362c-2.00687,1.48135 -4.70956,3.3011 -6.97957,4.28226c-4.82987,2.08761 -10.56056,1.65889 -15.51072,0.66918c-9.40378,-1.88014 -18.00436,-6.16013 -22.07989,-14.75295c-1.85336,1.42084 -3.75724,2.77581 -5.59485,4.2459c-5.47098,4.37678 -11.1122,8.16385 -17.7944,10.43836c0,0 -1.53274,0.51091 -2.5446,-0.52088c-0.42722,-0.24859 -0.67935,-0.58476 -0.67935,-0.58476zM164.92684,96.50198l0.53164,0.70604c5.89027,-2.01474 10.87962,-5.53407 15.70586,-9.39506c1.25118,-1.00095 2.5461,-1.94337 3.83413,-2.89286c-3.14511,-2.69008 -1.20096,-3.9349 0.93516,-6.59913c-1.40713,-0.48717 -2.87101,-1.11603 -3.34146,-2.4107c-0.02964,-0.08159 -0.05311,-0.16498 -0.0707,-0.25004c-0.15822,0.05859 -0.31162,0.12778 -0.45783,0.21271c-1.63047,0.94716 -2.3852,3.02636 -4,4c-2.37142,1.42985 -3.88541,0.95852 -6.21594,2.11916c-1.19324,0.59426 -2.10342,1.74347 -3.37392,2.14694c-0.35796,0.11368 -4.26481,0.11228 -5.99749,0.10875c-0.90316,3.95205 -0.06502,9.92773 2.45055,12.25419zM224.49927,94.73524l-1.42847,-0.17881c-5.87765,-2.35386 -14.40929,-4.41122 -13.02641,-12.79396c0.17175,-1.04115 0.7558,-1.97047 1.1337,-2.95571c0,0 0.92848,-2.32119 3.24967,-1.39271c2.32119,0.92848 1.39271,3.24967 1.39271,3.24967c-0.3334,0.78675 -1.27653,2.3312 -0.9119,3.40419c0.25573,0.75256 0.65732,1.38267 1.16272,1.91876c-0.22113,-0.86008 0.1068,-1.6799 0.1068,-1.6799l1.14178,-2.79633c5.661,-7.43015 15.87573,-10.04956 24.88561,-9.26667c4.8951,0.42535 9.6716,2.60925 14.50616,3.59513c10.46503,4.14256 20.28481,10.78465 27.71378,19.36803c-0.81006,-2.11146 -1.56475,-4.19335 -3.00076,-6.0767c-3.64515,-6.08634 -9.04707,-12.93713 -15.58564,-16.18053c-2.97078,-1.47362 -7.22946,-1.1608 -9.07581,-4.59641c-0.57243,-1.06515 -0.21181,-2.40994 -0.26393,-3.61803c-0.10725,-2.48613 -0.00576,-5.01132 0,-7.5c0.01076,-4.64746 -1.16697,-8.25062 -3.23607,-12.38196c-2.22928,-4.74028 -6.84342,-7.11271 -11.37484,-9.37842c-0.92235,-0.46117 -1.8609,-0.89943 -2.81357,-1.31218c-0.68665,-0.1418 -1.38623,-0.39525 -2.06581,-0.47598c0,0 -0.96835,-0.19367 -1.56611,-0.94617c-5.96667,-2.09009 -12.35505,-3.12317 -18.69725,-2.51745c-3.44936,0.32944 -6.66061,2.19953 -9.84052,3.73072c-0.17245,0.70756 -0.66583,1.52593 -1.99483,1.74743c-0.55604,0.09267 -1.00759,0.03907 -1.37351,-0.09955c-7.1812,4.08843 -14.73129,6.48009 -17.12123,15.27523c-0.88271,3.24843 -2.02489,5.75411 -1.01989,9.14596c0.70976,2.39541 2.44554,4.38956 4.08854,6.33898c0.24642,0.06897 0.5252,0.17911 0.78722,0.35497c0.65654,-0.09656 1.45982,0.05638 2.18006,0.95668c1.56174,1.95217 -0.39044,3.51391 -0.39044,3.51391c-0.8962,0.70687 -1.57623,1.66685 -2.36001,2.50005c0.51519,0.02289 1.03251,0.06511 1.54462,0.05995l0.22366,0.1378l0.02029,-0.10142l2.45459,0.49092c1.16847,0.20986 2.05512,1.23166 2.05512,2.46054c0,1.18976 -0.83109,2.18539 -1.94439,2.43804l-0.29277,0.07319c0.1926,0.00422 2.48716,0.10474 2.48716,2.49981c0,0.50012 -0.10005,0.9002 -0.26012,1.22024c0.00666,0.0862 0.01012,0.17572 0.01012,0.26872c0,1.40718 -0.79206,2.02229 -1.48452,2.29118c3.37261,7.00798 10.85514,10.23292 18.47482,11.75736c3.87205,0.77467 8.70685,1.41567 12.48928,-0.33081c1.96868,-0.90901 4.27097,-2.37828 6.02042,-3.71773c1.70014,-1.24428 3.07475,-2.79263 4.52916,-4.29234l-1.1355,-0.28231c0,0 -2.42535,-0.60634 -1.81902,-3.03169c0.60634,-2.42535 3.0317,-1.81902 3.0317,-1.81902l1.88395,0.4739c3.67056,0.74851 7.33923,1.78196 10.55435,3.68017c6.61988,2.24549 12.3185,6.92166 18.56627,10.03167c6.11388,3.04336 11.44875,6.8083 16.5564,11.3768c2.63646,2.35816 5.59991,4.0622 8.26244,6.35768c0.02389,-0.05458 0.04738,-0.10887 0.07047,-0.1629c-0.76091,-0.37428 -1.17082,-1.09162 -1.17082,-1.09162c-2.57265,-4.5025 -5.11728,-9.60798 -8.29991,-13.70181c-6.97492,-8.9719 -16.78166,-15.90645 -27.24185,-20.14217c-9.79512,-1.91311 -18.59008,-5.89473 -28.08461,-0.70484c-2.08921,1.142 -4.12376,2.1081 -5.52361,4.03329l-0.85822,2.20367c0,0 -0.61877,1.54693 -2.10888,1.60996c2.03484,0.93217 4.43052,1.42692 6.21617,2.14037l-0.42848,-0.1788c0,0 2.48846,0.01725 2.49996,2.49996c0,2.5 -2.5,2.5 -2.5,2.5zM226.99933,92.23528l-0.00004,-0.01729c0.00003,0.00575 0.00004,0.01152 0.00004,0.01729zM240.81988,26.01043c1.27645,-2.30542 2.30372,-4.22807 3.35822,-6.70367c0.34371,-0.80691 1.38321,-1.74135 0.89921,-2.47278c-0.29511,-0.44597 -1.17458,0.01205 -1.5573,0.38555c-0.6575,0.64166 -0.88279,1.77824 -1.72206,2.15194c-1.50877,0.6718 -3.25253,1.00097 -4.89091,0.7926c-1.04519,-0.13293 -1.70864,-1.24299 -2.63256,-1.74942c-3.59999,-1.9733 -6.95129,-1.72767 -10.56282,-0.28306c-0.90736,0.18503 -1.81471,0.37007 -2.72207,0.5551l-2.5,0.5c0,0 -0.73641,0.14728 -1.48273,-0.12322c-1.04298,0.51674 -1.99331,0.02776 -2.46426,-0.30672c-2.2849,0.29106 -3.56614,2.2971 -5.15466,4.11649c-1.21047,1.38639 -3.49672,2.70427 -3.38864,4.862c0.01811,0.36148 0.05859,0.72019 0.11389,1.0771c3.26379,-1.56593 6.53759,-3.19222 10.13977,-3.56494c7.90219,-0.81765 15.97902,0.75233 23.30668,3.69852c0.57335,-0.40134 0.54336,-1.64071 1.26025,-2.9355zM190.64451,80.02587c-0.29948,0.29291 -0.56135,0.66071 -0.83651,0.99403c0.05331,-0.0254 0.10873,-0.04975 0.16631,-0.07297c0.34238,-0.31435 0.67852,-0.63662 1.00719,-0.96841l2.53458,-0.67055z" fill="#000000" stroke="none" stroke-width="0.5" stroke-linecap="butt"/><path d="M162.42718,84.2385c1.73268,0.00353 5.64245,-0.00486 6.00041,-0.11854c1.2705,-0.40347 2.20486,-1.57846 3.3981,-2.17272c2.33053,-1.16064 3.89275,-0.68702 6.26417,-2.11687c1.6148,-0.97364 2.37361,-3.05004 4.00408,-3.9972c0.14621,-0.08493 0.30029,-0.1536 0.45851,-0.21219c0.01759,0.08506 0.04166,0.16893 0.0713,0.25052c0.47045,1.29467 1.94409,1.93416 3.35122,2.42133c-2.13612,2.66423 -4.07206,3.93037 -0.92695,6.62045c-1.28803,0.94949 -2.58339,1.90823 -3.83457,2.90918c-4.82624,3.86099 -9.89581,7.40996 -15.78608,9.4247l-0.53404,-0.70808c-2.51557,-2.32646 -3.36931,-8.34853 -2.46615,-12.30058z" data-paper-data="{&quot;noHover&quot;:false,&quot;origItem&quot;:[&quot;Path&quot;,{&quot;applyMatrix&quot;:true,&quot;segments&quot;:[[[329.85364,193.00389],[-5.03114,-4.65292],[0,0]],[[330.91692,194.41597],[0,0],[11.78054,-4.02948]],[[362.32864,175.62585],[-9.65248,7.72198],[2.50236,-2.0019]],[[369.9969,169.84013],[-2.57606,1.89898],[-6.29022,-5.38016]],[[371.86722,156.64187],[-4.27224,5.32846],[-2.81426,-0.97434]],[[365.1843,151.82047],[0.9409,2.58934],[-0.05928,-0.16318]],[[365.0429,151.32039],[0.03518,0.17012],[-0.31644,0.11718]],[[364.12724,151.74581],[0.29242,-0.16986],[-3.26094,1.89432]],[[356.12724,159.74581],[3.2296,-1.94728],[-4.74284,2.8597]],[[343.69536,163.98413],[4.66106,-2.32128],[-2.38648,1.18852]],[[336.94752,168.27801],[2.541,-0.80694],[-0.71592,0.22736]],[[324.95254,168.49551],[3.46536,0.00706],[-1.80632,7.9041]]],&quot;closed&quot;:true,&quot;fillColor&quot;:[0,0,0,1]}]}" fill="#864100" stroke="none" stroke-width="0.5" stroke-linecap="butt"/><path d="M225.97374,92.27821c-0.0115,-2.48271 -2.50637,-2.50449 -2.50637,-2.50449l0.42927,0.17944c-1.78565,-0.71345 -4.19012,-1.21724 -6.22496,-2.14941c1.49011,-0.06303 2.10885,-1.60999 2.10885,-1.60999l0.85644,-2.2062c1.39985,-1.92519 3.51861,-2.9452 5.60782,-4.0872c9.49453,-5.18989 18.20164,-1.20278 27.99676,0.71033c10.46019,4.23572 20.35458,11.21796 27.3295,20.18986c3.18263,4.09383 5.72416,9.20367 8.29681,13.70617c0,0 0.40985,0.71741 1.17076,1.09169c-0.02309,0.05403 -0.04666,0.10842 -0.07055,0.163c-2.66253,-2.29548 -5.62609,-3.99937 -8.26255,-6.35754c-5.10765,-4.5685 -10.44383,-8.33188 -16.55771,-11.37524c-6.24777,-3.11001 -11.95625,-7.77755 -18.57613,-10.02304c-3.21512,-1.89821 -6.91376,-2.92332 -10.58432,-3.67183l-1.89242,-0.47501c0,0 -2.39504,-0.70117 -3.00138,1.72418c-0.60633,2.42535 1.81057,3.02895 1.81057,3.02895l1.11673,0.38047c-1.45441,1.49971 -2.83768,3.04592 -4.53782,4.2902c-1.74945,1.33945 -4.05927,2.80542 -6.02795,3.71443c-3.78243,1.74648 -8.62957,1.09606 -12.50162,0.32139c-7.61968,-1.52444 -15.11413,-4.77013 -18.48674,-11.77811c0.69246,-0.26889 1.48399,-0.88598 1.48399,-2.29316c0,-0.093 -0.00353,-0.18281 -0.01019,-0.26901c0.16007,-0.32004 0.25984,-0.72139 0.25984,-1.22151c0,-2.39507 -2.29513,-2.49881 -2.48773,-2.50303l0.29277,-0.07322c1.1133,-0.25265 1.9441,-1.25077 1.9441,-2.44053c0,-1.22888 -0.88683,-2.25363 -2.0553,-2.46349l-2.45461,-0.49152l-0.02029,0.10153l-0.22366,-0.13795c-0.51211,0.00516 -1.02943,-0.03715 -1.54462,-0.06004c0.78378,-0.8332 1.46384,-1.79583 2.36004,-2.5027c0,0 1.95246,-1.56554 0.39072,-3.51771c-0.72024,-0.9003 -1.52343,-1.05396 -2.17997,-0.9574c-0.26202,-0.17586 -0.54077,-0.28625 -0.78719,-0.35522c-1.643,-1.94942 -3.37781,-3.94874 -4.08757,-6.34415c-1.005,-3.39185 0.13972,-5.90522 1.02243,-9.15365c2.38994,-8.79514 9.95189,-11.20381 17.13309,-15.29224c0.36592,0.13862 0.81816,0.19159 1.3742,0.09892c1.329,-0.2215 1.82439,-1.04159 1.99684,-1.74915c3.17991,-1.53119 6.39995,-3.407 9.84931,-3.73644c6.3422,-0.60572 12.74949,0.42205 18.71616,2.51214c0.59776,0.7525 1.56801,0.94606 1.56801,0.94606c0.67958,0.08073 1.3818,0.33415 2.06845,0.47595c0.95267,0.41275 1.89499,0.85121 2.81734,1.31238c4.53142,2.26571 9.16435,4.64369 11.39363,9.38397c2.0691,4.13134 3.26126,7.74593 3.2505,12.39339c-0.00576,2.48868 -0.09943,5.02605 0.00782,7.51218c0.05212,1.20809 -0.30552,2.56146 0.26691,3.62661c1.84635,3.43561 6.10651,3.13495 9.07729,4.60857c6.53857,3.2434 11.93726,10.11178 15.58241,16.19812c1.43601,1.88335 2.09896,3.92569 2.90902,6.03715c-7.42897,-8.58338 -17.25314,-15.21161 -27.71817,-19.35417c-4.83456,-0.98588 -9.61096,-3.15319 -14.50606,-3.57854c-9.00988,-0.78289 -19.12904,1.80907 -24.79004,9.23922l-1.14358,2.79241c0,0 -0.41563,0.8678 -0.1945,1.72788c-0.5054,-0.53609 -0.909,-1.17 -1.16473,-1.92256c-0.36463,-1.07299 0.57639,-2.62264 0.90979,-3.40939c0,0 0.92664,-2.32817 -1.39455,-3.25665c-2.32119,-0.92848 -3.15166,1.3729 -3.15166,1.3729c-0.3779,0.98524 -0.96308,1.91026 -1.13483,2.95141c-1.38288,8.38274 7.13003,10.41426 13.00768,12.76812l1.42645,0.17744c0,0 2.44746,0.08507 2.44746,-2.41493z" data-paper-data="{&quot;noHover&quot;:false,&quot;origItem&quot;:[&quot;Path&quot;,{&quot;applyMatrix&quot;:true,&quot;segments&quot;:[[448.9985,189.47039],[[446.14156,189.11277],[0,0],[-11.7553,-4.70772]],[[420.08874,163.52485],[-2.76576,16.76548],[0.3435,-2.0823]],[[422.35614,157.61343],[-0.7558,1.97048],[0,0]],[[428.85548,154.82801],[-4.64238,-1.85696],[4.64238,1.85696]],[[431.6409,161.32735],[0,0],[-0.6668,1.5735]],[[429.8171,168.13573],[-0.72926,-2.14598],[0.51146,1.50512]],[[432.14254,171.97325],[-1.0108,-1.07218],[-0.44226,-1.72016]],[432.35614,168.61345],[[434.6397,163.02079],[0,0],[11.322,-14.8603]],[[484.41092,144.48745],[-18.01976,-1.56578],[9.7902,0.8507]],[[513.42324,151.67771],[-9.66912,-1.97176],[20.93006,8.28512]],[[568.8508,190.41377],[-14.85794,-17.16676],[-1.62012,-4.22292]],[[562.84928,178.26037],[2.87202,3.7667],[-7.2903,-12.17268]],[[531.678,145.89931],[13.07714,6.4868],[-5.94156,-2.94724]],[[513.52638,136.70649],[3.6927,6.87122],[-1.14486,-2.1303]],[[512.99852,129.47043],[0.10424,2.41618],[-0.2145,-4.97226]],[[512.99852,114.47043],[-0.01152,4.97736],[0.02152,-9.29492]],[[506.52638,89.70651],[4.1382,8.26268],[-4.45856,-9.48056]],[[483.7767,70.94967],[9.06284,4.53142],[-1.8447,-0.92234]],[[478.14956,68.32531],[1.90534,0.8255],[-1.3733,-0.2836]],[[474.01794,67.37335],[1.35916,0.16146],[0,0]],[[470.88572,65.48101],[1.19552,1.505],[-11.93334,-4.18018]],[[433.49122,60.44611],[12.6844,-1.21144],[-6.89872,0.65888]],[[413.81018,67.90755],[6.35982,-3.06238],[-0.3449,1.41512]],[[409.82052,71.40241],[2.658,-0.443],[-1.11208,0.18534]],[[407.0735,71.20331],[0.73184,0.27724],[-14.3624,8.17686]],[[372.83104,101.75377],[4.77988,-17.59028],[-1.76542,6.49686]],[[370.79126,120.04569],[-2.01,-6.7837],[1.41952,4.79082]],[[378.96834,132.72365],[-3.286,-3.89884],[0.49284,0.13794]],[[380.54278,133.43359],[-0.52404,-0.35172],[1.31308,-0.19312]],[[384.9029,135.34695],[-1.44048,-1.8006],[3.12348,3.90434]],[[384.12202,142.37477],[0,0],[-1.7924,1.41374]],[[379.402,147.37487],[1.56756,-1.6664],[1.03038,0.04578]],[[382.49124,147.49477],[-1.02422,0.01032],[0,0]],[382.93856,147.77037],[382.97914,147.56753],[[387.88832,148.54937],[0,0],[2.33694,0.41972]],[[391.99856,153.47045],[0,-2.45776],[0,2.37952]],[[388.10978,158.34653],[2.2266,-0.5053],[0,0]],[[387.52424,158.49291],[0,0],[0.3852,0.00844]],[[392.49856,163.49253],[0,-4.79014],[0,1.00024]],[[391.97832,165.93301],[0.32014,-0.64008],[0.01332,0.1724]],[[391.99856,166.47045],[0,-0.186],[0,2.81436]],[[389.02952,171.05281],[1.38492,-0.53778],[6.74522,14.01596]],[[425.97916,194.56753],[-15.23936,-3.04888],[7.7441,1.54934]],[[450.95772,193.90591],[-7.56486,3.49296],[3.93736,-1.81802]],[[462.99856,186.47045],[-3.4989,2.6789],[3.40028,-2.48856]],[[472.05688,177.88577],[-2.90882,2.99942],[0,0]],[469.78588,177.32115],[[466.14784,171.25777],[-1.21266,4.8507],[1.21268,-4.8507]],[472.21124,167.61973],[[475.97914,168.56753],[0,0],[7.34112,1.49702]],[[497.08784,175.92787],[-6.43024,-3.79642],[13.23976,4.49098]],[[534.22038,195.99121],[-12.49554,-6.22002],[12.22776,6.08672]],[[567.33318,218.74481],[-10.2153,-9.137],[5.27293,4.71633]],[[583.85805,231.46017],[-5.32506,-4.59096],[0.04778,-0.10916]],[[583.999,231.13437],[-0.04618,0.10805],[-1.52182,-0.74855]],[[581.65736,228.95113],[0,0],[-5.1453,-9.005]],[[565.05754,201.54751],[6.36526,8.18766],[-13.94984,-17.9438]],[[510.57384,161.26317],[20.92038,8.47144],[-19.59024,-3.82622]],[[454.40462,159.85349],[18.98906,-10.37978],[-4.17842,2.284]],[[443.3574,167.92007],[2.7997,-3.85038],[0,0]],[441.64096,172.32741],[[437.4232,175.54733],[2.98022,-0.12606],[4.06968,1.86434]],[[449.85554,179.82807],[-3.5713,-1.4269],[0,0]],[448.99858,179.47047],[[453.9985,184.47039],[-0.02301,-4.96541],[0,5]]],&quot;closed&quot;:true}]}" fill="#cc894a" stroke="none" stroke-width="0.5" stroke-linecap="butt"/><path d="M-13.00297,373.98581v-403.9039h510.51052v403.90391z" fill="#000000" stroke="#000000" stroke-width="2" stroke-linecap="butt"/><path d="M298.91594,80.57961c0,39.7645 -31.34007,72 -70,72c-38.65993,0 -70,-32.2355 -70,-72c0,-39.7645 31.34007,-72 70,-72c38.65993,0 70,32.2355 70,72z" fill="#c7c7c7" stroke="#000000" stroke-width="2" stroke-linecap="butt"/><text transform="translate(45.94127,180.42279) scale(0.58667,0.58667)" font-size="40" xml:space="preserve" fill="#ffffff" fill-rule="nonzero" stroke="none" stroke-width="1" stroke-linecap="butt" stroke-linejoin="miter" stroke-miterlimit="10" stroke-dasharray="" stroke-dashoffset="0" font-family="Sans Serif" font-weight="normal" text-anchor="start" style="mix-blend-mode: normal"><tspan x="0" dy="0">" You will feel my feathery wrath!"</tspan></text><path d="M72.50004,209.53383l-36,-8h28" fill="none" stroke="#000000" stroke-width="0.5" stroke-linecap="round"/><path d="M442.50001,197.53383v22h-413" fill="none" stroke="#ff0000" stroke-width="3" stroke-linecap="round"/><path d="M28.50004,228.53381v-21" fill="none" stroke="#ff0000" stroke-width="3.5" stroke-linecap="round"/><path d="M174.50004,205.53383v21" fill="none" stroke="#ff0000" stroke-width="3" stroke-linecap="round"/><path d="M313.50001,207.53383v16" fill="none" stroke="#ff0000" stroke-width="3" stroke-linecap="round"/><path d="M439.75229,202.53383v-11h21v11z" fill="#00ff2d" stroke="#00ff15" stroke-width="3" stroke-linecap="butt"/><text transform="translate(82.75228,279.78381) scale(0.56501,0.56501)" font-size="40" xml:space="preserve" fill="#00ca25" fill-rule="nonzero" stroke="none" stroke-width="1" stroke-linecap="butt" stroke-linejoin="miter" stroke-miterlimit="10" stroke-dasharray="" stroke-dashoffset="0" font-family="Sans Serif" font-weight="normal" text-anchor="start" style="mix-blend-mode: normal"><tspan x="0" dy="0">Click Green Flag To Try Again</tspan></text><text transform="translate(174.75229,348.03385) scale(0.63001,0.63001)" font-size="40" xml:space="preserve" fill="#ffffff" fill-rule="nonzero" stroke="none" stroke-width="1" stroke-linecap="butt" stroke-linejoin="miter" stroke-miterlimit="10" stroke-dasharray="" stroke-dashoffset="0" font-family="Sans Serif" font-weight="normal" text-anchor="start" style="mix-blend-mode: normal"><tspan x="0" dy="0">AS Studios</tspan></text><path d="M275.98225,133.17799c-0.04758,-0.04758 -0.0926,-0.09516 -0.13516,-0.1427c-1.17338,-0.39497 -2.38268,-0.81041 -2.51811,-0.89077c-1.8259,-1.08348 -3.31052,-3.31193 -5.12321,-4.39133c-1.47504,-0.87833 -3.24222,-1.27303 -4.5894,-2.33711c-3.96175,-3.12923 -7.32175,-7.40724 -10.50141,-11.23329c-1.12662,-1.35565 -2.74201,-2.28902 -3.72878,-3.7496c-0.96367,-1.42639 -1.63186,-3.09313 -2.8582,-4.30116c-1.71395,-2.57266 -3.89094,-6.38825 -4.96835,-10.10439c-2.7137,0.69796 -5.70988,0.89996 -8.47797,0.51396c-2.29981,-0.32071 -4.41621,-1.14106 -6.80223,-0.7418c-5.21688,0.87296 -8.99328,4.24911 -13.18401,7.0352c-2.43221,1.61699 -4.88763,2.28198 -7.41544,3.71956c-2.69674,1.53366 -4.77454,4.12934 -6.94345,6.29825c-2.00197,2.00197 -4.77166,4.06829 -6.39645,6.36304c-0.63047,0.89043 -0.8586,2.01974 -1.46378,2.92755c-0.35924,0.53889 -1.05032,0.80546 -1.39167,1.35586c-0.89303,1.43996 -0.665,3.35037 -1.34692,4.90149c-0.52209,1.18756 -1.82188,2.28185 -2.87221,3.4083c0.05113,1.1556 0.24034,2.32301 0.07745,3.46345c-0.36709,2.56999 -1.29846,5.05785 -2.12663,7.56154c0.00981,0.40965 -0.00393,0.81741 -0.06904,1.22111c-0.12284,0.76164 -0.63444,1.43036 -0.73189,2.19566c-0.22185,1.74224 -0.29909,3.53827 0,5.26893c0.13138,0.76021 0.79686,1.42693 0.73189,2.19566c-0.0083,0.09819 -0.01929,0.19587 -0.03268,0.29309h0.05631v2.19566c0,1.01052 -0.81919,1.82972 -1.82972,1.82972c-0.64518,0 -1.21237,-0.33393 -1.53816,-0.83838l-1.44803,-2.17205l0.03016,-0.02011l-0.09029,-0.07645c-3.88551,-7.77693 -6.34859,-16.54595 -5.35668,-25.29424c0.54699,-4.82425 2.91832,-10.32896 4.45059,-14.92576c0.27178,-1.05207 0.38959,-2.15647 0.81533,-3.1562c0.34464,-0.80929 1.11709,-1.38725 1.46378,-2.19566c0.40301,-0.93975 0.29326,-2.06039 0.75307,-2.97369c0.59523,-1.18229 1.58924,-2.11767 2.35411,-3.19798c4.79365,-6.77057 10.68175,-12.76131 17.16707,-17.92351c1.3497,-1.07434 2.33367,-2.5557 3.65944,-3.65944c0.10062,-0.08376 4.66107,-3.12204 4.74746,-3.15622c0.42346,-0.16755 1.04278,0.41731 1.363,0.0935c0.24313,-0.24586 -0.60359,-0.3833 -0.78578,-0.67718c-0.58714,-0.94712 -0.99293,-1.99529 -1.4894,-2.99294c-0.85783,-3.44316 -1.40027,-7.58834 -0.82191,-11.17433c0.12284,-0.76164 0.60506,-1.43468 0.73189,-2.19566c0.31035,-1.86211 0.40521,-3.60699 0.94119,-5.36923c-0.75575,-1.15974 0.30299,-2.21848 0.30299,-2.21848c0.51869,-0.48829 0.92506,-1.14841 1.49591,-1.55689c2.16461,-3.67672 5.04587,-7.09437 7.98119,-10.10605c-1.93192,-3.33698 -4.36765,-7.00839 -7.0781,-9.69872l-0.00006,-0.00005c-1.0187,-1.01113 -2.38497,-1.81289 -2.95853,-3.12863c-1.40823,-3.2305 -0.28448,-6.92136 3.86602,-6.96788c1.0203,-0.01144 1.99379,0.37568 2.94974,0.79061c-0.55538,-1.43784 -0.737,-2.99471 -0.07355,-4.01207c0.61076,-0.93655 1.91905,-1.21261 2.99884,-1.5028c2.56687,-0.68985 4.67397,-0.02561 6.48769,1.25713c1.09322,-0.65113 2.46548,-0.97253 3.44686,-0.9227c2.81799,0.14307 5.08608,1.37455 7.11452,3.00844c1.67339,-1.74831 5.91444,-0.74655 7.56917,0.12799c5.11333,2.70246 7.50906,8.21953 8.62718,13.70259l0.34685,1.37884c0,0 0.13469,0.53875 -0.04114,1.09684c3.70815,1.16703 7.45552,3.03108 10.26299,5.46891c0.03153,0.02738 0.06443,0.05702 0.09861,0.08878c1.2567,0.27669 2.48859,0.62607 3.66974,1.01905l1.70344,0.83116c0,0 1.63655,0.81828 0.81828,2.45483c-0.43429,0.86859 -1.09909,1.04568 -1.62738,1.02062c2.25124,2.21722 4.83846,3.1727 5.45636,6.65067c0.8883,4.99996 -0.75198,10.05575 -0.70826,14.93084c-0.01781,4.09269 -0.66123,8.13285 -3.34227,11.40645c-0.65582,0.80077 -1.53204,1.40136 -2.19566,2.19566c-0.60216,0.72073 -0.92087,1.66535 -1.58497,2.32945c-0.6641,0.6641 -1.60871,0.98281 -2.32945,1.58497c-1.81809,1.51897 -2.58199,3.22153 -5.02112,3.99565c-0.25704,0.08158 -0.52301,0.13886 -0.79573,0.17502c0.33716,0.75937 0.66646,1.52365 1.09007,2.23505c1.19454,2.00608 3.20347,3.77776 4.41742,5.89866c1.11999,1.95673 1.35737,3.21472 2.76001,4.88158c2.996,3.56038 6.52721,6.67083 9.51454,10.24643c2.79407,3.34428 5.36275,5.93741 9.26636,7.60097c0.24119,-0.16761 2.07469,-1.346 3.47342,0.51897c1.5,2 -0.5,3.5 -0.5,3.5c-1.97953,1.44876 -3.02982,3.03976 -4.5,5l-0.72433,0.73919c-0.01589,0.14943 -0.05047,0.30959 -0.10762,0.48103c-0.43429,1.30286 -1.52049,1.30187 -2.03534,1.22032c-0.65942,0.21091 -1.52995,0.19776 -2.40048,-0.67277zM277.25001,128.4102c0.91634,-1.22178 1.73721,-2.3161 2.64559,-3.33741c-3.68659,-1.89197 -6.39751,-4.57179 -9.21536,-7.96249c-2.97584,-3.58081 -6.55013,-6.6577 -9.51454,-10.24643c-1.84413,-2.23251 -1.63388,-2.80331 -3.09509,-5.36485c-1.20616,-2.11443 -3.15416,-3.80556 -4.36523,-5.81154c-0.83505,-1.38315 -1.25635,-3.00008 -2.16163,-4.33832l-0.07916,-0.44995c-0.95171,-0.3186 -1.85768,-0.6991 -2.63647,-1.02483c-0.42432,-0.17747 -0.75517,-0.81586 -1.19667,-0.68694c-0.42332,0.12361 -0.62593,0.63783 -0.89439,1.02438c0.23831,0.157 0.46315,0.40064 0.64679,0.7679c0.81828,1.63655 -0.81828,2.45483 -0.81828,2.45483l-1.26711,0.61775c-0.09469,0.06236 -0.18938,0.12472 -0.28406,0.18708c0.76994,3.24054 2.55539,6.89271 4.34356,9.57257c1.26212,1.27926 2.01037,2.97941 2.9969,4.48149c0.92636,1.41048 2.50815,2.27428 3.59009,3.56927c3.06186,3.6648 6.23336,7.66698 9.99145,10.72334c1.20753,0.98205 2.8608,1.24977 4.19325,2.05421c1.82524,1.10196 3.31345,3.28899 5.12321,4.39133c0.28942,0.17629 0.59523,0.31647 0.91138,0.43395zM247.42955,35.61849c-0.517,-2.64705 -1.71972,-4.84644 -2.80251,-7.2941c-0.21325,-0.48205 -0.21099,-1.07118 -0.53223,-1.4891c-0.89741,-1.16748 -3.27606,-2.65905 -4.73163,-2.95291c-0.45007,-0.09086 -0.96112,-0.00433 -1.40868,-0.08237l1.40151,1.96211c0.22205,0.30284 0.35319,0.67652 0.35319,1.08083c0,1.01052 -0.81919,1.82972 -1.82972,1.82972c-0.58413,0 -1.10433,-0.27372 -1.43933,-0.6999l-1.40571,-1.75714c-1.76061,-1.76006 -2.97885,-3.0937 -5.38054,-3.84574c-0.69787,-0.21852 -1.37091,-0.54819 -2.09484,-0.65165c-0.07905,-0.0113 -0.15739,-0.0047 -0.23536,0.01177c0.31947,0.21313 0.55132,0.58211 0.71885,1.0294c0.64876,0.80109 1.26509,1.61121 1.86364,2.36552l0.0249,0.20307l0.07041,-0.03521l1.08137,2.16274c0.13387,0.25427 0.20963,0.54388 0.20963,0.8512c0,1.01052 -0.81919,1.82972 -1.82972,1.82972c-0.55278,0 -1.04832,-0.24513 -1.38382,-0.63263l-2.40294,-2.74622l0.02147,-0.01878c-0.04266,-0.03751 -0.08501,-0.07543 -0.12702,-0.11377c-0.0727,-0.06633 -1.25769,-2.05789 -2.12719,-3.63574c-1.58922,-1.55718 -3.47711,-2.62322 -5.63933,-1.70755c-0.511,0.2164 0.78765,0.79058 1.10191,1.24796c0.44674,0.65021 0.96903,1.28107 1.21634,2.03019c0.00309,0.00935 0.00616,0.0187 0.00923,0.02806l0.00506,-0.00281l1.76104,3.16987c0.15668,0.26976 0.2464,0.58322 0.2464,0.91764c0,1.01052 -0.81919,1.82972 -1.82972,1.82972c-0.50526,0 -0.96269,-0.2048 -1.29381,-0.53591l-1.26587,-1.26587c-1.33902,-0.56977 -5.61931,-3.53815 -6.681,-2.47646c-1.1187,1.1187 2.13757,3.36832 2.46335,3.69627c2.68557,2.70353 5.12038,6.19164 7.13257,9.53987c0.92324,-1.02851 1.90344,-2.05534 2.89117,-2.64656c3.13356,-1.87562 7.98687,-2.44531 11.50146,-2.44531c2.46921,0.82307 4.09363,0.28772 6.57546,0.73005c2.01441,0.35902 3.99713,0.87582 5.99299,1.32826zM222.78669,72.61563c-0.44364,-1.33093 -0.57429,-2.79807 -1.2844,-4.00799c-0.44227,-0.75356 -1.57453,-1.13899 -1.6881,-2.00534c-0.31622,-2.41234 0.83627,-3.97448 2.44153,-5.05271c-1.51668,-1.07843 -2.3925,-3.03692 -3.5568,-4.55862c-0.9148,1.36054 -2.11267,2.56596 -2.74953,4.07608c-0.39088,0.92683 -0.33373,2.00382 -0.73189,2.92755c-0.31949,0.74123 -1.11377,1.22576 -1.38587,1.98567c-0.18736,0.52323 0.06996,1.10974 0.07851,1.66544c0.02175,1.41382 -0.25841,2.15817 0.45862,3.42938c1.26096,2.23554 5.89131,2.04351 7.95809,2.05977c0.31617,0.00249 0.63881,0.06322 0.95746,0.09419zM246.19172,65.6517c0.17791,-0.65528 1.08962,-0.87827 1.39417,-1.48514c0.09138,-0.18209 -0.40795,-0.03546 -0.6049,-0.08762c-0.61052,-0.16168 -1.23312,-0.30075 -1.81233,-0.55251c-1.11515,-0.48471 -2.76947,-0.53403 -3.25361,-1.64944c-0.53856,-1.24081 0.19377,-2.77277 0.81199,-3.97588c1.77395,-3.45224 6.91345,-5.78228 10.63219,-5.23548c0.97412,0.14323 1.93253,0.44895 2.90279,0.60794c-0.26124,-1.81218 -0.88333,-3.49753 -2.29402,-4.82692l-0.73189,-0.73189c0,0 -0.54878,-0.54878 -0.57412,-1.28893c-1.86688,0.50893 -3.63297,1.46361 -5.22089,3.01536c-4.02602,1.34201 -6.1004,5.26775 -9.31646,7.90931c-1.32661,1.08963 -3.11861,1.4517 -4.5894,2.33711c-0.28107,0.16921 -0.49012,0.43516 -0.6966,0.70296c0.18309,0.56342 0.04597,1.11191 0.04597,1.11191c-0.40491,1.5865 -1.05687,3.93812 -0.95377,5.85487c0.37871,-0.15493 0.86562,-0.18199 1.46074,0.11557c1.63655,0.81828 0.81828,2.45483 0.81828,2.45483l-0.45159,0.72332c1.52789,1.27433 3.71785,2.35401 4.96323,2.50741c0.94554,0.11646 1.9132,-0.132 2.85802,-0.00992c0.90259,0.11663 1.72564,0.65966 2.63377,0.71953c1.42002,0.0936 2.6086,-1.93512 3.30152,-2.51418c0.14892,-0.12445 0.30407,-0.24593 0.46434,-0.36513c-1.75565,-1.9018 -2.65622,-2.13708 -1.78742,-5.33709zM224.94291,76.74533c-0.83917,0.23765 -1.74389,0.04362 -2.61604,0.04895c-3.63578,0.02222 -8.89589,-0.27289 -11.07099,-3.79533c-1.1835,-1.9166 -1.02698,-3.27945 -1.00516,-5.35327c0.00957,-0.90896 -0.19518,-1.85906 0.07851,-2.72589c0.28676,-0.90823 1.16818,-1.52953 1.54168,-2.40566c0.39446,-0.92531 0.33087,-2.00506 0.73189,-2.92755c0.07849,-0.18056 2.87284,-4.35765 3.07844,-4.66605c0,0 0.00114,-0.00172 0.00341,-0.00499c-0.24587,-0.04276 -0.50595,-0.06494 -0.78204,-0.064c-0.61269,0.00209 -1.2396,0.06122 -1.83804,0.21153c-2.7787,5.69368 -3.81248,12.09664 -2.1956,18.53479c0.6573,1.30813 2.83279,4.96897 2.11615,6.5763c-0.46223,1.03671 -2.04578,0.98891 -3.02832,1.55728c-3.66928,2.12255 -6.60916,5.21037 -9.8903,7.8221c-2.05981,1.63958 -3.85781,3.8704 -5.72132,5.73391c-1.84686,1.84686 -4.05996,3.71479 -5.73391,5.72132c-1.09931,1.31772 -1.84512,2.89621 -2.84888,4.2881c-0.65281,0.90524 -1.54118,1.65734 -2.03721,2.65712c-0.43967,0.88618 -0.32123,1.97205 -0.71071,2.88141c-0.6996,1.63345 -1.6971,3.16677 -2.11222,4.89456c-0.81588,2.44762 -1.40134,4.93783 -2.21659,7.38592c-0.7324,2.19932 -1.86422,4.6472 -2.11548,6.96383c-0.59038,5.44353 0.26252,10.91048 1.99646,16.08792c0.28174,-1.24502 0.65191,-2.46998 1.04313,-3.69063c-0.00444,-1.10704 -0.2376,-2.23284 -0.08462,-3.32987c0.13892,-0.99625 0.6029,-1.92997 0.73189,-2.92755c0.13827,-1.06939 -0.25235,-2.20362 0.0648,-3.23421c0.34256,-1.11316 0.99919,-1.92589 1.72218,-2.67271c0.06085,-1.72072 0.11816,-3.43999 0.4186,-5.14092c0.41949,-2.37498 1.35527,-3.29955 2.31132,-5.53033c2.43911,-5.69127 4.62645,-11.35708 9.05809,-15.82946c0.52832,-0.77648 0.92198,-1.66425 1.58497,-2.32945c0.62095,-0.62302 1.57182,-0.84365 2.19566,-1.46378c0.67955,-0.67551 0.87604,-1.78691 1.64695,-2.35595c0.85879,-0.63391 1.96679,-0.87326 3.0132,-1.08389c2.59022,-0.5214 5.44575,0.38198 8.05076,0c0.76331,-0.11193 1.43325,-0.61397 2.19566,-0.73189c0.59041,-0.09132 1.235,0.34039 1.78855,0.11565c0.55363,-0.22477 0.68803,-1.02513 1.20204,-1.32978c2.00833,-1.19035 2.63715,-0.59257 4.54938,-1.55099c4.36282,-2.18666 8.00702,-6.38212 10.89336,-10.18383l0.61679,-1.92509c0,0 0.25117,-0.75352 0.91901,-1.10214c-0.13972,-0.09223 -0.28657,-0.17094 -0.4453,-0.22748c-0.52355,-0.18647 -1.11029,0.05234 -1.66544,0.07851c0,0 -1.82972,0 -1.82972,-1.82972c0,-1.82972 1.82972,-1.82972 1.82972,-1.82972c0.90863,0.02617 1.85952,-0.19662 2.72589,0.07851c0.92987,0.29529 1.59719,1.13403 2.46933,1.57132c0.7946,0.39841 1.83417,0.3353 2.5024,0.92146c0.94295,0.82714 1.66555,1.94447 2.10436,3.11953c0.1066,0.28547 0.07851,5.48393 0.07851,5.65344v1.46378c0,0 0,1.82972 -1.82972,1.82972c-1.82972,0 -1.82972,-1.82972 -1.82972,-1.82972v-1.46378c0,-1.53122 0.45482,-3.10873 0.07851,-4.59299c-0.3253,-1.28306 -0.80216,-1.31234 -1.54673,-1.44829c0.02311,0.42712 -0.08945,0.76479 -0.08945,0.76479l-0.84698,2.46624c-1.88065,2.53203 -4.0141,5.15632 -6.43689,7.41833c4.41446,-0.04328 8.74712,1.76445 13.15331,0.45387c-0.04067,-0.73711 -0.01029,-1.45049 0.10562,-2.1277c0.23525,-1.37444 0.57851,-2.98627 1.69181,-3.82592c0.71358,-0.53818 1.74572,0.76486 2.61903,0.57468c0.67423,-0.14682 0.78113,-1.36311 1.46378,-1.46378c1.92964,-0.28455 4.24256,1.49097 6.35266,2.14782c0.33588,0.00972 0.60738,0.08288 0.82685,0.1948c0.519,0.07725 1.01996,0.05541 1.4933,-0.1174c1.17006,-0.42717 3.09963,-2.77316 3.76153,-3.32323c0.63077,-0.5242 1.48194,-0.76265 2.06188,-1.34258c0.57994,-0.57994 0.81838,-1.43111 1.34258,-2.06188c0.66155,-0.79603 1.52522,-1.40711 2.19566,-2.19566c2.14625,-2.52438 2.52889,-5.91909 2.51283,-9.08641c0.01337,-1.82287 0.44508,-3.62002 0.75551,-5.4163c0.33465,-1.9364 -0.03325,-4.32576 -0.02363,-6.2939c0.00145,-0.2973 0.27135,-3.31454 -0.35626,-4.01259c-0.49636,-0.55206 -1.33304,-0.68203 -1.90159,-1.15941c-1.00364,-0.8427 -1.90319,-1.80559 -2.78468,-2.77534c-1.11641,-1.2282 -1.99358,-2.68307 -3.12687,-3.8877c-1.08881,-0.19725 -2.1761,-0.31764 -3.24935,-0.33667c3.88887,4.13623 3.38358,9.31554 3.34436,14.66046c-0.70512,2.18102 -1.26131,5.29216 -2.44531,7.25584c-1.76654,2.92983 -5.21773,4.23254 -7.71531,6.30816c-2.21403,1.83998 -2.25902,3.20836 -5.48113,3.34092c-1.10113,0.0453 -2.12729,-0.61157 -3.22133,-0.74425c-0.99176,-0.12028 -2.01037,0.14651 -2.99708,-0.00992c-2.15906,-0.3423 -4.87835,-1.73015 -6.90061,-3.54818c-1.96924,1.39669 -4.06419,2.89201 -6.29178,3.52286zM222.27809,55.50736c0.80029,0.99571 1.00845,2.70294 2.21276,3.12902c1.09038,0.38577 2.3188,0.00896 3.46756,-0.12557c0.76354,-0.08941 1.57036,-0.14809 2.24961,-0.5081c0.58967,-0.31253 0.83058,-1.08544 1.40333,-1.428c1.33577,-0.79893 3.00633,-1.04734 4.19325,-2.05421c3.28819,-2.78938 5.51299,-6.79234 9.71262,-8.19222c2.40534,-2.46886 5.40369,-3.62927 8.57415,-3.95301c-2.14278,-1.01453 -4.43071,-1.76966 -6.56881,-2.22431c-2.15393,-0.45801 -4.28455,-1.02678 -6.44816,-1.43662c-2.32908,-0.44118 -4.2332,0.05472 -6.59852,-0.73372c-2.63332,0 -6.69245,0.56154 -8.9914,1.94602c-1.98664,1.1964 -3.86734,3.94245 -5.52324,5.59246c-1.74846,1.74224 -3.324,3.6481 -4.67629,5.68013c3.1307,0.12375 5.14149,2.00431 6.99315,4.30814zM204.76156,100.2147c-0.56394,-0.00276 -2.65483,-0.21229 -3.2807,0.35626c-0.59331,0.53898 -0.71566,1.46672 -1.2806,2.03538c-0.61994,0.62402 -1.57257,0.8429 -2.19566,1.46378c-0.58097,0.5789 -0.89505,1.37458 -1.34258,2.06188c-2.82171,2.79408 -4.65051,6.13204 -6.24053,9.64157c1.72298,-1.9434 3.96207,-3.7431 5.72739,-5.50841c2.4239,-2.4239 4.6895,-5.15187 7.6943,-6.87573c1.64898,-0.94602 3.53556,-1.41016 5.23771,-2.25679c0.52865,-0.26294 1.02022,-0.58206 1.49013,-0.93176c-1.24937,0.01811 -5.48478,0.01541 -5.80945,0.01382zM245.10956,90.08809c-0.22299,-0.18438 -0.45305,-0.33893 -0.71421,-0.32597c-0.23179,0.0115 -0.03476,0.31522 0.12023,0.60996l0.41341,-0.21064c0,0 0.06696,-0.03348 0.18057,-0.07335z" fill="#000000" stroke="none" stroke-width="0.5" stroke-linecap="butt"/><path d="M246.20956,65.6984c-0.8688,3.20001 -0.00294,3.34151 1.75271,5.24331c-0.16027,0.1192 -0.28393,0.33556 -0.43285,0.46001c-0.69292,0.57906 -1.89567,2.60996 -3.31569,2.51636c-0.90813,-0.05987 -1.74111,-0.60381 -2.6437,-0.72044c-0.94482,-0.12208 -1.92207,0.12351 -2.86761,0.00705c-1.24538,-0.1534 -3.45133,-1.24366 -4.97922,-2.51799l0.45112,-0.72379c0,0 0.81255,-1.64348 -0.824,-2.46176c-0.59512,-0.29756 -1.08378,-0.27325 -1.46249,-0.11832c-0.1031,-1.91675 0.54223,-4.28787 0.94714,-5.87437c0,0 0.13677,-0.55341 -0.04632,-1.11683c0.20648,-0.2678 0.41557,-0.53701 0.69664,-0.70622c1.47079,-0.88541 3.26747,-1.26653 4.59408,-2.35616c3.21606,-2.64156 5.35064,-6.59379 9.37666,-7.9358c1.58792,-1.55175 3.36557,-2.50112 5.23245,-3.01005c0.02534,0.74015 0.57726,1.29106 0.57726,1.29106l0.73452,0.73396c1.41069,1.32939 2.04406,3.02836 2.3053,4.84054c-0.97026,-0.15899 -2.01111,-0.40871 -2.98523,-0.55194c-3.71874,-0.5468 -8.7934,1.79457 -10.56735,5.24681c-0.61822,1.20311 -1.33734,2.66123 -0.79878,3.90204c0.48414,1.11541 2.08411,1.1482 3.19926,1.63291c0.57921,0.25176 1.18739,0.39818 1.79791,0.55986c0.19695,0.05216 0.75871,-0.01646 0.66733,0.16563c-0.30455,0.60687 -1.23124,0.83885 -1.40915,1.49413z" data-paper-data="{&quot;noHover&quot;:false,&quot;origItem&quot;:[&quot;Path&quot;,{&quot;applyMatrix&quot;:true,&quot;segments&quot;:[[[246.1917,65.65169],[0,0],[0.17791,-0.65528]],[[247.58587,64.16655],[-0.30455,0.60687],[0.09138,-0.18209]],[[246.98097,64.07893],[0.19695,0.05216],[-0.61052,-0.16168]],[[245.16864,63.52642],[0.57921,0.25176],[-1.11515,-0.48471]],[[241.91503,61.87698],[0.48414,1.11541],[-0.53856,-1.24081]],[[242.72702,57.9011],[-0.61822,1.20311],[1.77395,-3.45224]],[[253.35921,52.66562],[-3.71874,-0.5468],[0.97412,0.14323]],[[256.262,53.27356],[-0.97026,-0.15899],[-0.26124,-1.81218]],[[253.96798,48.44664],[1.41069,1.32939],[0,0]],[253.23609,47.71475],[[252.66197,46.42582],[0.02534,0.74015],[-1.86688,0.50893]],[[247.44108,49.44118],[1.58792,-1.55175],[-4.02602,1.34201]],[[238.12462,57.35049],[3.21606,-2.64156],[-1.32661,1.08963]],[[233.53522,59.6876],[1.47079,-0.88541],[-0.28107,0.16921]],[[232.83862,60.39056],[0.20648,-0.2678],[0.18309,0.56342]],[[232.88459,61.50247],[0,0],[-0.40491,1.5865]],[[231.93082,67.35734],[-0.1031,-1.91675],[0.37871,-0.15493]],[[233.39156,67.47291],[-0.59512,-0.29756],[1.63655,0.81828]],[234.20984,69.92774],[[233.75825,70.65106],[0,0],[1.52789,1.27433]],[[238.72148,73.15847],[-1.24538,-0.1534],[0.94554,0.11646]],[[241.5795,73.14855],[-0.94482,-0.12208],[0.90259,0.11663]],[[244.21327,73.86808],[-0.90813,-0.05987],[1.42002,0.0936]],[[247.51479,71.35389],[-0.69292,0.57906],[0.14892,-0.12445]],[[247.97913,70.98877],[-0.16027,0.1192],[-1.75565,-1.9018]],[[246.19171,65.65168],[-0.8688,3.20001],[0,0]]],&quot;closed&quot;:true,&quot;fillColor&quot;:[0,0,0,1]}]}" fill="#ffffff" stroke="none" stroke-width="0.5" stroke-linecap="butt"/><path d="M223.3096,73.27218c-0.31865,-0.03097 -0.64517,-0.08965 -0.96134,-0.09214c-2.06678,-0.01626 -6.74712,0.17161 -8.00808,-2.06393c-0.71703,-1.27121 -0.45211,-2.03251 -0.47386,-3.44633c-0.00855,-0.5557 -0.27121,-1.15717 -0.08385,-1.6804c0.2721,-0.75991 1.06816,-1.26954 1.38765,-2.01077c0.39816,-0.92373 0.36153,-2.02691 0.75241,-2.95374c0.63686,-1.51012 1.86266,-2.72335 2.77746,-4.08389c1.1643,1.5217 2.07522,3.49566 3.5919,4.57409c-1.60526,1.07823 -2.76122,2.71271 -2.445,5.12505c0.11357,0.86635 1.24554,1.25203 1.68781,2.00559c0.71011,1.20992 0.83304,2.68247 1.27668,4.0134z" data-paper-data="{&quot;noHover&quot;:false,&quot;origItem&quot;:[&quot;Path&quot;,{&quot;applyMatrix&quot;:true,&quot;segments&quot;:[[[222.78668,72.61562],[0,0],[-0.44364,-1.33093]],[[221.50228,68.60763],[0.71011,1.20992],[-0.44227,-0.75356]],[[219.81418,66.60228],[0.11357,0.86635],[-0.31622,-2.41234]],[[222.25571,61.54958],[-1.60526,1.07823],[-1.51668,-1.07843]],[[218.69891,56.99096],[1.1643,1.5217],[-0.9148,1.36054]],[[215.94938,61.06704],[0.63686,-1.51012],[-0.39088,0.92683]],[[215.21749,63.99459],[0.39816,-0.92373],[-0.31949,0.74123]],[[213.83162,65.98026],[0.2721,-0.75991],[-0.18736,0.52323]],[[213.91013,67.6457],[-0.00855,-0.5557],[0.02175,1.41382]],[[214.36875,71.07508],[-0.71703,-1.27121],[1.26096,2.23554]],[[222.32684,73.13485],[-2.06678,-0.01626],[0.31617,0.00249]],[[223.2843,73.22904],[-0.31865,-0.03097],[0,0]]],&quot;closed&quot;:true,&quot;fillColor&quot;:[0,0,0,1]}]}" fill="#ffffff" stroke="none" stroke-width="0.5" stroke-linecap="butt"/><path d="M247.67788,36.44276c-1.99586,-0.45244 -3.97944,-0.96691 -5.99385,-1.32593c-2.48183,-0.44233 -4.11209,0.10374 -6.5813,-0.71933c-3.51459,0 -8.44113,0.57855 -11.57469,2.45417c-0.98773,0.59122 -1.96932,1.61681 -2.89256,2.64532c-2.01219,-3.34823 -4.46304,-6.87394 -7.14861,-9.57747c-0.32578,-0.32795 -3.5809,-2.58737 -2.4622,-3.70607c1.06169,-1.06169 5.4404,1.92387 6.77942,2.49364l1.26628,1.26054c0.33112,0.33111 0.68859,0.53644 1.19385,0.53644c1.01053,0 1.83081,-0.83142 1.83081,-1.84194c0,-0.33442 -0.08828,-0.65316 -0.24496,-0.92292l-1.75615,-3.18032l-0.00507,0.00283c-0.00307,-0.00936 -0.00609,-0.01879 -0.00918,-0.02814c-0.24731,-0.74912 -0.76723,-1.38347 -1.21397,-2.03368c-0.31426,-0.45738 -1.61219,-1.03251 -1.10119,-1.24891c2.16222,-0.91567 4.05822,0.14214 5.64744,1.69932c0.8695,1.57785 2.12158,3.64332 2.19428,3.70965c0.04201,0.03834 0.08431,0.07631 0.12697,0.11382l-0.02127,0.01857l2.40982,2.73728c0.3355,0.3875 0.83629,0.593 1.38907,0.593c1.01053,0 1.74489,-0.77152 1.74489,-1.78204c0,-0.30732 -0.06689,-0.58932 -0.20076,-0.84359l-1.06117,-2.15482l-0.06977,0.03531l-0.02438,-0.203c-0.59855,-0.75431 -1.20042,-1.56463 -1.84918,-2.36572c-0.16753,-0.44729 -0.39629,-0.81687 -0.71576,-1.03c0.07797,-0.01647 0.13561,-0.12089 0.21466,-0.10959c0.72393,0.10346 1.40933,0.43225 2.1072,0.65077c2.40169,0.75204 3.65847,2.10729 5.41908,3.86735l1.41227,1.77069c0.335,0.42618 0.7582,0.72339 1.34233,0.72339c1.01053,0 1.83134,-0.81264 1.83134,-1.82316c0,-0.40431 -0.12932,-0.77317 -0.35137,-1.07601l-1.39602,-1.9526c0.44756,0.07804 1.04133,-0.06455 1.4914,0.02631c1.45557,0.29386 3.84056,1.80085 4.73797,2.96833c0.32124,0.41792 0.31985,1.01204 0.5331,1.49409c1.08279,2.44766 2.2838,4.66737 2.8008,7.31442z" data-paper-data="{&quot;noHover&quot;:false,&quot;origItem&quot;:[&quot;Path&quot;,{&quot;applyMatrix&quot;:true,&quot;segments&quot;:[[[247.42953,35.61849],[0,0],[-0.517,-2.64705]],[[244.62702,28.32439],[1.08279,2.44766],[-0.21325,-0.48205]],[[244.09479,26.83529],[0.32124,0.41792],[-0.89741,-1.16748]],[[239.36316,23.88238],[1.45557,0.29386],[-0.45007,-0.09086]],[[237.95448,23.80001],[0.44756,0.07804],[0,0]],[[239.35599,25.76212],[0,0],[0.22205,0.30284]],[[239.70918,26.84295],[0,-0.40431],[0,1.01052]],[[237.87946,28.67267],[1.01053,0],[-0.58413,0]],[[236.44013,27.97277],[0.335,0.42618],[0,0]],[[235.03442,26.21563],[0,0],[-1.76061,-1.76006]],[[229.65388,22.36989],[2.40169,0.75204],[-0.69787,-0.21852]],[[227.55904,21.71824],[0.72393,0.10346],[-0.07905,-0.0113]],[[227.32368,21.73001],[0.07797,-0.01647],[0.31947,0.21313]],[[228.04253,22.75941],[-0.16753,-0.44729],[0.64876,0.80109]],[[229.90617,25.12493],[-0.59855,-0.75431],[0,0]],[229.93107,25.328],[230.00148,25.29279],[[231.08285,27.45553],[0,0],[0.13387,0.25427]],[[231.29248,28.30673],[0,-0.30732],[0,1.01052]],[[229.46276,30.13645],[1.01053,0],[-0.55278,0]],[[228.07894,29.50382],[0.3355,0.3875],[0,0]],[225.676,26.7576],[[225.69747,26.73882],[0,0],[-0.04266,-0.03751]],[[225.57045,26.62505],[0.04201,0.03834],[-0.0727,-0.06633]],[[223.44326,22.98931],[0.8695,1.57785],[-1.58922,-1.55718]],[[217.80393,21.28176],[2.16222,-0.91567],[-0.511,0.2164]],[[218.90584,22.52972],[-0.31426,-0.45738],[0.44674,0.65021]],[[220.12218,24.55991],[-0.24731,-0.74912],[0.00309,0.00935]],[[220.13141,24.58797],[-0.00307,-0.00936],[0,0]],[220.13647,24.58516],[[221.89751,27.75503],[0,0],[0.15668,0.26976]],[[222.14391,28.67267],[0,-0.33442],[0,1.01052]],[[220.31419,30.50239],[1.01053,0],[-0.50526,0]],[[219.02038,29.96648],[0.33112,0.33111],[0,0]],[[217.75451,28.70061],[0,0],[-1.33902,-0.56977]],[[211.07351,26.22415],[1.06169,-1.06169],[-1.1187,1.1187]],[[213.53686,29.92042],[-0.32578,-0.32795],[2.68557,2.70353]],[[220.66943,39.46029],[-2.01219,-3.34823],[0.92324,-1.02851]],[[223.5606,36.81373],[-0.98773,0.59122],[3.13356,-1.87562]],[[235.06206,34.36842],[-3.51459,0],[2.46921,0.82307]],[[241.63752,35.09846],[-2.48183,-0.44233],[2.01441,0.35902]],[[247.63051,36.42672],[-1.99586,-0.45244],[0,0]]],&quot;closed&quot;:true,&quot;fillColor&quot;:[0,0,0,1]}]}" fill="#ff0000" stroke="none" stroke-width="0.5" stroke-linecap="butt"/><path d="M276.19236,129.5069c-0.31615,-0.11748 -0.62286,-0.25706 -0.91228,-0.43335c-1.80976,-1.10234 -3.3028,-3.2866 -5.12804,-4.38856c-1.33245,-0.80444 -2.99542,-1.0685 -4.20295,-2.05055c-3.75809,-3.05636 -6.98885,-7.0887 -10.05071,-10.7535c-1.08194,-1.29499 -2.66691,-2.18204 -3.59327,-3.59252c-0.98653,-1.50208 -1.73113,-3.21656 -2.99325,-4.49582c-1.78817,-2.67986 -3.56535,-6.34535 -4.33529,-9.58589c0.09468,-0.06236 0.18984,-0.12526 0.28453,-0.18762l1.2691,-0.61986c0,0 1.64018,-0.82156 0.8219,-2.45811c-0.18364,-0.36726 -0.4085,-0.61088 -0.64681,-0.76788c0.26846,-0.38655 0.47319,-0.90242 0.89651,-1.02603c0.4415,-0.12892 0.7733,0.50879 1.19762,0.68626c0.77879,0.32573 1.68784,0.70424 2.63955,1.02284l0.13073,0.53562c0.90528,1.33824 1.32764,2.95451 2.16269,4.33766c1.21107,2.00598 3.10761,3.61142 4.31377,5.72585c1.46121,2.56154 1.25216,3.13169 3.09629,5.3642c2.96441,3.58873 6.59825,6.74427 9.57409,10.32508c2.81785,3.3907 5.52958,6.06965 9.21617,7.96162c-0.90838,1.02131 -1.73573,2.12164 -2.65207,3.34342z" data-paper-data="{&quot;noHover&quot;:false,&quot;origItem&quot;:[&quot;Path&quot;,{&quot;applyMatrix&quot;:true,&quot;segments&quot;:[[[277.25,128.4102],[0,0],[0.91634,-1.22178]],[[279.89559,125.07279],[-0.90838,1.02131],[-3.68659,-1.89197]],[[270.68023,117.1103],[2.81785,3.3907],[-2.97584,-3.58081]],[[261.16569,106.86387],[2.96441,3.58873],[-1.84413,-2.23251]],[[258.0706,101.49902],[1.46121,2.56154],[-1.20616,-2.11443]],[[253.70537,95.68748],[1.21107,2.00598],[-0.83505,-1.38315]],[[251.54374,91.34916],[0.90528,1.33824],[0,0]],[[251.46458,90.89921],[0,0],[-0.95171,-0.3186]],[[248.82811,89.87438],[0.77879,0.32573],[-0.42432,-0.17747]],[[247.63144,89.18744],[0.4415,-0.12892],[-0.42332,0.12361]],[[246.73705,90.21182],[0.26846,-0.38655],[0.23831,0.157]],[[247.38384,90.97972],[-0.18364,-0.36726],[0.81828,1.63655]],[246.56556,93.43455],[[245.29845,94.0523],[0,0],[-0.09469,0.06236]],[[245.01439,94.23938],[0.09468,-0.06236],[0.76994,3.24054]],[[249.35795,103.81195],[-1.78817,-2.67986],[1.26212,1.27926]],[[252.35485,108.29344],[-0.98653,-1.50208],[0.92636,1.41048]],[[255.94494,111.86271],[-1.08194,-1.29499],[3.06186,3.6648]],[[265.93639,122.58605],[-3.75809,-3.05636],[1.20753,0.98205]],[[270.12964,124.64026],[-1.33245,-0.80444],[1.82524,1.10196]],[[275.25284,129.03159],[-1.80976,-1.10234],[0.28942,0.17629]],[[276.16423,129.46554],[-0.31615,-0.11748],[0,0]]],&quot;closed&quot;:true,&quot;fillColor&quot;:[0,0,0,1]}]}" fill="#864100" stroke="none" stroke-width="0.5" stroke-linecap="butt"/><path d="M222.23472,55.53224c-1.85166,-2.30383 -3.86856,-4.2021 -6.99926,-4.32585c1.35229,-2.03203 2.92824,-3.95462 4.6767,-5.69686c1.6559,-1.65001 3.54888,-4.42033 5.53552,-5.61673c2.29895,-1.38448 6.39386,-1.96216 9.02718,-1.96216c2.36532,0.78844 4.298,0.3008 6.62708,0.74198c2.16361,0.40984 4.30876,0.99333 6.46269,1.45134c2.1381,0.45465 4.43171,1.22199 6.57449,2.23652c-3.17046,0.32374 -6.16745,1.4896 -8.57279,3.95846c-4.19963,1.39988 -6.46458,5.46139 -9.75277,8.25077c-1.18692,1.00687 -2.88404,1.25289 -4.21981,2.05182c-0.57275,0.34256 -0.81719,1.11399 -1.40686,1.42652c-0.67925,0.36001 -1.49263,0.415 -2.25617,0.50441c-1.14876,0.13453 -2.38476,0.50514 -3.47514,0.11937c-1.20431,-0.42608 -1.42057,-2.14388 -2.22086,-3.13959z" data-paper-data="{&quot;noHover&quot;:false,&quot;origItem&quot;:[&quot;Path&quot;,{&quot;applyMatrix&quot;:true,&quot;segments&quot;:[[[222.27807,55.50734],[0,0],[0.80029,0.99571]],[[224.49083,58.63636],[-1.20431,-0.42608],[1.09038,0.38577]],[[227.95839,58.51079],[-1.14876,0.13453],[0.76354,-0.08941]],[[230.208,58.00269],[-0.67925,0.36001],[0.58967,-0.31253]],[[231.61133,56.57469],[-0.57275,0.34256],[1.33577,-0.79893]],[[235.80458,54.52048],[-1.18692,1.00687],[3.28819,-2.78938]],[[245.5172,46.32826],[-4.19963,1.39988],[2.40534,-2.46886]],[[254.09135,42.37525],[-3.17046,0.32374],[-2.14278,-1.01453]],[[247.52254,40.15094],[2.1381,0.45465],[-2.15393,-0.45801]],[[241.07438,38.71432],[2.16361,0.40984],[-2.32908,-0.44118]],[[234.47586,37.9806],[2.36532,0.78844],[-2.63332,0]],[[225.48446,39.92662],[2.29895,-1.38448],[-1.98664,1.1964]],[[219.96122,45.51908],[1.6559,-1.65001],[-1.74846,1.74224]],[[215.28493,51.19921],[1.35229,-2.03203],[3.1307,0.12375]],[[222.27808,55.50735],[-1.85166,-2.30383],[0,0]]],&quot;closed&quot;:true,&quot;fillColor&quot;:[0,0,0,1]}]}" fill="#cd894a" stroke="none" stroke-width="0.5" stroke-linecap="butt"/><path d="M204.78565,100.17089c0.32467,0.00159 4.57558,0.01756 5.82495,-0.00055c-0.46991,0.3497 -1.04017,0.73053 -1.56882,0.99347c-1.70215,0.84663 -3.57911,1.31999 -5.22809,2.26601c-3.0048,1.72386 -5.19669,4.38814 -7.62059,6.81204c-1.76532,1.76531 -4.08818,3.61893 -5.81116,5.56233c1.59002,-3.50953 3.41329,-6.89975 6.235,-9.69383c0.44753,-0.6873 0.77978,-1.50347 1.36075,-2.08237c0.62309,-0.62088 1.59987,-0.84754 2.21981,-1.47156c0.56494,-0.56866 0.69663,-1.49604 1.28994,-2.03502c0.62587,-0.56855 2.73425,-0.35327 3.29819,-0.35051z" data-paper-data="{&quot;noHover&quot;:false,&quot;origItem&quot;:[&quot;Path&quot;,{&quot;applyMatrix&quot;:true,&quot;segments&quot;:[[[204.76154,100.21468],[0,0],[-0.56394,-0.00276]],[[201.48084,100.57094],[0.62587,-0.56855],[-0.59331,0.53898]],[[200.20024,102.60632],[0.56494,-0.56866],[-0.61994,0.62402]],[[198.00458,104.0701],[0.62309,-0.62088],[-0.58097,0.5789]],[[196.662,106.13198],[0.44753,-0.6873],[-2.82171,2.79408]],[[190.42147,115.77355],[1.59002,-3.50953],[1.72298,-1.9434]],[[196.14886,110.26514],[-1.76532,1.76531],[2.4239,-2.4239]],[[203.84316,103.38941],[-3.0048,1.72386],[1.64898,-0.94602]],[[209.08087,101.13262],[-1.70215,0.84663],[0.52865,-0.26294]],[[210.571,100.20087],[-0.46991,0.3497],[-1.24937,0.01811]],[[204.76155,100.21468],[0.32467,0.00159],[0,0]]],&quot;closed&quot;:true,&quot;fillColor&quot;:[0,0,0,1]}]}" fill="#cd894a" stroke="none" stroke-width="0.5" stroke-linecap="butt"/><path d="M231.25288,73.17591c2.02226,1.81803 4.75506,3.21379 6.91412,3.55609c0.98671,0.15643 2.00854,-0.10748 3.0003,0.0128c1.09404,0.13268 2.12354,0.79315 3.22467,0.74785c3.22211,-0.13256 3.26797,-1.49987 5.482,-3.33985c2.49758,-2.07562 5.87058,-3.31599 7.63712,-6.24582c1.184,-1.96368 1.74281,-5.0718 2.44793,-7.25282c0.03922,-5.34492 0.55266,-10.51724 -3.33621,-14.65347c1.07325,0.01903 2.21894,0.05828 3.30775,0.25553c1.13329,1.20463 2.01351,2.662 3.12992,3.8902c0.88149,0.96975 1.78337,1.93484 2.78701,2.77754c0.56855,0.47738 1.40644,0.60861 1.9028,1.16067c0.62761,0.69805 0.35948,3.71731 0.35803,4.01461c-0.00962,1.96814 0.36092,4.36098 0.02627,6.29738c-0.31043,1.79628 -0.74007,3.59669 -0.75344,5.41956c0.01606,3.16732 -0.36341,6.5685 -2.50966,9.09288c-0.67044,0.78855 -1.5336,1.40095 -2.19515,2.19698c-0.5242,0.63077 -0.76205,1.48363 -1.34199,2.06357c-0.57994,0.57993 -1.43086,0.81915 -2.06163,1.34335c-0.6619,0.55007 -2.59066,2.89895 -3.76072,3.32612c-0.47334,0.17281 -1.07127,0.21906 -1.59027,0.14181c-0.21947,-0.11192 -0.49081,-0.18448 -0.82669,-0.1942c-2.1101,-0.65685 -4.42073,-2.42574 -6.35037,-2.14119c-0.68265,0.10067 -0.79014,1.31551 -1.46437,1.46233c-0.87331,0.19018 -1.81358,-1.15222 -2.52716,-0.61404c-1.1133,0.83965 -1.45403,2.45805 -1.68928,3.83249c-0.11591,0.67721 -0.24319,1.4147 -0.20252,2.15181c-4.40619,1.31058 -8.72989,-0.47681 -13.14435,-0.43353c2.42279,-2.26201 4.56039,-4.88141 6.44104,-7.41344l0.84923,-2.46405c0,0 0.17916,-0.41226 0.15605,-0.83938c0.74457,0.13595 1.22532,0.16901 1.55062,1.45207c0.37631,1.48426 -0.0725,3.06976 -0.0725,4.60098l0.0019,1.46721c0,0 0.00278,1.83642 1.8325,1.83642c1.82972,0 1.73587,-1.79533 1.73587,-1.79533l0.00138,-1.46066c0,-0.16951 0.0341,-5.35844 -0.0725,-5.64391c-0.43881,-1.17506 -1.15592,-2.28656 -2.09887,-3.1137c-0.66823,-0.58616 -1.70355,-0.51961 -2.49815,-0.91802c-0.87214,-0.43729 -1.53399,-1.27259 -2.46386,-1.56788c-0.86637,-0.27513 -1.81215,-0.04993 -2.72078,-0.0761c0,0 -1.79478,-0.09366 -1.79478,1.73606c0,1.82972 1.83562,1.83218 1.83562,1.83218c0.55515,-0.02617 1.14525,-0.26316 1.6688,-0.07669c0.15873,0.05654 0.30669,0.13593 0.44641,0.22816c-0.66784,0.34862 -0.91947,1.10185 -0.91947,1.10185l-0.67038,2.0095c-2.88634,3.80171 -6.47298,7.99528 -10.8358,10.18194c-1.91223,0.95842 -2.52224,0.33102 -4.53057,1.52137c-0.51401,0.30465 -0.64734,1.09535 -1.20097,1.32012c-0.55355,0.22474 -1.19815,-0.20649 -1.78856,-0.11517c-0.76241,0.11792 -1.43238,0.61671 -2.19569,0.72864c-2.60501,0.38198 -5.46051,-0.52054 -8.05073,0.00086c-1.04641,0.21063 -2.15451,0.4478 -3.0133,1.08171c-0.77091,0.56904 -0.96791,1.67599 -1.64746,2.3515c-0.62384,0.62013 -1.57507,0.83879 -2.19602,1.46181c-0.66299,0.6652 -1.05742,1.54972 -1.58574,2.3262c-4.43164,4.47238 -6.62489,10.12472 -9.064,15.81599c-0.95605,2.23078 -1.8938,3.15245 -2.31329,5.52743c-0.30044,1.70093 -0.36004,3.4173 -0.42089,5.13802c-0.72299,0.74682 -1.38016,1.55893 -1.72272,2.67209c-0.31715,1.03059 0.07208,2.16331 -0.06619,3.2327c-0.12899,0.99758 -0.5939,1.93035 -0.73282,2.9266c-0.15298,1.09703 0.0788,2.22151 0.08324,3.32855c-0.39122,1.22065 -0.82813,2.52007 -1.10987,3.76509c-1.73394,-5.17744 -2.59408,-10.65222 -2.0037,-16.09575c0.25126,-2.31663 1.38071,-4.768 2.11311,-6.96732c0.81525,-2.44809 1.39804,-4.9432 2.21392,-7.39082c0.41512,-1.72779 1.41098,-3.26497 2.11058,-4.89842c0.38948,-0.90936 0.27006,-1.9981 0.70973,-2.88428c0.49603,-0.99978 1.38371,-1.75436 2.03652,-2.6596c1.00376,-1.39189 1.74858,-2.97537 2.84789,-4.29309c1.67395,-2.00653 3.88654,-3.88311 5.7334,-5.72997c1.86351,-1.86351 3.6635,-4.10699 5.72331,-5.74657c3.28114,-2.61173 6.23636,-5.72338 9.90564,-7.84593c0.98254,-0.56837 2.57343,-0.52582 3.03566,-1.56253c0.71664,-1.60733 -1.45623,-5.2696 -2.11353,-6.57773c-1.61688,-6.43815 -0.57141,-12.84533 2.20729,-18.53901c0.59844,-0.15031 1.2275,-0.20988 1.84019,-0.21197c0.27609,-0.00094 0.53707,0.02109 0.78294,0.06385c-0.00227,0.00327 0.01249,0.10372 0.01249,0.10372c-0.2056,0.3084 -2.99504,4.48445 -3.07353,4.66501c-0.40102,0.92249 -0.33543,2.00166 -0.72989,2.92697c-0.3735,0.87613 -1.25182,1.49635 -1.53858,2.40458c-0.27369,0.86683 -0.06736,1.81629 -0.07693,2.72525c-0.02182,2.07382 -0.21948,3.34555 0.96402,5.26215c2.1751,3.52244 7.45686,3.81264 11.09264,3.79042c0.87215,-0.00533 1.78358,0.18916 2.62275,-0.04849c2.22759,-0.63085 4.33398,-2.1232 6.30322,-3.51989z" data-paper-data="{&quot;noHover&quot;:false,&quot;origItem&quot;:[&quot;Path&quot;,{&quot;applyMatrix&quot;:true,&quot;segments&quot;:[[[224.94289,76.74532],[2.22759,-0.63085],[-0.83917,0.23765]],[[222.32685,76.79427],[0.87215,-0.00533],[-3.63578,0.02222]],[[211.25586,72.99894],[2.1751,3.52244],[-1.1835,-1.9166]],[[210.2507,67.64567],[-0.02182,2.07382],[0.00957,-0.90896]],[[210.32921,64.91978],[-0.27369,0.86683],[0.28676,-0.90823]],[[211.87089,62.51412],[-0.3735,0.87613],[0.39446,-0.92531]],[[212.60278,59.58657],[-0.40102,0.92249],[0.07849,-0.18056]],[[215.68122,54.92052],[-0.2056,0.3084],[0,0]],[[215.68463,54.91553],[-0.00227,0.00327],[-0.24587,-0.04276]],[[214.90259,54.85153],[0.27609,-0.00094],[-0.61269,0.00209]],[[213.06455,55.06306],[0.59844,-0.15031],[-2.7787,5.69368]],[[210.86895,73.59785],[-1.61688,-6.43815],[0.6573,1.30813]],[[212.9851,80.17415],[0.71664,-1.60733],[-0.46223,1.03671]],[[209.95678,81.73143],[0.98254,-0.56837],[-3.66928,2.12255]],[[200.06648,89.55354],[3.28114,-2.61173],[-2.05981,1.63958]],[[194.34516,95.28745],[1.86351,-1.86351],[-1.84686,1.84686]],[[188.61125,101.00877],[1.67395,-2.00653],[-1.09931,1.31772]],[[185.76237,105.29687],[1.00376,-1.39189],[-0.65281,0.90524]],[[183.72516,107.95399],[0.49603,-0.99978],[-0.43967,0.88618]],[[183.01445,110.8354],[0.38948,-0.90936],[-0.6996,1.63345]],[[180.90223,115.72996],[0.41512,-1.72779],[-0.81588,2.44762]],[[178.68564,123.11588],[0.81525,-2.44809],[-0.7324,2.19932]],[[176.57016,130.0797],[0.25126,-2.31663],[-0.59038,5.44353]],[[178.56662,146.16762],[-1.73394,-5.17744],[0.28174,-1.24502]],[[179.60975,142.47699],[-0.39122,1.22065],[-0.00444,-1.10704]],[[179.52513,139.14712],[-0.15298,1.09703],[0.13892,-0.99625]],[[180.25702,136.21958],[-0.12899,0.99758],[0.13827,-1.06939]],[[180.32182,132.98537],[-0.31715,1.03059],[0.34256,-1.11316]],[[182.044,130.31266],[-0.72299,0.74682],[0.06085,-1.72072]],[[182.4626,125.17174],[-0.30044,1.70093],[0.41949,-2.37498]],[[184.77392,119.64141],[-0.95605,2.23078],[2.43911,-5.69127]],[[193.83201,103.81195],[-4.43164,4.47238],[0.52832,-0.77648]],[[195.41698,101.4825],[-0.66299,0.6652],[0.62095,-0.62302]],[[197.61264,100.01872],[-0.62384,0.62013],[0.67955,-0.67551]],[[199.25959,97.66277],[-0.77091,0.56904],[0.85879,-0.63391]],[[202.27279,96.57888],[-1.04641,0.21063],[2.59022,-0.5214]],[[210.32355,96.57888],[-2.60501,0.38198],[0.76331,-0.11193]],[[212.51921,95.84699],[-0.76241,0.11792],[0.59041,-0.09132]],[[214.30776,95.96264],[-0.55355,0.22474],[0.55363,-0.22477]],[[215.5098,94.63286],[-0.51401,0.30465],[2.00833,-1.19035]],[[220.05918,93.08187],[-1.91223,0.95842],[4.36282,-2.18666]],[[230.95254,82.89804],[-2.88634,3.80171],[0,0]],[231.56933,80.97295],[[232.48834,79.87081],[-0.66784,0.34862],[-0.13972,-0.09223]],[[232.04304,79.64333],[0.15873,0.05654],[-0.52355,-0.18647]],[[230.3776,79.72184],[0.55515,-0.02617],[0,0]],[[228.54788,77.89212],[0,1.82972],[0,-1.82972]],[[230.3776,76.0624],[0,0],[0.90863,0.02617]],[[233.10349,76.14091],[-0.86637,-0.27513],[0.92987,0.29529]],[[235.57282,77.71223],[-0.87214,-0.43729],[0.7946,0.39841]],[[238.07522,78.63369],[-0.66823,-0.58616],[0.94295,0.82714]],[[240.17958,81.75322],[-0.43881,-1.17506],[0.1066,0.28547]],[[240.25809,87.40666],[0,-0.16951],[0,0]],[240.25809,88.87044],[[238.42837,90.70016],[1.82972,0],[-1.82972,0]],[236.59865,88.87044],[[236.59865,87.40666],[0,0],[0,-1.53122]],[[236.67716,82.81367],[0.37631,1.48426],[-0.3253,-1.28306]],[[235.13043,81.36538],[0.74457,0.13595],[0.02311,0.42712]],[235.04098,82.13017],[[234.194,84.59641],[0,0],[-1.88065,2.53203]],[[227.75711,92.01474],[2.42279,-2.26201],[4.41446,-0.04328]],[[240.91042,92.46861],[-4.40619,1.31058],[-0.04067,-0.73711]],[[241.01604,90.34091],[-0.11591,0.67721],[0.23525,-1.37444]],[[242.70785,86.51499],[-1.1133,0.83965],[0.71358,-0.53818]],[[245.32688,87.08967],[-0.87331,0.19018],[0.67423,-0.14682]],[[246.79066,85.62589],[-0.68265,0.10067],[1.92964,-0.28455]],[[253.14332,87.77371],[-2.1101,-0.65685],[0.33588,0.00972]],[[253.97017,87.96851],[-0.21947,-0.11192],[0.519,0.07725]],[[255.46347,87.8511],[-0.47334,0.17281],[1.17006,-0.42717]],[[259.225,84.52788],[-0.6619,0.55007],[0.63077,-0.5242]],[[261.28688,83.1853],[-0.57994,0.57993],[0.57994,-0.57994]],[[262.62946,81.12341],[-0.5242,0.63077],[0.66155,-0.79603]],[[264.82512,78.92775],[-0.67044,0.78855],[2.14625,-2.52438]],[[267.33795,69.84134],[0.01606,3.16732],[0.01337,-1.82287]],[[268.09346,64.42504],[-0.31043,1.79628],[0.33465,-1.9364]],[[268.06982,58.13114],[-0.00962,1.96814],[0.00145,-0.2973]],[[267.71356,54.11855],[0.62761,0.69805],[-0.49636,-0.55206]],[[265.81197,52.95914],[0.56855,0.47738],[-1.00364,-0.8427]],[[263.02729,50.1838],[0.88149,0.96975],[-1.11641,-1.2282]],[[259.90043,46.2961],[1.13329,1.20463],[-1.08881,-0.19725]],[[256.65108,45.95943],[1.07325,0.01903],[3.88887,4.13623]],[[259.99544,60.61989],[0.03922,-5.34492],[-0.70512,2.18102]],[[257.55012,67.87573],[1.184,-1.96368],[-1.76654,2.92983]],[[249.83482,74.18389],[2.49758,-2.07562],[-2.21403,1.83998]],[[244.35369,77.52481],[3.22211,-0.13256],[-1.10113,0.0453]],[[241.13236,76.78056],[1.09404,0.13268],[-0.99176,-0.12028]],[[238.13527,76.77064],[0.98671,0.15643],[-2.15906,-0.3423]],[[231.23466,73.22246],[2.02226,1.81803],[-1.96924,1.39669]]],&quot;closed&quot;:true,&quot;fillColor&quot;:[0,0,0,1]}]}" fill="#cd894a" stroke="none" stroke-width="0.5" stroke-linecap="butt"/></g></g></svg>