<svg version="1.1" xmlns="http://www.w3.org/2000/svg" xmlns:xlink="http://www.w3.org/1999/xlink" width="342.97305" height="191.24135" viewBox="0,0,342.97305,191.24135"><g transform="translate(-23.5,-118.75995)"><g data-paper-data="{&quot;isPaintingLayer&quot;:true}" fill-rule="nonzero" stroke="none" stroke-linecap="butt" stroke-linejoin="miter" stroke-miterlimit="10" stroke-dasharray="" stroke-dashoffset="0" style="mix-blend-mode: normal"><path d="M179.59433,188.75182c0.86166,2.58498 3.44681,1.72502 3.44681,1.72502l0.69942,-0.23327c-0.16796,9.75652 -3.90064,19.76123 -6.8797,28.97585c-1.12185,1.6546 -1.89102,3.5969 -3.30456,5.01045c-3.6582,3.6582 -10.60146,7.03076 -15.72357,7.85187c-3.78563,0.60686 -7.68614,0.35368 -11.47748,0.96249c-0.99487,0.15976 -1.87342,0.81121 -2.87029,0.95796c-3.29644,0.48523 -5.61187,-0.43782 -8.69331,-0.95139c-1.68276,-0.28046 -3.44402,-0.26131 -5.06882,-0.76747l-1.81251,-1.06149c-0.17922,-0.69348 -0.47111,-1.46284 -0.77702,-2.11008l0.20353,-0.06783l-0.89848,-2.7058c-0.34243,-1.11342 -1.38229,-1.9217 -2.60801,-1.9217c-0.9608,0 -1.81,0.49843 -2.29516,1.24967l-1.89244,2.83326l0.12397,0.0825l-0.34914,0.32668c-0.30812,1.25165 -0.66337,2.49327 -0.92642,3.75515c-0.15612,0.74891 0.34893,1.92333 -0.33254,2.27098c-0.61511,0.31379 0.47675,-1.63698 -0.06056,-2.07071c-1.61591,-1.30442 -3.69299,-3.14059 -5.68761,-2.56249c-0.67421,0.1954 -1.1901,0.56957 -1.58102,1.06079c-0.56128,-0.77082 -1.45732,-1.06905 -1.45732,-1.06905l-2.53637,-0.81958c-3.53762,-2.39855 -7.91766,-4.93542 -10.3699,-8.55359c-2.96538,-4.37529 -2.47791,-10.83781 -2.47791,-15.79662c0,-2.085 -0.38311,-4.21293 -0.03878,-6.2693c0.38678,-2.30991 1.94772,-3.66962 1.94772,-6.18835c0,-0.5568 -1.7546,-5.73251 -2.04722,-6.61035c-0.40766,-1.1462 -0.54299,-2.43278 -1.22052,-3.44319c-4.00148,-5.96745 -9.69251,-5.73773 -15.36589,-8.60647c-2.93565,-1.4844 -5.65591,-3.32101 -8.60307,-4.77977c-0.66674,-0.33002 -1.45551,-0.6849 -2.16887,-0.96305c0.78587,0.07322 1.5707,0.17349 2.35327,0.30946c3.40645,0.59188 7.5323,1.01443 10.71245,2.62246c2.14238,1.0833 4.13631,2.67286 6.4972,3.10818c3.54537,0.65373 7.25382,0.48886 10.71706,1.66246c4.18513,2.83758 7.69647,6.13636 10.66334,9.74587c-2.90698,2.4293 -5.53683,5.18863 -7.08787,8.73774c-0.5485,1.25508 -0.54109,2.68338 -1.01946,3.96684c-1.39495,3.74267 -3.09738,6.76421 -2.0416,10.99459c1.49889,6.00591 5.62162,12.86834 12.99159,10.67412c2.60826,-0.77655 4.67335,-2.7701 7.10331,-3.9954c0.9399,-0.47394 1.85029,-0.99853 2.73965,-1.57244l0.00071,1.04843c0,0 -0.00453,2.72613 2.72028,2.72613c2.72481,0 2.71679,-2.72134 2.71679,-2.72134l-0.00331,-2.86581c0,-0.57411 0.00843,-1.14139 0.02059,-1.70573c0.51145,-0.39445 0.92786,-1.04063 0.92786,-2.11232c0,-1.09838 -0.44471,-1.75217 -0.97328,-2.14351c-0.1263,-1.61187 -0.45947,-3.19095 -1.22571,-4.77702c-0.99953,-2.06894 -2.81121,-3.64545 -3.83166,-5.70414c-1.92543,-3.88439 -3.96618,-7.43072 -6.35344,-10.74861c-0.08286,-0.34809 -0.25134,-0.71998 -0.54308,-1.10897c-0.29125,-0.38833 -0.59667,-0.65617 -0.9071,-0.83318c-3.69819,-4.73513 -8.04814,-8.87075 -13.43731,-12.41445c-4.0911,-1.35054 -8.03378,-1.56062 -12.22182,-2.16172c-2.51807,-0.36141 -2.53764,-1.42156 -4.97349,-2.62724c-3.68014,-1.82158 -8.28134,-2.48027 -12.22802,-3.11403c-7.44704,-1.19585 -15.11544,0.75642 -22.54993,-0.48222c0.62594,-0.37338 1.1657,-0.76979 1.85277,-0.99193c2.86311,-0.95437 5.76959,-1.84102 8.60581,-2.8722c0.67846,-0.24667 1.28516,-0.83428 2.00687,-0.81727c0.86635,0.02044 1.57676,0.77784 2.43156,0.9203c4.04509,0.67418 8.38922,-0.60049 12.43127,-0.00549c4.12205,0.60677 8.31086,1.24529 12.43298,1.90609c3.04184,0.48762 5.21701,2.26347 7.84706,3.57849c5.0702,2.5351 9.88503,4.73933 14.76292,7.8003c3.17526,0 5.33753,1.34009 8.21441,2.70639c1.29158,0.6134 2.28812,2.05515 3.71358,2.16698c5.55919,0.43611 4.31197,-1.80321 7.07784,-4.59338c1.49227,-1.50538 3.56072,-2.30486 5.32439,-3.48064c2.67208,-1.78138 5.42421,-4.11375 8.29277,-5.55203c2.36949,-1.18805 7.15096,-3.13778 9.84204,-2.62153c1.97915,0.37969 3.75301,1.57399 5.73904,1.91589c3.55169,0.61143 7.25621,0.50388 10.71425,1.67571c4.34229,2.94412 9.73515,6.29313 12.13741,11.18781c1.42669,2.90693 2.29048,5.89238 2.72062,8.91155l-2.08865,0.69649c0,0 -2.5846,0.86426 -1.72294,3.44924z" data-paper-data="{&quot;noHover&quot;:false,&quot;origItem&quot;:[&quot;Path&quot;,{&quot;applyMatrix&quot;:true,&quot;segments&quot;:[[[194.086,107.55745],[0,0],[-0.79057,-2.37171]],[195.66714,104.39517],[[197.58351,103.75638],[0,0],[-0.39466,-2.77007]],[[195.08897,95.58665],[1.30898,2.66709],[-2.20406,-4.49084]],[[183.95777,85.3325],[3.98403,2.70122],[-3.17273,-1.07515]],[[174.13118,83.80034],[3.25866,0.56098],[-1.82217,-0.31369]],[[168.86892,82.04625],[1.81586,0.34836],[-2.46905,-0.47366]],[[159.84323,84.45545],[2.174,-1.09003],[-2.63189,1.31961]],[[152.23821,89.55205],[2.45162,-1.63441],[-1.61816,1.07877]],[[147.35696,92.74787],[1.36915,-1.38118],[-2.53767,2.55996]],[[140.87215,96.96615],[5.10053,0.40013],[-1.30785,-0.1026]],[[137.47448,94.97997],[1.18502,0.56279],[-2.63952,-1.25357]],[[129.95501,92.49579],[2.91329,0],[-4.47544,-2.80843]],[[116.42545,85.3325],[4.65188,2.32594],[-2.41306,-1.20653]],[[109.22998,82.04626],[2.79087,0.44739],[-3.78203,-0.60628]],[[97.82842,80.29217],[3.78196,0.55671],[-3.70856,-0.54591]],[[86.42685,80.29217],[3.71135,0.61856],[-0.78427,-0.13071]],[[84.19618,79.44741],[0.79487,0.01875],[-0.66216,-0.01561]],[[82.35562,80.19616],[0.62248,-0.22632],[-2.60222,0.9461]],[[74.46223,82.82729],[2.62689,-0.87563],[-0.63039,0.20381]],[[72.67321,83.69201],[0.5743,-0.34257],[6.82111,1.13644]],[[93.36707,84.12717],[-6.83262,-1.09719],[3.62106,0.58147]],[[104.58951,86.98023],[-3.37651,-1.67129],[2.23488,1.10621]],[[109.15385,89.38943],[-2.31032,-0.33159],[3.84251,0.55151]],[[120.3763,91.36545],[-3.75356,-1.23911],[4.94454,3.25133]],[[132.72141,102.74889],[-3.39307,-4.34446],[0.28482,0.16241]],[[133.55653,103.5128],[-0.26722,-0.35629],[0.26767,0.35689]],[[134.05644,104.53004],[-0.07602,-0.31937],[2.1903,3.04415]],[[139.94162,114.43894],[-1.76657,-3.56391],[0.93626,1.88884]],[[143.4498,119.7012],[-0.91706,-1.89824],[0.70302,1.45521]],[[144.5669,124.0935],[-0.11588,-1.47888],[0.48496,0.35905]],[[145.4581,126.06184],[0,-1.00776],[0,0.98327]],[[144.60212,128.00357],[0.46925,-0.36191],[-0.01116,0.51778]],[[144.58106,129.57001],[0,-0.52674],[0,0]],[144.58106,132.20114],[[142.08106,134.70114],[2.5,0],[-2.5,0]],[139.58106,132.20114],[[139.58106,131.23905],[0,0],[-0.81599,0.52656]],[[137.05979,132.68312],[0.86235,-0.43484],[-2.22947,1.12421]],[[130.52691,136.34796],[2.39307,-0.71248],[-6.76191,2.01319]],[[118.57713,126.53461],[1.37522,5.51039],[-0.96867,-3.88135]],[[120.4414,116.42404],[-1.27986,3.43388],[0.4389,-1.17757]],[[121.37687,112.77185],[-0.50325,1.15153],[1.42308,-3.25629]],[[127.89971,104.72164],[-2.66714,2.22887],[-2.72209,-3.31171]],[[118.17956,95.85702],[3.83984,2.60347],[-3.17751,-1.07677]],[[108.35297,94.32486],[3.25286,0.59979],[-2.16611,-0.3994]],[[102.39279,91.4718],[1.96562,0.99392],[-2.91777,-1.47536]],[[92.5662,89.0626],[3.1254,0.54305],[-0.718,-0.12475]],[[90.40751,88.77795],[0.72103,0.06718],[0.65451,0.2552]],[[92.31095,89.61135],[-0.61173,-0.30279],[2.704,1.33841]],[[100.20434,93.99657],[-2.69344,-1.36193],[5.2053,2.63205]],[[114.38824,101.94437],[-3.67134,-5.47511],[0.62163,0.92705]],[[115.51036,105.09926],[-0.37403,-1.05163],[0.26847,0.80541]],[[117.39273,111.15209],[0,-0.51086],[0,2.31092]],[[115.60636,116.8148],[0.35487,-2.11933],[-0.31592,1.88671]],[[115.63864,122.55364],[0,-1.91298],[0,4.54968]],[[117.8964,137.0261],[-2.72072,-4.01431],[2.24992,3.31966]],[[127.39267,144.86507],[-3.24575,-2.20066],[0,0]],[129.71599,145.6162],[[131.05079,146.59669],[-0.51497,-0.70722],[0.35867,-0.45069]],[[132.49928,145.62319],[-0.61858,0.17928],[1.83005,-0.53041]],[[137.70952,147.97419],[-1.48259,-1.1968],[0.49298,0.39795]],[[137.7652,149.87405],[-0.56436,0.2879],[0.62524,-0.31896]],[[138.06962,147.79049],[-0.14324,0.68712],[0.24135,-1.15777]],[[138.91772,144.34536],[-0.2827,1.14838],[0,0]],[139.23746,144.04571],[139.12389,143.97],[[140.85647,141.37113],[0,0],[0.44513,-0.68926]],[[142.9581,140.22562],[-0.88153,0],[1.1246,0]],[[145.34804,141.98974],[-0.31418,-1.02156],[0,0]],[146.20685,144.56618],[[146.01982,144.62852],[0,0],[0.28067,0.59384]],[[146.69896,146.47039],[-0.16443,-0.63626],[0,0]],[[148.36029,147.44492],[0,0],[1.49075,0.4644]],[[153.00605,148.15132],[-1.54392,-0.25732],[2.82721,0.4712]],[[160.97557,149.02837],[-3.02447,0.4452],[0.91463,-0.13464]],[[163.6067,148.15132],[-0.91279,0.14658],[3.47853,-0.55858]],[[174.13122,147.27427],[-3.4733,0.55679],[4.69951,-0.75336]],[[188.55069,140.08084],[-3.35638,3.35638],[1.29692,-1.29692]],[[191.58084,135.48797],[-1.02929,1.51809],[2.73327,-8.45437]],[[197.89004,108.92468],[-0.1541,8.95156],[0,0]],[197.24832,109.13858],[[194.08605,107.55744],[0.79057,2.37171],[0,0]]],&quot;closed&quot;:true,&quot;fillColor&quot;:[0,0,0,1],&quot;strokeWidth&quot;:0.5}]}" fill="#cd894a" stroke-width="0.25"></path><path d="M268.15711,305.33081c-2.71962,0 -2.7248,-2.71445 -2.72481,-2.72478c-7.51457,-2.63793 -15.42997,-4.45396 -22.99053,-6.97415c0,0 -0.59863,-0.19954 -1.12371,-0.69466c-1.87542,0.10184 -3.77879,-0.12142 -5.6619,-0.12142c-2.77566,0 -6.35721,-0.49824 -9.12264,-0.03518c-1.98756,0.33281 -3.74746,1.58163 -5.73546,1.91182c-7.06226,1.173 -15.67592,0.19621 -22.32816,-2.01647c0,0 -0.73925,-0.24642 -1.29531,-0.87102c-0.12679,0.00528 -0.25285,0.0161 -0.37784,0.03451c-1.29976,0.19137 -2.52238,0.77505 -3.82365,0.95591c-4.03197,0.56041 -7.42397,-0.37333 -11.36738,0.94114c-2.65356,0.02826 -5.98459,-0.45499 -8.6032,0c-0.99275,0.17249 -1.87286,0.79616 -2.86773,0.95591c-5.87191,0.94292 -12.65151,0.06909 -18.59877,0.03518c-3.11396,-0.01775 -5.54367,-0.97312 -8.6032,-0.95591c-5.46014,0.03071 -10.44701,-0.07297 -15.73104,-0.99109c-2.29443,-0.39867 -3.6625,0.74054 -6.08861,-0.08173c-1.42248,-0.48212 -2.53708,-1.60834 -3.80562,-2.4125c-5.99393,-5.99393 -7.27401,-11.82065 -8.60942,-19.83305c-0.48254,-2.89521 -1.44661,-5.70614 -1.91182,-8.6032c-0.60177,-3.74743 -0.03518,-8.1066 -0.03518,-11.9074c0,-5.16332 -0.496,-10.25809 1.09574,-15.20032c0,0 0.21815,-0.65448 0.76424,-1.19503c-0.54528,-0.00204 -0.95271,-0.13784 -0.95271,-0.13784l-3.20322,-1.09315c-4.42208,-2.9078 -9.60339,-6.04015 -12.59163,-10.57432c-3.52169,-5.34358 -3.27469,-12.58289 -3.27469,-18.63891c0,-2.37598 -0.35412,-4.78397 0.03518,-7.12784c0.30702,-1.8485 1.87664,-3.42516 1.87664,-5.29899c0,-1.72865 -1.22535,-3.23387 -1.77199,-4.87381c-2.00658,-6.69123 -8.58748,-6.29603 -13.90674,-8.92893c-2.94715,-1.45877 -5.66755,-3.29515 -8.6032,-4.77956c-3.34268,-1.69021 -7.57502,-2.49959 -11.13544,-3.68641c-1.77383,-0.59128 -3.45855,-1.54795 -5.31027,-1.80717c-3.79597,-0.53138 -11.44971,1.9701 -12.7981,-4.43214c-0.40942,-1.94398 2.58991,-3.02971 4.07583,-4.34831c2.38878,-2.11983 3.5234,-2.20887 6.38525,-3.18553c3.5544,-1.1848 8.60366,-3.908 12.33259,-3.96348c1.14975,-0.0171 2.16996,0.80205 3.30419,0.99109c4.01121,0.66854 8.38277,-0.56231 12.42685,0c4.09471,0.56935 8.34346,1.20888 12.42683,1.91182c3.60741,0.62102 6.23283,2.50001 9.36388,4.06553c4.8208,2.41039 9.49378,4.23836 13.93112,7.48714c3.27803,0 6.11451,1.48238 9.01073,3.02789c0.77148,0.41168 1.22873,1.31391 2.03226,1.65886c1.20615,0.51779 1.55915,-2.12538 2.49115,-3.04967c0.25209,-0.25001 5.62274,-3.81209 6.15075,-4.16409c2.87264,-1.91509 5.832,-4.3767 8.9175,-5.91602c2.74052,-1.36721 6.69407,-2.83122 10.17708,-3.15462c-0.06448,-0.13882 -0.09398,-0.22736 -0.09398,-0.22736c-1.95778,-6.07872 -1.1639,-12.40828 -0.10464,-18.50452c0.59669,-3.4341 -0.87162,-6.30214 1.32767,-9.59924c2.99935,-4.4965 5.61272,-3.74847 9.72391,-5.79478c1.15653,-0.57565 2.04335,-1.68301 3.27528,-2.07198c5.52911,-1.74575 10.49373,0.76042 14.54667,4.14285c0.73426,-0.43612 1.5375,-0.43612 1.5375,-0.43612c6.27263,0 12.51355,-0.13093 18.59877,0.99109c2.36088,0.43532 4.35066,2.0325 6.49614,3.10962c0.97936,0.49169 2.20777,0.45389 3.1031,1.08578c3.72243,2.62716 3.63207,3.25765 4.7392,6.51032c4.26666,-3.23591 11.19398,-4.44383 15.33493,-1.73078c4.08771,2.67817 5.8387,7.19381 7.35229,11.62643c0.77851,-0.56244 1.73021,-0.56244 1.73021,-0.56244c2.59217,0 6.97458,-0.7027 9.3928,0.11692c4.31317,1.46186 7.55306,6.1676 10.03796,9.63732c0.25105,0.35055 4.00911,6.01617 4.09115,6.20691c0.71486,1.66198 1.19323,3.37935 1.51264,5.12585c1.02263,-0.25477 1.9936,0.23072 1.9936,0.23072c7.186,3.66034 11.52912,10.14345 12.94198,18.25116c0.1596,0.91585 -0.2401,1.88718 -0.01398,2.78892c0.40087,1.59865 1.46261,2.98808 1.86555,4.58187c0.09196,0.02242 0.14411,0.0398 0.14411,0.0398c1.1462,0.40768 2.43818,0.53083 3.43859,1.22303c6.33677,4.38459 6.07185,11.7509 6.07185,18.56834c0,7.79607 1.19555,16.66996 -0.03518,24.33423c-1.14322,7.11931 -2.84213,14.54913 -2.85296,21.88241c-1.96994,7.74378 -6.51941,14.20306 -10.96552,20.80297c1.46451,-0.02712 2.9139,-0.06992 4.35861,-0.13094c-1.55304,-1.48332 -0.27647,-3.39819 -0.27647,-3.39819c1.06011,-1.58938 3.86243,-5.70472 4.47008,-7.08323c0.56454,-1.2807 0.44519,-2.80958 1.07747,-4.05823c0.17334,-0.34233 5.60556,-7.5604 6.01071,-8.10017c2.77594,-3.6983 4.78846,-8.01251 7.71849,-11.56179c0.82548,-0.99993 2.01221,-1.6801 2.76589,-2.7352c1.74265,-2.43958 2.77373,-5.38717 4.76566,-7.62783c1.27722,-1.43671 2.2151,-4.08809 4.1362,-4.01877c2.03687,0.07349 3.20136,2.62241 4.32334,4.32401c1.6183,2.4543 2.21421,4.85022 2.13442,7.18761c3.18567,-3.78234 7.66466,-7.27253 11.79198,-2.99089c1.29419,1.34258 1.36845,3.5004 1.66106,5.34209c0.21672,1.36407 0.14472,2.75788 -0.13659,4.15706c2.05622,0.26535 4.06707,0.58577 5.27487,2.09566c3.48966,4.36249 -1.19099,9.21873 -3.62078,11.7686c-0.97527,1.02348 -2.32708,1.61505 -3.39842,2.5375c-5.16621,4.44818 -8.52625,8.69598 -15.23426,11.02894l-0.24238,0.12534c0.79091,-0.09764 1.56967,-0.24657 2.32057,-0.50828l2.77349,-0.13983c0,0 2.10323,0 2.61403,1.84782c2.58992,-0.89785 6.02715,-2.45035 8.00953,-4.03347c2.14459,-1.71267 3.17432,-5.88732 3.99785,-8.37804l0.93604,-2.80812c0.34242,-1.11342 1.37912,-1.92276 2.60485,-1.92276c1.50487,0 2.72481,1.21994 2.72481,2.72481c0,0.24929 -0.03347,0.49075 -0.09617,0.72015l-0.32573,1.30294c1.97942,-0.99714 3.96791,-1.84728 4.13193,-1.78888c1.31276,0.46741 2.31948,2.06346 3.10083,3.83774c0.80415,-0.75341 2.38421,-1.19321 5.23946,-1.02611c2.11102,0.12354 2.78833,3.38745 3.24225,5.45279c0.64543,2.93675 -1.89757,4.89858 -1.91182,7.64729c-0.00163,0.31595 0.02231,0.62656 0.06608,0.93269c3.55509,-1.57887 6.00222,0.21331 6.11494,3.21775c0.2099,-0.05181 0.42938,-0.07931 0.65528,-0.07931c0.62898,0 1.20819,0.21311 1.66935,0.57108l0.50535,-1.51605c0.34242,-1.11342 1.37912,-1.92276 2.60485,-1.92276c1.50487,0 2.72481,1.21994 2.72481,2.72481c0,0.32361 -0.05641,0.63404 -0.15995,0.922l-0.83008,2.49023c0.05651,5.9054 -0.29817,11.02022 -3.20172,16.11773c-0.79287,1.39196 -1.14776,3.07437 -2.22581,4.25927c-3.66959,4.0333 -5.89964,2.04931 -10.20946,2.79816c-7.82212,1.35914 -16.1285,2.84731 -24.03918,0.90974c0,0 -1.14125,-0.28531 -1.73654,-1.23086c-0.68081,0.13526 -1.36278,0.2609 -2.04922,0.33589c-6.41873,0.70129 -13.30833,0.04131 -19.78406,0c-7.18404,-1.79601 -14.52206,-1.56737 -21.76423,-2.53982c-0.54035,0.52432 -1.39385,0.93139 -2.66228,0.50858c-0.67039,-0.22347 -1.10897,-0.56284 -1.39088,-0.94296c-1.69811,0.07214 -3.42547,0.45103 -5.06487,0.05398c-0.48276,-0.11692 -0.9364,-0.31234 -1.37795,-0.54138c-0.4018,0.35672 -0.98197,0.61426 -1.81966,0.61426zM267.34412,290.17916l0.03518,-2.43126c-0.65891,-1.97674 -0.96891,-4.08838 -0.99109,-6.17193c0,0 0,-1.41502 1.0197,-2.20565c-0.62371,-2.06616 1.44245,-3.09923 1.44245,-3.09923l0.86321,-0.03022c4.14166,-6.21249 9.26267,-12.57514 11.03372,-19.85151c-0.01115,-7.35121 1.64305,-14.95617 2.8825,-22.08948c0.41148,-2.36815 -0.03518,-4.80719 -0.03518,-7.21082c0,-5.41682 0,-10.83365 0,-16.25048c0,-5.05376 0.63607,-11.08034 -3.80867,-13.76271c-0.19571,3.20997 -0.86572,6.43627 -1.29191,9.41963c-0.18025,1.26174 0.18787,2.56302 0,3.82364c-0.29705,1.99322 -1.59216,3.74574 -1.91182,5.73546c-0.36948,2.29984 -0.44794,4.65331 -1.00209,6.91578l-1.16222,2.46953c0,0 -1.21857,2.43715 -3.65571,1.21857c-2.43715,-1.21857 -1.21857,-3.65571 -1.21857,-3.65571l0.74961,-1.35411c1.35679,-5.29954 2.05736,-10.67668 2.82156,-16.02608c0.60016,-4.20108 1.97409,-9.02652 0.96989,-13.38692c-0.38509,-1.67214 -1.49681,-3.11459 -1.91182,-4.77956c-0.23755,-0.95303 0.13917,-1.97637 -0.01398,-2.94654c-0.93802,-5.94188 -3.99766,-10.87092 -8.98321,-13.71259c0.04811,1.24142 0.05899,2.4834 0.05899,3.71701c0,8.16887 -0.36791,14.94021 -2.9764,22.74777c-0.57107,2.28426 -1.19984,4.55699 -1.94299,6.79121l0.13983,0.09425c0,0 0,2.72481 -2.72481,2.72481c-2.72481,0 -2.72481,-2.72481 -2.72481,-2.72481l0.13983,-1.81757c0.72403,-2.16711 1.3265,-4.3749 1.88065,-6.59153c2.44498,-7.35066 2.75907,-13.51026 2.75907,-21.22412c0,-4.1197 -0.02163,-8.39527 -1.67889,-12.28041c-0.83084,-1.94775 -2.32767,-3.53923 -3.55614,-5.26402c-1.55611,-2.1848 -4.29427,-6.64097 -7.16843,-7.56908c-1.94137,-0.62689 -5.73582,0.11468 -7.80425,0.11692c0.86128,2.02974 2.00583,3.95325 2.6068,6.07248c1.57619,5.55822 2.02049,11.24353 2.02049,17.01231c-0.03778,3.54745 -0.93812,6.12427 -2.05165,9.46486l-1.61416,2.02098c0,0 -1.92674,1.92674 -3.85346,0c-1.92674,-1.92674 0,-3.85346 0,-3.85346l0.29766,0.10916c0.92385,-2.77157 1.8143,-4.81815 1.77199,-7.74153c0,-5.24419 -0.34733,-10.43994 -1.80316,-15.48866c-0.65456,-2.27 -1.97721,-4.29592 -2.80714,-6.50784c-1.37642,-3.66838 -2.17046,-7.46922 -4.43448,-10.82307c-2.3007,-3.4082 -5.01733,-2.97476 -8.39879,-1.87598c-1.45083,0.47145 -3.30518,0.60117 -4.07973,2.2814c-0.83445,1.81017 0.89139,5.4668 1.12814,7.12399c0.31864,2.23045 0.24341,4.55389 0.95591,6.69137c0,1.93819 0.63806,3.82351 0.95591,5.73546c0.5789,3.48231 0.54224,7.11465 0.97068,10.61855c0.31891,2.60812 1.5359,5.04677 1.91182,7.64729c0.49013,3.39056 0.37609,7.04321 0.94114,10.41148c1.98457,11.83 3.85882,23.64904 3.85882,35.80516c0,3.62264 -0.4132,7.55241 -0.02041,11.138c0.15866,1.44837 0.9772,2.8041 0.97432,4.26113c-0.00221,1.11633 -0.80263,2.09898 -0.98908,3.19962c-0.83209,4.91182 0.03518,10.84244 0.03518,15.81401c0,4.32007 1.25788,10.09263 -3.35091,12.91741c-1.27613,0.78216 -3.03422,-0.1251 -4.48334,0.24953c-1.27367,0.32928 -2.27231,1.35411 -3.50431,1.81546c-4.36591,1.6349 -8.97813,2.02886 -13.57227,2.07625c-0.38169,1.30198 -1.80603,1.77676 -1.80603,1.77676c-3.69327,1.18949 -6.35248,0.59757 -10.08784,1.07532c-8.06022,1.03088 -16.03114,0.97633 -24.2307,0.97633c-4.0713,0 -8.83799,0.61121 -12.86329,-0.03518c-3.17762,-0.51026 -5.267,-0.92039 -8.6032,-0.95591c-1.28792,-0.44256 -2.71997,-0.58856 -3.86379,-1.32768c-4.49575,-2.90507 -6.43626,-8.13916 -8.66251,-12.59163c-1.56065,-3.12131 -3.46702,-5.76037 -4.06553,-9.36389c-0.93434,-5.62538 0.96505,-11.18285 0.92072,-16.68694v-0.95591c0,0 0,-0.0997 0.01907,-0.26096c-0.02256,-0.00723 -0.04514,-0.01447 -0.06773,-0.02174c0,0 -0.1349,-0.04497 -0.3328,-0.14518c-0.19943,-0.09429 -0.317,-0.17267 -0.317,-0.17267l0.00002,0.00004l-3.5217,-2.52506c-0.00193,-0.00514 -0.00388,-0.01028 -0.00583,-0.01542c-0.77207,2.67231 -2.07378,5.21541 -5.55164,5.86479c-1.26429,0.23607 -2.12269,-1.10553 -2.91457,-2.3828c-0.01333,0.20592 -0.02343,0.41138 -0.02049,0.61496c0,0 0,2.72481 -2.72481,2.72481c-0.00428,0 -0.00856,-0.00001 -0.01284,-0.00002c-0.53287,3.46874 -0.13008,7.16523 -0.13008,10.65795c0,3.47374 -0.62804,7.6225 -0.03519,11.03447c0.50421,2.90188 1.4278,5.69903 1.91182,8.6032c1.08784,6.52702 1.78878,11.59519 6.68516,16.49155c2.91856,2.1341 3.77441,0.76131 7.31216,1.3294c3.81429,0.6125 7.05885,0.92072 11.03446,0.92072c3.72531,0 6.44464,0.37411 9.99557,0.99109c3.67763,0.63901 8.26325,-0.03519 11.99037,-0.03519c2.54286,0 5.665,0.46988 8.16672,0.03519c3.94162,-0.68488 7.38431,-1.01506 11.47093,-0.95592c5.89883,-1.96628 13.37799,0.27679 18.8155,-2.6796c0.17196,-0.80122 0.74452,-2.13514 2.651,-2.13514c2.72481,0 2.72481,2.72481 2.72481,2.72481l-0.87087,2.31332c5.12428,1.16881 10.95769,1.55539 15.87191,0.73254c1.98756,-0.33281 3.74746,-1.58163 5.73546,-1.91182c4.32517,-0.71838 9.44973,-0.05976 13.81921,-0.03518c1.93816,0.0109 3.79748,-0.98475 5.73546,-0.95591c1.29554,0.01927 2.48626,0.73049 3.72939,1.09574l1.05016,-0.13983c0,0 2.72481,0 2.72481,2.72481c0,0.3548 -0.0462,0.6634 -0.12657,0.93183c4.45663,1.27206 8.94044,2.49623 13.30103,3.97145c0.38533,-1.74224 1.03416,-3.3377 2.02968,-5.0614c-0.57963,-0.78271 -0.57963,-1.7537 -0.57963,-1.7537zM272.60678,299.95408c1.42558,0.37066 2.9282,0.06135 4.41644,-0.067c0.41283,-1.64898 0.85593,-3.29186 1.35061,-4.91849c-1.80021,-0.09789 -3.61074,-0.15281 -5.43717,-0.15281c0,0 -0.15888,0 -0.3999,-0.03837c-0.89511,1.50806 -1.35095,2.81419 -1.54212,4.41627c0.51254,0.31782 1.03421,0.61011 1.61215,0.76039zM272.75855,286.87496l0.01881,1.76618c0.58955,-0.23088 1.11521,-0.23088 1.11521,-0.23088c5.12968,0 10.78797,0.63794 16.02944,0.30184c-0.27721,-1.09815 -0.60861,-2.19221 -0.59195,-3.3125c0.01547,-1.0396 0.47649,-2.01172 0.84677,-2.99757c-6.16482,0.68662 -12.02393,0.92106 -18.24089,0.94136c0.14576,1.20066 0.442,2.38973 0.82261,3.53157zM333.30196,304.51782c0.02384,-1.64705 -0.27397,-3.31835 -0.81608,-4.8738c0,0 -0.29937,-0.89812 -0.01581,-1.81204c-1.13117,-0.08001 -2.20169,-0.14845 -3.13468,-0.14845c-4.22471,0 -7.82884,-0.28242 -11.9074,-0.99109c-0.14375,-0.02498 -0.28775,-0.04859 -0.43198,-0.07087c-0.44204,1.32612 -0.88408,2.65224 -1.32612,3.97836l0.13983,1.05016c0,0 0,0.71304 -0.36475,1.4096c1.99735,0.00069 3.97653,-0.07163 5.91021,-0.29036c2.34896,-0.2657 4.66041,-0.96125 7.0243,-0.97632l-0.97082,-0.15783c0,0 1.92674,-1.92674 3.85346,0c1.07481,1.07481 0.95048,2.14961 0.63039,2.88996c0.4689,0.03079 0.93881,0.05075 1.40944,0.06096zM310.3601,301.65009l0.13983,-2.77349c0.28558,-0.85675 0.57116,-1.71349 0.85675,-2.57025c-5.58159,0.11467 -11.33164,1.15631 -16.767,0.40084c-3.55805,-0.49454 -7.09032,-0.96207 -10.64062,-1.30857c-0.59145,1.82457 -1.10147,3.67597 -1.5734,5.53535c3.27238,0.44469 6.83491,-0.51788 10.11568,-0.0617c3.41885,0.47538 7.00081,1.04439 10.41148,1.89706c2.54405,-0.02049 5.15448,0.09612 7.77088,0.18766c-0.31359,-0.66221 -0.31359,-1.30691 -0.31359,-1.30691zM348.97305,302.7841c2.01464,-0.32351 5.5097,1.05564 6.99693,-1.02548c2.42916,-3.39917 3.41609,-6.9727 3.82746,-10.76939c-0.78061,-0.03584 -1.47553,-0.40014 -1.94974,-0.95791c-1.01708,-0.06075 -1.88388,-0.67942 -2.29853,-1.55412l-1.44546,-2.89091c-0.05052,1.15994 -0.53097,2.35893 -1.81155,3.65187c-0.67702,0.68355 -1.42897,1.14244 -2.23473,1.43138c-2.19112,2.98511 -4.75913,5.68655 -8.46151,6.89707c-1.10842,0.36241 -2.45603,0.49527 -3.88995,0.51165c0.63371,2.01638 1.0012,4.14135 1.0428,6.25438c3.45811,-0.35742 6.90094,-1.01487 10.22428,-1.54853zM323.88267,291.22933l0.22025,-0.65926c-0.6603,0.16612 -1.34755,0.3087 -2.0819,0.40167c-5.6382,0.71378 -11.59296,-0.81408 -17.20639,0c-1.11429,0.16159 -2.21469,0.42192 -3.30938,0.72388c4.31904,0.00135 8.77606,-0.40478 12.93152,-0.41826c0.26905,-0.04691 0.56923,-0.05004 0.90306,0.00799c1.9643,0.07215 3.88874,0.64665 5.82883,0.98375c0.81066,0.14085 1.68646,0.18674 2.5866,0.18439c-0.05537,-0.67579 0.12742,-1.22416 0.12742,-1.22416zM332.87628,279.5699c-0.35081,1.05002 -0.67048,2.10522 -0.97041,3.16464c0.70482,0.13621 1.16921,0.4896 1.47517,0.89618h2.64573c2.45345,0.01565 4.90027,0.46298 7.28916,1.02229c1.03871,0.24319 2.2741,0.92027 3.36118,1.12023c-0.36002,-1.87384 1.51383,-2.81077 1.51383,-2.81077l0.22991,0.26117l0.07256,-0.14947c-0.5352,-1.96627 -1.80422,-4.479 -1.8067,-5.21727c-0.00161,-0.48035 0.01285,-0.96737 0.04642,-1.45598c-0.34869,0.16208 -0.73741,0.25258 -1.14726,0.25258c-1.22573,0 -2.26242,-0.80933 -2.60485,-1.92276l-0.93604,-2.80812c-0.29611,-0.89555 -0.70367,-1.76167 -0.88832,-2.68665c-0.14584,-0.73052 0.45562,-1.72979 -0.0938,-2.23285c-0.41284,-0.37802 -0.26042,1.15034 -0.65691,1.54547c-0.73897,0.73645 -1.69642,1.22179 -2.60947,1.7284l-2.71071,2.71071v0c-0.2765,0.2765 -0.61216,0.49386 -0.98636,0.63146c-0.58447,0.89645 -1.24614,1.70145 -2.00482,2.35227c-0.14059,0.1206 -0.28777,0.24072 -0.44093,0.36024c1.9661,1.00781 1.22263,3.23824 1.22263,3.23824zM330.03972,289.98507l-0.74803,2.24887c0.01458,-0.00003 0.02916,-0.00004 0.0437,-0.00004c2.87422,0 8.01788,1.03385 10.68132,0.11692c1.19494,-0.41138 2.22242,-1.07553 3.13371,-1.88978c-2.50946,-0.59382 -5.0166,-1.39769 -7.12366,-1.38072h-2.86773c0,0 -0.82943,0 -1.57305,-0.45762l-0.33877,0.45762c-0.33903,-0.0049 -0.66806,0.00558 -0.98906,0.02887c-0.07251,0.29179 -0.14524,0.58375 -0.21843,0.87587zM317.13283,280.9151c0,0 0.19712,-0.78848 0.80667,-1.39653c-0.04826,0.00266 -0.07504,0.00266 -0.07504,0.00266l-1.05016,-0.13983c-2.33664,0.75256 -4.84429,0.81518 -7.28454,1.08248c-2.89887,0.31754 -5.64472,1.54584 -8.53877,1.90466c-1.7294,0.21442 -3.49346,0.12033 -5.25761,0.01968c0.007,0.57147 -0.13762,1.00531 -0.13762,1.00531c-0.66265,1.6289 -0.49247,2.99587 -0.24273,4.48294c2.93193,-0.75829 5.81181,-1.89257 8.79574,-2.31354c3.92729,-0.55407 7.99932,0.00156 12.01652,0.15395c0.32251,-1.6006 0.64501,-3.20119 0.96751,-4.80179zM322.41974,282.23683c-0.30484,0.89924 -0.60969,1.79848 -0.91453,2.69773l0.44681,0.54466c1.36329,-0.21432 2.5986,-0.56316 3.82592,-0.90043c0.48482,-1.90071 0.99421,-3.79092 1.58432,-5.66803c-1.66114,0.81706 -3.40226,1.53249 -4.91183,2.08062c0.11161,0.67621 -0.0307,1.24546 -0.0307,1.24546zM307.78004,274.19134c-1.21857,-2.43715 1.21857,-3.65571 1.21857,-3.65571l2.24661,-1.09627c0.39474,-0.13304 0.784,-0.27771 1.16812,-0.43316h-0.28433c0,0 -2.72481,0 -2.72481,-2.72481c0,-2.72481 2.72481,-2.72481 2.72481,-2.72481h0.95591c2.56782,0.52333 3.00767,-2.40092 4.4242,-4.52211c1.39532,-2.08944 2.48756,-4.36611 3.7341,-6.54758c0.39145,-0.68504 1.01978,-1.55614 1.64411,-2.47151c-0.17213,-0.47536 -0.20473,-1.06951 0.03944,-1.80205c0.39843,-1.1953 1.16534,-1.65365 1.87476,-1.80102c0.19192,-0.88746 -0.02894,-1.82926 -0.08235,-2.73986c-0.27818,-4.74261 -2.97223,-0.75745 -4.7475,1.39457c-0.67413,0.8172 -1.1679,1.76779 -1.75186,2.65169c0,0 -1.51145,2.26718 -3.77864,0.75573c-0.0475,-0.03167 -0.09335,-0.06367 -0.13758,-0.09598c-1.09087,2.06192 -2.4291,4.0725 -3.73107,6.03162l-3.22309,1.21336c0,0 -2.72481,0 -2.72481,-2.72481c0,-1.94265 1.385,-2.50029 2.18014,-2.66036c1.74446,-2.62917 3.60934,-5.59269 4.58412,-8.48069c0.46324,-1.37243 -0.62419,-3.37532 -1.26475,-4.72606c-0.69313,1.0419 -1.70114,1.89332 -2.36868,2.96096c-0.78933,1.26248 -1.1538,2.77273 -2.0192,3.98435c-1.43812,2.01347 -3.44379,3.60268 -4.75026,5.70397c-1.8364,2.95361 -3.70965,5.89321 -5.79539,8.67635c-1.80546,2.40916 -4.1234,4.49687 -5.46021,7.19439c-0.5805,1.17139 -0.42784,2.60899 -0.96221,3.80213c-0.90501,2.02074 -3.53272,5.85454 -4.96117,7.99826c0,0 -0.03818,0.05728 -0.11151,0.14755c2.0393,-0.1387 4.0892,-0.31861 6.17904,-0.54691c3.43333,-0.37506 7.02967,0.43881 10.45058,0.00715c2.75646,-0.34782 5.38534,-1.44215 8.13008,-1.84872c-0.2468,-0.22391 -0.47709,-0.52349 -0.6752,-0.91969zM327.8639,257.10388c1.02116,-0.95715 1.90147,-2.06289 2.72393,-3.19535c0.25096,-0.34555 0.85663,-1.02622 0.464,-1.19421c-0.94829,-0.40574 -2.06144,0.04496 -3.09536,-0.01917c-1.73407,3.41276 -4.11364,6.65883 -5.91299,9.36223c-0.16424,0.24676 -0.45158,0.6847 -0.80812,1.2224c2.30255,-1.98832 4.47316,-4.15562 6.62856,-6.17591zM211.75838,163.85604c-2.72481,0 -2.72481,-2.72481 -2.72481,-2.72481v-1.91182c0.07244,-6.97366 -4.58771,-12.23519 -8.89277,-17.33291c-1.16336,-1.37757 -2.31969,-2.78376 -3.22284,-4.34434c-0.93571,-1.61683 -1.03678,-3.776 -2.38088,-5.07334c-3.41474,-3.29591 -6.82917,-3.88794 -11.06908,-3.96996c-0.13786,-0.00116 -0.27584,-0.0022 -0.41392,-0.00315c0.18763,0.28308 0.37526,0.56616 0.5629,0.84924l0.38288,1.12194c2.02846,-0.12162 4.10607,0.74929 5.97666,3.13794c1.82984,2.33659 2.7073,5.14787 3.12164,8.04399c1.9635,-0.07439 4.03514,0.49558 6.24829,1.30523c2.64194,6.6986 2.66955,14.30814 0.54675,21.1723c1.85085,-0.03428 3.63246,0.26026 4.2328,0.81364c0.59714,0.55042 1.11386,7.05215 0.72519,8.28823c-0.57623,1.83255 -1.33014,3.71636 -2.63701,5.12434c-1.0661,1.14859 -2.89832,1.26221 -4.15716,2.19558c-2.34007,1.73504 -3.37433,4.85905 -5.67474,6.64631c-0.20621,0.16021 -1.45425,0.61613 -2.81493,1.08627c0.03914,0.18772 0.06216,0.37796 0.06216,0.57195c0,1.14988 -0.80205,2.16996 -0.99109,3.3042c-0.3143,1.88581 0.31326,3.84948 0,5.73546c-0.33019,1.988 -1.59284,3.74563 -1.91182,5.73546c-0.99074,6.18033 -2.96826,11.95069 -5.02144,17.96707c-0.3246,0.49363 -3.98459,6.10498 -4.34464,6.46505c-0.22525,0.22525 -0.45887,0.44863 -0.70022,0.66988c0.54696,0.7418 1.08599,1.48739 1.38139,2.34924c0.34822,1.01595 -0.09284,2.16119 0.08173,3.22087c0.48348,2.93479 2.37766,5.65264 2.86773,8.6032c0.82665,4.97705 -0.12493,10.42906 -0.95591,15.21159c-0.32728,1.8836 0.33477,3.85318 0,5.73546c-0.42037,2.3636 -2.036,4.34891 -3.10962,6.49614c-0.67247,1.34496 -1.25091,2.7447 -1.9287,4.08701c3.30117,0.11398 6.58909,0.11095 9.66302,-0.34131c1.29979,-0.19123 2.5196,-0.79637 3.82365,-0.95592c3.5089,-0.42929 5.71579,0.31868 9.03037,-0.83649c0,0 0.04238,-0.01413 0.11809,-0.03333c0.42477,-2.01827 2.65541,-2.01827 2.65541,-2.01827c4.18904,0.01232 8.45067,-0.24542 12.43739,-1.74257c1.43671,-0.53953 2.6509,-1.64907 4.14298,-2.00819c1.02855,-0.24755 2.14205,0.52324 3.16395,0.24953c0.97866,-0.26214 0.47455,-3.22643 0.47273,-3.33306c-0.04888,-2.86732 0,-5.73546 0,-8.6032c0,-4.06214 -0.62325,-8.84909 0.03518,-12.86331c0.14559,-0.88763 0.92497,-1.63634 0.92273,-2.53584c-0.00292,-1.17118 -0.80633,-2.22234 -0.9375,-3.38614c-0.42794,-3.79662 -0.02041,-7.9637 -0.02041,-11.80386c0,-11.87252 -1.87399,-23.37411 -3.78846,-34.93223c-0.57103,-3.44746 -0.48276,-7.15681 -0.97068,-10.61855c-0.70059,-4.97064 -2.03204,-9.97483 -2.92023,-14.9855c-0.29858,0.10754 -0.65094,0.17099 -1.06674,0.17099zM204.25774,138.31589c2.39209,2.7443 4.6813,5.5442 6.48504,8.55454c-0.33873,-1.61426 -0.79243,-3.21822 -0.7533,-4.85742c0.02177,-0.91167 -0.17804,-1.89206 -0.09617,-2.79564c-0.04036,-0.03588 -0.06166,-0.05718 -0.06166,-0.05718l-1.61416,-2.02098c-1.08494,-3.6179 -2.19021,-3.55554 -5.30354,-5.10529c-1.8418,-0.91681 -2.31042,-1.75253 -3.53847,-2.25742c1.98881,2.6967 2.53419,5.8456 4.88226,8.5394zM178.7215,131.73923c-0.52376,-0.77913 -1.04753,-1.55825 -1.57129,-2.33739c-2.75789,-2.75789 -7.02141,-6.44736 -11.44184,-4.85507c-0.94712,0.34117 -1.56061,1.29979 -2.46019,1.75166c-2.81401,1.41352 -5.56787,0.88921 -7.48248,3.76434c-1.38789,2.08414 -0.22159,5.34936 -0.58414,7.60715c-0.82826,5.15785 -1.90037,10.75578 -0.10464,15.90827c0,0 0.47398,1.42193 -0.33573,2.50811c0.18935,0.07301 0.3778,0.14982 0.5658,0.22844c2.52669,-3.54851 6.35895,-6.57444 8.07581,-10.6245c0.84517,-1.99377 0.74658,-5.49376 2.23828,-7.24299c2.7094,-3.17715 6.88333,-3.97362 10.24886,-2.20753c0.86649,-1.33318 1.94447,-2.5822 3.15048,-3.57595zM169.34296,273.37313c1.13184,-1.66934 1.7852,-3.61722 2.68718,-5.42116c1.23414,-2.46829 2.24606,-2.43578 2.62585,-4.97478c0.28282,-1.89079 -0.30312,-3.84782 0,-5.73546c0.15976,-0.99487 0.78342,-1.87499 0.95591,-2.86773c0.92405,-5.31814 -0.17825,-10.93158 -1.80718,-15.90827c-0.83781,-2.55966 -0.71789,-4.3926 -1.62254,-6.38241c-4.20041,2.62073 -9.23123,4.60462 -13.51832,5.34264c-3.7521,0.64592 -7.73208,0.30627 -11.47093,0.95591c-4.82563,0.83848 -9.3591,1.01775 -13.96293,0.27061c-0.05419,5.18271 -1.87091,10.46232 -0.99031,15.72147c0.51042,3.04832 2.26012,5.19925 3.58175,7.84251c2.04436,4.08872 3.65295,9.42044 8.50374,10.93437c3.18231,-0.04606 5.5538,0.42606 8.6032,0.95592c3.67763,0.63901 8.26324,-0.03519 11.99036,-0.03519c1.32516,0 2.68558,0.04114 4.0658,0.0978c0.14612,-0.47777 0.35842,-0.79622 0.35842,-0.79622zM179.54017,188.75838c-0.86166,-2.58498 1.72332,-3.44665 1.72332,-3.44665l2.0887,-0.69623c-0.43015,-3.01917 -1.29217,-5.99746 -2.71886,-8.90439c-2.40226,-4.89467 -7.78987,-8.23212 -12.13216,-11.17624c-3.45803,-1.17183 -7.15855,-1.05851 -10.71024,-1.66994c-1.98603,-0.3419 -3.75631,-1.53214 -5.73546,-1.91182c-2.69108,-0.51625 -7.46782,1.4378 -9.83732,2.62585c-2.86856,1.43827 -5.61681,3.77352 -8.28889,5.55491c-1.76367,1.17578 -3.82792,1.97782 -5.32019,3.4832c-2.76587,2.79016 -1.50876,5.03372 -7.06795,4.5976c-1.42546,-0.11183 -2.41162,-1.55139 -3.7032,-2.16479c-2.87688,-1.3663 -5.02039,-2.70757 -8.19565,-2.70757c-4.87789,-3.06098 -9.676,-5.27234 -14.74619,-7.80744c-2.63005,-1.31503 -4.80068,-3.09413 -7.84252,-3.58175c-4.12213,-0.6608 -8.30479,-1.30505 -12.42683,-1.91182c-4.04205,-0.595 -8.38176,0.67418 -12.42685,0c-0.85479,-0.14246 -1.56491,-0.90029 -2.43126,-0.92072c-0.7217,-0.01701 -1.32761,0.56941 -2.00607,0.81608c-2.83622,1.03118 -5.74009,1.91336 -8.6032,2.86773c-0.68708,0.22214 -1.32395,0.5691 -1.9499,0.94248c7.43449,1.23863 15.1077,-0.72156 22.55474,0.47429c3.94668,0.63376 8.55147,1.28804 12.23161,3.10962c2.43585,1.20568 2.45671,2.26444 4.97478,2.62585c4.18804,0.6011 8.14052,0.80318 12.23162,2.15371c5.38917,3.5437 9.75704,7.67195 13.45523,12.40709c0.31043,0.17701 0.61897,0.44427 0.91022,0.8326c0.29174,0.38898 0.46201,0.76063 0.54486,1.10871c2.38726,3.31789 4.48897,6.91556 6.4144,10.79995c1.02045,2.05869 2.82412,3.66653 3.82365,5.73546c0.76624,1.58607 1.09125,3.17541 1.21755,4.78727c0.52857,0.39134 0.97134,1.04696 0.97134,2.14534c0,1.07169 -0.42151,1.72188 -0.93295,2.11634c-0.01216,0.56434 -0.02295,1.13319 -0.02295,1.7073v2.86773c0,0 0,2.72481 -2.72481,2.72481c-2.72481,0 -2.72481,-2.72481 -2.72481,-2.72481v-1.04861c-0.88937,0.57391 -1.8081,1.09998 -2.74799,1.57393c-2.42995,1.2253 -4.51208,3.21785 -7.12034,3.9944c-7.36997,2.19422 -11.52547,-4.6899 -13.02435,-10.69581c-1.05578,-4.23038 0.63696,-7.27709 2.03191,-11.01975c0.47837,-1.28346 0.47109,-2.72553 1.01959,-3.98061c1.55105,-3.54911 4.20242,-6.34482 7.1094,-8.77412c-2.96687,-3.60951 -6.40909,-6.82418 -10.59423,-9.66176c-3.46324,-1.1736 -7.16487,-1.01621 -10.71024,-1.66994c-2.3609,-0.43532 -4.35377,-2.02632 -6.49614,-3.10962c-3.18015,-1.60803 -7.30379,-2.03396 -10.71024,-2.62585c-0.78257,-0.13597 -1.56694,-0.23703 -2.35281,-0.31025c0.71337,0.27815 1.40787,0.57832 2.07461,0.90834c2.94715,1.45877 5.66755,3.29516 8.6032,4.77956c5.67338,2.86873 11.45789,2.69504 15.45937,8.6625c0.67753,1.01041 0.81536,2.29239 1.22303,3.43859c0.29261,0.87784 2.05164,6.04033 2.05164,6.59713c0,2.51873 -1.56023,3.86202 -1.94701,6.17192c-0.34433,2.05637 0.03518,4.1699 0.03518,6.2549c0,4.95881 -0.50459,11.39859 2.46079,15.77388c2.45224,3.61818 6.81259,6.14533 10.35021,8.54388l2.53224,0.81867c0,0 0.89355,0.29784 1.45483,1.06866c0.39092,-0.49122 0.90454,-0.86564 1.57874,-1.06104c1.99462,-0.57811 4.06286,1.25799 5.67877,2.56241c0.53731,0.43374 -0.55442,2.38449 0.06069,2.0707c0.68146,-0.34764 0.17567,-1.52201 0.33179,-2.27092c0.26305,-1.26188 0.61624,-2.50328 0.92436,-3.75493l0.34849,-0.3266l-0.12378,-0.08252l1.88838,-2.83257c0.48516,-0.75124 1.32982,-1.24852 2.29062,-1.24852c1.22573,0 2.26242,0.80933 2.60485,1.92276l0.93604,2.80812l-0.20385,0.06795c0.30591,0.64724 0.56099,1.31402 0.74021,2.0075l1.81072,1.06216c1.6248,0.50616 3.38077,0.48946 5.06353,0.76992c3.08144,0.51357 5.38973,1.44115 8.68617,0.95592c0.99688,-0.14675 1.87286,-0.79616 2.86773,-0.95592c3.79133,-0.60881 7.68529,-0.34906 11.47093,-0.95592c5.12211,-0.82111 12.05793,-4.18209 15.71613,-7.84029c1.41354,-1.41354 2.18079,-3.35128 3.30263,-5.00588c2.97906,-9.21462 6.70859,-19.19545 6.87655,-28.95197l-0.69943,0.23313c0,0 -2.58497,0.86166 -3.44663,-1.72332zM189.07441,182.86357c0.72357,-0.60731 0.84242,-1.71373 1.45855,-2.4298c1.3289,-1.54447 2.71402,-3.07568 4.33763,-4.30663c1.02297,-0.77557 2.53005,-0.77591 3.49014,-1.62807c1.64907,-1.46368 0.59181,-3.44804 1.13268,-4.81242c-0.45548,0.18056 -0.96505,0.23361 -1.43262,0.39245l-2.53798,2.53799c-0.49309,0.49309 -1.1743,0.79808 -1.92674,0.79808c-1.50487,0 -2.72481,-1.21994 -2.72481,-2.72481c0,-0.57256 0.1766,-1.10388 0.4783,-1.54245l1.82051,-2.73077c3.00406,-6.02852 3.26329,-12.89861 2.32291,-19.60963c-0.81253,-0.13628 -1.48074,-0.08578 -2.043,0.10342c0.00702,0.60587 0.00653,1.20492 0.00316,1.79348c-0.01343,2.35449 0.26925,4.82917 -1.23299,6.93261c-1.22191,1.71094 -2.48413,4.87949 -4.52887,4.39013c-8.21467,-1.96603 -3.67958,-8.16726 -2.34809,-11.40957c0.47062,-1.14601 0.51566,-2.52644 1.30788,-3.47894c0.41824,-0.50285 0.8404,-0.94263 1.26695,-1.32481c-0.22504,-3.25303 -1.01289,-6.6309 -3.71477,-7.7961c-1.61916,-0.69827 -3.53829,2.3082 -4.51026,4.56548c0.55599,1.82099 0.34219,3.80677 0.34219,5.68993l-0.28976,0.36349l0.18511,0.06171l-0.93604,2.80812c-0.34243,1.11342 -1.37912,1.92276 -2.60485,1.92276c-1.50487,0 -2.72481,-1.21994 -2.72481,-2.72481v-3.82364h0.18242c-0.2201,-1.17343 -0.27444,-2.33812 -0.06923,-3.58217c-1.11685,-0.87153 -2.98254,-0.78261 -3.82616,0.45656c-1.18951,1.74724 -0.74664,4.19958 -1.58537,6.13976c-1.65737,3.8339 -4.82217,6.70381 -7.3901,9.92016c3.34327,0.43137 6.57952,0.72192 9.91902,1.82435c4.55726,2.99667 8.87591,6.00423 12.38098,10.27935c3.17542,3.87302 4.22122,8.70519 5.00792,13.43954c0.28188,-0.13022 0.54737,-0.29104 0.79004,-0.49472zM113.09206,205.64855c-0.16027,0.79526 -0.71818,2.17937 -2.6602,2.17937c-2.72481,0 -2.72481,-2.72481 -2.72481,-2.72481l1.21336,-3.22309c1.91182,-1.27455 3.82364,-2.54909 5.73546,-3.82364c0,0 0.20603,-0.13735 0.53527,-0.26713c-1.41694,-2.74742 -2.91336,-5.33554 -4.5534,-7.76865c-2.20347,1.83307 -4.25182,3.97379 -5.36129,6.62575c-0.48548,1.16042 -0.44788,2.48988 -0.89222,3.66667c-0.70702,1.87245 -1.7529,3.74456 -1.74257,5.74601c0.01374,2.66085 1.46613,10.70189 6.04469,8.86303c2.24254,-0.90066 4.097,-2.57996 6.26241,-3.65289c1.91604,-0.94938 3.73841,-2.16111 5.31161,-3.61698c-0.01514,-0.38644 -0.04378,-0.77211 -0.09129,-1.15669c-0.19546,-1.58195 -1.07804,-2.95412 -2.06027,-4.27318c-0.23637,0.23933 -0.43002,0.36843 -0.43002,0.36843c-1.5289,1.01928 -3.05781,2.03854 -4.58672,3.05781z" fill="#000000" stroke-width="0.5"></path><path d="M348.97461,302.83858c-3.32334,0.53366 -6.80748,1.1739 -10.26559,1.53132c-0.04159,-2.11302 -0.42176,-4.26045 -1.05547,-6.27683c1.43392,-0.01638 2.78277,-0.1454 3.89119,-0.50781c3.70237,-1.21052 6.33746,-3.98276 8.52858,-6.96786c0.80576,-0.28894 1.57052,-0.74203 2.24753,-1.42558c1.28058,-1.29293 1.75938,-2.49291 1.8099,-3.65285l1.45787,2.90063c0.41465,0.87471 1.28993,1.50502 2.30701,1.56577c0.47422,0.55777 1.1725,0.92961 1.95311,0.96544c-0.41137,3.79669 -1.40993,7.42602 -3.83908,10.82519c-1.48723,2.08111 -5.02042,0.71908 -7.03506,1.04259z" data-paper-data="{&quot;noHover&quot;:false,&quot;origItem&quot;:[&quot;Path&quot;,{&quot;applyMatrix&quot;:true,&quot;segments&quot;:[[[349.53984,212.17549],[0,0],[1.84842,-0.29682]],[[355.95949,211.23462],[-1.36453,1.90941],[2.22874,-3.11872]],[[359.47117,201.35376],[-0.37743,3.48344],[-0.71621,-0.03288]],[[357.68229,200.47488],[0.43509,0.51175],[-0.93317,-0.05574]],[[355.5734,199.04898],[0.38044,0.80254],[0,0]],[[354.2472,196.39658],[0,0],[-0.04635,1.06424]],[[352.58511,199.74715],[1.17493,-1.18626],[-0.62116,0.62715]],[[350.53476,201.06043],[0.73928,-0.2651],[-2.01034,2.73882]],[[342.77137,207.38846],[3.39691,-1.11065],[-1.01697,0.33251]],[[339.20236,207.8579],[1.31561,-0.01503],[0.58143,1.85002]],[[340.15912,213.59626],[-0.03816,-1.93869],[3.1728,-0.32793]],[[349.53985,212.17549],[-3.04915,0.48963],[0,0]]],&quot;closed&quot;:true,&quot;fillColor&quot;:[0,0,0,1]}]}" fill="#ffde00" stroke-width="0.5"></path><path d="M333.3517,304.60831c-0.47063,-0.01021 -1.03863,-0.07757 -1.50753,-0.10836c0.32009,-0.74034 0.43884,-1.79802 -0.63597,-2.87282c-1.92672,-1.92674 -3.74797,0.0256 -3.74797,0.0256l0.97146,0.1558c-2.36389,0.01507 -4.77186,0.72687 -7.12082,0.99257c-1.93368,0.21873 -3.92112,0.27373 -5.91847,0.27305c0.36475,-0.69656 0.36321,-1.41745 0.36321,-1.41745l-0.14023,-1.0568c0.44204,-1.32612 0.89062,-2.67811 1.33266,-4.00423c0.14423,0.02228 0.2887,0.04504 0.43245,0.07002c4.07856,0.70867 7.77714,0.99019 12.00185,0.99019c0.93299,0 2.0081,0.07843 3.13926,0.15844c-0.28355,0.91392 0.01838,1.82329 0.01838,1.82329c0.54211,1.55545 0.83571,3.25504 0.81187,4.90209z" data-paper-data="{&quot;noHover&quot;:false,&quot;origItem&quot;:[&quot;Path&quot;,{&quot;applyMatrix&quot;:true,&quot;segments&quot;:[[[335.16169,213.76617],[0,0],[0.02187,-1.51116]],[[334.41294,209.29448],[0.49738,1.42712],[0,0]],[[334.39843,207.63194],[-0.26016,0.83852],[-1.03784,-0.07341]],[[331.52238,207.49574],[0.85601,0],[-3.87615,0]],[[320.5974,206.58642],[3.74206,0.6502],[-0.13189,-0.02292]],[[320.20106,206.5214],[0.13233,0.02044],[-0.40557,1.21671]],[[318.98435,210.17153],[0.40557,-1.21671],[0,0]],[319.11264,211.13505],[[318.77798,212.42835],[0.33466,-0.63909],[1.83256,0.00063]],[[324.20057,212.16195],[-1.77414,0.20068],[2.15516,-0.24378]],[[330.64533,211.26618],[-2.16886,0.01383],[0,0]],[329.75461,211.12137],[[333.29014,211.12137],[-1.76776,-1.76777],[0.98613,0.98613]],[[333.86852,213.77289],[0.29368,-0.67926],[0.43021,0.02825]],[[335.16167,213.82882],[-0.4318,-0.00937],[0,0]]],&quot;closed&quot;:true,&quot;fillColor&quot;:[0,0,0,1]}]}" fill="#ffde00" stroke-width="0.5"></path><path d="M332.82651,279.59212c0,0 0.73874,-2.25281 -1.22736,-3.26062c0.15316,-0.11952 0.3004,-0.2421 0.44099,-0.3627c0.75867,-0.65083 1.42524,-1.4759 2.00971,-2.37235c0.3742,-0.1376 0.71424,-0.36276 0.99074,-0.63926v0l2.73674,-2.73123c0.91305,-0.50661 1.89193,-0.99536 2.6309,-1.73181c0.39649,-0.39513 0.24748,-1.92324 0.66032,-1.54522c0.54942,0.50307 -0.04958,1.50265 0.09626,2.23317c0.18465,0.92499 0.60615,1.79518 0.90226,2.69073l0.96145,2.83131c0.34243,1.11342 1.38599,1.95229 2.61172,1.95229c0.40986,0 0.79865,-0.09306 1.14734,-0.25514c-0.03357,0.4886 -0.04938,0.98732 -0.04777,1.46767c0.00249,0.73827 1.26097,3.27294 1.79616,5.23921l-0.07307,0.1501l-0.22972,-0.2614c0,0 -1.88483,0.94715 -1.5248,2.821c-1.08708,-0.19997 -2.33393,-0.8709 -3.37264,-1.1141c-2.3889,-0.55932 -4.88205,-1.00978 -7.33551,-1.02543l-2.65613,-0.00752c-0.30596,-0.40657 -0.7764,-0.76653 -1.48122,-0.90274c0.29994,-1.05942 0.61279,-2.12594 0.9636,-3.17596z" data-paper-data="{&quot;noHover&quot;:false,&quot;origItem&quot;:[&quot;Path&quot;,{&quot;applyMatrix&quot;:true,&quot;segments&quot;:[[[334.77113,190.87657],[0,0],[-0.32187,0.96339]],[[333.88078,193.78011],[0.27519,-0.97201],[0.64667,0.12497]],[[335.23424,194.60235],[-0.28072,-0.37303],[0,0]],[[337.66168,194.60235],[0,0],[2.25103,0.01436]],[[344.34945,195.5403],[-2.1918,-0.51317],[0.95301,0.22313]],[[347.43332,196.56811],[-0.99739,-0.18347],[-0.33032,-1.71924]],[348.82225,193.98924],[349.03319,194.22886],[[349.09976,194.09172],[0,0],[-0.49104,-1.80404]],[[347.44212,189.3049],[0.00228,0.67736],[-0.00148,-0.44072]],[[347.48471,187.96905],[-0.0308,0.44829],[-0.31992,0.14871]],[[346.4321,188.20079],[0.37604,0],[-1.1246,0]],[[344.04216,186.43667],[0.31418,1.02156],[0,0]],[[343.18335,183.86023],[0,0],[-0.27168,-0.82166]],[[342.36832,181.39524],[0.16942,0.84867],[-0.13381,-0.67025]],[[342.28226,179.34661],[0.50409,0.46156],[-0.37878,-0.34683]],[[341.67955,180.76457],[0.36378,-0.36253],[-0.678,0.67569]],[[339.28537,182.35037],[0.83772,-0.46481],[0,0]],[336.79831,184.83743],[[336.79831,184.83743],[0,0],[-0.25369,0.25369]],[[335.89333,185.41679],[0.34333,-0.12625],[-0.53625,0.82249]],[[334.05392,187.57499],[0.69608,-0.59713],[-0.12899,0.11065]],[[333.64937,187.90551],[0.14052,-0.10966],[1.80389,0.92466]],[334.77113,190.87658]],&quot;closed&quot;:true,&quot;fillColor&quot;:[0,0,0,1]}]}" fill="#ffde00" stroke-width="0.5"></path><path d="M322.36525,282.23797c0,0 0.1502,-0.59865 0.03859,-1.27486c1.50957,-0.54813 3.33354,-1.27596 4.99469,-2.09302c-0.59012,1.87711 -1.10901,3.85546 -1.59383,5.75617c-1.22732,0.33727 -2.52225,0.68212 -3.88554,0.89644l-0.45376,-0.5509c0.30484,-0.89924 0.595,-1.83458 0.89984,-2.73382z" data-paper-data="{&quot;noHover&quot;:false,&quot;origItem&quot;:[&quot;Path&quot;,{&quot;applyMatrix&quot;:true,&quot;segments&quot;:[[[325.17731,193.32347],[0,0],[-0.27969,0.82505]],[[324.33823,195.79862],[0.27969,-0.82505],[0,0]],[[324.74818,196.29834],[0,0],[1.25081,-0.19664]],[[328.25844,195.4722],[-1.12606,0.30944],[0.44482,-1.74389]],[[329.71205,190.27181],[-0.54143,1.72224],[-1.52409,0.74965]],[[325.20547,192.18077],[1.38502,-0.50291],[0.1024,0.62042]],[325.1773,193.32347]],&quot;closed&quot;:true,&quot;fillColor&quot;:[0,0,0,1]}]}" fill="#ffde00" stroke-width="0.5"></path><path d="M317.1856,280.9016c-0.32251,1.6006 -0.64454,3.22626 -0.96705,4.82686c-4.0172,-0.15239 -8.18483,-0.68527 -12.11212,-0.13119c-2.98393,0.42097 -5.87241,1.54029 -8.80434,2.29858c-0.24975,-1.48707 -0.42347,-2.87457 0.23918,-4.50347c0,0 0.14497,-0.43889 0.13797,-1.01036c1.76415,0.10064 3.52921,0.18887 5.25861,-0.02555c2.89405,-0.35882 5.73049,-1.61464 8.62936,-1.93217c2.44025,-0.2673 4.96081,-0.31114 7.29746,-1.0637l1.05104,0.14206c0,0 0.02681,0.0001 0.07507,-0.00256c-0.60955,0.60805 -0.80515,1.40149 -0.80515,1.40149z" data-paper-data="{&quot;noHover&quot;:false,&quot;origItem&quot;:[&quot;Path&quot;,{&quot;applyMatrix&quot;:true,&quot;segments&quot;:[[320.32659,192.11079],[[321.06671,190.82948],[-0.55926,0.55788],[-0.04428,0.00244]],[320.99786,190.83192],[[320.03434,190.70363],[0,0],[-2.14386,0.69047]],[[313.35081,191.6968],[2.23892,-0.24525],[-2.6597,0.29134]],[[305.51653,193.44432],[2.65528,-0.32922],[-1.58672,0.19673]],[[300.6927,193.46238],[1.6186,0.09234],[0.00642,0.52432]],[[300.56643,194.38475],[0,0],[-0.60798,1.49451]],[[300.34373,198.49783],[-0.22914,-1.36438],[2.69003,-0.69573]],[[308.41378,196.37517],[-2.73774,0.38624],[3.60327,-0.50836]],[[319.43888,196.51642],[-3.68576,-0.13982],[0.2959,-1.46854]],[[320.32657,192.1108],[-0.2959,1.46854],[0,0]]],&quot;closed&quot;:true,&quot;fillColor&quot;:[0,0,0,1]}]}" fill="#ffde00" stroke-width="0.5"></path><path d="M271.88305,283.33027c6.21696,-0.02029 12.18038,-0.25967 18.3452,-0.94629c-0.37028,0.98586 -0.82824,1.97468 -0.84371,3.01428c-0.01666,1.12029 0.31169,2.23372 0.5889,3.33188c-5.24147,0.3361 -11.00193,-0.3 -16.13162,-0.3c0,0 -0.52607,-0.00111 -1.11562,0.22977l-0.02152,-1.7767c-0.38061,-1.14184 -0.67587,-2.35227 -0.82163,-3.55293z" data-paper-data="{&quot;noHover&quot;:false,&quot;origItem&quot;:[&quot;Path&quot;,{&quot;applyMatrix&quot;:true,&quot;segments&quot;:[[[279.61341,197.57893],[-0.34921,-1.04763],[0,0]],[[279.63067,199.19939],[0,0],[0.54091,-0.21183]],[[280.65387,198.98756],[0,0],[4.70646,0]],[[295.3608,199.2645],[-4.80902,0.30837],[-0.25434,-1.00755]],[[294.81769,196.2253],[-0.01529,1.02786],[0.01419,-0.95383]],[[295.5946,193.47504],[-0.33973,0.90452],[-5.65619,0.62997]],[[278.85867,194.33873],[5.70403,-0.01862],[0.13373,1.1016]]],&quot;closed&quot;:true,&quot;fillColor&quot;:[0,0,0,1]}]}" fill="#ffde00" stroke-width="0.5"></path><path d="M270.94534,299.21694c0.19117,-1.60208 0.66219,-2.97396 1.55731,-4.48202c0.24103,0.03837 0.40391,0.03543 0.40391,0.03543c1.82643,0 3.71226,0.06991 5.51247,0.16779c-0.49468,1.62662 -0.94521,3.33924 -1.35805,4.98822c-1.48824,0.12835 -3.06345,0.44029 -4.48903,0.06962c-0.57794,-0.15028 -1.11408,-0.46123 -1.62661,-0.77906z" data-paper-data="{&quot;noHover&quot;:false,&quot;origItem&quot;:[&quot;Path&quot;,{&quot;applyMatrix&quot;:true,&quot;segments&quot;:[[[279.47416,209.57896],[-0.53026,-0.13788],[1.30796,0.34008]],[[283.52622,209.51749],[-1.36545,0.11776],[0.37877,-1.51293]],[[284.7654,205.0048],[-0.45387,1.49242],[-1.65168,-0.08981]],[[279.77682,204.8646],[1.67574,0],[0,0]],[[279.40991,204.8294],[0.22114,0.0352],[-0.82126,1.38364]],[[277.99502,208.88131],[0.1754,-1.4699],[0.47025,0.2916]]],&quot;closed&quot;:true,&quot;fillColor&quot;:[0,0,0,1]}]}" fill="#ffde00" stroke-width="0.5"></path><path d="M310.4137,301.65991c0,0 -0.00105,0.64927 0.31255,1.31147c-2.6164,-0.09154 -5.23256,-0.19467 -7.77661,-0.17418c-3.41067,-0.85267 -7.09027,-1.42986 -10.50912,-1.90524c-3.28077,-0.45618 -6.84659,0.49327 -10.11896,0.04858c0.47194,-1.85939 0.98375,-3.73265 1.5752,-5.55722c3.55031,0.34651 7.09796,0.78926 10.656,1.2838c5.43536,0.75547 11.2758,-0.25669 16.85739,-0.37136c-0.28558,0.85676 -0.57014,1.72289 -0.85572,2.57963l-0.14071,2.78452z" data-paper-data="{&quot;noHover&quot;:false,&quot;origItem&quot;:[&quot;Path&quot;,{&quot;applyMatrix&quot;:true,&quot;segments&quot;:[[314.11265,211.13504],[[314.24094,208.59038],[0,0],[0.26202,-0.78606]],[[315.027,206.23219],[-0.26202,0.78607],[-5.12108,0.10521]],[[299.64336,206.59996],[4.98692,0.69314],[-3.26449,-0.45374]],[[289.88064,205.39935],[3.25739,0.31792],[-0.54265,1.67403]],[[288.43705,210.47801],[0.433,-1.70598],[3.00239,0.408]],[[297.71814,210.4214],[-3.01009,-0.41854],[3.13678,0.43616]],[[307.27062,212.16194],[-3.12927,-0.78232],[2.33415,-0.0188]],[[314.40036,212.33412],[-2.40053,-0.08399],[-0.28772,-0.60757]],[314.11264,211.13504]],&quot;closed&quot;:true,&quot;fillColor&quot;:[0,0,0,1]}]}" fill="#ffde00" stroke-width="0.5"></path><path d="M327.91289,257.07999c-2.1554,2.02029 -4.41202,4.25147 -6.71458,6.23978c0.35655,-0.5377 0.64229,-0.97718 0.80653,-1.22394c1.79936,-2.7034 4.23486,-6.03959 5.96893,-9.45234c1.03392,0.06413 2.16691,-0.37476 3.1152,0.03098c0.39262,0.16799 -0.20997,0.85176 -0.46093,1.19731c-0.82246,1.13246 -1.69401,2.25109 -2.71518,3.20824z" data-paper-data="{&quot;noHover&quot;:false,&quot;origItem&quot;:[&quot;Path&quot;,{&quot;applyMatrix&quot;:true,&quot;segments&quot;:[[[330.1723,170.26411],[0,0],[0.93691,-0.87818]],[[332.67149,167.33239],[-0.7546,1.03903],[0.23025,-0.31704]],[[333.09721,166.23671],[0.36023,0.15413],[-0.87005,-0.37226]],[[330.25723,166.21912],[0.94862,0.05884],[-1.591,3.13119]],[[324.83209,174.80892],[1.6509,-2.48036],[-0.15069,0.2264]],[[324.09064,175.93047],[0.32713,-0.49334],[2.11258,-1.82427]],[[330.17231,170.2641],[-1.97757,1.85361],[0,0]]],&quot;closed&quot;:true,&quot;fillColor&quot;:[0,0,0,1]}]}" fill="#864100" stroke-width="0.5"></path><path d="M307.76898,274.13793c0.1981,0.3962 0.45181,0.80222 0.69861,1.02613c-2.74474,0.40656 -5.39676,1.50126 -8.15322,1.84908c-3.42091,0.43166 -7.0387,-0.39166 -10.47202,-0.0166c-2.08984,0.22831 -4.14642,0.40243 -6.18572,0.54114c0.07333,-0.09028 0.11148,-0.14759 0.11148,-0.14759c1.42845,-2.14372 4.05208,-5.98219 4.95708,-8.00293c0.53437,-1.19314 0.37733,-2.63728 0.95784,-3.80866c1.33681,-2.69752 3.64801,-4.8057 5.45347,-7.21486c2.08573,-2.78314 3.99135,-5.7792 5.82775,-8.73281c1.30647,-2.10129 3.33979,-3.6947 4.77791,-5.70817c0.8654,-1.21161 1.23469,-2.72113 2.02402,-3.98361c0.66753,-1.06765 1.67993,-1.91799 2.37306,-2.9599c0.64056,1.35074 1.73557,3.35644 1.27233,4.72888c-0.97478,2.88799 -2.88073,5.95237 -4.62519,8.58154c-0.79514,0.16008 -2.15756,0.61208 -2.15756,2.55473c0,2.72481 2.76864,2.75339 2.76864,2.75339l3.12544,-1.16506c1.30197,-1.95912 2.64905,-3.95608 3.73992,-6.01799c0.04423,0.03231 0.17204,-0.00753 0.21954,0.02414c2.26718,1.51145 3.69248,-0.68926 3.69248,-0.68926c0.58396,-0.8839 1.07967,-1.83184 1.7538,-2.64904c1.77527,-2.15202 4.55771,-6.20082 4.8359,-1.45821c0.05342,0.9106 0.27708,1.8571 0.08516,2.74456c-0.70942,0.14737 -1.47547,0.6074 -1.87391,1.8027c-0.24418,0.73254 -0.20982,1.3307 -0.03769,1.80606c-0.62433,0.91537 -1.25098,1.79149 -1.64243,2.47653c-1.24655,2.18147 -2.33722,4.48014 -3.73254,6.56958c-1.41653,2.12119 -1.86607,5.0699 -4.43389,4.54657l-0.95773,0.0024c0,0 -2.74042,0.0133 -2.74042,2.73811c0,2.72481 2.66764,2.6321 2.66764,2.6321l0.34561,0.09013c-0.38411,0.15544 -0.77734,0.30263 -1.17208,0.43566l-2.25541,1.10031c0,0 -2.44435,1.22058 -1.22578,3.65773z" data-paper-data="{&quot;noHover&quot;:false,&quot;origItem&quot;:[&quot;Path&quot;,{&quot;applyMatrix&quot;:true,&quot;segments&quot;:[[[311.74545,185.94177],[0,0],[-1.11803,-2.23607]],[312.86348,182.58767],[[314.92473,181.58185],[0,0],[0.36217,-0.12206]],[[315.99647,181.18443],[-0.35242,0.14262],[0,0]],[315.7356,181.18443],[[313.2356,178.68443],[0,2.5],[0,-2.5]],[315.7356,176.18443],[[316.61264,176.18443],[0,0],[2.35596,0.48015]],[[320.67182,172.03542],[-1.29966,1.94618],[1.2802,-1.91705]],[[324.09784,166.02805],[-1.1437,2.00149],[0.35915,-0.62852]],[[325.6063,163.76045],[-0.57282,0.83985],[-0.15793,-0.43614]],[[325.64249,162.10708],[-0.22403,0.6721],[0.36556,-1.09668]],[[327.36257,160.45465],[-0.65089,0.13521],[0.17609,-0.81424]],[[327.28701,157.94084],[0.04901,0.83547],[-0.25523,-4.35132]],[[322.9312,159.22035],[1.6288,-1.97447],[-0.61851,0.74978]],[[321.32388,161.65326],[0.53578,-0.81097],[0,0]],[[317.857,162.34664],[2.08013,1.38675],[-0.04358,-0.02906]],[[317.73077,162.25858],[0.04058,0.02964],[-1.00087,1.8918]],[[314.30753,167.79256],[1.19455,-1.79748],[0,0]],[311.35036,168.90581],[[308.85036,166.40581],[0,2.5],[0,-1.78237]],[[310.85063,163.96494],[-0.72954,0.14687],[1.60053,-2.41225]],[[315.05654,156.18395],[-0.89436,2.64972],[0.42502,-1.2592]],[[313.89614,151.84781],[0.58771,1.2393],[-0.63594,0.95594]],[[311.72289,154.56448],[0.61246,-0.97956],[-0.72421,1.15832]],[[309.87028,158.2201],[0.794,-1.11165],[-1.31947,1.84735]],[[305.51194,163.45346],[1.19868,-1.92792],[-1.68489,2.70992]],[[300.1947,171.41397],[1.91365,-2.55352],[-1.6565,2.21039]],[[295.18498,178.01479],[1.22652,-2.47496],[-0.53261,1.07474]],[[294.30216,181.50323],[0.49028,-1.0947],[-0.83034,1.85402]],[[289.75031,188.84159],[1.3106,-1.96685],[0,0]],[[289.648,188.97697],[0.06728,-0.08283],[1.87105,-0.12726]],[[295.31724,188.47518],[-1.91742,0.20947],[3.15006,-0.34412]],[[304.9056,188.48174],[-3.13867,0.39605],[2.52904,-0.31912]],[[312.36491,186.78555],[-2.51829,0.37302],[-0.22644,-0.20544]],[[311.74542,185.94174],[0.18176,0.36351],[0,0]]],&quot;closed&quot;:true,&quot;fillColor&quot;:[0,0,0,1]}]}" fill="#864100" stroke-width="0.5"></path><path d="M204.20324,138.31539c-2.34807,-2.6938 -2.86914,-5.88756 -4.85794,-8.58426c1.22805,0.50489 1.70926,1.3344 3.55106,2.25122c3.11332,1.54975 4.28722,1.51983 5.37216,5.13774l1.6168,2.04953c0,0 0.02121,0.0218 0.06157,0.05768c-0.08186,0.90358 0.10799,1.90672 0.08622,2.81839c-0.03913,1.6392 0.40111,3.25589 0.73984,4.87015c-1.80374,-3.01034 -4.17761,-5.85614 -6.5697,-8.60044z" data-paper-data="{&quot;noHover&quot;:false,&quot;origItem&quot;:[&quot;Path&quot;,{&quot;applyMatrix&quot;:true,&quot;segments&quot;:[[[216.76425,61.27671],[0,0],[2.19473,2.51788]],[[222.71424,69.12546],[-1.65492,-2.76197],[-0.31078,-1.48108]],[[222.02309,64.6688],[-0.0359,1.50396],[0.01997,-0.83645]],[[221.93485,62.10381],[-0.07511,0.82903],[-0.03703,-0.03292]],[221.87828,62.05135],[[220.3973,60.19711],[0,0],[-0.99543,-3.31941]],[[215.53133,55.51303],[2.85646,1.42189],[-1.68984,-0.84117]],[[212.2848,53.44186],[1.12673,0.46323],[1.82472,2.47421]],[[216.76425,61.27672],[-2.15434,-2.47155],[0,0]]],&quot;closed&quot;:true,&quot;fillColor&quot;:[0,0,0,1]}]}" fill="#864100" stroke-width="0.5"></path><path d="M179.06699,132.63545c-1.20601,0.99375 -2.38063,2.29258 -3.24712,3.62576c-3.36553,-1.76609 -7.46409,-0.94286 -10.17349,2.23429c-1.4917,1.74923 -1.39097,5.15388 -2.23614,7.14765c-1.71686,4.05006 -5.60781,7.16772 -8.13451,10.71623c-0.188,-0.07862 -0.37778,-0.15638 -0.56713,-0.2294c0.8097,-1.08619 0.33275,-2.5105 0.33275,-2.5105c-1.79573,-5.15249 -0.74121,-10.80372 0.08704,-15.96157c0.36255,-2.25779 -0.79024,-5.54839 0.59765,-7.63253c1.91462,-2.87512 4.69553,-2.36645 7.50954,-3.77998c0.89958,-0.45187 1.52271,-1.41189 2.46983,-1.75306c4.42043,-1.59229 8.72499,2.11262 11.48288,4.87051c0.52376,0.77913 1.05411,1.56601 1.57787,2.34515z" data-paper-data="{&quot;noHover&quot;:false,&quot;origItem&quot;:[&quot;Path&quot;,{&quot;applyMatrix&quot;:true,&quot;segments&quot;:[[[193.33488,55.24266],[0,0],[-0.48055,-0.71485]],[[191.89323,53.09812],[0.48055,0.71485],[-2.53035,-2.53035]],[[181.3954,48.64362],[4.05572,-1.46092],[-0.86898,0.31302]],[[179.13819,50.25076],[0.82536,-0.41459],[-2.58184,1.2969]],[[172.27305,53.70452],[1.75665,-2.63791],[-1.27338,1.91219]],[[171.7371,60.68404],[0.33264,-2.07151],[-0.75992,4.7323]],[[171.64109,75.2798],[-1.64757,-4.72738],[0,0]],[[171.33306,77.58098],[0.7429,-0.99657],[0.17373,0.06699]],[[171.85218,77.79057],[-0.17249,-0.07213],[2.31823,-3.25574]],[[179.2617,68.04264],[-1.57521,3.71591],[0.77544,-1.82927]],[[181.31531,61.39723],[-1.36863,1.60491],[2.48586,-2.91502]],[[190.71859,59.37183],[-3.08786,-1.62038],[0.795,-1.22319]],[[193.60914,56.09091],[-1.10651,0.91176],[0,0]]],&quot;closed&quot;:true,&quot;fillColor&quot;:[0,0,0,1]}]}" fill="#864100" stroke-width="0.5"></path><path d="M211.77684,163.80477c0.41581,0 0.76934,-0.063 1.06793,-0.17054c0.88819,5.01066 2.23319,10.02246 2.93378,14.9931c0.48792,3.46174 0.41195,7.1843 0.98298,10.63176c1.91446,11.55812 3.78112,23.12866 3.78112,35.00118c0,3.84015 -0.41611,8.0141 0.01183,11.81072c0.13117,1.1638 0.93349,2.21565 0.93641,3.38683c0.00225,0.8995 -0.7793,1.64946 -0.92489,2.53709c-0.65843,4.01421 -0.04049,8.80373 -0.04049,12.86587c0,2.86773 -0.05144,5.73687 -0.00256,8.60419c0.00182,0.10664 0.50475,3.07133 -0.47391,3.33347c-1.0219,0.27371 -2.13765,-0.49638 -3.1662,-0.24883c-1.49207,0.35912 -2.70977,1.46953 -4.14647,2.00907c-3.98671,1.49715 -8.25825,1.7561 -12.44728,1.74378c0,0 -2.23274,0.00002 -2.65751,2.01829c-0.07572,0.0192 -0.11818,0.03333 -0.11818,0.03333c-3.31458,1.15518 -5.52826,0.40672 -9.03716,0.836c-1.30405,0.15954 -2.52653,0.76427 -3.82632,0.95549c-3.07392,0.45226 -6.36837,0.45365 -9.66954,0.33966c0.67779,-1.34231 1.28888,-2.84604 1.96135,-4.191c1.07362,-2.14724 2.65787,-4.02817 3.07824,-6.39177c0.33477,-1.88229 -0.32869,-3.8523 -0.00141,-5.7359c0.83098,-4.78253 1.77829,-10.23611 0.95163,-15.21316c-0.49007,-2.95056 -2.39178,-5.67225 -2.87526,-8.60704c-0.17457,-1.05968 0.26424,-2.20637 -0.08398,-3.22232c-0.2954,-0.86186 -0.83755,-1.60973 -1.38451,-2.35153c0.24135,-0.22124 0.47513,-0.44449 0.70039,-0.66975c0.36006,-0.36007 4.0191,-5.97218 4.3437,-6.46581c2.05319,-6.01638 4.01173,-11.81891 5.00247,-17.99924c0.31899,-1.98983 1.5842,-3.77657 1.9144,-5.76456c0.31326,-1.88598 -0.30233,-3.86851 0.01197,-5.75432c0.18904,-1.13424 0.99948,-2.16136 0.99948,-3.31124c0,-0.19398 -0.02225,-0.38474 -0.06138,-0.57246c1.36067,-0.47014 2.61796,-0.93093 2.82418,-1.09113c2.30042,-1.78727 3.35485,-4.91533 5.69492,-6.65037c1.25884,-0.93337 3.10076,-1.0462 4.16686,-2.19479c1.30686,-1.40799 2.0391,-3.18502 2.61533,-5.01757c0.38867,-1.23608 -0.12431,-7.73707 -0.72144,-8.28749c-0.60034,-0.55338 -2.37569,-0.84727 -4.22654,-0.813c2.1228,-6.86416 2.09658,-14.47366 -0.54537,-21.17225c-2.21316,-0.80965 -4.2791,-1.3798 -6.24259,-1.30541c-0.41435,-2.89611 -1.28988,-5.70759 -3.11972,-8.04418c-1.87059,-2.38864 -3.94408,-3.26022 -5.97253,-3.1386l-0.38277,-1.12196c-0.18764,-0.28308 -0.39718,-0.67293 -0.58481,-0.95601c0.13808,0.00095 0.27635,0.00194 0.41421,0.0031c4.23991,0.08202 7.66223,0.67305 11.07697,3.96896c1.34411,1.29734 1.44697,3.45644 2.38268,5.07327c0.90315,1.56058 2.06234,2.9668 3.22571,4.34436c4.30506,5.09772 8.97695,10.36092 8.90452,17.33458l0.0006,1.91198c0,0 0.00434,2.72617 2.72915,2.72617z" data-paper-data="{&quot;noHover&quot;:false,&quot;origItem&quot;:[&quot;Path&quot;,{&quot;applyMatrix&quot;:true,&quot;segments&quot;:[[[223.64605,84.70967],[0,0],[-2.5,0]],[221.14605,82.20967],[[221.14605,80.45558],[0,0],[0.06646,-6.3983]],[[212.98698,64.55272],[3.94987,4.67713],[-1.06738,-1.26391]],[[210.03004,60.56681],[0.82864,1.43182],[-0.85851,-1.48343]],[[207.84559,55.91205],[1.23321,1.1903],[-3.13301,-3.02398]],[[197.68976,52.26963],[3.8901,0.07525],[-0.12649,-0.00106]],[[197.30999,52.26674],[0.12669,0.00087],[0.17215,0.25972]],[[197.82645,53.04591],[-0.17216,-0.25972],[0,0]],[[198.17774,54.07528],[0,0],[1.8611,-0.11159]],[[203.6613,56.95432],[-1.71626,-2.19157],[1.67887,2.14381]],[[206.52539,64.33464],[-0.38016,-2.65717],[1.8015,-0.06825]],[[212.25817,65.53218],[-2.03056,-0.74285],[2.42397,6.14593]],[[212.75981,84.95766],[1.94766,-6.29783],[1.69815,-0.03145]],[[216.64338,85.70417],[-0.55081,-0.50772],[0.54787,0.50501]],[[217.30874,93.30858],[0.3566,-1.1341],[-0.52869,1.68136]],[[214.8893,98.01014],[1.19904,-1.29182],[-0.97814,1.05383]],[[211.07513,100.02457],[1.15498,-0.85636],[-2.147,1.59189]],[[205.86858,106.12253],[2.11062,-1.63981],[-0.1892,0.14699]],[[203.2859,107.11918],[1.24841,-0.43135],[0.03591,0.17223]],[[203.34293,107.64394],[0,-0.17798],[0,1.05501]],[[202.43361,110.67553],[0.17344,-1.04066],[-0.28837,1.73022]],[[202.43361,115.93779],[0.28741,-1.73038],[-0.30295,1.82398]],[[200.67952,121.20005],[0.29267,-1.82566],[-0.909,5.67042]],[[196.07237,137.68475],[1.88379,-5.52],[-0.29782,0.4529]],[[192.08618,143.6164],[0.33035,-0.33036],[-0.20667,0.20667]],[[191.44373,144.23101],[0.22144,-0.20299],[0.50183,0.6806]],[[192.71115,146.38643],[-0.27103,-0.79075],[0.31949,0.93213]],[[192.78614,149.34156],[-0.16017,-0.97225],[0.44359,2.69266]],[[195.41727,157.23495],[-0.44964,-2.70712],[0.75845,4.56642]],[[194.54023,171.19151],[0.76242,-4.38795],[-0.30028,1.72819]],[[194.54023,176.45377],[0.30715,-1.72699],[-0.38569,2.16859]],[[191.68717,182.41395],[0.98504,-1.97008],[-0.61699,1.23399]],[[189.9176,186.16376],[0.62187,-1.23156],[3.02881,0.10458]],[[198.78337,185.85061],[-2.82031,0.41495],[1.19255,-0.17545]],[[202.29155,184.97356],[-1.19646,0.14638],[3.2194,-0.39387]],[[210.57687,184.20608],[-3.04111,1.05987],[0,0]],[[210.68522,184.1755],[-0.06947,0.01762],[0.38972,-1.85175]],[[213.12155,182.32375],[0,0],[3.84342,0.0113]],[[224.53279,180.72495],[-3.65779,1.37363],[1.31817,-0.49502]],[[228.33395,178.88245],[-1.36897,0.32949],[0.94369,-0.22713]],[[231.23686,179.11139],[-0.93759,0.25113],[0.89792,-0.24051]],[[231.67059,176.05332],[0.00167,0.09784],[-0.04485,-2.63075]],[[231.67059,168.15993],[0,2.63113],[0,-3.72699]],[[231.70287,156.35791],[-0.60411,3.68302],[0.13358,-0.8144]],[[232.54947,154.03129],[0.00206,0.82529],[-0.00268,-1.07455]],[[231.68932,150.92452],[0.12035,1.06778],[-0.39263,-3.48338]],[[231.67059,140.09454],[0,3.52332],[0,-10.89298]],[[228.1947,108.04439],[1.75651,10.60452],[-0.52392,-3.16303]],[[227.30411,98.30192],[0.44766,3.17613],[-0.64279,-4.56054]],[[224.62481,84.5528],[0.81491,4.59726],[-0.27395,0.09867]],[[223.64608,84.70968],[0.3815,0],[0,0]]],&quot;closed&quot;:true,&quot;fillColor&quot;:[0,0,0,1]}]}" fill="#864100" stroke-width="0.5"></path><path d="M267.38163,290.21868c0,0 -0.00031,0.97127 0.57933,1.75398c-0.99551,1.7237 -1.64626,3.32087 -2.0316,5.06311c-4.36059,-1.47522 -8.84786,-2.69668 -13.3045,-3.96874c0.08037,-0.26843 0.06255,-0.66524 0.06255,-1.02004c0,-2.72481 -2.66078,-2.63661 -2.66078,-2.63661l-1.05063,0.14016c-1.24313,-0.36526 -2.43512,-1.0756 -3.73066,-1.09487c-1.93798,-0.02884 -3.80026,0.96863 -5.73842,0.95773c-4.36948,-0.02458 -9.50169,-0.67956 -13.82685,0.03882c-1.988,0.33019 -3.75192,1.58039 -5.73949,1.9132c-4.91422,0.82285 -10.75858,0.43833 -15.88285,-0.73048l0.86091,-2.42185c0,0 0.00883,-2.61619 -2.71598,-2.61619c-1.90648,0 -2.48119,1.33401 -2.65315,2.13524c-5.43751,2.95639 -12.93037,0.71191 -18.8292,2.67818c-4.08662,-0.05914 -7.53649,0.26883 -11.47811,0.95371c-2.50172,0.43468 -5.62847,-0.03721 -8.17132,-0.03721c-3.72713,0 -8.31846,0.67092 -11.9961,0.03191c-3.55093,-0.61698 -6.27445,-0.99413 -9.99976,-0.99413c-3.97561,0 -7.22391,-0.31151 -11.0382,-0.92402c-3.53775,-0.56809 -4.39585,0.8024 -7.3144,-1.3317c-4.89637,-4.89636 -5.60291,-9.97173 -6.69075,-16.49875c-0.48402,-2.90417 -1.40997,-5.70531 -1.91418,-8.60718c-0.59284,-3.41196 0.03275,-7.56592 0.03275,-11.03966c0,-3.49273 -0.40475,-7.19492 0.12812,-10.66365c0.00428,0.00001 0.00856,0.00002 0.01284,0.00002c2.72481,0 2.72449,-2.72597 2.72449,-2.72597c-0.00294,-0.20358 0.11274,-0.43608 0.12607,-0.642c0.79187,1.27727 1.54512,2.64746 2.80941,2.41139c3.47786,-0.64939 4.77883,-3.1953 5.5509,-5.86761c0.00195,0.00514 0.11002,-0.0146 0.11195,-0.00946l3.5211,2.52272l-0.00002,-0.00004c0,0 0.11752,0.07819 0.31695,0.17248c0.1979,0.10021 0.33275,0.14501 0.33275,0.14501c0.02258,0.00727 0.04516,0.01449 0.06772,0.02171c-0.01907,0.16127 -0.01913,0.26079 -0.01913,0.26079l-0.0002,0.95525c0.04433,5.50409 -1.85917,11.05173 -0.92483,16.67711c0.59851,3.60352 2.50131,6.23683 4.06196,9.35814c2.22625,4.45247 4.16025,9.67898 8.656,12.58406c1.14382,0.73912 2.57407,0.88345 3.86199,1.32601c3.33619,0.03552 5.4217,0.44252 8.59932,0.95278c4.02531,0.64639 8.78518,0.03092 12.85648,0.03092c8.19956,0 16.15271,0.0488 24.21292,-0.98209c3.73536,-0.47775 6.38568,0.11365 10.07895,-1.07584c0,0 1.42262,-0.47472 1.80431,-1.7767c4.59414,-0.04739 9.19384,-0.43918 13.55975,-2.07408c1.23201,-0.46135 2.22721,-1.48504 3.50088,-1.81432c1.44912,-0.37463 3.20359,0.53412 4.47972,-0.24804c4.60879,-2.82478 3.34293,-8.59287 3.34293,-12.91294c0,-4.97157 -0.8769,-10.8939 -0.04481,-15.80572c0.18645,-1.10065 0.98397,-2.07987 0.98619,-3.1962c0.00289,-1.45703 -0.81827,-2.8091 -0.97693,-4.25747c-0.39279,-3.58559 0.01326,-7.49907 0.01326,-11.12171c0,-12.15612 -1.85666,-23.92008 -3.84123,-35.75009c-0.56505,-3.36827 -0.44373,-7.01572 -0.93386,-10.40628c-0.37593,-2.60052 -1.58768,-5.03642 -1.90659,-7.64454c-0.42844,-3.5039 -0.38737,-7.13446 -0.96627,-10.61677c-0.31784,-1.91196 -0.95369,-3.79653 -0.95369,-5.73472c-0.71249,-2.13748 -0.63518,-4.46032 -0.95381,-6.69077c-0.23674,-1.6572 -1.93659,-5.41966 -1.10214,-7.22983c0.77454,-1.68023 2.63114,-1.80939 4.08197,-2.28084c3.38146,-1.09879 6.10348,-1.53046 8.40418,1.87774c2.26401,3.35385 3.06341,7.1571 4.43983,10.82547c0.82993,2.21191 2.15626,4.23994 2.81083,6.50993c1.45583,5.04872 1.81036,10.2498 1.81036,15.49399c0.04231,2.92338 -0.84527,4.97266 -1.76912,7.74423l-0.29787,-0.10937c0,0 -1.92466,1.9289 0.00207,3.85564c1.92672,1.92674 3.85519,0.00204 3.85519,0.00204l1.52982,-1.95193c1.11353,-3.34058 2.01737,-5.91356 2.05515,-9.46101c0,-5.76878 -0.43671,-11.44779 -2.0129,-17.00601c-0.60097,-2.11923 -1.68698,-4.13459 -2.54826,-6.16434c2.06843,-0.00223 5.86657,-0.74143 7.80794,-0.11454c2.87416,0.9281 5.61769,5.38857 7.17379,7.57337c1.22846,1.72478 2.7283,3.31922 3.55914,5.26697c1.65725,3.88514 1.68364,8.16653 1.68364,12.28622c0,7.71386 -0.30746,13.88597 -2.75244,21.23663c-0.55415,2.21663 -1.15503,4.42944 -1.87905,6.59655l-0.13942,1.81917c0,0 0.00061,2.72779 2.72542,2.72779c2.72481,0 2.61783,-2.70401 2.61783,-2.70401l-0.1398,-0.09414c0.74314,-2.23421 1.37325,-4.50192 1.94432,-6.78618c2.60848,-7.80756 2.98266,-14.56566 2.98266,-22.73453c0,-1.23361 0.07927,-2.5368 0.03116,-3.77822c4.98555,2.84166 8.05064,7.78034 8.98866,13.72222c0.15316,0.97017 -0.22286,1.99522 0.01469,2.94824c0.41501,1.66497 1.52792,3.11071 1.91301,4.78285c1.0042,4.36039 -0.36767,9.19452 -0.96783,13.3956c-0.7642,5.3494 -1.46426,10.73817 -2.82105,16.03771l-0.74968,1.35517c0,0 -1.21886,2.43976 1.21828,3.65833c2.43715,1.21858 3.54752,-1.23163 3.54752,-1.23163l1.16206,-2.46773c0.55415,-2.26246 0.63245,-4.61111 1.00193,-6.91095c0.31966,-1.98972 1.61496,-3.7384 1.91201,-5.73162c0.18787,-1.26062 -0.17998,-2.55936 0.00027,-3.8211c0.42619,-2.98335 1.20318,-6.22964 1.39888,-9.4396c4.44474,2.68237 3.81008,8.71792 3.81008,13.77168c0,5.41684 -0.00023,10.84394 -0.00023,16.26076c0,2.40363 0.44596,4.84707 0.03449,7.21522c-1.23945,7.13331 -2.89785,14.75089 -2.8867,22.1021c-1.77105,7.27637 -6.89923,13.6503 -11.04089,19.86279l-0.86343,0.03049c0,0 -2.06742,1.03453 -1.44371,3.10069c-1.0197,0.79063 -1.0206,2.20664 -1.0206,2.20664c0.02218,2.08355 0.3307,4.1967 0.98962,6.17344l-0.03586,2.43191z" data-paper-data="{&quot;noHover&quot;:false,&quot;origItem&quot;:[&quot;Path&quot;,{&quot;applyMatrix&quot;:true,&quot;segments&quot;:[[274.6457,200.61052],[[274.67798,198.37985],[0,0],[-0.60455,-1.81365]],[[273.76866,192.71713],[0.02035,1.91165],[0,0]],[[274.70423,190.69346],[-0.93557,0.7254],[-0.57225,-1.89569]],[276.02767,187.84993],[[276.81966,187.8222],[0,0],[3.79995,-5.69993]],[[286.94304,169.60854],[-1.62493,6.67603],[-0.01023,-6.7447]],[[289.58772,149.34155],[-1.13719,6.54478],[0.37753,-2.17277]],[[289.55544,142.72566],[0,2.20532],[0,-4.96991]],[[289.55544,127.81592],[0,4.96992],[0,-4.6368]],[[286.061,115.1887],[4.07803,2.46106],[-0.17956,2.94513]],[[284.87568,123.83116],[0.39103,-2.73721],[-0.16538,1.15764]],[[284.87568,127.33933],[0.17237,-1.15661],[-0.27254,1.82877]],[[283.12159,132.60159],[0.29329,-1.82556],[-0.339,2.11009]],[[282.20218,138.94678],[0.50843,-2.0758],[0,0]],[281.13585,141.21256],[[277.78175,142.33059],[2.23607,1.11804],[-2.23607,-1.11803]],[276.66372,138.97649],[[277.35148,137.7341],[0,0],[1.24485,-4.8623]],[[279.94025,123.03025],[-0.70115,4.90805],[0.55064,-3.85447]],[[280.83012,110.74782],[0.92135,4.00064],[-0.35332,-1.53418]],[[279.07603,106.3626],[0.38077,1.5276],[-0.21795,-0.8744]],[[279.0632,103.65916],[0.14052,0.89013],[-0.86063,-5.45165]],[[270.82115,91.07793],[4.57422,2.60721],[0.04414,1.139]],[[270.87527,94.48827],[0,-1.13183],[0,7.4949]],[[268.14444,115.35924],[2.39327,-7.1634],[-0.52395,2.0958]],[[266.36176,121.59014],[0.68183,-2.04988],[0,0]],[266.49005,121.67661],[[263.99005,124.17661],[2.5,0],[-2.5,0]],[261.49005,121.67661],[[261.61834,120.009],[0,0],[0.66429,-1.98831]],[[263.34383,113.9613],[-0.50843,2.03375],[2.24326,-6.74419]],[[265.87526,94.48827],[0,7.07743],[0,-3.7798]],[[264.33489,83.22105],[1.52052,3.5646],[-0.76229,-1.78705]],[[261.07215,78.39134],[1.12711,1.58248],[-1.42772,-2.00454]],[[254.49515,71.44675],[2.63703,0.85153],[-1.7812,-0.57517]],[[247.33479,71.55402],[1.89777,-0.00205],[0.79022,1.86228]],[[249.72652,77.12549],[-0.55139,-1.94438],[1.44615,5.09964]],[[251.58031,92.7342],[0,-5.29283],[-0.03466,3.25477]],[[249.69793,101.41816],[1.02166,-3.06497],[0,0]],[248.21695,103.2724],[[244.68142,103.2724],[1.76776,1.76777],[-1.76777,-1.76777]],[244.68142,99.73687],[[244.95452,99.83702],[0,0],[0.84763,-2.5429]],[[246.58031,92.7342],[0.03882,2.68219],[0,-4.81152]],[[244.92592,78.52343],[1.33572,4.63218],[-0.60056,-2.08271]],[[242.35038,72.55252],[0.76146,2.02942],[-1.26286,-3.36572]],[[238.28177,62.62241],[2.07722,3.07714],[-2.11088,-3.12701]],[[230.57592,60.90121],[3.10247,-1.00813],[-1.33113,0.43255]],[[226.83279,62.99438],[0.71064,-1.5416],[-0.7656,1.66082]],[[227.86785,69.53061],[-0.21721,-1.52047],[0.29235,2.04643]],[[228.74489,75.66991],[-0.65371,-1.96113],[0,1.77828]],[[229.62193,80.93217],[-0.29162,-1.75421],[0.53114,3.195]],[[230.51252,90.67464],[-0.39309,-3.21481],[0.2926,2.39294]],[[232.26661,97.69099],[-0.34491,-2.38596],[0.44969,3.11082]],[[233.1301,107.24347],[-0.51843,-3.09037],[1.82083,10.85397]],[[236.67055,140.09453],[0,-11.15318],[0,3.32375]],[[236.65182,150.31359],[-0.36038,-3.28976],[0.14557,1.32887]],[[237.54575,154.22316],[0.00265,-1.33682],[-0.00203,1.02423]],[[236.63827,157.1588],[0.17107,-1.00984],[-0.76344,4.50657]],[[236.67055,171.66808],[0,-4.56139],[0,3.96364]],[[233.59611,183.51974],[4.22854,-2.59172],[-1.17084,0.71763]],[[229.48267,183.74868],[1.32956,-0.34372],[-1.16859,0.30211]],[[226.26748,185.41436],[1.13036,-0.42329],[-4.0057,1.50001]],[[213.81499,187.31931],[4.2151,-0.04348],[-0.3502,1.19456]],[[212.15797,188.94948],[0,0],[-3.38856,1.09135]],[[202.90243,189.93608],[3.42717,-0.43833],[-7.39521,0.94583]],[[180.67088,190.83186],[7.52306,0],[-3.7354,0]],[[168.86887,190.79958],[3.6932,0.59306],[-2.91545,-0.46816]],[[160.97548,189.92254],[3.06094,0.03259],[-1.18166,-0.40605]],[[157.43047,188.7044],[1.04945,0.67814],[-4.12483,-2.66539]],[[149.48266,177.15164],[2.04257,4.08512],[-1.43189,-2.86379]],[[145.75256,168.56032],[0.54913,3.30621],[-0.85725,-5.16126]],[[146.59732,153.25013],[0.04067,5.04998],[0,0]],[146.59732,152.37309],[[146.61482,152.13366],[-0.0175,0.14796],[-0.0207,-0.00663]],[[146.55268,152.11371],[0.02072,0.00667],[0,0]],[[146.24734,151.98051],[0.18157,0.09194],[-0.18298,-0.08651]],[145.95649,151.82209],[145.95651,151.82213],[[142.72537,149.5054],[0,0],[-0.00177,-0.00472]],[[142.72002,149.49125],[0.00179,0.00472],[-0.70837,2.45183]],[[137.62642,154.87217],[3.19092,-0.59581],[-1.15998,0.21659]],[[134.95232,152.68596],[0.72654,1.17189],[-0.01223,0.18893]],[[134.93352,153.25018],[-0.0027,-0.18678],[0,0]],[[132.43352,155.75018],[2.5,0],[-0.00393,0]],[[132.42174,155.75016],[0.00393,0.00001],[-0.48891,3.18255]],[[132.30239,165.52878],[0,-3.20456],[0,3.18714]],[[132.2701,175.65285],[-0.54393,-3.13046],[0.46261,2.66246]],[[134.02419,183.54624],[-0.44409,-2.66456],[0.99809,5.98851]],[[140.15779,198.67716],[-4.4924,-4.49239],[2.67776,1.95803]],[[146.86666,199.89688],[-3.24587,-0.52122],[3.49959,0.56197]],[[156.99072,200.74164],[-3.6476,0],[3.41795,0]],[[166.16161,201.65096],[-3.25796,-0.56608],[3.37421,0.58629]],[[177.16272,201.61867],[-3.41962,0],[2.33306,0]],[[184.65565,201.65096],[-2.29532,0.39882],[3.61642,-0.62837]],[[195.18017,200.77391],[-3.74945,-0.05426],[5.41215,-1.80405]],[[212.4433,198.31539],[-4.98889,2.71247],[0.15777,-0.73512]],[[214.87558,196.35641],[-1.74919,0],[2.5,0]],[217.37558,198.85641],[[216.57656,200.97887],[0,0],[4.7015,1.07238]],[[231.13896,201.65097],[-4.50877,0.75496],[1.82358,-0.30535]],[[236.40122,199.89688],[-1.82398,0.30295],[3.96832,-0.65911]],[[249.08028,199.8646],[-4.00898,-0.02255],[1.77825,0.01]],[[254.34254,198.98756],[-1.77809,-0.02646],[1.18865,0.01768]],[[257.76424,199.9929],[-1.14057,-0.33512],[0,0]],[258.72776,199.86461],[[261.22776,202.36461],[0,-2.5],[0,0.32553]],[[261.11163,203.21956],[0.07374,-0.24628],[4.08894,1.16711]],[[273.31526,206.86335],[-4.00082,-1.35351],[0.35354,-1.5985]],[[275.17748,202.21954],[-0.91338,1.58149],[-0.53181,-0.71813]],[274.64567,200.61053]],&quot;closed&quot;:true,&quot;fillColor&quot;:[0,0,0,1]}]}" fill="#864100" stroke-width="0.5"></path><path d="M189.09377,182.91454c-0.24267,0.20367 -0.54506,0.26195 -0.82694,0.39218c-0.7867,-4.73435 -1.79953,-9.46266 -4.97495,-13.33568c-3.50508,-4.27512 -7.89368,-7.33492 -12.45093,-10.33159c-3.33949,-1.10243 -6.57551,-1.39812 -9.91878,-1.82949c2.56793,-3.21636 5.74824,-6.11947 7.40561,-9.95336c0.83873,-1.94018 0.40744,-4.40144 1.59695,-6.14868c0.84361,-1.23917 2.71838,-1.33225 3.83522,-0.46072c-0.20521,1.24405 -0.11112,2.51015 0.10898,3.68358l-0.18191,-0.00023l0.00591,3.82057c0,1.50487 1.16875,2.62876 2.67362,2.62876c1.22573,0 2.27892,-0.81408 2.62135,-1.9275l0.94138,-2.80852l-0.18589,-0.06169l0.29099,-0.36352c0,-1.88316 0.21307,-3.86893 -0.34292,-5.68992c0.97197,-2.25729 2.90168,-5.26303 4.52084,-4.56475c2.70188,1.16519 3.50451,4.54778 3.72955,7.80082c-0.42655,0.38218 -0.89457,0.92082 -1.3128,1.42367c-0.79221,0.9525 -0.79229,2.23365 -1.26291,3.37966c-1.33149,3.24231 -5.83508,9.49583 2.37959,11.46186c2.04474,0.48937 3.20085,-2.66479 4.42276,-4.37573c1.50224,-2.10344 1.22926,-4.56065 1.24269,-6.91513c0.00337,-0.58856 0.00659,-1.18454 -0.00043,-1.79041c0.56226,-0.1892 1.31144,-0.31258 2.12397,-0.1763c0.94038,6.71102 0.6877,13.64148 -2.31636,19.67l-1.82738,2.74091c-0.3017,0.43857 -0.48192,0.97373 -0.48192,1.54629c0,1.50487 1.14421,2.64642 2.64908,2.64642c0.75244,0 1.43003,-0.30114 1.92313,-0.79423l2.53249,-2.53026c0.46757,-0.15883 1.07247,-0.15913 1.52795,-0.33969c-0.54087,1.36438 0.51022,3.35808 -1.13885,4.82176c-0.96009,0.85217 -2.47314,0.85871 -3.49611,1.63428c-1.62361,1.23095 -3.02071,2.77024 -4.34961,4.3147c-0.61612,0.71607 -0.73978,1.82459 -1.46334,2.43189z" data-paper-data="{&quot;noHover&quot;:false,&quot;origItem&quot;:[&quot;Path&quot;,{&quot;applyMatrix&quot;:true,&quot;segments&quot;:[[[202.83362,102.14899],[0,0],[0.66387,-0.5572]],[[204.17183,99.91966],[-0.56529,0.65699],[1.21926,-1.41704]],[[208.15158,95.96835],[-1.48965,1.12939],[0.93857,-0.71158]],[[211.35377,94.4746],[-0.88088,0.78186],[1.51301,-1.34292]],[[212.393,90.05923],[-0.49625,1.25181],[-0.4179,0.16566]],[[211.07858,90.4193],[0.42899,-0.14573],[0,0]],[[208.75,92.74789],[0,0],[-0.45241,0.45241]],[[206.98223,93.48012],[0.69036,0],[-1.38071,0]],[[204.48223,90.98012],[0,1.38071],[0,-0.52532]],[[204.92107,89.56493],[-0.27681,0.40239],[0,0]],[[206.59138,87.05946],[0,0],[2.75621,-5.53114]],[[208.72264,69.06772],[0.86279,6.15733],[-0.74549,-0.12504]],[[206.8482,69.16261],[0.51587,-0.17359],[0.00644,0.55588]],[[206.8511,70.80812],[0.00309,-0.54],[-0.01232,2.16023]],[[205.71984,77.16876],[1.3783,-1.9299],[-1.1211,1.56978]],[[201.56462,81.19668],[1.87604,0.44899],[-7.53692,-1.80382]],[[199.41026,70.72846],[-1.22164,2.9748],[0.43179,-1.05146]],[[200.61023,67.53655],[-0.72685,0.87391],[0.38373,-0.46136]],[[201.77265,66.32104],[-0.39136,0.35065],[-0.20647,-2.98464]],[[198.36437,59.16816],[2.47896,1.06906],[-1.48557,-0.64066]],[[194.22623,63.35697],[0.89178,-2.07105],[0.51012,1.67075]],[[194.54019,68.57745],[0,-1.72779],[0,0]],[194.27434,68.91095],[194.44418,68.96757],[[193.58537,71.54401],[0,0],[-0.31418,1.02156]],[[191.19543,73.30813],[1.1246,0],[-1.38071,0]],[[188.69543,70.80813],[0,1.38071],[0,0]],[188.69543,67.29996],[[188.8628,67.29996],[0,0],[-0.20194,-1.07662]],[[188.79928,64.01334],[-0.18828,1.14141],[-1.0247,-0.79962]],[[185.2888,64.43223],[0.77401,-1.13693],[-1.09137,1.60308]],[[183.83423,70.06543],[0.76953,-1.78011],[-1.52063,3.51758]],[[177.05385,79.16713],[2.35606,-2.95099],[3.06743,0.39578]],[[186.1545,80.84096],[-3.06397,-1.01147],[4.18126,2.74943]],[[197.51399,90.27221],[-3.21589,-3.9224],[2.91343,3.55348]],[[202.10873,102.60292],[-0.72179,-4.34374],[0.25862,-0.11948]],[[202.83359,102.14902],[-0.22265,0.18687],[0,0]]],&quot;closed&quot;:true,&quot;fillColor&quot;:[0,0,0,1],&quot;strokeWidth&quot;:0.5}]}" fill="#ff0000" stroke-width="0.25"></path><path d="M117.62427,202.59088c0,0 0.30255,-0.13237 0.53892,-0.37171c0.98224,1.31906 1.86018,2.71657 2.05564,4.29852c0.04752,0.38458 0.07368,0.77513 0.08882,1.16158c-1.57321,1.45588 -3.42246,2.69104 -5.3385,3.64043c-2.16541,1.07294 -4.05221,2.75488 -6.29475,3.65553c-4.57856,1.83885 -6.06975,-6.23547 -6.0835,-8.89632c-0.01033,-2.00145 1.03446,-3.91028 1.74147,-5.78272c0.44435,-1.17679 0.41937,-2.52727 0.90485,-3.6877c1.10949,-2.65195 3.19353,-4.80921 5.397,-6.64228c1.64004,2.43311 3.17339,5.03258 4.59032,7.77999c-0.32924,0.12978 -0.60008,0.35474 -0.60008,0.35474c-1.91182,1.27455 -3.73988,2.51958 -5.6517,3.79412l-1.22039,3.17782c0,0 -0.0349,2.70156 2.68991,2.70156c1.94202,0 2.46361,-1.37859 2.62389,-2.17385c1.5289,-1.01928 3.02919,-1.99044 4.5581,-3.00971z" data-paper-data="{&quot;noHover&quot;:false,&quot;origItem&quot;:[&quot;Path&quot;,{&quot;applyMatrix&quot;:true,&quot;segments&quot;:[[[133.12019,123.0541],[1.40276,-0.93518],[-0.14705,0.72965]],[[130.67946,125.05366],[1.78179,0],[-2.5,0]],[128.17946,122.55366],[[129.29271,119.59649],[0,0],[1.75409,-1.16939]],[[134.55497,116.08832],[-1.75409,1.16939],[0,0]],[[135.04608,115.84323],[-0.30208,0.11907],[-1.30004,-2.52074]],[[130.86836,108.71553],[1.50473,2.23237],[-2.02167,1.68183]],[[125.9494,114.79461],[1.01795,-2.43315],[-0.44543,1.06468]],[[125.13078,118.15877],[0.40769,-1.0797],[-0.64869,1.71796]],[[123.53198,123.43071],[-0.00948,-1.83632],[0.01261,2.44132]],[[129.07796,131.5625],[-4.20081,1.68714],[2.05752,-0.82635]],[[134.82369,128.21099],[-1.98675,0.98442],[1.75796,-0.87105]],[[139.69707,124.89242],[-1.44341,1.33576],[-0.01389,-0.35456]],[[139.6133,123.83116],[0.0436,0.35285],[-0.17933,-1.45143]],[[137.72301,119.91054],[0.9012,1.21023],[-0.21687,0.21958]],[[137.32847,120.24857],[0,0],[-1.40276,0.93518]]],&quot;closed&quot;:true}]}" fill="#ffbaf3" stroke-width="0.5"></path><path d="M156.17264,181.20535c0,2.72481 -2.72481,2.72481 -2.72481,2.72481h-1.91182c-1.01751,-0.01472 -2.01702,0.1913 -3.01477,0.4248c-0.00627,1.03514 -0.01609,2.07027 -0.03106,3.1053l0.85127,2.44253c0,0 0.86166,2.58498 -1.72332,3.44665c-2.58498,0.86166 -3.44665,-1.72332 -3.44665,-1.72332l-1.06055,-3.29293c-0.01178,-1.10667 -0.01993,-2.21332 -0.02552,-3.31997c-1.32765,0.56877 -2.52931,1.43942 -3.8238,2.0884c-0.16307,0.5798 -0.26919,1.1644 -0.29535,1.75102c-0.06276,1.40728 2.68907,5.60671 3.70868,6.43778c1.33413,1.08743 3.31378,0.93775 4.94319,1.49227c1.03482,0.35218 2.94758,1.12289 4.50534,1.01646c0.2482,-0.48071 0.51172,-0.98927 0.78845,-1.54046c0.49168,-0.97937 0.48078,-2.18938 1.08579,-3.1031c0.74634,-1.12717 2.11722,-1.74333 2.86773,-2.86773c0.60734,-0.90991 0.41231,-2.24516 1.10835,-3.08915c0.21097,-0.25582 1.66553,-1.26915 3.14623,-2.27147c-0.60268,-1.5166 -2.37191,-2.46257 -3.66422,-3.52648c-0.47023,-0.38713 -0.94489,-0.77826 -1.42345,-1.17167c0.08882,0.27865 0.14031,0.60173 0.14031,0.97628zM151.53601,178.48054h1.91182c0,0 0.21208,0 0.51791,0.05917c-1.78556,-1.44837 -3.61284,-2.89372 -5.45539,-4.25061c0.01501,0.13991 0.015,0.22487 0.015,0.22487c0,1.4404 0.00304,2.88089 0.00476,4.3214c0.99563,-0.19283 1.99496,-0.34407 3.00589,-0.35482zM143.07392,179.38679c-0.00585,0.01135 -0.01172,0.02269 -0.01757,0.03404c0.00585,-0.00003 0.01171,-0.00005 0.01757,-0.00007c0,-0.01132 0,-0.02266 0,-0.03398zM164.91876,195.68693c2.72481,0 2.72481,2.72481 2.72481,2.72481l-1.92842,2.60494c0.2845,1.12518 0.599,2.25692 0.89115,3.42557l0.7496,1.35412c0,0 0.07293,0.14586 0.14743,0.38406c1.24264,-1.44206 2.50036,-2.88807 3.3667,-4.57108c0.01467,-1.01044 -0.274,-2.07212 0.04403,-3.03131c0.36156,-1.09048 1.54198,-1.78003 1.91182,-2.86773c0.26997,-0.794 -0.23691,-1.69044 -0.08173,-2.51459c0.14032,-0.74526 0.92554,-1.31148 0.94483,-2.06959c0.03267,-1.28309 -2.53054,-1.47378 -2.94052,-1.60034c-1.42203,-0.43898 -2.78624,-1.06409 -4.0951,-1.79068c-0.21831,0.11909 -0.44133,0.23273 -0.66636,0.34398c-0.70897,1.5125 -1.7925,2.94484 -2.55628,4.09334c1.34511,0.71371 1.34511,2.41566 1.34511,2.41566c-0.003,0.3713 0.0061,0.73786 0.02577,1.10055c0.03847,-0.00113 0.07753,-0.00171 0.11715,-0.00171zM162.48161,208.2335l-1.16222,-2.46953c-0.2429,-0.97159 -0.49,-1.91881 -0.72374,-2.85624c-1.84106,0.72192 -3.51651,1.82059 -5.3788,2.87034c-0.00071,0.09152 -0.00076,0.18515 -0.00012,0.28095c0.00634,0.9559 0.06908,1.91432 0,2.86773c-0.0389,0.53678 -0.59056,1.1154 -0.32242,1.582c0.74382,1.29428 2.79028,1.06258 4.19474,1.56847c3.10416,1.11815 4.30554,-0.27117 5.68079,-2.28452c-1.52548,-0.03373 -2.28822,-1.55921 -2.28822,-1.55921zM165.18142,180.68003l2.2047,1.12587c4.19673,2.84545 10.27331,2.60651 11.70427,8.59689c0.29363,1.22917 -0.77673,2.41651 -0.96698,3.66587c-0.16168,1.06173 0.25246,2.20022 -0.08173,3.22087c-0.35748,1.09182 -1.54668,1.77844 -1.91182,2.86773c-0.28653,0.85475 0.02935,1.80278 0.04402,2.70416c-1.38702,2.82374 -3.31233,5.37426 -5.32427,7.79284c-2.80007,3.36602 -4.58677,7.51678 -9.75449,7.6887c-1.29496,0.04307 -2.49384,-0.70563 -3.72939,-1.09574c-2.51152,-0.79299 -5.77238,-1.69429 -7.27619,-4.16699c-0.38664,-0.63573 -0.32914,-5.84236 -0.32242,-7.02119c0.00263,-0.46021 0.01929,-0.89159 0.04922,-1.29954c-0.20268,-0.71543 -0.08227,-1.30497 0.15894,-1.76862c-1.39728,-0.21198 -2.78051,-0.61273 -4.08048,-1.03823c-0.86371,-0.2827 -6.11591,-2.0053 -6.52774,-2.33138c-2.34691,-1.85821 -5.7835,-7.71092 -5.85042,-10.76862c-0.03358,-1.53429 0.39159,-3.09999 1.01208,-4.6286c0.04959,-0.17014 0.117,-0.32618 0.19672,-0.46891c0.87281,-2.01732 2.04196,-3.95694 2.89191,-5.65874c1.55825,-3.12001 3.15506,-5.93168 4.9969,-8.72478c-0.45207,-0.6545 -1.10696,-2.06512 0.30365,-3.47574c0.96772,-0.96771 1.93544,-0.96335 2.65903,-0.71924c0.27517,-0.32892 1.80017,-1.9674 3.77032,-0.48978c2.17985,1.63489 0.54496,3.81473 0.54496,3.81473c-0.02508,0.03344 -0.05013,0.06683 -0.0751,0.10022c1.54027,1.21418 2.97166,2.57458 4.4601,3.8537c3.26063,2.80211 7.15809,4.46442 9.84898,7.93675c0.60755,0.06393 1.05522,0.28777 1.05522,0.28777z" fill="#000000" stroke-width="0.5"></path><path d="M164.9702,195.7049c-0.03962,0 -0.18176,-0.03481 -0.22023,-0.03368c-0.01966,-0.36269 -0.02331,-0.74073 -0.02032,-1.11204c0,0 0.00634,-1.7102 -1.33876,-2.42391c0.76378,-1.1485 1.87198,-2.59601 2.58095,-4.10851c0.22503,-0.11125 0.45218,-0.22592 0.67049,-0.345c1.30886,0.72659 2.69949,1.35279 4.12153,1.79177c0.40997,0.12655 2.99378,0.3286 2.96112,1.61169c-0.01929,0.75811 -0.79998,1.32881 -0.9403,2.07407c-0.15517,0.82415 0.36349,1.74173 0.09352,2.53573c-0.36984,1.0877 -1.55768,1.82344 -1.91924,2.91392c-0.31803,0.95919 -0.05002,2.03878 -0.06469,3.04922c-0.86634,1.68301 -2.1545,3.13435 -3.39714,4.57641c-0.07451,-0.23819 -0.14859,-0.3842 -0.14859,-0.3842l-0.756,-1.35539c-0.29215,-1.16865 -0.62417,-2.30848 -0.90867,-3.43366l1.93065,-2.60347c0,0 -0.0224,-2.78887 -2.74721,-2.78887z" data-paper-data="{&quot;noHover&quot;:false,&quot;origItem&quot;:[&quot;Path&quot;,{&quot;applyMatrix&quot;:true,&quot;segments&quot;:[[[180.67093,113.91436],[0,0],[2.5,0]],[183.17093,116.41436],[[181.40161,118.80438],[0,0],[0.26103,1.03235]],[[182.21924,121.94732],[-0.26805,-1.07223],[0,0]],[182.90699,123.18972],[[183.04226,123.54209],[-0.06836,-0.21854],[1.14012,-1.32308]],[[186.13119,119.34815],[-0.79486,1.54415],[0.01346,-0.92707]],[[186.17159,116.56694],[-0.29179,0.88005],[0.33173,-1.00051]],[[187.92568,113.93581],[-0.33933,0.99796],[0.2477,-0.72849]],[[187.85069,111.62869],[-0.14237,0.75615],[0.12874,-0.68377]],[[188.71757,109.72985],[-0.0177,0.69556],[0.02997,-1.17723]],[[186.01966,108.26155],[0.37615,0.11611],[-1.30471,-0.40276]],[[182.26243,106.61861],[1.20087,0.66664],[-0.2003,0.10926]],[[181.65105,106.93421],[0.20646,-0.10207],[-0.65048,1.38771]],[[179.30568,110.68983],[0.70076,-1.05374],[1.23413,0.65483]],[[180.53981,112.90619],[0,0],[-0.00275,0.34067]],[[180.56345,113.91594],[-0.01804,-0.33277],[0.0353,-0.00104]],[[180.67093,113.91437],[-0.03635,0],[0,0]]],&quot;closed&quot;:true,&quot;fillColor&quot;:[0,0,0,1]}]}" fill="#ffffff" stroke-width="0.5"></path><path d="M162.53504,208.24426c0,0 0.75952,1.53591 2.285,1.56964c-1.37526,2.01335 -2.6355,3.43528 -5.73966,2.31712c-1.40445,-0.50589 -3.4895,-0.30083 -4.23332,-1.59511c-0.26814,-0.46661 0.27815,-1.05819 0.31705,-1.59496c0.06908,-0.95341 0.00763,-1.94433 0.00129,-2.90022c-0.00064,-0.0958 0.00046,-0.19214 0.00117,-0.28366c1.86229,-1.04975 3.59701,-2.18116 5.43807,-2.90308c0.23375,0.93743 0.50565,1.89565 0.74855,2.86724l1.18184,2.52305z" data-paper-data="{&quot;noHover&quot;:false,&quot;origItem&quot;:[&quot;Path&quot;,{&quot;applyMatrix&quot;:true,&quot;segments&quot;:[[178.43486,125.42578],[[177.36853,123.16],[0,0],[-0.22286,-0.89143]],[[176.7045,120.53941],[0.21446,0.86009],[-1.68916,0.66236]],[[171.76948,123.17293],[1.70864,-0.96314],[-0.00065,0.08397]],[[171.76937,123.4307],[-0.00059,-0.0879],[0.00582,0.87703]],[[171.76937,126.06183],[0.06338,-0.87475],[-0.03569,0.49249]],[[171.47355,127.51331],[-0.24602,-0.42811],[0.68245,1.1875]],[[175.3222,128.95237],[-1.28858,-0.46415],[2.84805,1.0259]],[[180.5343,126.85633],[-1.26179,1.84724],[-1.39962,-0.03095]],[178.43487,125.42576]],&quot;closed&quot;:true,&quot;fillColor&quot;:[0,0,0,1]}]}" fill="#ffffff" stroke-width="0.5"></path><path d="M151.54437,178.5344c-1.01093,0.01076 -2.06036,0.14318 -3.05599,0.33601c-0.00172,-1.44051 -0.00652,-2.94888 -0.00652,-4.38928c0,0 0.00163,-0.08701 -0.01337,-0.22692c1.84255,1.35689 3.75581,2.86912 5.54137,4.31748c-0.30583,-0.05917 -0.52087,-0.05543 -0.52087,-0.05543l-1.94461,0.01813z" data-paper-data="{&quot;noHover&quot;:false,&quot;origItem&quot;:[&quot;Path&quot;,{&quot;applyMatrix&quot;:true,&quot;segments&quot;:[[168.39232,98.12758],[170.14641,98.12758],[[170.62159,98.18187],[-0.2806,-0.05429],[-1.63824,-1.32887]],[[165.6163,94.28196],[1.69053,1.24494],[0.01377,0.12837]],[[165.63006,94.48828],[0,0],[0,1.32156]],[[165.63443,98.45314],[-0.00158,-1.32166],[0.91349,-0.17692]],[[168.39232,98.12759],[-0.92752,0.00987],[0,0]]],&quot;closed&quot;:true,&quot;fillColor&quot;:[0,0,0,1]}]}" fill="#ffffff" stroke-width="0.5"></path><path d="M156.13903,181.24824c0,-0.37455 0.01284,-0.78554 -0.07598,-1.06419c0.47856,0.39341 0.96054,0.79051 1.43077,1.17764c1.2923,1.06391 3.07464,2.03006 3.67733,3.54666c-1.48069,1.00232 -2.93327,2.02234 -3.14423,2.27816c-0.69605,0.84399 -0.50056,2.2014 -1.1079,3.11131c-0.75051,1.1244 -2.13731,1.76999 -2.88364,2.89716c-0.60502,0.91372 -0.6117,2.135 -1.10337,3.11437c-0.27673,0.55119 -0.54776,1.06211 -0.79596,1.54282c-1.55776,0.10643 -3.49934,-0.6653 -4.53416,-1.01748c-1.6294,-0.55452 -3.63431,-0.42154 -4.96844,-1.50897c-1.01961,-0.83107 -3.78443,-5.06664 -3.72168,-6.47392c0.02616,-0.58662 0.13311,-1.17994 0.29619,-1.75974c1.29449,-0.64898 2.50259,-1.53728 3.83023,-2.10605c0.00558,1.10665 0.11519,2.24586 0.12698,3.35253l1.05613,3.26545c0,0 0.83848,2.55955 3.42346,1.69788c2.58498,-0.86166 1.66282,-3.3564 1.66282,-3.3564l-0.85585,-2.52384c0.01498,-1.03504 0.04635,-2.08336 0.05262,-3.1185c0.99775,-0.23349 2.0295,-0.44 3.04701,-0.42528l1.92679,0.007c0,0 2.66086,0.08816 2.66086,-2.63665z" data-paper-data="{&quot;noHover&quot;:false,&quot;origItem&quot;:[&quot;Path&quot;,{&quot;applyMatrix&quot;:true,&quot;segments&quot;:[[[172.64641,100.62758],[0,0],[0,2.5]],[170.14641,103.12758],[[168.39232,103.12758],[0,0],[-0.93356,-0.01351]],[[165.62628,103.51733],[0.91543,-0.21423],[-0.00575,0.94974]],[[165.59778,106.36643],[0.01374,-0.94964],[0,0]],[166.37882,108.60744],[[164.79768,111.76972],[2.37171,-0.79057],[-2.37171,0.79057]],[161.6354,110.18858],[[160.66235,107.16733],[0,0],[-0.01081,-1.01536]],[[160.63894,104.12127],[0.00512,1.01535],[-1.21811,0.52184]],[[157.13062,106.03737],[1.18769,-0.59544],[-0.14962,0.53196]],[[156.85964,107.64392],[0.024,-0.53822],[-0.05758,1.29117]],[[160.26234,113.55055],[-0.93549,-0.7625],[1.22406,0.99771]],[[164.79769,114.9197],[-1.49497,-0.50877],[0.94944,0.32312]],[[168.93132,115.8523],[-1.42924,0.09765],[0.22772,-0.44105]],[[169.65472,114.43894],[-0.2539,0.50571],[0.45111,-0.89857]],[[170.65093,111.59186],[-0.5551,0.83833],[0.68476,-1.03417]],[[173.28206,108.96073],[-0.68859,1.03163],[0.55723,-0.83484]],[[174.29897,106.12645],[-0.63862,0.77436],[0.19356,-0.23471]],[[177.18562,104.04239],[-1.35853,0.91962],[-0.55296,-1.39147]],[[173.82372,100.80686],[1.18568,0.97613],[-0.43143,-0.35519]],[[172.51771,99.73186],[0.43908,0.36095],[0.08149,0.25566]],[[172.64644,100.62759],[0,-0.34365],[0,0]]],&quot;closed&quot;:true,&quot;fillColor&quot;:[0,0,0,1]}]}" fill="#ffffff" stroke-width="0.5"></path><path d="M23.5,123.25c0,-1.38071 1.11929,-2.5 2.5,-2.5c1.38071,0 2.5,1.11929 2.5,2.5c0,1.38071 -1.11929,2.5 -2.5,2.5c-1.38071,0 -2.5,-1.11929 -2.5,-2.5z" fill="#cd894a" stroke-width="0.5"></path></g></g></svg>