<svg version="1.1" xmlns="http://www.w3.org/2000/svg" xmlns:xlink="http://www.w3.org/1999/xlink" width="83.03566" height="91.27319" viewBox="0,0,83.03566,91.27319"><g transform="translate(-143.89435,-187.30784)"><g data-paper-data="{&quot;isPaintingLayer&quot;:true}" fill-rule="nonzero" stroke-linecap="butt" stroke-linejoin="miter" stroke-miterlimit="10" stroke-dasharray="" stroke-dashoffset="0" style="mix-blend-mode: normal"><path d="M145.49924,241.52789c-1.96152,-0.6418 -1.57376,-2.79322 -1.57376,-2.79322c0.08631,-0.4789 1.1366,-6.36017 1.22461,-6.61265c0.97592,-2.79964 3.3479,-5.11228 4.31537,-7.89795c0.69166,-1.9915 0.43826,-4.22998 1.12182,-6.22427c0.32424,-0.94598 1.10977,-1.68822 1.43846,-2.63265c0.34647,-0.99552 0.20922,-2.11844 0.56091,-3.11213c0.98992,-2.79701 3.0531,-5.65508 4.47906,-8.26485c3.37309,-6.17339 7.49981,-12.39226 14.50868,-14.59868c4.81429,-1.41219 9.22331,-1.75098 14.23622,-1.84675c0.99601,-0.01903 1.93948,0.60488 2.93483,0.5641c0.97301,-0.03986 1.83704,-0.84131 2.80997,-0.79942c0.46419,0.01999 8.77326,2.14478 9.21588,2.38663c1.24658,0.68112 4.97979,4.75551 6.3205,5.75389c4.90605,3.65333 10.58084,7.68906 14.40395,12.65053c1.43885,1.86727 1.89961,4.3154 2.80393,6.49237c1.95893,4.71573 3.19929,8.85405 2.36799,13.99147c-0.59197,3.12216 -1.61299,6.27831 -2.66307,9.24529c-0.66728,1.8854 -2.23083,3.37252 -2.87692,5.2653c-0.34051,0.99758 -0.20922,2.11844 -0.56091,3.11213c-1.42768,4.03391 -4.85698,7.37596 -6.23332,11.40814c-1.61806,4.74035 -3.43981,10.27366 -6.69876,14.34557c-2.05948,2.57322 -7.05384,5.81989 -10.29761,6.43696c-1.11334,0.21179 -2.22445,-0.51018 -3.35748,-0.53559c-1.42379,-0.03194 -3.2267,1.34815 -4.25683,0.36479c-1.43178,-1.36679 -0.93669,-3.84643 -1.40503,-5.76964c0.19576,-0.87338 0.74989,-1.74 0.58725,-2.62015c-0.199,-1.07698 -1.29707,-1.81686 -1.6015,-2.86892c-0.3329,-1.15047 -0.44619,-6.02798 -0.69095,-7.42305c-0.08895,-0.507 -0.72017,-2.33416 -1.07339,-3.59677c-0.65137,0.74871 -1.71203,1.34677 -1.99637,1.70921c-2.65767,3.38773 -5.46731,9.50305 -10.45272,3.18136c-0.98959,-1.25485 -0.51856,-3.15473 -0.71491,-4.74073c-0.28524,-2.304 -0.21432,-4.64951 -0.59953,-6.93892c-0.32709,-1.94391 -1.60248,-3.60324 -2.33113,-5.43486c-0.34822,-0.87532 -0.22794,-2.8522 -1.13254,-2.58927c-0.92321,0.26834 -3.32879,2.72644 -3.78566,3.15789c-1.90579,1.76512 -4.07488,3.22284 -6.12313,4.82045c-0.93568,0.72982 -1.5742,1.87443 -2.64813,2.37921c-1.42602,0.67028 -3.10215,1.48207 -4.61268,1.03364c-4.04002,-1.19933 -5.16682,-6.80719 -5.6431,-10.99851zM149.60032,234.68501c0.09791,0.04169 0.198,0.09019 0.30025,0.14606c2.19387,1.19871 0.99516,3.39259 0.99516,3.39259l-0.6625,0.33684c0.16591,1.96316 0.48823,3.9249 1.02135,5.82156c0.3191,1.13521 0.11799,2.88551 1.21297,3.32316c1.15875,0.46316 1.82092,-1.71117 2.79933,-2.48573c1.94409,-1.53905 4.04255,-2.89621 5.85497,-4.58833c3.60125,-3.30579 7.22108,-6.68858 11.79147,-2.12556c0.83584,0.83448 0.69641,2.26229 1.16701,3.34557c0.47887,1.10233 1.21887,2.08109 1.67368,3.19356c1.33166,3.25725 1.46657,7.14138 1.60184,10.6144c0.03597,0.92362 -0.50584,3.42168 0.14862,2.76897c1.03195,-1.0292 1.19168,-2.69311 2.09127,-3.8398c0.65062,-0.82934 1.59194,-1.38711 2.31601,-2.15316c1.08434,-1.14721 1.52308,-3.57498 3.10166,-3.57866c1.94867,-0.00454 3.39087,2.06212 4.63657,3.56065c2.82166,3.39437 1.3135,9.31879 2.45139,13.14372c0.3733,1.25484 1.52635,2.22755 1.74585,3.5182c0.20363,1.19732 -0.35637,2.40274 -0.53456,3.60412c-0.25725,0.4712 -1.25839,1.18691 -0.77174,1.41361c0.51266,0.23881 0.61276,-1.13877 1.17131,-1.22747c0.9633,-0.15297 1.90328,0.73785 2.86679,0.58623c1.99841,-0.31447 3.64146,-1.79081 5.32202,-2.91696c2.27037,-1.52139 3.18838,-4.27994 4.44318,-6.57647c0.89498,-1.63799 2.11027,-3.13192 2.71323,-4.8984c0.34051,-0.99758 0.20922,-2.11844 0.56091,-3.11213c1.42737,-4.03302 4.85717,-7.37652 6.23332,-11.40814c0.34051,-0.99758 0.20922,-2.11844 0.56091,-3.11213c0.66728,-1.8854 2.23083,-3.37252 2.87692,-5.2653c0.92982,-2.72405 1.97778,-5.61644 2.45747,-8.46854c0.83315,-4.02411 -0.53321,-7.54949 -2.08309,-11.2313c-0.98514,-2.34023 -0.45479,-3.23555 -2.13568,-5.32289c-3.66424,-4.55028 -8.78129,-8.20193 -13.35195,-11.63136c-2.1185,-1.58953 -3.47815,-4.15816 -5.80235,-5.42809c-2.03959,-1.11442 -4.41959,-1.70965 -6.74285,-1.77495c-0.9115,-0.02562 -1.70703,0.75657 -2.61817,0.79284c-1.11125,0.04423 -2.17751,-0.5789 -3.28944,-0.55771c-4.57849,0.08725 -8.39961,0.37169 -12.74164,1.64536c-2.93206,0.7664 -4.12104,2.48705 -6.34754,4.53449c-5.42927,4.99264 -8.93211,14.16219 -11.33181,20.93959c-0.70365,1.98729 -0.42788,4.23357 -1.12182,6.22427c-0.97592,2.79964 -3.3479,5.11228 -4.31537,7.89795c-0.10282,0.29604 -0.18984,0.59615 -0.26489,0.89935z" fill="#000000" stroke="none" stroke-width="0.5"></path><path d="M149.81557,233.79152c0.96747,-2.78567 3.33939,-5.10953 4.31532,-7.90917c0.69394,-1.9907 0.4201,-4.24637 1.12376,-6.23366c2.3997,-6.77739 5.92278,-15.97393 11.35205,-20.96658c2.22651,-2.04745 3.42466,-3.77286 6.35673,-4.53927c4.34204,-1.27366 8.17994,-1.56157 12.75843,-1.64882c1.11193,-0.02119 2.18269,0.602 3.29394,0.55777c0.91114,-0.03626 1.71009,-0.81814 2.62159,-0.79252c2.32327,0.0653 4.71239,0.66258 6.75198,1.77699c2.3242,1.26992 3.69343,3.84282 5.81192,5.43235c4.57066,3.42942 9.70563,7.09876 13.36988,11.64904c1.68089,2.08734 1.1541,2.98989 2.13923,5.33013c1.54988,3.6818 2.91967,7.2231 2.08653,11.24722c-0.47969,2.8521 -1.52864,5.75714 -2.45846,8.4812c-0.64608,1.89277 -2.21227,3.38854 -2.87956,5.27395c-0.35168,0.99369 -0.22239,2.11885 -0.5629,3.11643c-1.37615,4.03162 -4.81774,7.38994 -6.24511,11.42297c-0.35168,0.99369 -0.22298,2.11663 -0.56349,3.1142c-0.60296,1.76647 -1.82366,3.26393 -2.71864,4.90192c-1.25481,2.29654 -2.18019,5.05847 -4.45057,6.57987c-1.68056,1.12615 -3.33002,2.60436 -5.32842,2.91883c-0.96352,0.15161 -1.90648,-0.73864 -2.86979,-0.58567c-0.55855,0.08869 -0.66013,1.46649 -1.1728,1.22768c-0.48663,-0.22669 0.50088,-1.04146 0.75813,-1.51266c0.17819,-1.20137 0.75417,-2.30809 0.55054,-3.50541c-0.2195,-1.29066 -1.37406,-2.26312 -1.74735,-3.51796c-1.13788,-3.82493 0.3691,-9.7492 -2.45256,-13.14356c-1.24569,-1.49853 -2.69866,-3.56506 -4.64733,-3.56052c-1.57857,0.00368 -2.02308,2.43054 -3.10742,3.57776c-0.72406,0.76606 -1.66873,1.32297 -2.31935,2.15232c-0.89958,1.1467 -1.06079,2.81015 -2.09274,3.83935c-0.65446,0.65272 -0.11433,-1.84592 -0.1503,-2.76954c-0.13526,-3.47303 -0.28213,-7.36342 -1.61378,-10.62067c-0.45481,-1.11247 -1.20167,-2.09712 -1.68053,-3.19945c-0.47059,-1.08329 -0.33722,-2.51865 -1.17305,-3.35313c-4.57037,-4.56302 -8.10247,-1.22746 -11.70372,2.07832c-1.81242,1.69212 -3.912,3.04688 -5.85609,4.58594c-0.97841,0.77456 -1.72944,2.99471 -2.88821,2.53156c-1.09497,-0.43767 -0.89581,-2.19206 -1.21491,-3.32727c-0.53312,-1.89665 -0.85785,-3.86566 -1.02377,-5.82881l0.66245,-0.33705c0,0 1.19781,-2.19852 -0.99606,-3.39723c-0.10225,-0.05587 -0.20238,-0.10462 -0.30029,-0.14631c0.07506,-0.3032 0.16193,-0.60445 0.26475,-0.90049z" data-paper-data="{&quot;noHover&quot;:false,&quot;origItem&quot;:[&quot;Path&quot;,{&quot;applyMatrix&quot;:true,&quot;segments&quot;:[[[156.66648,252.01579],[-0.07951,-0.30206],[0.10591,-0.01036]],[[157,252],[-0.11652,0],[2.5,0]],[159.5,254.5],[[159.08013,255.11325],[0,0],[1.0869,1.64322]],[[162.76777,259.73223],[-1.37726,-1.40878],[0.82434,0.8432]],[[165.42562,262.06688],[-1.17075,0.14095],[1.23894,-0.14916]],[[166.6903,258.54329],[-0.48721,1.14885],[0.96808,-2.28276]],[[169.62829,251.70943],[-0.77914,2.35395],[1.5752,-4.62774]],[[178.95671,244.1903],[-6.19863,-1.81285],[1.13361,0.33153]],[[181.58497,246.56664],[-0.93239,-0.725],[0.94878,0.73774]],[[184.58497,248.56664],[-0.93253,-0.75817],[2.7304,2.21989]],[[191.08013,257.11325],[-1.78397,-2.9829],[0.47443,0.79327]],[[192.53822,259.47189],[-0.26135,0.8866],[0.4121,-1.39798]],[[192.53228,255.09954],[-0.2396,1.43762],[0.17329,-1.03975]],[[193.53228,252.09954],[-0.26809,1.01943],[0.40149,-1.52666]],[[194.53822,247.47189],[-1.38351,0.76013],[1.70788,-0.93834]],[[200.31433,248.37337],[-1.81168,-0.71774],[4.1037,1.62578]],[[208.76777,258.73223],[-2.83255,-2.81097],[0.92927,0.92219]],[[211.98677,260.98252],[-0.81147,-1.02737],[0.75279,0.95307]],[[213.24579,264.40162],[-0.41967,-1.1397],[0.00019,0.53685]],[[213.24634,266.01217],[-0.53574,0.0344],[0.56439,-0.03624]],[[213.68567,264.37337],[-0.44763,0.34565],[0.772,-0.59613]],[[216.48252,263.51323],[-0.77284,0.59504],[1.60292,-1.23417]],[[219.75421,258.40162],[-0.9348,1.79406],[1.26288,-2.42371]],[[220.5,250.5],[0,2.61699],[0,-1.86655]],[[220.53228,244.90046],[0.31787,1.83928],[-0.17951,-1.0387]],[[219.53228,241.90046],[0.16784,1.04064],[-0.68119,-4.22358]],[[219.53228,228.90046],[0.72547,4.19779],[-0.17951,-1.0387]],[[218.53228,225.90046],[0.16784,1.04064],[-0.31845,-1.97448]],[[218.53228,219.90046],[0.34059,1.97079],[-0.49018,-2.83633]],[[216.62829,211.29057],[0.94659,2.73286],[-1.19837,-3.93084]],[[209.41503,202.43336],[3.12547,2.48782],[-1.98662,-1.58131]],[[204.98862,198.78629],[2.47591,1.02578],[-5.39735,-2.23614]],[[187.69454,194.98127],[5.65534,0.81792],[-2.62124,-0.3791]],[[180,193],[2.64851,0],[-2.32419,0]],[[173.23175,194.6755],[2.0701,-1.05667],[-0.81217,0.41457]],[[171.31433,196.62663],[0.78218,-0.4687],[-0.95397,0.57164]],[[168.16027,197.71445],[0.96561,-0.55175],[-3.97602,2.27189]],[[157.76777,205.26777],[3.19965,-3.19965],[-2.20555,2.07844]],[[154.37171,212.29057],[0.97215,-2.86432],[-2.37055,6.98455]],[[154.46772,236.09954],[-1.14381,-7.09812],[0.33539,2.08134]],[[156.46772,242.09954],[-0.34555,-2.07967],[0.48597,2.92476]],[[156.46772,251.09954],[-0.48668,-2.90845],[0.05172,0.30909]]],&quot;closed&quot;:true}]}" fill="#ffffff" stroke="none" stroke-width="0.5"></path><path d="M216.45772,221.12546c-4.86987,6.70176 -16.06147,6.87086 -24.99715,0.37771c-8.93568,-6.49315 -12.23167,-17.18975 -7.36181,-23.8915c4.86987,-6.70176 15.50056,-3.75873 24.43624,2.73442c8.93568,6.49315 12.79258,14.07761 7.92272,20.77936z" fill="#85ff75" stroke="#000000" stroke-width="2.5"></path><path d="M168.501,227.90114c-2.78053,5.0889 -8.37419,7.38955 -12.49377,5.13864c-4.11959,-2.25091 -5.2051,-8.201 -2.42457,-13.2899c2.78053,-5.0889 8.37419,-7.38955 12.49377,-5.13864c4.11959,2.25091 5.2051,8.201 2.42457,13.2899z" fill="#ff7575" stroke="#000000" stroke-width="2.5"></path></g></g></svg>