<svg version="1.1" xmlns="http://www.w3.org/2000/svg" xmlns:xlink="http://www.w3.org/1999/xlink" width="214.47106" height="168.18552" viewBox="0,0,214.47106,168.18552"><g transform="translate(-71.08522,-125.72605)"><g data-paper-data="{&quot;isPaintingLayer&quot;:true}" fill-rule="nonzero" stroke="none" stroke-linecap="butt" stroke-linejoin="miter" stroke-miterlimit="10" stroke-dasharray="" stroke-dashoffset="0" style="mix-blend-mode: normal"><path d="" fill="#000000" stroke-width="0.5"></path><path d="M150.25,231c-6.51211,4.86444 -13.96722,9.3061 -22.19454,10.48127c-3.65093,0.52149 -7.45107,-0.13207 -11.0518,-0.49344c-2.96521,-0.29759 -6.1695,-0.0144 -9.10041,-0.512c-4.47824,-0.7603 -9.30658,-2.72548 -13.60996,-4.16614c-3.04349,-1.51717 -6.73246,-2.49896 -8.98746,-5.238c-3.9662,-4.81756 -4.42584,-11.72053 -6.86553,-17.11499c-0.82901,-1.83304 -2.65749,-3.09701 -3.47257,-4.93628c-0.9932,-2.24123 -0.79353,-4.85998 -1.57365,-7.18398c-0.35859,-1.06825 -1.13646,-1.96156 -1.50876,-3.02511c-2.07278,-5.92117 0.19565,-12.03408 3.22095,-17.09758c0,0 1.28296,-2.13826 3.42177,-0.8624c-0.80096,-7.41768 0.79053,-14.83498 6.4542,-20.61912c0,0 0.45629,-0.45629 1.13704,-0.67341c2.61044,-7.39532 8.31905,-13.83535 15.44392,-15.96263c0,0 0.44882,-0.12823 1.014,-0.07995c0.73044,-1.87345 1.65285,-3.61898 2.78417,-5.15425c1.20047,-1.20047 3.41652,-3.68081 5.09807,-4.2337c2.46431,-0.81028 8.4914,0.23661 10.21256,2.27297c0.86008,1.01759 0.85103,2.53745 1.06585,3.8524c0.43974,2.69176 -0.25569,5.36161 -0.5,7.99269c-0.41346,4.45275 0.19024,8.93915 0.9712,13.30295c0.50048,2.79651 1.14803,5.83924 3.54096,7.4507c0,0 1.0618,0.79635 1.05784,2.00222c2.32815,-0.35348 4.46786,-1.57707 6.79173,-1.96997c2.04076,-0.34504 4.27332,0.12364 6.16871,-0.70778c0.97703,-0.42858 1.56171,-1.41171 1.92543,-2.60494c-1.72171,0.08431 -3.41552,0.28044 -4.69369,0.28044c0,0 -2.5,0 -2.5,-2.5c0,-2.5 2.5,-2.5 2.5,-2.5c1.69436,0 3.52685,-0.13794 5.36312,-0.16462c0.04584,-0.67894 0.09099,-1.28012 0.16915,-1.73583c0.4019,-2.34324 0.98823,-4.10148 1.9481,-5.60977c-0.09164,-1.9139 1.91328,-2.41513 1.91328,-2.41513c0.06642,-0.0163 0.13281,-0.03241 0.1992,-0.04832c0.59043,-0.53685 1.25974,-1.065 2.02039,-1.60646c0,0 2.05567,-1.37044 3.44227,0.65694c3.16899,-0.39035 6.33446,-0.58602 9.54402,-1.04454c1.0435,-0.14908 1.95935,-0.83216 3,-1c0.56457,-0.09106 1.16627,-0.16998 1.79518,-0.23677c1.12109,-5.23192 3.14879,-8.64156 6.33723,-13.02089c1.65472,-2.27275 2.19529,-3.90199 4.55627,-5.55248c2.97736,-2.08138 6.0812,-2.33094 9.51107,-2.93093c2.88384,-0.50447 3.4618,-1.04308 6.47113,0.17677c5.55461,2.25159 10.18772,6.94624 14.36821,11.14426c2.26189,3.04023 4.02866,6.46622 4.5872,10.29125c0.39926,2.73421 -0.04389,5.31676 0.33248,8.02163c1.09592,0.47122 2.19257,0.94137 3.09619,1.70069c3.22055,2.70625 3.48051,7.27763 5.47212,10.55986c0.48908,0.80603 1.51844,1.18946 2,2c0.60611,1.02018 0.71236,2.26833 1.18308,3.35762c1.78694,4.13515 3.59158,8.08532 4.17157,12.65125c0.16403,1.2913 -0.19764,2.61642 -0.01355,3.90501c0.02565,0.17956 0.06777,0.35523 0.12068,0.52837l-0.28112,1.26503l-0.55728,2.22913v0.27864l-0.06231,0.28037l0.06231,0.09346v1.34753l0.13657,0.54629l-0.07541,0.55802l0.14381,1.29425c2.17926,-2.71017 3.84253,-5.86866 5.6684,-8.83496c1.73914,-2.82541 2.51792,-3.26286 3.76194,-6.49701c2.25328,-5.85798 2.36468,-12.52578 2.36468,-18.68866c0,-3.34285 0.16739,-6.47752 -0.48783,-9.75366c-0.01517,-3.42444 -0.73343,-7.92151 0.65603,-11.14784c1.9145,-4.44547 8.61914,-7.65538 13.23879,-4.665c1.16664,0.75519 1.67413,2.23177 2.33263,3.45558c1.36817,2.54273 1.56532,5.43859 1.59372,8.3504c1.96808,-0.32776 4.83256,-0.78161 5.1913,-0.68382c7.23371,1.97183 7.93794,10.80172 8.3559,17.1074c0.06702,0.02311 0.10426,0.03907 0.10426,0.03907c4.23548,1.82823 8.94893,4.18676 10.81362,8.81437c0.48469,1.20287 0.99399,6.44069 1.1693,7.58304c0.50688,3.303 1.49328,6.72603 1.16955,10.12126c1.36273,0.61098 1.36273,2.2792 1.36273,2.2792c-0.02017,5.43139 1.24259,10.27226 -1.21773,15.52042c-2.36611,5.04721 -6.95015,8.08913 -11.2429,11.44944c-4.05532,3.17445 -8.31012,6.92202 -13.13788,8.86195c-2.86415,1.1509 -6.13421,1.70664 -9.28285,2.20252c4.2848,0.38194 8.60629,0.74476 12.76366,1.49508c1.48669,0.26832 3.20219,0.00492 4.45063,0.85558c3.32162,2.26328 4.07912,7.74494 4.15855,11.40882c0.02917,1.34537 0.43604,2.93912 -0.36485,4.02053c-1.20795,1.63103 -2.36872,2.26403 -3.62621,2.50475c0.39815,0.43098 0.72561,0.90249 0.89231,1.45646c0.63128,2.09778 -1.35314,7.08835 -3.3183,7.9818c-1.79262,0.81501 -7.27277,-0.89139 -9.1229,-1.31825c-3.14449,-0.7255 -6.82253,-0.85171 -9.88098,-1.93304c-0.12697,0.80172 -0.423,1.47879 -0.95461,1.90149l-0.00001,0.00003c-1.36157,1.08263 -3.50052,0.29127 -5.21857,0.01873c-8.51791,-1.35122 -14.05528,-8.50166 -18.89737,-14.92628l-0.3203,-0.30548c-0.85342,0.00229 -1.73755,-0.07202 -2.66999,-0.24307l-0.55459,-0.24374c-2.17002,0.81207 -4.21834,2.02423 -5.97949,3.31033c-0.49412,0.36084 -0.98941,0.68302 -1.47432,0.99153c-0.23618,1.37061 -1.71074,1.86213 -1.71074,1.86213l-1.04222,0.07926c-0.80127,0.72762 -1.46156,1.61089 -1.88366,2.86037c-0.50715,1.50122 -0.70451,3.07621 -0.70782,4.66617c1.10564,0.01673 2.21917,0.02249 3.34313,0.02249h2c0,0 2.5,0 2.5,2.5c0,2.5 -2.5,2.5 -2.5,2.5h-2c-0.95413,0 -1.90129,-0.00454 -2.84283,-0.01631c0.0916,0.51452 0.19109,1.0239 0.29428,1.52602l0.37665,1.07525c1.32038,0.40994 1.62335,1.92475 1.62335,1.92475l0.4648,2.34862c1.28215,3.95229 2.27077,9.59655 -0.23684,13.36648c-0.80794,1.21467 -1.59829,2.79373 -3.0044,3.18234c-1.36605,0.37753 -2.861,-0.37269 -4.1185,-1.07378c-0.89694,0.95184 -1.65367,2.07368 -2.74217,2.79326c-0.9899,0.6544 -2.26215,0.72692 -3.35762,1.18308c-2.22613,0.92696 -5.56312,3.61942 -8.22447,0.95806c-1.28075,-1.28075 -1.18508,-3.27022 -0.6051,-5.03175c-0.02411,0.01049 -0.04785,0.02051 -0.07119,0.03003c-2.51548,1.02589 -5.15415,1.18369 -6.96952,-0.92285c-3.32209,0.69166 -6.6874,1.37712 -10.08642,1.1568c-1.30566,-0.08463 -2.80385,0.28215 -3.90157,-0.42983c-1.00997,-0.65506 -1.02559,-2.18716 -1.68554,-3.19394c-0.22417,-0.34199 -0.61463,-0.73184 -1.08703,-1.13238l-2.56174,-0.85391c-1.02156,-0.31417 -1.76412,-1.26534 -1.76412,-2.38994c0,-0.92661 0.50412,-1.73548 1.25305,-2.1673l2.46071,-1.47643l0.03171,0.05286l0.14362,-0.14874c2.86667,-1.14667 5.30757,-2.61321 8.25101,-3.60785c0.42415,-0.16944 0.83105,-0.41523 1.24889,-0.61259c-0.68004,-0.75963 -1.20739,-1.69424 -1.84991,-2.48921c-2.73322,-3.38171 -4.55032,-7.63607 -5.28252,-11.97175c-0.24937,-0.03822 -0.49832,-0.08065 -0.74685,-0.12754c0,0 -2.45145,-0.49029 -1.96116,-2.94174c0.32846,-1.64234 1.53715,-1.96435 2.29924,-1.998c-0.01968,-4.28908 0.76193,-8.95564 3.0651,-12.38795c1.49258,-2.22431 3.6437,-3.81727 5.8941,-5.28373c-0.68715,0.0435 -1.37407,0.0922 -2.06065,0.14779c-1.56819,0.12696 -2.87919,1.27198 -4.34485,1.84397c-0.28979,0.11309 -1.03359,0.27287 -1.90711,0.43772c-0.0722,0.14912 -0.14082,0.3003 -0.20571,0.45344c-0.2774,-0.0868 -0.55385,-0.17519 -0.8289,-0.26551c-1.31061,0.23046 -2.6341,0.43938 -3.04877,0.50854c0,0 -2.46598,0.411 -2.87698,-2.05499c-0.07981,-0.47887 -0.05113,-0.88026 0.04691,-1.21618c-0.45799,-0.3481 -0.91814,-0.69252 -1.42931,-0.94903c-1.89517,-0.95099 -3.74491,-1.73519 -5.34355,-2.95013zM76.61468,197.18866c0.39445,1.03674 1.14252,1.92189 1.49124,2.97489c0.72973,2.20353 0.48013,4.69641 1.42635,6.81602c0.83854,1.87841 2.67357,3.19223 3.52743,5.06372c2.28502,5.00827 2.63496,11.30643 6.13447,15.88501c1.41934,1.857 5.05009,2.77768 7.01254,3.762c3.90866,1.29621 8.32387,3.1719 12.39004,3.83386c2.86956,0.46716 5.99416,0.19847 8.89959,0.488c3.24326,0.3232 6.65739,0.97676 9.9482,0.50656c7.31607,-1.04533 14.04419,-5.17871 19.80546,-9.51873l0.62167,-0.41623c-0.36315,-1.17098 -0.96153,-1.99918 -1.70953,-2.58382c0.05616,-0.00798 0.11232,-0.01576 0.16847,-0.02333c-0.70898,-2.588 -1.05935,-5.40828 -1.7309,-7.77766c-0.97879,-3.45337 -1.10505,-6.39953 -1.10221,-9.90257c-2.79835,-0.83751 -5.62317,-1.71454 -8.4505,-2.28775c-0.749,0.29961 -1.49558,0.60945 -2.25641,0.86307c-3.40776,1.1064 -4.59195,3.01037 -7.47624,4.75491c-0.95161,0.57557 -2.18776,0.5373 -3.15407,1.08783c-2.4604,1.40175 -4.44647,3.54359 -6.90545,4.94782c-1.22358,0.69874 -2.61624,1.09089 -3.79304,1.86583c-0.9433,0.62118 -1.46082,1.85121 -2.50507,2.28159c-0.99645,0.41069 -2.20794,-0.25221 -3.23225,0.08303c-1.26155,0.41288 -2.06527,2.07468 -3.39262,2.08515c-6.67141,0.05263 -6.47716,-5.02132 -5.8131,-9.78334c0.47943,-3.4381 1.45018,-6.72256 2.01355,-10.09499c0.40512,-2.42512 0.38945,-4.93511 1.06742,-7.29852c1.01632,-3.54292 3.06745,-6.14923 4.27367,-9.61536c2.65186,-2.72653 5.55769,-5.87429 8.78042,-8.52961c-0.27705,-0.24531 -0.54871,-0.49409 -0.81523,-0.74622c2.319,-0.3105 4.51513,-1.22452 5.72394,-2.65935c1.19818,-0.66421 2.43606,-1.22161 3.71607,-1.63689c-5.22203,-5.77512 -5.66842,-16.54475 -5.01642,-23.85992c0.21353,-2.39575 0.44425,-4.57662 0.5,-7.00731c0.00879,-0.38306 0.32328,-0.8638 0.06585,-1.1476c-0.29252,-0.32248 -0.86217,-0.12369 -1.29038,-0.20238c-3.58191,-0.65824 -3.79009,-0.36726 -6.399,2.24165c-1.69598,2.19874 -1.93723,4.10235 -2.4296,6.8127c-0.81912,4.50904 -1.79809,7.94954 -1.16062,12.5658l1.20158,1.4835c0,0 1.5,2 -0.5,3.5c-2,1.5 -3.5,-0.5 -3.5,-0.5l-1.79842,-2.5165c-0.77549,-4.22655 -0.8257,-9.1905 0.05588,-13.8886c-9.33858,4.19397 -15.2372,19.44195 -8.75746,27.9051l0.88675,0.41987c0,0 2.08013,1.38675 0.69338,3.46688c-1.38675,2.08013 -3.46688,0.69338 -3.46688,0.69338l-2.11325,-1.58013c-2.2674,-3.07177 -3.41203,-6.66641 -3.63246,-10.3875c-2.94155,7.41048 -0.71637,16.59975 2.75909,23.57317l1.37337,1.81433c0,0 1.5,2 -0.5,3.5c-2,1.5 -3.5,-0.5 -3.5,-0.5l-1.62663,-2.18567c-1.74053,-3.47224 -3.14552,-7.25714 -3.97309,-11.11958c-2.13641,3.62817 -4.15065,8.24907 -2.5356,12.49391zM134.54057,198.62829l0.573,0.20072c1.2625,-0.41678 2.36903,-0.77668 2.48594,-0.79673c0.98561,-0.16905 2.01361,0.1644 3,0c1.03975,-0.17329 1.94591,-1.00074 3,-1c1.84033,0.0013 4.25355,-0.41043 5.42856,1.00595c1.04166,1.25564 -0.4452,3.23483 -0.56038,4.86223c-0.00736,0.10394 -0.01255,0.20795 -0.01598,0.312c0.29655,0.4682 0.44895,1.11036 0.2021,1.97434c-0.04437,0.1553 -0.09591,0.2977 -0.1535,0.42821c0.00014,2.16225 -0.33835,4.34473 -0.03261,6.48455c0.33336,2.33315 1.38601,4.50764 1.95763,6.79412c0.33775,1.35101 0.48098,2.79044 0.83544,4.14002l0.44866,-0.1554c0,0 2.37171,-0.79057 3.16228,1.58114v-0.00001c0.48608,1.45823 -0.22329,2.31874 -0.84184,2.76528c1.21619,0.85286 2.6293,1.31272 4.06849,2.02952c1.0758,0.53582 1.92715,1.4583 3,2c0.83621,0.42221 1.72478,0.79227 2.64387,1.12788c0.20496,-0.06139 0.40726,-0.13197 0.60627,-0.2139c1.5001,-0.61755 2.94817,-1.48929 4.50021,-1.92512c0.37375,-0.64641 1.26048,-1.67524 2.94185,-1.11479c0.46802,0.156 0.8129,0.37359 1.06501,0.62236c5.04579,-0.36643 10.16071,-0.29156 15.18822,-0.74213c6.85257,-0.61413 13.25475,-2.50852 20.2062,-2.50852c3.60623,0.05472 5.60823,0.86546 8.5,3l1.97672,1.48254c0.62044,0.45492 1.02328,1.18914 1.02328,2.01746c0,1.38071 -1.11929,2.5 -2.5,2.5c-0.18573,0 -0.36673,-0.02025 -0.54091,-0.05867l-2.44938,-0.48988l0.01126,-0.0563c-0.0777,0.00144 -0.15548,0.00187 -0.23334,0.00121c-1.38067,-0.01166 -2.6709,-1.07709 -4.04129,-0.90852c-0.21789,0.0268 -0.43543,0.05636 -0.65254,0.08866c2.33191,2.39506 4.17376,4.51033 6.04993,7.63727l0.12403,0.01847c0,0 0.14596,0.14596 0.31206,0.39595c0.11389,-0.04236 0.22805,-0.08387 0.34247,-0.1245c0.52551,-0.45518 1.127,-0.54771 1.62828,-0.51251c2.72176,-0.74635 5.56579,-0.96983 8.43971,-0.44263c0,0 0.03691,0.00738 0.10077,0.02486c0.85802,-0.31342 1.725,-0.64733 2.61837,-0.94512l0.00002,-0.00001c0,0 0.04155,-0.01385 0.11548,-0.03238c1.37518,-1.43164 2.61923,-2.97286 3.65494,-4.65321l-2.09789,-0.70663c0,0 -2.23607,-1.11803 -1.11803,-3.3541c1.11803,-2.23607 3.3541,-1.11803 3.3541,-1.11803l0.39168,0.78462c0.50547,-0.09394 1.01538,-0.14368 1.52802,-0.16552c0.35975,-0.48135 0.96017,-0.88303 1.96227,-0.88303c1.07689,0 1.6899,0.46387 2.03885,0.99199c0.15388,0.00408 0.30761,0.00689 0.46115,0.00801c2.37053,0.01723 5.22694,-0.99487 7.5493,-1.45904c3.6019,-0.60071 7.65317,-1.02232 11.04921,-2.37277c4.33328,-1.72314 8.22463,-5.29172 11.86212,-8.13805c3.51721,-2.75222 7.87601,-5.38491 9.7571,-9.55056c1.09842,-2.43244 1.24599,-4.79041 1.14541,-7.1799c-2.5592,4.00048 -6.0779,7.46564 -8.86315,11.20032l-2.5,1c0,0 -2.5,0 -2.5,-2.5c0,-1.53071 0.93723,-2.12419 1.66399,-2.35429c3.81638,-4.77513 9.12132,-9.37233 10.38112,-15.61848c0.63758,-3.16114 -0.53729,-6.54321 -1.01283,-9.62678c-0.32873,-2.13164 -0.03779,-4.41116 -0.8307,-6.41696c-1.00569,-2.54404 -3.47389,-4.05559 -5.91382,-5.19269c0.55158,7.78436 0.79863,16.85533 -3.75966,23.17097c-1.44193,1.99783 -3.14585,3.11961 -5.02811,4.53822c-0.66667,0.5 -1.33333,1 -2,1.5l-0.23223,0.26777c0,0 -1.76777,1.76777 -3.53553,0c-1.76777,-1.76777 0,-3.53553 0,-3.53553l0.76777,-0.73223c0.66667,-0.5 1.33333,-1 2,-1.5c8.56187,-6.38525 7.1869,-17.7625 6.51217,-27.25366c-0.28573,-4.01925 -0.32409,-7.40247 -1.80561,-11.25129c-0.39098,-1.01571 -1.49908,-2.80323 -2.7312,-3.05072c-1.35797,-0.27278 -2.70873,0.37098 -4.06923,0.7807c0.02046,0.34577 0.04708,0.68885 0.0817,1.02862c0.71326,6.99982 1.51217,13.68183 1.51217,20.74634l-0.62829,2.29057c0,0 -0.79057,2.37171 -3.16228,1.58114c-2.37171,-0.79057 -1.58114,-3.16228 -1.58114,-3.16228l0.37171,-0.70943c0,-6.90169 -0.81512,-13.41529 -1.48783,-20.25366c-0.35014,-3.55928 0.04993,-7.24201 -0.46706,-10.77358c-0.47404,-3.23814 -3.60924,-4.94046 -6.42418,-2.56946c-2.24712,1.89274 -1.11963,7.85768 -1.13309,10.35034c0.68474,3.4237 0.51217,6.75907 0.51217,10.24634c0,6.69669 -0.1885,13.94915 -2.63532,20.31134c-1.6051,4.17357 -2.13237,4.08043 -4.23806,7.50299c-3.15477,5.12774 -6.02884,10.89041 -11.2504,14.27277c-2.42716,1.57224 -5.62723,1.81261 -8.38594,2.36435c0,0 -2.45145,0.49029 -2.94174,-1.96116c-0.49029,-2.45145 1.96116,-2.94174 1.96116,-2.94174c1.93089,-0.38618 4.93099,-0.46466 6.61406,-1.63565c0.32407,-0.22547 0.63737,-0.46063 0.94082,-0.70461c-0.0412,-0.08176 -0.08262,-0.1656 -0.1243,-0.25157c-0.47952,-0.98924 0.00829,-6.42204 -0.15802,-7.55625c-0.15293,-1.04294 -0.85093,-1.9565 -1,-3c-0.19304,-1.35129 0.15291,-2.74017 -0.01355,-4.09499c-0.50629,-4.12063 -2.24522,-7.61936 -3.82843,-11.34875c-0.36026,-0.84862 -0.33867,-1.8542 -0.81692,-2.64238c-0.48908,-0.80603 -1.51844,-1.18946 -2,-2c-1.6348,-2.75164 -1.86588,-7.2497 -4.52788,-9.44014c-0.11264,-0.09268 -0.22986,-0.17812 -0.35085,-0.25762c-0.37033,0.36311 -0.9222,0.63367 -1.74464,0.63367c-2.11332,0 -2.44019,-1.78645 -2.49075,-2.33908c-3.82988,-1.11291 -7.39926,-1.50246 -11.36559,-2.48582c-6.01747,-1.49188 -11.78377,-2.91892 -17.79412,-3.95763c-2.16774,-0.37463 -4.39967,0.03228 -6.59955,0.03228c-2.19987,0 -4.4318,-0.40691 -6.59955,-0.03228c-1.03869,0.17951 -1.9565,0.85093 -3,1c-4.65111,0.66443 -9.2537,0.70125 -13.85514,1.73281c-0.79764,1.55211 -0.81209,3.7724 -0.91954,5.60633c0.94198,0.23491 1.84557,0.57667 2.68856,1.06651c3.50448,2.0364 5.86148,7.75556 9.77014,9.31144c0.84775,-0.14216 1.7909,0.09928 2.66553,0.06518c0,0 0.7156,0 1.38109,0.38286c0.49017,-0.03321 0.96113,-0.09458 1.417,-0.1801c0.02652,-0.08122 0.05325,-0.16234 0.0802,-0.24333c0,0 0.79057,-2.37171 3.16228,-1.58114c0.32093,0.10698 0.58396,0.24291 0.79888,0.398c2.00763,-0.99192 3.96852,-2.26427 6.39916,-3.31257c1.262,-0.54429 2.73655,-0.4591 4,-1c1.07581,-0.46056 1.86463,-1.43953 2.913,-1.95951c0.1866,-0.09255 5.93067,-2.0002 6.30781,-2.12592c3.59536,-1.16236 9.73619,-2.22106 13.51503,-1.02102c2.15296,0.68371 3.9176,2.32346 6.06611,3.02102l0.20943,-0.12829c0,0 2.5,0 2.5,2.5c0,2.5 -2.5,2.5 -2.5,2.5l-0.97593,-0.06993c0.71941,2.08974 0.46749,4.37396 0.47593,6.56993c0.01622,4.22154 0.17649,7.75472 -1.12829,11.79057c-1.81519,5.33279 -5.83944,12.63688 -11.64725,14.60216c-1.17647,0.3981 -2.48261,0.08746 -3.72446,0.10727c-3.85619,0.06152 -6.99861,-0.05091 -10.69897,-1.0997c-4.24923,-1.20436 -8.71515,-1.34399 -12.06879,-4.63253c-0.7811,-0.76594 -1.46689,-1.56698 -2.06493,-2.39738c-1.36326,0.69891 -2.76134,1.19036 -4.17591,1.49531c1.02033,0.31647 1.98871,0.76553 3.60599,1.77872c4.5918,2.87664 8.27851,6.6659 12.93885,9.4621l1.60051,1.06361c0,0 0.1445,0.09634 0.33194,0.27631c0.14543,-0.35794 0.25689,-0.75196 0.32986,-1.18647c0,0 0.49029,-2.45145 2.94174,-1.96116c2.45145,0.49029 1.96116,2.94174 1.96116,2.94174c-0.22306,1.01004 -0.21483,2.10088 -0.66918,3.03014c-2.44992,5.01063 -9.17939,5.51806 -14.03592,6.46741l-2.74634,0.01217c0,0 -2.5,0 -2.5,-2.5c0,-2.5 2.5,-2.5 2.5,-2.5l2.25366,0.01216c1.86286,-0.38281 3.99535,-0.57274 5.84206,-1.11287l-0.38196,-0.25556c-4.71842,-2.83105 -8.47111,-6.56027 -13.06115,-9.53789c-2.42711,-1.5745 -3.33848,-1.40581 -6.29927,-2.19093c-5.0276,-1.33318 -9.61861,-2.43435 -14.85334,-2.41491c-6.46896,-0.01442 -14.49313,0.12637 -20.68866,2.36468c-3.86477,1.39625 -5.78991,4.14412 -8.54358,6.90309c-2.91612,2.92174 -5.49542,5.94021 -7.99365,9.11401c0.52148,0.10721 1.04604,0.23979 1.51918,0.05828c0.70884,-0.27195 0.86585,-1.29336 1.49493,-1.71841c1.30291,-0.88034 2.84191,-1.35364 4.20696,-2.13417c2.52029,-1.44108 4.57565,-3.60867 7.09455,-5.05218c0.86432,-0.49532 1.98955,-0.40327 2.84593,-0.91217c0.71667,-0.42588 1.07511,-1.29006 1.72936,-1.80673c1.99201,-1.57315 4.3915,-2.62045 6.7944,-3.43836c0.03984,-0.01328 0.11699,-0.03907 0.22499,-0.07517c0.84068,-2.17999 3.10618,-1.42483 3.10618,-1.42483zM119.58013,178.63675c-0.67608,1.01412 -1.51696,1.20422 -2.20126,1.13273c-0.24702,0.20575 -0.49357,0.41275 -0.74087,0.61915c-3.02425,2.52405 -5.68319,4.69878 -8.51138,7.4257c-0.97181,3.07158 -2.84724,5.29227 -3.72633,8.38464c-1.18367,4.16382 -1.31827,8.4013 -1.91903,12.60649c-0.12099,0.84694 -0.38975,1.87417 -0.66592,2.95295c2.55079,-3.2285 5.19278,-6.30787 8.16689,-9.27593h0.00001c2.4685,-2.46348 3.87734,-4.55648 7.01295,-6.3945c7.16369,-4.1992 17.68393,-4.32175 25.75481,-4.33773c1.55264,0.00489 3.05829,0.09166 4.53831,0.24516c-6.47859,-4.0665 -11.60492,-10.8947 -12.98976,-17.75512c0,0 -0.01889,-0.09444 -0.03072,-0.24995c-2.37508,0.42075 -4.57424,1.64166 -6.96237,1.99093c-0.95815,0.14013 -1.94807,-0.16176 -2.90501,-0.01355c-1.68392,0.26081 -3.10756,0.93948 -4.41812,1.80728c-0.07207,0.27115 -0.20045,0.55911 -0.40221,0.86175zM203.86137,140.88825c-3.89023,-3.87181 -7.77396,-7.3648 -12.63179,-9.85574c-1.63136,-0.83651 -4.97174,0.40238 -6.52887,0.67677c-4.31136,0.75974 -5.47241,2.62984 -7.93266,6.01659c-2.52294,3.47305 -4.15506,6.00261 -5.16769,9.79521c2.77283,-0.0181 5.57476,0.15229 7.8001,0.5112c1.04065,0.16784 1.9565,0.85092 3,1c2.76093,0.39443 5.61387,0.3118 8.29852,1.06742c3.4769,0.9786 7.01154,2.41231 10.60649,2.91903c2.18187,0.30754 4.06759,0.62983 6.01197,1.10903c-0.40229,-4.67055 -0.21889,-8.97387 -3.45606,-13.23951zM234.59738,254.89416c1.70315,1.07445 3.73815,1.48067 5.62717,2.19696c-1.82084,-1.414 -3.46771,-3.05084 -5.24233,-4.82336l-2,-2c0,0 -1.76777,-1.76777 0,-3.53553c1.76777,-1.76777 3.53553,0 3.53553,0l2,2c0.80612,0.80712 1.58119,1.60045 2.3667,2.35566c0.39241,0.11276 0.65177,0.26838 0.65177,0.26838c1.05462,0.69314 2.40676,1.06973 3.16387,2.07941c0.19968,0.26629 0.41362,0.6581 0.61998,1.13279c0.69685,0.40231 1.43846,0.76114 2.24125,1.06684c2.96549,1.12925 6.63715,1.21006 9.73713,1.92559c1.31664,0.30391 2.63299,0.61397 3.93211,0.98572c0.66202,0.18944 1.2704,0.83421 1.94499,0.69603c0.38193,-0.07824 0.11786,-0.77479 0.24262,-1.14415c0.10434,-0.3089 0.57812,-0.57914 0.43907,-0.87405c-0.33581,-0.71222 -1.10608,-1.30096 -2.0557,-1.79453c-0.63349,0.13863 -1.91589,0.22341 -2.66651,-1.07395c-1.28412,-0.42209 -2.51278,-0.74194 -3.24496,-1.00852c-1.69705,-0.61789 -4.60572,-1.89861 -6.1249,-2.5496c0,0 -2.29786,-0.9848 -1.31306,-3.28266c0.9848,-2.29786 3.28266,-1.31306 3.28266,-1.31306c3.07787,1.31927 6.97862,2.25439 10.26419,3.83326l1.27824,-0.49029c0.10511,0.00095 3.36815,0.24116 3.84614,-0.35944c0.21696,-0.27261 -0.28938,-0.63934 -0.36485,-0.97947c-0.37509,-1.69037 0.00289,-6.59196 -1.84145,-7.59118c-1.84893,-1.00171 -6.26426,-0.4715 -8.32241,-0.61985c-4.03625,-0.29093 -8.09721,-1.06368 -12.12074,-1.51046c0,0 -2.48471,-0.27608 -2.20863,-2.76079c0.00194,-0.01742 0.00398,-0.0347 0.00613,-0.05185c-1.02988,0.19048 -2.0488,0.32177 -3.02142,0.32793c-0.36493,0.00231 -0.73173,-0.01587 -1.09916,-0.04194c-2.40922,4.76993 -6.13886,8.62602 -10.3391,11.99411c0,0 -0.00008,0.00006 -0.00023,0.00018c2.01638,2.65427 4.31458,5.38277 6.78587,6.94181zM179.79855,194.75971c0.22306,-1.01004 0.44612,-2.02009 0.66918,-3.03014c0.81644,-1.03153 1.36951,-2.34318 2.44933,-3.09459c1.49633,-1.04125 3.59447,-0.80345 5.22203,-1.6246c2.14714,-1.0833 3.50281,-2.37113 5.74173,-3.05851c0.17215,-0.05285 -0.36859,-0.01008 -0.53413,-0.08095c-0.51888,-0.22215 -0.96378,-0.60744 -1.49818,-0.78912c-0.9524,-0.32378 -2.14885,-0.08476 -2.93144,-0.71679c-3.57692,-2.88878 -2.61097,-6.42053 -0.99887,-10.0165c3.01986,-6.73616 9.26897,-5.83311 14.41714,-2.98768c-1.38016,-1.15131 -3.21071,-1.77312 -4.72208,-2.7807l-1.1457,-0.55857c-1.90377,0.02081 -3.58218,0.12457 -5.67698,0.85015c-1.89508,0.6317 -3.90859,0.97457 -5.69219,1.87408c-1.10135,0.55543 -1.95344,1.55417 -3.087,2.04049c-1.26304,0.54188 -2.73542,0.46173 -4,1c-1.02266,0.4353 -1.79109,1.32536 -2.75657,1.87599c-1.84141,1.05018 -3.76665,1.96288 -5.75972,2.60432c-1.44636,5.75665 -1.35818,11.69111 3.27267,16.46564c1.70418,1.75706 4.45786,2.26968 7.01341,2.73962zM155.07059,188.02519c0.21902,-0.29673 3.56413,-3.92545 3.24134,-4.72216c-0.28437,-0.70189 -1.19557,-1.04354 -1.43365,-1.76245c-0.29541,-0.89203 0.06542,-1.88995 -0.08318,-2.8178c-0.19872,-1.24086 -1.40812,-2.4767 -0.95226,-3.64777c0.03574,-0.09181 0.07522,-0.18175 0.1182,-0.26986c-2.96686,-2.37555 -4.81444,-5.98721 -8.27538,-8.17852c-0.30212,-0.19129 -0.63746,-0.34683 -0.99883,-0.47232c-0.83083,2.63922 -2.22598,5.33357 -4.45509,6.5212c-0.92294,0.49173 -1.93187,0.72975 -2.97586,0.86424c0.27061,1.41267 0.58927,3.31908 1.20856,4.55c2.41282,4.79573 7.96501,9.76971 13.86011,11.76255zM194.25,265c0,2.09292 -1.75212,2.43371 -2.32272,2.48921c0.13762,0.33817 0.27523,0.67634 0.41285,1.0145c0.44756,0.0288 2.40988,0.28139 2.40988,2.49629c0,2.5 -2.5,2.5 -2.5,2.5c-0.14819,-0.01112 -0.30068,-0.01179 -0.45687,-0.00257c-0.16272,0.03876 -0.32151,0.05579 -0.47469,0.05601c-3.11479,0.54045 -7.36307,4.49125 -8.53129,7.91737c0.55358,0.67732 0.52666,1.4699 0.4095,2.01005c0.19109,-0.06854 0.37771,-0.16348 0.49742,-0.24691c0.81422,-0.56744 1.3683,-1.54467 2.29724,-1.89396c1.63488,-0.61474 3.77276,-1.97108 5.16027,-0.91016c2.35791,1.80291 1.46421,5.11592 0.29122,7.37108c0.44087,-0.22332 0.89615,-0.42114 1.3505,-0.61061c1.28988,-0.53789 2.73857,-0.90816 3.75252,-1.86994c0.56427,-1.20222 0.43023,-3.19479 1.6928,-3.60664c1.54463,-0.50385 3.13836,0.88509 4.62229,1.54667c0.33391,0.14887 0.34858,0.82484 0.71409,0.83247c0.2725,0.00569 -0.07806,-0.55525 -0.0044,-0.81766c0.17045,-0.60726 0.62553,-1.12505 0.72452,-1.74796c0.42831,-2.69516 -0.09836,-5.37556 -0.96136,-7.88556l-0.45125,-2.23547c-1.09938,-0.40112 -1.50421,-1.61563 -1.50421,-1.61563l-0.57974,-1.80028c-0.16927,-0.86595 -0.3324,-1.75522 -0.47286,-2.65809c-2.03707,-0.10298 -4.05897,-0.26442 -6.08019,-0.51283c0.00297,0.05871 0.00449,0.11891 0.00449,0.18063zM175.37625,269.10123c1.08345,1.20269 3.61753,1.89472 3.37192,3.49471c-0.36075,2.35001 -5.08282,3.92845 -7.13827,4.75153c-2.03728,0.66853 -3.80826,1.60375 -5.67515,2.48102c0.5344,0.53427 0.98605,1.18084 1.40236,1.79528c0.34277,0.50589 -0.12328,1.37968 0.31446,1.80606c0.28165,0.27434 0.70821,-0.38166 1.09843,-0.42983c0.77567,-0.09575 1.56539,0.06459 2.34465,0.00483c2.11431,-0.16213 4.17923,-0.54628 6.24368,-0.96353c0.49957,-4.6956 5.80679,-9.31032 8.91167,-11.5413c0.39341,-0.28268 0.76445,-0.61279 1.14577,-0.92325c-0.18444,-0.46771 -0.36886,-0.93541 -0.5533,-1.40312c-0.05877,-0.34561 -0.12291,-0.69054 -0.19134,-1.03494c-4.36053,-0.34514 -8.76197,0.09797 -13.116,-0.24966c0.57856,0.75799 1.1949,1.49484 1.84112,2.21219zM192.46376,245.64373c0,0 -0.25628,-0.15377 -0.53847,-0.4436c-0.97722,1.63597 -1.73057,3.42064 -2.20872,5.33573c0.73041,0.10179 1.62319,0.51546 1.95878,1.8578c0.60634,2.42535 -1.81902,3.03169 -1.81902,3.03169l-0.64846,0.14298c0.07945,1.14058 0.28149,2.29226 0.54089,3.44367c3.3906,0.72022 6.74305,1.09877 10.13446,1.29336c-0.00592,-2.09895 0.26286,-4.17629 1.00209,-6.11671c0.39947,-1.04857 0.8575,-1.91849 1.37225,-2.67087c-3.26507,-1.96139 -6.52367,-3.91728 -9.7938,-5.87406zM195.03624,241.35627c3.66025,2.20158 7.30116,4.3847 10.96242,6.57868c0.85423,-0.61305 1.78043,-1.2319 2.77571,-1.95299c0.78028,-0.56532 1.58724,-1.10163 2.41728,-1.60004l-0.08538,-0.09567c-2.05078,-3.41798 -3.83253,-5.23862 -6.62403,-8.01847c0,0 -0.3062,-0.30619 -0.53628,-0.79115c-3.41037,1.28232 -6.52818,3.26355 -9.01496,5.82322c0.06786,0.034 0.10524,0.05643 0.10524,0.05643zM188.53839,241c1.88791,-2.82897 4.25735,-5.29753 6.83538,-7.08711c0.26466,-0.18372 2.18706,-0.93546 3.67365,-1.51924c-3.50317,0.57138 -6.98379,1.2655 -10.59122,1.59783c-2.21407,0.20397 -4.43285,0.32709 -6.65335,0.42595c-0.24669,0.33919 -0.49112,0.53474 -0.49112,0.53474c-2.60231,2.07235 -6.30281,3.65306 -8.86338,6.04783c4.93388,0 9.86776,0 14.80164,0zM185.8821,246c-5.31201,0 -11.40914,0 -16.46289,0c-0.66445,2.21653 -0.8487,4.68969 -0.80101,6.98455c5.15005,0.01502 10.64799,-1.41066 15.81526,-1.85442c0.27411,-1.72996 0.77089,-3.45623 1.44864,-5.13013zM184.82465,260.39366c0.03817,-0.15268 0.08354,-0.29334 0.13508,-0.42291c-0.28196,-1.27456 -0.52016,-2.5557 -0.66002,-3.8508c-5.03083,0.38414 -10.14764,1.56815 -15.16819,1.72868c0.28393,1.27789 0.69237,2.50496 1.20491,3.68543c0.50663,-0.06497 0.90386,0.01448 0.90386,0.01448c4.48499,0.92167 9.11568,0.48606 13.70843,0.56666c-0.21543,-0.43255 -0.30558,-0.99555 -0.12408,-1.72155z" fill="#000000" stroke-width="0.5"></path><path d="M76.56633,197.2014c-1.61505,-4.24484 0.39778,-8.88331 2.53419,-12.51148c0.82757,3.86244 2.33054,7.63893 4.07107,11.11117l1.62529,2.1815c0,0 1.4075,2.03785 3.4075,0.53785c2,-1.5 0.49783,-3.50578 0.49783,-3.50578l-1.37444,-1.81845c-3.47546,-6.97342 -5.69333,-16.20102 -2.75178,-23.6115c0.22043,3.72109 1.45406,7.35932 3.72146,10.43109l2.1138,1.57836c0,0 1.9855,1.3547 3.37225,-0.72543c1.38675,-2.08013 -0.69043,-3.47317 -0.69043,-3.47317l-0.88682,-0.41975c-6.47974,-8.46315 -0.55093,-23.73506 8.78765,-27.92903c-0.88158,4.6981 -0.7976,9.75591 -0.02211,13.98246l1.75922,2.42451c0,0 1.5064,1.99786 3.5064,0.49786c2,-1.5 0.52263,-3.40263 0.52263,-3.40263l-1.2232,-1.58112c-0.63747,-4.61626 0.3465,-8.05769 1.16562,-12.56673c0.49237,-2.71035 0.73717,-4.6143 2.43315,-6.81304c2.60891,-2.60891 2.82381,-2.89985 6.40572,-2.24161c0.42821,0.07869 0.9992,-0.11998 1.29172,0.2025c0.25743,0.2838 -0.05701,0.76455 -0.0658,1.14761c-0.05575,2.43069 -0.28621,4.61159 -0.49974,7.00734c-0.652,7.31517 -0.18609,18.09113 5.03594,23.86625c-1.28001,0.41528 -2.56065,1.06275 -3.75883,1.72696c-1.20881,1.43483 -3.38658,2.35216 -5.70558,2.66266c0.26652,0.25213 0.53459,0.50081 0.81164,0.74612c-3.22273,2.65532 -6.07802,5.76905 -8.72988,8.49558c-1.20622,3.46613 -3.26113,6.03215 -4.27745,9.57507c-0.67797,2.36341 -0.6716,4.86146 -1.07672,7.28658c-0.56337,3.37243 -1.54165,6.65103 -2.02108,10.08913c-0.66406,4.76202 -0.87153,9.83006 5.79988,9.77743c1.32735,-0.01047 2.12704,-1.67323 3.38859,-2.08611c1.02431,-0.33524 2.23092,0.32696 3.22737,-0.08373c1.04425,-0.43038 1.55793,-1.66062 2.50123,-2.2818c1.1768,-0.77494 2.56273,-1.16675 3.78631,-1.86549c2.45898,-1.40423 4.43054,-3.54206 6.89094,-4.94381c0.96631,-0.55053 2.19669,-0.50921 3.1483,-1.08478c2.88429,-1.74454 4.05591,-3.6375 7.46367,-4.7439c0.76083,-0.25362 1.50517,-0.56049 2.25417,-0.8601c2.82733,0.57321 5.73634,1.50405 8.53469,2.34156c-0.00284,3.50304 0.11801,6.45676 1.0968,9.91013c0.67155,2.36938 1.01863,5.19311 1.72761,7.78111c-0.05615,0.00757 -0.11241,0.01545 -0.16857,0.02343c0.748,0.58464 1.34601,1.41319 1.70916,2.58417l-0.62219,0.4167c-5.76127,4.34002 -12.50771,8.48392 -19.82378,9.52925c-3.29081,0.4702 -6.71439,-0.18133 -9.95765,-0.50453c-2.90543,-0.28953 -6.03927,-0.02063 -8.90883,-0.48779c-4.06617,-0.66196 -8.49478,-2.54047 -12.40344,-3.83668c-1.96245,-0.98432 -5.60099,-1.90858 -7.02033,-3.76558c-3.49951,-4.57858 -3.8631,-10.88814 -6.14812,-15.89641c-0.85386,-1.87149 -2.69361,-3.19201 -3.53215,-5.07042c-0.94622,-2.11961 -0.70054,-4.62081 -1.43027,-6.82434c-0.34872,-1.053 -1.09814,-1.94247 -1.49259,-2.97921z" data-paper-data="{&quot;noHover&quot;:false,&quot;origItem&quot;:[&quot;Path&quot;,{&quot;applyMatrix&quot;:true,&quot;segments&quot;:[[[76.61468,197.18866],[0,0],[0.39445,1.03674]],[[78.10592,200.16355],[-0.34872,-1.053],[0.72973,2.20353]],[[79.53227,206.97957],[-0.94622,-2.11961],[0.83854,1.87841]],[[83.0597,212.04329],[-0.85386,-1.87149],[2.28502,5.00827]],[[89.19417,227.9283],[-3.49951,-4.57858],[1.41934,1.857]],[[96.20671,231.6903],[-1.96245,-0.98432],[3.90866,1.29621]],[[108.59675,235.52416],[-4.06617,-0.66196],[2.86956,0.46716]],[[117.49634,236.01216],[-2.90543,-0.28953],[3.24326,0.3232]],[[127.44454,236.51872],[-3.29081,0.4702],[7.31607,-1.04533]],[[147.25,226.99999],[-5.76127,4.34002],[0,0]],[[147.87167,226.58376],[0,0],[-0.36315,-1.17098]],[[146.16214,223.99994],[0.748,0.58464],[0.05616,-0.00798]],[[146.33061,223.97661],[-0.05615,0.00757],[-0.70898,-2.588]],[[144.59971,216.19895],[0.67155,2.36938],[-0.97879,-3.45337]],[[143.4975,206.29638],[-0.00284,3.50304],[-2.79835,-0.83751]],[[135.047,204.00863],[2.82733,0.57321],[-0.749,0.29961]],[[132.79059,204.8717],[0.76083,-0.25362],[-3.40776,1.1064]],[[125.31435,209.62661],[2.88429,-1.74454],[-0.95161,0.57557]],[[122.16028,210.71444],[0.96631,-0.55053],[-2.4604,1.40175]],[[115.25483,215.66226],[2.45898,-1.40423],[-1.22358,0.69874]],[[111.46179,217.52809],[1.1768,-0.77494],[-0.9433,0.62118]],[[108.95672,219.80968],[1.04425,-0.43038],[-0.99645,0.41069]],[[105.72447,219.89271],[1.02431,-0.33524],[-1.26155,0.41288]],[[102.33185,221.97786],[1.32735,-0.01047],[-6.67141,0.05263]],[[96.51875,212.19452],[-0.66406,4.76202],[0.47943,-3.4381]],[[98.5323,202.09953],[-0.56337,3.37243],[0.40512,-2.42512]],[[99.59972,194.80101],[-0.67797,2.36341],[1.01632,-3.54292]],[[103.87339,185.18565],[-1.20622,3.46613],[2.65186,-2.72653]],[[112.65381,176.65604],[-3.22273,2.65532],[-0.27705,-0.24531]],[[111.83858,175.90982],[0.26652,0.25213],[2.319,-0.3105]],[[117.56252,173.25047],[-1.20881,1.43483],[1.19818,-0.66421]],[[121.27859,171.61358],[-1.28001,0.41528],[-5.22203,-5.77512]],[[116.26217,147.75366],[-0.652,7.31517],[0.21353,-2.39575]],[[116.76217,140.74635],[-0.05575,2.43069],[0.00879,-0.38306]],[[116.82802,139.59875],[0.25743,0.2838],[-0.29252,-0.32248]],[[115.53764,139.39637],[0.42821,0.07869],[-3.58191,-0.65824]],[[109.13864,141.63802],[2.60891,-2.60891],[-1.69598,2.19874]],[[106.70904,148.45072],[0.49237,-2.71035],[-0.81912,4.50904]],[[105.54842,161.01652],[-0.63747,-4.61626],[0,0]],[106.75,162.50002],[[106.25,166.00002],[2,-1.5],[-2,1.5]],[102.75,165.50002],[[100.95158,162.98352],[0,0],[-0.77549,-4.22655]],[[101.00746,149.09492],[-0.88158,4.6981],[-9.33858,4.19397]],[[92.25,177.00002],[-6.47974,-8.46315],[0,0]],[93.13675,177.41989],[[93.83013,180.88677],[1.38675,-2.08013],[-1.38675,2.08013]],[90.36325,181.58015],[[88.25,180.00002],[0,0],[-2.2674,-3.07177]],[[84.61754,169.61252],[0.22043,3.72109],[-2.94155,7.41048]],[[87.37663,193.18569],[-3.47546,-6.97342],[0,0]],[88.75,195.00002],[[88.25,198.50002],[2,-1.5],[-2,1.5]],[84.75,198.00002],[[83.12337,195.81435],[0,0],[-1.74053,-3.47224]],[[79.15028,184.69477],[0.82757,3.86244],[-2.13641,3.62817]],[[76.61468,197.18868],[-1.61505,-4.24484],[0,0]]],&quot;closed&quot;:true,&quot;fillColor&quot;:[0,0,0,1]}]}" fill="#864100" stroke-width="0.5"></path><path d="M154.3457,189.89761c-5.8951,-1.99284 -11.51843,-7.01161 -13.93125,-11.80734c-0.61929,-1.23092 -0.93324,-3.15904 -1.20385,-4.57171c1.04399,-0.13449 2.05939,-0.38283 2.98233,-0.87456c2.22911,-1.18763 3.65432,-3.89969 4.48515,-6.53891c0.36137,0.12549 0.70062,0.28049 1.00274,0.47178c3.46094,2.19131 5.35903,5.83236 8.32589,8.20791c-0.04298,0.08811 -0.08195,0.17924 -0.11769,0.27105c-0.45586,1.17107 0.75717,2.43057 0.95589,3.67143c0.1486,0.92785 -0.21622,1.94134 0.07919,2.83337c0.23808,0.71891 1.14716,1.06484 1.43153,1.76673c0.32279,0.79671 -3.03947,4.44348 -3.25849,4.74021z" data-paper-data="{&quot;noHover&quot;:false,&quot;origItem&quot;:[&quot;Path&quot;,{&quot;applyMatrix&quot;:true,&quot;segments&quot;:[[[155.07059,188.02519],[0,0],[0.21902,-0.29673]],[[158.31193,183.30303],[0.32279,0.79671],[-0.28437,-0.70189]],[[156.87828,181.54058],[0.23808,0.71891],[-0.29541,-0.89203]],[[156.7951,178.72278],[0.1486,0.92785],[-0.19872,-1.24086]],[[155.84284,175.07501],[-0.45586,1.17107],[0.03574,-0.09181]],[[155.96104,174.80515],[-0.04298,0.08811],[-2.96686,-2.37555]],[[147.68566,166.62663],[3.46094,2.19131],[-0.30212,-0.19129]],[[146.68683,166.15431],[0.36137,0.12549],[-0.83083,2.63922]],[[142.23174,172.67551],[2.22911,-1.18763],[-0.92294,0.49173]],[[139.25588,173.53975],[1.04399,-0.13449],[0.27061,1.41267]],[[140.46444,178.08975],[-0.61929,-1.23092],[2.41282,4.79573]],[[154.32455,189.8523],[-5.8951,-1.99284],[0,0]]],&quot;closed&quot;:true,&quot;fillColor&quot;:[0,0,0,1]}]}" fill="#ffffff" stroke-width="0.5"></path><path d="M179.76307,195.51846c-2.55555,-0.46994 -5.32753,-0.9949 -7.03171,-2.75196c-4.63085,-4.77453 -4.73077,-10.75673 -3.28441,-16.51338c1.99307,-0.64144 3.92533,-1.5691 5.76674,-2.61928c0.96548,-0.55063 1.74297,-1.45062 2.76563,-1.88592c1.26458,-0.53827 2.75249,-0.46695 4.01553,-1.00883c1.13356,-0.48632 2.00051,-1.48785 3.10186,-2.04328c1.7836,-0.89951 3.8166,-1.23913 5.71168,-1.87083c2.0948,-0.72558 3.78527,-0.82272 5.68904,-0.84353l1.14833,0.56067c1.51137,1.00758 3.26801,1.69541 4.64817,2.84672c-5.14817,-2.84543 -11.36969,-3.72844 -14.38955,3.00772c-1.6121,3.59597 -2.51904,7.10108 1.05788,9.98986c0.78259,0.63203 1.88693,0.35433 2.83933,0.67811c0.5344,0.18168 1.07268,0.60274 1.59156,0.82489c0.16554,0.07087 0.70653,0.02746 0.53438,0.08031c-2.23892,0.68738 -3.62189,2.00343 -5.76903,3.08673c-1.62756,0.82115 -3.76067,0.58478 -5.257,1.62603c-1.07982,0.75141 -1.63815,2.061 -2.45459,3.09253c-0.22306,1.01005 -0.40643,1.92834 -0.62949,2.93838z" data-paper-data="{&quot;noHover&quot;:false,&quot;origItem&quot;:[&quot;Path&quot;,{&quot;applyMatrix&quot;:true,&quot;segments&quot;:[[[179.79855,194.75971],[0,0],[0.22306,-1.01004]],[[180.46773,191.72957],[-0.22306,1.01005],[0.81644,-1.03153]],[[182.91706,188.63498],[-1.07982,0.75141],[1.49633,-1.04125]],[[188.13909,187.01038],[-1.62756,0.82115],[2.14714,-1.0833]],[[193.88082,183.95187],[-2.23892,0.68738],[0.17215,-0.05285]],[[193.34669,183.87092],[0.16554,0.07087],[-0.51888,-0.22215]],[[191.84851,183.0818],[0.5344,0.18168],[-0.9524,-0.32378]],[[188.91707,182.36501],[0.78259,0.63203],[-3.57692,-2.88878]],[[187.9182,172.34851],[-1.6121,3.59597],[3.01986,-6.73616]],[[202.33534,169.36083],[-5.14817,-2.84543],[-1.38016,-1.15131]],[[197.61326,166.58013],[1.51137,1.00758],[0,0]],[[196.46756,166.02156],[0,0],[-1.90377,0.02081]],[[190.79058,166.87171],[2.0948,-0.72558],[-1.89508,0.6317]],[[185.09839,168.74579],[1.7836,-0.89951],[-1.10135,0.55543]],[[182.01139,170.78628],[1.13356,-0.48632],[-1.26304,0.54188]],[[178.01139,171.78628],[1.26458,-0.53827],[-1.02266,0.4353]],[[175.25482,173.66227],[0.96548,-0.55063],[-1.84141,1.05018]],[[169.4951,176.26659],[1.99307,-0.64144],[-1.44636,5.75665]],[[172.76777,192.73223],[-4.63085,-4.77453],[1.70418,1.75706]],[[179.78118,195.47185],[-2.55555,-0.46994],[0,0]]],&quot;closed&quot;:true,&quot;fillColor&quot;:[0,0,0,1]}]}" fill="#ffffff" stroke-width="0.5"></path><path d="M203.9111,140.88289c3.23717,4.26564 3.04589,8.60169 3.44818,13.27224c-1.94438,-0.4792 -3.83464,-0.79557 -6.01651,-1.10311c-3.59495,-0.50672 -7.15889,-1.92438 -10.63579,-2.90298c-2.68465,-0.75562 -5.58211,-0.68821 -8.34304,-1.08264c-1.0435,-0.14908 -1.96651,-0.84199 -3.00716,-1.00983c-2.22534,-0.35891 -5.03166,-0.53992 -7.80449,-0.52182c1.01263,-3.7926 2.64597,-6.35325 5.16891,-9.8263c2.46025,-3.38675 3.6479,-5.28515 7.95926,-6.04489c1.55713,-0.27439 4.92545,-1.51698 6.55681,-0.68047c4.85783,2.49094 8.7836,6.02799 12.67383,9.8998z" data-paper-data="{&quot;noHover&quot;:false,&quot;origItem&quot;:[&quot;Path&quot;,{&quot;applyMatrix&quot;:true,&quot;segments&quot;:[[[203.86137,140.88825],[0,0],[-3.89023,-3.87181]],[[191.22958,131.03251],[4.85783,2.49094],[-1.63136,-0.83651]],[[184.70071,131.70928],[1.55713,-0.27439],[-4.31136,0.75974]],[[176.76805,137.72587],[2.46025,-3.38675],[-2.52294,3.47305]],[[171.60036,147.52108],[1.01263,-3.7926],[2.77283,-0.0181]],[[179.40046,148.03228],[-2.22534,-0.35891],[1.04065,0.16784]],[[182.40046,149.03228],[-1.0435,-0.14908],[2.76093,0.39443]],[[190.69898,150.0997],[-2.68465,-0.75562],[3.4769,0.9786]],[[201.30547,153.01873],[-3.59495,-0.50672],[2.18187,0.30754]],[[207.31744,154.12776],[-1.94438,-0.4792],[-0.40229,-4.67055]],[[203.86138,140.88825],[3.23717,4.26564],[0,0]]],&quot;closed&quot;:true,&quot;fillColor&quot;:[0,0,0,1]}]}" fill="#ff0000" stroke-width="0.5"></path><path d="M187.26647,241.04721c-4.93388,0 -9.93181,-0.03181 -14.86569,-0.03181c2.56057,-2.39477 6.26211,-4.00917 8.86442,-6.08152c0,0 0.24767,-0.20226 0.49436,-0.54145c2.2205,-0.09886 4.51795,-0.2323 6.73202,-0.43627c3.60743,-0.33233 7.10025,-1.00651 10.60342,-1.57789c-1.48659,0.58378 -3.40853,1.33702 -3.67319,1.52074c-2.57803,1.78958 -4.9683,4.31398 -6.85621,7.14295l-1.29912,0.00526z" data-paper-data="{&quot;noHover&quot;:false,&quot;origItem&quot;:[&quot;Path&quot;,{&quot;applyMatrix&quot;:true,&quot;segments&quot;:[[187.25,241],[[188.53839,241],[0,0],[1.88791,-2.82897]],[[195.37377,233.91289],[-2.57803,1.78958],[0.26466,-0.18372]],[[199.04742,232.39365],[-1.48659,0.58378],[-3.50317,0.57138]],[[188.4562,233.99148],[3.60743,-0.33233],[-2.21407,0.20397]],[[181.80285,234.41743],[2.2205,-0.09886],[-0.24669,0.33919]],[[181.31173,234.95217],[0,0],[-2.60231,2.07235]],[[172.44835,241],[2.56057,-2.39477],[4.93388,0]],[[187.24999,241],[-4.93388,0],[0,0]]],&quot;closed&quot;:true,&quot;fillColor&quot;:[0,0,0,1]}]}" fill="#ffde00" stroke-width="0.5"></path><path d="M184.48221,251.14124c-5.16727,0.44376 -10.76031,1.87709 -15.91036,1.86207c-0.04769,-2.29486 0.13725,-4.80715 0.8017,-7.02368c5.05375,0 11.24289,0.00163 16.5549,0.00163c-0.67775,1.6739 -1.17213,3.43003 -1.44624,5.15999z" data-paper-data="{&quot;noHover&quot;:false,&quot;origItem&quot;:[&quot;Path&quot;,{&quot;applyMatrix&quot;:true,&quot;segments&quot;:[[[185.8821,246],[-0.67775,1.6739],[-5.31201,0]],[[169.41921,246],[5.05375,0],[-0.66445,2.21653]],[[168.6182,252.98455],[-0.04769,-2.29486],[5.15005,0.01502]],[[184.43346,251.13013],[-5.16727,0.44376],[0.27411,-1.72996]]],&quot;closed&quot;:true,&quot;fillColor&quot;:[0,0,0,1]}]}" fill="#ffde00" stroke-width="0.5"></path><path d="M184.874,260.40164c-0.1815,0.726 -0.09392,1.29866 0.12151,1.73121c-4.59275,-0.0806 -9.31639,0.35656 -13.80138,-0.56511c0,0 -0.39814,-0.08181 -0.90477,-0.01684c-0.51254,-1.18047 -0.92325,-2.4324 -1.20718,-3.71029c5.02055,-0.16053 10.23288,-1.35571 15.26371,-1.73985c0.13986,1.2951 0.38161,2.60068 0.66357,3.87524c-0.05154,0.12957 -0.09728,0.27297 -0.13545,0.42565z" data-paper-data="{&quot;noHover&quot;:false,&quot;origItem&quot;:[&quot;Path&quot;,{&quot;applyMatrix&quot;:true,&quot;segments&quot;:[[[184.82465,260.39366],[0,0],[0.03817,-0.15268]],[[184.95973,259.97075],[-0.05154,0.12957],[-0.28196,-1.27456]],[[184.29971,256.11995],[0.13986,1.2951],[-5.03083,0.38414]],[[169.13152,257.84863],[5.02055,-0.16053],[0.28393,1.27789]],[[170.33643,261.53406],[-0.51254,-1.18047],[0.50663,-0.06497]],[[171.24029,261.54854],[0,0],[4.48499,0.92167]],[[184.94872,262.1152],[-4.59275,-0.0806],[-0.21543,-0.43255]],[[184.82464,260.39365],[-0.1815,0.726],[0,0]]],&quot;closed&quot;:true,&quot;fillColor&quot;:[0,0,0,1]}]}" fill="#ffde00" stroke-width="0.5"></path><path d="M175.38661,269.15013c-0.64622,-0.71735 -1.29055,-1.5499 -1.86911,-2.30789c4.35403,0.34763 8.81202,-0.08008 13.17255,0.26506c0.06843,0.3444 0.13481,0.69233 0.19358,1.03794c0.18444,0.46771 0.372,0.94061 0.55644,1.40832c-0.38132,0.31046 -0.75175,0.64177 -1.14516,0.92445c-3.10488,2.23098 -8.45212,6.91745 -8.95169,11.61305c-2.06445,0.41725 -4.16329,0.79235 -6.2776,0.95448c-0.77926,0.05976 -1.57555,-0.10618 -2.35122,-0.01043c-0.39022,0.04817 -0.81809,0.70279 -1.09974,0.42845c-0.43774,-0.42638 0.02405,-1.30552 -0.31872,-1.81141c-0.41631,-0.61444 -0.87269,-1.26956 -1.40709,-1.80383c1.86689,-0.87727 3.63777,-1.81272 5.67505,-2.48125c2.05545,-0.82308 6.79223,-2.38212 7.15298,-4.73213c0.24561,-1.59999 -2.24683,-2.28211 -3.33028,-3.4848z" data-paper-data="{&quot;noHover&quot;:false,&quot;origItem&quot;:[&quot;Path&quot;,{&quot;applyMatrix&quot;:true,&quot;segments&quot;:[[[175.37625,269.10123],[0,0],[1.08345,1.20269]],[[178.74817,272.59594],[0.24561,-1.59999],[-0.36075,2.35001]],[[171.6099,277.34747],[2.05545,-0.82308],[-2.03728,0.66853]],[[165.93475,279.82849],[1.86689,-0.87727],[0.5344,0.53427]],[[167.33711,281.62377],[-0.41631,-0.61444],[0.34277,0.50589]],[[167.65157,283.42983],[-0.43774,-0.42638],[0.28165,0.27434]],[[168.75,283],[-0.39022,0.04817],[0.77567,-0.09575]],[[171.09465,283.00483],[-0.77926,0.05976],[2.11431,-0.16213]],[[177.33833,282.0413],[-2.06445,0.41725],[0.49957,-4.6956]],[[186.25,270.5],[-3.10488,2.23098],[0.39341,-0.28268]],[[187.39577,269.57675],[-0.38132,0.31046],[-0.18444,-0.46771]],[[186.84247,268.17363],[0.18444,0.46771],[-0.05877,-0.34561]],[[186.65113,267.13869],[0.06843,0.3444],[-4.36053,-0.34514]],[[173.53513,266.88903],[4.35403,0.34763],[0.57856,0.75799]],[[175.37625,269.10122],[-0.64622,-0.71735],[0,0]]],&quot;closed&quot;:true,&quot;fillColor&quot;:[0,0,0,1]}]}" fill="#ffde00" stroke-width="0.5"></path><path d="M194.24722,265.04992c0,-0.06172 0.004,-0.22177 0.00103,-0.28048c2.02122,0.24841 4.06646,0.41711 6.10353,0.52009c0.14046,0.90287 0.31019,1.79695 0.47946,2.6629l0.58535,1.80597c0,0 0.41074,1.22328 1.51012,1.6244l0.45527,2.24562c0.863,2.51 1.38638,5.22559 0.95807,7.92075c-0.09899,0.62291 -0.55803,1.14742 -0.72848,1.75468c-0.07366,0.26241 0.27533,0.82547 0.00283,0.81978c-0.36551,-0.00763 -0.37961,-0.68434 -0.71352,-0.83321c-1.48393,-0.66158 -3.08513,-2.04257 -4.62976,-1.53872c-1.26257,0.41185 -1.14557,2.41397 -1.70984,3.61619c-1.01395,0.96178 -2.48187,1.33436 -3.77175,1.87225c-0.45435,0.18947 -0.91515,0.38656 -1.35602,0.60988c1.17299,-2.25516 2.05031,-5.57439 -0.3076,-7.3773c-1.38751,-1.06092 -3.54145,0.28005 -5.17633,0.89479c-0.92894,0.34929 -1.40028,1.27038 -2.2145,1.83782c-0.11971,0.08343 -0.38852,0.23533 -0.57961,0.30387c0.11716,-0.54015 0.14013,-1.33957 -0.41345,-2.01689c1.16822,-3.42612 5.42962,-7.43683 8.54441,-7.97728c0.15318,-0.00022 0.31679,-0.0208 0.47951,-0.05956c0.15619,-0.00922 0.31401,-0.01156 0.4622,-0.00044c0,0 2.51144,0.09386 2.51144,-2.40614c0,-2.2149 -1.94382,-2.46705 -2.39138,-2.49585c-0.13762,-0.33816 -0.29271,-0.77478 -0.43033,-1.11295c0.5706,-0.0555 2.33492,-0.3971 2.33492,-2.49002z" data-paper-data="{&quot;noHover&quot;:false,&quot;origItem&quot;:[&quot;Path&quot;,{&quot;applyMatrix&quot;:true,&quot;segments&quot;:[[[194.25,265],[0,0],[0,2.09292]],[[191.92728,267.48921],[0.5706,-0.0555],[0.13762,0.33817]],[[192.34013,268.50371],[-0.13762,-0.33816],[0.44756,0.0288]],[[194.75001,271],[0,-2.2149],[0,2.5]],[[192.25001,273.5],[0,0],[-0.14819,-0.01112]],[[191.79314,273.49743],[0.15619,-0.00922],[-0.16272,0.03876]],[[191.31845,273.55344],[0.15318,-0.00022],[-3.11479,0.54045]],[[182.78716,281.47081],[1.16822,-3.42612],[0.55358,0.67732]],[[183.19666,283.48086],[0.11716,-0.54015],[0.19109,-0.06854]],[[183.69408,283.23395],[-0.11971,0.08343],[0.81422,-0.56744]],[[185.99132,281.33999],[-0.92894,0.34929],[1.63488,-0.61474]],[[191.15159,280.42983],[-1.38751,-1.06092],[2.35791,1.80291]],[[191.44281,287.80091],[1.17299,-2.25516],[0.44087,-0.22332]],[[192.79331,287.1903],[-0.45435,0.18947],[1.28988,-0.53789]],[[196.54583,285.32036],[-1.01395,0.96178],[0.56427,-1.20222]],[[198.23863,281.71372],[-1.26257,0.41185],[1.54463,-0.50385]],[[202.86092,283.26039],[-1.48393,-0.66158],[0.33391,0.14887]],[[203.57501,284.09286],[-0.36551,-0.00763],[0.2725,0.00569]],[[203.57061,283.2752],[-0.07366,0.26241],[0.17045,-0.60726]],[[204.29513,281.52724],[-0.09899,0.62291],[0.42831,-2.69516]],[[203.33377,273.64168],[0.863,2.51],[0,0]],[[202.88252,271.40621],[0,0],[-1.09938,-0.40112]],[201.37831,269.79058],[[200.79857,267.9903],[0,0],[-0.16927,-0.86595]],[[200.32571,265.33221],[0.14046,0.90287],[-2.03707,-0.10298]],[[194.24552,264.81938],[2.02122,0.24841],[0.00297,0.05871]],[[194.25001,265.00001],[0,-0.06172],[0,0]]],&quot;closed&quot;:true,&quot;fillColor&quot;:[0,0,0,1]}]}" fill="#ffde00" stroke-width="0.5"></path><path d="M192.44288,245.59829c3.27013,1.95678 6.59875,3.9488 9.86382,5.91019c-0.51475,0.75238 -0.97374,1.64502 -1.37321,2.69359c-0.73923,1.94042 -1.03209,4.04816 -1.02617,6.14711c-3.39141,-0.19459 -6.80249,-0.58082 -10.19309,-1.30104c-0.2594,-1.15141 -0.4728,-2.31942 -0.55225,-3.46l0.64885,-0.14209c0,0 2.42107,-0.63145 1.81473,-3.0568c-0.33559,-1.34234 -1.22548,-1.76889 -1.95589,-1.87068c0.47815,-1.91509 1.25591,-3.72712 2.23313,-5.36309c0.28219,0.28983 0.54009,0.44282 0.54009,0.44282z" data-paper-data="{&quot;noHover&quot;:false,&quot;origItem&quot;:[&quot;Path&quot;,{&quot;applyMatrix&quot;:true,&quot;segments&quot;:[[192.46376,245.64373],[[191.92529,245.20013],[0.28219,0.28983],[-0.97722,1.63597]],[[189.71657,250.53586],[0.47815,-1.91509],[0.73041,0.10179]],[[191.67535,252.39366],[-0.33559,-1.34234],[0.60634,2.42535]],[189.85633,255.42535],[[189.20787,255.56833],[0,0],[0.07945,1.14058]],[[189.74876,259.012],[-0.2594,-1.15141],[3.3906,0.72022]],[[199.88322,260.30536],[-3.39141,-0.19459],[-0.00592,-2.09895]],[[200.88531,254.18865],[-0.73923,1.94042],[0.39947,-1.04857]],[[202.25756,251.51778],[-0.51475,0.75238],[-3.26507,-1.96139]],[[192.46376,245.64372],[3.27013,1.95678],[0,0]]],&quot;closed&quot;:true,&quot;fillColor&quot;:[0,0,0,1]}]}" fill="#ffde00" stroke-width="0.5"></path><path d="M194.98629,241.35411c0,0 -0.03737,-0.02275 -0.10523,-0.05675c2.48678,-2.55967 5.66156,-4.58791 9.07193,-5.87023c0.23008,0.48496 0.54189,0.79228 0.54189,0.79228c2.7915,2.77985 4.60822,4.66414 6.659,8.08212l0.08526,0.09603c-0.83004,0.49841 -1.64446,1.04905 -2.42474,1.61437c-0.99528,0.72109 -1.94018,1.3552 -2.79441,1.96825c-3.66126,-2.19398 -7.37345,-4.4245 -11.0337,-6.62608z" data-paper-data="{&quot;noHover&quot;:false,&quot;origItem&quot;:[&quot;Path&quot;,{&quot;applyMatrix&quot;:true,&quot;segments&quot;:[[[195.03624,241.35627],[0,0],[3.66025,2.20158]],[[205.99866,247.93495],[-3.66126,-2.19398],[0.85423,-0.61305]],[[208.77437,245.98196],[-0.99528,0.72109],[0.78028,-0.56532]],[[211.19165,244.38192],[-0.83004,0.49841],[0,0]],[[211.10627,244.28625],[0,0],[-2.05078,-3.41798]],[[204.48224,236.26778],[2.7915,2.77985],[0,0]],[[203.94596,235.47663],[0.23008,0.48496],[-3.41037,1.28232]],[[194.931,241.29985],[2.48678,-2.55967],[0.06786,0.034]],[195.03624,241.35628]],&quot;closed&quot;:true,&quot;fillColor&quot;:[0,0,0,1]}]}" fill="#ffde00" stroke-width="0.5"></path><path d="M234.55402,254.91911c-2.47129,-1.55904 -4.77615,-4.31126 -6.79253,-6.96553c0.00015,-0.00012 0.00023,-0.00018 0.00023,-0.00018c4.20024,-3.36809 7.94835,-7.26423 10.35757,-12.03416c0.36743,0.02607 0.73656,0.04247 1.10149,0.04016c0.97262,-0.00616 2.00048,-0.14257 3.03036,-0.33305c-0.00215,0.01715 -0.00428,0.03447 -0.00622,0.05189c-0.27608,2.48471 2.21303,2.75907 2.21303,2.75907c4.02353,0.44678 8.13907,1.23519 12.17532,1.52612c2.05815,0.14835 6.48137,-0.36843 8.3303,0.63328c1.84434,0.99922 1.46979,5.92103 1.84488,7.6114c0.07547,0.34013 0.58166,0.7093 0.3647,0.98191c-0.47799,0.6006 -3.74127,0.36256 -3.84638,0.36161l-1.37705,0.47504c-3.28557,-1.57887 -7.185,-2.49098 -10.26287,-3.81025c0,0 -2.20001,-0.99658 -3.18481,1.30128c-0.9848,2.29786 1.23496,3.23883 1.23496,3.23883c1.51918,0.65099 4.41506,1.94434 6.11211,2.56223c0.73218,0.26658 1.95876,0.58965 3.24288,1.01174c0.75062,1.29736 2.03236,1.21373 2.66585,1.0751c0.94962,0.49357 1.80652,1.13223 2.14233,1.84445c0.13905,0.29491 -0.33609,0.5673 -0.44043,0.8762c-0.12476,0.36936 0.13771,1.06817 -0.24422,1.14641c-0.67459,0.13818 -1.28403,-0.50522 -1.94605,-0.69466c-1.29912,-0.37175 -2.61955,-0.67733 -3.93619,-0.98124c-3.09998,-0.71553 -6.80607,-0.78221 -9.77156,-1.91146c-0.80279,-0.3057 -1.55945,-0.66672 -2.2563,-1.06903c-0.20636,-0.47469 -0.42686,-0.86903 -0.62654,-1.13532c-0.75711,-1.00968 -2.12992,-1.40422 -3.18454,-2.09736c0,0 -0.26134,-0.15893 -0.65375,-0.27169c-0.78551,-0.75521 -1.56624,-1.56558 -2.37236,-2.3727l-2.00038,-2.01032c0,0 -1.66794,-1.7619 -3.43571,0.00587c-1.76777,1.76776 -0.00084,3.52353 -0.00084,3.52353l1.99759,1.99156c1.77462,1.77252 3.40494,3.38737 5.22578,4.80137c-1.88902,-0.71629 -3.99749,-1.05766 -5.70064,-2.13211z" data-paper-data="{&quot;noHover&quot;:false,&quot;origItem&quot;:[&quot;Path&quot;,{&quot;applyMatrix&quot;:true,&quot;segments&quot;:[[[234.59738,254.89416],[0,0],[1.70315,1.07445]],[[240.22455,257.09112],[-1.88902,-0.71629],[-1.82084,-1.414]],[[234.98222,252.26776],[1.77462,1.77252],[0,0]],[232.98222,250.26776],[[232.98222,246.73223],[-1.76777,1.76776],[1.76777,-1.76777]],[236.51775,246.73223],[[238.51775,248.73223],[0,0],[0.80612,0.80712]],[[240.88445,251.08789],[-0.78551,-0.75521],[0.39241,0.11276]],[[241.53622,251.35627],[0,0],[1.05462,0.69314]],[[244.70009,253.43568],[-0.75711,-1.00968],[0.19968,0.26629]],[[245.32007,254.56847],[-0.20636,-0.47469],[0.69685,0.40231]],[[247.56132,255.63531],[-0.80279,-0.3057],[2.96549,1.12925]],[[257.29845,257.5609],[-3.09998,-0.71553],[1.31664,0.30391]],[[261.23056,258.54662],[-1.29912,-0.37175],[0.66202,0.18944]],[[263.17555,259.24265],[-0.67459,0.13818],[0.38193,-0.07824]],[[263.41817,258.0985],[-0.12476,0.36936],[0.10434,-0.3089]],[[263.85724,257.22445],[0.13905,0.29491],[-0.33581,-0.71222]],[[261.80154,255.42992],[0.94962,0.49357],[-0.63349,0.13863]],[[259.13503,254.35597],[0.75062,1.29736],[-1.28412,-0.42209]],[[255.89007,253.34745],[0.73218,0.26658],[-1.69705,-0.61789]],[[249.76517,250.79785],[1.51918,0.65099],[0,0]],[[248.45211,247.51519],[-0.9848,2.29786],[0.9848,-2.29786]],[[251.73477,246.20213],[0,0],[3.07787,1.31927]],[[261.99896,250.03539],[-3.28557,-1.57887],[0,0]],[[263.2772,249.5451],[0,0],[0.10511,0.00095]],[[267.12334,249.18566],[-0.47799,0.6006],[0.21696,-0.27261]],[[266.75849,248.20619],[0.07547,0.34013],[-0.37509,-1.69037]],[[264.91704,240.61501],[1.84434,0.99922],[-1.84893,-1.00171]],[[256.59463,239.99516],[2.05815,0.14835],[-4.03625,-0.29093]],[[244.47389,238.4847],[4.02353,0.44678],[0,0]],[[242.26526,235.72391],[-0.27608,2.48471],[0.00194,-0.01742]],[[242.27139,235.67206],[-0.00215,0.01715],[-1.02988,0.19048]],[[239.24997,235.99999],[0.97262,-0.00616],[-0.36493,0.00231]],[[238.15081,235.95805],[0.36743,0.02607],[-2.40922,4.76993]],[[227.81171,247.95216],[4.20024,-3.36809],[0,0]],[[227.81148,247.95234],[0.00015,-0.00012],[2.01638,2.65427]],[[234.59735,254.89415],[-2.47129,-1.55904],[0,0]]],&quot;closed&quot;:true,&quot;fillColor&quot;:[0,0,0,1]}]}" fill="#864100" stroke-width="0.5"></path><path d="M110.02397,202.45495c-2.97411,2.96806 -5.61938,6.04301 -8.17017,9.27151c0.27617,-1.07878 0.46592,-2.0448 0.58691,-2.89174c0.60076,-4.20519 0.72657,-8.46379 1.91024,-12.62761c0.87909,-3.09237 2.75607,-5.33592 3.72788,-8.4075c2.82819,-2.72692 5.50815,-4.92916 8.5324,-7.45321c2.32041,-1.93661 4.60153,-3.93503 7.78877,-4.42868c0.95694,-0.14821 1.95535,0.15433 2.9135,0.0142c2.38813,-0.34927 4.60212,-1.56529 6.9772,-1.98604c0.01183,0.15551 0.03102,0.25011 0.03102,0.25011c1.38484,6.86042 6.53796,13.73099 13.01655,17.79749c-1.48002,-0.1535 -3.08554,-0.23526 -4.63818,-0.24015c-8.07088,0.01598 -18.58723,0.15501 -25.75092,4.35421c-3.13561,1.83802 -4.4567,3.88393 -6.9252,6.34741z" data-paper-data="{&quot;noHover&quot;:false,&quot;origItem&quot;:[&quot;Path&quot;,{&quot;applyMatrix&quot;:true,&quot;segments&quot;:[[[109.98224,202.48248],[0,0],[2.4685,-2.46348]],[[116.99519,196.08798],[-3.13561,1.83802],[7.16369,-4.1992]],[[142.75,191.75025],[-8.07088,0.01598],[1.55264,0.00489]],[[147.28831,191.99541],[-1.48002,-0.1535],[-6.47859,-4.0665]],[[134.29855,174.24029],[1.38484,6.86042],[0,0]],[[134.26783,173.99034],[0.01183,0.15551],[-2.37508,0.42075]],[[127.30546,175.98127],[2.38813,-0.34927],[-0.95815,0.14013]],[[124.40045,175.96772],[0.95694,-0.14821],[-3.18724,0.49365]],[[116.638,180.38863],[2.32041,-1.93661],[-3.02425,2.52405]],[[108.12662,187.81433],[2.82819,-2.72692],[-0.97181,3.07158]],[[104.40029,196.19897],[0.87909,-3.09237],[-1.18367,4.16382]],[[102.48126,208.80546],[0.60076,-4.20519],[-0.12099,0.84694]],[[101.81534,211.75841],[0.27617,-1.07878],[2.55079,-3.2285]],[[109.98223,202.48248],[-2.97411,2.96806],[0,0]]],&quot;closed&quot;:true,&quot;fillColor&quot;:[0,0,0],&quot;strokeWidth&quot;:0.5}]}" fill="#864100" stroke-width="0.25"></path><path d="M228.98948,240.16825c-0.89337,0.29779 -1.76219,0.63302 -2.62021,0.94644c-0.06386,-0.01748 -0.10082,-0.02483 -0.10082,-0.02483c-2.87392,-0.5272 -5.72363,-0.30037 -8.44539,0.44598c-0.50128,-0.0352 -1.10416,0.058 -1.62967,0.51318c-0.11442,0.04063 -0.22888,0.08228 -0.34277,0.12464c-0.1661,-0.24999 -0.31216,-0.3959 -0.31216,-0.3959l-0.12412,-0.01843c-1.87617,-3.12694 -3.72045,-5.24118 -6.05236,-7.63624c0.21711,-0.0323 0.39759,-0.15474 0.61548,-0.18154c1.37039,-0.16857 2.65734,0.89833 4.03801,0.90999c0.07786,0.00066 0.15544,0.00033 0.23314,-0.00111l-0.01123,0.05628l2.4476,0.49081c0.17418,0.03842 0.35479,0.05889 0.54052,0.05889c1.38071,0 2.497,-1.11747 2.497,-2.49818c0,-0.82832 -0.34765,-1.47915 -0.96809,-1.93407l-1.9775,-1.48203c-2.89177,-2.13454 -4.90034,-2.94174 -8.50657,-2.99646c-6.95145,0 -13.38081,1.89825 -20.23338,2.51238c-5.02751,0.45057 -10.15944,0.37012 -15.20523,0.73655c-0.25211,-0.24877 -0.59826,-0.46707 -1.06628,-0.62307c-1.68137,-0.56045 -2.56999,0.46723 -2.94374,1.11364c-1.55204,0.43583 -3.00243,1.30599 -4.50253,1.92354c-0.19901,0.08193 -0.40161,0.15229 -0.60657,0.21368c-0.91909,-0.33561 -1.80986,-0.70738 -2.64607,-1.12959c-1.07285,-0.5417 -1.92685,-1.46652 -3.00265,-2.00234c-2.28381,-1.13748 -4.50657,-1.63295 -5.97637,-4.07356c-1.12087,-1.86121 -1.17776,-4.18911 -1.70471,-6.29689c-0.57162,-2.28648 -1.62753,-4.46716 -1.96089,-6.80031c-0.31116,-2.17776 0.04273,-4.40582 0.03005,-6.60566c-0.005,-0.86657 -0.09416,-1.73777 -0.03298,-2.60219c0.11518,-1.6274 1.60112,-3.6117 0.55946,-4.86734c-1.17501,-1.41638 -3.58841,-1.00633 -5.42874,-1.00763c-1.05409,-0.00074 -1.86074,0.81683 -2.90049,0.99012c-0.98639,0.1644 -2.01436,-0.16877 -2.99997,0.00028c-0.2725,0.04674 -5.92086,1.9384 -6.39025,2.09486c-2.4029,0.81791 -4.80265,1.86338 -6.79466,3.43653c-0.65425,0.51667 -1.01287,1.37981 -1.72954,1.80569c-0.85638,0.5089 -1.98166,0.4166 -2.84598,0.91192c-2.5189,1.44351 -4.57472,3.60894 -7.09501,5.05002c-1.36505,0.78053 -2.9042,1.25321 -4.20711,2.13355c-0.62908,0.42505 -0.78627,1.44575 -1.49511,1.7177c-0.47314,0.18151 -1.09445,0.07423 -1.61593,-0.03298c2.49823,-3.1738 5.07664,-6.1964 7.99276,-9.11814c2.75367,-2.75897 4.67832,-5.51057 8.54309,-6.90682c6.19553,-2.23831 14.3193,-2.38801 20.78826,-2.37359c5.23473,-0.01944 9.82505,1.07669 14.85265,2.40987c2.96079,0.78512 3.87086,0.61113 6.29797,2.18563c4.59004,2.97762 8.32782,6.68378 13.04624,9.51483l0.31684,0.33145c-1.84671,0.54013 -3.98383,0.72562 -5.84669,1.10843l-2.25529,-0.01402c0,0 -2.42337,-0.06424 -2.42337,2.43576c0,2.5 2.49649,2.49626 2.49649,2.49626l2.74409,-0.0142c4.85653,-0.94935 11.57156,-1.46536 14.02148,-6.47599c0.45435,-0.92926 0.40889,-1.9273 0.63195,-2.93734c0,0 0.48155,-2.45617 -1.9699,-2.94646c-2.45145,-0.49029 -2.88276,1.88049 -2.88276,1.88049c-0.07297,0.43451 -0.2454,0.90778 -0.39083,1.26572c-0.18744,-0.17997 -0.33282,-0.27699 -0.33282,-0.27699l-1.60421,-1.06682c-4.66034,-2.7962 -8.3617,-6.61287 -12.9535,-9.48951c-1.61728,-1.01319 -2.58619,-1.46615 -3.60652,-1.78262c1.41457,-0.30495 2.91235,-0.80392 4.27561,-1.50283c0.59804,0.8304 1.28328,1.62627 2.06438,2.39221c3.35364,3.28854 7.81083,3.40693 12.06006,4.61129c3.70036,1.04879 6.80777,1.14065 10.66396,1.07913c1.24185,-0.01981 2.52886,0.29237 3.70533,-0.10573c5.80781,-1.96528 9.79853,-9.20421 11.61372,-14.537c1.30478,-4.03585 1.15789,-7.54905 1.14167,-11.77059c-0.00844,-2.19597 0.25031,-4.47498 -0.4691,-6.56472l1.0308,-0.01366c0,0 2.443,0.08216 2.443,-2.41784c0,-2.5 -2.49548,-2.49714 -2.49548,-2.49714l-0.20927,0.12838c-2.14851,-0.69756 -3.9036,-2.33325 -6.05656,-3.01696c-3.77884,-1.20004 -9.89864,-0.13953 -13.494,1.02283c-0.37714,0.12572 -6.11057,2.0308 -6.29717,2.12335c-1.04837,0.51998 -1.83184,1.49666 -2.90765,1.95722c-1.26345,0.5409 -2.73229,0.45237 -3.99429,0.99666c-2.43064,1.0483 -4.38302,2.31337 -6.39065,3.30529c-0.21492,-0.15509 -0.47769,-0.2913 -0.79862,-0.39828c-2.37171,-0.79057 -3.1592,1.57745 -3.1592,1.57745c-0.02695,0.08099 -0.05347,0.16183 -0.07999,0.24305c-0.45587,0.08552 -0.92601,0.14576 -1.41618,0.17897c-0.66549,-0.38286 -1.38072,-0.3834 -1.38072,-0.3834c-0.87463,0.0341 -1.90138,-0.26218 -2.74913,-0.12002c-3.90866,-1.55588 -6.26424,-7.27717 -9.76872,-9.31357c-0.84299,-0.48984 -1.74693,-0.8311 -2.68891,-1.06601c0.10745,-1.83393 0.12458,-4.05778 0.92222,-5.60989c4.60144,-1.03156 9.21143,-1.07565 13.86254,-1.74008c1.0435,-0.14907 1.96378,-0.82233 3.00247,-1.00184c2.16775,-0.37463 4.40482,0.02912 6.60469,0.02912c2.19988,0 4.43816,-0.40975 6.6059,-0.03512c6.01035,1.03871 11.7985,2.46291 17.81597,3.95479c3.96633,0.98336 7.55136,1.377 11.38124,2.48991c0.05056,0.55263 0.38153,2.34113 2.49485,2.34113c0.82244,0 1.37574,-0.26973 1.74607,-0.63284c0.12099,0.0795 0.23872,0.16525 0.35136,0.25793c2.662,2.19044 2.90373,6.69735 4.53853,9.44899c0.48156,0.81054 1.51371,1.19732 2.00279,2.00335c0.47825,0.78818 0.45902,1.79713 0.81928,2.64575c1.58321,3.72939 3.32917,7.24591 3.83546,11.36654c0.16646,1.35482 -0.17871,2.75028 0.01433,4.10157c0.14907,1.0435 0.84708,1.96191 1.00001,3.00485c0.16631,1.13421 -0.32336,6.57841 0.15616,7.56765c0.04168,0.08597 0.08301,0.17011 0.12421,0.25187c-0.30345,0.24398 -0.61718,0.48053 -0.94125,0.706c-1.68307,1.17099 -4.68566,1.2557 -6.61655,1.64188c0,0 -2.45469,0.49605 -1.9644,2.9475c0.49029,2.45145 2.85808,1.90639 2.85808,1.90639c2.75871,-0.55174 5.95452,-0.78411 8.38168,-2.35635c5.22156,-3.38236 8.09171,-9.12546 11.24648,-14.2532c2.10569,-3.42256 2.63356,-3.32188 4.23866,-7.49545c2.44682,-6.36219 2.64075,-13.59856 2.64075,-20.29525c0,-3.48727 0.17648,-6.81652 -0.50826,-10.24022c0.01346,-2.49266 -1.11061,-8.4535 1.13651,-10.34624c2.81494,-2.371 6.02614,-0.73354 6.50018,2.5046c0.51699,3.53157 0.12053,7.21956 0.47067,10.77884c0.67271,6.83837 1.49341,13.36557 1.49341,20.26726l-0.3716,0.7099c0,0 -0.79001,2.37439 1.5817,3.16496c2.37171,0.79057 3.06399,-1.56276 3.06399,-1.56276l0.62862,-2.28902c0,-7.06451 -0.79385,-13.73331 -1.50711,-20.73313c-0.03462,-0.33977 0.02583,-0.73204 0.00537,-1.07781c1.3605,-0.40972 2.71168,-1.05273 4.06965,-0.77995c1.23212,0.24749 2.34138,2.03726 2.73236,3.05297c1.48152,3.84882 1.52254,7.23869 1.80827,11.25794c0.67473,9.49116 2.05198,20.88667 -6.50989,27.27192c-0.66667,0.5 -1.33342,1.00125 -2.00009,1.50125l-0.76783,0.73285c0,0 -1.76811,1.77048 -0.00034,3.53825c1.76776,1.76777 3.43665,-0.01489 3.43665,-0.01489l0.2322,-0.26755c0.66667,-0.5 1.33317,-0.99874 1.99984,-1.49874c1.88226,-1.41861 3.5859,-2.53697 5.02783,-4.5348c4.55829,-6.31564 4.3127,-15.37202 3.76112,-23.15638c2.43993,1.1371 5.00588,2.62791 6.01157,5.17195c0.79291,2.0058 0.50247,4.28909 0.8312,6.42073c0.47554,3.08357 1.65063,6.47129 1.01305,9.63243c-1.2598,6.24615 -6.56598,10.85356 -10.38236,15.62869c-0.72676,0.2301 -1.66441,0.82528 -1.66441,2.35599c0,2.5 2.40364,2.47329 2.40364,2.47329l2.49973,-0.99902c2.78525,-3.73468 6.30257,-7.19251 8.86177,-11.19299c0.10058,2.38949 0.05175,4.76271 -1.04667,7.19515c-1.88109,4.16565 -6.24171,6.80506 -9.75892,9.55728c-3.63749,2.84633 -7.53201,6.42215 -11.86529,8.14529c-3.39604,1.35045 -7.45023,1.77685 -11.05213,2.37756c-2.32236,0.46417 -5.18153,1.47991 -7.55206,1.46268c-0.15354,-0.00112 -0.30743,-0.00374 -0.46131,-0.00782c-0.34895,-0.52812 -0.96227,-0.99162 -2.03916,-0.99162c-1.0021,0 -1.60366,0.40296 -1.96341,0.88431c-0.51264,0.02184 -1.02326,0.07234 -1.52873,0.16628l-0.39149,-0.78481c0,0 -2.23815,-1.11598 -3.35618,1.12009c-1.11804,2.23607 1.05066,3.28021 1.05066,3.28021l2.165,0.78076c-1.03571,1.68035 -2.28352,3.22471 -3.6587,4.65635c-0.07393,0.01853 -0.11555,0.03244 -0.11555,0.03244z" data-paper-data="{&quot;noHover&quot;:false,&quot;origItem&quot;:[&quot;Path&quot;,{&quot;applyMatrix&quot;:true,&quot;segments&quot;:[[228.95943,240.12829],[[229.07491,240.09591],[-0.07393,0.01853],[1.37518,-1.43164]],[[232.72985,235.4427],[-1.03571,1.68035],[0,0]],[230.63196,234.73607],[[229.51393,231.38197],[-1.11804,2.23607],[1.11803,-2.23607]],[232.86803,230.26394],[[233.25971,231.04856],[0,0],[0.50547,-0.09394]],[[234.78773,230.88304],[-0.51264,0.02184],[0.35975,-0.48135]],[[236.75,230.00001],[-1.0021,0],[1.07689,0]],[[238.78885,230.992],[-0.34895,-0.52812],[0.15388,0.00408]],[[239.25,231.00001],[-0.15354,-0.00112],[2.37053,0.01723]],[[246.7993,229.54097],[-2.32236,0.46417],[3.6019,-0.60071]],[[257.84851,227.1682],[-3.39604,1.35045],[4.33328,-1.72314]],[[269.71063,219.03015],[-3.63749,2.84633],[3.51721,-2.75222]],[[279.46773,209.47959],[-1.88109,4.16565],[1.09842,-2.43244]],[[280.61314,202.29969],[0.10058,2.38949],[-2.5592,4.00048]],[[271.74999,213.50001],[2.78525,-3.73468],[0,0]],[269.24999,214.50001],[[266.74999,212.00001],[0,2.5],[0,-1.53071]],[[268.41398,209.64572],[-0.72676,0.2301],[3.81638,-4.77513]],[[278.7951,194.02724],[-1.2598,6.24615],[0.63758,-3.16114]],[[277.78227,184.40046],[0.47554,3.08357],[-0.32873,-2.13164]],[[276.95157,177.9835],[0.79291,2.0058],[-1.00569,-2.54404]],[[271.03775,172.79081],[2.43993,1.1371],[0.55158,7.78436]],[[267.27809,195.96178],[4.55829,-6.31564],[-1.44193,1.99783]],[[262.24998,200.5],[1.88226,-1.41861],[-0.66667,0.5]],[[260.24998,202],[0.66667,-0.5],[0,0]],[260.01775,202.26777],[[256.48222,202.26777],[1.76776,1.76777],[-1.76777,-1.76777]],[256.48222,198.73224],[[257.24999,198.00001],[0,0],[0.66667,-0.5]],[[259.24999,196.50001],[-0.66667,0.5],[8.56187,-6.38525]],[[265.76216,169.24635],[0.67473,9.49116],[-0.28573,-4.01925]],[[263.95655,157.99506],[1.48152,3.84882],[-0.39098,-1.01571]],[[261.22535,154.94434],[1.23212,0.24749],[-1.35797,-0.27278]],[[257.15612,155.72504],[1.3605,-0.40972],[0.02046,0.34577]],[[257.23782,156.75366],[-0.03462,-0.33977],[0.71326,6.99982]],[[258.74999,177.5],[0,-7.06451],[0,0]],[258.1217,179.79057],[[254.95942,181.37171],[2.37171,0.79057],[-2.37171,-0.79057]],[253.37828,178.20943],[[253.74999,177.5],[0,0],[0,-6.90169]],[[252.26216,157.24634],[0.67271,6.83837],[-0.35014,-3.55928]],[[251.7951,146.47276],[0.51699,3.53157],[-0.47404,-3.23814]],[[245.37092,143.9033],[2.81494,-2.371],[-2.24712,1.89274]],[[244.23783,154.25364],[0.01346,-2.49266],[0.68474,3.4237]],[[244.75,164.49998],[0,-3.48727],[0,6.69669]],[[242.11468,184.81132],[2.44682,-6.36219],[-1.6051,4.17357]],[[237.87662,192.31431],[2.10569,-3.42256],[-3.15477,5.12774]],[[226.62622,206.58708],[5.22156,-3.38236],[-2.42716,1.57224]],[[218.24028,208.95143],[2.75871,-0.55174],[0,0]],[[215.29854,206.99027],[0.49029,2.45145],[-0.49029,-2.45145]],[[217.2597,204.04853],[0,0],[1.93089,-0.38618]],[[223.87376,202.41288],[-1.68307,1.17099],[0.32407,-0.22547]],[[224.81458,201.70827],[-0.30345,0.24398],[-0.0412,-0.08176]],[[224.69028,201.4567],[0.04168,0.08597],[-0.47952,-0.98924]],[[224.53226,193.90045],[0.16631,1.13421],[-0.15293,-1.04294]],[[223.53226,190.90045],[0.14907,1.0435],[-0.19304,-1.35129]],[[223.51871,186.80546],[0.16646,1.35482],[-0.50629,-4.12063]],[[219.69028,175.45671],[1.58321,3.72939],[-0.36026,-0.84862]],[[218.87336,172.81433],[0.47825,0.78818],[-0.48908,-0.80603]],[[216.87336,170.81433],[0.48156,0.81054],[-1.6348,-2.75164]],[[212.34548,161.37419],[2.662,2.19044],[-0.11264,-0.09268]],[[211.99463,161.11657],[0.12099,0.0795],[-0.37033,0.36311]],[[210.24999,161.75024],[0.82244,0],[-2.11332,0]],[[207.75924,159.41116],[0.05056,0.55263],[-3.82988,-1.11291]],[[196.39365,156.92534],[3.96633,0.98336],[-6.01747,-1.49188]],[[178.59953,152.96771],[6.01035,1.03871],[-2.16774,-0.37463]],[[171.99998,152.99999],[2.19988,0],[-2.19987,0]],[[165.40043,152.96771],[2.16775,-0.37463],[-1.03869,0.17951]],[[162.40043,153.96771],[1.0435,-0.14907],[-4.65111,0.66443]],[[148.54529,155.70052],[4.60144,-1.03156],[-0.79764,1.55211]],[[147.62575,161.30685],[0.10745,-1.83393],[0.94198,0.23491]],[[150.31431,162.37336],[-0.84299,-0.48984],[3.50448,2.0364]],[[160.08445,171.6848],[-3.90866,-1.55588],[0.84775,-0.14216]],[[162.74998,171.74998],[-0.87463,0.0341],[0,0]],[[164.13107,172.13284],[-0.66549,-0.38286],[0.49017,-0.03321]],[[165.54807,171.95274],[-0.45587,0.08552],[0.02652,-0.08122]],[[165.62827,171.70941],[-0.02695,0.08099],[0,0]],[[168.79055,170.12827],[-2.37171,-0.79057],[0.32093,0.10698]],[[169.58943,170.52627],[-0.21492,-0.15509],[2.00763,-0.99192]],[[175.98859,167.2137],[-2.43064,1.0483],[1.262,-0.54429]],[[179.98859,166.2137],[-1.26345,0.5409],[1.07581,-0.46056]],[[182.90159,164.25419],[-1.04837,0.51998],[0.1866,-0.09255]],[[189.2094,162.12827],[-0.37714,0.12572],[3.59536,-1.16236]],[[202.72443,161.10725],[-3.77884,-1.20004],[2.15296,0.68371]],[[208.79054,164.12827],[-2.14851,-0.69756],[0,0]],[208.99997,163.99998],[[211.49997,166.49998],[0,-2.5],[0,2.5]],[208.99997,168.99998],[[208.02404,168.93005],[0,0],[0.71941,2.08974]],[[208.49997,175.49998],[-0.00844,-2.19597],[0.01622,4.22154]],[[207.37168,187.29055],[1.30478,-4.03585],[-1.81519,5.33279]],[[195.72443,201.89271],[5.80781,-1.96528],[-1.17647,0.3981]],[[191.99997,201.99998],[1.24185,-0.01981],[-3.85619,0.06152]],[[181.301,200.90028],[3.70036,1.04879],[-4.24923,-1.20436]],[[169.23221,196.26775],[3.35364,3.28854],[-0.7811,-0.76594]],[[167.16728,193.87037],[0.59804,0.8304],[-1.36326,0.69891]],[[162.99137,195.36568],[1.41457,-0.30495],[1.02033,0.31647]],[[166.59736,197.1444],[-1.61728,-1.01319],[4.5918,2.87664]],[[179.53621,206.6065],[-4.66034,-2.7962],[0,0]],[181.13672,207.67011],[[181.46866,207.94642],[-0.18744,-0.17997],[0.14543,-0.35794]],[[181.79852,206.75995],[-0.07297,0.43451],[0,0]],[[184.74026,204.79879],[-2.45145,-0.49029],[2.45145,0.49029]],[[186.70142,207.74053],[0,0],[-0.22306,1.01004]],[[186.03224,210.77067],[0.45435,-0.92926],[-2.44992,5.01063]],[[171.99632,217.23808],[4.85653,-0.94935],[0,0]],[169.24998,217.25025],[[166.74998,214.75025],[0,2.5],[0,-2.5]],[169.24998,212.25025],[[171.50364,212.26241],[0,0],[1.86286,-0.38281]],[[177.3457,211.14954],[-1.84671,0.54013],[0,0]],[[176.96374,210.89398],[0,0],[-4.71842,-2.83105]],[[163.90259,201.35609],[4.59004,2.97762],[-2.42711,-1.5745]],[[157.60332,199.16516],[2.96079,0.78512],[-5.0276,-1.33318]],[[142.74998,196.75025],[5.23473,-0.01944],[-6.46896,-0.01442]],[[122.06132,199.11493],[6.19553,-2.23831],[-3.86477,1.39625]],[[113.51774,206.01802],[2.75367,-2.75897],[-2.91612,2.92174]],[[105.52409,215.13203],[2.49823,-3.1738],[0.52148,0.10721]],[[107.04327,215.19031],[-0.47314,0.18151],[0.70884,-0.27195]],[[108.5382,213.4719],[-0.62908,0.42505],[1.30291,-0.88034]],[[112.74516,211.33773],[-1.36505,0.78053],[2.52029,-1.44108]],[[119.83971,206.28555],[-2.5189,1.44351],[0.86432,-0.49532]],[[122.68564,205.37338],[-0.85638,0.5089],[0.71667,-0.42588]],[[124.415,203.56665],[-0.65425,0.51667],[1.99201,-1.57315]],[[131.2094,200.12829],[-2.4029,0.81791],[0.46939,-0.15646]],[[137.59952,198.03228],[-0.2725,0.04674],[0.98561,-0.16905]],[[140.59952,198.03228],[-0.98639,0.1644],[1.03975,-0.17329]],[[143.59952,197.03228],[-1.05409,-0.00074],[1.84033,0.0013]],[[149.02808,198.03823],[-1.17501,-1.41638],[1.04166,1.25564]],[[148.4677,202.90046],[0.11518,-1.6274],[-0.06118,0.86442]],[[148.49998,205.50001],[-0.005,-0.86657],[0.01268,2.19984]],[[148.4677,212.09956],[-0.31116,-2.17776],[0.33336,2.33315]],[[150.42533,218.89368],[-0.57162,-2.28648],[0.52695,2.10778]],[[152.1266,225.18569],[-1.12087,-1.86121],[1.4698,2.44061]],[[158.09836,229.25423],[-2.28381,-1.13748],[1.0758,0.53582]],[[161.09836,231.25423],[-1.07285,-0.5417],[0.83621,0.42221]],[[163.74223,232.38211],[-0.91909,-0.33561],[0.20496,-0.06139]],[[164.3485,232.16821],[-0.19901,0.08193],[1.5001,-0.61755]],[[168.84871,230.24309],[-1.55204,0.43583],[0.37375,-0.64641]],[[171.79056,229.1283],[-1.68137,-0.56045],[0.46802,0.156]],[[172.85557,229.75066],[-0.25211,-0.24877],[5.04579,-0.36643]],[[188.04379,229.00853],[-5.02751,0.45057],[6.85257,-0.61413]],[[208.24999,226.50001],[-6.95145,0],[3.60623,0.05472]],[[216.74999,229.50001],[-2.89177,-2.13454],[0,0]],[[218.72671,230.98255],[0,0],[0.62044,0.45492]],[[219.74999,233.00001],[0,-0.82832],[0,1.38071]],[[217.24999,235.50001],[1.38071,0],[-0.18573,0]],[[216.70908,235.44134],[0.17418,0.03842],[0,0]],[214.2597,234.95146],[[214.27096,234.89516],[0,0],[-0.0777,0.00144]],[[214.03762,234.89637],[0.07786,0.00066],[-1.38067,-0.01166]],[[209.99633,233.98785],[1.37039,-0.16857],[-0.21789,0.0268]],[[209.34379,234.07651],[0.21711,-0.0323],[2.33191,2.39506]],[[215.39372,241.71378],[-1.87617,-3.12694],[0,0]],[215.51775,241.73225],[[215.82981,242.1282],[-0.1661,-0.24999],[0.11389,-0.04236]],[[216.17228,242.0037],[-0.11442,0.04063],[0.52551,-0.45518]],[[217.80056,241.49119],[-0.50128,-0.0352],[2.72176,-0.74635]],[[226.24027,241.04856],[-2.87392,-0.5272],[0,0]],[[226.34104,241.07342],[-0.06386,-0.01748],[0.85802,-0.31342]],[[228.95941,240.1283],[-0.89337,0.29779],[0,0]]],&quot;closed&quot;:true,&quot;fillColor&quot;:[0,0,0],&quot;strokeWidth&quot;:0.5}]}" fill="#864100" stroke-width="0.25"></path></g></g></svg>