<svg version="1.1" xmlns="http://www.w3.org/2000/svg" xmlns:xlink="http://www.w3.org/1999/xlink" width="77.50269" height="83.03144" viewBox="0,0,77.50269,83.03144"><g transform="translate(-148.31361,-188)"><g data-paper-data="{&quot;isPaintingLayer&quot;:true}" fill-rule="nonzero" stroke-linecap="butt" stroke-linejoin="miter" stroke-miterlimit="10" stroke-dasharray="" stroke-dashoffset="0" style="mix-blend-mode: normal"><path d="M156.34865,259.98717c-2.02906,0.37731 -2.72036,-1.6966 -2.72036,-1.6966c-0.15388,-0.46164 -2.05219,-6.12635 -2.09601,-6.39011c-0.48597,-2.92476 0.48668,-6.09155 0,-9c-0.34793,-2.07928 -1.64362,-3.92216 -2,-6c-0.16905,-0.98561 0.1644,-2.01361 0,-3c-0.17329,-1.03975 -0.83216,-1.95936 -1,-3c-0.47242,-2.92917 -0.03228,-6.42653 -0.03228,-9.40046c0,-7.0348 0.63954,-14.47088 5.73223,-19.76777c3.54765,-3.54765 7.25434,-5.95902 11.6075,-8.44668c0.86492,-0.49427 1.99202,-0.39914 2.84594,-0.91218c0.83475,-0.50152 1.2087,-1.61913 2.08258,-2.04887c0.41693,-0.20503 8.72736,-2.3245 9.23175,-2.3245c1.42052,0 6.65021,1.78546 8.30546,2.01873c6.05702,0.8536 12.97201,1.67417 18.70593,4.19498c2.15799,0.94872 3.73618,2.87614 5.57359,4.35293c3.98019,3.19901 7.05293,6.23585 8.78674,11.14279c0.97755,3.02369 1.59488,6.28294 2.09601,9.39011c0.31845,1.97448 -0.34059,4.02921 0,6c0.17951,1.0387 0.83216,1.95936 1,3c0.68134,4.22451 -0.72557,8.80162 0,13c0.853,4.93573 1.90747,10.66499 1,15.80091c-0.57347,3.24562 -3.39954,8.48946 -5.95023,10.58631c-0.87546,0.71969 -2.19669,0.61889 -3.20316,1.13986c-1.26476,0.65466 -2.18517,2.73023 -3.56067,2.36121c-1.91181,-0.51291 -2.6663,-2.9263 -3.99944,-4.38945c-0.24699,-0.8603 -0.17624,-1.8865 -0.74098,-2.58089c-0.69103,-0.84969 -2.0094,-0.97246 -2.781,-1.74972c-0.84377,-0.84997 -3.28189,-5.07591 -4.16559,-6.18279c-0.32116,-0.40227 -1.75118,-1.70303 -2.66655,-2.64167c-0.21261,0.96935 -0.85664,2.00275 -0.93237,2.45715c-0.70787,4.24722 -0.24126,10.9609 -7.64736,7.80373c-1.4701,-0.6267 -1.96771,-2.51979 -2.90048,-3.81744c-1.35505,-1.88511 -2.41745,-3.97741 -3.85323,-5.80178c-1.21911,-1.54904 -3.13396,-2.39365 -4.65162,-3.65162c-0.72528,-0.60117 -1.56762,-2.39365 -2.23538,-1.72917c-0.6815,0.67815 -1.61389,3.9887 -1.80794,4.58638c-0.82608,2.46278 -2.0306,4.78205 -3.06201,7.16614c-0.47117,1.0891 -0.48268,2.39971 -1.18307,3.35762c-0.93001,1.27196 -2.01166,2.78803 -3.55224,3.11879c-4.12038,0.88466 -7.79809,-3.49623 -10.22573,-6.94595zM156.66648,252.01579c0.10591,-0.01036 0.217,-0.01579 0.33352,-0.01579c2.5,0 2.5,2.5 2.5,2.5l-0.41987,0.61325c1.0869,1.64322 2.31038,3.2102 3.68764,4.61898c0.82434,0.8432 1.4871,2.4756 2.65785,2.33464c1.23894,-0.14916 0.77747,-2.37474 1.26468,-3.52359c0.96808,-2.28276 2.15885,-4.47991 2.93799,-6.83386c1.5752,-4.62774 3.12978,-9.33197 9.32842,-7.51913c1.13361,0.33153 1.69587,1.65135 2.62826,2.37634c0.94878,0.73774 2.06747,1.24183 3,2c2.7304,2.21989 4.71118,5.56371 6.49515,8.5466c0.47443,0.79327 1.19675,3.24524 1.4581,2.35865c0.4121,-1.39798 -0.24555,-2.93473 -0.00594,-4.37235c0.17329,-1.03975 0.73191,-1.98057 1,-3c0.40149,-1.52666 -0.37757,-3.86752 1.00594,-4.62765c1.70788,-0.93834 3.96442,0.18374 5.7761,0.90148c4.1037,1.62578 5.62089,7.54789 8.45344,10.35886c0.92927,0.92219 2.40753,1.22292 3.219,2.25028c0.75279,0.95307 0.83935,2.2794 1.25902,3.41911c0.00019,0.53685 -0.53519,1.64495 0.00056,1.61055c0.56439,-0.03624 -0.0083,-1.29314 0.43933,-1.63879c0.772,-0.59613 2.02401,-0.2651 2.79684,-0.86014c1.60292,-1.23417 2.33689,-3.31755 3.2717,-5.11161c1.26288,-2.42371 0.74579,-5.28464 0.74579,-7.90162c0,-1.86655 0.35015,-3.76026 0.03228,-5.59954c-0.17951,-1.0387 -0.83216,-1.95936 -1,-3c-0.68119,-4.22358 0.72547,-8.80221 0,-13c-0.17951,-1.0387 -0.83216,-1.95936 -1,-3c-0.31845,-1.97448 0.34059,-4.02921 0,-6c-0.49018,-2.83633 -0.9574,-5.87702 -1.90399,-8.60989c-1.19837,-3.93084 -4.08779,-6.36939 -7.21326,-8.85721c-1.98662,-1.58131 -1.9505,-2.62129 -4.42641,-3.64707c-5.39735,-2.23614 -11.63873,-2.9871 -17.29407,-3.80502c-2.62124,-0.3791 -5.04603,-1.98127 -7.69454,-1.98127c-2.32419,0 -4.69816,0.61883 -6.76825,1.6755c-0.81217,0.41457 -1.13524,1.48243 -1.91742,1.95113c-0.95397,0.57164 -2.18845,0.53607 -3.15406,1.08782c-3.97602,2.27189 -7.19285,4.35367 -10.3925,7.55332c-2.20555,2.07844 -2.42391,4.15849 -3.39606,7.0228c-2.37055,6.98455 -1.0478,16.71085 0.09601,23.80897c0.33539,2.08134 1.65445,3.92033 2,6c0.48597,2.92476 -0.48668,6.09155 0,9c0.05172,0.30909 0.11925,0.61418 0.19877,0.91624z" fill="#000000" stroke="none" stroke-width="0.5"></path><path d="M156.42696,251.1285c-0.48668,-2.90845 0.48053,-6.08506 -0.00543,-9.00982c-0.34555,-2.07967 -1.66741,-3.92783 -2.0028,-6.00917c-1.14381,-7.09812 -2.46174,-16.85781 -0.09119,-23.84236c0.97215,-2.86432 1.19627,-4.95295 3.40183,-7.0314c3.19965,-3.19965 6.42955,-5.29252 10.40557,-7.56441c0.96561,-0.55175 2.20407,-0.51829 3.15804,-1.08993c0.78218,-0.4687 1.1084,-1.53792 1.92057,-1.95249c2.0701,-1.05667 4.45305,-1.67808 6.77724,-1.67808c2.64851,0 5.08375,1.60132 7.70498,1.98042c5.65534,0.81792 11.92093,1.5758 17.31828,3.81194c2.47591,1.02578 2.44639,2.0704 4.433,3.65172c3.12547,2.48782 6.02553,4.93869 7.22391,8.86953c0.94659,2.73286 1.41901,5.78514 1.90919,8.62147c0.34059,1.97079 -0.31662,4.03437 0.00183,6.00886c0.16784,1.04064 0.8208,1.96603 1.00031,3.00473c0.72547,4.19779 -0.68443,8.79508 -0.00324,13.01866c0.16784,1.04064 0.81922,1.96436 0.99872,3.00305c0.31787,1.83928 -0.03534,3.73868 -0.03534,5.60523c0,2.61699 0.51224,5.48443 -0.75064,7.90815c-0.9348,1.79406 -1.6735,3.88215 -3.27642,5.11632c-0.77284,0.59504 -2.0272,0.26594 -2.7992,0.86207c-0.44763,0.34565 0.12386,1.60344 -0.44053,1.63969c-0.53574,0.0344 -0.05982,-1.1541 -0.06,-1.69095c-0.41967,-1.1397 -0.44488,-2.38708 -1.19767,-3.34015c-0.81147,-1.02737 -2.29094,-1.32716 -3.2202,-2.24935c-2.83255,-2.81097 -4.3507,-8.73238 -8.4544,-10.35816c-1.81168,-0.71774 -4.0776,-1.83455 -5.78548,-0.89621c-1.38351,0.76013 -0.60994,3.10296 -1.01143,4.62963c-0.26809,1.01943 -0.83005,1.96111 -1.00334,3.00086c-0.2396,1.43762 0.41653,2.97468 0.00443,4.37266c-0.26135,0.8866 -0.98542,-1.56507 -1.45985,-2.35834c-1.78397,-2.9829 -3.77824,-6.32649 -6.50863,-8.54638c-0.93253,-0.75817 -2.06006,-1.26414 -3.00884,-2.00188c-0.93239,-0.725 -1.50359,-2.04855 -2.63719,-2.38008c-6.19863,-1.81285 -7.69887,2.80786 -9.27407,7.4356c-0.77914,2.35395 -1.97204,4.54954 -2.94012,6.8323c-0.48721,1.14885 -0.08175,3.45725 -1.3207,3.60642c-1.17075,0.14095 -1.83718,-1.49411 -2.66152,-2.33731c-1.37726,-1.40878 -2.60634,-2.98098 -3.69324,-4.62419l0.41972,-0.61341c0,0 -0.00302,-2.50364 -2.50302,-2.50364c-0.11652,0 -0.22776,0.00523 -0.33367,0.01559c-0.07951,-0.30206 -0.14772,-0.60808 -0.19944,-0.91717z" data-paper-data="{&quot;noHover&quot;:false,&quot;origItem&quot;:[&quot;Path&quot;,{&quot;applyMatrix&quot;:true,&quot;segments&quot;:[[[156.66648,252.01579],[-0.07951,-0.30206],[0.10591,-0.01036]],[[157,252],[-0.11652,0],[2.5,0]],[159.5,254.5],[[159.08013,255.11325],[0,0],[1.0869,1.64322]],[[162.76777,259.73223],[-1.37726,-1.40878],[0.82434,0.8432]],[[165.42562,262.06688],[-1.17075,0.14095],[1.23894,-0.14916]],[[166.6903,258.54329],[-0.48721,1.14885],[0.96808,-2.28276]],[[169.62829,251.70943],[-0.77914,2.35395],[1.5752,-4.62774]],[[178.95671,244.1903],[-6.19863,-1.81285],[1.13361,0.33153]],[[181.58497,246.56664],[-0.93239,-0.725],[0.94878,0.73774]],[[184.58497,248.56664],[-0.93253,-0.75817],[2.7304,2.21989]],[[191.08013,257.11325],[-1.78397,-2.9829],[0.47443,0.79327]],[[192.53822,259.47189],[-0.26135,0.8866],[0.4121,-1.39798]],[[192.53228,255.09954],[-0.2396,1.43762],[0.17329,-1.03975]],[[193.53228,252.09954],[-0.26809,1.01943],[0.40149,-1.52666]],[[194.53822,247.47189],[-1.38351,0.76013],[1.70788,-0.93834]],[[200.31433,248.37337],[-1.81168,-0.71774],[4.1037,1.62578]],[[208.76777,258.73223],[-2.83255,-2.81097],[0.92927,0.92219]],[[211.98677,260.98252],[-0.81147,-1.02737],[0.75279,0.95307]],[[213.24579,264.40162],[-0.41967,-1.1397],[0.00019,0.53685]],[[213.24634,266.01217],[-0.53574,0.0344],[0.56439,-0.03624]],[[213.68567,264.37337],[-0.44763,0.34565],[0.772,-0.59613]],[[216.48252,263.51323],[-0.77284,0.59504],[1.60292,-1.23417]],[[219.75421,258.40162],[-0.9348,1.79406],[1.26288,-2.42371]],[[220.5,250.5],[0,2.61699],[0,-1.86655]],[[220.53228,244.90046],[0.31787,1.83928],[-0.17951,-1.0387]],[[219.53228,241.90046],[0.16784,1.04064],[-0.68119,-4.22358]],[[219.53228,228.90046],[0.72547,4.19779],[-0.17951,-1.0387]],[[218.53228,225.90046],[0.16784,1.04064],[-0.31845,-1.97448]],[[218.53228,219.90046],[0.34059,1.97079],[-0.49018,-2.83633]],[[216.62829,211.29057],[0.94659,2.73286],[-1.19837,-3.93084]],[[209.41503,202.43336],[3.12547,2.48782],[-1.98662,-1.58131]],[[204.98862,198.78629],[2.47591,1.02578],[-5.39735,-2.23614]],[[187.69454,194.98127],[5.65534,0.81792],[-2.62124,-0.3791]],[[180,193],[2.64851,0],[-2.32419,0]],[[173.23175,194.6755],[2.0701,-1.05667],[-0.81217,0.41457]],[[171.31433,196.62663],[0.78218,-0.4687],[-0.95397,0.57164]],[[168.16027,197.71445],[0.96561,-0.55175],[-3.97602,2.27189]],[[157.76777,205.26777],[3.19965,-3.19965],[-2.20555,2.07844]],[[154.37171,212.29057],[0.97215,-2.86432],[-2.37055,6.98455]],[[154.46772,236.09954],[-1.14381,-7.09812],[0.33539,2.08134]],[[156.46772,242.09954],[-0.34555,-2.07967],[0.48597,2.92476]],[[156.46772,251.09954],[-0.48668,-2.90845],[0.05172,0.30909]]],&quot;closed&quot;:true}]}" fill="#ffffff" stroke="none" stroke-width="0.5"></path><path d="M208.83556,208.05943c-1.06015,8.21616 -10.80025,13.73077 -21.75513,12.31724c-10.95488,-1.41353 -18.97614,-9.21994 -17.91599,-17.43609c1.06015,-8.21616 11.80025,-10.73077 22.75513,-9.31724c10.95488,1.41353 17.97614,6.21994 16.91599,14.43609z" fill="#ff7575" stroke="#000000" stroke-width="2.5"></path><path d="M170,237c0,5.79899 -3.80558,10.5 -8.5,10.5c-4.69442,0 -8.5,-4.70101 -8.5,-10.5c0,-5.79899 3.80558,-10.5 8.5,-10.5c4.69442,0 8.5,4.70101 8.5,10.5z" fill="#75a8ff" stroke="#000000" stroke-width="2.5"></path></g></g></svg>