<svg version="1.1" xmlns="http://www.w3.org/2000/svg" xmlns:xlink="http://www.w3.org/1999/xlink" width="255.43417" height="256.01786" viewBox="0,0,255.43417,256.01786"><g transform="translate(-62.94251,-59.24984)"><g data-paper-data="{&quot;isPaintingLayer&quot;:true}" fill-rule="nonzero" stroke="none" stroke-linecap="butt" stroke-linejoin="miter" stroke-miterlimit="10" stroke-dasharray="" stroke-dashoffset="0" style="mix-blend-mode: normal"><path d="M189.74944,259.04995c0,-2.5 -2.5016,-2.50004 -2.5016,-2.50004l0.50033,0.50001c-2.39859,-1.78882 -5.09557,-3.88837 -6.85174,-6.42556c1.17852,-1.01716 2.30572,-2.28851 3.35815,-3.6742c0,0 1.49022,-1.90048 -0.50978,-3.40048c-0.1755,-0.13163 -0.34756,-0.23635 -0.51469,-0.31779c-0.20231,-2.18225 -2.48781,-2.18253 -2.48781,-2.18253l-0.58944,0.03395c-7.86936,-1.29035 -16.4794,-2.10626 -24.21577,-4.43656c-5.20672,-1.56834 -9.53831,-5.39539 -14.81981,-6.44212c-6.85979,-4.2546 -13.55874,-8.30469 -20.79612,-11.91741c-8.12588,-4.05623 -16.48177,-6.8588 -24.0415,-12.05861c-7.30113,-5.02193 -15.10888,-10.59319 -18.25952,-19.1559c-2.13385,-4.93338 -6.04011,-9.12533 -8.02072,-14.05576c-2.22252,-5.53263 -0.80087,-11.55059 -1.31082,-17.27205c-0.40819,-4.5797 -1.88231,-11.2777 0.22803,-15.59928c0.20967,-0.42937 0.54826,-0.74526 0.82062,-1.0394c-0.31555,2.03786 -0.38299,4.10907 0.32492,5.5249c0.48832,0.97664 1.58221,1.48374 2.46134,2.15766c-0.26287,1.58323 -0.48667,3.13527 -0.69956,4.61832c-0.57404,3.99897 -2.86461,10.3648 -1.49193,14.24818c0.04469,0.12643 0.09329,0.25077 0.14538,0.37351l-0.04936,0.01645l0.98187,2.94413c0.31418,1.02156 1.16554,1.75778 2.29014,1.75778c1.0731,0 1.98835,-0.67687 2.34287,-1.62635l0.88551,-2.21458c2.70859,-3.54277 5.8852,-6.74301 9.04022,-9.89803c1.26134,-1.26135 2.36872,-2.69708 3.77121,-3.79935c2.71452,-2.13344 6.06101,-2.36464 9.07414,-3.73428c2.79862,-1.27214 5.43736,-3.17781 8.34604,-4.43295c4.81256,-2.0767 10.17058,-3.46404 15.54581,-3.93832l0.08831,0.42004c0,0.44649 -0.00788,5.16827 0.03368,5.39758c1.1213,6.18753 5.34257,11.4144 8.25828,16.75415c2.49669,4.57238 4.4521,9.53296 7.05155,14.07938c4.98353,8.71615 11.27955,17.36368 18.38493,24.48387c3.93142,3.91812 8.71858,7.35758 13.40534,10.32442c4.6648,2.95294 10.30708,4.39677 15.28381,6.65893c5.04893,2.29498 9.93514,5.026 15.31584,6.62567c3.82676,1.13768 7.76114,1.102 11.7024,1.10679c0,0 0.20396,0.00018 0.49581,-0.05825c0.74457,0.16716 1.98967,0.17299 2.73733,-1.32233c1.11803,-2.23608 -1.0718,-3.26544 -1.0718,-3.26544l-0.16455,0.14755c-2.06574,-2.57922 -2.45869,-6.64532 -2.49938,-10.03924c0.00253,-0.08035 0.00137,-0.15854 -0.00239,-0.23399c-0.00184,-0.2459 -0.00239,-0.48768 -0.00134,-0.72499c0,0 -0.00031,-1.27389 -0.90986,-2.00295l-0.24312,-0.60666c-3.92613,-11.76839 -5.29338,-24.57038 -10.49166,-35.85695c0.45233,-0.15978 0.99665,-0.34211 1.45797,-0.27406c1.47707,0.2179 2.75885,1.70419 4.23464,1.47772c1.17324,-0.18003 1.37262,-1.94765 2.4334,-2.48024c0.35385,-0.17766 0.65504,0.53969 0.98234,0.76249c0.43019,0.29284 0.86044,0.59626 1.30474,0.86938c0.74288,7.25117 1.92784,14.80386 3.34239,21.89419c0.90795,4.55104 1.75483,5.0961 3.06187,9.28443c1.51164,4.84397 2.90967,9.71745 4.50998,14.55131l0.32064,0.96285c-0.01717,0.54023 0.11155,1.07366 0.72604,1.68815c1.76777,1.76776 3.53351,0.00153 3.53351,0.00153c6.85477,-6.85478 13.90602,-14.69892 18.60604,-23.24509c2.16031,-3.92816 3.11593,-7.07363 4.48678,-11.22273c3.28116,-9.931 7.34213,-19.6972 11.00941,-29.50396c3.09649,-12.33619 5.77317,-25.67363 4.60967,-38.47235c-0.33856,-3.72424 -1.40536,-7.48036 -2.02043,-11.17195c-0.63547,-3.81398 -2.15646,-8.75874 1.00029,-12.04727c0.75994,-0.79166 2.26212,-0.11394 3.35949,-0.11394c0.59777,0.12168 3.78466,0.71814 4.28578,1.04144c1.59781,1.03084 2.58519,4.6004 3.07546,6.2129c0.33701,1.10843 0.73357,2.26364 1.10758,3.43606c-0.40487,0.36932 -0.71799,0.9414 -0.71799,1.82655c0,1.64935 1.089,2.21165 1.8295,2.40261c0.07986,0.45087 0.14285,0.90008 0.18385,1.34526c0.3799,4.12547 -0.50939,8.5698 -0.50939,12.75771l-0.42511,1.39408c0,0 -0.60545,2.42689 1.81991,3.03323c2.42536,0.60634 2.94416,-1.77067 2.94416,-1.77067l0.57511,-2.60551c0,-4.3715 0.87961,-8.92042 0.49056,-13.24215c-0.02666,-0.29615 0.01959,-0.65232 -0.02217,-0.95069c0.99325,0.02764 1.94865,0.15087 2.73914,0.48027c3.14659,1.31119 3.1793,2.00922 5.45287,4.75584c6.31195,7.62525 4.78717,17.38328 2.97877,26.42526l-0.04841,0.9907c0,0 0.00044,2.50138 2.50044,2.50138c2.5,0 2.40444,-2.47055 2.40444,-2.47055l-0.04855,-0.0097c0.53804,-2.69021 1.0225,-5.41742 1.32181,-8.13883c1.04805,1.09 1.73504,2.72136 2.84541,4.14838c6.19343,7.95965 2.31151,18.24797 -2.26092,25.86869l-1.08145,2.6836c0,0 -0.92836,2.32272 1.39283,3.25119c2.32119,0.92847 3.14985,-1.38664 3.14985,-1.38664l0.91851,-2.31658c2.2991,-3.83183 4.29269,-7.88257 5.29473,-12.10315c7.00501,1.32385 3.6325,9.86989 2.1962,14.18664c-1.40638,4.22684 -1.639,8.91386 -3.02517,13.08467c-1.11263,3.3478 -3.13846,5.97985 -4.79746,9.01994c-3.01737,5.52927 -6.27978,10.366 -10.31324,15.21483c-5.12788,7.67597 -11.5346,18.0342 -20.16281,22.29406c-1.70422,0.8414 -3.63928,1.13988 -5.36519,1.93584c-3.2866,1.51573 -6.20589,4.01563 -9.43597,5.47523c-2.16922,0.98022 -4.52985,1.52155 -6.66383,2.57628l-1.00044,0.50043c0,0 -0.83138,0.41602 -1.227,1.24668c-0.76296,-0.06726 -1.9334,0.10837 -2.49779,1.6134c-0.19192,0.51178 -0.23043,0.95401 -0.17274,1.33204c-0.48688,0.70617 -0.48748,1.54664 -0.48748,1.54664l0.17807,2.92907c0.66474,1.56867 0.85585,3.25028 0.74461,4.96241c-0.60782,-2.42119 -3.0314,-1.81501 -3.0314,-1.81501l-1.39428,0.4258c-2.79805,0.01236 -5.41195,-0.72271 -8.20935,-0.48945c-2.8695,0.23927 -5.50108,0.40477 -8.29832,0.46634c-0.00583,-0.17802 -0.11326,-1.27934 -0.82165,-1.95225c0.2207,-0.10508 0.45522,-0.20177 0.70716,-0.28934l1.83799,-1.55276c0,0 1.81534,-1.6798 0.04757,-3.44757c-1.76776,-1.76777 -3.53734,0.00096 -3.53734,0.00096l-0.16091,0.44668c-1.03075,0.44563 -2.19027,0.67165 -3.09426,1.33785c-1.57269,1.15901 -2.33385,3.3173 -4.06106,4.23021c-0.63768,0.33704 -1.44325,0.15564 -2.13512,0.35947c-3.6941,1.08831 -6.88323,3.20889 -10.93364,2.92435c-1.59677,-0.11217 -2.94748,-1.25633 -4.43522,-1.84701c-1.93265,-0.76732 -3.97182,-1.29365 -6.02142,-1.64447c0,0 -2.46795,-0.41095 -2.87895,2.05503c-0.41099,2.46598 2.05351,2.777 2.05351,2.777c0.51569,0.08318 1.03492,0.31065 1.54995,0.46871c-1.17132,0.86216 -2.31588,1.77368 -3.52029,2.58257c-0.36272,0.24361 -0.73701,0.4712 -1.11927,0.68577c0.00095,-0.03387 0.00144,-0.06822 0.00144,-0.10306z" data-paper-data="{&quot;noHover&quot;:false,&quot;origItem&quot;:[&quot;Path&quot;,{&quot;applyMatrix&quot;:true,&quot;segments&quot;:[[[189.75,259],[0,0],[0,0.03484]],[[189.74856,259.10306],[0.00095,-0.03387],[0.38226,-0.21457]],[[190.86714,258.41729],[-0.36272,0.24361],[1.20441,-0.80889]],[[194.38519,255.83478],[-1.17132,0.86216],[-0.51503,-0.15806]],[[192.83901,255.46599],[0.51569,0.08318],[0,0]],[[190.78402,252.58901],[-0.41099,2.46598],[0.411,-2.46598]],[[193.661,250.53402],[0,0],[2.0496,0.35082]],[[199.67848,252.17881],[-1.93265,-0.76732],[1.48774,0.59068]],[[204.11104,254.02621],[-1.59677,-0.11217],[4.05041,0.28454]],[[215.03763,251.10364],[-3.6941,1.08831],[0.69187,-0.20383]],[[217.17145,250.74462],[-0.63768,0.33704],[1.72721,-0.91291]],[[221.22928,246.5157],[-1.57269,1.15901],[0.90399,-0.6662]],[[224.32152,245.1788],[-1.03075,0.44563],[0,0]],[224.48223,244.73222],[[228.01776,244.73222],[-1.76776,-1.76777],[1.76777,1.76777]],[228.01776,248.26775],[[226.17847,249.82117],[0,0],[-0.25194,0.08757]],[[225.47088,250.11072],[0.2207,-0.10508],[0.70839,0.67291]],[[226.24941,251.97274],[-0.00583,-0.17802],[2.79724,-0.06157]],[[234.54379,251.5085],[-2.8695,0.23927],[2.7974,-0.23326]],[[242.74999,251.99998],[-2.79805,0.01236],[0,0]],[244.14365,251.57462],[[247.17445,253.39007],[-0.60782,-2.42119],[0.11124,-1.71213]],[[246.4288,248.42845],[0.66474,1.56867],[0,0]],[246.24999,245.49997],[[246.73687,243.95383],[-0.48688,0.70617],[-0.05769,-0.37803]],[[246.90917,242.62216],[-0.19192,0.51178],[0.56439,-1.50503]],[[249.40569,241.00989],[-0.76296,-0.06726],[0.39562,-0.83066]],[250.63196,239.7639],[[251.63196,239.2639],[0,0],[2.13398,-1.05473]],[[258.29329,236.69027],[-2.16922,0.98022],[3.23008,-1.4596]],[[267.72586,231.21937],[-3.2866,1.51573],[1.72591,-0.79596]],[[273.08973,229.28552],[-1.70422,0.8414],[8.62821,-4.25986]],[[293.24681,207.00423],[-5.12788,7.67597],[4.03346,-4.84883]],[[303.55849,191.79694],[-3.01737,5.52927],[1.659,-3.04009]],[[308.3556,182.78104],[-1.11263,3.3478],[1.38617,-4.17081]],[[311.38082,169.70184],[-1.40638,4.22684],[1.4363,-4.31675]],[[309.18535,155.52109],[7.00501,1.32385],[-1.00204,4.22058]],[[303.98961,167.61087],[2.2991,-3.83183],[0,0]],[303.07118,169.92844],[[299.82152,171.32116],[2.32119,0.92847],[-2.32119,-0.92847]],[298.4288,168.0715],[[299.51037,165.38907],[0,0],[4.57243,-7.62072]],[[301.77366,139.53103],[6.19343,7.95965],[-1.11037,-1.42702]],[[299.02219,135.34844],[1.04805,1.09],[-0.29931,2.72141]],[[297.70143,143.49026],[0.53804,-2.69021],[0,0]],[297.74998,143.49997],[[295.24998,145.99997],[2.5,0],[-2.5,0]],[292.74998,143.49997],[[292.79853,142.50968],[0,0],[1.8084,-9.04198]],[[289.82455,116.09455],[6.31195,7.62525],[-2.27357,-2.74662]],[[284.37334,111.34123],[3.14659,1.31119],[-0.79049,-0.3294]],[[281.63471,110.86167],[0.99325,0.02764],[0.04176,0.29837]],[[281.73781,111.75362],[-0.02666,-0.29615],[0.38905,4.32173]],[[281.24997,124.99997],[0,-4.3715],[0,0]],[280.67533,127.60631],[[277.64363,129.42532],[2.42536,0.60634],[-2.42536,-0.60634]],[275.82461,126.39363],[[276.24997,124.99997],[0,0],[0,-4.18791]],[[276.76213,112.24632],[0.3799,4.12547],[-0.041,-0.44518]],[[276.57861,110.90149],[0.07986,0.45087],[-0.7405,-0.19096]],[[274.74997,108.49997],[0,1.64935],[0,-0.88515]],[[275.46824,106.67375],[-0.40487,0.36932],[-0.37401,-1.17242]],[[274.36164,103.23883],[0.33701,1.10843],[-0.49027,-1.6125]],[[271.28819,97.02807],[1.59781,1.03084],[-0.50112,-0.3233]],[[267.00362,95.9878],[0.59777,0.12168],[-1.09737,0]],[[263.71174,96.02807],[0.75994,-0.79166],[-3.15675,3.28853]],[[262.71408,108.07788],[-0.63547,-3.81398],[0.61507,3.69159]],[[264.73781,119.25362],[-0.33856,-3.72424],[1.1635,12.79872]],[[260.13692,157.74324],[3.09649,-12.33619],[-3.66728,9.80676]],[[249.1287,187.26914],[3.28116,-9.931],[-1.37085,4.1491]],[[244.63918,198.50175],[2.16031,-3.92816],[-4.70002,8.54617]],[[226.01773,221.76773],[6.85477,-6.85478],[0,0]],[[222.4822,221.76773],[1.76777,1.76776],[-0.61449,-0.61449]],[[221.69759,219.99853],[-0.01717,0.54023],[0,0]],[[221.37671,219.03586],[0,0],[-1.60031,-4.83386]],[[216.86165,204.48884],[1.51164,4.84397],[-1.30704,-4.18833]],[[213.79492,195.20984],[0.90795,4.55104],[-1.41455,-7.09033]],[[210.44314,173.35614],[0.74288,7.25117],[-0.4443,-0.27312]],[[209.13906,172.48959],[0.43019,0.29284],[-0.3273,-0.2228]],[[208.25263,171.69892],[0.35385,-0.17766],[-1.06078,0.53259]],[[205.72273,174.20486],[1.17324,-0.18003],[-1.47579,0.22647]],[[201.49106,172.73653],[1.47707,0.2179],[-0.46132,-0.06805]],[[200.12435,172.96974],[0.45233,-0.15978],[5.19828,11.28657]],[[210.59743,208.89008],[-3.92613,-11.76839],[0,0]],[[210.84042,209.49682],[0,0],[0.90955,0.72906]],[[211.74997,211.49997],[0,0],[-0.00105,0.23731]],[[211.75091,212.2252],[-0.00184,-0.2459],[0.00376,0.07545]],[[211.75318,212.45927],[0.00253,-0.08035],[0.04069,3.39392]],[[214.24996,222.49997],[-2.06574,-2.57922],[0,0]],[214.36799,222.2639],[[215.48603,225.61801],[1.11803,-2.23608],[-0.74766,1.49532]],[[212.74617,226.94155],[0.74457,0.16716],[-0.29185,0.05843]],[[212.24996,226.99998],[0,0],[-3.94126,-0.00479]],[[200.53759,225.89634],[3.82676,1.13768],[-5.3807,-1.59967]],[[185.20532,219.27126],[5.04893,2.29498],[-4.97673,-2.26216]],[[169.90258,212.60582],[4.6648,2.95294],[-4.68676,-2.96684]],[[156.4822,202.26775],[3.93142,3.91812],[-7.10538,-7.12019]],[[138.08769,177.7548],[4.98353,8.71615],[-2.59945,-4.54642]],[[131.03741,163.66385],[2.49669,4.57238],[-2.91571,-5.33975]],[[122.78225,146.90043],[1.1213,6.18753],[-0.04156,-0.22931]],[[122.74997,141.49997],[0,0.44649],[0,0]],[[122.74997,141.12684],[0,0],[-5.37523,0.47428]],[[107.20668,145.05967],[4.81256,-2.0767],[-2.90868,1.25514]],[[98.86186,149.4891],[2.79862,-1.27214],[-3.01313,1.36964]],[[89.7885,153.22049],[2.71452,-2.13344],[-1.40249,1.10227]],[[86.01774,157.01774],[1.26134,-1.26135],[-3.15502,3.15502]],[[76.97823,166.9108],[2.70859,-3.54277],[0,0]],[[76.0928,169.12439],[0,0],[-0.35452,0.94948]],[[73.74998,170.74998],[1.0731,0],[-1.1246,0]],[[71.36004,168.98586],[0.31418,1.02156],[0,0]],[70.37827,166.04055],[[70.42763,166.02409],[0,0],[-0.05209,-0.12274]],[[70.28226,165.65043],[0.04469,0.12643],[-1.37268,-3.88338]],[[71.77511,151.39642],[-0.57404,3.99897],[0.21289,-1.48305]],[[72.47511,146.77624],[-0.26287,1.58323],[-0.87913,-0.67392]],[[70.01392,144.61801],[0.48832,0.97664],[-0.70791,-1.41583]],[[69.68958,139.09113],[-0.31555,2.03786],[-0.27236,0.29414]],[[68.96444,140.16024],[0.20967,-0.42937],[-2.11034,4.32158]],[[68.73783,155.75363],[-0.40819,-4.5797],[0.50995,5.72146]],[[70.04939,173.01875],[-2.22252,-5.53263],[1.98061,4.93043]],[[78.06996,187.06842],[-2.13385,-4.93338],[3.15064,8.56271]],[[96.32748,206.21399],[-7.30113,-5.02193],[7.55973,5.19981]],[[120.36439,218.26208],[-8.12588,-4.05623],[7.23738,3.61272]],[[141.15149,230.16816],[-6.85979,-4.2546],[5.2815,1.04673]],[[155.96237,236.60361],[-5.20672,-1.56834],[7.73637,2.3303]],[[180.161,241.03398],[-7.86936,-1.29035],[0,0]],[180.75,240.99996],[[183.23572,243.18221],[-0.20231,-2.18225],[0.16713,0.08144]],[[183.75,243.49996],[-0.1755,-0.13163],[2,1.5]],[[184.25,246.99996],[0,0],[-1.05243,1.38569]],[[180.90304,250.57481],[1.17852,-1.01716],[1.75617,2.53719]],[[187.75,256.99996],[-2.39859,-1.78882],[0,0]],[187.25,256.49996],[[189.75,258.99996],[0,-2.5],[0,0]]],&quot;closed&quot;:true,&quot;fillColor&quot;:[0,0,0,1]}]}" fill="#864100" stroke-width="0.5"></path><path d="M290.48223,193.76777c-1.76777,-1.76777 0,-3.53553 0,-3.53553l0.4699,-0.21703c2.15988,-5.03904 3.02944,-8.325 1.42362,-13.73226c-0.3007,-1.01255 -0.28551,-2.18455 -0.91264,-3.03449c-0.25986,-0.35219 -0.77317,-0.32981 -1.24564,-0.36778c0.08411,2.53673 -0.33993,5.09026 -1.46876,7.66467c-0.01469,0.33825 -0.1985,2.45466 -2.49872,2.45466c-2.5,0 -2.5,-2.5 -2.5,-2.5l0.26393,-1.61803c2.70145,-5.09285 0.69535,-10.39555 -1.53188,-15.3301c-0.44901,-0.99481 -0.5861,-2.15057 -1.22155,-3.03796c-0.3539,-0.49421 -0.78838,-0.91054 -1.2647,-1.28668c-0.06739,0.73066 -0.16349,1.47223 -0.28677,2.22347l-0.50759,2.53959c0,0 -0.49029,2.45145 -2.94174,1.96116c-2.45145,-0.49029 -1.96116,-2.94174 -1.96116,-2.94174l0.49241,-2.46041c1.05906,-6.24145 -0.03977,-11.90999 -6.159,-14.81323c0,0 -2.23607,-1.11803 -1.11803,-3.3541c1.11803,-2.23607 3.3541,-1.11803 3.3541,-1.11803c5.29061,2.74499 8.05013,6.84513 8.92805,11.77183c0.01032,0.0078 0.01565,0.01207 0.01565,0.01207c0.52704,0.42163 5.20816,4.13962 5.42776,4.43826c0.85757,1.16627 1.16271,2.65189 1.77845,3.96204c1.06067,2.25684 1.94948,4.52238 2.52088,6.79964c1.00123,-0.52433 2.13965,-0.06896 2.13965,-0.06896c1.11947,0.52425 2.56728,0.62291 3.3584,1.57274c1.14909,1.37961 1.48183,3.27523 2.08736,4.96551c2.26322,6.31758 0.95038,11.37119 -1.57638,17.26774l-1.5301,1.78297c0,0 -1.76777,1.76777 -3.53553,0z" fill="#000000" stroke-width="0.5"></path><path d="M114.98607,203.11803c-1.11803,2.23607 -3.3541,1.11803 -3.3541,1.11803l-2.64973,-1.4683c-2.24406,-2.24406 -4.28382,-4.78851 -6.5,-7c-1.86119,-1.85725 -4.18736,-3.38397 -5.48007,-5.67358c-2.46979,-4.37442 -0.38267,-10.48207 2.24783,-14.09419c0,0 0.45713,-0.6095 1.20314,-0.90321c-0.99031,-2.60309 -1.81153,-3.8038 -1.16303,-7.04285c1.13784,-5.68318 4.87587,-9.58424 9.03745,-13.19666c0.18529,-2.20863 0.6231,-5.32582 1.9811,-6.93246c0.93571,-1.10704 2.36972,-1.66996 3.55458,-2.50494c0,0 2.08013,-1.38675 3.46688,0.69338c1.38675,2.08013 -0.69338,3.46688 -0.69338,3.46688c-0.81514,0.49835 -1.7787,0.81074 -2.44542,1.49506c-1.20203,1.23376 -0.84481,3.36064 -0.94617,5.08016c-0.2661,4.51437 -0.0064,7.88394 3.2726,11.07689l-0.26777,-0.73223c0,0 2.5,0 2.5,2.5c0,2.5 -2.5,2.5 -2.5,2.5l-3.26777,-0.73223c-2.77366,-2.82968 -4.10882,-5.76917 -4.59144,-9.14253c-1.93476,2.04132 -3.47415,4.32922 -4.18091,7.32083c-0.52161,2.20788 0.71861,3.70442 1.41435,5.771c1.47304,4.37537 2.73278,8.44679 6.62576,11.28294l-0.10634,-0.92536c0,0 2.42536,-0.60634 3.0317,1.81902c0.60634,2.42536 -1.81902,3.0317 -1.81902,3.0317l-4.10634,0.07464c-3.46629,-2.6554 -5.40236,-5.90902 -6.903,-9.62502c-1.24438,2.22714 -2.14785,5.42065 -0.84917,7.53083c1.09313,1.77618 3.04659,2.85027 4.51993,4.32642c2.21938,2.22361 4.25202,4.75202 6.5,7l1.35027,0.5317c0,0 2.23607,1.11803 1.11803,3.3541z" fill="#000000" stroke-width="0.5"></path><path d="M152.25,277.5c-1.75221,1.31416 -3.12064,-0.05814 -3.43283,-0.41836c-0.20477,-0.00072 -0.41094,-0.00595 -0.61883,-0.01603c-0.19791,3.78284 -1.0661,7.24199 -4.31034,9.82302c-1.02836,0.81813 -2.02666,2.12226 -3.34045,2.09359c-5.30597,-0.11576 -6.13566,-2.37754 -7.23068,-6.40785c-0.27619,-1.01653 -0.68653,-2.69473 -0.51374,-4.16581c-1.15425,0.58522 -2.44035,0.9519 -3.64913,1.42226c-4.53457,1.76448 -11.98734,4.04769 -16.35411,0.23349c-1.02964,-0.89935 -0.45533,-2.70048 -0.5499,-4.06432c-0.15969,-2.30292 0.03195,-5.09514 1.24043,-7.05301c-2.61494,-0.76718 -5.00851,-1.933 -6.01583,-3.91135c-1.8579,-3.64885 1.731,-6.01589 3.84819,-7.58822c2.44774,-1.81781 5.95089,-4.15463 9.15577,-3.93695c1.07657,0.07312 2.00719,0.80031 3.0406,1.1108c2.27019,0.68207 4.56487,1.35584 6.71866,2.34263c0.69885,-0.4639 1.51217,-0.4639 1.51217,-0.4639l0.00971,0.04855c5.4873,-1.09674 11.07705,-2.00047 16.69649,-1.54003c2.9249,0.23966 5.56536,0.74799 8.54745,0.50365c0.89744,-0.07353 1.77289,-0.22555 2.63265,-0.43301c0.19708,-0.26824 0.47889,-0.52436 0.87335,-0.74976c0.88215,-0.50409 1.61066,-0.4448 2.1647,-0.19679c2.08966,-0.77277 4.12812,-1.7214 6.21575,-2.48007c2.13065,-0.7743 4.08061,-1.60255 5.85715,-2.67007c-0.02674,-0.75166 0.22366,-1.76341 1.57427,-2.30366c0.66709,-0.26684 1.21916,-0.26527 1.66721,-0.12753c0.23777,-0.22271 0.47159,-0.45384 0.70149,-0.69404c-7.89257,-1.30672 -16.41765,-2.14814 -24.15259,-4.46088c-5.33342,-1.59468 -9.80953,-5.47908 -15.18912,-6.56455c-7.10854,-4.15972 -13.83438,-8.39818 -21.2129,-12.09392c-6.78602,-3.39898 -14.12925,-5.65274 -20.67213,-9.59432c-4.17259,-2.51366 -8.15035,-5.5843 -11.84046,-8.74542c-5.37958,-4.60841 -9.63518,-8.75604 -12.19298,-15.46659c-2.08193,-4.91157 -6.0166,-9.02596 -7.97943,-13.95033c-2.47395,-6.20666 -1.0968,-12.36322 -1.68844,-18.73488c-0.52161,-5.61738 -1.89491,-13.13872 0.77339,-18.40661c1.40891,-2.78153 2.77058,-3.18201 5.3277,-4.91986c0,0 0.54913,-0.36609 1.2712,-0.43993c1.18123,-5.5214 2.38534,-12.04176 8.00366,-14.71908c1.23201,-0.58709 2.61672,-0.77645 3.92508,-1.16468c0,0 0.07296,-0.02085 0.1971,-0.04256c1.38437,-5.5615 3.64691,-11.68228 9.82237,-13.46291c0.72309,-0.20849 1.48215,-0.18327 2.24398,-0.14008c0.36091,-1.07041 0.82152,-2.07135 1.39525,-2.91241c2.98401,-4.37434 9.90048,-5.41753 14.70533,-5.03193c3.22864,0.2591 7.76535,0.53922 9.85088,3.53193c2.17612,3.1227 1.15714,3.71688 1.45973,6.71543c0.2511,2.48825 0.42513,4.64256 0.28259,6.96306c0.15884,0.01413 0.31749,0.02928 0.47592,0.04545c3.18182,0.32471 6.36772,1.38403 9.52822,2.153l-0.72601,-2.15545c0.52311,-2.61554 0.96452,-5.20862 1.58382,-7.77235c-1.00941,-1.01193 -0.50408,-2.52793 -0.50408,-2.52793c1.7055,-4.93833 5.4916,-10.48828 10.26081,-12.94904c3.58903,-1.85183 7.18816,-2.22838 11.00827,-3.18667c10.88326,-2.7301 21.32322,-3.43852 32.36648,-2.2818c0.34816,-4.16106 -0.46653,-8.50062 -0.75902,-12.63658c-0.08363,-1.18255 -0.21068,-2.36509 -0.4256,-3.53095c-0.24387,-1.32289 -1.51314,-2.70162 -0.94841,-3.92252c2.48198,-5.36584 10.52839,-3.49205 13.84587,-0.2742c1.97698,-2.07021 5.00249,-3.94764 6.52331,-3.92768c3.03863,0.03988 6.82386,4.29154 8.16431,6.74871c0.04228,0.0775 0.08607,0.15962 0.13113,0.24605c3.11176,-0.61405 6.59009,0.54353 8.62654,2.9065c2.14329,2.48694 2.67272,5.77073 2.51075,8.97115c2.36487,0.17545 4.99952,1.30426 6.05156,2.60687c5.77363,7.14876 -0.99711,16.72071 -5.53035,22.45175c-0.07533,0.41979 -0.27388,1.0597 -0.79718,1.51663c0.17313,0.26287 0.34095,0.52742 0.50324,0.79364c2.33974,3.83803 4.04581,7.62825 5.66992,11.8524c2.03537,5.29379 4.12341,9.94756 4.16377,15.72909c0.59947,4.19624 0.96595,8.60665 -0.06743,12.77985c-0.87342,3.52723 -2.7398,6.54698 -4.11658,9.85408c-2.03089,4.87832 -3.71909,9.91436 -7.67169,13.43193c-1.24741,1.11012 -2.61037,2.0954 -3.78151,3.28572c-0.97712,0.99311 -1.29156,2.9518 -2.65752,3.22595c-0.24227,0.04862 -0.48293,0.06252 -0.7221,0.04862c0.73096,6.20011 1.79523,12.51866 2.97322,18.54158c0.68075,3.48057 1.89316,5.42281 2.93823,8.77063c1.27211,4.07512 2.46538,8.16955 3.76719,12.2449c5.56746,-5.78356 11.06349,-12.23807 14.85001,-19.15908c2.05408,-3.75447 2.81281,-6.42681 4.11575,-10.36613c3.27861,-9.91259 7.31268,-19.69233 10.99178,-29.4741c2.91001,-11.69052 5.5016,-24.38326 4.39911,-36.51038c-0.43115,-4.74254 -1.69585,-9.61625 -2.47627,-14.32426c-0.37243,-2.24671 -0.95504,-3.51696 -0.49078,-5.89485c0.36872,-1.88858 2.91294,-6.65851 3.99311,-7.55533c1.45643,-1.20922 4.9513,-0.95973 6.70812,-0.95973c1.96965,0.38884 5.0762,0.84868 6.71543,1.95973c2.59059,1.75587 4.06156,6.00759 4.92655,8.78924c0.41667,1.33995 0.89193,2.73736 1.32446,4.15572c1.95423,-0.04153 3.95456,0.02971 5.66386,0.74188c4.30797,1.79488 4.59302,2.71915 7.54879,6.24668c4.22138,5.03794 5.62516,10.83479 5.66091,16.84407c1.07999,0.46579 2.3391,0.67052 3.18142,1.48275c0.79557,0.76714 0.81486,2.0667 1.39225,3.00906c1.95028,3.18306 4.25304,4.69634 5.25738,8.62138c0.67299,2.63008 0.89141,5.20617 0.7494,7.72397c1.01876,0.20244 2.14756,0.14691 3.01285,0.70917c7.84104,5.09504 5.59905,12.78733 3.18953,20.0023c-1.39418,4.17469 -1.59702,8.79762 -2.97478,12.9208c-1.25486,3.7554 -3.35492,6.59456 -5.20289,9.9841c-3.12103,5.72459 -6.50299,10.77994 -10.68832,15.79271c-5.59183,8.4064 -12.49642,19.00004 -21.84292,23.71871c-1.78624,0.9018 -3.8196,1.22704 -5.63613,2.06615c-3.34756,1.54634 -6.26715,4.0217 -9.56743,5.5291c-1.51967,0.69411 -3.15099,1.12859 -4.71304,1.72017c5.33318,1.90117 10.5594,4.3971 11.72405,10.56968c0.61493,3.25911 -0.50174,6.99361 -1.21993,10.19062c2.22583,1.9047 4.00576,4.31377 5.08402,7.30834c1.14981,3.19329 1.039,7.90451 -2.31597,10.13324c-1.96461,1.30511 -4.77183,0.68543 -7.07374,0.17143c-0.1124,-0.0251 -0.99566,-0.53323 -2.11998,-1.19721c-0.34953,0.4072 -0.77114,0.8251 -1.27951,1.26137c-1.18574,1.01756 -2.9458,1.05238 -4.45357,1.46229c-4.07867,1.10885 -9.95952,0.1443 -13.49103,-2.35974c-1.24705,-0.88423 -2.32594,-2.18583 -3.2903,-3.55316c-3.25529,3.75439 -7.00552,7.15029 -11.00138,9.61483c-2.60494,1.60666 -5.45829,3.02433 -8.43478,4.28357c-0.12333,0.27919 -0.31705,0.56592 -0.60378,0.85265c-1.06458,1.06458 -2.12916,0.84694 -2.80765,0.50535c-4.03779,1.51395 -8.20855,2.77069 -12.22211,3.84104c-0.00064,0.00129 -0.00129,0.00259 -0.00194,0.00388c-1.11803,2.23607 -3.3541,1.11803 -3.3541,1.11803l-0.41456,-0.21122c-1.97822,0.26967 -3.9722,0.47047 -5.96741,0.47516h-0.29891c0.93922,6.76502 -0.99294,12.35548 -5.58306,17.73607c-5.58429,0.29871 -9.94948,-1.49552 -13.24466,-6.42174c-1.40145,-2.09514 -1.75174,-4.72776 -2.56597,-7.11327c-0.09566,-0.28027 0.0913,-0.81056 -0.19966,-0.8657c-0.41791,-0.0792 -0.71147,0.48923 -1.11745,0.6161c-1.61718,0.50534 -3.21454,1.09027 -4.86589,1.46932c-3.34632,0.76811 -11.13264,2.23132 -14.29173,0.98852c-1.81017,-0.71213 -4.17991,-1.97009 -4.33267,-3.90929c-0.13686,-1.73748 2.3616,-2.58638 3.73664,-3.65729c2.85734,-2.22538 6.30789,-3.39119 9.70686,-4.48217c-1.75623,-0.31369 -3.52635,-0.59833 -4.79307,-1.7561c-5.46742,-4.99713 -5.86115,-6.77456 0.37681,-9.05933c0.15746,-0.05767 6.04254,-0.04548 6.47277,-0.04511c4.16698,0.00356 8.2472,0.51514 12.34425,1.0945c0.37417,-0.0945 0.65575,-0.0945 0.65575,-0.0945l0.57152,0.17881c7.4743,-2.97969 15.53492,-3.39243 23.22951,-5.57911c1.18879,-0.33784 2.33706,-0.77059 3.45228,-1.27588c0.13955,-0.2358 0.33484,-0.47288 0.60042,-0.70526c0.7369,-0.64479 1.43772,-0.74841 2.01768,-0.63587c3.23826,-1.84208 6.2273,-4.18693 9.17598,-6.40858c0.27992,-0.2109 1.05364,-0.77975 1.95812,-1.47776c0.04877,-0.22388 0.13223,-0.46201 0.25842,-0.71438c0.61935,-1.2387 1.5818,-1.44811 2.31715,-1.38848c0.59266,-0.52661 1.0802,-1.01066 1.33181,-1.36972c1.83679,-2.62115 2.06228,-5.71176 2.08589,-8.76159c-0.53265,0.4883 -1.14767,0.96309 -1.92024,1.3932c-0.85537,0.47621 -1.92977,0.35541 -2.86618,0.64098c-4.5459,1.38632 -8.03881,3.4558 -13.07341,3.07743c-1.10663,-0.08317 -2.22134,-0.41332 -3.34191,-0.84271c-0.10903,0.06999 -0.17902,0.10499 -0.17902,0.10499c-3.85472,1.89784 -6.60718,4.67031 -10.56616,6.53188c-10.07278,4.73636 -20.38131,7.92765 -31.18699,10.49997c-1.83725,0.43736 -3.4642,0.9173 -5.03573,1.27357c-0.15917,0.32616 -0.42143,0.65273 -0.82915,0.95852zM143.35543,261.71837c0,0 -0.27693,-0.92308 0.08622,-1.79494c-3.59937,0.17414 -7.17995,0.82327 -10.70137,1.52802l-0.99029,0.04855c0,0 -0.15317,0 -0.38369,-0.03791c-1.16644,1.05794 -2.73435,0.27398 -2.73435,0.27398c-4.26392,-2.15784 -7.95653,-4.10934 -12.09573,-1.59234c-0.78257,0.47588 -1.58756,0.91518 -2.35903,1.40885c-0.61291,0.3922 -1.18323,0.84799 -1.79163,1.24715c-0.11037,0.07241 -0.47886,0.10682 -0.36018,0.16462c2.98444,1.45355 6.49549,1.94031 9.71489,2.58419l2.45459,0.49092c1.16847,0.20987 2.05512,1.23166 2.05512,2.46053c0,1.31307 -1.0123,2.3897 -2.29905,2.49204l-2.33603,0.21237c1.43767,0.90902 2.89862,1.78183 4.37543,2.62498l-0.24035,-0.32939c0,0 1.61422,0 2.24845,1.2971c1.13671,-0.46114 2.28502,-0.95768 3.48585,-1.45302c1.40599,-0.57997 3.05627,-2.57028 4.25836,-1.63855c2.06582,1.60121 1.34511,17.3928 6.42023,9.91825c0.35981,-0.52992 0.52245,-1.17645 0.67957,-1.79741c0.43142,-1.70501 0.43992,-2.39889 0.42096,-3.67627l-1.00372,-0.19864c0,0 -2.45145,-0.49029 -1.96116,-2.94174c0.49029,-2.45145 2.94174,-1.96116 2.94174,-1.96116l2.65138,0.5352c0.13278,0.04866 0.26666,0.09385 0.40159,0.13571c-0.87368,-3.36243 -1.93605,-6.6619 -2.93782,-10.00109zM148.14457,260.28163c1.16937,3.89794 2.53609,7.73827 3.30117,11.73494c3.54224,-0.44745 7.26449,-1.87971 10.39595,-2.6317c1.92573,-0.46244 3.83719,-0.978 5.73193,-1.54555l-0.32362,-0.33932c-2.06923,-2.7746 -4.32628,-4.91489 -6.27625,-7.61542c-1.13419,0.2891 -2.28983,0.50288 -3.47741,0.60325c-3.27995,0.27722 -6.23691,-0.22357 -9.45255,-0.49635c-0.00494,-0.00042 -0.00988,-0.00084 -0.01483,-0.00125c0.08051,0.17445 0.11559,0.2914 0.11559,0.2914zM171.25,264.5l0.26777,0.23223c0,0 0.65955,0.65955 0.77006,1.57578c3.03247,-1.06283 6.01533,-2.26064 8.93804,-3.58861c1.29745,-0.58952 2.66935,-1.09291 4.03663,-1.6169l-0.51249,-0.1025c-2.91903,-2.20001 -5.79146,-4.63178 -7.88172,-7.59783c-2.64949,1.51709 -5.54905,2.66198 -8.6898,3.91902c-0.74988,0.30013 -1.49912,0.60384 -2.25113,0.89873c1.68478,2.13905 3.58875,3.97949 5.32265,6.28008zM189.75,259c0,0.03484 -0.00049,0.06919 -0.00144,0.10306c0.38226,-0.21457 0.75586,-0.44216 1.11858,-0.68577c1.20441,-0.80889 2.34673,-1.72035 3.51805,-2.58251c-0.51503,-0.15806 -1.03049,-0.28561 -1.54618,-0.36879c0,0 -2.46598,-0.411 -2.05499,-2.87698c0.411,-2.46598 2.87698,-2.05499 2.87698,-2.05499c2.0496,0.35082 4.08483,0.87747 6.01748,1.64479c1.48774,0.59068 2.83579,1.73523 4.43256,1.8474c4.05041,0.28454 7.23249,-1.83426 10.92659,-2.92257c0.69187,-0.20383 1.49614,-0.02198 2.13382,-0.35902c1.72721,-0.91291 2.48514,-3.06991 4.05783,-4.22892c0.90399,-0.6662 2.06149,-0.89127 3.09224,-1.3369l0.16071,-0.44658c0,0 1.76777,-1.76777 3.53553,0c1.76777,1.76777 0,3.53553 0,3.53553l-1.83929,1.55342c-0.25194,0.08757 -0.48689,0.18447 -0.70759,0.28955c0.70839,0.67291 0.7727,1.684 0.77853,1.86202c2.79724,-0.06157 5.42488,-0.22497 8.29438,-0.46424c2.7974,-0.23326 5.40815,0.50384 8.2062,0.49148l1.39366,-0.42536c0,0 2.42298,-0.60574 3.0308,1.81545c0.11124,-1.71213 -0.08091,-3.39295 -0.74565,-4.96162l-0.17881,-2.92848c0,0 0,-0.83997 0.48688,-1.54614c-0.05769,-0.37803 -0.01962,-0.81989 0.1723,-1.33167c0.56439,-1.50503 1.73356,-1.67953 2.49652,-1.61227c0.39562,-0.83066 1.22627,-1.24599 1.22627,-1.24599l1,-0.5c2.13398,-1.05473 4.49211,-1.59341 6.66133,-2.57363c3.23008,-1.4596 6.14597,-3.95517 9.43257,-5.4709c1.72591,-0.79596 3.65965,-1.09245 5.36387,-1.93385c8.62821,-4.25986 15.0292,-14.60532 20.15708,-22.28129c4.03346,-4.84883 7.29431,-9.67802 10.31168,-15.20729c1.659,-3.04009 3.68448,-5.6681 4.79711,-9.0159c1.38617,-4.17081 1.61884,-8.85236 3.02522,-13.0792c1.4363,-4.31675 4.80954,-12.8569 -2.19547,-14.18075c-1.00204,4.22058 -2.89664,8.25795 -5.19574,12.08978l-0.91843,2.31757c0,0 -0.92847,2.32119 -3.24966,1.39272c-2.32119,-0.92847 -1.39272,-3.24966 -1.39272,-3.24966l1.08157,-2.68243c4.57243,-7.62072 8.45672,-17.89839 2.26329,-25.85804c-1.11037,-1.42702 -1.70342,-3.09259 -2.75147,-4.18259c-0.29931,2.72141 -0.78272,5.45161 -1.32076,8.14182l0.04855,0.00971c0,0 0,2.5 -2.5,2.5c-2.5,0 -2.5,-2.5 -2.5,-2.5l0.04855,-0.99029c1.8084,-9.04198 3.33797,-18.78988 -2.97398,-26.41513c-2.27357,-2.74662 -2.30462,-3.44213 -5.45121,-4.75332c-0.79049,-0.3294 -1.74538,-0.45192 -2.73863,-0.47956c0.04176,0.29837 0.07644,0.5958 0.1031,0.89195c0.38905,4.32173 -0.48784,8.87485 -0.48784,13.24635l-0.57464,2.60634c0,0 -0.60634,2.42535 -3.0317,1.81901c-2.42536,-0.60634 -1.81902,-3.03169 -1.81902,-3.03169l0.42536,-1.39366c0,-4.18791 0.89206,-8.62818 0.51216,-12.75365c-0.041,-0.44518 -0.10366,-0.89396 -0.18352,-1.34483c-0.7405,-0.19096 -1.82864,-0.75217 -1.82864,-2.40152c0,-0.88515 0.3134,-1.4569 0.71827,-1.82622c-0.37401,-1.17242 -0.76959,-2.32649 -1.1066,-3.43492c-0.49027,-1.6125 -1.47564,-5.17992 -3.07345,-6.21076c-0.50112,-0.3233 -3.6868,-0.91859 -4.28457,-1.04027c-1.09737,0 -2.53194,-0.75139 -3.29188,0.04027c-3.15675,3.28853 -1.63313,8.23583 -0.99766,12.04981c0.61507,3.69159 1.68517,7.4515 2.02373,11.17574c1.1635,12.79872 -1.5044,26.15343 -4.60089,38.48962c-3.66728,9.80676 -7.72706,19.5949 -11.00822,29.5259c-1.37085,4.1491 -2.32921,7.30445 -4.48952,11.23261c-4.70002,8.54617 -11.76668,16.4112 -18.62145,23.26598c0,0 -1.76776,1.76776 -3.53553,0c-0.61449,-0.61449 -0.80178,-1.22897 -0.78461,-1.7692l-0.32088,-0.96267c-1.60031,-4.83386 -3.00342,-9.70305 -4.51506,-14.54702c-1.30704,-4.18833 -2.15878,-4.72796 -3.06673,-9.279c-1.41455,-7.09033 -2.6089,-14.60253 -3.35178,-21.8537c-0.4443,-0.27312 -0.87389,-0.57371 -1.30408,-0.86655c-0.3273,-0.2228 -0.53258,-0.96833 -0.88643,-0.79067c-1.06078,0.53259 -1.35666,2.32591 -2.5299,2.50594c-1.47579,0.22647 -2.7546,-1.25043 -4.23167,-1.46833c-0.46132,-0.06805 -0.91438,0.07343 -1.36671,0.23321c5.19828,11.28657 6.54695,24.15195 10.47308,35.92034l0.24299,0.60674c0.90955,0.72906 0.90955,2.00315 0.90955,2.00315c-0.00105,0.23731 -0.0009,0.47933 0.00094,0.72523c0.00376,0.07545 0.0048,0.15372 0.00227,0.23407c0.04069,3.39392 0.43104,7.46148 2.49678,10.0407l0.11803,-0.23607c0,0 2.23607,1.11803 1.11804,3.35411c-0.74766,1.49532 -1.99529,1.4907 -2.73986,1.32354c-0.29185,0.05843 -0.49621,0.05843 -0.49621,0.05843c-3.94126,-0.00479 -7.88561,0.03404 -11.71237,-1.10364c-5.3807,-1.59967 -10.28334,-4.3301 -15.33227,-6.62508c-4.97673,-2.26216 -10.63794,-3.7125 -15.30274,-6.66544c-4.68676,-2.96684 -9.48896,-6.41995 -13.42038,-10.33807c-7.10538,-7.12019 -13.41098,-15.7968 -18.39451,-24.51295c-2.59945,-4.54642 -4.55359,-9.51857 -7.05028,-14.09095c-2.91571,-5.33975 -7.13386,-10.57589 -8.25516,-16.76342c-0.04156,-0.22931 -0.03228,-4.95397 -0.03228,-5.40046v-0.37313c-5.37523,0.47428 -10.73073,1.85613 -15.54329,3.93283c-2.90868,1.25514 -5.5462,3.15729 -8.34482,4.42943c-3.01313,1.36964 -6.35884,1.59795 -9.07336,3.73139c-1.40249,1.10227 -2.50942,2.5359 -3.77076,3.79725c-3.15502,3.15502 -6.33092,6.35029 -9.03951,9.89306l-0.88543,2.21359c-0.35452,0.94948 -1.26972,1.62559 -2.34282,1.62559c-1.1246,0 -2.07576,-0.74256 -2.38994,-1.76412l-0.98177,-2.94531l0.04936,-0.01646c-0.05209,-0.12274 -0.10068,-0.24723 -0.14537,-0.37366c-1.37268,-3.88338 0.91881,-10.25504 1.49285,-14.25401c0.21289,-1.48305 0.43713,-3.03695 0.7,-4.62018c-0.87913,-0.67392 -1.97287,-1.18159 -2.46119,-2.15823c-0.70791,-1.41583 -0.63989,-3.48902 -0.32434,-5.52688c-0.27236,0.29414 -0.51547,0.63974 -0.72514,1.06911c-2.11034,4.32158 -0.6348,11.01369 -0.22661,15.59339c0.50995,5.72146 -0.91096,11.73249 1.31156,17.26512c1.98061,4.93043 5.88672,9.11629 8.02057,14.04967c3.15064,8.56271 10.95639,14.12364 18.25752,19.14557c7.55973,5.19981 15.91103,7.99186 24.03691,12.04809c7.23738,3.61272 13.92731,7.65148 20.7871,11.90608c5.2815,1.04673 9.60416,4.86711 14.81088,6.43545c7.73637,2.3303 16.32927,3.14002 24.19863,4.43037l0.589,-0.03402c0,0 2.28341,0 2.48572,2.18225c0.16713,0.08144 0.33878,0.18612 0.51428,0.31775c2,1.5 0.5,3.5 0.5,3.5c-1.05243,1.38569 -2.16844,2.55769 -3.34696,3.57485c1.75617,2.53719 4.44837,4.63633 6.84696,6.42515l-0.5,-0.5c0,0 2.5,0 2.5,2.5zM184.10374,285.38144c0,0 -0.28114,-0.246 -0.53098,-0.65649c-1.70905,0.39357 -3.40176,0.8496 -5.06563,1.41837c-0.70639,1.6036 -2.61068,1.33155 -2.61068,1.33155c-4.13551,-0.59191 -8.13532,-1.15453 -12.30179,-1.4797c-1.64183,-0.12814 -3.57452,0.21027 -5.37827,0.23545c1.54698,0.44494 3.11178,0.83176 4.63856,1.34086l4.74283,0.94857c1.16847,0.20987 2.05512,1.23166 2.05512,2.46053c0,0.90448 -0.48033,1.69678 -1.19982,2.13573l-2.36697,1.4967l-0.02205,-0.03487c-0.05832,0.05014 -0.1173,0.0996 -0.17699,0.14831c-2.70363,2.20662 -7.32137,2.30442 -10.46908,3.98394c-0.00968,0.00516 -0.01941,0.01038 -0.0292,0.01566c1.35363,-0.03513 2.71182,-0.04214 4.05112,-0.20674c3.17601,-0.39035 5.70306,-1.52764 8.8198,-1.97076c1.28755,-0.18305 2.67992,-0.87885 3.88255,-0.3839c4.07782,1.67826 3.27922,7.07417 5.23437,10.02103c1.47877,2.22883 4.19509,3.96207 6.75534,4.57826c0.94276,-2.10949 2.6205,-4.6357 3.18491,-6.83831c0.43893,-1.71293 0.01084,-4.28839 -0.36762,-6.19279c-0.23409,-0.25607 -1.58929,-1.87833 0.03297,-3.50059c0.78244,-0.78244 1.56487,-0.87224 2.19402,-0.72926c0.71385,-1.00297 2.07374,-1.00297 2.07374,-1.00297h0.54393c-2.6073,-2.30039 -5.03893,-4.79984 -7.6902,-7.11856zM230.32152,276.32119l-2.5,-1c-3.40542,-1.39048 -6.11233,-3.6413 -9.21184,-5.4977c-0.85989,0.66685 -1.6718,1.26665 -2.3006,1.74182c-2.73747,2.06862 -5.50158,4.17784 -8.43263,5.97813c2.38247,2.9606 4.66654,6.04839 7.25157,8.77696c5.7638,-2.51484 11.21722,-5.70942 15.72167,-9.86103c-0.3185,-0.05431 -0.52817,-0.13817 -0.52817,-0.13817zM199.44897,281.4003c-3.26289,0.93665 -6.60814,1.52967 -9.94598,2.14025c3.04265,2.8665 5.93332,5.88082 9.39399,8.21902c3.70465,-0.95743 7.52308,-2.08829 11.28833,-3.46508c-2.35229,-2.68837 -4.50994,-5.58698 -6.79235,-8.35111c-1.27248,0.57305 -2.584,1.06652 -3.94399,1.45692zM229.67848,270.67881l2.5,1c0,0 1.33982,0.53593 1.57645,1.81137c0.21012,-0.23907 0.41729,-0.4809 0.62142,-0.72552c-0.24989,-0.72312 -0.37984,-1.93363 0.9869,-2.84479c0.54299,-0.36199 1.03873,-0.48775 1.47489,-0.47594c0.26384,-0.40337 0.51998,-0.81339 0.76813,-1.23017c1.83933,-3.08923 4.56983,-6.17072 5.19228,-9.70405c0,0 0.2602,-1.301 1.34926,-1.8179l-1.39781,0.30819c-1.92303,-0.00721 -3.83466,-0.30351 -5.74634,-0.51217c-2.38057,-0.25984 -2.38537,0.28552 -5.04745,0.50365c-1.95401,0.16011 -3.9174,0.09508 -5.88009,0.0454c-0.27343,2.93944 -0.97097,5.81174 -2.739,8.33935c-0.23844,0.34088 -0.53116,0.69384 -0.86254,1.05224c2.33799,1.56479 4.58215,3.22929 7.20391,4.25034zM245.35634,256.42536l-0.26537,0.05851c0.19944,-0.00209 0.41546,0.01791 0.64932,0.06468c0.33677,0.06735 0.61802,0.17172 0.85265,0.30165c0.13031,-0.50656 0.2441,-1.0151 0.33703,-1.52357c-0.55123,0.84312 -1.57364,1.09872 -1.57364,1.09872zM117.25,276c-0.05241,0.35795 -0.87729,0.78177 -0.5499,0.93568c0.81018,0.38087 1.79111,0.11976 2.68484,0.06796c0.62216,-0.03606 1.22491,-0.09964 1.81256,-0.18691c-1.3489,-0.80926 -2.6821,-1.6449 -3.99453,-2.51133c0.00286,0.89623 0.04882,1.68233 0.04702,1.6946zM258.75,269.5c2.5,0 2.5,2.5 2.5,2.5v0.5c-0.02392,1.18278 0.0213,2.20465 -0.01055,3.14201c0.59802,0.36246 1.21274,0.69251 1.85838,0.96284c0.90906,0.38063 2.09124,0.9777 2.92243,0.44817c2.32988,-1.48434 -0.1858,-5.06276 -0.91399,-6.26678c-0.95132,-1.57296 -1.96216,-2.79459 -3.12065,-3.77345c-0.67504,0.10179 -1.5133,-0.0497 -2.23561,-1.01279c-0.18123,-0.24163 -0.31136,-0.47597 -0.40011,-0.70125c-1.11583,-0.55289 -2.36331,-0.99971 -3.78669,-1.39494c0,0 -2.40381,-0.6868 -1.71701,-3.09061c0.6868,-2.40381 3.09061,-1.71701 3.09061,-1.71701c1.64883,0.48207 3.24906,1.09583 4.75432,1.85598c0.2669,-2.16513 0.86818,-4.3899 0.59116,-6.55171c-0.18854,-1.47131 -1.5826,-2.5616 -2.69959,-3.53764c-2.53104,-2.21166 -5.36113,-3.07538 -8.42796,-4.06841c2.35218,6.42452 -0.00951,13.10869 -2.60687,19.19039c0,0 -0.9848,2.29786 -3.28266,1.31306c-0.38616,-0.1655 -0.67962,-0.36808 -0.90062,-0.59061c-0.31774,0.51015 -0.64318,1.03271 -0.97085,1.57898c-0.92905,1.54885 -1.9616,3.10794 -3.08284,4.64327c0.91168,1.37809 2.03242,2.93237 2.84111,3.50061c2.55893,1.79808 9.16981,3.16699 12.01055,1.13515c-0.29029,-0.17513 -0.53118,-0.32054 -0.70282,-0.42396l-1.44579,-2.02327c0,0 -1.11803,-2.23607 1.11803,-3.3541c0.89458,-0.44729 1.61021,-0.35774 2.1469,-0.08931c0.09884,-0.67697 0.53616,-2.17462 2.47114,-2.17462zM81.36189,122.23913c-4.26624,1.79951 -4.72872,8.30492 -5.55824,12.2878c0.68662,-1.53608 1.49576,-2.98389 2.45959,-4.29442c1.0833,-1.47297 2.75125,-2.38829 4.26169,-3.44836c-0.40651,-1.56196 -0.46776,-3.1666 -0.30624,-4.84201c-0.29099,0.08337 -0.57766,0.17925 -0.8568,0.29699zM89.25,129c0,2.5 -2.5,2.5 -2.5,2.5l-1.47092,-0.58837c-1.11051,0.69286 -2.29398,1.31022 -3.04231,2.35585c-1.70886,2.38775 -2.89952,5.70012 -3.55365,8.55689c-1.23387,5.38873 -2.04747,10.88231 -2.96901,16.34771c-0.14313,0.84885 -0.14697,1.74923 -0.15603,2.6342c1.96703,-2.28301 4.06566,-4.45261 6.19696,-6.59509c-0.11046,-0.84053 0.25889,-1.57923 0.25889,-1.57923c6.11732,-12.21831 17.60088,-21.02546 30.49454,-25.26946c5.73162,-1.88659 13.02789,-1.62268 18.98787,-1.60034c1.83819,0.36764 3.74785,0.2255 5.60041,0.512c5.53529,0.85603 11.19754,2.35672 16.67463,3.53081c3.24311,0.6952 6.03545,1.58599 9.19098,2.54866c0.93639,0.28567 2.01082,0.16478 2.86619,0.64099c8.93549,4.97463 12.83562,20.4678 7.52338,29.10884c-1.23689,2.01195 -3.70642,3.57231 -5.58151,4.9288c-0.13118,0.02675 -0.25959,0.052 -0.38536,0.07578c5.458,1.52053 10.84567,3.21231 16.57113,3.65047c2.1966,0.1681 5.59381,0.39743 7.82103,0.03659c1.69957,-0.27535 2.61114,-2.40489 4.24831,-2.93784c1.02958,-0.33516 2.14964,0.26182 3.22446,0.39273c0.91963,-0.16218 1.84133,-0.66005 2.7589,-0.48656c1.03624,0.19593 1.73109,1.72223 2.76833,1.53167c1.15081,-0.21142 1.32169,-2.26996 2.4701,-2.49406c1.1873,-0.23168 3.75689,0.9349 5.47297,1.94672c1.826,-0.06439 2.34001,1.40132 2.4748,2.01343c0.3145,-0.32657 -0.12059,-1.25105 0.1984,-1.68555c1.10875,-1.51024 2.79605,-2.49492 4.21849,-3.71428c3.27878,-2.81068 4.64695,-7.53616 6.32831,-11.56807c1.28063,-3.07097 3.05669,-5.87804 3.88342,-9.14592c0.91882,-3.63188 0.45254,-7.58037 -0.06743,-11.22015c0.0417,-5.25677 -1.98743,-9.46566 -3.83623,-14.27091c-1.55061,-4.03021 -3.15011,-7.44438 -5.33008,-11.1476c-0.79602,-1.35224 -3.10934,-3.49376 -4.10775,-4.49094c-4.7691,-4.76324 -10.30787,-8.80194 -16.60888,-11.4265c-3.63632,-1.51464 -7.79817,-2.29261 -11.62328,-3.39176c-6.06303,-0.7489 -11.9036,-0.90021 -17.72409,-0.44446c0.07136,0.0147 0.1428,0.02921 0.2143,0.04351c0,0 1.05486,0.21097 1.64227,1.04809c6.30418,3.45099 12.86671,6.75261 18.76242,10.82874c4.76564,3.29484 9.01923,7.2327 14.21594,9.835c3.42094,1.71307 7.25406,2.90402 10.77755,4.40281c1.32701,0.56448 3.05755,0.57864 3.98574,1.6823c0.97036,1.15379 0.74356,2.92205 1.11534,4.38308c-3.07436,8.16308 -9.73078,15.92235 -17.20329,20.41516c-2.63701,1.58549 -5.73067,3.73496 -8.81347,4.31116c-5.86515,1.09623 -10.3339,-0.47582 -15.22759,-3.29262c-1.40212,-0.80705 -3.03863,-1.22647 -4.31688,-2.21811c-2.01103,-1.56012 -3.85127,-5.34723 -4.738,-7.48746c-0.67159,-1.62097 -1.25832,-3.28439 -1.72819,-4.97498c-1.68098,0.8191 -3.33139,1.75299 -5.16315,2.00033c-2.42643,0.32764 -4.88746,-0.94277 -7.02377,-1.80265c-2.80573,-2.07478 -5.56073,-3.26704 -7.4352,-6.4207c-2.02642,-3.40933 -1.19929,-6.38529 -0.82782,-10.00505c0.1858,-1.81045 -0.16613,-3.64717 -0.00365,-5.45985c0.4023,-4.4879 2.47813,-8.53039 4.91686,-12.18877c0.58243,-0.87372 1.03408,-1.74872 1.55135,-2.56127c-1.298,0.22086 -4.03958,0.63429 -4.76436,0.8526c-4.78792,1.44218 -8.71599,4.50025 -11.02398,8.78109c0.56607,0.96489 0.18332,2.11312 0.18332,2.11312c-1.17412,3.49226 -1.69795,7.08818 -2.42026,10.69972l0.78462,0.39167c0,0 0.96186,1.92373 -0.68305,3.09471c-0.02058,1.02643 -0.78526,1.79109 -0.78526,1.79109l-2.75805,1.18368c-3.54331,-0.70866 -7.18525,-2.11582 -10.75606,-2.46361c-6.81813,-0.66407 -14.06761,0.7415 -20.51479,2.90049c-5.55127,1.58158 -9.27499,4.53272 -13.40553,7.85627c0.10459,0.27958 0.16667,0.61145 0.16667,1.00541zM87.68909,119.54847c-0.27332,1.16727 -0.55076,2.44283 -0.62032,3.68316c4.23125,-3.3357 8.236,-6.23512 13.94237,-7.86996c5.36821,-1.78166 11.23659,-3.08342 17.01963,-3.27418c0.16048,-2.1393 -0.03712,-4.0036 -0.2686,-6.34115c-0.17348,-1.75184 0.40876,-2.6843 -0.54027,-4.28457c-0.76185,-1.28463 -5.26796,-1.39132 -6.14912,-1.46807c-6.73609,-0.58671 -11.98153,2.37184 -11.82278,9.50629v1.5c0,0 0,2.5 -2.5,2.5c-2.5,0 -2.5,-2.5 -2.5,-2.5v-1.5c0.00591,-0.38957 0.0232,-0.79664 0.0527,-1.21562c-4.41837,1.32433 -5.59208,6.90145 -6.61361,11.26409zM127.75,141v0.5c0,1.53322 -0.30775,3.09127 -0.03228,4.59954c1.01355,5.54946 5.13199,10.44138 7.74484,15.23658c2.46105,4.51662 4.38615,9.42001 6.94972,13.90905c4.75757,8.33093 10.79881,16.69568 17.60549,23.48705c7.83997,7.86939 17.42417,11.518 27.27688,15.99648c7.34183,3.33718 13.38406,6.30489 21.00206,7.07678c-1.06741,-2.83527 -1.44239,-5.96289 -1.52709,-9.02548l-0.86707,-2.17013c-3.92073,-11.77116 -5.12495,-24.96513 -10.58194,-36.12577c-0.64392,0.4826 -1.43057,0.96212 -2.59782,1.22077c-2.39889,0.53157 -6.79691,0.22065 -9.17897,0.03659c-6.36245,-0.49163 -12.3536,-2.42027 -18.43547,-4.07523c-5.03709,-1.37067 -10.53831,-3.25052 -14.8201,-6.38814c-3.75289,-2.75006 -6.16218,-7.12543 -9.42686,-10.3901c-2.99813,-3.98872 -5.08738,-8.09659 -6.93256,-12.70953l-0.08104,-0.64741c-1.99147,-0.34626 -4.03459,-0.53452 -6.09908,-0.57708c0.00131,0.02981 0.00131,0.04602 0.00131,0.04602zM227.35364,90.03764c0.19118,-0.60345 0.39989,-1.224 0.39732,-1.857c-0.00381,-0.93864 -0.21149,-1.86896 -0.41616,-2.78503c-0.63428,-2.83897 -2.37053,-2.53187 -4.08443,-1.47943l-0.98291,1.31055c-0.45492,0.62045 -1.18914,1.02327 -2.01746,1.02327c-1.38071,0 -2.5,-1.11929 -2.5,-2.5c0,-0.57191 0.19204,-1.09897 0.51515,-1.52021l1.22443,-1.63257c0.49331,-3.08952 0.45554,-9.95539 -4.08191,-9.41718c0.8495,3.48035 0.69522,7.3131 -3.43315,8.05985c-1.81043,0.32748 -3.22223,-2.08038 -4.09623,-3.69933c-1.00294,-1.85778 0.0036,-4.84313 1.31908,-6.65841c-0.76487,-1.31735 -1.70659,-2.36929 -2.9859,-3.66165c-0.32037,-0.32363 -0.50667,-0.99343 -0.96147,-0.97052c-0.51315,0.02585 -0.70822,0.74823 -1.10503,1.07462c-1.1545,0.9496 -1.85303,1.71913 -2.39497,2.56294v2.36244c0,1.38071 -1.11929,2.5 -2.5,2.5c-1.22888,0 -2.25067,-0.88666 -2.46053,-2.05513l-0.42757,-2.13785c-1.20983,-2.02056 -2.05235,-2.79996 -4.51235,-3.3393c-0.46671,-0.10232 -0.95578,-0.0222 -1.43221,-0.05844c-0.26784,-0.02036 -0.8663,-0.37099 -0.79816,-0.11116c0.12732,0.48544 0.91041,0.59588 1.05159,1.07748c0.64715,2.20756 0.33734,4.58908 0.56706,6.87805c0.39245,3.91044 1.01687,7.61823 0.67977,11.50972c3.28408,0.83968 6.66213,1.62546 9.70904,2.89537c6.59788,2.7499 14.0868,7.32482 19.38563,13.0116c2.56364,-3.20385 5.08093,-6.40417 6.34137,-10.3827zM166.75,122.75c-2.60428,-0.02899 -4.56262,0.26211 -6.96177,-1.4719c-3.49438,-2.52559 -3.27271,-7.32498 -1.02252,-10.54882c1.26212,-1.80824 4.22839,-3.01819 5.11258,-5.26985c0.63674,-1.62149 -1.38362,-3.39175 -1.09601,-5.10988c0.22136,-1.32236 1.2626,-2.40868 2.19996,-3.36731c4.08398,-4.17669 7.89291,-1.68618 10.7205,1.70486c0.3192,-0.4497 0.64495,-0.89708 0.97672,-1.34253c-2.72666,-1.47857 -5.46718,-2.92267 -8.14356,-4.40917c0,0 -0.02687,-0.01492 -0.07299,-0.04444c-2.55706,-0.67829 -5.72106,-1.7363 -7.94509,-0.48628c-1.12645,0.63313 -2.1233,2.88553 -2.6932,3.7403c-1.94291,2.91411 -3.81125,6.20286 -4.08314,9.81123c-0.08381,1.11218 0.10614,4.41551 -0.00365,5.54015c-0.23954,2.45371 -1.25299,4.65875 0.17218,6.99495c1.34434,2.20368 3.57925,3.06535 5.5648,4.5793c3.22901,1.27893 4.82191,0.75103 7.37446,-0.32059zM184.87334,117.52559c1.53787,-4.89359 4.60007,-8.25553 9.03368,-9.09334c-1.82996,-1.38475 -3.65159,-2.79014 -5.55198,-4.10763c-2.33145,-1.61633 -4.773,-3.10634 -7.26271,-4.53105l-0.34232,0.45643c-3.52263,4.67673 -6.40143,9.65107 -7.54096,15.4507c-0.8614,4.87404 0.48972,10.04005 2.35066,14.59259c0.3179,0.7777 2.06956,4.65912 3.262,5.51254c1.82431,1.30565 3.77818,2.45088 5.83211,3.28653c-2.87381,-2.30505 -4.78998,-6.39404 -3.8587,-9.81514c0.40126,-1.47406 0.80258,-3.22018 2.05332,-4.0974c1.20692,-0.84649 2.9299,-0.34392 4.40157,-0.42983c0.16157,-0.00943 0.32476,-0.02435 0.48874,-0.04091c-0.74044,-0.63543 -1.43042,-1.43972 -1.99439,-2.15369c-1.86352,-0.70709 -1.4458,-2.79568 -1.4458,-2.79568c0.01179,-0.05748 0.02374,-0.1148 0.03589,-0.17195l-0.08444,-0.33776c0,0 0,-0.99036 0.62333,-1.72441zM207.23784,118.00366c0.81097,10.67133 -4.27176,19.89552 -14.67016,22.49387c0.56597,-0.0357 1.13598,-0.10238 1.70955,-0.20241c2.46283,-0.42953 5.09051,-2.4341 7.18653,-3.68884c6.11112,-3.65829 11.83187,-10.08521 14.79671,-16.58484c0.12965,-0.69348 -1.22906,-0.71326 -1.89892,-0.93462c-2.35772,-0.77914 -4.94107,-1.76332 -7.40311,-2.8274c0.14427,0.64784 0.24175,1.24891 0.27939,1.74425zM107.66988,138.36325l0.84405,-1.23128c0.73977,-1.41865 1.64095,-2.80003 2.73221,-3.98466c-7.37117,2.93364 -14.11365,7.45412 -19.23331,13.42434c1.5488,-0.50068 3.14616,-0.88847 4.62529,-1.56077c2.88253,-1.31019 5.65157,-3.29137 8.65518,-4.57057c0.63716,-0.27135 1.2822,-0.53181 1.93424,-0.78098c0.06783,-0.7343 0.44235,-1.29607 0.44235,-1.29607zM116.25,132.25c1.5,2 -0.5,3.5 -0.5,3.5c-0.67876,0.47317 -1.24697,1.09759 -1.72809,1.79026c3.06809,-0.751 6.21502,-1.25197 9.36165,-1.4683l1.39011,-1.85301c1.13866,-1.36802 2.54437,-2.5342 4.07629,-3.48521c-4.26156,-0.02295 -9.0889,-0.07147 -13.18067,0.92083c0.19813,0.15035 0.39332,0.34558 0.58071,0.59544zM133.2348,134.04787c-1.193,0.47851 -2.36819,1.14016 -3.34756,1.99523c1.98016,0.12361 3.938,0.37245 5.85305,0.75546c0,0 1.69438,0.33888 1.9841,1.86182c1.02561,0.70935 1.02561,2.08963 1.02561,2.08963l-0.17881,-0.42847c0.7176,1.794 1.46506,3.50827 2.30235,5.16694c1.8773,-4.63063 4.35545,-8.42294 7.90108,-11.68104c-4.10815,-0.94983 -8.27702,-1.95534 -12.37137,-2.58159c-0.57715,-0.08828 -1.15999,-0.13346 -1.74437,-0.16612c0.67684,2.08776 -1.42407,2.98816 -1.42407,2.98816zM154.25,135.75c-4.01639,2.99534 -6.77713,6.57629 -8.60364,11.21237l-0.44491,2.27792c0,0 -0.21624,1.08125 -1.07959,1.66396c0.1686,0.23654 0.34078,0.47243 0.51678,0.70775c0.35726,0.35726 0.70346,0.73237 1.04203,1.12014c1.03076,0.20308 1.64946,1.13111 1.64946,1.13111l0.68764,1.11899c1.55872,1.58203 3.19652,2.62141 4.93227,3.43509c1.54133,-7.59306 7.13788,-14.07068 11.68404,-20.31431c-0.31086,-0.22285 -0.63186,-0.42282 -0.96263,-0.59764c-0.63768,-0.33704 -1.44192,-0.15528 -2.13381,-0.35901c-2.36925,-0.69765 -4.46186,-1.37948 -6.74298,-1.96423c-0.2696,0.36158 -0.54466,0.56787 -0.54466,0.56787zM157.72488,160.10356l-0.05014,0.11975c0.61685,0.21222 1.24552,0.42938 1.88661,0.66201c2.75311,0.99901 3.36117,2.11794 6.16824,1.58242c0.88735,-0.71016 2.9256,-2.27145 3.41849,-3.0712c2.64694,-4.29486 1.90143,-12.17726 -1.15947,-17.43515c-4.12148,5.45932 -9.42041,11.56063 -10.26372,18.14217z" fill="#000000" stroke-width="0.5"></path><path d="M207.22471,118.05192c-0.03764,-0.49534 -0.11175,-1.1936 -0.25602,-1.84144c2.46204,1.06408 5.07167,2.06306 7.42939,2.8422c0.66986,0.22136 2.03289,0.24645 1.90324,0.93993c-2.96484,6.49963 -8.74334,13.00244 -14.85446,16.66073c-2.09602,1.25474 -4.73921,3.25033 -7.20204,3.67986c-0.57357,0.10003 -1.07622,0.09288 -1.64219,0.12858c10.3984,-2.59835 15.45928,-11.83504 14.64831,-22.50637z" data-paper-data="{&quot;noHover&quot;:false,&quot;origItem&quot;:[&quot;Path&quot;,{&quot;applyMatrix&quot;:true,&quot;segments&quot;:[[[207.23784,118.00366],[0,0],[0.81097,10.67133]],[[192.56768,140.49753],[10.3984,-2.59835],[0.56597,-0.0357]],[[194.27723,140.29512],[-0.57357,0.10003],[2.46283,-0.42953]],[[201.46376,136.60628],[-2.09602,1.25474],[6.11112,-3.65829]],[[216.26047,120.02144],[-2.96484,6.49963],[0.12965,-0.69348]],[[214.36155,119.08682],[0.66986,0.22136],[-2.35772,-0.77914]],[[206.95844,116.25942],[2.46204,1.06408],[0.14427,0.64784]],[[207.23783,118.00367],[-0.03764,-0.49534],[0,0]]],&quot;closed&quot;:true,&quot;fillColor&quot;:[0,0,0,1]}]}" fill="#ffffff" stroke-width="0.5"></path><path d="M227.39987,90.05669c-1.26044,3.97853 -3.79579,7.20109 -6.35943,10.40494c-5.29883,-5.68678 -12.85651,-10.27382 -19.45439,-13.02372c-3.04691,-1.26991 -6.43395,-2.07844 -9.71803,-2.91812c0.3371,-3.89149 -0.28183,-7.62931 -0.67428,-11.53975c-0.22972,-2.28897 0.08701,-4.68035 -0.56014,-6.88791c-0.14118,-0.4816 -0.92414,-0.59218 -1.05146,-1.07762c-0.06814,-0.25983 0.53093,0.09014 0.79877,0.1105c0.47643,0.03624 0.96687,-0.04528 1.43358,0.05704c2.46,0.53934 3.37091,1.39166 4.58074,3.41222l0.42997,2.13555c0.20986,1.16847 1.16085,1.98452 2.38973,1.98452c1.38071,0 2.51019,-1.12702 2.51019,-2.50773l0.00325,-2.36415c0.54194,-0.84381 1.24921,-1.61657 2.40371,-2.56617c0.39681,-0.32639 0.59544,-1.04958 1.10859,-1.07543c0.4548,-0.02291 0.64328,0.64653 0.96365,0.97016c1.27931,1.29236 2.23009,2.34382 2.99496,3.66117c-1.31548,1.81528 -2.32981,4.80094 -1.32687,6.65872c0.874,1.61895 2.32811,4.04222 4.13854,3.71474c4.12837,-0.74675 4.27204,-4.58807 3.42254,-8.06842c4.53745,-0.53821 4.59877,6.36254 4.10546,9.45206l-1.2238,1.63996c-0.32311,0.42124 -0.51575,0.95656 -0.51575,1.52847c0,1.38071 1.02253,2.47626 2.40324,2.47626c0.82832,0 1.561,-0.3972 2.01592,-1.01765l0.98211,-1.30554c1.7139,-1.05244 3.5492,-1.34605 4.18348,1.49292c0.20467,0.91607 0.41081,1.85295 0.41462,2.79159c0.00257,0.633 -0.20772,1.25796 -0.3989,1.86141z" data-paper-data="{&quot;noHover&quot;:false,&quot;origItem&quot;:[&quot;Path&quot;,{&quot;applyMatrix&quot;:true,&quot;segments&quot;:[[[227.35364,90.03764],[0,0],[0.19118,-0.60345]],[[227.75096,88.18064],[0.00257,0.633],[-0.00381,-0.93864]],[[227.3348,85.39561],[0.20467,0.91607],[-0.63428,-2.83897]],[[223.25037,83.91618],[1.7139,-1.05244],[0,0]],[[222.26746,85.22673],[0,0],[-0.45492,0.62045]],[[220.25,86.25],[0.82832,0],[-1.38071,0]],[[217.75,83.75],[0,1.38071],[0,-0.57191]],[[218.26515,82.22979],[-0.32311,0.42124],[0,0]],[[219.48958,80.59722],[0,0],[0.49331,-3.08952]],[[215.40767,71.18004],[4.53745,-0.53821],[0.8495,3.48035]],[[211.97452,79.23989],[4.12837,-0.74675],[-1.81043,0.32748]],[[207.87829,75.54056],[0.874,1.61895],[-1.00294,-1.85778]],[[209.19737,68.88215],[-1.31548,1.81528],[-0.76487,-1.31735]],[[206.21147,65.2205],[1.27931,1.29236],[-0.32037,-0.32363]],[[205.25,64.24998],[0.4548,-0.02291],[-0.51315,0.02585]],[[204.14497,65.3246],[0.39681,-0.32639],[-1.1545,0.9496]],[[201.75,67.88754],[0.54194,-0.84381],[0,0]],[[201.75,70.24998],[0,0],[0,1.38071]],[[199.25,72.74998],[1.38071,0],[-1.22888,0]],[[196.78947,70.69485],[0.20986,1.16847],[0,0]],[[196.3619,68.557],[0,0],[-1.20983,-2.02056]],[[191.84955,65.2177],[2.46,0.53934],[-0.46671,-0.10232]],[[190.41734,65.15926],[0.47643,0.03624],[-0.26784,-0.02036]],[[189.61918,65.0481],[-0.06814,-0.25983],[0.12732,0.48544]],[[190.67077,66.12558],[-0.14118,-0.4816],[0.64715,2.20756]],[[191.23783,73.00363],[-0.22972,-2.28897],[0.39245,3.91044]],[[191.9176,84.51335],[0.3371,-3.89149],[3.28408,0.83968]],[[201.62664,87.40872],[-3.04691,-1.26991],[6.59788,2.7499]],[[221.01227,100.42032],[-5.29883,-5.68678],[2.56364,-3.20385]],[[227.35364,90.03762],[-1.26044,3.97853],[0,0]]],&quot;closed&quot;:true,&quot;fillColor&quot;:[0,0,0,1]}]}" fill="#ff0000" stroke-width="0.5"></path><path d="M143.39688,261.69043c1.00177,3.33919 2.07266,6.66785 2.94634,10.03028c-0.13493,-0.04186 -0.36879,-0.08918 -0.50157,-0.13784l-2.65138,-0.53347c0,0 -2.35204,-0.48352 -2.84233,1.96793c-0.49029,2.45145 1.95886,2.95087 1.95886,2.95087l1.00388,0.19817c0.01896,1.27738 0.00562,1.98143 -0.4258,3.68644c-0.15712,0.62096 -0.32303,1.27213 -0.68284,1.80205c-5.07512,7.47455 -4.44347,-8.35128 -6.50929,-9.95249c-1.20209,-0.93173 -2.76492,1.09474 -4.17091,1.67471c-1.20083,0.49534 -2.40226,1.00638 -3.53897,1.46752c-0.63423,-1.2971 -2.27479,-1.31735 -2.27479,-1.31735l0.2433,0.33346c-1.47681,-0.84315 -2.9488,-1.74786 -4.38647,-2.65688l2.33611,-0.21466c1.28675,-0.10234 2.31295,-1.21079 2.31295,-2.52386c0,-1.22887 -0.81632,-2.17961 -1.98479,-2.38948l-2.44938,-0.49666c-3.2194,-0.64388 -6.725,-1.13941 -9.70944,-2.59296c-0.11868,-0.0578 0.16024,-0.13667 0.27061,-0.20908c0.6084,-0.39916 1.18141,-0.85962 1.79432,-1.25182c0.77147,-0.49367 1.58091,-0.93882 2.36348,-1.4147c4.1392,-2.517 7.86658,-0.58232 12.1305,1.57552c0,0 1.58162,0.78511 2.74806,-0.27283c0.23052,0.03791 0.38552,0.03836 0.38552,0.03836l0.9946,-0.04719c3.52142,-0.70475 7.12398,-1.33803 10.72335,-1.51217c-0.36315,0.87186 -0.08389,1.79812 -0.08389,1.79812z" data-paper-data="{&quot;noHover&quot;:false,&quot;origItem&quot;:[&quot;Path&quot;,{&quot;applyMatrix&quot;:true,&quot;segments&quot;:[[143.35543,261.71837],[[143.44165,259.92343],[-0.36315,0.87186],[-3.59937,0.17414]],[[132.74028,261.45145],[3.52142,-0.70475],[0,0]],[131.74999,261.5],[[131.3663,261.46209],[0.23052,0.03791],[-1.16644,1.05794]],[[128.63195,261.73607],[0,0],[-4.26392,-2.15784]],[[116.53622,260.14373],[4.1392,-2.517],[-0.78257,0.47588]],[[114.17719,261.55258],[0.77147,-0.49367],[-0.61291,0.3922]],[[112.38556,262.79973],[0.6084,-0.39916],[-0.11037,0.07241]],[[112.02538,262.96435],[-0.11868,-0.0578],[2.98444,1.45355]],[[121.74027,265.54854],[-3.2194,-0.64388],[0,0]],[[124.19486,266.03946],[0,0],[1.16847,0.20987]],[[126.24998,268.49999],[0,-1.22887],[0,1.31307]],[[123.95093,270.99203],[1.28675,-0.10234],[0,0]],[[121.6149,271.2044],[0,0],[1.43767,0.90902]],[[125.99033,273.82938],[-1.47681,-0.84315],[0,0]],[125.74998,273.49999],[[127.99843,274.79709],[-0.63423,-1.2971],[1.13671,-0.46114]],[[131.48428,273.34407],[-1.20083,0.49534],[1.40599,-0.57997]],[[135.74264,271.70552],[-1.20209,-0.93173],[2.06582,1.60121]],[[142.16287,281.62377],[-5.07512,7.47455],[0.35981,-0.52992]],[[142.84244,279.82636],[-0.15712,0.62096],[0.43142,-1.70501]],[[143.2634,276.15009],[0.01896,1.27738],[0,0]],[142.25968,275.95145],[[140.29852,273.00971],[-0.49029,2.45145],[0.49029,-2.45145]],[143.24026,271.04855],[[145.89164,271.58375],[0,0],[0.13278,0.04866]],[[146.29323,271.71946],[-0.13493,-0.04186],[-0.87368,-3.36243]],[[143.35541,261.71837],[1.00177,3.33919],[0,0]]],&quot;closed&quot;:true,&quot;fillColor&quot;:[0,0,0,1]}]}" fill="#ffde00" stroke-width="0.5"></path><path d="M148.10143,260.25632c0,0 -0.03465,-0.11767 -0.11516,-0.29212c0.00495,0.00041 0.00991,0.00081 0.01485,0.00123c3.21564,0.27278 6.21248,0.74971 9.49243,0.47249c1.18758,-0.10037 2.36918,-0.30853 3.50337,-0.59763c1.94997,2.70053 4.23319,4.89322 6.30242,7.66782l0.32337,0.34072c-1.89474,0.56755 -3.81719,1.106 -5.74292,1.56844c-3.13146,0.75199 -6.92798,2.18639 -10.47022,2.63384c-0.76508,-3.99667 -2.13875,-7.89683 -3.30812,-11.79477z" data-paper-data="{&quot;noHover&quot;:false,&quot;origItem&quot;:[&quot;Path&quot;,{&quot;applyMatrix&quot;:true,&quot;segments&quot;:[[[148.14457,260.28163],[0,0],[1.16937,3.89794]],[[151.44574,272.01657],[-0.76508,-3.99667],[3.54224,-0.44745]],[[161.84169,269.38487],[-3.13146,0.75199],[1.92573,-0.46244]],[[167.57362,267.83932],[-1.89474,0.56755],[0,0]],[[167.25,267.5],[0,0],[-2.06923,-2.7746]],[[160.97375,259.88458],[1.94997,2.70053],[-1.13419,0.2891]],[[157.49634,260.48783],[1.18758,-0.10037],[-3.27995,0.27722]],[[148.04379,259.99148],[3.21564,0.27278],[-0.00494,-0.00042]],[[148.02896,259.99023],[0.00495,0.00041],[0.08051,0.17445]],[148.14455,260.28163]],&quot;closed&quot;:true,&quot;fillColor&quot;:[0,0,0,1]}]}" fill="#ffde00" stroke-width="0.5"></path><path d="M171.21586,264.53651c-1.7339,-2.30059 -3.65301,-4.18588 -5.33779,-6.32493c0.75201,-0.29489 1.50324,-0.60643 2.25312,-0.90656c3.14075,-1.25704 6.0973,-2.43482 8.74679,-3.95191c2.09026,2.96605 5.00262,5.45308 7.92165,7.65309l0.51247,0.10269c-1.36728,0.52399 -2.7442,1.04365 -4.04165,1.63317c-2.92271,1.32797 -5.97294,2.54761 -9.00541,3.61044c-0.11051,-0.91623 -0.77932,-1.58192 -0.77932,-1.58192l-0.26986,-0.23408z" data-paper-data="{&quot;noHover&quot;:false,&quot;origItem&quot;:[&quot;Path&quot;,{&quot;applyMatrix&quot;:true,&quot;segments&quot;:[[171.25,264.5],[171.51777,264.73223],[[172.28783,266.30801],[-0.11051,-0.91623],[3.03247,-1.06283]],[[181.22587,262.7194],[-2.92271,1.32797],[1.29745,-0.58952]],[[185.2625,261.1025],[-1.36728,0.52399],[0,0]],[[184.75001,261],[0,0],[-2.91903,-2.20001]],[[176.86829,253.40217],[2.09026,2.96605],[-2.64949,1.51709]],[[168.17849,257.32119],[3.14075,-1.25704],[-0.74988,0.30013]],[[165.92736,258.21992],[0.75201,-0.29489],[1.68478,2.13905]],[[171.25001,264.5],[-1.7339,-2.30059],[0,0]]],&quot;closed&quot;:true,&quot;fillColor&quot;:[0,0,0,1]}]}" fill="#ffde00" stroke-width="0.5"></path><path d="M184.13611,285.34337c2.65127,2.31872 5.09856,4.84242 7.70586,7.14281l-0.63991,0.02808c0,0 -1.26371,-0.02736 -1.97756,0.97561c-0.62915,-0.14298 -1.41146,-0.05274 -2.1939,0.7297c-1.62226,1.62226 -0.26542,3.25716 -0.03133,3.51323c0.37846,1.9044 0.80214,4.50043 0.36321,6.21336c-0.56441,2.20261 -2.25628,4.74715 -3.19904,6.85664c-2.56025,-0.61619 -5.28757,-2.34267 -6.76634,-4.5715c-1.95515,-2.94686 -1.14321,-8.35155 -5.22103,-10.02981c-1.20263,-0.49495 -2.58001,0.17495 -3.86756,0.358c-3.11674,0.44312 -5.64265,1.56673 -8.81866,1.95708c-1.3393,0.1646 -2.79734,0.17704 -4.15097,0.21217c0.00979,-0.00528 0.01952,-0.01054 0.0292,-0.0157c3.14771,-1.67952 7.76882,-1.79821 10.47245,-4.00483c0.05969,-0.04871 0.11914,-0.09932 0.17746,-0.14946l0.02199,0.035l2.37596,-1.51091c0.71949,-0.43895 1.21181,-1.241 1.21181,-2.14548c0,-1.22887 -0.83425,-2.16552 -2.00272,-2.37539l-4.73378,-0.95611c-1.52678,-0.5091 -3.1679,-0.96028 -4.71488,-1.40522c1.80375,-0.02518 3.74406,-0.3717 5.38589,-0.24356c4.16647,0.32517 8.20963,0.87709 12.34514,1.469c0,0 1.91285,0.2748 2.61924,-1.3288c1.66387,-0.56877 3.36749,-1.01844 5.07654,-1.41201c0.24984,0.41049 0.53295,0.65808 0.53295,0.65808z" data-paper-data="{&quot;noHover&quot;:false,&quot;origItem&quot;:[&quot;Path&quot;,{&quot;applyMatrix&quot;:true,&quot;segments&quot;:[[184.10374,285.38144],[[183.57276,284.72495],[0.24984,0.41049],[-1.70905,0.39357]],[[178.50713,286.14332],[1.66387,-0.56877],[-0.70639,1.6036]],[[175.89645,287.47487],[0,0],[-4.13551,-0.59191]],[[163.59466,285.99517],[4.16647,0.32517],[-1.64183,-0.12814]],[[158.21639,286.23062],[1.80375,-0.02518],[1.54698,0.44494]],[[162.85495,287.57148],[-1.52678,-0.5091],[0,0]],[[167.59778,288.52005],[0,0],[1.16847,0.20987]],[[169.6529,290.98058],[0,-1.22887],[0,0.90448]],[[168.45308,293.11631],[0.71949,-0.43895],[0,0]],[166.08611,294.61301],[[166.06406,294.57814],[0,0],[-0.05832,0.05014]],[[165.88707,294.72645],[0.05969,-0.04871],[-2.70363,2.20662]],[[155.41799,298.71039],[3.14771,-1.67952],[-0.00968,0.00516]],[[155.38879,298.72605],[0.00979,-0.00528],[1.35363,-0.03513]],[[159.43991,298.51931],[-1.3393,0.1646],[3.17601,-0.39035]],[[168.25971,296.54855],[-3.11674,0.44312],[1.28755,-0.18305]],[[172.14226,296.16465],[-1.20263,-0.49495],[4.07782,1.67826]],[[177.37663,306.18568],[-1.95515,-2.94686],[1.47877,2.22883]],[[184.13197,310.76394],[-2.56025,-0.61619],[0.94276,-2.10949]],[[187.31688,303.92563],[-0.56441,2.20261],[0.43893,-1.71293]],[[186.94926,297.73284],[0.37846,1.9044],[-0.23409,-0.25607]],[[186.98223,294.23225],[-1.62226,1.62226],[0.78244,-0.78244]],[[189.17625,293.50299],[-0.62915,-0.14298],[0.71385,-1.00297]],[191.24999,292.50002],[[191.79392,292.50002],[0,0],[-2.6073,-2.30039]],[[184.10372,285.38146],[2.65127,2.31872],[0,0]]],&quot;closed&quot;:true,&quot;fillColor&quot;:[0,0,0,1]}]}" fill="#ffde00" stroke-width="0.5"></path><path d="M203.41871,279.90052c2.28241,2.76413 4.46297,5.7171 6.81526,8.40547c-3.76525,1.37679 -7.64026,2.54552 -11.34491,3.50295c-3.46067,-2.3382 -6.39222,-5.41279 -9.43487,-8.27929c3.33784,-0.61058 6.72746,-1.2425 9.99035,-2.17915c1.35999,-0.3904 2.70168,-0.87693 3.97416,-1.44998z" data-paper-data="{&quot;noHover&quot;:false,&quot;origItem&quot;:[&quot;Path&quot;,{&quot;applyMatrix&quot;:true,&quot;segments&quot;:[[[199.44897,281.4003],[1.35999,-0.3904],[-3.26289,0.93665]],[[189.50299,283.54055],[3.33784,-0.61058],[3.04265,2.8665]],[[198.89698,291.75957],[-3.46067,-2.3382],[3.70465,-0.95743]],[[210.18531,288.29449],[-3.76525,1.37679],[-2.35229,-2.68837]],[[203.39296,279.94338],[2.28241,2.76413],[-1.27248,0.57305]]],&quot;closed&quot;:true,&quot;fillColor&quot;:[0,0,0,1]}]}" fill="#ffde00" stroke-width="0.5"></path><path d="M230.3709,276.31331c0,0 0.20981,0.0848 0.52831,0.13911c-4.50445,4.15161 -10.03022,7.39762 -15.79402,9.91246c-2.58503,-2.72857 -4.89621,-5.86314 -7.27868,-8.82374c2.93105,-1.80029 5.72386,-3.95247 8.46133,-6.02109c0.6288,-0.47517 1.45741,-1.0795 2.3173,-1.74635c3.09951,1.8564 5.85852,4.14155 9.26394,5.53203l2.50183,1.00758z" data-paper-data="{&quot;noHover&quot;:false,&quot;origItem&quot;:[&quot;Path&quot;,{&quot;applyMatrix&quot;:true,&quot;segments&quot;:[[230.32152,276.32119],[[227.82152,275.32119],[0,0],[-3.40542,-1.39048]],[[218.60968,269.82349],[3.09951,1.8564],[-0.85989,0.66685]],[[216.30908,271.56531],[0.6288,-0.47517],[-2.73747,2.06862]],[[207.87645,277.54344],[2.93105,-1.80029],[2.38247,2.9606]],[[215.12802,286.3204],[-2.58503,-2.72857],[5.7638,-2.51484]],[[230.84969,276.45937],[-4.50445,4.15161],[-0.3185,-0.05431]],[230.32152,276.3212]],&quot;closed&quot;:true,&quot;fillColor&quot;:[0,0,0,1]}]}" fill="#ffde00" stroke-width="0.5"></path><path d="M229.6517,270.72103c-2.62176,-1.02105 -4.88867,-2.72103 -7.22666,-4.28582c0.33138,-0.3584 0.62369,-0.71599 0.86213,-1.05687c1.76803,-2.52761 2.4818,-5.43893 2.75523,-8.37837c1.96269,0.04968 3.95142,0.10233 5.90543,-0.05778c2.66208,-0.21813 2.69525,-0.76003 5.07582,-0.50019c1.91168,0.20866 3.84156,0.51857 5.76459,0.52578l1.39934,-0.30629c-1.08906,0.5169 -1.34766,1.82012 -1.34766,1.82012c-0.62245,3.53333 -3.35448,6.67314 -5.19381,9.76237c-0.24815,0.41678 -0.51323,0.83589 -0.77707,1.23926c-0.43616,-0.01181 -0.94369,0.12084 -1.48668,0.48283c-1.36674,0.91116 -1.24913,2.125 -0.99924,2.84812c-0.20413,0.24462 -0.41546,0.48684 -0.62558,0.72591c-0.23663,-1.27544 -1.58735,-1.812 -1.58735,-1.812l-2.51849,-1.00709z" data-paper-data="{&quot;noHover&quot;:false,&quot;origItem&quot;:[&quot;Path&quot;,{&quot;applyMatrix&quot;:true,&quot;segments&quot;:[[229.67848,270.67881],[232.17848,271.67881],[[233.75493,273.49018],[-0.23663,-1.27544],[0.21012,-0.23907]],[[234.37635,272.76466],[-0.20413,0.24462],[-0.24989,-0.72312]],[[235.36325,269.91987],[-1.36674,0.91116],[0.54299,-0.36199]],[[236.83814,269.44393],[-0.43616,-0.01181],[0.26384,-0.40337]],[[237.60627,268.21376],[-0.24815,0.41678],[1.83933,-3.08923]],[[242.79855,258.50971],[-0.62245,3.53333],[0,0]],[[244.14781,256.69181],[-1.08906,0.5169],[0,0]],[[242.75,257],[0,0],[-1.92303,-0.00721]],[[237.00366,256.48783],[1.91168,0.20866],[-2.38057,-0.25984]],[[231.95621,256.99148],[2.66208,-0.21813],[-1.95401,0.16011]],[[226.07612,257.03688],[1.96269,0.04968],[-0.27343,2.93944]],[[223.33712,265.37623],[1.76803,-2.52761],[-0.23844,0.34088]],[[222.47458,266.42847],[0.33138,-0.3584],[2.33799,1.56479]],[[229.67849,270.67881],[-2.62176,-1.02105],[0,0]]],&quot;closed&quot;:true,&quot;fillColor&quot;:[0,0,0,1]}]}" fill="#ffde00" stroke-width="0.5"></path><path d="M258.77998,269.54003c-1.93498,0 -2.38822,1.50561 -2.48706,2.18258c-0.53669,-0.26843 -1.2637,-0.35604 -2.15828,0.09125c-2.23606,1.11803 -1.11813,3.25424 -1.11813,3.25424l1.44044,2.02328c0.17164,0.10342 0.42039,0.3485 0.71068,0.52363c-2.84074,2.03184 -9.48703,0.65292 -12.04596,-1.14516c-0.80869,-0.56824 -1.93874,-2.1318 -2.85042,-3.50989c1.12124,-1.53533 2.14956,-3.10091 3.07861,-4.64976c0.32767,-0.54627 0.65111,-1.07292 0.96885,-1.58307c0.221,0.22253 0.60415,0.38114 0.99031,0.54664c2.29786,0.9848 3.19687,-1.26181 3.19687,-1.26181c2.59736,-6.0817 4.99328,-12.84242 2.6411,-19.26694c3.06683,0.99303 5.9271,1.86146 8.45814,4.07312c1.11699,0.97604 2.5247,2.0764 2.71324,3.54771c0.27702,2.16181 -0.31146,4.41067 -0.57836,6.5758c-1.50526,-0.76015 -3.18814,-1.3265 -4.83697,-1.80857c0,0 -2.37526,-0.67395 -3.06206,1.72986c-0.6868,2.40381 1.68006,3.01403 1.68006,3.01403c1.42338,0.39523 2.75849,0.88974 3.87432,1.44263c0.08875,0.22528 0.21736,0.46265 0.39859,0.70428c0.72231,0.96309 1.56101,1.11375 2.23605,1.01196c1.15849,0.97886 2.16578,2.20632 3.1171,3.77928c0.72819,1.20402 3.23567,4.79146 0.90579,6.2758c-0.83119,0.52953 -2.01791,-0.06406 -2.92697,-0.44469c-0.64564,-0.27033 -1.31371,-0.68489 -1.91173,-1.04735c0.03185,-0.93736 -0.01871,-1.95562 0.00521,-3.1384l-0.001,-0.49921c0,0 0.06157,-2.42123 -2.43843,-2.42123z" data-paper-data="{&quot;noHover&quot;:false,&quot;origItem&quot;:[&quot;Path&quot;,{&quot;applyMatrix&quot;:true,&quot;segments&quot;:[[[258.75,269.5],[0,0],[2.5,0]],[261.25,272],[[261.25,272.5],[0,0],[-0.02392,1.18278]],[[261.23945,275.64201],[0.03185,-0.93736],[0.59802,0.36246]],[[263.09783,276.60485],[-0.64564,-0.27033],[0.90906,0.38063]],[[266.02026,277.05302],[-0.83119,0.52953],[2.32988,-1.48434]],[[265.10627,270.78624],[0.72819,1.20402],[-0.95132,-1.57296]],[[261.98562,267.01279],[1.15849,0.97886],[-0.67504,0.10179]],[[259.75001,266],[0.72231,0.96309],[-0.18123,-0.24163]],[[259.3499,265.29875],[0.08875,0.22528],[-1.11583,-0.55289]],[[255.56321,263.90381],[1.42338,0.39523],[0,0]],[[253.8462,260.8132],[-0.6868,2.40381],[0.6868,-2.40381]],[[256.93681,259.09619],[0,0],[1.64883,0.48207]],[[261.69113,260.95217],[-1.50526,-0.76015],[0.2669,-2.16513]],[[262.28229,254.40046],[0.27702,2.16181],[-0.18854,-1.47131]],[[259.5827,250.86282],[1.11699,0.97604],[-2.53104,-2.21166]],[[251.15474,246.79441],[3.06683,0.99303],[2.35218,6.42452]],[[248.54787,265.9848],[2.59736,-6.0817],[0,0]],[[245.26521,267.29786],[2.29786,0.9848],[-0.38616,-0.1655]],[[244.36459,266.70725],[0.221,0.22253],[-0.31774,0.51015]],[[243.39374,268.28623],[0.32767,-0.54627],[-0.92905,1.54885]],[[240.3109,272.9295],[1.12124,-1.53533],[0.91168,1.37809]],[[243.15201,276.43011],[-0.80869,-0.56824],[2.55893,1.79808]],[[255.16256,277.56526],[-2.84074,2.03184],[-0.29029,-0.17513]],[[254.45974,277.1413],[0.17164,0.10342],[0,0]],[253.01395,275.11803],[[254.13198,271.76393],[-2.23606,1.11803],[0.89458,-0.44729]],[[256.27888,271.67462],[-0.53669,-0.26843],[0.09884,-0.67697]],[[258.75002,269.5],[-1.93498,0],[0,0]]],&quot;closed&quot;:true,&quot;fillColor&quot;:[0,0,0,1]}]}" fill="#864100" stroke-width="0.5"></path><path d="M82.24053,121.89716c-0.16152,1.67541 -0.0762,3.30522 0.33031,4.86718c-1.51044,1.06007 -3.24485,2.04078 -4.32815,3.51375c-0.96383,1.31053 -1.77597,2.75686 -2.46259,4.29294c0.82952,-3.98288 1.33276,-10.57934 5.599,-12.37885c0.27914,-0.11774 0.57044,-0.21166 0.86143,-0.29503z" data-paper-data="{&quot;noHover&quot;:false,&quot;origItem&quot;:[&quot;Path&quot;,{&quot;applyMatrix&quot;:true,&quot;segments&quot;:[[[81.36189,122.23913],[0.27914,-0.11774],[-4.26624,1.79951]],[[75.80365,134.52693],[0.82952,-3.98288],[0.68662,-1.53608]],[[78.26324,130.23251],[-0.96383,1.31053],[1.0833,-1.47297]],[[82.52493,126.78415],[-1.51044,1.06007],[-0.40651,-1.56196]],[[82.21869,121.94214],[-0.16152,1.67541],[-0.29099,0.08337]]],&quot;closed&quot;:true,&quot;fillColor&quot;:[0,0,0,1]}]}" fill="#864100" stroke-width="0.5"></path><path d="M87.64501,119.57206c1.02153,-4.36264 2.19286,-9.98184 6.61123,-11.30617c-0.0295,0.41898 0.04818,0.85663 0.04227,1.2462l0.00137,1.49136c0,0 -0.0024,2.48088 2.4976,2.48088c2.5,0 2.40325,-2.49286 2.40325,-2.49286l0.00684,-1.51793c-0.15875,-7.13445 5.15868,-10.10686 11.89477,-9.52015c0.88116,0.07675 5.39884,0.19534 6.16069,1.47997c0.94903,1.60027 0.37233,2.54322 0.54581,4.29506c0.23148,2.33755 0.43238,4.22143 0.2719,6.36073c-5.78304,0.19076 -11.72053,1.53706 -17.08874,3.31872c-5.70637,1.63484 -9.73196,4.5181 -13.96321,7.8538c0.06956,-1.24033 0.34289,-2.52233 0.61621,-3.6896z" data-paper-data="{&quot;noHover&quot;:false,&quot;origItem&quot;:[&quot;Path&quot;,{&quot;applyMatrix&quot;:true,&quot;segments&quot;:[[[87.68909,119.54847],[0,0],[-0.27332,1.16727]],[[87.06877,123.23163],[0.06956,-1.24033],[4.23125,-3.3357]],[[101.01114,115.36167],[-5.70637,1.63484],[5.36821,-1.78166]],[[118.03077,112.08749],[-5.78304,0.19076],[0.16048,-2.1393]],[[117.76217,105.74634],[0.23148,2.33755],[-0.17348,-1.75184]],[[117.2219,101.46177],[0.94903,1.60027],[-0.76185,-1.28463]],[[111.07278,99.9937],[0.88116,0.07675],[-6.73609,-0.58671]],[[99.25,109.49999],[-0.15875,-7.13445],[0,0]],[99.25,110.99999],[[96.75,113.49999],[2.5,0],[-2.5,0]],[94.25,110.99999],[[94.25,109.49999],[0,0],[0.00591,-0.38957]],[[94.3027,108.28437],[-0.0295,0.41898],[-4.41837,1.32433]],[[87.68909,119.54846],[1.02153,-4.36264],[0,0]]],&quot;closed&quot;:true,&quot;fillColor&quot;:[0,0,0,1]}]}" fill="#864100" stroke-width="0.5"></path><path d="M184.29869,119.23862l0.08513,0.35701c-0.01215,0.05715 -0.02647,0.12365 -0.03826,0.18113c0,0 -0.4946,2.03145 1.36892,2.73854c0.56397,0.71397 1.31551,1.59703 2.05595,2.23246c-0.16398,0.01656 -0.32962,0.03336 -0.49119,0.04279c-1.47167,0.08591 -3.22889,-0.40747 -4.43581,0.43902c-1.25074,0.87722 -1.63414,2.52529 -2.0354,3.99935c-0.93128,3.4211 0.97509,7.6083 3.8489,9.91335c-2.05393,-0.83565 -4.02446,-1.98265 -5.84877,-3.2883c-1.19244,-0.85342 -2.9599,-4.74249 -3.2778,-5.52019c-1.86094,-4.55254 -3.22966,-9.77623 -2.36826,-14.65027c1.13953,-5.79963 4.05838,-10.80629 7.58101,-15.48302l0.34333,-0.45656c2.48971,1.42471 4.95266,2.91683 7.28411,4.53316c1.90039,1.31749 3.74099,2.7342 5.57095,4.11895c-4.43361,0.83781 -7.50015,4.19607 -9.03802,9.08966c-0.62333,0.73405 -0.60478,1.75292 -0.60478,1.75292z" data-paper-data="{&quot;noHover&quot;:false,&quot;origItem&quot;:[&quot;Path&quot;,{&quot;applyMatrix&quot;:true,&quot;segments&quot;:[[[184.87334,117.52559],[-0.62333,0.73405],[1.53787,-4.89359]],[[193.90702,108.43225],[-4.43361,0.83781],[-1.82996,-1.38475]],[[188.35504,104.32462],[1.90039,1.31749],[-2.33145,-1.61633]],[[181.09233,99.79357],[2.48971,1.42471],[0,0]],[[180.75001,100.25],[0,0],[-3.52263,4.67673]],[[173.20905,115.7007],[1.13953,-5.79963],[-0.8614,4.87404]],[[175.55971,130.29329],[-1.86094,-4.55254],[0.3179,0.7777]],[[178.82171,135.80583],[-1.19244,-0.85342],[1.82431,1.30565]],[[184.65382,139.09236],[-2.05393,-0.83565],[-2.87381,-2.30505]],[[180.79512,129.27722],[-0.93128,3.4211],[0.40126,-1.47406]],[[182.84844,125.17982],[-1.25074,0.87722],[1.20692,-0.84649]],[[187.25001,124.74999],[-1.47167,0.08591],[0.16157,-0.00943]],[[187.73875,124.70908],[-0.16398,0.01656],[-0.74044,-0.63543]],[[185.74436,122.55539],[0.56397,0.71397],[-1.86352,-0.70709]],[[184.29856,119.75971],[0,0],[0.01179,-0.05748]],[[184.33445,119.58776],[-0.01215,0.05715],[0,0]],[184.25001,119.25]],&quot;closed&quot;:true,&quot;fillColor&quot;:[0,0,0,1]}]}" fill="#ffffff" stroke-width="0.5"></path><path d="M166.85567,122.79961c-2.55255,1.07162 -4.16867,1.59702 -7.39768,0.31809c-1.98555,-1.51395 -4.23955,-2.38791 -5.58389,-4.59159c-1.42517,-2.3362 -0.42331,-4.56043 -0.18377,-7.01414c0.10979,-1.12464 -0.08198,-4.45181 0.00183,-5.56399c0.27189,-3.60837 2.16358,-6.93162 4.10649,-9.84573c0.5699,-0.85477 1.57899,-3.11252 2.70544,-3.74565c2.22403,-1.25002 5.4133,-0.19258 7.97036,0.48571c0.04612,0.02952 0.07325,0.0445 0.07325,0.0445c2.67638,1.4865 5.44243,2.94592 8.16909,4.42449c-0.33177,0.44545 -0.733,0.95842 -1.0522,1.40812c-2.82759,-3.39104 -6.59865,-5.86387 -10.68263,-1.68718c-0.93736,0.95863 -1.96456,2.04302 -2.18592,3.36538c-0.28761,1.71813 1.73919,3.48606 1.10245,5.10755c-0.88419,2.25166 -3.82545,3.39452 -5.08757,5.20276c-2.25019,3.22384 -2.49925,7.99787 0.99513,10.52346c2.39915,1.73401 4.33359,1.44 6.93787,1.46899z" data-paper-data="{&quot;noHover&quot;:false,&quot;origItem&quot;:[&quot;Path&quot;,{&quot;applyMatrix&quot;:true,&quot;segments&quot;:[[[166.75,122.75],[0,0],[-2.60428,-0.02899]],[[159.78823,121.2781],[2.39915,1.73401],[-3.49438,-2.52559]],[[158.76571,110.72928],[-2.25019,3.22384],[1.26212,-1.80824]],[[163.87829,105.45943],[-0.88419,2.25166],[0.63674,-1.62149]],[[162.78228,100.34955],[-0.28761,1.71813],[0.22136,-1.32236]],[[164.98224,96.98224],[-0.93736,0.95863],[4.08398,-4.17669]],[[175.70274,98.6871],[-2.82759,-3.39104],[0.3192,-0.4497]],[[176.67946,97.34457],[-0.33177,0.44545],[-2.72666,-1.47857]],[[168.5359,92.9354],[2.67638,1.4865],[0,0]],[[168.46291,92.89096],[0.04612,0.02952],[-2.55706,-0.67829]],[[160.51782,92.40468],[2.22403,-1.25002],[-1.12645,0.63313]],[[157.82462,96.14498],[0.5699,-0.85477],[-1.94291,2.91411]],[[153.74148,105.95621],[0.27189,-3.60837],[-0.08381,1.11218]],[[153.73783,111.49636],[0.10979,-1.12464],[-0.23954,2.45371]],[[153.91001,118.49131],[-1.42517,-2.3362],[1.34434,2.20368]],[[159.47481,123.07061],[-1.98555,-1.51395],[3.22901,1.27893]],[[166.84927,122.75002],[-2.55255,1.07162],[0,0]]],&quot;closed&quot;:true,&quot;fillColor&quot;:[0,0,0,1]}]}" fill="#ffffff" stroke-width="0.5"></path><path d="M107.71842,138.35124c0,0 -0.37309,0.57201 -0.44092,1.30631c-0.65204,0.24917 -1.29766,0.51925 -1.93482,0.7906c-3.00361,1.2792 -5.85683,3.28846 -8.73936,4.59865c-1.47913,0.6723 -3.0827,1.0528 -4.6315,1.55348c5.11966,-5.97022 11.94414,-10.54793 19.31531,-13.48157c-1.09126,1.18463 -1.98696,2.57621 -2.72673,3.99486l-0.842,1.23767z" data-paper-data="{&quot;noHover&quot;:false,&quot;origItem&quot;:[&quot;Path&quot;,{&quot;applyMatrix&quot;:true,&quot;segments&quot;:[[107.66988,138.36325],[[108.51393,137.13197],[0,0],[0.73977,-1.41865]],[[111.24614,133.14731],[-1.09126,1.18463],[-7.37117,2.93364]],[[92.01283,146.57165],[5.11966,-5.97022],[1.5488,-0.50068]],[[96.63812,145.01088],[-1.47913,0.6723],[2.88253,-1.31019]],[[105.2933,140.44031],[-3.00361,1.2792],[0.63716,-0.27135]],[[107.22754,139.65933],[-0.65204,0.24917],[0.06783,-0.7343]],[107.66989,138.36326]],&quot;closed&quot;:true,&quot;fillColor&quot;:[0,0,0,1]}]}" fill="#ffffff" stroke-width="0.5"></path><path d="M116.203,132.23295c-0.18739,-0.24986 -0.38152,-0.44777 -0.57965,-0.59812c4.09177,-0.9923 9.0105,-0.94488 13.27206,-0.92193c-1.53192,0.95101 -2.9331,2.13932 -4.07176,3.50734l-1.40466,1.887c-3.14663,0.21633 -6.37442,0.7029 -9.44251,1.4539c0.48112,-0.69267 1.04667,-1.32429 1.72543,-1.79746c0,0 2.00109,-1.53074 0.50109,-3.53074z" data-paper-data="{&quot;noHover&quot;:false,&quot;origItem&quot;:[&quot;Path&quot;,{&quot;applyMatrix&quot;:true,&quot;segments&quot;:[[[116.25,132.25],[0,0],[1.5,2]],[[115.75,135.75],[0,0],[-0.67876,0.47317]],[[114.02191,137.54026],[0.48112,-0.69267],[3.06809,-0.751]],[[123.38356,136.07196],[-3.14663,0.21633],[0,0]],[[124.77367,134.21895],[0,0],[1.13866,-1.36802]],[[128.84996,130.73374],[-1.53192,0.95101],[-4.26156,-0.02295]],[[115.66929,131.65457],[4.09177,-0.9923],[0.19813,0.15035]],[[116.25,132.25001],[-0.18739,-0.24986],[0,0]]],&quot;closed&quot;:true,&quot;fillColor&quot;:[0,0,0,1]}]}" fill="#ffffff" stroke-width="0.5"></path><path d="M133.19372,134.01941c0,0 2.11482,-0.91388 1.43798,-3.00164c0.58438,0.03266 1.17522,0.07363 1.75237,0.16191c4.09435,0.62625 8.3276,1.65656 12.43575,2.60639c-3.54563,3.2581 -6.05852,7.12068 -7.93582,11.75131c-0.83729,-1.65867 -1.6126,-3.37496 -2.3302,-5.16896l0.18478,0.43027c0,0 -0.03719,-1.41727 -1.0628,-2.12662c-0.28972,-1.52294 -1.88924,-1.8545 -1.88924,-1.8545c-1.91505,-0.38301 -3.9678,-0.66235 -5.94796,-0.78596c0.97937,-0.85507 2.16213,-1.53371 3.35513,-2.01222z" data-paper-data="{&quot;noHover&quot;:false,&quot;origItem&quot;:[&quot;Path&quot;,{&quot;applyMatrix&quot;:true,&quot;segments&quot;:[[[133.2348,134.04787],[0,0],[-1.193,0.47851]],[[129.88724,136.0431],[0.97937,-0.85507],[1.98016,0.12361]],[[135.74029,136.79856],[-1.91505,-0.38301],[0,0]],[[137.72439,138.66038],[-0.28972,-1.52294],[1.02561,0.70935]],[138.75,140.75001],[[138.57119,140.32154],[0,0],[0.7176,1.794]],[[140.87354,145.48848],[-0.83729,-1.65867],[1.8773,-4.63063]],[[148.77462,133.80744],[-3.54563,3.2581],[-4.10815,-0.94983]],[[136.40325,131.22585],[4.09435,0.62625],[-0.57715,-0.08828]],[[134.65888,131.05973],[0.58438,0.03266],[0.67684,2.08776]],[133.23481,134.04789]],&quot;closed&quot;:true,&quot;fillColor&quot;:[0,0,0,1]}]}" fill="#ffffff" stroke-width="0.5"></path><path d="M154.24942,135.70002c0,0 0.27743,-0.20626 0.54703,-0.56784c2.28112,0.58475 4.40172,1.27639 6.77097,1.97404c0.69189,0.20373 1.5017,0.02677 2.13938,0.36381c0.33077,0.17482 0.65455,0.37781 0.96541,0.60066c-4.54616,6.24363 -10.18695,12.80321 -11.72828,20.39627c-1.73575,-0.81368 -3.39814,-1.86321 -4.95686,-3.44524l-0.69227,-1.12307c0,0 -0.62469,-0.93525 -1.65545,-1.13833c-0.33857,-0.38777 -0.68829,-0.76891 -1.04555,-1.12617c-0.176,-0.23532 -0.34977,-0.47478 -0.51837,-0.71132c0.86335,-0.58271 1.07769,-1.66969 1.07769,-1.66969l0.44324,-2.28984c1.82651,-4.63608 4.63666,-8.26796 8.65305,-11.2633z" data-paper-data="{&quot;noHover&quot;:false,&quot;origItem&quot;:[&quot;Path&quot;,{&quot;applyMatrix&quot;:true,&quot;segments&quot;:[[[154.25,135.75],[0,0],[-4.01639,2.99534]],[[145.64636,146.96237],[1.82651,-4.63608],[0,0]],[145.20145,149.24029],[[144.12186,150.90425],[0.86335,-0.58271],[0.1686,0.23654]],[[144.63864,151.612],[-0.176,-0.23532],[0.35726,0.35726]],[[145.68067,152.73214],[-0.33857,-0.38777],[1.03076,0.20308]],[147.33013,153.86325],[[148.01777,154.98224],[0,0],[1.55872,1.58203]],[[152.95004,158.41733],[-1.73575,-0.81368],[1.54133,-7.59306]],[[164.63408,138.10302],[-4.54616,6.24363],[-0.31086,-0.22285]],[[163.67145,137.50538],[0.33077,0.17482],[-0.63768,-0.33704]],[[161.53764,137.14637],[0.69189,0.20373],[-2.36925,-0.69765]],[[154.79466,135.18214],[2.28112,0.58475],[-0.2696,0.36158]],[154.25,135.75001]],&quot;closed&quot;:true,&quot;fillColor&quot;:[0,0,0,1]}]}" fill="#ffffff" stroke-width="0.5"></path><path d="M157.69294,160.14202c0.84331,-6.58154 6.19133,-12.76828 10.31281,-18.2276c3.0609,5.25789 3.81774,13.22836 1.1708,17.52322c-0.49289,0.79975 -2.55229,2.3694 -3.43964,3.07956c-2.80707,0.53552 -3.44627,-0.58891 -6.19938,-1.58792c-0.64109,-0.23263 -1.27775,-0.45518 -1.8946,-0.6674l0.05,-0.11987z" data-paper-data="{&quot;noHover&quot;:false,&quot;origItem&quot;:[&quot;Path&quot;,{&quot;applyMatrix&quot;:true,&quot;segments&quot;:[[157.72488,160.10356],[[157.67474,160.22331],[0,0],[0.61685,0.21222]],[[159.56135,160.88532],[-0.64109,-0.23263],[2.75311,0.99901]],[[165.72959,162.46774],[-2.80707,0.53552],[0.88735,-0.71016]],[[169.14808,159.39654],[-0.49289,0.79975],[2.64694,-4.29486]],[[167.98861,141.96139],[3.0609,5.25789],[-4.12148,5.45932]],[[157.72489,160.10356],[0.84331,-6.58154],[0,0]]],&quot;closed&quot;:true,&quot;fillColor&quot;:[0,0,0,1]}]}" fill="#ffffff" stroke-width="0.5"></path><path d="M89.2,128.99963c0,-0.39396 -0.06207,-0.72662 -0.16666,-1.0062c4.13054,-3.32355 7.85508,-6.28263 13.40635,-7.86421c6.44718,-2.15899 13.69955,-3.57438 20.51768,-2.91031c3.57081,0.34779 7.21449,1.75116 10.7578,2.45982l2.76101,-1.18873c0,0 0.76752,-0.7685 0.7881,-1.79493c1.64491,-1.17098 0.68748,-3.09947 0.68748,-3.09947l-0.7851,-0.39121c0.72231,-3.61154 1.25877,-7.21637 2.43289,-10.70863c0,0 0.38384,-1.14875 -0.18223,-2.11364c2.30799,-4.28084 6.25386,-7.34346 11.04178,-8.78564c0.72478,-0.21831 3.47258,-0.63176 4.77058,-0.85262c-0.51727,0.81255 -0.97285,1.78745 -1.55528,2.66117c-2.43873,3.65838 -4.50493,7.70013 -4.90723,12.18803c-0.16248,1.81268 0.19188,3.64891 0.00608,5.45936c-0.37147,3.61976 -1.22808,6.50048 0.79834,9.90981c1.87447,3.15366 4.6925,4.36981 7.49823,6.44459c2.13631,0.85988 4.50275,2.15406 6.92918,1.82642c1.83176,-0.24734 3.58168,-1.18929 5.26266,-2.00839c0.46987,1.69059 1.05652,3.36836 1.72811,4.98933c0.88673,2.14023 2.72314,5.94036 4.73417,7.50048c1.27825,0.99164 2.82371,1.36971 4.22583,2.17676c4.89369,2.8168 9.36101,4.3923 15.22616,3.29607c3.0828,-0.5762 6.17453,-2.71914 8.81154,-4.30463c7.47251,-4.49281 14.12816,-12.23465 17.20252,-20.39773c-0.37178,-1.46103 -0.14444,-3.22605 -1.1148,-4.37984c-0.92819,-1.10366 -2.65833,-1.11599 -3.98534,-1.68047c-3.52349,-1.49879 -7.35484,-2.68392 -10.77578,-4.39699c-5.19671,-2.6023 -9.4431,-6.52714 -14.20874,-9.82198c-5.89571,-4.07613 -12.44036,-7.36319 -18.74454,-10.81418c-0.58741,-0.83712 -1.64031,-1.04719 -1.64031,-1.04719c-0.0715,-0.0143 -0.10352,-0.12071 -0.17488,-0.13541c5.82049,-0.45575 11.67417,-0.29625 17.7372,0.45265c3.82511,1.09915 7.99334,1.88376 11.62966,3.3984c6.30101,2.62456 11.84696,6.6755 16.61606,11.43874c0.99841,0.99718 3.3131,3.14249 4.10912,4.49473c2.17997,3.70322 3.78132,7.12551 5.33193,11.15572c1.8488,4.80525 3.87836,9.02371 3.83666,14.28048c0.51997,3.63978 0.98537,7.59538 0.06655,11.22726c-0.82673,3.26788 -2.60441,6.08107 -3.88504,9.15204c-1.68136,4.03191 -3.05294,8.76529 -6.33172,11.57597c-1.42244,1.21936 -3.11154,2.20712 -4.22029,3.71736c-0.31899,0.4345 0.11554,1.35984 -0.19896,1.68641c-0.13479,-0.61211 -0.64868,-2.078 -2.47468,-2.01361c-1.71608,-1.01182 -4.28625,-2.17753 -5.47355,-1.94585c-1.14841,0.2241 -1.32084,2.28478 -2.47165,2.4962c-1.03724,0.19056 -1.73232,-1.33544 -2.76856,-1.53137c-0.91757,-0.17349 -1.84035,0.32572 -2.75998,0.4879c-1.07482,-0.13091 -2.19588,-0.72673 -3.22546,-0.39157c-1.63717,0.53295 -2.55183,2.66567 -4.2514,2.94102c-2.22722,0.36084 -5.62864,0.13505 -7.82524,-0.03305c-5.72546,-0.43816 -11.12525,-2.12323 -16.58325,-3.64376c0.12577,-0.02378 0.21791,-0.14222 0.34909,-0.16897c1.87509,-1.35649 4.33646,-2.91273 5.57335,-4.92468c5.31224,-8.64104 1.39038,-24.10494 -7.54511,-29.07957c-0.85537,-0.47621 -1.83348,-0.32845 -2.76987,-0.61412c-3.15553,-0.96267 -5.94923,-1.84936 -9.19234,-2.54456c-5.47709,-1.17409 -11.13705,-2.68267 -16.67234,-3.5387c-1.85256,-0.2865 -3.76196,-0.14574 -5.60015,-0.51338c-5.95998,-0.02234 -13.25558,-0.29218 -18.9872,1.59441c-12.89366,4.244 -24.37962,13.03302 -30.49694,25.25133c0,0 -0.36965,0.73781 -0.25919,1.57834c-2.1313,2.14248 -4.23081,4.30973 -6.19784,6.59274c0.00906,-0.88497 -0.08032,-1.74919 0.06281,-2.59804c0.92154,-5.4654 1.73269,-10.96819 2.96656,-16.35692c0.65413,-2.85677 1.84419,-6.17466 3.55305,-8.56241c0.74833,-1.04563 1.93174,-1.66461 3.04225,-2.35747l1.47093,0.58884c0,0 2.49998,-0.0019 2.49998,-2.5019z" data-paper-data="{&quot;noHover&quot;:false,&quot;origItem&quot;:[&quot;Path&quot;,{&quot;applyMatrix&quot;:true,&quot;segments&quot;:[[[89.25,129],[0,0],[0,2.5]],[86.75,131.5],[[85.27908,130.91163],[0,0],[-1.11051,0.69286]],[[82.23677,133.26748],[0.74833,-1.04563],[-1.70886,2.38775]],[[78.68312,141.82437],[0.65413,-2.85677],[-1.23387,5.38873]],[[75.71411,158.17208],[0.92154,-5.4654],[-0.14313,0.84885]],[[75.55808,160.80628],[0.00906,-0.88497],[1.96703,-2.28301]],[[81.75504,154.21119],[-2.1313,2.14248],[-0.11046,-0.84053]],[[82.01393,152.63196],[0,0],[6.11732,-12.21831]],[[112.50847,127.3625],[-12.89366,4.244],[5.73162,-1.88659]],[[131.49634,125.76216],[-5.95998,-0.02234],[1.83819,0.36764]],[[137.09675,126.27416],[-1.85256,-0.2865],[5.53529,0.85603]],[[153.77138,129.80497],[-5.47709,-1.17409],[3.24311,0.6952]],[[162.96236,132.35363],[-3.15553,-0.96267],[0.93639,0.28567]],[[165.82855,132.99462],[-0.85537,-0.47621],[8.93549,4.97463]],[[173.35193,162.10346],[5.31224,-8.64104],[-1.23689,2.01195]],[[167.77042,167.03226],[1.87509,-1.35649],[-0.13118,0.02675]],[[167.38506,167.10804],[0.12577,-0.02378],[5.458,1.52053]],[[183.95619,170.75851],[-5.72546,-0.43816],[2.1966,0.1681]],[[191.77722,170.7951],[-2.22722,0.36084],[1.69957,-0.27535]],[[196.02553,167.85726],[-1.63717,0.53295],[1.02958,-0.33516]],[[199.24999,168.24999],[-1.07482,-0.13091],[0.91963,-0.16218]],[[202.00889,167.76343],[-0.91757,-0.17349],[1.03624,0.19593]],[[204.77722,169.2951],[-1.03724,0.19056],[1.15081,-0.21142]],[[207.24732,166.80104],[-1.14841,0.2241],[1.1873,-0.23168]],[[212.72029,168.74776],[-1.71608,-1.01182],[1.826,-0.06439]],[[215.19509,170.76119],[-0.13479,-0.61211],[0.3145,-0.32657]],[[215.39349,169.07564],[-0.31899,0.4345],[1.10875,-1.51024]],[[219.61198,165.36136],[-1.42244,1.21936],[3.27878,-2.81068]],[[225.94029,153.79329],[-1.68136,4.03191],[1.28063,-3.07097]],[[229.82371,144.64737],[-0.82673,3.26788],[0.91882,-3.63188]],[[229.75628,133.42722],[0.51997,3.63978],[0.0417,-5.25677]],[[225.92005,119.15631],[1.8488,4.80525],[-1.55061,-4.03021]],[[220.58997,108.00871],[2.17997,3.70322],[-0.79602,-1.35224]],[[216.48222,103.51777],[0.99841,0.99718],[-4.7691,-4.76324]],[[199.87334,92.09127],[6.30101,2.62456],[-3.63632,-1.51464]],[[188.25006,88.69951],[3.82511,1.09915],[-6.06303,-0.7489]],[[170.52597,88.25505],[5.82049,-0.45575],[0.07136,0.0147]],[[170.74027,88.29856],[-0.0715,-0.0143],[0,0]],[[172.38254,89.34665],[-0.58741,-0.83712],[6.30418,3.45099]],[[191.14496,100.17539],[-5.89571,-4.07613],[4.76564,3.29484]],[[205.3609,110.01039],[-5.19671,-2.6023],[3.42094,1.71307]],[[216.13845,114.4132],[-3.52349,-1.49879],[1.32701,0.56448]],[[220.12419,116.0955],[-0.92819,-1.10366],[0.97036,1.15379]],[[221.23953,120.47858],[-0.37178,-1.46103],[-3.07436,8.16308]],[[204.03624,140.89374],[7.47251,-4.49281],[-2.63701,1.58549]],[[195.22277,145.2049],[3.0828,-0.5762],[-5.86515,1.09623]],[[179.99518,141.91228],[4.89369,2.8168],[-1.40212,-0.80705]],[[175.6783,139.69417],[1.27825,0.99164],[-2.01103,-1.56012]],[[170.9403,132.20671],[0.88673,2.14023],[-0.67159,-1.62097]],[[169.21211,127.23173],[0.46987,1.69059],[-1.68098,0.8191]],[[164.04896,129.23206],[1.83176,-0.24734],[-2.42643,0.32764]],[[157.02519,127.42941],[2.13631,0.85988],[-2.80573,-2.07478]],[[149.58999,121.00871],[1.87447,3.15366],[-2.02642,-3.40933]],[[148.76217,111.00366],[-0.37147,3.61976],[0.1858,-1.81045]],[[148.75852,105.54381],[-0.16248,1.81268],[0.4023,-4.4879]],[[153.67538,93.35504],[-2.43873,3.65838],[0.58243,-0.87372]],[[155.22673,90.79377],[-0.51727,0.81255],[-1.298,0.22086]],[[150.46237,91.64637],[0.72478,-0.21831],[-4.78792,1.44218]],[[139.43839,100.42746],[2.30799,-4.28084],[0.56607,0.96489]],[[139.62171,102.54058],[0,0],[-1.17412,3.49226]],[[137.20145,113.2403],[0.72231,-3.61154],[0,0]],[137.98607,113.63197],[[137.30302,116.72668],[1.64491,-1.17098],[-0.02058,1.02643]],[136.51776,118.51777],[[133.75971,119.70145],[0,0],[-3.54331,-0.70866]],[[123.00365,117.23784],[3.57081,0.34779],[-6.81813,-0.66407]],[[102.48886,120.13833],[6.44718,-2.15899],[-5.55127,1.58158]],[[89.08333,127.9946],[4.13054,-3.32355],[0.10459,0.27958]],[[89.25,129.00001],[0,-0.39396],[0,0]]],&quot;closed&quot;:true,&quot;fillColor&quot;:[0,0,0],&quot;strokeWidth&quot;:0.5}]}" fill="#cd894a" stroke-width="0.25"></path></g></g></svg>