<svg version="1.1" xmlns="http://www.w3.org/2000/svg" xmlns:xlink="http://www.w3.org/1999/xlink" width="210.57709" height="227.68289" viewBox="0,0,210.57709,227.68289"><g transform="translate(-93.43867,-83.42672)"><g data-paper-data="{&quot;isPaintingLayer&quot;:true}" fill-rule="nonzero" stroke="none" stroke-linecap="butt" stroke-linejoin="miter" stroke-miterlimit="10" stroke-dasharray="" stroke-dashoffset="0" style="mix-blend-mode: normal"><path d="M162.00046,173.64118c-0.96333,-0.57531 -1.90277,-1.19804 -2.81447,-1.85444c-2.36621,-4.02216 -3.74234,-8.6283 -6.13424,-12.62621c-0.45872,-0.76672 -1.51889,-1.07407 -1.92176,-1.87156c-1.0224,-2.02387 -1.08953,-4.41312 -1.80594,-6.56442c-1.34224,-4.03058 -3.28931,-8.30352 -3.89264,-12.52614c-0.9473,-6.62996 -0.2491,-14.48543 1.83029,-20.75576c2.06295,-4.115 4.86888,-7.81386 6.94567,-11.87935c0.44112,-0.86354 0.38914,-1.9383 0.87726,-2.77616c1.09017,-1.87128 3.11587,-3.01707 4.6445,-4.55116c8.21321,-8.24254 20.19124,-9.26575 31.25803,-9.28433c5.08185,-0.00852 12.00228,-2.46876 15.70291,1.62515c4.38496,1.54505 7.87678,3.91533 11.99369,5.97512c1.91139,0.95632 4.1015,1.48838 5.75787,2.83908c5.6102,4.57486 10.67512,9.71506 15.83495,14.85366c2.27678,2.26743 5.90166,3.84359 7.64485,6.55588c0.56991,0.88675 0.45849,2.09939 1.00082,3.00326c0.48507,0.80845 1.51409,1.19472 2.00046,2.0024c0.50212,0.83385 0.44727,1.91569 0.88122,2.78696c1.57292,3.15806 3.25256,6.39213 5.20506,9.35465c0.91415,1.17986 2.14589,2.17415 2.74212,3.54244c0.5668,1.30073 0.49367,2.80057 0.63345,4.21253c0.50397,5.09076 0.88382,11.00637 -2.36787,15.35764c-2.64848,3.54408 -6.13583,6.43297 -8.9111,9.88595c-1.28572,1.59968 -2.4458,3.31301 -3.83785,4.82106c-0.42536,0.46082 -0.59826,1.25167 -1.19006,1.45916c-0.82433,0.28902 -1.77843,-0.36067 -2.61882,-0.12236c-1.43417,0.40669 -2.55793,1.63602 -4.00292,2.00241c-1.01058,0.25624 -2.08237,-0.05869 -3.12931,-0.07611c-0.01456,-0.75194 -0.16161,-1.61628 -0.10607,-2.32094c0.23926,-3.03558 -0.47647,-5.77648 -1.72253,-8.52166c-4.00292,-8.81878 -12.51747,-16.16965 -22.28871,-14.97133c0.69058,-2.00182 1.40384,-4.05737 2.28087,-5.95805c1.99074,-4.31429 5.19867,-8.2476 8.16221,-11.95129l0.54765,-2.05602c0,0 0.00083,-2.49209 -2.49917,-2.49209c-1.83637,0 -2.2248,1.33639 -2.3542,2.05253c-3.06881,3.84237 -6.29272,7.988 -8.34544,12.43465c-2.90274,6.28798 -4.64699,13.27726 -6.6576,19.86731c-0.14786,0.48462 -0.30631,0.96848 -0.47276,1.45165c-0.35449,0.36643 -0.61917,0.90823 -0.62456,1.70949c-1.35996,3.54105 -3.10287,7.04227 -4.67685,10.50403c-0.16393,-0.52846 -0.36003,-1.04788 -0.57101,-1.55406c-0.31316,-0.75131 -1.14392,-1.2038 -1.47715,-1.94642c-0.68789,-1.53302 -1.22683,-3.26713 -1.77719,-4.99139c0.06984,-0.39894 0.03104,-0.86968 -0.18823,-1.41785c-0.16423,-0.41057 -0.37316,-0.71986 -0.60399,-0.95021c-0.12766,-0.35551 -0.26046,-0.70659 -0.3981,-1.05052c-4.42566,-11.05875 -8.77962,-22.02523 -14.68315,-32.35726c0,0 -1.14037,-2.17187 -3.31098,-0.93152c-2.17061,1.24035 -0.93053,3.40553 -0.93053,3.40553c3.34636,5.85567 6.46002,12.00292 9.28802,18.32368c-1.21401,0.909 -2.40667,2.03438 -3.75943,2.70947c-0.68325,0.34098 -1.54552,0.12162 -2.25653,0.40012c-3.20801,1.25658 -7.84425,3.7614 -9.71483,6.94596c-1.4769,2.51434 -2.09941,5.27296 -2.31148,8.0891c-0.56712,-0.23872 -1.16091,-0.16882 -1.16091,-0.16882l0.35805,0.28667z" data-paper-data="{&quot;noHover&quot;:false,&quot;origItem&quot;:[&quot;Path&quot;,{&quot;applyMatrix&quot;:true,&quot;segments&quot;:[[162.03624,173.60627],[161.75,173.25],[[162.8394,173.48872],[-0.56712,-0.23872],[0.21207,-2.81614]],[[165.14806,165.39654],[-1.4769,2.51434],[1.87058,-3.18456]],[[174.93865,158.38532],[-3.20801,1.25658],[0.71101,-0.2785]],[[177.19404,157.98395],[-0.68325,0.34098],[1.35276,-0.67509]],[[180.88149,155.34389],[-1.21401,0.909],[-2.828,-6.32076]],[[171.57938,136.99035],[3.34636,5.85567],[0,0]],[[172.50964,133.57939],[-2.17061,1.24035],[2.17061,-1.24035]],[[175.9206,134.50965],[0,0],[5.90353,10.33203]],[[190.57118,166.82152],[-4.42566,-11.05875],[0.13764,0.34393]],[[190.96832,167.87169],[-0.12766,-0.35551],[0.23083,0.23035]],[[191.57118,168.82152],[-0.16423,-0.41057],[0.21927,0.54817]],[[191.75864,170.23913],[0.06984,-0.39894],[0.55036,1.72426]],[[193.53225,175.22957],[-0.68789,-1.53302],[0.33323,0.74262]],[[195.00733,177.17557],[-0.31316,-0.75131],[0.21098,0.50618]],[[195.57743,178.72947],[-0.16393,-0.52846],[1.57398,-3.46176]],[[200.25007,168.22494],[-1.35996,3.54105],[0.00539,-0.80126]],[[200.87388,166.5154],[-0.35449,0.36643],[0.16645,-0.48317]],[[201.34603,165.06372],[-0.14786,0.48462],[2.01061,-6.59005]],[[207.98087,145.20067],[-2.90274,6.28798],[2.05272,-4.44665]],[[216.29675,132.81504],[-3.06881,3.84237],[0.1294,-0.71614]],[[218.74999,130.75],[-1.83637,0],[2.5,0]],[221.24999,133.25],[[220.70216,135.31174],[0,0],[-2.96354,3.70369]],[[212.51911,147.29933],[1.99074,-4.31429],[-0.87703,1.90068]],[[210.19167,153.16982],[0.69058,-2.00182],[9.77124,-1.19832]],[[232.53059,168.22586],[-4.00292,-8.81878],[1.24606,2.74518]],[[234.24999,176.75],[0.23926,-3.03558],[-0.05554,0.70466]],[[234.29809,178.98947],[-0.01456,-0.75194],[1.04694,0.01742]],[[237.42561,179.06688],[-1.01058,0.25624],[1.44499,-0.36639]],[[241.42561,177.06688],[-1.43417,0.40669],[0.84039,-0.23831]],[[244.04328,177.1903],[-0.82433,0.28902],[0.5918,-0.20749]],[[245.23222,175.73223],[-0.42536,0.46082],[1.39205,-1.50805]],[[249.06663,170.91502],[-1.28572,1.59968],[2.77527,-3.45298]],[[257.97188,161.03822],[-2.64848,3.54408],[3.25169,-4.35127]],[[260.3356,145.69259],[0.50397,5.09076],[-0.13978,-1.41196]],[[259.70156,141.48349],[0.5668,1.30073],[-0.59623,-1.36829]],[[256.95913,137.94392],[0.91415,1.17986],[-1.9525,-2.96252]],[[251.75419,128.59837],[1.57292,3.15806],[-0.43395,-0.87127]],[[250.87336,125.81432],[0.50212,0.83385],[-0.48637,-0.80768]],[[248.87336,123.81432],[0.48507,0.80845],[-0.54233,-0.90387]],[[247.87336,120.81432],[0.56991,0.88675],[-1.74319,-2.71229]],[[240.23222,114.26775],[2.27678,2.26743],[-5.15983,-5.1386]],[[224.41501,99.43334],[5.6102,4.57486],[-1.65637,-1.3507]],[[218.66417,96.59793],[1.91139,0.95632],[-4.11691,-2.05979]],[[206.68565,90.62661],[4.38496,1.54505],[-3.70063,-4.09391]],[[190.99998,88.99998],[5.08185,-0.00852],[-11.06679,0.01858]],[[159.76774,98.26774],[8.21321,-8.24254],[-1.52863,1.53409]],[[155.1266,102.81431],[1.09017,-1.87128],[-0.48812,0.83786]],[[154.25064,105.58834],[0.44112,-0.86354],[-2.07679,4.06549]],[[147.30968,117.45669],[2.06295,-4.115],[-2.07939,6.27033]],[[145.48125,138.19452],[-0.9473,-6.62996],[0.60333,4.22262]],[[149.37169,150.70941],[-1.34224,-4.03058],[0.71641,2.1513]],[[151.17548,157.26824],[-1.0224,-2.02387],[0.40287,0.79749]],[[153.09627,159.13779],[-0.45872,-0.76672],[2.3919,3.99791]],[[159.22368,171.75389],[-2.36621,-4.02216],[0.9117,0.6564]],[[162.03622,173.60624],[-0.96333,-0.57531],[0,0]]],&quot;closed&quot;:true,&quot;fillColor&quot;:[0,0,0],&quot;strokeWidth&quot;:0.5}]}" fill="#cd894a" stroke-width="0.25"></path><path d="M183,120c-2.5,0 -2.5,-2.5 -2.5,-2.5l0.6273,0.65774c-2.61989,-2.76949 -3.33561,-5.23677 -4.49901,-8.86717c-0.47271,-1.47512 -0.74566,-3.79609 -2.585,-4.48087c-0.95254,-0.35462 -2.0288,0.25265 -3.04329,0.1903c-0.53531,-0.0329 -1.11709,-0.804 -1.53823,-0.4719c-0.45956,0.3624 0.04142,1.18264 -0.08713,1.75361c-0.64691,2.87325 -1.867,4.09486 -1.85524,7.30621c0.00726,1.98207 1.18964,5.14411 1.85231,7.1215c0,0 0.79057,2.37171 -1.58114,3.16228c-2.37171,0.79057 -3.16228,-1.58114 -3.16228,-1.58114c-2.0875,-6.29305 -2.48595,-11.27887 -0.00293,-17.57228c0.56976,-1.44411 0.66504,-3.32279 1.91287,-4.24639c1.20209,-0.88975 2.96689,-0.4272 4.46177,-0.4719c1.65272,-0.04941 3.45378,-0.49898 4.95671,0.1903c6.42475,2.94653 4.44287,10.42549 8.81106,14.54194l0.73224,2.76776c0,0 0,2.5 -2.5,2.5z" fill="#000000" stroke-width="0.5"></path><path d="M229.76777,114.26777c-1.76776,1.76776 -3.53553,0 -3.53553,0l-2.35886,-2.45343c-0.94457,-2.8337 -3.40023,-6.88348 -6.59784,-7.9216c-0.72224,-0.23448 -1.51619,0.10727 -2.27554,0.10727c-0.75935,0 -1.54812,-0.32517 -2.27554,-0.10727c-4.938,1.47918 -3.73395,7.22231 -0.95669,9.83951c0,0 1.76776,1.76776 0,3.53553c-1.76776,1.76776 -3.53553,0 -3.53553,0c-5.35717,-5.57197 -5.51871,-15.14889 3.04331,-18.16049c7.23639,-2.54533 14.72179,3.69052 16.85108,10.0784l1.64114,1.54657c0,0 1.76776,1.76776 0,3.53553z" fill="#000000" stroke-width="0.5"></path><path d="M188,279c1.1429,0 1.76331,0.52249 2.10009,1.08974c-0.82638,-6.4526 -0.28561,-12.91455 -0.29081,-19.37351c-0.64412,-0.30231 -1.30929,-0.92669 -1.30929,-2.21623c0,-1.21669 0.59213,-1.84125 1.20005,-2.16185c-0.04847,-0.8951 -0.11574,-1.7901 -0.20691,-2.68494c-0.1088,-1.06797 -0.28339,-2.13101 -0.45607,-3.19384c-1.91728,0.63877 -4.6787,1.54063 -5.03707,1.54063c-1.11422,0 -2.24189,-0.22982 -3.33985,-0.61632c-1.10767,5.10444 -1.86497,10.34659 -2.35985,15.61623l0.7,0.00008c0,0 2.5,0.0003 2.4997,2.5003c-0.0003,2.5 -2.5003,2.4997 -2.5003,2.4997l-1.09269,-0.00013c-0.28998,4.52869 -0.40711,9.05197 -0.40701,13.50013l-1.26393,3.11803c0,0 -0.91108,1.82217 -2.73325,1.35425c0.03311,1.37457 0.25525,2.77333 -0.06969,4.1021c-0.38559,1.57676 -1.49069,2.8875 -2.12342,4.38233c-1.63059,3.85225 -3.22496,8.64093 -6.95953,11.14735c-2.15012,1.44303 -4.95108,1.43007 -7.46611,1.39595h-1.88406v-0.02028c-0.10456,-0.00182 -0.20894,-0.00392 -0.31314,-0.00631c-0.0112,0.00084 -0.0224,0.00165 -0.03361,0.00243c-0.2768,0.01913 -0.55019,0.00706 -0.82105,-0.02849c-4.49711,-0.17168 -8.67139,-0.8823 -12.8322,-2.18075v0.2334h-3c-1.22423,0 -2.24294,-0.87996 -2.45812,-2.04188c-1.16192,-0.21518 -2.04188,-1.23389 -2.04188,-2.45812c0,-1.18975 0.83109,-2.18539 1.9444,-2.43804l0.41107,-0.10277c-1.37244,-1.14588 -2.84308,-2.66423 -2.26476,-4.12653c1.67843,-4.24388 6.15627,-2.38156 9.00883,-2.80038c2.94476,-0.43236 6.63266,-3.31384 9.14564,-4.69456c1.30484,-0.71693 2.35667,-2.07432 3.82814,-2.30104c1.56936,-0.24181 3.13712,0.2208 4.7128,0.58505c-0.18229,-2.17462 -0.45946,-4.30424 -0.74498,-6.63809c-0.05691,-0.24418 -0.07895,-0.46987 -0.07334,-0.67811c-0.22127,-2.74959 0.53029,-5.70976 0.06448,-8.40508c-0.17951,-1.0387 -0.87144,-1.95378 -1,-3c-0.56352,-4.58577 -0.05572,-9.7537 -0.03228,-14.40046c0.00721,-1.4288 0.0932,-2.89314 0.37485,-4.30417c-2.90402,0.2463 -5.7695,0.62595 -8.7369,0.80036c-10.25614,0.60284 -20.12271,0.00967 -29.89569,-3.11379c-5.51812,-1.7636 -13.25689,-4.71295 -16.41775,-10.15065c-1.6387,-2.81909 -2.17824,-7.34417 -2.29751,-10.86651c-3.92452,-2.63461 -6.99658,-6.21783 -7.89981,-11.17497c-0.88056,-4.83275 1.52829,-9.56239 3.00111,-13.98083c0,0 0.44831,-1.34493 1.68252,-1.67162c-2.25948,-6.59169 -0.01004,-14.02648 1.34098,-20.5128c0.67599,-3.24548 1.38252,-7.83929 3.40687,-10.6002c0.80793,-1.10189 2.19831,-1.61027 3.34759,-2.36433c-1.57129,-2.40659 -3.16861,-4.83323 -3.86115,-7.58772c-0.25744,-1.02394 0.08358,-2.11725 -0.02638,-3.16731c-0.18316,-1.74909 -1.54785,-3.59245 -0.85054,-5.20695c2.56824,-5.94627 9.76045,-3.32281 13.95396,-2.35832c1.82512,0.41977 3.82009,0.25492 5.5218,1.03689c1.28723,0.59151 2.08124,1.92326 3.08828,2.91962c1.32098,1.30696 2.84518,2.45526 3.89439,3.98897c1.74582,2.55198 1.40438,6.40741 3,9c0.49416,0.80293 1.52243,1.18709 2,2c1.06787,1.81772 0.89502,4.2046 2,6c0.49416,0.80293 1.51771,1.18989 2,2c0.49397,0.82974 0.5607,1.84811 0.84105,2.77217c3.43935,1.96305 6.40007,5.91707 8.96568,8.95719c1.49783,1.77486 2.18014,4.18717 3.83441,5.81721c0.85608,0.84354 2.15016,1.15016 3,2c0.84984,0.84984 1.15016,2.15016 2,3c0.84984,0.84984 2.15158,1.14875 3,2c0.90587,0.90888 1.34288,2.198 2.16559,3.18279c2.48309,2.97229 5.09136,6.07415 7.83441,8.81721c1.74766,1.74766 2.79358,4.15948 4.69401,5.73966c0.76677,0.63756 1.99899,0.38587 2.85255,0.90148c1.18803,0.71765 2.84871,3.32059 4.41013,3.7339c0.49977,0.13229 1.01558,0.12335 1.53603,0.07344c0.08759,-10.66281 0.72823,-21.15471 2.09798,-31.72475c-0.1583,-0.16829 -0.30845,-0.34107 -0.44967,-0.51481c-0.71532,-0.88 -0.29788,-2.40415 -1.07863,-3.22666c-0.36912,-0.38886 -0.14392,1.16072 -0.54912,1.51183c-1.02526,0.88839 -2.17572,2.08257 -3.53106,2.02367c-3.22409,-0.14011 -4.86309,-3.57605 -6.39155,-6.25191c-0.61134,0.13891 -1.2406,0.21198 -1.8621,0.23974c-1.66097,0.0742 -3.53014,0.50483 -4.97809,-0.31233c-1.39929,-0.7897 -2.16223,-2.4863 -2.67754,-4.00817c-0.30608,-0.90395 -0.2264,-1.87675 -0.15204,-2.84757c-0.50563,0.18023 -0.93867,0.18023 -0.93867,0.18023l-2.28624,-0.35627c-0.45262,-0.2727 -0.90042,-0.55378 -1.34338,-0.84256c-1.35745,0.10017 -2.2005,-1.16442 -2.2005,-1.16442c-0.14813,-0.22493 -0.29245,-0.45189 -0.43331,-0.68068c-0.43799,-0.32815 -0.87076,-0.66304 -1.2983,-1.0039c0,0 -1.56074,-1.24859 -0.77476,-2.90846c-1.48305,-3.1652 -2.71904,-6.45584 -4.5098,-9.43152c-0.51165,-0.85021 -1.63839,-1.24144 -2.07921,-2.13045c-1.14889,-2.31697 -1.37767,-4.98796 -2.19621,-7.44117c-1.45568,-4.36274 -3.45677,-8.91494 -4.10956,-13.48511c-1.07208,-7.50557 -0.19647,-16.18858 2.17157,-23.26217c2.09858,-4.20703 4.94269,-7.98517 7.05904,-12.13165c0.51767,-1.01426 0.52874,-2.25524 1.12404,-3.22597c1.33234,-2.17259 3.55374,-3.65431 5.35886,-5.45343c9.22416,-9.19353 22.30828,-10.75468 34.76776,-10.73224c6.37581,0.01148 13.23355,-2.33125 18.31433,2.37337c4.26711,1.31924 7.56764,3.74561 11.50117,5.71106c1.0465,0.5229 2.26472,0.64561 3.30502,1.18074c2.06137,1.06037 3.6543,2.85335 5.46445,4.30147c5.06481,4.05185 9.58048,8.54253 14.18279,13.16559c2.67809,2.69016 6.14303,4.22407 8.35886,7.45343c0.59638,0.86916 0.45767,2.09613 1,3c0.48507,0.80845 1.51612,1.19084 2,2c2.26452,3.78678 3.4042,8.1587 5.91422,11.8704c1.08585,1.48681 2.54191,2.76411 3.25757,4.46043c0.7443,1.7642 0.78002,3.75392 1.00995,5.65484c0.77107,6.37464 0.64115,13.37182 -3.28027,18.79043c-2.64184,3.65049 -6.28611,6.59468 -9.09475,10.1232c-1.86247,2.33984 -4.02309,6.45365 -6.97665,7.72473c-1.0363,0.44598 -2.2981,-0.18845 -3.38233,0.12342c-1.43263,0.41207 -2.55269,1.64291 -4,2c-1.40079,0.34561 -2.89407,-0.10467 -4.32803,0.05471c-5.54492,0.61632 -10.69088,2.96166 -16.24634,3.01217h-1c0,0 -1.59294,0 -2.23574,-1.27153c-0.22449,0.17174 -0.39622,0.2576 -0.39622,0.2576l-2.18956,1.08512c-2.75431,1.10172 -4.9321,2.01955 -7.41887,3.67157c-1.24564,0.82751 -2.32282,2.13663 -3.59236,2.89956c0.08275,0.34995 0.08275,0.60768 0.08275,0.60768c-0.00446,7.43841 -1.17086,14.83922 -1.92761,22.23128c-0.15814,1.54477 -0.34517,3.08701 -0.56823,4.62374c-0.04368,0.30096 -0.42537,0.64868 -0.23103,0.88259c0.17106,0.20589 0.50528,-0.18195 0.76717,-0.23729c2.70438,-0.57143 4.28807,-1.25108 6.69633,-2.65762c7.09194,-4.14202 14.70326,-7.9089 21.28672,-12.86001c2.78411,-1.98881 6.33465,-3.8578 8.75474,-6.29517c0.94713,-0.95389 1.5865,-2.19829 2.59566,-3.0863c3.58296,-3.15282 8.98415,-3.26618 12.66447,-6.12933c2.83107,-2.20247 5.11892,-5.42429 7.79447,-7.83471c7.77595,-7.00542 12.94264,-14.78331 16.84611,-24.56566c1.61083,-3.97797 2.78716,-8.0638 4.51149,-12.02823c2.39546,-5.50741 10.01062,-11.18501 15.57747,-5.31106c1.29871,1.37035 1.98711,3.24307 2.61852,5.02235c1.36349,3.84223 1.11098,8.0195 0.03949,12.19367c0.38859,0.29069 0.60856,0.59865 0.60856,0.59865c2.45649,3.48269 2.96535,3.43694 3.89879,7.37871c1.99361,8.41869 0.28157,17.42092 -3.79332,25.03274c0.73577,0.47947 1.5291,0.91098 1.94291,1.65878c3.42829,6.19526 0.57532,11.93855 -3.12281,16.89515c1.74234,0.22571 2.01497,2.13416 2.01497,2.13416c1.06007,7.64662 -0.23699,19.90542 -8.54227,23.67309c-1.49834,0.67972 -3.28764,0.14734 -4.93261,0.18046c-2.91271,0.05865 -5.82755,0.19559 -8.72643,0.48511c-3.19081,0.31867 -6.31333,1.1641 -9.50236,1.50013c-5.78745,0.60984 -11.74452,-0.06758 -17.52487,0.50259c-3.38035,0.33343 -6.85859,1.61717 -10.14,2.43752c-4.39735,1.0796 -8.69154,1.14104 -13.12951,2.02875c-7.44037,1.48826 -13.78127,2.90768 -21.1802,1.80867c-0.70627,0.48723 -1.54664,0.48723 -1.54664,0.48723l-1.20943,-0.12829c-0.11733,0.03911 -0.23466,0.07822 -0.35198,0.11733c0.06141,0.2997 0.06141,0.51096 0.06141,0.51096c0,3.98662 0.20234,8.06301 0.20163,12.10425c0.44288,0.36579 0.79837,0.95303 0.79837,1.89575c0,0.99594 -0.39676,1.59512 -0.87416,1.9556c-0.0315,0.73604 -0.07422,1.46954 -0.13067,2.19974c-0.0258,0.33372 -0.05614,0.66696 -0.09036,0.99978c0.10193,0.33028 0.13761,0.72565 0.07007,1.19843c-0.06163,0.43139 -0.18771,0.77685 -0.3539,1.05322c-0.54097,3.70684 -1.37854,7.37717 -1.57759,11.0931c2.07251,-0.00057 8.5714,-0.00202 8.76208,0.01886c2.98083,0.32633 5.94225,0.99742 8.94089,0.99344l0.23224,0.0949l0.0117,-0.05851l4.85749,0.9715c1.16847,0.20987 2.05512,1.23166 2.05512,2.46053c0,0.81388 -0.38891,1.53692 -0.99103,1.99342l-3.88213,3.00335l-0.02066,-0.02671c-0.10874,0.08725 -0.21944,0.17234 -0.33229,0.25507c-1.97197,1.44568 -6.37827,2.55242 -9.52876,3.47372c1.19368,0.11224 2.37374,0.41777 3.56882,0.54199c3.09235,0.32142 6.18405,0.71251 9.23317,1.31976l0.05271,0.02868l0.00381,-0.01531l4.04646,1.00682c1.11461,0.25168 1.947,1.24795 1.947,2.43863c0,1.0731 -0.67611,1.98829 -1.62559,2.34282l-4.58831,1.83533l-0.00372,-0.00931c-0.01911,0.01097 -0.03823,0.02191 -0.05738,0.03283c-0.99351,0.56635 -5.33051,1.69204 -7.2694,2.24073c0.34074,0.42724 0.54441,0.96864 0.54441,1.55761c0,0.99801 -0.58479,1.85943 -1.43041,2.26029l-3.95156,1.97578c-5.45079,3.86945 -11.29392,2.01889 -17.27508,1.2704c-3.555,-0.44488 -8.58171,-0.04917 -10.15265,-4.54976c-0.65469,-1.87561 -0.1558,-3.97043 -0.1903,-5.95671c-0.09817,-5.6523 -0.61636,-11.39413 1.12829,-16.79057l-0.12829,-1.20943c0,0 0,-2.5 2.5,-2.5zM190.37171,284.29057c-1.2262,3.54012 -0.87171,6.38078 -0.87171,10.20943c0,3.0151 -0.68723,6.06943 -0.1903,9.04329c0.32508,1.94545 5.19246,1.38307 6.04154,1.48908c3.16184,0.39477 7.74326,1.87483 11.07438,1.03451c0.05103,-0.01287 0.10149,-0.02732 0.15143,-0.0432c-0.07357,-0.03392 -0.14649,-0.06968 -0.21872,-0.10743c-0.04664,-0.02438 -0.09292,-0.04928 -0.13885,-0.07468l-0.01005,0.03014l-2.94531,-0.98177c-1.02156,-0.31417 -1.76412,-1.26534 -1.76412,-2.38994c0,-1.38071 1.11929,-2.5 2.5,-2.5c0.28358,0 0.55613,0.04722 0.81022,0.13422l2.57809,0.81626c3.49228,-0.77847 6.91246,-2.5399 10.38121,-3.62664c-3.11648,-0.22257 -6.37495,-0.4733 -8.58633,-1.46103c-1.66356,-0.74304 -4.29371,-1.68175 -4.19737,-3.50116c0.13417,-2.5339 2.72536,-4.39451 4.69985,-5.98827c1.37571,-1.11044 3.79496,-1.90959 6.23434,-2.45472c-4.98249,-0.22461 -9.81283,-0.91866 -14.92001,-0.91866c0,0 -0.43923,0 -0.94947,-0.1841c-0.28881,0.11509 -0.63516,0.1841 -1.05053,0.1841c-2.5,0 -2.5,-2.5 -2.5,-2.5l0.00005,-1.01568c0.03895,-4.01936 0.87876,-7.92935 1.48827,-11.88918c-1.14308,-0.1633 -2.36792,-0.33827 -3.33763,-0.4768c-0.10241,4.68398 -0.12741,9.36509 0.65576,14.03533l0.18935,3.20153c0,0 0.1448,2.4958 -2.351,2.64061c-2.4958,0.1448 -2.64061,-2.351 -2.64061,-2.351l-0.08222,-1.44768zM198.61909,261.52758c-1.3419,-0.2569 -2.5746,-0.38929 -3.85143,-0.45719c-0.00243,0.33745 -0.00608,0.67491 -0.0107,1.01236c1.26657,0.18094 2.53314,0.36188 3.79972,0.54282c0.02404,-0.3652 0.04474,-0.73123 0.06241,-1.09799zM198.50537,246.63344c-1.23827,0.41276 -2.47653,0.82551 -3.7148,1.23827c0,0 -0.49624,0.16541 -1.1104,0.11792c0.22927,1.72196 0.61595,3.43431 0.78785,5.16297c0.09679,0.97334 0.16553,1.9469 0.21279,2.92061c1.35426,0.06669 2.6576,0.18953 4.02351,0.40893c-0.02569,-3.28929 -0.16928,-6.59701 -0.19895,-9.84869zM193.20943,243.12829c2.36265,-0.78755 4.72529,-1.5751 7.08794,-2.36265c0.00039,-0.00198 0.00079,-0.00396 0.00118,-0.00594c0.49029,-2.45145 2.94174,-1.96116 2.94174,-1.96116l2.5,0.5c7.5072,1.50245 13.64123,-0.02451 21.03288,-1.50265c4.34072,-0.86804 8.60133,-0.88168 12.87049,-1.97125c3.5342,-0.88355 7.22063,-2.19457 10.86,-2.56248c5.76548,-0.58284 11.70571,0.10891 17.47513,-0.49741c3.20407,-0.33672 6.34158,-1.18387 9.54727,-1.50483c3.06402,-0.30677 6.14554,-0.58584 9.22395,-0.50993c1.02392,0.02525 2.12425,0.57987 3.06739,0.18046c1.05422,-0.44644 1.71332,-1.54753 2.37197,-2.48394c3.15189,-4.48105 3.83949,-9.82883 3.18769,-15.09285c-1.14803,1.481 -2.09323,2.72605 -4.01517,3.63546c-4.3067,2.03781 -9.51061,2.28826 -14.1216,3.21232l-3.37704,-1.37133c0,0 -2.08013,-1.38675 -0.69338,-3.46688c1.38675,-2.08013 3.46688,-0.69338 3.46688,-0.69338l-0.37704,0.62867c4.21943,-0.84227 8.88176,-1.08241 12.8784,-2.78768c3.12259,-1.33234 5.88997,-6.69312 7.4077,-9.44051c1.32446,-2.39755 2.09877,-5.51007 0.1711,-7.54069c-1.26945,1.79062 -2.6767,3.4644 -4.19915,4.9881c-1.27265,1.2737 -3.70339,3.86972 -5.2751,4.52671c-1.99628,0.83446 -4.81793,0.70042 -6.99267,0.70553l-0.88197,0.73607c0,0 -2.23607,1.11803 -3.3541,-1.11803c-1.11803,-2.23607 1.11803,-3.3541 1.11803,-3.3541l3.11803,-1.26393c1.07018,0.0029 4.05727,0.09927 5.00733,-0.29447c2.57614,-1.06767 5.37015,-5.03627 6.99267,-7.20553c5.90003,-7.88812 9.08469,-20.08236 4.43443,-29.15285c-1.8862,4.6284 -4.33585,9.04807 -6.19836,12.77088c-1.73828,3.4745 -3.94486,9.39967 -7.47094,11.53822c-1.12245,0.68076 -2.56942,0.53982 -3.85413,0.80973l-0.911,0.03402c0,0 -2.5,0 -2.5,-2.5c0,-2.5 2.5,-2.5 2.5,-2.5l0.089,0.03402c3.37227,-0.29902 4.02912,-2.72366 5.73051,-5.75691c4.17112,-7.4363 9.10064,-16.49393 10.19542,-25.0499c0.5563,-4.34764 -0.99161,-12.45209 -6.61996,-8.65259c-0.49673,0.33532 -1.11163,0.55111 -1.47559,1.02725c-1.00633,1.31649 -1.50666,3.95129 -2.10968,5.35484c-1.33617,3.10999 -2.25495,5.85554 -3.48851,8.97177c-4.20345,10.48514 -9.79499,18.91925 -18.15389,26.43434c-2.81935,2.53475 -5.1995,5.874 -8.20553,8.16529c-3.56307,2.71588 -9.04807,2.8286 -12.33553,5.87067c-0.92422,0.85523 -1.51096,2.02629 -2.40434,2.9137c-2.61132,2.59387 -6.26201,4.57412 -9.24526,6.70483c-4.64046,3.47157 -9.76729,5.66759 -14.68713,8.62446c-3.25885,1.9586 -6.23594,4.404 -9.67861,6.09785c-2.73617,1.34624 -8.2084,3.20061 -10.88404,0.52277c-2.15621,-2.15798 -0.84219,-7.35171 -0.62971,-9.52821c0.70603,-7.23192 1.90747,-14.45979 1.90284,-21.73418c0,0 0,-1.39084 1.0374,-2.09772c-0.42971,-0.70024 -0.89935,-1.33714 -1.59042,-1.46421c-1.83942,-0.33823 -4.24158,1.59667 -6.49413,2.30233c-1.37123,10.90374 -1.95285,21.72442 -1.95285,32.75961v0.5c0,0 0,2.5 -2.5,2.5c-0.88977,0 -1.46286,-0.31667 -1.83199,-0.72461c-1.23197,0.06856 -2.47638,0.21597 -3.64247,-0.13266c-2.24572,-0.6714 -3.57618,-3.06649 -5.58987,-4.2661c-0.95465,-0.56871 -2.29443,-0.38637 -3.14745,-1.09852c-2.09987,-1.7531 -3.37172,-4.32607 -5.30599,-6.26034c-2.85837,-2.85837 -5.58727,-6.08074 -8.16559,-9.18279c-0.71629,-0.86179 -1.04062,-2.02623 -1.83441,-2.81721c-0.85135,-0.84832 -2.15016,-1.15016 -3,-2c-0.84984,-0.84984 -1.15016,-2.15016 -2,-3c-0.84984,-0.84984 -2.15564,-1.14472 -3,-2c-1.37831,-1.39613 -2.84351,-4.628 -4.16559,-6.18279c-2.71922,-3.19787 -5.57278,-6.69347 -9.03432,-9.04281c-0.38632,-1.07594 -0.56772,-2.24939 -1.15895,-3.22783c-0.48759,-0.80693 -1.52243,-1.18709 -2,-2c-1.06787,-1.81772 -0.89502,-4.2046 -2,-6c-0.49416,-0.80293 -1.52243,-1.18709 -2,-2c-1.50766,-2.56634 -1.30792,-6.6078 -3,-9c-0.85199,-1.20451 -2.1411,-2.03123 -3.17667,-3.08209c-0.63755,-0.64697 -1.00415,-1.65533 -1.84065,-2.00931c-1.34591,-0.56956 -2.91273,-0.30271 -4.34214,-0.6071c-1.31383,-0.27978 -2.54306,-0.90245 -3.86507,-1.14061c-0.95973,-0.17289 -1.95391,-0.17831 -2.92437,-0.08248c-0.49183,0.04857 -1.35635,0.01587 -1.39266,0.50876c-0.07395,1.00406 0.95237,1.80575 1.14946,2.79305c0.18486,0.926 -0.24003,1.91291 -0.02638,2.83269c0.97762,4.20863 2.18725,4.16862 4.45773,7.86272c2.50668,4.07839 4.36635,8.55274 6.83874,12.67177c1.46168,2.8453 3.52801,4.8688 5.32876,7.55153l0.41987,2.38675c0,0 0,2.5 -2.5,2.5c-2.5,0 -2.5,-2.5 -2.5,-2.5l0.41987,0.38675c-1.86002,-2.81205 -3.92798,-4.89522 -5.52628,-7.87354c-1.97521,-3.2933 -3.55128,-6.82476 -5.39567,-10.18417c-3.51995,2.36092 -3.58312,5.50451 -4.45016,9.71061c-1.14275,5.54362 -3.6171,12.68481 -1.35237,18.2999c2.16106,5.35806 7.51184,10.06802 11.96488,13.44601l2.6303,0.84274c0,0 2.37171,0.79057 1.58114,3.16228c-0.79057,2.37171 -3.16228,1.58114 -3.16228,1.58114l-3.3697,-1.15726c-4.20627,-3.12659 -8.95014,-7.1212 -12.06044,-11.80758c-1.21452,3.11627 -2.85265,6.66482 -2.23674,9.86737c0.74833,3.89107 3.01873,6.45121 5.98255,8.26645c0.65167,0.10657 1.08831,0.41059 1.38086,0.77015c4.88107,2.48346 11.1249,3.39347 15.65894,4.903c0.80063,0.26656 1.29979,1.18776 2.12096,1.38208c1.07547,0.2545 2.20942,-0.06395 3.31413,-0.09592h1c0,0 2.5,0 2.5,2.5c0,2.5 -2.5,2.5 -2.5,2.5h-1c-1.56196,-0.03197 -3.16161,0.24667 -4.68587,-0.09592c-0.97608,-0.21938 -1.62907,-1.21999 -2.57805,-1.5367c-1.48922,-0.49701 -3.11032,-0.47107 -4.62913,-0.86861c-2.7043,-0.70783 -5.6179,-1.61808 -8.40635,-2.83883c0.22268,2.05538 0.66269,4.15003 1.4749,5.60832c2.3565,4.23102 9.45699,6.54311 13.58225,7.84935c3.41336,1.08082 5.64094,2.10877 9.20085,2.59244c9.81815,1.33396 19.63214,-0.46569 29.40903,-0.66272c0.06956,-0.23009 0.14691,-0.45004 0.23707,-0.65221c-0.14345,-0.3987 -0.18222,-0.8928 -0.03006,-1.50146c0.60634,-2.42536 3.0317,-1.81902 3.0317,-1.81902c4.67175,1.19232 6.15643,0.9357 11.04242,-0.04227l3.33556,-0.03232c0,0 2.49995,-0.01568 2.51563,2.48428c0.00214,0.34207 -0.04281,0.63763 -0.12201,0.893c0.41229,0.23711 0.67762,0.54778 0.84549,0.87427c0.92869,0.4513 1.8945,0.7484 2.77658,0.7484c1.59511,0 3.01733,-0.96273 4.50441,-1.60063c0.03207,-0.46689 0.29759,-2.39937 2.49559,-2.39937c0.69109,0 1.19114,0.19104 1.55296,0.46751c0.35337,-0.23818 0.65647,-0.33922 0.65647,-0.33922zM168.87828,277.12691c0.33161,-0.58139 0.9539,-1.12691 2.12172,-1.12691c0.7687,0 1.30104,0.23636 1.6697,0.56373c0.06112,-1.55448 0.14,-3.11229 0.23865,-4.67085c-3.09283,-0.20399 -5.98052,-0.68845 -9.02103,-1.37313c0.19122,2.51048 0.43107,5.01726 0.66688,7.52675c1.42146,-0.4214 2.80603,-0.74972 4.32407,-0.9196zM171,282c-2.27317,-0.02823 -4.04821,0.46519 -5.99141,1.1164c0.21549,2.62479 0.38805,5.25721 0.45787,7.90454c0.02183,0.14851 0.03354,0.30793 0.03354,0.47906c0,0.11532 -0.00532,0.22531 -0.01547,0.33024c0.01013,0.55588 0.01547,1.11244 0.01547,1.66976v3c0,0 0,2.5 -2.5,2.5c-2.5,0 -2.5,-2.5 -2.5,-2.5v-2.4448c-0.26971,-0.00961 -0.53839,-0.03181 -0.80546,-0.07393c-1.12698,-0.17774 -2.13579,-1.15968 -3.26786,-1.01795c-0.91203,0.11418 -1.38347,1.22645 -2.17186,1.69896c-2.96549,1.77729 -6.72183,4.32501 -10.21999,5.17072c2.82014,0.69393 5.7471,0.96266 8.64834,1.09976l4.35075,0.06747c1.36508,0.01815 2.46609,1.13038 2.46609,2.49977c0,1.10334 -0.71475,2.03974 -1.70648,2.37144l0.67606,0.16901c0.0765,-0.00709 0.15302,-0.01451 0.22957,-0.02228c5.09992,-0.51783 6.24358,-5.45405 7.99116,-9.47488c0.5415,-1.24589 1.53851,-2.30194 1.87658,-3.61767c0.28422,-1.10616 -0.04459,-2.28375 -0.06688,-3.42562v-1c0,0 0,-2.5 2.5,-2.5c0.37189,0 0.68846,0.05532 0.95794,0.1495l0.54206,-0.6495c0.00004,-1.88697 0.02119,-3.7866 0.06718,-5.69405zM166.73588,249.88994l-2.77119,0.92373c-0.14474,0.52083 -0.34064,1.15256 -0.49697,2.08679c-0.3085,1.84365 -0.17224,3.98091 -0.06067,6.01698c2.0959,-0.14599 4.18421,-0.47324 6.24171,-0.88506l3.33556,-0.03232c0,0 0.68109,-0.00427 1.3345,0.34715c0.47847,-3.19882 1.06719,-6.36826 1.78406,-9.48507c-0.68167,-0.5149 -1.31118,-1.05646 -1.87065,-1.59436c0,0 -0.02401,-0.02401 -0.06363,-0.06922c-2.20083,0.41376 -3.93687,0.63453 -5.68828,0.6166c-0.1238,0.98428 -0.81985,1.79044 -1.74445,2.07479zM173.01568,262.99995l-2.85863,0.00652c-2.18298,0.43625 -4.4003,0.75758 -6.62485,0.90464c0.01218,0.468 0.02763,0.93568 0.046,1.40309c3.34013,0.80978 6.3809,1.39555 9.71473,1.60306c0.12347,-1.34451 0.26326,-2.6875 0.42067,-4.02731c-0.39463,0.10811 -0.69791,0.11001 -0.69791,0.11001zM187.60355,186.27513c1.34437,0.19205 1.85414,1.01005 2.03935,1.71729c1.27244,-0.43646 2.43847,-1.24154 3.69662,-1.77675c-0.75911,-0.85454 -1.33824,-2.07438 -1.89923,-3.00895c-0.68557,-1.14213 -0.43546,-2.65259 -0.94765,-3.88228c-0.32787,-0.78718 -1.181,-1.27371 -1.52492,-2.054c-0.38235,-0.86749 -0.30462,-1.87981 -0.60523,-2.77889c-0.16642,-0.49775 -0.33513,-0.9957 -0.50608,-1.49377l-0.08229,0.03284c-0.90327,0.44868 -1.80654,0.89735 -2.70981,1.34603c-1.40254,1.02173 -2.29036,2.60867 -3.38097,3.95835c-1.14524,1.41728 -2.89254,3.00435 -4.68998,4.28901c0.59334,0.96153 1.13099,1.95837 1.63082,2.97151c0.09829,0.19924 -0.06959,0.76023 0.1258,0.65451c0.31753,-0.17182 0.17375,-0.76846 0.46894,-0.97633c1.38972,-0.97863 2.81114,-2.93573 4.45088,-2.48817c1.50764,0.41151 2.23157,2.03221 3.0652,3.48455c0.25566,-0.03901 0.54384,-0.04131 0.86854,0.00508zM200.01777,187.98223c0.29159,0.31271 -0.34342,1.53048 0.00502,1.28269c0.82569,-0.58716 0.97704,-1.81625 1.7176,-2.50768c2.39096,-2.23237 5.62992,-3.14795 8.58113,-4.32843l1.81044,-0.91488c0,0 2.15277,-1.07639 3.28987,0.99543c0.71253,-0.50936 1.57816,-0.50936 1.57816,-0.50936h1c1.68745,0.01995 3.36066,-0.21777 5.02936,-0.56963c-0.77758,-0.34026 -1.47223,-0.69512 -2.03418,-1.0181c-2.83346,-1.62855 -5.28441,-3.81533 -7.88319,-5.77364c-2.4379,-2.50686 -4.79039,-3.96811 -8.362,-3.88863h-0.14178c-1.70852,4.26865 -3.84379,8.48083 -5.63231,12.63813c-0.65225,0.67605 -1.15383,1.71901 -1.74213,2.55081c1.07495,0.38297 2.00455,1.20739 2.78399,2.04329zM162.03624,173.60627l-0.28624,-0.35627c0,0 0.52228,0 1.0894,0.23872c0.21207,-2.81614 0.83176,-5.57784 2.30866,-8.09218c1.87058,-3.18456 6.58258,-5.75464 9.79059,-7.01122c0.71101,-0.2785 1.57214,-0.06039 2.25539,-0.40137c1.35276,-0.67509 2.47344,-1.73106 3.68745,-2.64006c-2.828,-6.32076 -5.95575,-12.49787 -9.30211,-18.35354c0,0 -1.24035,-2.17061 0.93026,-3.41096c2.17061,-1.24035 3.41096,0.93026 3.41096,0.93026c5.90353,10.33203 10.22492,21.25312 14.65058,32.31187c0.13764,0.34393 0.26948,0.69466 0.39714,1.05017c0.23083,0.23035 0.43863,0.53926 0.60286,0.94983c0.21927,0.54817 0.2573,1.01867 0.18746,1.41761c0.55036,1.72426 1.08572,3.45742 1.77361,4.99044c0.33323,0.74262 1.16192,1.19469 1.47508,1.946c0.21098,0.50618 0.40617,1.02544 0.5701,1.5539c1.57398,-3.46176 3.31268,-6.96348 4.67264,-10.50453c0.00539,-0.80126 0.26932,-1.34311 0.62381,-1.70954c0.16645,-0.48317 0.32429,-0.96706 0.47215,-1.45168c2.01061,-6.59005 3.7321,-13.57507 6.63484,-19.86305c2.05272,-4.44665 5.24707,-8.54326 8.31588,-12.38563c0.1294,-0.71614 0.61687,-2.06504 2.45324,-2.06504c2.5,0 2.5,2.5 2.5,2.5l-0.54783,2.06174c-2.96354,3.70369 -6.19231,7.6733 -8.18305,11.98759c-0.87703,1.90068 -1.63686,3.86867 -2.32744,5.87049c9.77124,-1.19832 18.336,6.23726 22.33892,15.05604c1.24606,2.74518 1.95866,5.48856 1.7194,8.52414c-0.05554,0.70466 0.03354,1.48753 0.0481,2.23947c1.04694,0.01742 2.11694,0.33365 3.12752,0.07741c1.44499,-0.36639 2.56583,-1.59331 4,-2c0.84039,-0.23831 1.79334,0.41244 2.61767,0.12342c0.5918,-0.20749 0.76358,-0.99725 1.18894,-1.45807c1.39205,-1.50805 2.54869,-3.21753 3.83441,-4.81721c2.77527,-3.45298 6.25677,-6.33272 8.90525,-9.8768c3.25169,-4.35127 2.86769,-10.25487 2.36372,-15.34563c-0.13978,-1.41196 -0.06724,-2.90837 -0.63404,-4.2091c-0.59623,-1.36829 -1.82828,-2.35971 -2.74243,-3.53957c-1.9525,-2.96252 -3.63202,-6.18749 -5.20494,-9.34555c-0.43395,-0.87127 -0.37871,-1.9502 -0.88083,-2.78405c-0.48637,-0.80768 -1.51493,-1.19155 -2,-2c-0.54233,-0.90387 -0.43009,-2.11325 -1,-3c-1.74319,-2.71229 -5.36436,-4.27914 -7.64114,-6.54657c-5.15983,-5.1386 -10.20701,-10.25955 -15.81721,-14.83441c-1.65637,-1.3507 -3.83945,-1.87909 -5.75084,-2.83541c-4.11691,-2.05979 -7.59356,-4.42627 -11.97852,-5.97132c-3.70063,-4.09391 -10.60382,-1.63515 -15.68567,-1.62663c-11.06679,0.01858 -23.01903,1.02522 -31.23224,9.26776c-1.52863,1.53409 -3.55097,2.67529 -4.64114,4.54657c-0.48812,0.83786 -0.43484,1.91049 -0.87596,2.77403c-2.07679,4.06549 -4.87801,7.75335 -6.94096,11.86835c-2.07939,6.27033 -2.77573,14.10787 -1.82843,20.73783c0.60333,4.22262 2.5482,8.48431 3.89044,12.51489c0.71641,2.1513 0.78139,4.53496 1.80379,6.55883c0.40287,0.79749 1.46207,1.10283 1.92079,1.86955c2.3919,3.99791 3.7612,8.59394 6.12741,12.6161c0.9117,0.6564 1.84921,1.27704 2.81254,1.85235z" fill="#000000" stroke-width="0.5"></path><path d="M190.47023,283.21018l0.08332,1.44254c0,0 0.04546,2.48923 2.54126,2.34443c2.4958,-0.14481 2.35306,-2.6562 2.35306,-2.6562l-0.1827,-3.2155c-0.78317,-4.67024 -0.73737,-9.36875 -0.63496,-14.05273c0.96971,0.13853 2.22875,0.40719 3.37183,0.57049c-0.60951,3.95983 -1.42841,7.8578 -1.46736,11.87716l0.00257,1.01296c0,0 -0.07562,2.43459 2.42438,2.43459c0.41537,0 0.76725,-0.07465 1.05606,-0.18974c0.51024,0.1841 0.9548,0.18005 0.9548,0.18005c5.10718,0 10.0138,0.72485 14.99629,0.94946c-2.43938,0.54513 -4.85749,1.35247 -6.2332,2.46291c-1.97449,1.59376 -4.60247,3.50539 -4.73664,6.03929c-0.09634,1.81941 2.49411,2.66752 4.15767,3.41056c2.21138,0.98773 5.5366,1.31058 8.65308,1.53315c-3.46875,1.08674 -6.91577,2.8666 -10.40805,3.64507l-2.58638,-0.8147c-0.25409,-0.087 -0.52962,-0.13401 -0.8132,-0.13401c-1.38071,0 -2.49594,1.01971 -2.49594,2.40042c0,1.1246 0.73694,2.0754 1.7585,2.38957l2.93767,0.98228l0.01001,-0.03013c0.04593,0.0254 0.09189,0.05035 0.13853,0.07473c0.07223,0.03775 0.14464,0.07359 0.21821,0.10751c-0.04994,0.01588 -0.0848,0.12911 -0.13583,0.14198c-3.33112,0.84032 -7.94036,-0.64343 -11.1022,-1.0382c-0.84908,-0.10601 -5.72841,0.44892 -6.05349,-1.49653c-0.49693,-2.97386 0.1788,-6.04211 0.1788,-9.05721c0,-3.82865 -0.35998,-6.7028 0.86622,-10.24292z" data-paper-data="{&quot;noHover&quot;:false,&quot;origItem&quot;:[&quot;Path&quot;,{&quot;applyMatrix&quot;:true,&quot;segments&quot;:[[[190.37171,284.29057],[0,0],[-1.2262,3.54012]],[[189.5,294.5],[0,-3.82865],[0,3.0151]],[[189.3097,303.54329],[-0.49693,-2.97386],[0.32508,1.94545]],[[195.35124,305.03237],[-0.84908,-0.10601],[3.16184,0.39477]],[[206.42562,306.06688],[-3.33112,0.84032],[0.05103,-0.01287]],[[206.57705,306.02368],[-0.04994,0.01588],[-0.07357,-0.03392]],[[206.35833,305.91625],[0.07223,0.03775],[-0.04664,-0.02438]],[[206.21948,305.84157],[0.04593,0.0254],[0,0]],[206.20943,305.87171],[[203.26412,304.88994],[0,0],[-1.02156,-0.31417]],[[201.5,302.5],[0,1.1246],[0,-1.38071]],[[204,300],[-1.38071,0],[0.28358,0]],[[204.81022,300.13422],[-0.25409,-0.087],[0,0]],[[207.38831,300.95048],[0,0],[3.49228,-0.77847]],[[217.76952,297.32384],[-3.46875,1.08674],[-3.11648,-0.22257]],[[209.18319,295.86281],[2.21138,0.98773],[-1.66356,-0.74304]],[[204.98582,292.36165],[-0.09634,1.81941],[0.13417,-2.5339]],[[209.68567,286.37338],[-1.97449,1.59376],[1.37571,-1.11044]],[[215.92001,283.91866],[-2.43938,0.54513],[-4.98249,-0.22461]],[[201,283],[5.10718,0],[0,0]],[[200.05053,282.8159],[0.51024,0.1841],[-0.28881,0.11509]],[[199,283],[0.41537,0],[-2.5,0]],[196.5,280.5],[[196.50005,279.48432],[0,0],[0.03895,-4.01936]],[[197.98832,267.59514],[-0.60951,3.95983],[-1.14308,-0.1633]],[[194.65069,267.11834],[0.96971,0.13853],[-0.10241,4.68398]],[[195.30645,281.15367],[-0.78317,-4.67024],[0,0]],[195.4958,284.3552],[[193.1448,286.99581],[2.4958,-0.14481],[-2.4958,0.1448]],[190.50419,284.64481],[190.42197,283.19713]],&quot;closed&quot;:true,&quot;fillColor&quot;:[0,0,0,1]}]}" fill="#ffde00" stroke-width="0.5"></path><path d="M198.52662,246.58819c0.02967,3.25168 0.17472,6.6492 0.20041,9.93849c-1.36591,-0.2194 -2.70784,-0.33937 -4.0621,-0.40606c-0.04726,-0.97371 -0.13684,-1.96073 -0.23363,-2.93407c-0.1719,-1.72866 -0.55066,-3.51585 -0.77993,-5.23781c0.61416,0.04749 1.12141,-0.12377 1.12141,-0.12377c1.23827,-0.41276 2.51556,-0.82403 3.75383,-1.23679z" data-paper-data="{&quot;noHover&quot;:false,&quot;origItem&quot;:[&quot;Path&quot;,{&quot;applyMatrix&quot;:true,&quot;segments&quot;:[[[198.50537,246.63344],[0,0],[-1.23827,0.41276]],[[194.79057,247.87171],[1.23827,-0.41276],[0,0]],[[193.68017,247.98963],[0.61416,0.04749],[0.22927,1.72196]],[[194.46802,253.1526],[-0.1719,-1.72866],[0.09679,0.97334]],[[194.68081,256.07321],[-0.04726,-0.97371],[1.35426,0.06669]],[[198.70432,256.48214],[-1.36591,-0.2194],[-0.02569,-3.28929]],[[198.50537,246.63345],[0.02967,3.25168],[0,0]]],&quot;closed&quot;:true,&quot;fillColor&quot;:[0,0,0,1]}]}" fill="#ffde00" stroke-width="0.5"></path><path d="M166.70176,249.85339c0.9246,-0.28435 1.64351,-1.10266 1.76731,-2.08694c1.75141,0.01793 3.52906,-0.19385 5.72989,-0.60761c0.03962,0.04521 0.06413,0.06961 0.06413,0.06961c0.55947,0.5379 1.19996,1.09142 1.88163,1.60632c-0.71687,3.11681 -1.3145,6.35126 -1.79297,9.55008c-0.65341,-0.35142 -1.3397,-0.34317 -1.3397,-0.34317l-3.36371,0.04071c-2.0575,0.41182 -4.18196,0.72317 -6.27786,0.86916c-0.11157,-2.03607 -0.26125,-4.20869 0.04725,-6.05234c0.15633,-0.93423 0.35566,-1.58294 0.5004,-2.10377l2.78364,-0.94205z" data-paper-data="{&quot;noHover&quot;:false,&quot;origItem&quot;:[&quot;Path&quot;,{&quot;applyMatrix&quot;:true,&quot;segments&quot;:[[166.73588,249.88994],[[163.96469,250.81367],[0,0],[-0.14474,0.52083]],[[163.46772,252.90046],[0.15633,-0.93423],[-0.3085,1.84365]],[[163.40705,258.91744],[-0.11157,-2.03607],[2.0959,-0.14599]],[[169.64876,258.03238],[-2.0575,0.41182],[0,0]],[172.98432,258.00006],[[174.31882,258.34721],[-0.65341,-0.35142],[0.47847,-3.19882]],[[176.10288,248.86214],[-0.71687,3.11681],[-0.68167,-0.5149]],[[174.23223,247.26778],[0.55947,0.5379],[0,0]],[[174.1686,247.19856],[0.03962,0.04521],[-2.20083,0.41376]],[[168.48032,247.81516],[1.75141,0.01793],[-0.1238,0.98428]],[[166.73587,249.88995],[0.9246,-0.28435],[0,0]]],&quot;closed&quot;:true,&quot;fillColor&quot;:[0,0,0,1]}]}" fill="#ffde00" stroke-width="0.5"></path><path d="M173.06156,262.98008c0,0 0.3039,-0.00041 0.69853,-0.10852c-0.15741,1.33981 -0.29778,2.72099 -0.42125,4.0655c-3.33383,-0.20751 -6.47035,-0.80902 -9.81048,-1.6188c-0.01837,-0.46741 -0.03306,-0.94871 -0.04524,-1.41671c2.22455,-0.14706 4.52239,-0.4977 6.70537,-0.93395l2.87307,0.01248z" data-paper-data="{&quot;noHover&quot;:false,&quot;origItem&quot;:[&quot;Path&quot;,{&quot;applyMatrix&quot;:true,&quot;segments&quot;:[[173.01568,262.99995],[[170.15705,263.00647],[0,0],[-2.18298,0.43625]],[[163.5322,263.91111],[2.22455,-0.14706],[0.01218,0.468]],[[163.5782,265.3142],[-0.01837,-0.46741],[3.34013,0.80978]],[[173.29293,266.91726],[-3.33383,-0.20751],[0.12347,-1.34451]],[[173.7136,262.88995],[-0.15741,1.33981],[-0.39463,0.10811]],[173.01569,262.99996]],&quot;closed&quot;:true,&quot;fillColor&quot;:[0,0,0,1]}]}" fill="#ffde00" stroke-width="0.5"></path><path d="M168.8866,277.1762c-1.51804,0.16988 -2.94667,0.48388 -4.36813,0.90528c-0.23581,-2.50949 -0.47833,-5.08328 -0.66955,-7.59376c3.04051,0.68468 6.01077,1.17776 9.1036,1.38175c-0.09865,1.55856 -0.1776,3.16333 -0.23872,4.71781c-0.36866,-0.32737 -0.90337,-0.55974 -1.67207,-0.55974c-1.16782,0 -1.82352,0.56729 -2.15513,1.14868z" data-paper-data="{&quot;noHover&quot;:false,&quot;origItem&quot;:[&quot;Path&quot;,{&quot;applyMatrix&quot;:true,&quot;segments&quot;:[[[168.87828,277.12691],[0,0],[0.33161,-0.58139]],[[171,276],[-1.16782,0],[0.7687,0]],[[172.6697,276.56373],[-0.36866,-0.32737],[0.06112,-1.55448]],[[172.90835,271.89288],[-0.09865,1.55856],[-3.09283,-0.20399]],[[163.88732,270.51975],[3.04051,0.68468],[0.19122,2.51048]],[[164.5542,278.0465],[-0.23581,-2.50949],[1.42146,-0.4214]],[[168.87827,277.1269],[-1.51804,0.16988],[0,0]]],&quot;closed&quot;:true,&quot;fillColor&quot;:[0,0,0,1]}]}" fill="#ffde00" stroke-width="0.5"></path><path d="M172.604,279.77211c-0.04599,1.90745 -0.05964,3.81776 -0.05968,5.70473l-0.63116,0.69488c-0.26948,-0.09418 -0.58516,-0.14778 -0.95705,-0.14778c-2.5,0 -2.41023,2.45617 -2.41023,2.45617l0.00153,1.00398c0.02229,1.14187 0.3537,2.33538 0.06948,3.44154c-0.33807,1.31573 -1.33917,2.39158 -1.88067,3.63747c-1.74758,4.02083 -2.93563,8.98722 -8.03555,9.50505c-0.07655,0.00777 -0.15395,0.01521 -0.23045,0.0223l-0.67474,-0.26897c0.99173,-0.3317 1.69889,-1.26782 1.69889,-2.37116c0,-1.36939 -1.10313,-2.38254 -2.46821,-2.40069l-4.37171,-0.07593c-2.90124,-0.1371 -5.84449,-0.42497 -8.66463,-1.1189c3.49816,-0.84571 7.25356,-3.39548 10.21905,-5.17277c0.78839,-0.47251 1.25578,-1.60345 2.16781,-1.71763c1.13207,-0.14173 2.15105,0.8089 3.27803,0.98664c0.26707,0.04212 0.62003,0.11744 0.88974,0.12705l-0.01827,2.46451c0,0 -0.05677,2.41785 2.44323,2.41785c2.5,0 2.48581,-2.48269 2.48581,-2.48269l-0.00506,-2.98175c0,-0.55732 -0.00493,-1.10237 -0.01506,-1.65825c0.01015,-0.10493 0.01585,-0.21274 0.01585,-0.32806c0,-0.17113 -0.01099,-0.32742 -0.03282,-0.47593c-0.06982,-2.64733 -0.22228,-5.25131 -0.43777,-7.8761c1.9432,-0.65121 3.78437,-1.21851 6.05754,-1.19028z" data-paper-data="{&quot;noHover&quot;:false,&quot;origItem&quot;:[&quot;Path&quot;,{&quot;applyMatrix&quot;:true,&quot;segments&quot;:[[[171,282],[0,0],[-2.27317,-0.02823]],[[165.00859,283.1164],[1.9432,-0.65121],[0.21549,2.62479]],[[165.46646,291.02094],[-0.06982,-2.64733],[0.02183,0.14851]],[[165.5,291.5],[0,-0.17113],[0,0.11532]],[[165.48453,291.83024],[0.01015,-0.10493],[0.01013,0.55588]],[[165.5,293.5],[0,-0.55732],[0,0]],[165.5,296.5],[[163,299],[2.5,0],[-2.5,0]],[160.5,296.5],[[160.5,294.0552],[0,0],[-0.26971,-0.00961]],[[159.69454,293.98127],[0.26707,0.04212],[-1.12698,-0.17774]],[[156.42668,292.96332],[1.13207,-0.14173],[-0.91203,0.11418]],[[154.25482,294.66228],[0.78839,-0.47251],[-2.96549,1.77729]],[[144.03483,299.833],[3.49816,-0.84571],[2.82014,0.69393]],[[152.68317,300.93276],[-2.90124,-0.1371],[0,0]],[[157.03392,301.00023],[0,0],[1.36508,0.01815]],[[159.50001,303.5],[0,-1.36939],[0,1.10334]],[[157.79353,305.87144],[0.99173,-0.3317],[0,0]],[[158.46959,306.04045],[0,0],[0.0765,-0.00709]],[[158.69916,306.01817],[-0.07655,0.00777],[5.09992,-0.51783]],[[166.69032,296.54329],[-1.74758,4.02083],[0.5415,-1.24589]],[[168.5669,292.92562],[-0.33807,1.31573],[0.28422,-1.10616]],[[168.50002,289.5],[0.02229,1.14187],[0,0]],[168.50002,288.5],[[171.00002,286],[-2.5,0],[0.37189,0]],[[171.95796,286.1495],[-0.26948,-0.09418],[0,0]],[[172.50002,285.5],[0,0],[0.00004,-1.88697]],[[172.5672,279.80595],[-0.04599,1.90745],[0,0]]],&quot;closed&quot;:true,&quot;fillColor&quot;:[0,0,0,1]}]}" fill="#ffde00" stroke-width="0.5"></path><path d="M193.2037,243.178c0,0 -0.30373,0.10096 -0.6571,0.33914c-0.36182,-0.27647 -0.86352,-0.46775 -1.55461,-0.46775c-2.198,0 -2.46553,1.93211 -2.4976,2.399c-1.48708,0.6379 -2.91302,1.59972 -4.50813,1.59972c-0.88208,0 -1.85045,-0.2979 -2.77914,-0.7492c-0.16787,-0.32649 -0.43416,-0.6375 -0.84645,-0.87461c0.0792,-0.25537 0.12398,-0.55099 0.12184,-0.89306c-0.01568,-2.49996 -2.51856,-2.48548 -2.51856,-2.48548l-3.33817,0.03107c-4.88599,0.97797 -6.37781,1.2301 -11.04956,0.03778c0,0 -2.36436,-0.68557 -2.9707,1.73979c-0.15216,0.60866 -0.11399,1.10229 0.02946,1.50099c-0.09016,0.20217 -0.22804,0.50172 -0.2976,0.73181c-9.77689,0.19703 -19.60056,1.98699 -29.41871,0.65303c-3.55991,-0.48367 -5.78987,-1.51507 -9.20323,-2.59589c-4.12526,-1.30624 -11.22907,-3.62451 -13.58557,-7.85553c-0.81221,-1.45829 -1.25334,-3.55562 -1.47602,-5.611c2.78845,1.22075 5.79427,2.09246 8.49857,2.80029c1.51881,0.39754 3.13925,0.37021 4.62847,0.86722c0.94898,0.31671 1.60131,1.31602 2.57739,1.5354c1.52426,0.34259 3.12325,0.06274 4.68521,0.09471l0.99985,-0.00026c0,0 2.41294,0.04919 2.41294,-2.45081c0,-2.5 -2.50101,-2.5019 -2.50101,-2.5019l-1.00013,-0.00025c-1.10471,0.03197 -2.23902,0.34967 -3.31449,0.09517c-0.82117,-0.19432 -1.32086,-1.11668 -2.12149,-1.38324c-4.53404,-1.50953 -10.77984,-2.42476 -15.66091,-4.90822c-0.29255,-0.35956 -0.72936,-0.66414 -1.38103,-0.77071c-2.96382,-1.81524 -5.23538,-4.37996 -5.98371,-8.27103c-0.61591,-3.20255 1.12095,-6.76629 2.33547,-9.88256c3.1103,4.68638 7.85286,8.67375 12.05913,11.80034l3.3694,1.15615c0,0 2.27539,0.81744 3.06596,-1.55427c0.79057,-2.37171 -1.58165,-3.16431 -1.58165,-3.16431l-2.63048,-0.84355c-4.45304,-3.37799 -9.80486,-8.0961 -11.96592,-13.45416c-2.26473,-5.61509 0.21011,-12.76589 1.35286,-18.30951c0.86704,-4.2061 0.93133,-7.35512 4.45128,-9.71604c1.84439,3.35941 3.51817,6.91155 5.49338,10.20485c1.5983,2.97832 3.66676,5.05714 5.52678,7.86919l-0.41989,-0.38653c0,0 -0.0998,2.49392 2.4002,2.49392c2.5,0 2.50011,-2.50175 2.50011,-2.50175l-0.41972,-2.38831c-1.80075,-2.68273 -3.86643,-4.71042 -5.32811,-7.55572c-2.47239,-4.11903 -4.33051,-8.59926 -6.83719,-12.67765c-2.27048,-3.6941 -3.47905,-3.65699 -4.45667,-7.86562c-0.21365,-0.91978 0.21175,-1.90792 0.02689,-2.83392c-0.19709,-0.9873 -1.22299,-1.78994 -1.14904,-2.794c0.03631,-0.49289 0.90105,-0.46066 1.39288,-0.50923c0.97046,-0.09583 1.9649,-0.09095 2.92463,0.08194c1.32201,0.23816 2.55139,0.86052 3.86522,1.1403c1.42941,0.30439 2.99657,0.03686 4.34248,0.60642c0.8365,0.35398 1.29239,1.40737 1.92994,2.05434c1.03557,1.05086 2.32504,1.87685 3.17703,3.08136c1.69208,2.3922 1.49408,6.42955 3.00174,8.99589c0.47757,0.81291 1.50611,1.19632 2.00027,1.99925c1.10498,1.7954 0.93319,4.17889 2.00106,5.99661c0.47757,0.81291 1.51267,1.19208 2.00026,1.99901c0.59123,0.97844 0.77312,2.14979 1.15944,3.22573c3.46154,2.34934 6.31599,5.83871 9.03521,9.03658c1.32208,1.55479 2.78741,4.78099 4.16572,6.17712c0.84436,0.85528 2.15004,1.148 2.99988,1.99784c0.84984,0.84984 1.14979,2.14683 1.99963,2.99667c0.84984,0.84984 2.14819,1.149 2.99954,1.99732c0.79379,0.79098 1.11728,1.9519 1.83357,2.81369c2.57832,3.10205 5.30153,6.31145 8.1599,9.16982c1.93427,1.93427 3.1997,4.49897 5.29957,6.25207c0.85302,0.71215 2.18995,0.52707 3.1446,1.09578c2.01369,1.19961 3.33663,3.58918 5.58235,4.26058c1.16609,0.34863 2.40661,0.19912 3.63858,0.13056c0.36913,0.40794 0.93973,0.72349 1.8295,0.72349c2.5,0 2.46329,-2.407 2.46329,-2.407l-0.00025,-0.50009c0,-11.03519 0.55097,-21.91556 1.9222,-32.8193c2.25255,-0.70566 4.67687,-2.67027 6.51629,-2.33204c0.69107,0.12707 1.20574,0.85288 1.63545,1.55312c-1.0374,0.70688 -1.01204,2.07471 -1.01204,2.07471c0.00463,7.27439 -1.23075,14.43005 -1.93678,21.66197c-0.21248,2.1765 -1.53072,7.36953 0.62549,9.52751c2.67564,2.67784 8.12991,0.82453 10.86608,-0.52171c3.44267,-1.69385 6.40235,-4.13121 9.6612,-6.08981c4.91984,-2.95687 10.03064,-5.13352 14.6711,-8.60509c2.98325,-2.13071 6.63018,-4.09946 9.2415,-6.69333c0.89338,-0.88741 1.47952,-2.0547 2.40374,-2.90993c3.28746,-3.04207 8.77212,-3.14823 12.33519,-5.86411c3.00603,-2.29129 5.38666,-5.62429 8.20601,-8.15904c8.3589,-7.51509 13.95405,-15.93631 18.1575,-26.42145c1.23356,-3.11623 2.15387,-5.85856 3.49004,-8.96855c0.60302,-1.40355 1.10425,-4.0367 2.11058,-5.35319c0.36396,-0.47614 1.06579,-0.74136 1.56252,-1.07668c5.62835,-3.7995 7.17859,4.30957 6.62229,8.65721c-1.09478,8.55597 -6.02103,17.62397 -10.19215,25.06027c-1.70139,3.03325 -2.35777,5.46067 -5.73004,5.75969l-0.089,-0.03405c0,0 -2.49983,0.00136 -2.49983,2.50136c0,2.5 2.50017,2.50172 2.50017,2.50172l0.81131,-0.02619c1.28471,-0.26991 2.7317,-0.12867 3.85415,-0.80943c3.52608,-2.13855 5.73348,-8.05797 7.47176,-11.53247c1.86251,-3.72281 4.40877,-8.16769 6.29497,-12.79609c4.65026,9.07049 1.46797,21.27878 -4.43206,29.1669c-1.62252,2.16926 -4.4166,6.14192 -6.99274,7.20959c-0.95006,0.39374 -3.93717,0.29772 -5.00735,0.29482l-3.1181,1.26486c0,0 -2.23629,1.12022 -1.11826,3.35629c1.11803,2.23606 3.25496,1.10498 3.25496,1.10498l0.8819,-0.73556c2.17474,-0.00511 4.99629,0.12981 6.99257,-0.70465c1.57171,-0.65699 4.00223,-3.25032 5.27488,-4.52402c1.52245,-1.5237 3.02963,-3.19481 4.29908,-4.98543c1.92767,2.03062 1.15321,5.14698 -0.17125,7.54453c-1.51773,2.74739 -4.28582,8.11355 -7.40841,9.44589c-3.99664,1.70527 -8.65966,1.94853 -12.87909,2.7908l0.28003,-0.65295c0,0 -1.98326,-1.36196 -3.37001,0.71817c-1.38675,2.08013 0.69282,3.46882 0.69282,3.46882l3.28158,1.34154c4.61099,-0.92406 9.81389,-1.17081 14.12059,-3.20862c1.92194,-0.90941 2.96502,-2.13411 4.11305,-3.61511c0.6518,5.26402 -0.03781,10.61934 -3.1897,15.10039c-0.65865,0.93641 -1.31831,2.039 -2.37253,2.48544c-0.94314,0.39941 -2.04365,-0.15475 -3.06757,-0.18c-3.07841,-0.07591 -6.16081,0.20523 -9.22483,0.512c-3.20569,0.32096 -6.3447,1.17114 -9.54877,1.50786c-5.76942,0.60632 -11.71327,-0.07967 -17.47875,0.50317c-3.63937,0.36791 -7.33057,1.68456 -10.86477,2.56811c-4.26916,1.08957 -8.53773,1.10979 -12.87845,1.97783c-7.39165,1.47814 -13.54538,3.01282 -21.05258,1.51037l-2.50272,-0.49964c0,0 -2.4549,-0.49005 -2.94519,1.9614c-0.00039,0.00198 -0.00079,0.00396 -0.00118,0.00594c-2.36265,0.78755 -4.73279,1.57481 -7.09544,2.36236z" data-paper-data="{&quot;noHover&quot;:false,&quot;origItem&quot;:[&quot;Path&quot;,{&quot;applyMatrix&quot;:true,&quot;segments&quot;:[[[193.20943,243.12829],[0,0],[2.36265,-0.78755]],[[200.29737,240.76564],[-2.36265,0.78755],[0.00039,-0.00198]],[[200.29855,240.7597],[-0.00039,0.00198],[0.49029,-2.45145]],[203.24029,238.79854],[[205.74029,239.29854],[0,0],[7.5072,1.50245]],[[226.77317,237.79589],[-7.39165,1.47814],[4.34072,-0.86804]],[[239.64366,235.82464],[-4.26916,1.08957],[3.5342,-0.88355]],[[250.50366,233.26216],[-3.63937,0.36791],[5.76548,-0.58284]],[[267.97879,232.76475],[-5.76942,0.60632],[3.20407,-0.33672]],[[277.52606,231.25992],[-3.20569,0.32096],[3.06402,-0.30677]],[[286.75001,230.74999],[-3.07841,-0.07591],[1.02392,0.02525]],[[289.8174,230.93045],[-0.94314,0.39941],[1.05422,-0.44644]],[[292.18937,228.44651],[-0.65865,0.93641],[3.15189,-4.48105]],[[295.37706,213.35366],[0.6518,5.26402],[-1.14803,1.481]],[[291.36189,216.98912],[1.92194,-0.90941],[-4.3067,2.03781]],[[277.24029,220.20144],[4.61099,-0.92406],[0,0]],[273.86325,218.83011],[[273.16987,215.36323],[-1.38675,2.08013],[1.38675,-2.08013]],[276.63675,214.66985],[[276.25971,215.29852],[0,0],[4.21943,-0.84227]],[[289.13811,212.51084],[-3.99664,1.70527],[3.12259,-1.33234]],[[296.54581,203.07033],[-1.51773,2.74739],[1.32446,-2.39755]],[[296.71691,195.52964],[1.92767,2.03062],[-1.26945,1.79062]],[[292.51776,200.51774],[1.52245,-1.5237],[-1.27265,1.2737]],[[287.24266,205.04445],[1.57171,-0.65699],[-1.99628,0.83446]],[[280.24999,205.74998],[2.17474,-0.00511],[0,0]],[279.36802,206.48605],[[276.01392,205.36802],[1.11803,2.23606],[-1.11803,-2.23607]],[277.13195,202.01392],[[280.24998,200.74999],[0,0],[1.07018,0.0029]],[[285.25731,200.45552],[-0.95006,0.39374],[2.57614,-1.06767]],[[292.24998,193.24999],[-1.62252,2.16926],[5.90003,-7.88812]],[[296.68441,164.09714],[4.65026,9.07049],[-1.8862,4.6284]],[[290.48605,176.86802],[1.86251,-3.72281],[-1.73828,3.4745]],[[283.01511,188.40624],[3.52608,-2.13855],[-1.12245,0.68076]],[[279.16098,189.21597],[1.28471,-0.26991],[0,0]],[278.24998,189.24999],[[275.74998,186.74999],[0,2.5],[0,-2.5]],[278.24998,184.24999],[[278.33898,184.28401],[0,0],[3.37227,-0.29902]],[[284.06949,178.5271],[-1.70139,3.03325],[4.17112,-7.4363]],[[294.26491,153.4772],[-1.09478,8.55597],[0.5563,-4.34764]],[[287.64495,144.82461],[5.62835,-3.7995],[-0.49673,0.33532]],[[286.16936,145.85186],[0.36396,-0.47614],[-1.00633,1.31649]],[[284.05968,151.2067],[0.60302,-1.40355],[-1.33617,3.10999]],[[280.57117,160.17847],[1.23356,-3.11623],[-4.20345,10.48514]],[[262.41728,186.61281],[8.3589,-7.51509],[-2.81935,2.53475]],[[254.21175,194.7781],[3.00603,-2.29129],[-3.56307,2.71588]],[[241.87622,200.64877],[3.28746,-3.04207],[-0.92422,0.85523]],[[239.47188,203.56247],[0.89338,-0.88741],[-2.61132,2.59387]],[[230.22662,210.2673],[2.98325,-2.13071],[-4.64046,3.47157]],[[215.53949,218.89176],[4.91984,-2.95687],[-3.25885,1.9586]],[[205.86088,224.98961],[3.44267,-1.69385],[-2.73617,1.34624]],[[194.97684,225.51238],[2.67564,2.67784],[-2.15621,-2.15798]],[[194.34713,215.98417],[-0.21248,2.1765],[0.70603,-7.23192]],[[196.24997,194.24999],[0.00463,7.27439],[0,0]],[[197.28737,192.15227],[-1.0374,0.70688],[-0.42971,-0.70024]],[[195.69695,190.68806],[0.69107,0.12707],[-1.83942,-0.33823]],[[189.20282,192.99039],[2.25255,-0.70566],[-1.37123,10.90374]],[[187.24997,225.75],[0,-11.03519],[0,0]],[187.24997,226.25],[[184.74997,228.75],[2.5,0],[-0.88977,0]],[[182.91798,228.02539],[0.36913,0.40794],[-1.23197,0.06856]],[[179.27551,227.89273],[1.16609,0.34863],[-2.24572,-0.6714]],[[173.68564,223.62663],[2.01369,1.19961],[-0.95465,-0.56871]],[[170.53819,222.52811],[0.85302,0.71215],[-2.09987,-1.7531]],[[165.2322,216.26777],[1.93427,1.93427],[-2.85837,-2.85837]],[[157.06661,207.08498],[2.57832,3.10205],[-0.71629,-0.86179]],[[155.2322,204.26777],[0.79379,0.79098],[-0.85135,-0.84832]],[[152.2322,202.26777],[0.84984,0.84984],[-0.84984,-0.84984]],[[150.2322,199.26777],[0.84984,0.84984],[-0.84984,-0.84984]],[[147.2322,197.26777],[0.84436,0.85528],[-1.37831,-1.39613]],[[143.06661,191.08498],[1.32208,1.55479],[-2.71922,-3.19787]],[[134.03229,182.04217],[3.46154,2.34934],[-0.38632,-1.07594]],[[132.87334,178.81434],[0.59123,0.97844],[-0.48759,-0.80693]],[[130.87334,176.81434],[0.47757,0.81291],[-1.06787,-1.81772]],[[128.87334,170.81434],[1.10498,1.7954],[-0.49416,-0.80293]],[[126.87334,168.81434],[0.47757,0.81291],[-1.50766,-2.56634]],[[123.87334,159.81434],[1.69208,2.3922],[-0.85199,-1.20451]],[[120.69667,156.73225],[1.03557,1.05086],[-0.63755,-0.64697]],[[118.85602,154.72294],[0.8365,0.35398],[-1.34591,-0.56956]],[[114.51388,154.11584],[1.42941,0.30439],[-1.31383,-0.27978]],[[110.64881,152.97523],[1.32201,0.23816],[-0.95973,-0.17289]],[[107.72444,152.89275],[0.97046,-0.09583],[-0.49183,0.04857]],[[106.33178,153.40151],[0.03631,-0.49289],[-0.07395,1.00406]],[[107.48124,156.19456],[-0.19709,-0.9873],[0.18486,0.926]],[[107.45486,159.02725],[-0.21365,-0.91978],[0.97762,4.20863]],[[111.91259,166.88997],[-2.27048,-3.6941],[2.50668,4.07839]],[[118.75133,179.56174],[-2.47239,-4.11903],[1.46168,2.8453]],[[124.08009,187.11327],[-1.80075,-2.68273],[0,0]],[124.49996,189.50002],[[121.99996,192.00002],[2.5,0],[-2.5,0]],[119.49996,189.50002],[[119.91983,189.88677],[0,0],[-1.86002,-2.81205]],[[114.39355,182.01323],[1.5983,2.97832],[-1.97521,-3.2933]],[[108.99788,171.82906],[1.84439,3.35941],[-3.51995,2.36092]],[[104.54772,181.53967],[0.86704,-4.2061],[-1.14275,5.54362]],[[103.19535,199.83957],[-2.26473,-5.61509],[2.16106,5.35806]],[[115.16023,213.28558],[-4.45304,-3.37799],[0,0]],[117.79053,214.12832],[[119.37167,217.2906],[0.79057,-2.37171],[-0.79057,2.37171]],[116.20939,218.87174],[[112.83969,217.71448],[0,0],[-4.20627,-3.12659]],[[100.77925,205.9069],[3.1103,4.68638],[-1.21452,3.11627]],[[98.54251,215.77427],[-0.61591,-3.20255],[0.74833,3.89107]],[[104.52506,224.04072],[-2.96382,-1.81524],[0.65167,0.10657]],[[105.90592,224.81087],[-0.29255,-0.35956],[4.88107,2.48346]],[[121.56486,229.71387],[-4.53404,-1.50953],[0.80063,0.26656]],[[123.68582,231.09595],[-0.82117,-0.19432],[1.07547,0.2545]],[[126.99995,231.00003],[-1.10471,0.03197],[0,0]],[127.99995,231.00003],[[130.49995,233.50003],[0,-2.5],[0,2.5]],[127.99995,236.00003],[[126.99995,236.00003],[0,0],[-1.56196,-0.03197]],[[122.31408,235.90411],[1.52426,0.34259],[-0.97608,-0.21938]],[[119.73603,234.36741],[0.94898,0.31671],[-1.48922,-0.49701]],[[115.1069,233.4988],[1.51881,0.39754],[-2.7043,-0.70783]],[[106.70055,230.65997],[2.78845,1.22075],[0.22268,2.05538]],[[108.17545,236.26829],[-0.81221,-1.45829],[2.3565,4.23102]],[[121.7577,244.11764],[-4.12526,-1.30624],[3.41336,1.08082]],[[130.95855,246.71008],[-3.55991,-0.48367],[9.81815,1.33396]],[[160.36758,246.04736],[-9.77689,0.19703],[0.06956,-0.23009]],[[160.60465,245.39515],[-0.09016,0.20217],[-0.14345,-0.3987]],[[160.57459,243.89369],[-0.15216,0.60866],[0.60634,-2.42536]],[[163.60629,242.07467],[0,0],[4.67175,1.19232]],[[174.64871,242.0324],[-4.88599,0.97797],[0,0]],[177.98427,242.00008],[[180.4999,244.48436],[-0.01568,-2.49996],[0.00214,0.34207]],[[180.37789,245.37736],[0.0792,-0.25537],[0.41229,0.23711]],[[181.22338,246.25163],[-0.16787,-0.32649],[0.92869,0.4513]],[[183.99996,247.00003],[-0.88208,0],[1.59511,0]],[[188.50437,245.3994],[-1.48708,0.6379],[0.03207,-0.46689]],[[190.99996,243.00003],[-2.198,0],[0.69109,0]],[[192.55292,243.46754],[-0.36182,-0.27647],[0.35337,-0.23818]],[193.20939,243.12832]],&quot;closed&quot;:true,&quot;fillColor&quot;:[0,0,0,1]}]}" fill="#864100" stroke-width="0.5"></path><path d="M199.97846,188.01316c-0.77944,-0.8359 -1.7152,-1.6704 -2.79015,-2.05337c0.5883,-0.8318 1.08746,-1.88117 1.73971,-2.55722c1.78852,-4.1573 3.94607,-8.42688 5.65459,-12.69553l0.14227,-0.00029c3.57161,-0.07948 5.97341,1.38127 8.41131,3.88813c2.59878,1.95831 5.07548,4.19063 7.90894,5.81918c0.56195,0.32298 1.25634,0.68147 2.03392,1.02173c-1.6687,0.35186 -3.34312,0.59634 -5.03057,0.57639l-1.00044,0.00165c0,0 -0.86843,0.00744 -1.58096,0.5168c-1.1371,-2.07182 -3.29504,-0.98681 -3.29504,-0.98681l-1.84659,0.93484c-2.95121,1.18048 -6.2331,2.07751 -8.62406,4.30988c-0.74056,0.69143 -0.88982,1.92296 -1.71551,2.51012c-0.34844,0.24779 0.28418,-0.9728 -0.00741,-1.28551z" data-paper-data="{&quot;noHover&quot;:false,&quot;origItem&quot;:[&quot;Path&quot;,{&quot;applyMatrix&quot;:true,&quot;segments&quot;:[[[200.01777,187.98223],[0,0],[0.29159,0.31271]],[[200.02279,189.26492],[-0.34844,0.24779],[0.82569,-0.58716]],[[201.74039,186.75724],[-0.74056,0.69143],[2.39096,-2.23237]],[[210.32152,182.42881],[-2.95121,1.18048],[0,0]],[212.13196,181.51393],[[215.42183,182.50936],[-1.1371,-2.07182],[0.71253,-0.50936]],[216.99999,182],[[217.99999,182],[0,0],[1.68745,0.01995]],[[223.02935,181.43037],[-1.6687,0.35186],[-0.77758,-0.34026]],[[220.99517,180.41227],[0.56195,0.32298],[-2.83346,-1.62855]],[[213.11198,174.63863],[2.59878,1.95831],[-2.4379,-2.50686]],[[204.74998,170.75],[3.57161,-0.07948],[0,0]],[[204.6082,170.75],[0,0],[-1.70852,4.26865]],[[198.97589,183.38813],[1.78852,-4.1573],[-0.65225,0.67605]],[[197.23376,185.93894],[0.5883,-0.8318],[1.07495,0.38297]],[[200.01775,187.98223],[-0.77944,-0.8359],[0,0]]],&quot;closed&quot;:true,&quot;fillColor&quot;:[0,0,0],&quot;strokeWidth&quot;:0.5}]}" fill="#cd894a" stroke-width="0.25"></path><path d="M187.62297,186.32124c-0.3247,-0.04639 -0.6192,-0.04191 -0.87486,-0.0029c-0.83363,-1.45234 -1.59802,-3.07944 -3.10566,-3.49095c-1.63974,-0.44756 -2.99483,1.43637 -4.38455,2.415c-0.29519,0.20787 -0.22761,0.86921 -0.54514,1.04103c-0.19539,0.10572 -0.02972,-0.45791 -0.12801,-0.65715c-0.49983,-1.01314 -1.04643,-2.02812 -1.63977,-2.98965c1.79744,-1.28466 3.55063,-2.91069 4.69587,-4.32797c1.09061,-1.34968 2.02009,-2.96026 3.42263,-3.98199c0.90327,-0.44868 1.82386,-0.89456 2.72713,-1.34324l0.08269,-0.0327c0.17095,0.49807 0.34627,0.99895 0.51269,1.4967c0.30061,0.89908 0.23751,1.92319 0.61986,2.79068c0.34392,0.78029 1.20776,1.28843 1.53563,2.07561c0.51219,1.22969 0.25914,2.77072 0.94471,3.91285c0.56099,0.93457 1.13519,2.16324 1.8943,3.01778c-1.25815,0.53521 -2.43951,1.35455 -3.71195,1.79101c-0.18521,-0.70724 -0.70119,-1.5221 -2.04556,-1.71415z" data-paper-data="{&quot;noHover&quot;:false,&quot;origItem&quot;:[&quot;Path&quot;,{&quot;applyMatrix&quot;:true,&quot;segments&quot;:[[[187.60355,186.27513],[0,0],[1.34437,0.19205]],[[189.6429,187.99242],[-0.18521,-0.70724],[1.27244,-0.43646]],[[193.33952,186.21567],[-1.25815,0.53521],[-0.75911,-0.85454]],[[191.44029,183.20672],[0.56099,0.93457],[-0.68557,-1.14213]],[[190.49264,179.32444],[0.51219,1.22969],[-0.32787,-0.78718]],[[188.96772,177.27044],[0.34392,0.78029],[-0.38235,-0.86749]],[[188.36249,174.49155],[0.30061,0.89908],[-0.16642,-0.49775]],[[187.85641,172.99778],[0.17095,0.49807],[0,0]],[[187.77412,173.03062],[0,0],[-0.90327,0.44868]],[[185.06431,174.37665],[0.90327,-0.44868],[-1.40254,1.02173]],[[181.68334,178.335],[1.09061,-1.34968],[-1.14524,1.41728]],[[176.99336,182.62401],[1.79744,-1.28466],[0.59334,0.96153]],[[178.62418,185.59552],[-0.49983,-1.01314],[0.09829,0.19924]],[[178.74998,186.25003],[-0.19539,0.10572],[0.31753,-0.17182]],[[179.21892,185.2737],[-0.29519,0.20787],[1.38972,-0.97863]],[[183.6698,182.78553],[-1.63974,-0.44756],[1.50764,0.41151]],[[186.735,186.27008],[-0.83363,-1.45234],[0.25566,-0.03901]],[[187.60354,186.27516],[-0.3247,-0.04639],[0,0]]],&quot;closed&quot;:true,&quot;fillColor&quot;:[0,0,0],&quot;strokeWidth&quot;:0.5}]}" fill="#cd894a" stroke-width="0.25"></path></g></g></svg>