<svg version="1.1" xmlns="http://www.w3.org/2000/svg" xmlns:xlink="http://www.w3.org/1999/xlink" width="138.2047" height="113.23481" viewBox="0,0,138.2047,113.23481"><g transform="translate(-112.0356,-139.76519)"><g data-paper-data="{&quot;isPaintingLayer&quot;:true}" fill-rule="nonzero" stroke="none" stroke-width="0.5" stroke-linecap="butt" stroke-linejoin="miter" stroke-miterlimit="10" stroke-dasharray="" stroke-dashoffset="0" style="mix-blend-mode: normal"><path d="M188.79057,221.12829c1.05046,0.35015 1.48057,1.01049 1.63378,1.63754c1.98234,0.41364 3.94885,0.9161 5.9761,1.26645c2.75941,0.47688 5.38663,-0.18887 8.05065,-0.65242c0.02025,-1.41062 1.43086,-2.11593 1.43086,-2.11593l2.32746,-1.13564c4,-1.33333 8,-2.66667 12,-4c1.81849,-0.60616 3.84379,-0.75022 5.47624,-1.75492c0.80293,-0.49416 1.19155,-1.51493 2,-2c0.90388,-0.54233 2.08854,-0.47052 3,-1c2.61573,-1.5195 5.89988,-6.20971 7.02804,-8.88476c0.53407,-1.26636 0.45861,-2.73676 1,-4c0.47343,-1.10467 1.5217,-1.89743 2,-3c0.07022,-0.16188 0.13625,-0.32514 0.19854,-0.48963c-2.26565,-0.03103 -4.54736,-0.43042 -6.70283,-1.12727c-6.32358,-2.23437 -8.18209,-6.82187 -12.14279,-11.78674c-2.84558,-3.56703 -4.30652,-7.37157 -6.31243,-11.48659c-0.89975,-1.84578 -2.83297,-3.01815 -3.88084,-4.78405c-3.69517,-6.22721 -4.3077,-13.92024 -4.36793,-20.97142c-0.7062,-0.01542 -1.40924,0.00839 -2.10499,0.12481c-4.25339,0.71173 -7.53797,3 -12,3c-3.14568,1.08957 -5.36217,2.3138 -8.30208,3.77807c-0.87127,0.43395 -1.94773,0.38284 -2.78405,0.88084c-3.14614,1.87341 -5.88168,5.21272 -9.15406,7.08782c-2.09604,1.20105 -4.65923,1.7724 -6.34413,3.50359c-2.2322,2.29353 -3.60079,5.15233 -6.23116,7.21532c-0.79815,0.62599 -1.94896,0.80478 -2.59821,1.58413c-0.50241,0.60309 -0.38518,1.52256 -0.61506,2.27309c-1.1614,3.7919 -2.92129,7.21681 -2.87171,11.20943c0,0 0,2.5 -2.5,2.5c-0.16144,0 -0.31246,-0.01043 -0.45373,-0.02993c0.213,3.03613 1.13451,6.86637 2.58035,9.2156c0.49416,0.80293 1.51493,1.19155 2,2c0.54233,0.90388 0.46203,2.09352 1,3c0.60914,1.0264 1.37154,1.9774 2.20464,2.89105l1.66874,-0.07672c0,0 2.5,0 2.5,2.5c1.23173,0.92379 1.13595,2.03723 0.88061,2.75634c0.18971,0.21732 0.37434,0.43671 0.55275,0.65869c0.38845,0.48331 2.2782,3.83953 3.38097,4.45835c0.91925,0.51583 2.09612,0.45767 3,1c0.80845,0.48507 1.19707,1.50584 2,2c0.0552,0.03397 0.111,0.06754 0.16737,0.10072c0.49894,-0.41863 1.24476,-0.70051 2.30887,-0.3458c1.24229,0.4141 1.61697,1.26199 1.69211,1.97563c2.35092,0.70759 4.88911,1.22568 6.91778,1.92835c0.51957,0 1.03345,0.02028 1.54284,0.05714c0.41903,-0.64041 1.29411,-1.47885 2.84728,-0.96113zM180.93336,243.08497c-3.64334,3.67229 -9.27261,9.91503 -14.93336,9.91503c-3.2315,0 -4.6057,-1.81269 -7.09838,-3.25421c-1.34257,-0.77641 -3.48352,-0.72156 -4.13769,-2.12775c-0.70076,-1.50635 0.46117,-3.29689 0.86436,-4.9086c0.78639,-3.14353 3.31859,-6.69185 5.60394,-8.9772c2.86164,-2.86164 7.47884,-4.91623 9.64114,-8.54656c0.37356,-0.62718 0.6292,-1.30715 0.83604,-2.00919c-0.35361,-0.17419 -0.6956,-0.35708 -1.02374,-0.54985c-0.46716,-0.27445 -0.7909,-0.73377 -1.13522,-1.16691c-0.3955,0.29053 -0.75988,0.41199 -0.75988,0.41199l-3,1c-1.61937,0.49369 -2.92014,1.71735 -4.32879,2.6564c-1.24037,0.82687 -2.75967,1.17307 -4,2c-0.83274,0.55519 -1.28529,1.59021 -2.14745,2.09852c-0.22347,0.13175 -6.11174,2.13788 -6.61536,2.27367c-1.58313,0.42686 -3.1881,1.42445 -4.79491,1.09786c-0.23074,-0.0469 -0.45518,-0.1102 -0.67441,-0.18711l-0.02022,0.06066l-2.94531,-0.98177c-1.02156,-0.31417 -1.76412,-1.26534 -1.76412,-2.38994c0,-0.88153 0.45626,-1.6565 1.14551,-2.10163l2.81226,-1.87484c5.04138,-5.08156 10.76437,-9.51914 15.41796,-14.89278c-0.00328,-0.00329 -0.00657,-0.00658 -0.00985,-0.00987c-1.31404,0.59418 -2.57129,1.32744 -3.7675,2.12491c-0.92802,0.29361 -1.94789,0.38258 -2.78405,0.88084c-0.92007,0.54827 -1.36576,1.77892 -2.35762,2.18307c-0.92607,0.37735 -2.06878,-0.36446 -3,0c-0.76025,0.29755 -0.94007,1.40066 -1.64238,1.81693c-0.29333,0.17386 -5.91632,2.0547 -6.52376,2.24508c-1.25797,0.39427 -2.47922,1.2636 -3.79057,1.12829c-5.79972,-0.59843 -5.34597,-1.89501 -5.5,-6.5c-0.04414,-1.31969 -0.38566,-2.76852 0.1903,-3.95671c2.15196,-4.43942 5.76084,-3.18918 9.51913,-4.415c0.82039,-0.26758 1.74135,-0.30263 2.47624,-0.75492c0.80293,-0.49416 1.19084,-1.51612 2,-2c1.03077,-0.61641 1.8683,-1.00342 2.59627,-1.33212c-2.94866,0.98289 -6.42895,2.14298 -8.49137,2.83046c-7.02202,2.27019 -13.63671,0.27625 -19.88895,-3.12592c-3.83572,-2.08722 -6.04368,-0.90611 -4.21132,-7.2025c1.00547,-3.455 6.60622,-5.44403 9.51913,-6.415c3.35815,-1.11938 5.82659,-3.46637 9.39011,-4.09601c4.57627,-0.80858 10.9066,-0.63303 15.81798,0.45821c0.36399,-0.2888 0.87239,-0.49049 1.58248,-0.49049c0.20481,0 0.39285,0.01678 0.56548,0.04759c0.3167,-3.95261 1.71449,-7.53511 3.06282,-11.33816c0.44286,-1.24913 0.57033,-2.68152 1.38494,-3.72691c0.85486,-1.09704 2.32338,-1.53763 3.40179,-2.41587c2.40817,-1.96118 3.63601,-4.69708 5.76884,-6.78468c2.11501,-2.07017 5.08437,-3.03139 7.65587,-4.49641c3.2056,-1.82628 5.76411,-5.05158 8.84594,-6.91218c0.97169,-0.58664 2.20147,-0.6101 3.21595,-1.11916c3.36351,-1.68781 6.04309,-3.04034 9.69792,-4.22193c4.44903,0 7.7027,-2.28598 12,-3c0.25142,-0.04177 5.92714,-0.03228 6.40046,-0.03228c3.89192,0 8.42987,-0.5406 12.30546,0.01873c4.8958,0.70657 8.73779,2.94831 12.92776,5.3066c3.30701,1.86133 7.80702,3.34989 9.89341,6.86034c2.10337,3.53902 0.715,6.29111 1.34109,9.91387c0.49018,2.83633 0.9574,5.87702 1.90399,8.60989c2.14154,6.6241 -0.12599,12.03519 -1.97141,18.48954c-0.214,0.74847 -1.91343,7.83924 -2.11401,8.31241c-0.46907,1.10653 -1.52657,1.89533 -2,3c-0.54139,1.26324 -0.45208,2.73958 -1,4c-1.58621,3.64889 -5.4918,8.97176 -8.97196,11.11524c-0.89751,0.55279 -2.09612,0.45767 -3,1c-0.80845,0.48507 -1.18709,1.52243 -2,2c-0.35562,0.20892 -5.86362,2.02503 -6.52376,2.24508c-3.1081,1.03603 -6.2162,2.07207 -9.3243,3.1081c0.48927,1.83751 -1.34823,2.75626 -1.34823,2.75626l-3.11803,1.26393c-4.2195,-0.0524 -8.02707,1.67307 -12.40046,0.96772c-2.15952,-0.34829 -4.24239,-0.89389 -6.34871,-1.3273c-1.9388,5.52953 -5.04434,10.56828 -8.31748,15.44455zM175.12663,227.81433c-2.42591,4.02342 -7.19288,6.28746 -10.35886,9.45344c-0.79238,0.79238 -1.13392,1.94253 -1.83441,2.81721c-0.52112,0.65071 -1.37306,1.01737 -1.80673,1.72936c-0.44889,0.73697 -0.35087,1.71376 -0.75492,2.47624c-0.24583,0.46391 -1.45175,0.6722 -1.13564,1.0914c0.37464,0.49681 1.28164,-0.35134 1.86231,-0.12775c0.74457,0.2867 3.47983,2.74579 4.90162,2.74579c1.23012,0 4.04216,-2.19816 4.61325,-2.58013c2.52238,-1.68706 4.3138,-3.38532 6.4534,-5.50485c2.70014,-4.08217 5.41748,-8.35061 7.12056,-12.93853c-0.19506,-0.00578 -0.39093,-0.00878 -0.58766,-0.00878c-2.23802,-0.72354 -4.88788,-1.33205 -7.42195,-2.10157c-0.48599,1.4369 -0.95434,2.78793 -1.05096,2.94818zM148.5271,226.61223c1.50305,-0.28403 3.02598,-0.54383 4.15858,-1.23885c0.75422,-0.46283 1.11625,-1.41064 1.85255,-1.90148c2.97713,-1.98464 6.07469,-4.02427 9.41352,-5.25074c-1.06212,-1.13908 -1.51301,-2.34135 -2.68828,-3.88349c-3.89286,4.39264 -8.41264,8.24117 -12.73637,12.27456zM148.09838,206.74579c-0.86341,0.44938 -1.95021,0.37872 -2.78405,0.88084c-0.80768,0.48636 -1.18709,1.52243 -2,2c-3.01299,1.77006 -6.19318,1.68242 -9.35762,2.18307c-0.71393,0.11295 -1.07241,3.7971 -0.9286,4.22853c0.10253,0.30758 0.66018,0.05093 0.97189,-0.03822c0.7612,-0.21772 1.46434,-0.604 2.20943,-0.87171c0.99201,-0.35642 1.99619,-0.67832 3,-1c0.82176,-0.26334 1.73884,-0.30673 2.47624,-0.75492c0.91525,-0.55628 1.36576,-1.77892 2.35762,-2.18307c0.92607,-0.37735 2.06878,0.36446 3,0c0.76025,-0.29755 0.94366,-1.39466 1.64238,-1.81693c0.97142,-0.58707 2.14397,-0.74611 3.21595,-1.11916c0.77372,-0.51581 1.57591,-0.99495 2.40075,-1.43253c-0.52204,-0.64251 -1.00523,-1.30791 -1.429,-2.00735c-0.29565,-0.48798 -0.40533,-1.06181 -0.52975,-1.62892c-1.21393,1.4326 -2.61072,2.70965 -4.24525,3.56038zM132.40046,188.96772c-2.81248,0.42792 -2.56016,1.41928 -5.30208,2.77807c-3.02966,1.50139 -5.69612,1.67171 -8.51341,3.68757c-0.60613,0.4337 -2.23759,1.30136 -1.55687,1.60487c0.6337,0.28254 1.43441,-0.06166 2.07027,0.21599c1.05462,0.4605 1.7817,1.52971 2.85833,1.93609c4.21444,1.59078 8.99897,2.41137 13.25272,0.93799c3,-1 6,-2 9,-3l3,-1c0,0 0.41651,-0.13884 0.95863,-0.1256c-0.72343,-2.11381 -1.22108,-4.41787 -1.47446,-6.57646c-4.31034,-1.07101 -10.20791,-1.08008 -14.29314,-0.45851zM212.46772,152.09954c0.32591,1.94765 1.27953,3.73649 1.90399,5.60989c0.60616,1.81849 0.75777,3.83916 1.75492,5.47624c1.15248,1.89208 3.1116,3.24288 4.11916,5.21595c1.89228,3.70557 3.11761,7.31025 5.68757,10.51341c3.1588,3.93708 4.74177,8.65374 9.85721,10.21326c1.66365,0.57624 3.44895,0.89357 5.20943,0.87171h1c0,0 0.03401,0 0.09409,0.00397c0.14272,-0.74221 0.29931,-1.48039 0.50561,-2.20294c1.5074,-5.27956 3.89554,-10.12044 2.02859,-15.51046c-0.97755,-3.02369 -1.59488,-6.28294 -2.09601,-9.39011c-0.41402,-2.56704 0.80027,-5.69665 -0.65891,-8.08613c-1.55195,-2.54139 -5.77824,-3.82797 -8.10659,-5.13966c-3.59469,-2.02509 -6.85408,-4.09851 -11.07224,-4.6934c-3.19922,-0.45119 -6.89599,-0.10275 -10.23156,-0.00486c-0.10267,2.34946 -0.36028,4.94181 0.00473,7.12314z" fill="#000000"></path><path d="M152.38367,203.15547c0.12442,0.56712 0.23827,1.14754 0.53391,1.63551c0.42377,0.69945 0.91103,1.37522 1.43307,2.01772c-0.82484,0.43758 -1.62605,0.92115 -2.39977,1.43697c-1.07198,0.37305 -2.24389,0.53754 -3.21531,1.12461c-0.69872,0.42226 -0.88633,1.54274 -1.64658,1.84029c-0.93122,0.36446 -2.10698,-0.34924 -3.03305,0.0281c-0.99186,0.40415 -1.47853,1.62255 -2.39377,2.17883c-0.7374,0.44819 -1.66633,0.48281 -2.48808,0.74615c-1.00381,0.32168 -2.013,0.63774 -3.00501,0.99416c-0.74509,0.26771 -1.44971,0.65184 -2.21091,0.86957c-0.31172,0.08916 -0.87044,0.34409 -0.97297,0.03651c-0.14381,-0.43142 0.20874,-4.13053 0.92267,-4.24349c3.16444,-0.50065 6.34422,-0.43233 9.35721,-2.2024c0.81291,-0.47757 1.27301,-1.5439 2.08069,-2.03026c0.83385,-0.50212 1.93092,-0.42014 2.79433,-0.86952c1.63453,-0.85073 3.02965,-2.13016 4.24358,-3.56276z" data-paper-data="{&quot;noHover&quot;:false,&quot;origItem&quot;:[&quot;Path&quot;,{&quot;applyMatrix&quot;:true,&quot;segments&quot;:[[[148.09838,206.74579],[1.63453,-0.85073],[-0.86341,0.44938]],[[145.31433,207.62663],[0.83385,-0.50212],[-0.80768,0.48636]],[[143.31433,209.62663],[0.81291,-0.47757],[-3.01299,1.77006]],[[133.95671,211.8097],[3.16444,-0.50065],[-0.71393,0.11295]],[[133.02811,216.03822],[-0.14381,-0.43142],[0.10253,0.30758]],[[134,216],[-0.31172,0.08916],[0.7612,-0.21772]],[[136.20943,215.12829],[-0.74509,0.26771],[0.99201,-0.35642]],[[139.20943,214.12829],[-1.00381,0.32168],[0.82176,-0.26334]],[[141.68567,213.37337],[-0.7374,0.44819],[0.91525,-0.55628]],[[144.04329,211.1903],[-0.99186,0.40415],[0.92607,-0.37735]],[[147.04329,211.1903],[-0.93122,0.36446],[0.76025,-0.29755]],[[148.68567,209.37337],[-0.69872,0.42226],[0.97142,-0.58707]],[[151.90162,208.25421],[-1.07198,0.37305],[0.77372,-0.51581]],[[154.30237,206.82168],[-0.82484,0.43758],[-0.52204,-0.64251]],[[152.87337,204.81433],[0.42377,0.69945],[-0.29565,-0.48798]],[[152.34363,203.1854],[0.12442,0.56712],[-1.21393,1.4326]]],&quot;closed&quot;:true}]}" fill="#9a9a9a"></path><path d="M185.93009,222.13765c-0.50938,-0.03686 -1.0251,-0.05768 -1.54467,-0.05768c-2.02867,-0.70267 -4.57513,-1.22422 -6.92605,-1.9318c-0.07514,-0.71364 -0.4525,-1.56306 -1.69478,-1.97715c-1.06411,-0.3547 -1.81178,-0.07401 -2.31072,0.34462c-0.05637,-0.03318 -0.11237,-0.06688 -0.16757,-0.10085c-0.80293,-0.49416 -1.19433,-1.51695 -2.00278,-2.00202c-0.90388,-0.54233 -2.08349,-0.48647 -3.00274,-1.00231c-1.10278,-0.61881 -2.9972,-3.97988 -3.38565,-4.46319c-0.17841,-0.22198 -0.3637,-0.44218 -0.55342,-0.6595c0.25534,-0.71911 0.34909,-1.83524 -0.88264,-2.75904c0,-2.5 -2.50231,-2.5036 -2.50231,-2.5036l-1.66919,0.07592c-0.8331,-0.91364 -1.59739,-1.86839 -2.20652,-2.89479c-0.53797,-0.90648 -0.45907,-2.09954 -1.00139,-3.00341c-0.48507,-0.80845 -1.50676,-1.19984 -2.00092,-2.00277c-1.44584,-2.34923 -2.36933,-6.19003 -2.58232,-9.22616c0.14127,0.0195 0.29229,0.03 0.45373,0.03c2.5,0 2.49986,-2.50275 2.49986,-2.50275c-0.04958,-3.99262 1.71195,-7.43143 2.87334,-11.22333c0.22987,-0.75053 0.11348,-1.6728 0.61589,-2.27589c0.64924,-0.77935 1.80108,-0.96098 2.59923,-1.58697c2.63037,-2.06299 4.00497,-4.93274 6.23717,-7.22627c1.6849,-1.73119 4.25454,-2.30983 6.35058,-3.51088c3.27238,-1.8751 6.02197,-5.22362 9.16812,-7.09704c0.83632,-0.498 1.9167,-0.44841 2.78797,-0.88236c2.93991,-1.46427 5.16862,-2.691 8.3143,-3.78058c4.46203,0 7.76177,-2.28713 12.01515,-2.99886c0.69574,-0.11642 1.40116,-0.13962 2.10736,-0.1242c0.06024,7.05118 0.69117,14.75395 4.38634,20.98116c1.04787,1.7659 2.98973,2.9476 3.88947,4.79338c2.00591,4.11503 3.47592,7.9439 6.3215,11.51093c3.96069,4.96486 5.81798,9.56901 12.14156,11.80338c2.15546,0.69685 4.33995,1.07287 6.6056,1.1039c-0.06229,0.16449 -0.03109,0.35115 -0.10132,0.51302c-0.4783,1.10257 -1.52762,1.89897 -2.00105,3.00365c-0.54139,1.26324 -0.46755,2.7379 -1.00162,4.00426c-1.12816,2.67504 -4.41876,7.37612 -7.03449,8.89562c-0.91146,0.52948 -2.09813,0.46008 -3.002,1.00241c-0.80845,0.48507 -1.19939,1.50828 -2.00232,2.00244c-1.63245,1.0047 -3.66265,1.153 -5.48114,1.75916c-4,1.33333 -8.01428,2.67422 -12.01428,4.00756l-2.3307,1.13661c0,0 -1.41297,0.70587 -1.43322,2.11648c-2.66402,0.46355 -5.30137,1.13039 -8.06078,0.65351c-2.02725,-0.35035 -4.00148,-0.85338 -5.98382,-1.26701c-0.15321,-0.62705 -0.58577,-1.28782 -1.63624,-1.63798c-1.55317,-0.51772 -2.4315,0.31995 -2.85052,0.96036z" data-paper-data="{&quot;noHover&quot;:false,&quot;origItem&quot;:[&quot;Path&quot;,{&quot;applyMatrix&quot;:true,&quot;segments&quot;:[[[188.79057,221.12829],[-1.55317,-0.51772],[1.05046,0.35015]],[[190.42435,222.76583],[-0.15321,-0.62705],[1.98234,0.41364]],[[196.40046,224.03228],[-2.02725,-0.35035],[2.75941,0.47688]],[[204.4511,223.37986],[-2.66402,0.46355],[0.02025,-1.41062]],[205.88197,221.26393],[[208.20943,220.12829],[0,0],[4,-1.33333]],[[220.20943,216.12829],[-4,1.33333],[1.81849,-0.60616]],[[225.68567,214.37337],[-1.63245,1.0047],[0.80293,-0.49416]],[[227.68567,212.37337],[-0.80845,0.48507],[0.90388,-0.54233]],[[230.68567,211.37337],[-0.91146,0.52948],[2.61573,-1.5195]],[[237.71371,202.48862],[-1.12816,2.67504],[0.53407,-1.26636]],[[238.71371,198.48862],[-0.54139,1.26324],[0.47343,-1.10467]],[[240.71371,195.48862],[-0.4783,1.10257],[0.07022,-0.16188]],[[240.91226,194.99898],[-0.06229,0.16449],[-2.26565,-0.03103]],[[234.20943,193.87171],[2.15546,0.69685],[-6.32358,-2.23437]],[[222.06664,182.08497],[3.96069,4.96486],[-2.84558,-3.56703]],[[215.75421,170.59838],[2.00591,4.11503],[-0.89975,-1.84578]],[[211.87337,165.81433],[1.04787,1.7659],[-3.69517,-6.22721]],[[207.50544,144.84291],[0.06024,7.05118],[-0.7062,-0.01542]],[[205.40046,144.96772],[0.69574,-0.11642],[-4.25339,0.71173]],[[193.40046,147.96772],[4.46203,0],[-3.14568,1.08957]],[[185.09838,151.74579],[2.93991,-1.46427],[-0.87127,0.43395]],[[182.31433,152.62663],[0.83632,-0.498],[-3.14614,1.87341]],[[173.16027,159.71445],[3.27238,-1.8751],[-2.09604,1.20105]],[[166.81613,163.21804],[1.6849,-1.73119],[-2.2322,2.29353]],[[160.58497,170.43336],[2.63037,-2.06299],[-0.79815,0.62599]],[[157.98677,172.01748],[0.64924,-0.77935],[-0.50241,0.60309]],[[157.37171,174.29057],[0.22987,-0.75053],[-1.1614,3.7919]],[[154.5,185.5],[-0.04958,-3.99262],[0,0]],[[152,188],[2.5,0],[-0.16144,0]],[[151.54627,187.97007],[0.14127,0.0195],[0.213,3.03613]],[[154.12663,197.18567],[-1.44584,-2.34923],[0.49416,0.80293]],[[156.12663,199.18567],[-0.48507,-0.80845],[0.54233,0.90388]],[[157.12663,202.18567],[-0.53797,-0.90648],[0.60914,1.0264]],[[159.33126,205.07672],[-0.8331,-0.91364],[0,0]],[161,205],[[163.5,207.5],[0,-2.5],[1.23173,0.92379]],[[164.38061,210.25634],[0.25534,-0.71911],[0.18971,0.21732]],[[164.93336,210.91503],[-0.17841,-0.22198],[0.38845,0.48331]],[[168.31433,215.37337],[-1.10278,-0.61881],[0.91925,0.51583]],[[171.31433,216.37337],[-0.90388,-0.54233],[0.80845,0.48507]],[[173.31433,218.37337],[-0.80293,-0.49416],[0.0552,0.03397]],[[173.4817,218.47409],[-0.05637,-0.03318],[0.49894,-0.41863]],[[175.79057,218.12829],[-1.06411,-0.3547],[1.24229,0.4141]],[[177.48268,220.10393],[-0.07514,-0.71364],[2.35092,0.70759]],[[184.40046,222.03228],[-2.02867,-0.70267],[0.51957,0]],[[185.94329,222.08942],[-0.50938,-0.03686],[0.41903,-0.64041]]],&quot;closed&quot;:true}]}" fill="#9a9a9a"></path><path d="M176.19569,224.81954c2.53407,0.76951 5.20498,1.39353 7.443,2.11707c0.19673,0 0.39332,0.00394 0.58839,0.00972c-1.70308,4.58792 -4.41832,8.91369 -7.11846,12.99586c-2.13959,2.11953 -3.97892,3.84027 -6.5013,5.52733c-0.57109,0.38197 -3.39927,2.57535 -4.62938,2.57535c-1.42179,0 -4.17341,-2.47196 -4.91798,-2.75865c-0.58067,-0.22359 -1.48986,0.62174 -1.8645,0.12493c-0.31611,-0.41919 0.88934,-0.62815 1.13517,-1.09206c0.40405,-0.76248 0.30255,-1.74509 0.75144,-2.48206c0.43367,-0.71198 1.28401,-1.0821 1.80513,-1.73281c0.70049,-0.87468 1.03853,-2.03809 1.83092,-2.83047c3.16598,-3.16598 8.00113,-5.48245 10.42704,-9.50586c0.09662,-0.16025 0.56453,-1.51145 1.05053,-2.94835z" data-paper-data="{&quot;noHover&quot;:false,&quot;origItem&quot;:[&quot;Path&quot;,{&quot;applyMatrix&quot;:true,&quot;segments&quot;:[[[175.12663,227.81433],[0.09662,-0.16025],[-2.42591,4.02342]],[[164.76777,237.26777],[3.16598,-3.16598],[-0.79238,0.79238]],[[162.93336,240.08497],[0.70049,-0.87468],[-0.52112,0.65071]],[[161.12663,241.81433],[0.43367,-0.71198],[-0.44889,0.73697]],[[160.37171,244.29057],[0.40405,-0.76248],[-0.24583,0.46391]],[[159.23607,245.38197],[-0.31611,-0.41919],[0.37464,0.49681]],[[161.09838,245.25421],[-0.58067,-0.22359],[0.74457,0.2867]],[[166,248],[-1.42179,0],[1.23012,0]],[[170.61325,245.41987],[-0.57109,0.38197],[2.52238,-1.68706]],[[177.06664,239.91503],[-2.13959,2.11953],[2.70014,-4.08217]],[[184.18721,226.9765],[-1.70308,4.58792],[-0.19506,-0.00578]],[[183.59954,226.96772],[0.19673,0],[-2.23802,-0.72354]],[[176.17759,224.86615],[2.53407,0.76951],[-0.48599,1.4369]]],&quot;closed&quot;:true}]}" fill="#ff0000"></path><path d="M161.29514,214.29897c1.17527,1.54213 1.64248,2.76907 2.7046,3.90815c-3.33883,1.22648 -6.50906,3.32361 -9.4862,5.30825c-0.7363,0.49084 -1.10301,1.43563 -1.85723,1.89847c-1.1326,0.69503 -2.66529,0.94549 -4.16834,1.22952c4.32373,-4.03339 8.91431,-7.95175 12.80717,-12.34439z" data-paper-data="{&quot;noHover&quot;:false,&quot;origItem&quot;:[&quot;Path&quot;,{&quot;applyMatrix&quot;:true,&quot;segments&quot;:[[[148.5271,226.61223],[4.32373,-4.03339],[1.50305,-0.28403]],[[152.68567,225.37337],[-1.1326,0.69503],[0.75422,-0.46283]],[[154.53822,223.47189],[-0.7363,0.49084],[2.97713,-1.98464]],[[163.95175,218.22115],[-3.33883,1.22648],[-1.06212,-1.13908]],[[161.26347,214.33766],[1.17527,1.54213],[-3.89286,4.39264]]],&quot;closed&quot;:true}]}" fill="#ff0000"></path><path d="M146.74044,189.40873c0.25338,2.15859 0.75403,4.48422 1.47746,6.59803c-0.54212,-0.01324 -0.95869,0.12629 -0.95869,0.12629l-3.0008,1.00531c-3,1 -6.02667,2.03468 -9.02667,3.03468c-4.25375,1.47338 -9.10663,0.62751 -13.32107,-0.96327c-1.07663,-0.40638 -1.8068,-1.4858 -2.86141,-1.9463c-0.63586,-0.27765 -1.43689,0.06468 -2.07059,-0.21786c-0.68072,-0.30351 0.95025,-1.17601 1.55638,-1.60972c2.81728,-2.01586 5.48987,-2.21281 8.51953,-3.7142c2.74191,-1.35879 2.5324,-2.37605 5.34488,-2.80397c4.08523,-0.62157 10.03065,-0.58001 14.34099,0.491z" data-paper-data="{&quot;noHover&quot;:false,&quot;origItem&quot;:[&quot;Path&quot;,{&quot;applyMatrix&quot;:true,&quot;segments&quot;:[[[132.40046,188.96772],[4.08523,-0.62157],[-2.81248,0.42792]],[[127.09838,191.74579],[2.74191,-1.35879],[-3.02966,1.50139]],[[118.58497,195.43336],[2.81728,-2.01586],[-0.60613,0.4337]],[[117.02811,197.03822],[-0.68072,-0.30351],[0.6337,0.28254]],[[119.09838,197.25421],[-0.63586,-0.27765],[1.05462,0.4605]],[[121.95671,199.1903],[-1.07663,-0.40638],[4.21444,1.59078]],[[135.20943,200.12829],[-4.25375,1.47338],[3,-1]],[[144.20943,197.12829],[-3,1],[0,0]],[147.20943,196.12829],[[148.16806,196.00269],[-0.54212,-0.01324],[-0.72343,-2.11381]],[[146.6936,189.42623],[0.25338,2.15859],[-4.31034,-1.07101]]],&quot;closed&quot;:true}]}" fill="#ff0000"></path><path d="M212.43353,144.936c3.33556,-0.09789 7.04865,-0.45416 10.24787,-0.00298c4.21816,0.59489 7.50421,2.66841 11.0989,4.6935c2.32835,1.31169 6.57718,2.61177 8.12913,5.15316c1.45918,2.38948 0.25637,5.53823 0.67039,8.10527c0.50113,3.10717 1.11868,6.39674 2.09623,9.42043c1.86695,5.39003 -0.54095,10.25751 -2.04835,15.53707c-0.2063,0.72254 -0.36555,1.4624 -0.50828,2.20462c-0.06008,-0.00397 -0.09422,-0.00389 -0.09422,-0.00389l-1.00147,0.00082c-1.76048,0.02186 -3.55421,-0.29187 -5.21786,-0.86811c-5.11545,-1.55952 -6.72576,-6.27525 -9.88456,-10.21233c-2.56996,-3.20316 -3.83289,-6.85043 -5.72517,-10.556c-1.00756,-1.97307 -2.9645,-3.34551 -4.11698,-5.2376c-0.99715,-1.63708 -1.14282,-3.66988 -1.74898,-5.48837c-0.62446,-1.87339 -1.57306,-3.66856 -1.89897,-5.61621c-0.36501,-2.18133 -0.10035,-4.77991 0.00232,-7.12938z" data-paper-data="{&quot;noHover&quot;:false,&quot;origItem&quot;:[&quot;Path&quot;,{&quot;applyMatrix&quot;:true,&quot;segments&quot;:[[[212.46772,152.09954],[-0.36501,-2.18133],[0.32591,1.94765]],[[214.37171,157.70943],[-0.62446,-1.87339],[0.60616,1.81849]],[[216.12663,163.18567],[-0.99715,-1.63708],[1.15248,1.89208]],[[220.24579,168.40162],[-1.00756,-1.97307],[1.89228,3.70557]],[[225.93336,178.91503],[-2.56996,-3.20316],[3.1588,3.93708]],[[235.79057,189.12829],[-5.11545,-1.55952],[1.66365,0.57624]],[[241,190],[-1.76048,0.02186],[0,0]],[242,190],[[242.09409,190.00397],[-0.06008,-0.00397],[0.14272,-0.74221]],[[242.5997,187.80103],[-0.2063,0.72254],[1.5074,-5.27956]],[[244.62829,172.29057],[1.86695,5.39003],[-0.97755,-3.02369]],[[242.53228,162.90046],[0.50113,3.10717],[-0.41402,-2.56704]],[[241.87337,154.81433],[1.45918,2.38948],[-1.55195,-2.54139]],[[233.76678,149.67467],[2.32835,1.31169],[-3.59469,-2.02509]],[[222.69454,144.98127],[4.21816,0.59489],[-3.19922,-0.45119]],[[212.46299,144.97641],[3.33556,-0.09789],[-0.10267,2.34946]]],&quot;closed&quot;:true}]}" fill="#ff0000"></path></g></g></svg>