<svg version="1.1" xmlns="http://www.w3.org/2000/svg" xmlns:xlink="http://www.w3.org/1999/xlink" width="247.05411" height="193.22073" viewBox="0,0,247.05411,193.22073"><g transform="translate(-17.60775,-105.13506)"><g data-paper-data="{&quot;isPaintingLayer&quot;:true}" fill-rule="nonzero" stroke="none" stroke-linecap="butt" stroke-linejoin="miter" stroke-miterlimit="10" stroke-dasharray="" stroke-dashoffset="0" style="mix-blend-mode: normal"><path d="M264.01966,174.73774c0.21417,0.35936 0.42824,0.71877 0.64221,1.07822c-0.03594,0.08676 -0.07225,0.17343 -0.10892,0.26c-0.17663,-0.44588 -0.35445,-0.89192 -0.53329,-1.33822z" fill="#000000" stroke-width="0.5"></path><path d="M160.613,147.71766c0.28089,0.07124 0.62437,0.19738 0.87572,0.25299c-1.92687,1.49991 -4.29306,2.5306 -6.63401,2.8583c-1.8945,0.2652 -3.84891,-0.02893 -5.76189,-0.02893c-1.51073,0 -3.67674,0.13198 -5.60267,-0.21877c-0.84413,-2.16612 -3.11154,-1.42091 -3.11154,-1.42091l-0.05531,0.01835c-0.51652,-0.47704 -0.92124,-1.09662 -1.15184,-1.88521c-0.76852,-2.62815 -0.07467,-6.85937 0.61928,-9.83687c0.21498,-0.12771 0.44974,-0.2592 0.70854,-0.3886c1.99669,-0.99835 4.34263,-1.59179 5.95131,-3.13957c2.20898,-2.12534 3.95449,-4.845 6.60413,-6.66555c0.04228,-0.02905 0.061,0.03923 0.10455,0.01081c-2.74444,2.86049 -3.14189,7.52763 -0.74051,10.81033c1.24578,1.70298 3.3713,1.47471 3.97935,3.63163c0.27967,0.99202 -0.41706,2.25979 0.17976,3.10011c0.97856,1.3778 2.39707,2.48638 4.03514,2.90187z" data-paper-data="{&quot;noHover&quot;:false,&quot;origItem&quot;:[&quot;Path&quot;,{&quot;applyMatrix&quot;:true,&quot;segments&quot;:[[[160.65151,147.74952],[0,0],[-1.63807,-0.41549]],[[156.54066,144.78235],[0.97856,1.3778],[-0.59682,-0.84032]],[[156.35211,141.69604],[0.27967,0.99202],[-0.60805,-2.15692]],[[152.37286,138.10385],[1.24578,1.70298],[-2.40138,-3.2827]],[[153.17159,127.22522],[-2.74444,2.86049],[-0.04355,0.02842]],[[153.04282,127.31143],[0.04228,-0.02905],[-2.64964,1.82055]],[[146.47991,133.96892],[2.20898,-2.12534],[-1.60868,1.54778]],[[140.54826,137.07807],[1.99669,-0.99835],[-0.2588,0.1294]],[[139.84016,137.46421],[0.21498,-0.12771],[-0.69395,2.9775]],[[139.21148,147.26347],[-0.76852,-2.62815],[0.2306,0.78859]],[[140.35816,149.14281],[-0.51652,-0.47704],[0,0]],[140.4134,149.12439],[[143.51521,150.53795],[-0.84413,-2.16612],[1.92593,0.35075]],[[149.09736,150.75019],[-1.51073,0],[1.91298,0]],[[154.8362,150.78247],[-1.8945,0.2652],[2.34095,-0.3277]],[[161.44943,147.9397],[-1.92687,1.49991],[-0.25135,-0.05561]],[[160.6515,147.74953],[0.28089,0.07124],[0,0]]],&quot;closed&quot;:true,&quot;fillColor&quot;:[0,0,0,1]}]}" fill="#ffffff" stroke-width="0.5"></path><path d="M127.45092,145.23253c0.79348,2.33531 -1.18986,6.14968 2.8505,6.34474c-0.76005,0.06106 -1.51834,0.09764 -2.23792,0.09764c-0.54131,0 -3.08632,0.24999 -3.76877,-0.36224c-0.58427,-0.52416 -0.78305,-1.37271 -1.20408,-2.03516c-3.02044,-4.7524 -2.60354,-8.35786 -0.41796,-13.05894c1.06928,0.54997 2.13218,1.16413 3.20437,1.71058c-0.01046,0.01941 -0.02485,0.13891 -0.03486,0.1587c-0.68299,1.35013 -0.50795,2.9571 -0.18503,4.43529c0.22497,1.02979 1.45466,1.71135 1.79377,2.70939z" data-paper-data="{&quot;noHover&quot;:false,&quot;origItem&quot;:[&quot;Path&quot;,{&quot;applyMatrix&quot;:true,&quot;segments&quot;:[[[127.40969,145.20421],[0,0],[-0.33911,-0.99804]],[[125.6556,142.57308],[0.22497,1.02979],[-0.32292,-1.47819]],[[125.84414,138.03785],[-0.68299,1.35013],[0.01001,-0.01979]],[[125.87486,137.97906],[-0.01046,0.01941],[-1.07219,-0.54645]],[[122.69041,136.26528],[1.06928,0.54997],[-2.18558,4.70108]],[[123.1121,149.23231],[-3.02044,-4.7524],[0.42103,0.66245]],[[124.30355,151.26342],[-0.58427,-0.52416],[0.68245,0.61223]],[[128.04833,151.62723],[-0.54131,0],[0.71958,0]],[[130.27517,151.53467],[-0.76005,0.06106],[-4.04036,-0.19506]],[[127.40968,145.20421],[0.79348,2.33531],[0,0]]],&quot;closed&quot;:true,&quot;fillColor&quot;:[0,0,0,1]}]}" fill="#ffffff" stroke-width="0.5"></path><path d="M200.64615,250.16432c-0.1099,-0.80311 -0.47466,-1.54802 -0.7604,-2.31016c3.58345,0.07732 7.17852,0.10964 10.62306,-0.84037c0.75067,1.52736 1.61435,3.10417 2.28895,4.66082c-2.17961,0.2039 -2.16826,2.48495 -2.16826,2.48495l0.13045,2.54426c0.42066,1.11934 0.50911,2.32158 1.2514,3.25908c1.37519,1.73685 3.96457,2.24999 5.53106,3.81648c1.95781,1.95781 3.35503,5.255 4.93945,7.53575c0.46406,0.668 1.17543,1.20129 1.4402,1.97036c0.19046,0.55324 0.27537,1.27003 0.27105,2.04299c-1.5718,0.51896 -3.05319,0.9097 -4.90841,0.88285c0,0 -2.50955,0.00398 -2.50955,2.50398c0,0.0125 0.00004,0.02494 0.00016,0.03731l-1.04081,-1.78595c0.42076,-0.36814 0.74698,-0.94529 0.74698,-1.85442c0,-2.5 -2.47309,-2.40398 -2.47309,-2.40398l-0.88136,0.00067c-1.71971,0.02489 -3.13219,-0.30507 -4.57784,-0.7663c-0.05341,-1.78762 0.24766,-4.29228 -1.30291,-5.09502c-1.58359,-0.81983 -3.41136,0.97227 -5.04121,1.79346c-0.46948,-0.30825 -0.94676,-0.61441 -1.42621,-0.90675c1.49983,-2.63815 3.01903,-5.30807 4.72994,-7.87317c0,0 0.53341,-0.80093 0.44983,-1.73266l0.34927,-0.06031c0,0 2.24984,-1.12945 1.13181,-3.36552c-1.11803,-2.23606 -3.29708,-1.03647 -3.29708,-1.03647l0.75105,1.03268c-0.87704,-0.5847 -1.7198,-1.22271 -2.62896,-1.7561c-0.57631,-0.33812 -1.55314,-0.34359 -1.88532,-0.92335c-0.30998,-0.54102 0.35129,-1.23733 0.26675,-1.8551z" data-paper-data="{&quot;noHover&quot;:false,&quot;origItem&quot;:[&quot;Path&quot;,{&quot;applyMatrix&quot;:true,&quot;segments&quot;:[[[200.67951,250.20153],[0,0],[0.08454,0.61777]],[[200.41598,252.05347],[-0.30998,-0.54102],[0.33218,0.57976]],[[202.22967,252.90708],[-0.57631,-0.33812],[0.90916,0.53339]],[[204.8608,254.66117],[-0.87704,-0.5847],[0,0]],[204.1101,253.62818],[[207.4642,254.74621],[-1.11803,-2.23606],[1.11803,2.23607]],[206.34617,258.10031],[[205.99801,258.15926],[0,0],[0.08358,0.93173]],[[205.55417,259.88212],[0,0],[-1.71091,2.5651]],[[200.82478,267.7145],[1.49983,-2.63815],[0.47945,0.29234]],[[202.24822,268.61577],[-0.46948,-0.30825],[1.62985,-0.82119]],[[207.28481,266.8157],[-1.58359,-0.81983],[1.55057,0.80274]],[[208.56716,271.89593],[-0.05341,-1.78762],[1.44565,0.46123]],[[213.12152,272.65919],[-1.71971,0.02489],[0,0]],[213.99856,272.65919],[[216.49856,275.15919],[0,-2.5],[0,0.90913]],[[215.7472,277.01498],[0.42076,-0.36814],[0,0]],[[216.76101,278.70466],[0,0],[-0.00012,-0.01237]],[[216.76082,278.66736],[0,0.0125],[0,-2.5]],[[219.26082,276.16736],[0,0],[1.85522,0.02685]],[[224.15818,275.29267],[-1.5718,0.51896],[0.00432,-0.77296]],[[223.88444,273.25252],[0.19046,0.55324],[-0.26477,-0.76907]],[[222.44296,271.28368],[0.46406,0.668],[-1.58442,-2.28075]],[[217.49306,263.77131],[1.95781,1.95781],[-1.56649,-1.56649]],[[212.0118,260.01285],[1.37519,1.73685],[-0.74229,-0.9375]],[[210.74982,256.65481],[0.42066,1.11934],[0,0]],[210.62153,254.11015],[[212.80114,251.62468],[-2.17961,0.2039],[-0.6746,-1.55665]],[[210.5136,247.06352],[0.75067,1.52736],[-3.44454,0.95001]],[[199.91718,247.893],[3.58345,0.07732],[0.28574,0.76214]],[[200.6795,250.20153],[-0.1099,-0.80311],[0,0]]],&quot;closed&quot;:true,&quot;fillColor&quot;:[0,0,0,1]}]}" fill="#ffde00" stroke-width="0.5"></path><path d="M209.56069,235.98918c-0.51492,1.95205 -0.92787,3.94325 -0.619,6.27007c0.00468,0.03526 0.00908,0.07111 0.01409,0.10622c-2.85034,0.80075 -6.05712,0.70576 -9.1094,0.59213c0.04398,-1.79982 0.10084,-3.65007 0.19854,-5.44777c2.77278,-0.56932 5.66139,-0.49336 8.55193,-1.2031z" data-paper-data="{&quot;noHover&quot;:false,&quot;origItem&quot;:[&quot;Path&quot;,{&quot;applyMatrix&quot;:true,&quot;segments&quot;:[[[208.55824,236.33847],[0,0],[-2.89054,0.70974]],[[200.09085,237.52953],[2.77278,-0.56932],[-0.0977,1.7977]],[[199.88715,242.92863],[0.04398,-1.79982],[3.05228,0.11363]],[[208.91426,242.33757],[-2.85034,0.80075],[-0.00501,-0.03511]],[[208.89973,242.23201],[0.00468,0.03526],[-0.30887,-2.32682]],[[209.5202,236.0185],[-0.51492,1.95205],[0,0]]],&quot;closed&quot;:true,&quot;fillColor&quot;:[0,0,0,1]}]}" fill="#ffde00" stroke-width="0.5"></path><path d="M207.15804,231.58784c-2.29483,0.58654 -4.50825,0.67557 -6.71114,0.95477c0.40474,-4.01865 1.04976,-8.03494 2.18356,-11.89629c1.56733,-0.0039 3.14269,-0.03774 4.71034,-0.05443l3.01701,-0.92656c0,0 2.38241,-0.77455 1.59184,-3.14626c-0.79057,-2.37171 -3.13658,-1.56736 -3.13658,-1.56736l-2.22103,0.78093c-0.71481,-0.01034 -1.46634,-0.10883 -2.18106,-0.11376c0.5504,-1.51952 1.1221,-3.23704 1.32341,-4.61543c2.41342,-0.60605 5.09445,-0.95455 7.40998,-0.92104l1.71149,-1.03749c-0.28927,1.85705 -0.47785,3.67399 -0.67194,5.25763c-0.34158,2.78706 -1.02791,5.59283 -1.72808,8.34225c-0.57787,-0.06241 -1.26507,0.11182 -1.94236,0.78911c-1.76777,1.76776 -0.05765,3.4562 -0.05765,3.4562l0.77893,0.7846c-0.20298,0.97578 -0.38768,1.95694 -0.52201,2.9381c-0.5612,-0.02123 -1.00278,0.12561 -1.00278,0.12561l-2.55195,0.84944z" data-paper-data="{&quot;noHover&quot;:false,&quot;origItem&quot;:[&quot;Path&quot;,{&quot;applyMatrix&quot;:true,&quot;segments&quot;:[[207.1603,231.53786],[209.69983,230.68941],[[210.69786,230.56503],[-0.5612,-0.02123],[0.13433,-0.98116]],[[211.21166,227.63032],[-0.20298,0.97578],[0,0]],[210.47672,226.93549],[[210.47672,223.39996],[-1.76777,1.76776],[0.67729,-0.67729]],[[212.40917,222.62678],[-0.57787,-0.06241],[0.70017,-2.74942]],[[214.14844,214.33775],[-0.34158,2.78706],[0.19409,-1.58364]],[[214.82971,209.0875],[-0.28927,1.85705],[0,0]],[[213.12154,210.12686],[0,0],[-2.31553,-0.03351]],[[205.74398,211.05248],[2.41342,-0.60605],[-0.20131,1.37839]],[[204.4375,215.66122],[0.5504,-1.51952],[0.71472,0.00493]],[[206.58178,215.68366],[-0.71481,-0.01034],[0,0]],[208.8228,214.90263],[[211.98508,216.48377],[-0.79057,-2.37171],[0.79057,2.37171]],[210.40394,219.64605],[[207.3827,220.6191],[0,0],[-1.56765,0.01669]],[[202.68042,220.64775],[1.56733,-0.0039],[-1.1338,3.86135]],[[200.47302,232.49995],[0.40474,-4.01865],[2.20289,-0.2792]],[[207.16031,231.53786],[-2.29483,0.58654],[0,0]]],&quot;closed&quot;:true,&quot;fillColor&quot;:[0,0,0,1]}]}" fill="#ffde00" stroke-width="0.5"></path><path d="M174.74124,225.60176c-0.8386,-0.4193 -1.69134,-0.85683 -2.52995,-1.27613c1.46443,-1.99125 3.01483,-4.00459 4.51497,-5.97642l0.05414,0.08056l2.61225,-1.72176c1.33417,0.2076 2.70574,0.34994 4.05248,0.38988c-2.35752,3.05081 -4.56512,6.39526 -6.42347,9.73406c-0.27437,-0.22848 -0.50841,-0.34394 -0.50841,-0.34394l-1.77202,-0.88627z" data-paper-data="{&quot;noHover&quot;:false,&quot;origItem&quot;:[&quot;Path&quot;,{&quot;applyMatrix&quot;:true,&quot;segments&quot;:[[174.77262,225.56279],[176.52671,226.43983],[[177.02956,226.78255],[-0.27437,-0.22848],[1.85835,-3.3388]],[[183.4067,217.12984],[-2.35752,3.05081],[-1.34674,-0.03994]],[[179.37792,216.75576],[1.33417,0.2076],[0,0]],[176.79542,218.47743],[[176.74164,218.39675],[0,0],[-1.50014,1.97183]],[[172.2568,224.30489],[1.46443,-1.99125],[0.83861,0.4193]],[[174.77262,225.5628],[-0.8386,-0.4193],[0,0]]],&quot;closed&quot;:true,&quot;fillColor&quot;:[0,0,0,1]}]}" fill="#ffde00" stroke-width="0.5"></path><path d="M174.86401,231.07383c-0.28502,0.60957 -0.55346,1.23554 -0.81516,1.84544c-0.4753,1.10771 -0.41699,2.44384 -0.89181,3.55176c-0.33528,0.78232 -1.0265,1.39609 -1.48823,2.10978c-1.89836,-0.59523 -3.95144,-0.94803 -5.93953,-0.96975c0.20621,-0.27478 0.3915,-0.56205 0.52512,-0.87609c0.81204,-1.90847 0.64122,-4.27032 1.68922,-6.06012c0.44957,-0.76779 0.93908,-1.53105 1.41908,-2.27149c1.32223,0.66111 3.90244,1.94779 4.96994,2.48154c0,0 0.21034,0.1078 0.53137,0.18894z" data-paper-data="{&quot;noHover&quot;:false,&quot;origItem&quot;:[&quot;Path&quot;,{&quot;applyMatrix&quot;:true,&quot;segments&quot;:[[[174.29063,230.91197],[0,0],[-1.0675,-0.53375]],[[169.37169,228.4525],[1.32223,0.66111],[-0.48,0.74044]],[[167.97564,230.71321],[0.44957,-0.76779],[-1.048,1.7898]],[[166.29339,236.70363],[0.81204,-1.90847],[-0.13362,0.31404]],[[165.7664,237.57752],[0.20621,-0.27478],[1.98809,0.02172]],[[171.65576,238.5325],[-1.89836,-0.59523],[0.46173,-0.71369]],[[173.12238,236.43495],[-0.33528,0.78232],[0.47482,-1.10792]],[[173.99942,232.92678],[-0.4753,1.10771],[0.2617,-0.6099]],[[174.81981,231.09718],[-0.28502,0.60957],[-0.32103,-0.08114]]],&quot;closed&quot;:true,&quot;fillColor&quot;:[0,0,0,1]}]}" fill="#ffde00" stroke-width="0.5"></path><path d="M166.56123,248.27941c-1.53166,-0.4933 -3.18923,-0.84828 -4.79892,-0.97544c0.51666,-1.97823 1.16457,-3.98647 1.86367,-5.82404c0.70311,1.05474 2.1308,1.04776 2.1308,1.04776c1.50792,-0.02183 3.08706,0.27749 4.51158,0.77284c-0.29025,2.01355 -0.3219,4.07385 -0.48599,6.10306c-0.64484,-1.26535 -2.2425,-1.25803 -2.2425,-1.25803l-0.97865,0.13384z" data-paper-data="{&quot;noHover&quot;:false,&quot;origItem&quot;:[&quot;Path&quot;,{&quot;applyMatrix&quot;:true,&quot;segments&quot;:[[166.55176,248.23028],[167.51528,248.10199],[[169.74789,249.36734],[-0.64484,-1.26535],[0.16409,-2.02921]],[[170.2237,243.32302],[-0.29025,2.01355],[-1.42452,-0.49535]],[[165.76119,242.57747],[1.50792,-0.02183],[0,0]],[[163.65178,241.52273],[0.70311,1.05474],[-0.6991,1.83757]],[[161.80811,247.28392],[0.51666,-1.97823],[1.60969,0.12716]],[[166.55177,248.23028],[-1.53166,-0.4933],[0,0]]],&quot;closed&quot;:true,&quot;fillColor&quot;:[0,0,0,1]}]}" fill="#ffde00" stroke-width="0.5"></path><path d="M167.53347,253.05546c0,0 1.10502,0.00176 1.84571,-0.72893c-0.33126,1.74301 -0.80885,3.4795 -0.82771,5.25044l1.15039,2.88038c0,0 0.54492,1.08628 1.62331,1.37082l0.12766,0.37306c3.95648,5.93471 3.23263,14.13588 -0.28743,20.17157c-3.02842,0.07339 -6.03313,0.24647 -8.91899,-0.73765c-0.08535,-2.62353 -1.03902,-4.91717 -4.15216,-5.40971c-1.42917,-0.22612 -2.41467,1.34447 -3.54511,2.44045l-1.18418,-0.57702c-0.48069,-0.14415 -0.94706,-0.34811 -1.39073,-0.59075c1.26882,-0.90346 2.39335,-1.93488 3.24151,-3.16619l2.63158,-2.6307c0.45241,-0.45241 0.72686,-1.08332 0.72686,-1.77368c0,-1.38071 -1.12972,-2.52979 -2.51043,-2.52979c-0.29691,0 -0.48177,0.04921 -0.74597,0.1442l-2.50932,0.83232c-0.9381,0.23901 -1.98699,0.45126 -2.94361,0.62542c-0.0531,-0.89788 -0.06722,-1.82759 -0.07044,-2.83857c0.08758,-0.04204 0.17582,-0.08329 0.26464,-0.12245c2.673,-1.17848 5.74609,-0.78963 8.56191,-1.69652c0,0 1.7382,-0.58646 1.76499,-2.21632c1.28781,-0.99935 0.736,-2.61719 0.736,-2.61719l-0.7944,-2.34009c0.02332,-1.61128 0.18269,-3.29217 0.4446,-4.99414c1.42095,0.01307 2.86879,0.28338 4.20874,0.75038l2.5526,0.13065z" data-paper-data="{&quot;noHover&quot;:false,&quot;origItem&quot;:[&quot;Path&quot;,{&quot;applyMatrix&quot;:true,&quot;segments&quot;:[[167.51528,253.10199],[[164.97062,252.9737],[0,0],[-1.33995,-0.467]],[[160.77607,252.22423],[1.42095,0.01307],[-0.26191,1.70197]],[[160.33552,257.21788],[0.02332,-1.61128],[0,0]],[161.11655,259.4589],[[160.40053,262.17362],[1.28781,-0.99935],[-0.02679,1.62986]],[[158.65837,264.37527],[0,0],[-2.81582,0.90689]],[[150.10875,266.04393],[2.673,-1.17848],[-0.08882,0.03916]],[[149.84417,266.16577],[0.08758,-0.04204],[0.00322,1.01098]],[[149.91435,268.99273],[-0.0531,-0.89788],[0.95662,-0.17416]],[[152.75878,268.38003],[-0.9381,0.23901],[0,0]],[[155.26779,267.54369],[0,0],[0.2642,-0.09499]],[[156.11372,267.39694],[-0.29691,0],[1.38071,0]],[[158.61372,269.89694],[0,-1.38071],[0,0.69036]],[[157.88149,271.66471],[0.45241,-0.45241],[0,0]],[[155.25036,274.29584],[0,0],[-0.84816,1.23131]],[[152.00921,277.46238],[1.26882,-0.90346],[0.44367,0.24264]],[[153.39612,278.04975],[-0.48069,-0.14415],[0,0]],[[154.57646,278.62399],[0,0],[1.13044,-1.09598]],[[158.11415,276.17954],[-1.42917,-0.22612],[3.11314,0.49254]],[[162.24542,281.58512],[-0.08535,-2.62353],[2.88586,0.98412]],[[171.13933,282.33009],[-3.02842,0.07339],[3.52006,-6.03569]],[[171.40879,262.22489],[3.95648,5.93471],[0,0]],[[171.28201,261.85339],[0,0],[-1.07839,-0.28454]],[169.66442,260.49046],[[168.52344,257.61834],[0,0],[0.01886,-1.77094]],[[169.357,252.37131],[-0.33126,1.74301],[-0.74069,0.73069]],[167.51527,253.102]],&quot;closed&quot;:true,&quot;fillColor&quot;:[0,0,0,1]}]}" fill="#ffde00" stroke-width="0.5"></path><path d="M228.7067,231.58201c-4.5685,-1.31366 -8.15574,-3.54374 -11.94969,-6.06419c0.85393,-3.50057 1.85254,-7.02565 2.30411,-10.57284c0.14368,-1.12863 -0.16503,-2.29494 -0.012,-3.42234c0.53162,-3.91656 2.22631,-8.43066 5.05879,-11.40061c0.62872,0.31815 1.26285,0.31692 1.26285,0.31692c3.45322,0 7.09825,0.19647 10.55091,-0.00946c0.4929,-0.02939 1.04366,-0.56744 1.45605,-0.29588c1.43466,0.94471 1.66618,3.01722 2.61903,4.44649c1.34785,2.02177 3.99127,4.6663 4.89444,6.86097c0.40459,0.98313 -1.5976,1.41168 -2.47246,2.01571c-1.22191,0.84365 -2.37084,1.80083 -3.55892,2.69149l-2.07409,2.0394c0,0 -1.76463,1.66782 0.00314,3.43559c1.76776,1.76777 3.50781,0.00785 3.50781,0.00785l1.47392,-1.51061c0.29051,-0.21798 0.58917,-0.41718 0.89985,-0.6154c0.57272,0.2449 1.10299,0.24674 1.10299,0.24674c3.7335,-0.1214 8.79559,2.87746 11.47896,5.4529c1.73982,1.66984 2.85946,5.10358 -0.07415,6.45591c-1.67528,0.77227 -5.35569,-0.36199 -7.03069,-0.9318c-0.00495,-0.00168 -0.07137,-0.08224 -0.07632,-0.08392c0.01636,-0.30793 0.03448,-0.57712 -0.09548,-0.96699c-0.79057,-2.37171 -3.16631,-1.57813 -3.16631,-1.57813c-0.61825,0.20608 -1.24205,0.44227 -1.86003,0.6905c-2.54976,-1.07144 -5.02583,-2.31112 -7.39968,-3.8992l-0.02865,-0.79214c0,0 -1.13834,-2.24448 -3.37441,-1.12645c-2.23606,1.11803 -1.06408,3.27002 -1.06408,3.27002l1.71654,2.71181c1.22181,0.81198 2.49013,1.60719 3.82024,2.36096c-1.19937,0.43051 -2.42054,0.87801 -3.64305,1.06724c-2.13873,0.33105 -2.1124,-0.18025 -4.26961,-0.80055z" data-paper-data="{&quot;noHover&quot;:false,&quot;origItem&quot;:[&quot;Path&quot;,{&quot;applyMatrix&quot;:true,&quot;segments&quot;:[[[228.73024,231.53786],[0,0],[2.15721,0.6203]],[[232.98807,232.33393],[-2.13873,0.33105],[1.22251,-0.18923]],[[236.61851,231.36528],[-1.19937,0.43051],[-1.33011,-0.75377]],[[232.78382,229.00193],[1.22181,0.81198],[0,0]],[231.05746,226.28575],[[232.17549,222.93165],[-2.23606,1.11803],[2.23607,-1.11803]],[235.52959,224.04968],[[235.55732,224.84167],[0,0],[2.37385,1.58808]],[[242.92757,228.74531],[-2.54976,-1.07144],[0.61798,-0.24823]],[[244.78157,228.05827],[-0.61825,0.20608],[0,0]],[[247.94385,229.63941],[-0.79057,-2.37171],[0.12996,0.38987]],[[248.10195,230.68435],[0.01636,-0.30793],[0.00495,0.00168]],[[248.1168,230.6894],[-0.00495,-0.00168],[1.675,0.56981]],[[255.13996,231.62845],[-1.67528,0.77227],[2.93361,-1.35233]],[[255.20741,225.18286],[1.73982,1.66984],[-2.68337,-2.57544]],[[243.81806,219.77433],[3.7335,-0.1214],[0,0]],[[242.71409,219.52943],[0.57272,0.2449],[-0.31068,0.19822]],[[241.80988,220.15137],[0.29051,-0.21798],[0,0]],[240.32356,221.67322],[[236.78803,221.67322],[1.76776,1.76777],[-1.76777,-1.76777]],[236.78803,218.13769],[[238.80988,216.15137],[0,0],[1.18808,-0.89066]],[[242.37412,213.47939],[-1.22191,0.84365],[0.87486,-0.60403]],[[244.84834,211.46685],[0.40459,0.98313],[-0.90317,-2.19467]],[[239.98383,204.62838],[1.34785,2.02177],[-0.95285,-1.42927]],[[237.37614,200.18356],[1.43466,0.94471],[-0.41239,-0.27156]],[[235.92465,200.47937],[0.4929,-0.02939],[-3.45266,0.20593]],[[225.40013,200.47937],[3.45322,0],[0,0]],[[224.1389,200.16122],[0.62872,0.31815],[-2.83248,2.96995]],[[219.09742,211.53548],[0.53162,-3.91656],[-0.15303,1.1274]],[[219.11097,214.94866],[0.14368,-1.12863],[-0.45157,3.54719]],[[216.80243,225.49691],[0.85393,-3.50057],[3.79395,2.52045]],[[228.73023,231.53786],[-4.5685,-1.31366],[0,0]]],&quot;closed&quot;:true,&quot;fillColor&quot;:[0,0,0,1]}]}" fill="#864100" stroke-width="0.5"></path><path d="M201.84401,207.0423c0,0 -0.66598,0.2226 -1.17438,0.7835c-0.06416,-0.00005 -0.12772,-0.00047 -0.19044,-0.00152c-0.92436,-0.0155 -1.7207,0.7266 -2.63261,0.87858c-1.88582,0.3143 -3.83581,0.38989 -5.65559,0.97599c0,0 -0.00952,0.00319 -0.02712,0.00972c-1.45113,-0.65881 -2.70601,0.59569 -2.70601,0.59569c-0.72549,0.72996 -1.44478,1.4866 -2.15084,2.26362c-0.6553,-0.36305 -1.34673,-0.36257 -1.34673,-0.36257l-1.75531,0.00076c-2.15331,0.01259 -4.32866,-0.26581 -6.41472,-0.79988c0,0 -2.39124,-0.59555 -3.02061,1.76458l-0.13387,0.04463c-1.93039,0.65878 -3.6162,1.91032 -5.48902,2.71839c-2.78197,1.20035 -6.10022,1.28339 -8.86655,2.67296c-0.82536,0.41459 -1.38493,1.31006 -2.25946,1.60721c-0.69873,0.23742 -1.48365,-0.19247 -2.21426,-0.08857c-1.32585,0.18855 -2.61617,0.59507 -3.90532,0.95775c-2.48515,0.69915 -5.06062,2.13721 -7.60119,2.56261c-1.69877,0.28445 -3.46587,-0.25536 -5.17141,-0.01474c-2.38713,0.33678 -4.6351,1.40633 -7.0209,1.75232c-2.02525,0.2937 -4.09674,-0.01197 -6.14315,-0.00192c-3.84283,0.9607 -8.48328,1.4714 -12.45577,0.88665c-0.91463,-0.13463 -1.71685,-0.75082 -2.63253,-0.87814c-3.13876,-0.43643 -6.54032,0.51773 -9.65094,-0.00312c-1.82358,-0.30535 -3.44216,-1.44258 -5.26433,-1.75627c-2.20627,-0.37981 -4.94244,-0.05686 -6.98163,-1.41551c-1.51228,-1.00758 -3.76397,-4.58658 -4.6904,-5.65408c-0.70612,-0.81364 -1.80735,-1.29292 -2.34522,-2.22637c-0.29126,-0.50548 -0.4062,-1.09874 -0.56084,-1.66001c0.6669,0.30632 1.35576,0.58164 2.0654,0.82623l2.54421,0.12757c0,0 2.41525,0.05307 2.41525,-2.44693c0,-2.5 -2.50106,-2.5018 -2.50106,-2.5018l-0.96363,0.1281c-4.55863,-1.45095 -8.19048,-4.91247 -9.32565,-9.37748c1.4871,0.77914 3.14619,1.37606 4.7161,1.89431l3.03129,0.03159c0,0 2.40832,0.03993 2.40832,-2.46007c0,-2.5 -2.50077,-2.50192 -2.50077,-2.50192l-2.23083,0.03184c-3.19476,-1.08262 -7.14369,-3.32058 -8.66916,-6.50505c-0.46336,-0.96727 -0.44529,-2.1017 -0.73451,-3.13449c-0.80404,-2.87125 -1.82822,-5.65164 -2.69496,-8.49231c2.01485,1.08192 4.18658,1.96363 6.61873,2.77435l1.56884,0.1439c0,0 2.49981,-0.0013 2.49981,-2.5013c0,-2.5 -2.5002,-2.50173 -2.5002,-2.50173l-0.08646,0.12836c-3.65475,-1.21825 -6.30378,-2.58303 -9.54753,-4.66141c-2.378,-3.65578 -3.04162,-10.08702 1.82031,-12.59342c1.15796,-0.59694 2.72028,-0.05022 4.00454,0.16855c2.12934,0.36273 4.09587,1.46282 6.23437,1.76695c0.73062,0.1039 1.50999,-0.31555 2.21211,-0.08835c2.61207,0.84525 5.05331,4.03317 7.0331,5.67632c3.19505,2.65177 7.10254,4.7584 10.57251,7.05758c-0.00664,0.02537 -0.01309,0.05075 -0.01931,0.07627c-1.14102,4.67882 0.25207,10.31568 0.82625,14.90049c0.49086,3.91948 0.65974,8.87847 2.9815,12.40137c2.25189,3.41688 6.21659,5.87553 9.25315,8.45977c1.0455,0.88977 1.75799,2.18997 2.95246,2.86671c1.29064,0.73123 2.84905,0.81665 4.27481,1.22608c0.78772,-0.52515 1.5749,-1.05075 2.36262,-1.5759l1.72014,0.57284c0.2642,0.09498 0.54847,0.14633 0.84538,0.14633c1.38071,0 2.44073,-1.03875 2.44073,-2.41946c0,-0.29691 -0.05224,-0.58209 -0.14722,-0.84629l-0.86035,-2.57715l-0.04771,0.01588c-0.02376,-0.10829 -0.04996,-0.21638 -0.07844,-0.32388c-0.44052,-1.66303 -2.16845,-2.86477 -2.41287,-4.5677c-0.37361,-2.60304 -0.38894,-5.32375 -0.88172,-7.89885c-0.13078,-0.68338 -0.908,-1.20613 -0.86824,-1.90078c0.07196,-1.2573 1.79422,-2.05687 3.44067,-2.55512c1.77793,1.18459 3.55504,2.3567 5.34012,3.5305c11.88675,4.05656 22.63365,9.14133 34.85516,10.7314c4.07628,0.53034 7.93959,-0.83813 11.87057,-1.44585c0.49012,0.48252 1.0327,1.00074 1.65693,1.62881l0.40895,1.10422c0,0 1.11586,2.23741 3.35193,1.11938c2.23606,-1.11803 1.11542,-3.35226 1.11542,-3.35226l-1.01269,-1.80876c0.23919,-0.35298 0.39814,-0.82463 0.39814,-1.45731c0,-2.5 -2.43732,-2.42209 -2.43732,-2.42209c-0.45134,0.00481 -0.90701,0.03272 -1.36396,0.07693c-0.27489,-0.38814 -0.59338,-0.89502 -0.83674,-1.38546c-0.48227,-0.9719 -0.4028,-2.11939 -1.07466,-2.97132c-0.71921,-0.91198 -2.033,-1.17927 -2.85149,-2.00332c-0.74282,-0.74786 -1.00848,-1.88599 -1.75382,-2.63133c-0.74534,-0.74535 -1.88138,-1.01374 -2.63303,-1.75272c-0.4728,-0.46483 -0.96643,-1.0944 -1.36777,-1.69022c0.66443,-0.14996 1.38092,-0.46141 2.184,-0.99276c0.67149,-0.44429 0.14361,-1.52718 0.15368,-2.39807l0.73145,-0.49532c0.13161,0.05241 0.26286,0.09753 0.37361,0.0902c1.2368,-0.08183 2.72019,0.33894 3.68864,-0.43467c0.80937,-0.64654 1.58655,-2.69933 2.08985,-4.59127c2.76819,4.0635 5.61395,8.07795 8.56375,12.01279l1.98591,2.02244c0,0 0.35395,0.35388 0.90343,0.58664c1.22628,1.81722 2.61858,3.50161 5.16779,3.59621c1.52172,0.05647 2.72106,-1.36841 4.01556,-2.17034c3.3146,-2.05335 4.43473,-4.58993 6.11714,-7.98891c1.66962,-3.37314 2.71201,-7.29799 3.44441,-11.23243c0.31557,-0.62704 0.31547,-1.25488 0.31547,-1.25488c0,-0.1844 0.00023,-0.36837 0.00072,-0.55297c0.10114,-0.61589 0.19569,-1.2278 0.285,-1.83713c-0.0513,0.00208 -0.00289,0.00507 -0.05471,0.00507c-0.03972,0 -0.17928,-0.00256 -0.21871,-0.00379c0.07767,-8.13641 0.45541,-16.39962 -0.91706,-24.29853c-0.40017,-2.30304 0.04836,-5.14649 0.03501,-7.48785c-0.01089,-1.91173 -0.57962,-3.7756 -0.90689,-5.65913c-0.48727,-2.80438 0.07085,-5.05571 -0.8737,-7.88935c0.04613,-3.1881 -0.82179,-8.48301 1.27668,-11.23421c0.71046,-0.93146 3.26213,-1.50466 4.13349,-1.85074c0.52487,-0.20846 0.95774,-0.89337 1.50899,-0.77062c0.78312,0.17438 1.15756,1.14583 1.86565,1.52304c2.04688,1.09039 2.94793,0.0858 4.18711,2.49624c0.46422,0.90301 0.38555,1.99726 0.65332,2.97666c0.46086,1.68563 1.39999,3.24271 1.68858,4.96621c0.55816,3.33346 -0.62794,6.25442 -1.65557,9.33731l-0.12754,2.54596c0,0 0.0011,2.5021 2.5011,2.5021c2.5,0 2.41072,-2.45496 2.41072,-2.45496l-0.12801,-0.96298c1.08314,-3.2494 2.14209,-6.35412 2.04374,-9.73658c1.18037,-0.05079 3.23267,-0.1202 3.8013,0.35864c0.89665,0.75506 1.47417,3.1431 1.77822,4.06831c2.18001,6.63369 2.62931,12.85239 -1.45846,18.88142l-1.75372,2.63245c0,0 -1.38618,2.08247 0.69395,3.46922c2.08013,1.38675 3.36916,-0.67217 3.36916,-0.67217l1.7544,-2.62978c1.90743,-2.90077 3.05694,-5.84928 3.58115,-8.85941c1.23678,0.42364 2.65637,0.9084 3.30499,1.42653c1.70421,1.36137 2.59962,5.97171 1.8941,7.93035c-0.31301,0.86898 -1.18979,1.4342 -1.60692,2.25828c-0.38105,0.75282 -0.26394,1.73223 -0.75765,2.41648c-0.93376,1.29414 -2.45294,2.08498 -3.4094,3.36243c-0.83259,1.112 -1.2586,2.47894 -1.88802,3.71732l-1.67183,2.50073c0,0 -1.38668,2.0824 0.69345,3.46915c2.08013,1.38675 3.36689,-0.69209 3.36689,-0.69209l1.8363,-2.7614c1.27773,-2.60388 3.55118,-4.58565 5.22694,-6.95306c0.20439,-0.28875 0.4322,-0.62829 0.53255,-0.96944c1.6659,0.79856 3.23953,2.0858 3.81794,3.87702c0.46493,1.43982 -0.10711,3.02724 -0.10711,4.54026c0,4.18792 -0.43302,8.21922 -2.3771,12.06395c-0.47565,0.94066 -1.28286,1.68991 -1.75426,2.6327c-1.36354,2.72706 -1.75082,5.03364 -4.47899,6.968c-1.70217,1.2069 -3.91202,1.47865 -5.77644,2.41563c-1.16924,0.58761 -3.67748,2.47692 -4.88918,3.36406c-2.09156,0 -4.17019,0.93181 -5.92545,2.06921c-2.32248,1.50496 -4.38783,2.74512 -6.00425,5.1557c-1.06263,1.58471 -1.80186,3.53962 -2.33894,5.60099c-1.73662,-1.61835 -3.44447,0.08993 -3.44447,0.08993l0.89088,0.14457c-3.74015,0.03983 -7.75895,0.74105 -11.31914,1.88768z" data-paper-data="{&quot;noHover&quot;:false,&quot;origItem&quot;:[&quot;Path&quot;,{&quot;applyMatrix&quot;:true,&quot;segments&quot;:[[[201.80644,207.00924],[0,0],[3.56019,-1.14663]],[[213.12153,205.12686],[-3.74015,0.03983],[0,0]],[212.23081,204.98205],[[215.67449,204.89334],[-1.73662,-1.61835],[0.53708,-2.06137]],[[218.01125,199.29618],[-1.06263,1.58471],[1.61642,-2.41058]],[[224.01339,194.14517],[-2.32248,1.50496],[1.75526,-1.1374]],[[229.93794,192.07848],[-2.09156,0],[1.2117,-0.88714]],[[234.82628,188.71725],[-1.16924,0.58761],[1.86442,-0.93698]],[[240.60219,186.3038],[-1.70217,1.2069],[2.72817,-1.93436]],[[245.08044,179.34014],[-1.36354,2.72706],[0.4714,-0.94279]],[[246.83453,176.70901],[-0.47565,0.94066],[1.94408,-3.84473]],[[249.21145,164.65174],[0,4.18792],[0,-1.51302]],[[249.31872,160.11394],[0.46493,1.43982],[-0.57841,-1.79122]],[[245.50105,156.23927],[1.6659,0.79856],[-0.10035,0.34115]],[[245.06764,157.19564],[0.20439,-0.28875],[-1.67576,2.36741]],[[239.84103,164.15248],[1.27773,-2.60388],[0,0]],[238.00479,166.91554],[[234.53791,167.60892],[2.08013,1.38675],[-2.08013,-1.38675]],[233.84453,164.14204],[[235.51647,161.64284],[0,0],[0.62942,-1.23838]],[[237.40473,157.92771],[-0.83259,1.112],[0.95646,-1.27745]],[[240.81438,154.56698],[-0.93376,1.29414],[0.49371,-0.68425]],[[241.57226,152.1518],[-0.38105,0.75282],[0.41713,-0.82408]],[[243.1794,149.89459],[-0.31301,0.86898],[0.70552,-1.95864]],[[241.28649,141.96873],[1.70421,1.36137],[-0.64862,-0.51813]],[[238.07646,140.51089],[1.23678,0.42364],[-0.52421,3.01013]],[[234.4966,149.37467],[1.90743,-2.90077],[0,0]],[232.74251,152.0058],[[229.27563,152.69918],[2.08013,1.38675],[-2.08013,-1.38675]],[228.58225,149.2323],[[230.33634,146.60117],[0,0],[4.08777,-6.02903]],[[231.79884,127.72945],[2.18001,6.63369],[-0.30405,-0.92521]],[[230.02193,123.66339],[0.89665,0.75506],[-0.56863,-0.47884]],[[226.30501,123.25111],[1.18037,-0.05079],[0.09835,3.38246]],[[224.26364,132.99171],[1.08314,-3.2494],[0,0]],[224.39193,133.95523],[[221.89193,136.45523],[2.5,0],[-2.5,0]],[219.39193,133.95523],[[219.52022,131.41057],[0,0],[1.02763,-3.08289]],[[221.1783,122.07707],[0.55816,3.33346],[-0.28859,-1.7235]],[[219.49163,117.11332],[0.46086,1.68563],[-0.26777,-0.9794]],[[218.83939,114.13792],[0.46422,0.90301],[-1.23918,-2.41044]],[[214.65425,111.64379],[2.04688,1.09039],[-0.70809,-0.37721]],[[212.78967,110.12179],[0.78312,0.17438],[-0.55125,-0.12275]],[[211.28094,110.89266],[0.52487,-0.20846],[-0.87136,0.34608]],[[207.21488,112.66957],[0.71046,-0.93146],[-2.09847,2.7512]],[[205.94175,123.90728],[0.04613,-3.1881],[0.94455,2.83364]],[[206.81879,131.80067],[-0.48727,-2.80438],[0.32727,1.88353]],[[207.72811,137.46339],[-0.01089,-1.91173],[0.01335,2.34136]],[[207.69583,144.95632],[-0.40017,-2.30304],[1.37247,7.89891]],[[208.61755,169.27693],[0.07767,-8.13641],[0.03943,0.00123]],[[208.73628,169.27877],[-0.03972,0],[0.05182,0]],[[208.89097,169.27564],[-0.0513,0.00208],[-0.08931,0.60933]],[[208.6059,171.11457],[0.10114,-0.61589],[-0.00049,0.1846]],[[208.60515,171.66808],[0,-0.1844],[0,0]],[[208.28958,172.92421],[0.31557,-0.62704],[-0.7324,3.93444]],[[204.84277,184.16802],[1.66962,-3.37314],[-1.68241,3.39898]],[[198.72147,192.16611],[3.3146,-2.05335],[-1.2945,0.80193]],[[194.70359,194.34007],[1.52172,0.05647],[-2.54921,-0.0946]],[[189.454,190.68634],[1.22628,1.81722],[-0.54948,-0.23276]],[188.5506,190.09966],[[186.56428,188.07781],[0,0],[-2.9498,-3.93484]],[[177.9951,176.07538],[2.76819,4.0635],[-0.5033,1.89194]],[[175.99337,180.71252],[0.80937,-0.64654],[-0.96845,0.77361]],[[172.30092,181.15213],[1.2368,-0.08183],[-0.11075,0.00733]],[[171.927,181.06228],[0.13161,0.05241],[0,0]],[[171.19401,181.55925],[0,0],[-0.01007,0.87089]],[[171.0371,183.96035],[0.67149,-0.44429],[-0.80308,0.53135]],[[168.84852,184.95659],[0.66443,-0.14996],[0.40134,0.59582]],[[170.16006,186.56412],[-0.4728,-0.46483],[0.75165,0.73898]],[[172.79119,188.31821],[-0.74534,-0.74535],[0.74534,0.74534]],[[174.54528,190.94934],[-0.74282,-0.74786],[0.81849,0.82405]],[[177.39541,192.95371],[-0.71921,-0.91198],[0.67186,0.85193]],[[178.53147,196.00395],[-0.48227,-0.9719],[0.24336,0.49044]],[[179.30816,197.30945],[-0.27489,-0.38814],[0.45695,-0.04421]],[[180.6709,197.23346],[-0.45134,0.00481],[0,0]],[[183.1709,199.73346],[0,-2.5],[0,0.63268]],[[182.77159,201.19169],[0.23919,-0.35298],[0,0]],[183.78401,203.00065],[[182.66598,206.35475],[2.23606,-1.11803],[-2.23607,1.11803]],[179.31188,205.23672],[[178.90314,204.13237],[0,0],[-0.62423,-0.62807]],[[177.24556,202.50394],[0.49012,0.48252],[-3.93098,0.60772]],[[165.36072,203.95528],[4.07628,0.53034],[-12.22151,-1.59007]],[[130.45811,193.20883],[11.88675,4.05656],[-1.78508,-1.1738]],[[125.11306,189.67201],[1.77793,1.18459],[-1.64645,0.49825]],[[121.75576,192.17192],[0.07196,-1.2573],[-0.03976,0.69465]],[[122.62264,194.07076],[-0.13078,-0.68338],[0.49278,2.5751]],[[123.49969,201.96415],[-0.37361,-2.60304],[0.24442,1.70293]],[[125.90889,206.52849],[-0.44052,-1.66303],[0.02848,0.1075]],[[125.98712,206.8522],[-0.02376,-0.10829],[0,0]],[126.03481,206.8363],[[126.8934,209.41207],[0,0],[0.09498,0.2642]],[[127.04014,210.258],[0,-0.29691],[0,1.38071]],[[124.54014,212.758],[1.38071,0],[-0.29691,0]],[[123.69421,212.61126],[0.2642,0.09498],[0,0]],[[121.97288,212.03748],[0,0],[-0.78772,0.52515]],[[119.60971,213.61293],[0.78772,-0.52515],[-1.42576,-0.40943]],[[115.33242,212.38463],[1.29064,0.73123],[-1.19447,-0.67674]],[[112.37761,209.51551],[1.0455,0.88977],[-3.03656,-2.58424]],[[103.11856,201.04782],[2.25189,3.41688],[-2.32176,-3.5229]],[[100.13278,188.63738],[0.49086,3.91948],[-0.57418,-4.58481]],[[99.30388,173.72485],[-1.14102,4.67882],[0.00622,-0.02552]],[[99.32318,173.64852],[-0.00664,0.02537],[-3.46997,-2.29918]],[[88.75047,166.58512],[3.19505,2.65177],[-1.97979,-1.64315]],[[81.71759,160.90519],[2.61207,0.84525],[-0.70212,-0.2272]],[[79.50546,160.99373],[0.73062,0.1039],[-2.1385,-0.30413]],[[73.27116,159.22609],[2.12934,0.36273],[-1.28426,-0.21877]],[[69.36606,159.06807],[1.15796,-0.59694],[-4.86193,2.5064]],[[67.54599,171.65443],[-2.378,-3.65578],[3.24375,2.07838]],[[77.09331,176.31275],[-3.65475,-1.21825],[0,0]],[77.17978,176.18446],[[79.67978,178.68446],[0,-2.5],[0,2.5]],[77.17978,181.18446],[[75.51217,181.05617],[0,0],[-2.43215,-0.81072]],[[68.99253,178.26853],[2.01485,1.08192],[0.86674,2.84067]],[[71.68669,186.75593],[-0.80404,-2.87125],[0.28922,1.03279]],[[72.42078,189.88864],[-0.46336,-0.96727],[1.52547,3.18447]],[[81.08841,196.38874],[-3.19476,-1.08262],[0,0]],[83.31908,196.35646],[[85.81908,198.85646],[0,-2.5],[0,2.5]],[83.31908,201.35646],[[80.28749,201.32418],[0,0],[-1.56991,-0.51825]],[[75.66411,199.39248],[1.4871,0.77914],[1.13517,4.46501]],[[84.98669,208.76336],[-4.55863,-1.45095],[0,0]],[85.95021,208.63507],[[88.45021,211.13507],[0,-2.5],[0,2.5]],[85.95021,213.63507],[[83.40555,213.50678],[0,0],[-0.70964,-0.24459]],[[81.33963,212.67968],[0.6669,0.30632],[0.15464,0.56127]],[[81.9864,214.28855],[-0.29126,-0.50548],[0.53787,0.93345]],[[84.33067,216.51342],[-0.70612,-0.81364],[0.92643,1.0675]],[[89.01862,222.1641],[-1.51228,-1.00758],[2.03919,1.35865]],[[95.99814,223.5771],[-2.20627,-0.37981],[1.82217,0.31369]],[[101.2604,225.33119],[-1.82358,-0.30535],[3.11062,0.52085]],[[110.90788,225.33119],[-3.13876,-0.43643],[0.91568,0.12732]],[[113.53901,226.20823],[-0.91463,-0.13463],[3.97249,0.58475]],[[125.98875,225.31764],[-3.84283,0.9607],[2.04641,-0.01005]],[[132.12805,225.31764],[-2.02525,0.2937],[2.3858,-0.34599]],[[139.1444,223.56355],[-2.38713,0.33678],[1.70554,-0.24062]],[[144.31166,223.5771],[-1.69877,0.28445],[2.54057,-0.4254]],[[151.90654,221.01339],[-2.48515,0.69915],[1.28915,-0.36268]],[[155.80822,220.05538],[-1.32585,0.18855],[0.73061,-0.1039]],[[158.02035,220.14392],[-0.69873,0.23742],[0.87453,-0.29715]],[[160.27756,218.53678],[-0.82536,0.41459],[2.76633,-1.38957]],[[169.13499,215.86515],[-2.78197,1.20035],[1.87282,-0.80807]],[[174.61806,213.1486],[-1.93039,0.65878],[0,0]],[[174.75179,213.10402],[0,0],[0.62937,-2.36013]],[[177.76906,211.34086],[0,0],[2.08606,0.53407]],[[184.17907,212.14326],[-2.15331,0.01259],[0,0]],[185.93316,212.14326],[[187.27916,212.50631],[-0.6553,-0.36305],[0.70606,-0.77702]],[[189.42765,210.24437],[-0.72549,0.72996],[0,0]],[[192.13183,209.65013],[-1.45113,-0.65881],[0.0176,-0.00653]],[[192.15893,209.64043],[0,0],[1.81978,-0.5861]],[[197.8113,208.66738],[-1.88582,0.3143],[0.91191,-0.15198]],[[200.44243,207.79034],[-0.92436,-0.0155],[0.06272,0.00105]],[[200.6328,207.79194],[-0.06416,-0.00005],[0.5084,-0.5609]],[201.8064,207.00931]],&quot;closed&quot;:true,&quot;fillColor&quot;:[0,0,0,1]}]}" fill="#864100" stroke-width="0.5"></path><path d="M122.34194,185.42721c-0.05642,0.11283 -0.17988,0.28829 -0.21993,0.39543c-1.09718,0.3671 -2.05251,0.75541 -2.81956,1.58642c-1.07513,1.16477 -2.13621,2.51521 -2.4653,4.06579c-0.24072,1.13422 0.71517,2.21405 0.88492,3.36105c0.25064,1.69354 0.27484,3.57852 0.46613,5.37518c-1.06916,-1.28439 -2.0432,-2.65451 -2.83931,-4.17182c-0.71413,-1.36107 -0.4051,-3.05113 -0.65778,-4.56725c-0.07548,-0.45286 -1.35594,-3.15485 -0.9546,-4.14065c0.34827,-0.85546 1.18808,-1.43468 1.60653,-2.25809c0.43141,-0.8489 0.88668,-3.60295 1.90106,-4.37667c1.23018,-0.93831 3.0414,-0.96779 4.52912,-1.3926c5.18616,-1.48088 9.73713,-1.66621 15.0774,-1.66621c5.40565,-0.02655 8.69613,-1.44254 13.34617,-3.77384c2.18656,-1.09624 4.76735,-1.45345 6.66684,-2.99446c0.85781,-0.69592 1.07765,-1.945 1.85669,-2.72808c0.81914,-0.82339 1.89268,-1.32445 2.84272,-1.99258l0.45127,-0.91686c0.94105,1.33247 2.46287,2.30699 3.04496,3.82882l-0.75183,1.84554c0,0 -0.86983,2.31086 1.50188,3.10143c2.37171,0.79057 3.15792,-1.57504 3.15792,-1.57504l1.00167,-3.41437c-0.41681,-1.31516 -0.55169,-2.74915 -1.25292,-3.93727c-0.63044,-1.06816 -1.94349,-1.59313 -2.63207,-2.62476c-0.55723,-0.83484 -0.38536,-2.04471 -1.01679,-2.82495c-1.50531,-1.86006 -3.78694,-2.91489 -5.47301,-4.61281c0,0 -0.0926,-0.09223 -0.25798,-0.21465c6.72579,-2.46244 11.49021,-8.63886 11.49021,-15.94991c-1.10186,-3.33779 -2.7036,-6.21796 -3.95055,-9.46158c1.12676,-1.32696 0.06703,-2.91805 0.06703,-2.91805c-0.5847,-0.87704 -1.16629,-1.75274 -1.75099,-2.62978l-0.30914,-0.45002c0.66826,-0.22276 1.33833,-0.44477 2.00659,-0.66753c0.54496,0.40786 1.92079,1.16855 3.29354,-0.2042c0.13323,-0.13323 0.24648,-0.26639 0.34182,-0.39886c1.7859,0.85973 3.4975,1.88682 5.08185,3.19917c2.96907,2.45933 5.06602,5.99223 7.3616,9.03757c0.61754,1.21854 1.05234,2.55445 1.8555,3.6595c0.62099,0.8544 1.8297,1.21081 2.35146,2.12916c0.27749,0.48841 -0.17096,1.11443 -0.18951,1.67586c-0.11623,3.51753 -0.79314,6.40069 -1.66626,9.89317c-1.74567,6.9827 -2.97287,12.21367 -7.46613,17.42407c-0.05423,0.00696 -0.10926,0.01625 -0.16501,0.02777c-1.24663,-0.25437 -2.24597,0.74662 -2.24597,0.74662l-1.5364,2.04285c-0.1998,0.80099 -0.44633,1.59683 -0.6412,2.39885c-0.80216,0.86416 -1.6976,1.58513 -2.96863,2.00916c-0.87644,-0.32491 -1.77887,-0.02281 -1.77887,-0.02281l-2.63477,0.88094c-0.75597,0.25199 -1.524,0.50412 -2.29468,0.74141c-0.19795,0.02839 -0.40206,0.08663 -0.60406,0.18361c-3.09713,0.92338 -6.31267,1.63713 -9.49293,1.59111c-3.43522,0.03657 -6.68012,1.48512 -10.14929,0.90693c-1.04066,-0.17344 -1.98353,-0.92811 -3.03842,-0.91242c-2.53627,0.03773 -3.40012,1.40198 -5.66941,1.78196c-1.83779,0.30772 -4.05501,-0.65225 -5.82412,0.15293c-1.21707,0.55393 -1.67193,2.03423 -2.83357,2.69656c-0.02573,0.01468 -0.1242,0.09793 -0.15016,0.11226l-0.20402,-0.10431c0,0 -2.23739,-1.11951 -3.35542,1.11656z" data-paper-data="{&quot;noHover&quot;:false,&quot;origItem&quot;:[&quot;Path&quot;,{&quot;applyMatrix&quot;:true,&quot;segments&quot;:[[[122.30409,185.45979],[0,0],[1.11803,-2.23607]],[125.65819,184.34176],[[125.86199,184.44584],[0,0],[0.02596,-0.01433]],[[125.93953,184.40233],[-0.02573,0.01468],[1.16164,-0.66233]],[[128.8457,181.637],[-1.21707,0.55393],[1.76911,-0.80518]],[[134.66421,181.47898],[-1.83779,0.30772],[2.26929,-0.37998]],[[140.32692,179.69262],[-2.53627,0.03773],[1.05489,-0.01569]],[[143.35851,180.60194],[-1.04066,-0.17344],[3.46917,0.57819]],[[153.48258,179.69262],[-3.43522,0.03657],[3.18026,0.04602]],[[162.95388,178.11062],[-3.09713,0.92338],[0.202,-0.09698]],[[163.55683,177.92785],[-0.19795,0.02839],[0.77068,-0.23729]],[[165.84766,177.18978],[-0.75597,0.25199],[0,0]],[168.47879,176.31273],[[170.25625,176.3373],[-0.87644,-0.32491],[1.27103,-0.42403]],[[173.22129,174.33352],[-0.80216,0.86416],[0.19487,-0.80202]],[[173.86035,171.9388],[-0.1998,0.80099],[0,0]],[175.39498,169.90033],[[177.64017,169.15614],[-1.24663,-0.25437],[0.05575,-0.01152]],[[177.80514,169.12849],[-0.05423,0.00696],[4.49326,-5.2104]],[[185.27102,151.73148],[-1.74567,6.9827],[0.87312,-3.49248]],[[186.94135,141.84863],[-0.11623,3.51753],[0.01855,-0.56143]],[[187.13165,140.17421],[0.27749,0.48841],[-0.52176,-0.91835]],[[184.78211,138.04814],[0.62099,0.8544],[-0.80316,-1.10505]],[[182.9295,134.39252],[0.61754,1.21854],[-2.29558,-3.04534]],[[175.57776,125.36407],[2.96907,2.45933],[-1.58435,-1.31235]],[[170.50177,122.16844],[1.7859,0.85973],[-0.09534,0.13247]],[[170.16007,122.56736],[0.13323,-0.13323],[-1.37275,1.37275]],[[166.86961,122.773],[0.54496,0.40786],[-0.66826,0.22276]],[[164.86483,123.44126],[0.66826,-0.22276],[0,0]],[[165.21016,123.79806],[0,0],[0.5847,0.87704]],[[166.96425,126.42919],[-0.5847,-0.87704],[0,0]],[[166.89871,129.34798],[1.12676,-1.32696],[1.24695,3.24362]],[[170.86002,138.81705],[-1.10186,-3.33779],[0,7.31105]],[[159.37673,154.77475],[6.72579,-2.46244],[0.16538,0.12242]],[[159.63555,154.99061],[0,0],[1.68607,1.69792]],[[165.11681,159.62611],[-1.50531,-1.86006],[0.63143,0.78024]],[[166.13371,162.4604],[-0.55723,-0.83484],[0.68858,1.03163]],[[168.76484,165.09153],[-0.63044,-1.06816],[0.70123,1.18812]],[[170.01526,169.03699],[-0.41681,-1.31516],[0,0]],[169.00992,172.45869],[[165.84764,174.03982],[2.37171,0.79057],[-2.37171,-0.79057]],[164.2665,170.87755],[[165.01525,169.03699],[0,0],[-0.58209,-1.52183]],[[161.96711,165.21536],[0.94105,1.33247],[0,0]],[[161.60863,166.16926],[0,0],[-0.95004,0.66813]],[[158.7585,168.17363],[0.81914,-0.82339],[-0.77904,0.78308]],[[156.89115,170.91119],[0.85781,-0.69592],[-1.89949,1.54101]],[[150.19572,173.91391],[2.18656,-1.09624],[-4.65004,2.3313]],[[136.81874,177.6763],[5.40565,-0.02655],[-5.34027,0]],[[121.73093,179.33069],[5.18616,-1.48088],[-1.48772,0.42481]],[[117.28718,180.67124],[1.23018,-0.93831],[-1.01438,0.77372]],[[115.38435,185.04511],[0.43141,-0.8489],[-0.41845,0.82341]],[[113.77721,187.30232],[0.34827,-0.85546],[-0.40134,0.9858]],[[114.72924,191.43966],[-0.07548,-0.45286],[0.25268,1.51612]],[[115.38435,196.004],[-0.71413,-1.36107],[0.79611,1.51731]],[[118.22004,200.17251],[-1.06916,-1.28439],[-0.19129,-1.79666]],[[117.68719,194.87171],[0.25064,1.69354],[-0.16975,-1.147]],[[116.79999,191.50829],[-0.24072,1.13422],[0.32909,-1.55058]],[[119.26419,187.44123],[-1.07513,1.16477],[0.76705,-0.83101]],[[122.15972,185.78979],[-1.09718,0.3671],[0.04005,-0.10714]],[[122.30407,185.45984],[-0.05642,0.11283],[0,0]]],&quot;closed&quot;:true,&quot;fillColor&quot;:[0,0,0],&quot;strokeWidth&quot;:0.5}]}" fill="#cd894a" stroke-width="0.25"></path><path d="M139.91165,154.53681c2.81246,1.2779 6.01592,1.19545 9.23243,1.19545c0.8489,0 5.71603,0.01119 6.45734,-0.02174c-0.76318,1.49232 0.54812,2.80835 0.54812,2.80835c0.75221,0.74761 1.45044,1.5606 2.22475,2.28374c-0.13691,0.24478 -0.19704,0.42609 -0.19704,0.42609l-0.49215,1.90805c-0.80405,0.50127 -1.74043,0.83946 -2.41244,1.50742c-0.71186,0.70756 -0.88233,1.87507 -1.64202,2.531c-1.43937,1.24278 -3.96089,1.45865 -5.58695,2.2696c-4.01558,2.00264 -6.50176,3.30624 -11.20844,3.27872c-5.79649,0 -10.90565,0.2317 -16.53774,1.84176c-0.6911,0.19756 -5.7111,1.86017 -6.00594,2.10155c-1.80759,1.47986 -2.32958,4.05183 -3.36239,6.14722c-0.52403,1.06316 -1.56943,1.86642 -1.90193,3.00412c-0.60195,2.05962 0.44426,4.26619 0.79703,6.38277c0.33212,1.99272 0.2158,4.13812 1.0946,5.95718c1.94726,4.03068 5.1757,7.16819 8.31238,10.27055c-0.09032,0.06021 -0.20934,0.2162 -0.29966,0.27641c-1.29386,-0.69068 -2.18657,-1.9615 -3.29642,-2.92033c-2.60221,-2.24811 -6.30562,-4.39367 -8.29213,-7.32467c-1.94027,-2.86278 -1.88795,-7.22285 -2.28426,-10.39946c-0.4927,-3.94918 -1.97354,-9.13933 -0.93426,-13.16651c0.29366,-1.13792 1.16151,-2.05123 1.62925,-3.12934c1.22843,-2.8315 1.46596,-4.8686 3.03559,-6.69759c2.22139,1.28215 5.00276,2.1082 7.11404,2.81696c0,0 2.27676,0.82194 3.06733,-1.54977c0.79057,-2.37171 -1.58326,-3.17328 -1.58326,-3.17328c-1.41308,-0.46723 -3.52835,-1.02116 -5.25437,-1.85614c0.02887,-0.45395 -0.08952,-0.97889 -0.47233,-1.5531c-0.74092,-1.11137 -1.67955,-1.23489 -2.39332,-1.10722c-0.84852,-2.00848 -1.2361,-5.49225 -1.66835,-6.9891c-1.18396,-4.09995 -0.58454,-7.12824 0.0756,-11.19276c0.12336,-0.7595 -0.3198,-1.58006 -0.07335,-2.30897c0.30591,-0.90479 1.27217,-1.47006 1.6505,-2.34704c0.47746,-1.10678 0.4152,-2.39865 0.88012,-3.51076c0.87473,-2.09242 2.51776,-3.7959 3.99446,-5.51716c2.12644,-2.47862 4.02119,-4.56535 7.11289,-5.53552c0.75241,-0.53572 1.38453,-1.31398 2.26015,-1.60791c0.72944,-0.24486 1.55093,0.20236 2.30968,0.07448c3.28806,-0.55418 7.14728,-1.89095 10.38794,-2.61313c5.36641,-1.19591 11.37276,-2.48305 16.99984,-1.75515c3.0649,0.39646 6.18264,2.39095 9.1586,3.63373c-0.28831,0.0961 -0.63252,0.27512 -0.92083,0.37122c-3.31561,1.1052 -8.12462,1.85703 -11.04094,3.7573c-2.98096,1.94239 -5.11458,4.90643 -7.46438,7.37725c-1.60637,1.68909 -2.55517,1.1388 -4.58678,2.15461c-0.00608,0.00304 -0.34822,0.25857 -0.84059,0.60085c-1.06057,0.02079 -1.6512,0.70571 -1.95666,1.25061c-0.56945,0.3176 -1.07776,0.54285 -1.35984,0.52621c-0.79371,-0.0468 -1.44272,-0.71179 -2.22661,-0.84476c-0.75861,-0.12868 -1.57356,0.31951 -2.303,0.07465c-0.87562,-0.29393 -1.43042,-1.18924 -2.25383,-1.60768c-0.82417,-0.41883 -1.79815,-0.46919 -2.62737,-0.87792c-3.24156,-1.59777 -2.85879,-3.08639 -7.07674,-1.90415c-1.24796,0.34979 -2.19083,1.37516 -3.28863,2.06406c0,0 -2.07708,1.38468 -0.69033,3.46481c1.38676,2.08013 3.41124,0.61038 3.41124,0.61038c0.10552,-0.07725 0.2607,-0.07266 0.36294,-0.15549c-2.19337,5.55824 -2.30879,10.66818 1.49955,16.19725c0.75176,1.09144 1.17546,2.37809 2.2323,3.17777c3.65722,2.76732 8.6282,1.09967 12.49114,0.45585c1.88583,-0.3143 3.86041,-0.37479 5.68019,-0.96089z" data-paper-data="{&quot;noHover&quot;:false,&quot;origItem&quot;:[&quot;Path&quot;,{&quot;applyMatrix&quot;:true,&quot;segments&quot;:[[[139.36342,154.74485],[0,0],[-1.81978,0.5861]],[[133.71105,155.7179],[1.88583,-0.3143],[-3.86294,0.64382]],[[121.26859,155.23695],[3.65722,2.76732],[-1.05684,-0.79968]],[[118.95186,152.00581],[0.75176,1.09144],[-3.80834,-5.52907]],[[117.46759,135.79436],[-2.19337,5.55824],[-0.10224,0.08283]],[[117.15647,136.03537],[0.10552,-0.07725],[0,0]],[[113.68959,135.34199],[1.38676,2.08013],[-1.38675,-2.08013]],[[114.38297,131.87512],[0,0],[1.0978,-0.6889]],[[117.67639,129.80843],[-1.24796,0.34979],[4.21795,-1.18224]],[[124.76149,131.70946],[-3.24156,-1.59777],[0.82922,0.40873]],[[127.39262,132.5865],[-0.82417,-0.41883],[0.82341,0.41844]],[[129.64983,134.19365],[-0.87562,-0.29393],[0.72944,0.24486]],[[131.95695,134.11866],[-0.75861,-0.12868],[0.78389,0.13297]],[[134.18763,134.96342],[-0.79371,-0.0468],[0.28208,0.01664]],[[135.54989,134.43737],[-0.56945,0.3176],[0.30546,-0.5449]],[[137.50969,133.18714],[-1.06057,0.02079],[0.49237,-0.34228]],[[138.3515,132.58649],[-0.00608,0.00304],[2.03161,-1.01581]],[[142.94438,130.43338],[-1.60637,1.68909],[2.3498,-2.47082]],[[150.41417,123.05818],[-2.98096,1.94239],[2.91632,-1.90027]],[[161.46245,119.30493],[-3.31561,1.1052],[0.28831,-0.0961]],[[162.32738,119.01662],[-0.28831,0.0961],[-2.97596,-1.24278]],[[153.17712,115.38748],[3.0649,0.39646],[-5.62708,-0.7279]],[[136.19363,117.14661],[5.36641,-1.19591],[-3.24066,0.72218]],[[125.81765,119.75914],[3.28806,-0.55418],[-0.75875,0.12788]],[[123.51053,119.68415],[0.72944,-0.24486],[-0.87562,0.29393]],[[121.25331,121.2913],[0.75241,-0.53572],[-3.0917,0.97017]],[[114.15018,126.82282],[2.12644,-2.47862],[-1.4767,1.72126]],[[110.16261,132.3355],[0.87473,-2.09242],[-0.46492,1.11211]],[[109.28557,135.84367],[0.47746,-1.10678],[-0.37833,0.87698]],[[107.63793,138.18788],[0.30591,-0.90479],[-0.24645,0.72891]],[[107.71292,140.49501],[0.12336,-0.7595],[-0.66014,4.06452]],[[107.6455,151.67419],[-1.18396,-4.09995],[0.43225,1.49685]],[[109.31701,158.65141],[-0.84852,-2.00848],[0.71377,-0.12767]],[[111.71054,159.75685],[-0.74092,-1.11137],[0.38281,0.57421]],[[112.1831,161.30638],[0.02887,-0.45395],[1.72602,0.83498]],[[117.43733,163.1571],[-1.41308,-0.46723],[0,0]],[[119.01846,166.31938],[0.79057,-2.37171],[-0.79057,2.37171]],[[115.85619,167.90052],[0,0],[-2.11128,-0.70876]],[[108.83896,165.06071],[2.22139,1.28215],[-1.56963,1.82899]],[[105.80082,171.74778],[1.22843,-2.8315],[-0.46774,1.07811]],[[104.17016,174.87362],[0.29366,-1.13792],[-1.03928,4.02718]],[[105.09535,188.02647],[-0.4927,-3.94918],[0.39631,3.17661]],[[107.37184,198.41916],[-1.94027,-2.86278],[1.98651,2.931]],[[115.65365,205.73825],[-2.60221,-2.24811],[1.10985,0.95883]],[[118.94607,208.65718],[-1.29386,-0.69068],[0.09032,-0.06021]],[[119.21701,208.47656],[-0.09032,0.06021],[-3.13668,-3.10236]],[[110.89281,198.20075],[1.94726,4.03068],[-0.8788,-1.81906]],[[109.79384,192.24057],[0.33212,1.99272],[-0.35277,-2.11658]],[[108.99179,185.85339],[-0.60195,2.05962],[0.3325,-1.1377]],[[110.89282,182.84834],[-0.52403,1.06316],[1.03281,-2.09539]],[[114.25225,176.69769],[-1.80759,1.47986],[0.29484,-0.24138]],[[120.33303,174.53007],[-0.6911,0.19756],[5.63209,-1.61006]],[[136.81878,172.67628],[-5.79649,0],[4.70668,0.02752]],[[147.99901,169.42232],[-4.01558,2.00264],[1.62606,-0.81095]],[[153.58219,167.16279],[-1.43937,1.24278],[0.75969,-0.65593]],[[155.22302,164.63808],[-0.71186,0.70756],[0.67201,-0.66796]],[[157.63515,163.13428],[-0.80405,0.50127],[0,0]],[158.12726,161.23007],[[158.32433,160.80481],[-0.13691,0.24478],[-0.77431,-0.72314]],[[156.10006,158.52615],[0.75221,0.74761],[0,0]],[[155.5532,155.72379],[-0.76318,1.49232],[-0.74131,0.03293]],[[149.0974,155.75021],[0.8489,0],[-3.21651,0]],[[139.87764,154.57347],[2.81246,1.2779],[0,0]]],&quot;closed&quot;:true,&quot;fillColor&quot;:[0,0,0],&quot;strokeWidth&quot;:0.5}]}" fill="#cd894a" stroke-width="0.25"></path><path d="M158.05248,170.8887c0,0.37667 -0.05675,0.69659 -0.15315,0.9683c0.73932,0.79337 1.54296,1.42782 2.24973,2.45803c0.80477,1.20715 1.72976,2.52479 2.32791,3.93579c0.15922,-0.0461 0.3182,-0.09285 0.47692,-0.14017c0.202,-0.09698 0.405,-0.15438 0.60295,-0.18277c0.77068,-0.23729 1.53486,-0.48608 2.29083,-0.73807l2.63113,-0.87705c0,0 0.90102,-0.30034 1.77746,0.02457c1.27103,-0.42403 2.16288,-1.13962 2.96504,-2.00378c0.19487,-0.80202 0.43926,-1.59373 0.63906,-2.39472l1.53463,-2.03847c0,0 0.99856,-0.99856 2.24519,-0.74419c0.05575,-0.01152 0.11074,-0.02069 0.16497,-0.02765c4.49326,-5.2104 5.72021,-10.41431 7.46588,-17.39701c0.87312,-3.49248 1.5541,-6.36532 1.67033,-9.88285c0.01855,-0.56143 0.46779,-1.18601 0.1903,-1.67442c-0.52176,-0.91835 -1.72855,-1.27167 -2.34954,-2.12607c-0.80316,-1.10505 -1.23507,-2.43708 -1.85261,-3.65562c-2.29558,-3.04534 -4.38267,-6.56912 -7.35174,-9.02845c-1.58435,-1.31235 -3.29009,-2.3359 -5.07599,-3.19563c-0.09534,0.13247 -0.20847,0.26569 -0.3417,0.39892c-1.37275,1.37275 -2.7455,0.6135 -3.29046,0.20564c-0.66826,0.22276 -1.33652,0.4455 -2.00478,0.66826l0.34533,0.3568c0.5847,0.87704 1.16939,1.75409 1.75409,2.63113c0,0 1.06122,1.59183 -0.06554,2.91879c1.24695,3.24362 2.85945,6.13128 3.96131,9.46907c0,7.31105 -4.7575,13.49526 -11.48329,15.9577c0.16538,0.12242 0.25882,0.21586 0.25882,0.21586c1.68607,1.69792 3.97595,2.77544 5.48126,4.6355c0.63143,0.78024 0.45967,1.99945 1.0169,2.83429c0.68858,1.03163 2.00069,1.56297 2.63113,2.63113c0.70123,1.18812 0.83361,2.6303 1.25042,3.94546l-1.00534,3.4217c0,0 -0.79057,2.3717 -3.16228,1.58113c-2.37171,-0.79057 -1.58114,-3.16227 -1.58114,-3.16227l0.74875,-1.84056c-0.58209,-1.52183 -2.10709,-2.48916 -3.04814,-3.82163l-0.35848,0.9539c-0.95004,0.66813 -2.03099,1.18098 -2.85013,2.00437c-0.41707,0.41923 -0.67692,0.97474 -0.95997,1.50723c0.15647,0.31795 0.25395,0.71413 0.25395,1.2078zM152.59097,185.51795c-0.34135,-0.22325 -0.66566,-0.46553 -0.97593,-0.72335c-2.00278,0.23214 -3.82348,0.77509 -6.02584,0.77509c-1.77828,0 -3.48447,-0.83512 -5.26226,-0.87704c-1.71875,-0.04054 -3.16581,1.44011 -4.86181,1.7218c-1.54834,0.25717 -3.34376,-0.93762 -4.706,-0.15802c-0.29491,0.16877 -0.53486,0.40732 -0.75248,0.67421c0.88405,0.59362 1.76687,1.18906 2.64824,1.78664c4.25411,1.37534 9.15229,2.40365 13.15565,4.38522c2.29522,1.13608 2.21507,2.05832 4.56434,2.4092c0.97455,0.14555 2.01869,-0.23163 2.95513,0.07499c1.00175,0.328 1.63317,1.41476 2.63113,1.75409c0.72849,0.2477 1.54763,-0.19834 2.30713,-0.07499c2.65391,0.43104 5.23854,1.33217 7.89339,1.75409c2.56923,0.40831 5.24651,-0.14588 7.91735,-0.74192c-0.01301,-0.02557 -0.02603,-0.0513 -0.03908,-0.0772c-0.34439,-0.68374 -0.13419,-1.61871 -0.61802,-2.21202c-0.5988,-0.7343 -1.73963,-0.83635 -2.41213,-1.5038c-0.74815,-0.74253 -1.00874,-1.88579 -1.75409,-2.63113c-0.74534,-0.74534 -1.89121,-1.00336 -2.63113,-1.75409c-1.74452,-1.77001 -3.09112,-4.1519 -4.09712,-6.52746c-1.69527,3.47528 -6.63088,4.10766 -9.93647,1.94569zM145.52157,177.60921c-0.63122,0.09829 -1.40161,-0.03137 -2.10406,-0.83775c-1.97526,0.57511 -4.0565,0.89238 -6.59876,0.90487c-5.34027,0 -9.90165,0.17351 -15.08781,1.65439c-1.48772,0.42481 -3.21357,0.40224 -4.44375,1.34055c-1.01438,0.77372 -1.47142,3.52497 -1.90283,4.37387c-0.41845,0.82341 -1.25887,1.40175 -1.60714,2.25721c-0.40134,0.9858 0.87655,3.68448 0.95203,4.13734c0.25268,1.51612 -0.05902,3.20327 0.65511,4.56434c0.79611,1.51731 1.76653,2.88412 2.83569,4.16851c-0.19129,-1.79666 -0.28221,-3.60726 -0.53285,-5.3008c-0.16975,-1.147 -1.12792,-2.2292 -0.8872,-3.36342c0.32909,-1.55058 1.38907,-2.90229 2.4642,-4.06706c0.76705,-0.83101 1.79835,-1.28434 2.89553,-1.65144c0.04005,-0.10714 0.08793,-0.21712 0.14435,-0.32995l0.00002,-0.00005c1.11803,-2.23607 3.3541,-1.11803 3.3541,-1.11803l0.2038,0.10408c0.02596,-0.01433 0.05181,-0.02883 0.07754,-0.04351c1.16164,-0.66233 1.6891,-2.2114 2.90617,-2.76533c1.76911,-0.80518 3.98072,0.1497 5.81851,-0.15802c2.26929,-0.37998 3.12644,-1.74863 5.66271,-1.78636c1.05489,-0.01569 1.99093,0.73588 3.03159,0.90932c1.53206,0.25534 3.01547,0.11494 4.49027,-0.12461c-0.74651,-0.99779 -1.4938,-1.98698 -2.32722,-2.86815zM155.55248,173.3887l-0.05625,-0.03402c-0.79032,0.12715 -1.54028,0.27853 -2.25947,0.46361c0.91461,1.46325 1.61653,2.96668 2.53535,4.44135l-0.00001,0.00001c0.37332,0.07854 1.00262,0.34305 1.00733,1.2338c1.08594,-0.1399 2.16902,-0.34604 3.24482,-0.59719c-0.54674,-1.1631 -1.39758,-2.26034 -2.00033,-3.16447c-0.63489,-0.99087 -1.3932,-1.61533 -2.12932,-2.37445c-0.20718,0.03135 -0.34212,0.03135 -0.34212,0.03135zM150.85575,174.83577c0,0 -0.04675,-0.07013 -0.09822,-0.18637c-1.02538,0.4356 -2.00423,0.98047 -2.97268,1.67038c0.98758,1.14771 1.87084,2.44014 2.81814,3.66642c0.94961,-0.1592 1.90594,-0.28319 2.87959,-0.29355c0.05886,0.00085 0.11773,0.00145 0.1766,0.00179c-1.00213,-1.61391 -1.74734,-3.30105 -2.80343,-4.85867zM214.48057,242.46764c0.37402,0.74805 0.37267,1.37097 0.20524,1.86877c1.01585,2.45833 2.57819,4.70799 3.43857,7.22913l0.2731,-0.10015c0,0 1.76777,1.76777 0,3.53553c-1.04576,1.04576 -2.09152,0.85424 -2.77131,0.52334c0.94131,2.80867 3.12693,2.43605 5.40244,4.71156c0.22555,0.22555 3.50089,5.16381 3.82053,5.64328c1.92245,2.88367 3.71932,5.57865 4.1763,8.73487c0.69742,0.26451 1.50583,0.87773 1.50583,2.29936c0,1.6592 -1.10118,2.21722 -1.84187,2.4049c-1.01902,3.68851 -3.09749,5.98552 -6.51421,7.70294c-1.34057,0.67384 -2.93251,1.53946 -4.36578,1.09572c-3.331,-1.03129 -4.60144,-3.69976 -5.05774,-6.53691c-2.42484,4.34722 -7.82004,9.99262 -12.18277,4.68852c-2.44203,-2.96896 0.61595,-6.00271 1.41751,-8.41242c0.32327,-0.97183 0.42877,-1.99947 0.58971,-3.01422l-0.3883,-0.20234c-2.72369,1.93765 -4.75522,3.15016 -7.14421,4.09937l0.16971,0.25457l-2.60269,1.73513c-0.40239,0.27681 -0.88987,0.43883 -1.41519,0.43883c-1.38071,0 -2.5,-1.11929 -2.5,-2.5c0,-0.52532 0.16203,-1.0128 0.43883,-1.41519l1.73513,-2.60269c1.18015,-1.77022 2.26749,-3.56674 3.31878,-5.37301c-0.31,-0.547 -0.4436,-1.29755 0.03345,-2.25166c0.54775,-1.0955 1.36386,-1.38594 2.0539,-1.3972c1.45686,-2.56662 2.9179,-5.13052 4.54444,-7.64468c-1.75013,-1.16229 -4.46567,-3.00373 -4.81237,-3.57018c-0.59521,-0.97247 -0.05202,-2.28995 -0.26353,-3.41032c-0.17151,-0.90844 -0.5847,-1.75409 -0.87704,-2.63113c-0.00377,-0.35441 -0.00668,-0.70636 -0.0085,-1.05616c-0.4892,-0.3582 -0.90082,-0.961 -0.90082,-1.97543c0,-1.04161 0.43398,-1.64924 0.94031,-2.0037c0.05872,-2.04745 0.18713,-4.05792 0.43222,-6.09801c-0.14231,-0.20661 -0.26736,-0.45568 -0.36719,-0.75519c-0.49063,-1.4719 0.23669,-2.33481 0.8592,-2.77772c0.08049,-1.50798 -0.31841,-3.05651 -0.07817,-4.55261c0.46211,-2.87774 0.82809,-5.80931 1.68328,-8.63098c-0.73314,-0.21819 -1.71556,-0.80295 -1.71556,-2.37013c0,-2.5 2.5,-2.5 2.5,-2.5c0.18341,0 0.36681,-0.00003 0.55021,-0.00009c0.21712,-0.76615 0.45705,-1.51383 0.73601,-2.1798c-1.85025,0.47103 -3.95818,0.28506 -5.75792,0.9123c0,0 -0.67694,0.22565 -1.42806,0.07418c-2.06753,2.25589 -3.3317,4.63781 -5.32254,7.03247c-3.33676,4.01358 -6.34373,8.61431 -8.4175,13.45911c-0.47433,1.10813 -0.40222,2.40025 -0.87704,3.50817c-0.41522,0.96885 -1.33395,1.6644 -1.75409,2.63113c-1.69627,3.90313 -0.93536,7.69902 -1.57265,11.66768c-0.17951,1.1179 -0.52342,2.22109 -0.71259,3.33655c1.09139,0.40502 1.49363,1.61173 1.49363,1.61173l0.75112,2.32332c4.52641,6.78962 3.94541,16.25964 0.2759,23.47503c0.21755,1.22278 -0.75392,2.19424 -0.75392,2.19424l-0.84093,0.51168c-0.17184,0.25295 -0.3479,0.50157 -0.52807,0.74556c-0.51171,1.09228 -0.75185,2.35956 -1.53512,3.27684c-1.17923,1.38099 -2.85094,2.25297 -4.21269,3.45436c-2.39431,2.11235 -7.4897,6.95157 -11.32846,3.41312c-1.09298,-1.00747 -0.60146,-2.91819 -0.73223,-4.3989c-0.24011,-2.7188 0.50964,-5.43687 0.88921,-8.13973c0.1177,-0.83816 -0.02482,-1.69952 0.0951,-2.53737c0.0077,-0.05383 0.02779,-0.1233 0.0552,-0.20001c-0.95458,1.57278 -2.78199,2.63139 -4.43782,3.46571c-6.16251,3.10506 -12.46798,4.37971 -19.13549,5.49391c-0.91184,0.15238 -1.71194,0.97588 -2.63113,0.87704c-0.13427,-0.01444 -0.26772,-0.0327 -0.40046,-0.05437v0.08666h-2.63113c-1.38071,0 -2.5,-1.11929 -2.5,-2.5c0,-0.88153 0.45626,-1.6565 1.14551,-2.10163l2.59887,-1.73258l0.0294,0.0441l0.10253,-0.12625c5.7899,-2.88505 10.96999,-6.94345 16.38666,-10.35233l-0.01633,-0.0347c-0.03652,-0.1491 -0.07167,-0.29667 -0.1055,-0.44284c-2.97789,0.55357 -5.85636,1.25614 -8.78423,-0.42292l-2.57644,-0.85881c-1.02156,-0.31417 -1.76412,-1.26534 -1.76412,-2.38994c0,-1.1246 0.74256,-2.07576 1.76412,-2.38994l2.57644,-0.85881l0.01047,0.0314l0.08113,-0.05999c4.53627,-1.08309 6.91749,-4.27341 11.08915,-6.02529c2.76123,-1.15957 5.26806,-0.87005 7.93422,-1.52713l-0.62013,-1.92544c-0.0728,-6.83699 1.86289,-14.35233 4.56665,-20.70679c0.41269,-0.96993 1.33608,-1.66348 1.75409,-2.63113c0.86556,-2.00368 0.75964,-4.38373 1.82592,-6.28819c0.74276,-1.32663 1.91423,-2.37225 2.71895,-3.66223c0.54846,-0.87919 1.13448,-2.07601 1.78814,-3.34674c-1.90123,0.44225 -3.8618,0.78964 -5.57948,1.6446c-1.06111,0.52816 -1.87898,1.53103 -3.00505,1.90103c-1.97225,0.64803 -4.17142,0.30484 -6.16479,0.88461c-2.68215,0.78011 -5.43901,2.24131 -8.1919,2.69855c-1.76162,0.29259 -3.58999,-0.24274 -5.35726,0.01355c-2.3858,0.34599 -4.62922,1.41731 -7.01635,1.75409c-0.33321,0.04701 -5.96133,0.00104 -6.1393,0c-4.30063,1.07516 -9.42499,1.48038 -13.86156,0.86349c-0.91568,-0.12732 -1.7165,-0.74241 -2.63113,-0.87704c-3.13751,-0.46184 -6.50508,0.52193 -9.64748,0c-1.82398,-0.30295 -3.4366,-1.46142 -5.26226,-1.75409c-2.88537,-0.46254 -6.17995,-0.34295 -8.80726,-2.09518c-2.7902,-1.86086 -3.74488,-4.16064 -5.83657,-6.62793c-0.9079,-1.07092 -2.22467,-1.81654 -2.91799,-3.03739c-1.12978,-1.98938 -1.22534,-4.41058 -1.9503,-6.58048c0,0 -0.22064,-0.66191 -0.07911,-1.40294c-3.27555,-3.21579 -5.25812,-7.53616 -5.31144,-12.54328c0,0 0,-0.30505 0.10656,-0.70203c-0.97557,-1.02469 -1.82267,-2.18077 -2.49503,-3.4858c-0.613,-1.18982 -0.64615,-2.59846 -1.02,-3.88363c-1.12482,-3.86678 -2.55213,-7.57804 -3.53323,-11.49419c0,0 -0.2756,-1.1024 0.28804,-2.00655c-1.46814,-2.09964 -2.56474,-3.33492 -2.96153,-6.09272c-0.73178,-5.08607 1.89157,-11.70591 6.77327,-14.11172c0.34906,-0.17203 5.97479,-0.26364 6.61942,-0.15802c2.06905,0.33901 3.96892,1.44273 6.04431,1.74054c1.00683,0.14447 2.08706,-0.23867 3.05013,0.08854c3.42574,1.1639 6.10659,4.38296 8.7539,6.59868c2.86736,2.39989 6.39351,4.32224 9.57008,6.37372c1.24141,-3.02845 1.96025,-5.30738 3.77007,-7.41567c-1.25726,-2.41354 -1.78412,-6.37216 -2.41569,-8.60434c-1.35795,-4.79943 -0.88103,-8.60395 -0.06742,-13.37803c0.16554,-0.97135 -0.23342,-2.01927 0.07499,-2.95513c0.36106,-1.09562 1.40842,-1.85676 1.86053,-2.91806c0.47241,-1.10895 0.39371,-2.40394 0.87705,-3.50817c2.3081,-5.27312 8.09055,-11.63194 13.46652,-13.51301c4.46151,-2.8224 10.74245,-3.35649 15.97266,-4.51565c5.88166,-1.30354 12.60822,-2.79734 18.75882,-1.85914c4.17179,0.63636 7.38034,3.00422 11.36783,4.32183c4.87026,1.60931 9.6031,3.41012 13.59185,6.7506c3.40399,2.85076 5.80642,6.74562 8.43505,10.26651c0.55185,1.12024 0.93727,2.33919 1.65556,3.36073c0.82063,1.16708 2.3149,1.84076 2.91272,3.13619c1.33877,2.90103 -0.06417,7.5297 -0.77049,10.36882c-1.55864,6.26507 -2.08656,13.51677 -5.55188,19.09056c-1.12365,1.80734 -2.47497,3.27478 -3.8808,4.68709c2.86466,4.23254 5.81834,8.40171 8.88281,12.49235c1.22044,0.04743 1.96784,1.16852 1.96784,1.16852c0.48058,0.75004 0.9287,1.52189 1.44173,2.25011c0.25682,0.36454 0.42226,1.08722 0.86336,1.02185c0.60158,-0.08915 0.76278,-0.96286 1.24438,-1.33421c0.6216,-0.4793 1.54899,-0.57204 2.03111,-1.19145c0.47024,-0.60414 0.28127,-1.52448 0.61802,-2.21202c0.81401,-1.66197 1.92696,-3.19651 2.50521,-4.95445c1.04586,-3.17952 1.87156,-6.41822 2.50284,-9.68522c0,-4.69381 0,-9.38762 0,-14.08143c0,-2.33306 0.4311,-5.19762 0.03228,-7.49293c-0.15826,-0.91084 -0.73047,-1.71834 -0.87704,-2.63113c-1.12569,-7.01008 0.5246,-14.21299 -1.75409,-21.04904c-0.04849,-4.55359 -0.9146,-11.22642 2.23504,-15.07359c1.56025,-1.90579 7.61379,-4.83297 10.21199,-4.46857c1.29916,0.18221 2.21388,1.42082 3.39768,1.98618c2.34227,1.11863 4.9923,2.30345 6.33938,4.52221c0.72457,1.19343 0.70511,2.70235 1.10184,4.04095c0.09108,0.30731 0.47627,1.43682 0.86939,2.60157c0.1474,-0.01739 0.23848,-0.01739 0.23848,-0.01739c2.59016,0.02139 5.38362,-0.38925 7.65679,1.39028c2.15183,1.68453 2.68724,4.0938 3.48535,6.45846c1.0564,3.12989 1.71515,6.19742 1.84963,9.20738c2.11818,0.69302 4.59999,1.49475 6.2036,2.86464c3.15759,2.6974 4.61142,9.18932 3.36935,13.12318c-0.02776,0.08791 -0.05951,0.1739 -0.09473,0.25823c0.26936,0.10801 0.52838,0.23655 0.77042,0.39885c1.66749,1.11814 4.7776,4.64035 5.46362,6.66443c0.13529,0.39918 0.10727,5.24043 0.10727,5.98672c0,4.94588 -0.64336,9.72455 -2.88534,14.25403c-0.4676,0.94468 -1.28269,1.68834 -1.75409,2.63113c-1.73155,3.46309 -2.62178,6.364 -6.04627,8.82312c-1.92219,1.38032 -4.38354,1.79561 -6.5027,2.84881c-1.24015,0.61634 -2.37667,1.41313 -3.51206,2.21297c0.80738,0.00773 1.61257,0.02521 2.41368,0.05759c1.27304,0.05145 2.70825,-0.34271 3.81077,0.29581c1.25532,0.72701 1.80298,2.27419 2.65457,3.44857c1.83519,2.53079 3.61819,5.23439 5.26226,7.89339c0.74821,1.2101 2.01594,2.26983 2.15184,3.68605c0.14917,1.55442 -0.49707,3.18442 -1.36816,4.48045c-0.05339,0.07943 -0.10846,0.15725 -0.16511,0.23353c3.90124,1.14756 7.86547,3.49192 10.46917,6.12723c4.39991,4.45333 4.42616,11.44582 -1.68664,14.60345c-1.06405,0.54965 -2.39048,0.16506 -3.58784,0.1903c-3.64772,0.07689 -7.32871,-0.79186 -10.8441,-2.17606c-2.95403,1.25818 -5.91329,2.6146 -9.02244,3.03437c-6.36877,0.85986 -12.51226,-2.8339 -17.88935,-6.46718c-0.03588,0.24124 -0.06938,0.4826 -0.10028,0.72408c-0.39772,3.10868 -2.27946,6.67664 -1.7742,9.87772c0.01054,0.06678 0.02171,0.13331 0.03349,0.19961c0.22357,0.20468 0.43218,0.47745 0.6119,0.8369zM208.55825,236.3385c-2.89054,0.70974 -5.69461,0.62174 -8.46739,1.19106c-0.0977,1.7977 -0.15972,3.59928 -0.2037,5.3991c3.05228,0.11363 6.17677,0.20969 9.02711,-0.59106c-0.00501,-0.03511 -0.00985,-0.0703 -0.01453,-0.10556c-0.30887,-2.32682 0.10555,-4.26146 0.62047,-6.21351zM200.67952,250.20156c0.08454,0.61777 -0.57351,1.31092 -0.26353,1.85194c0.33218,0.57976 1.23738,0.51549 1.81369,0.85361c0.90916,0.53339 1.75409,1.16939 2.63113,1.75409l-0.7507,-1.03299c0,0 2.23607,-1.11803 3.3541,1.11803c1.11803,2.23607 -1.11803,3.3541 -1.11803,3.3541l-0.34816,0.05895c0.08358,0.93173 -0.44384,1.72286 -0.44384,1.72286c-1.71091,2.5651 -3.22956,5.19423 -4.72939,7.83238c0.47945,0.29234 0.95396,0.59302 1.42344,0.90127c1.62985,-0.82119 3.453,-2.6199 5.03659,-1.80007c1.55057,0.80274 1.22894,3.29261 1.28235,5.08023c1.44565,0.46123 2.83465,0.78815 4.55436,0.76326h0.87704c0,0 2.5,0 2.5,2.5c0,0.90913 -0.3306,1.48765 -0.75136,1.85579l1.01381,1.68968c-0.00012,-0.01237 -0.00019,-0.0248 -0.00019,-0.0373c0,-2.5 2.5,-2.5 2.5,-2.5c1.85522,0.02685 3.32556,-0.35573 4.89736,-0.87469c0.00432,-0.77296 -0.08328,-1.48691 -0.27374,-2.04015c-0.26477,-0.76907 -0.97742,-1.30084 -1.44148,-1.96884c-1.58442,-2.28075 -2.99209,-5.55456 -4.9499,-7.51237c-1.56649,-1.56649 -4.10607,-2.02161 -5.48126,-3.75846c-0.74229,-0.9375 -0.84132,-2.2387 -1.26198,-3.35804l-0.12829,-2.54466c0,0 0,-2.28157 2.17961,-2.48547c-0.6746,-1.55665 -1.53687,-3.0338 -2.28754,-4.56116c-3.44454,0.95001 -7.01297,0.9068 -10.59642,0.82948c0.28574,0.76214 0.65242,1.50542 0.76232,2.30853zM207.16031,231.53789l2.53953,-0.84845c0,0 0.43683,-0.14561 0.99803,-0.12438c0.13433,-0.98116 0.31082,-1.95893 0.5138,-2.93471l-0.73494,-0.69483c0,0 -1.76777,-1.76777 0,-3.53553c0.67729,-0.67729 1.35458,-0.83559 1.93245,-0.77318c0.70017,-2.74942 1.39769,-5.50197 1.73927,-8.28903c0.19409,-1.58364 0.392,-3.3932 0.68127,-5.25025l-1.70817,1.03936c-2.31553,-0.03351 -4.96414,0.31957 -7.37756,0.92562c-0.20131,1.37839 -0.75608,3.08922 -1.30648,4.60874c0.71472,0.00493 1.42947,0.0121 2.14428,0.02244l2.24102,-0.78103c0,0 2.37171,-0.79057 3.16228,1.58114c0.79057,2.37171 -1.58114,3.16228 -1.58114,3.16228l-3.02124,0.97305c-1.56765,0.01669 -3.13495,0.02475 -4.70228,0.02865c-1.1338,3.86135 -1.80266,7.83355 -2.2074,11.8522c2.20289,-0.2792 4.39246,-0.37555 6.68729,-0.96209zM167.51529,253.10202l-2.54466,-0.12829c-1.33995,-0.467 -2.7736,-0.7364 -4.19455,-0.74947c-0.26191,1.70197 -0.41723,3.38237 -0.44055,4.99365l0.78103,2.24102c0,0 0.57179,1.71537 -0.71602,2.71472c-0.02679,1.62986 -1.74216,2.20165 -1.74216,2.20165c-2.81582,0.90689 -5.87662,0.49018 -8.54962,1.66866c-0.08882,0.03916 -0.177,0.0798 -0.26458,0.12184c0.00322,1.01098 0.01708,1.92908 0.07018,2.82696c0.95662,-0.17416 1.90633,-0.37369 2.84443,-0.6127l2.50901,-0.83634c0.2642,-0.09499 0.54902,-0.14675 0.84593,-0.14675c1.38071,0 2.5,1.11929 2.5,2.5c0,0.69036 -0.27982,1.31536 -0.73223,1.76777l-2.63113,2.63113c-0.84816,1.23131 -1.97233,2.26308 -3.24115,3.16654c0.44367,0.24264 0.90622,0.44322 1.38691,0.58737l1.18034,0.57424c1.13044,-1.09598 2.10852,-2.67057 3.53769,-2.44445c3.11314,0.49254 4.04592,2.78205 4.13127,5.40558c2.88586,0.98412 5.86549,0.81836 8.89391,0.74497c3.52006,-6.03569 4.22594,-14.17049 0.26946,-20.1052l-0.12678,-0.3715c-1.07839,-0.28454 -1.61759,-1.36293 -1.61759,-1.36293l-1.14098,-2.87212c0.01886,-1.77094 0.5023,-3.50402 0.83356,-5.24703c-0.74069,0.73069 -1.84173,0.73069 -1.84173,0.73069zM167.51528,248.10202c0,0 1.58777,0 2.23261,1.26535c0.16409,-2.02921 0.18556,-4.03077 0.47581,-6.04432c-1.42452,-0.49535 -2.95459,-0.76738 -4.46251,-0.74555c0,0 -1.4063,0 -2.10941,-1.05474c-0.6991,1.83757 -1.32701,3.78296 -1.84367,5.76119c1.60969,0.12716 3.212,0.45306 4.74366,0.94636zM174.29064,230.912c-1.0675,-0.53375 -3.59671,-1.79836 -4.91894,-2.45947c-0.48,0.74044 -0.94648,1.49292 -1.39605,2.26071c-1.048,1.7898 -0.87021,4.08195 -1.68225,5.99042c-0.13362,0.31404 -0.32078,0.59911 -0.52699,0.87389c1.98809,0.02172 3.991,0.35975 5.88936,0.95498c0.46173,-0.71369 1.13134,-1.31523 1.46662,-2.09755c0.47482,-1.10792 0.40174,-2.40046 0.87704,-3.50817c0.2617,-0.6099 0.53537,-1.22003 0.82039,-1.8296c-0.32103,-0.08114 -0.52918,-0.18521 -0.52918,-0.18521zM174.77263,225.56282l1.75409,0.87704c0,0 0.22848,0.11424 0.50285,0.34272c1.85835,-3.3388 4.01962,-6.6019 6.37714,-9.65271c-1.34674,-0.03994 -2.69461,-0.16648 -4.02878,-0.37408l-2.5825,1.72167l-0.05378,-0.08068c-1.50014,1.97183 -3.02041,3.91689 -4.48484,5.90814c0.83861,0.4193 1.67722,0.83861 2.51582,1.25791zM201.80645,207.00927c3.56019,-1.14663 7.57494,-1.84255 11.31509,-1.88238l-0.89072,-0.14481c0,0 1.70706,-1.70706 3.44368,-0.08871c0.53708,-2.06137 1.27413,-4.01245 2.33676,-5.59716c1.61642,-2.41058 3.67966,-3.64605 6.00214,-5.15101c1.75526,-1.1374 3.83299,-2.06669 5.92455,-2.06669c1.2117,-0.88714 3.7191,-2.77362 4.88834,-3.36123c1.86442,-0.93698 4.07374,-1.20655 5.77591,-2.41345c2.72817,-1.93436 3.11471,-4.2366 4.47825,-6.96366c0.4714,-0.94279 1.27844,-1.69047 1.75409,-2.63113c1.94408,-3.84473 2.37692,-7.86935 2.37692,-12.05727c0,-1.51302 0.5722,-3.09798 0.10727,-4.5378c-0.57841,-1.79122 -2.15177,-3.07611 -3.81767,-3.87467c-0.10035,0.34115 -0.22902,0.66762 -0.43341,0.95637c-1.67576,2.36741 -3.94888,4.35296 -5.22661,6.95684l-1.83624,2.76306c0,0 -1.38675,2.08013 -3.46688,0.69338c-2.08013,-1.38675 -0.69338,-3.46688 -0.69338,-3.46688l1.67194,-2.4992c0.62942,-1.23838 1.05567,-2.60313 1.88826,-3.71513c0.95646,-1.27745 2.47589,-2.06659 3.40965,-3.36073c0.49371,-0.68425 0.37683,-1.66236 0.75788,-2.41518c0.41713,-0.82408 1.29413,-1.38823 1.60714,-2.25721c0.70552,-1.95864 -0.1887,-6.56449 -1.89291,-7.92586c-0.64862,-0.51813 -1.97325,-1.0342 -3.21003,-1.45784c-0.52421,3.01013 -1.67243,5.96301 -3.57986,8.86378l-1.75409,2.63113c0,0 -1.38675,2.08013 -3.46688,0.69338c-2.08013,-1.38675 -0.69338,-3.46688 -0.69338,-3.46688l1.75409,-2.63113c4.08777,-6.02903 3.64251,-12.23803 1.4625,-18.87172c-0.30405,-0.92521 -0.88026,-3.311 -1.77691,-4.06606c-0.56863,-0.47884 -2.53655,-0.46307 -3.71692,-0.41228c0.09835,3.38246 -0.95823,6.4912 -2.04137,9.7406l0.12829,0.96352c0,0 0,2.5 -2.5,2.5c-2.5,0 -2.5,-2.5 -2.5,-2.5l0.12829,-2.54466c1.02763,-3.08289 2.21624,-6.00004 1.65808,-9.3335c-0.28859,-1.7235 -1.22581,-3.27812 -1.68667,-4.96375c-0.26777,-0.9794 -0.18802,-2.07239 -0.65224,-2.9754c-1.23918,-2.41044 -2.13826,-1.40374 -4.18514,-2.49413c-0.70809,-0.37721 -1.08146,-1.34762 -1.86458,-1.522c-0.55125,-0.12275 -0.98386,0.56241 -1.50873,0.77087c-0.87136,0.34608 -3.3556,0.84545 -4.06606,1.77691c-2.09847,2.7512 -1.227,8.04961 -1.27313,11.23771c0.94455,2.83364 0.38977,5.08901 0.87704,7.89339c0.32727,1.88353 0.89843,3.75099 0.90932,5.66272c0.01335,2.34136 -0.43245,5.18989 -0.03228,7.49293c1.37247,7.89891 0.99939,16.1842 0.92172,24.32061c0.03943,0.00123 0.07901,0.00184 0.11873,0.00184c0.05182,0 0.10339,-0.00105 0.15469,-0.00313c-0.08931,0.60933 -0.18393,1.22304 -0.28507,1.83893c-0.00049,0.1846 -0.00075,0.36911 -0.00075,0.55351c0,0 0,0.62909 -0.31557,1.25613c-0.7324,3.93444 -1.77719,7.87067 -3.44681,11.24381c-1.68241,3.39898 -2.8067,5.94474 -6.1213,7.99809c-1.2945,0.80193 -2.49616,2.23043 -4.01788,2.17396c-2.54921,-0.0946 -4.02331,-1.83651 -5.24959,-3.65373c-0.54948,-0.23276 -0.9034,-0.58668 -0.9034,-0.58668l-1.98632,-2.02185c-2.9498,-3.93484 -5.80099,-7.93893 -8.56918,-12.00243c-0.5033,1.89194 -1.19236,3.9906 -2.00173,4.63714c-0.96845,0.77361 -2.45565,0.35778 -3.69245,0.43961c-0.11075,0.00733 -0.24231,-0.03744 -0.37392,-0.08985l-0.73299,0.49697c-0.01007,0.87089 0.51458,1.95681 -0.15691,2.4011c-0.80308,0.53135 -1.52415,0.84628 -2.18858,0.99624c0.40134,0.59582 0.83874,1.1427 1.31154,1.60753c0.75165,0.73898 1.88579,1.00874 2.63113,1.75409c0.74534,0.74534 1.01127,1.88327 1.75409,2.63113c0.81849,0.82405 2.13092,1.09239 2.85013,2.00437c0.67186,0.85193 0.65379,2.07834 1.13606,3.05024c0.24336,0.49044 0.5018,0.91736 0.77669,1.3055c0.45695,-0.04421 0.9114,-0.07118 1.36274,-0.07599c0,0 2.5,0 2.5,2.5c0,0.63268 -0.16012,1.10525 -0.39931,1.45823l1.01242,1.80896c0,0 1.11803,2.23607 -1.11803,3.3541c-2.23607,1.11803 -3.3541,-1.11803 -3.3541,-1.11803l-0.40874,-1.10435c-0.62423,-0.62807 -1.16746,-1.14591 -1.65758,-1.62843c-3.93098,0.60772 -7.80856,1.98168 -11.88484,1.45134c-12.22151,-1.59007 -23.01586,-6.68989 -34.90261,-10.74645c-1.78508,-1.1738 -3.56712,-2.35223 -5.34505,-3.53682c-1.64645,0.49825 -3.28534,1.24261 -3.3573,2.49991c-0.03976,0.69465 0.7361,1.21546 0.86688,1.89884c0.49278,2.5751 0.50344,5.29035 0.87705,7.89339c0.24442,1.70293 1.96868,2.90131 2.4092,4.56434c0.02848,0.1075 0.05447,0.21542 0.07823,0.32371l0.04769,-0.0159l0.85859,2.57577c0.09498,0.2642 0.14674,0.54902 0.14674,0.84593c0,1.38071 -1.11929,2.5 -2.5,2.5c-0.29691,0 -0.58173,-0.05176 -0.84593,-0.14674l-1.72133,-0.57378c-0.78772,0.52515 -1.57545,1.0503 -2.36317,1.57545c-1.42576,-0.40943 -2.98665,-0.49707 -4.27729,-1.2283c-1.19447,-0.67674 -1.90931,-1.97935 -2.95481,-2.86912c-3.03656,-2.58424 -7.00716,-5.05081 -9.25905,-8.46769c-2.32176,-3.5229 -2.49492,-8.49096 -2.98578,-12.41044c-0.57418,-4.58481 -1.96992,-10.23371 -0.8289,-14.91253c0.00622,-0.02552 0.01266,-0.05096 0.0193,-0.07633c-3.46997,-2.29918 -7.37766,-4.41163 -10.57271,-7.0634c-1.97979,-1.64315 -4.42081,-4.83468 -7.03288,-5.67993c-0.70212,-0.2272 -1.48151,0.19244 -2.21213,0.08854c-2.1385,-0.30413 -4.10496,-1.40491 -6.2343,-1.76764c-1.28426,-0.21877 -2.74714,-0.75496 -3.9051,-0.15802c-4.86193,2.5064 -4.19807,8.93058 -1.82007,12.58636c3.24375,2.07838 5.89257,3.44007 9.54732,4.65832l0.08647,-0.12829c0,0 2.5,0 2.5,2.5c0,2.5 -2.5,2.5 -2.5,2.5l-1.66761,-0.12829c-2.43215,-0.81072 -4.50479,-1.70572 -6.51964,-2.78764c0.86674,2.84067 1.89012,5.61615 2.69416,8.4874c0.28922,1.03279 0.27073,2.16544 0.73409,3.13271c1.52547,3.18447 5.47287,5.41748 8.66763,6.5001l2.23067,-0.03228c0,0 2.5,0 2.5,2.5c0,2.5 -2.5,2.5 -2.5,2.5l-3.03159,-0.03228c-1.56991,-0.51825 -3.13628,-1.15256 -4.62338,-1.9317c1.13517,4.46501 4.76395,7.91993 9.32258,9.37088l0.96352,-0.12829c0,0 2.5,0 2.5,2.5c0,2.5 -2.5,2.5 -2.5,2.5l-2.54466,-0.12829c-0.70964,-0.24459 -1.39902,-0.52078 -2.06592,-0.8271c0.15464,0.56127 0.35551,1.10339 0.64677,1.60887c0.53787,0.93345 1.63815,1.41123 2.34427,2.22487c0.92643,1.0675 3.17567,4.6431 4.68795,5.65068c2.03919,1.35865 4.77325,1.03319 6.97952,1.413c1.82217,0.31369 3.43868,1.44874 5.26226,1.75409c3.11062,0.52085 6.50872,-0.43643 9.64748,0c0.91568,0.12732 1.7165,0.74241 2.63113,0.87704c3.97249,0.58475 8.60691,0.07011 12.44974,-0.89059c2.04641,-0.01005 4.11405,0.2937 6.1393,0c2.3858,-0.34599 4.62922,-1.41731 7.01635,-1.75409c1.70554,-0.24062 3.46849,0.298 5.16726,0.01355c2.54057,-0.4254 5.10973,-1.86456 7.59488,-2.56371c1.28915,-0.36268 2.57583,-0.76946 3.90168,-0.95801c0.73061,-0.1039 1.5134,0.32596 2.21213,0.08854c0.87453,-0.29715 1.43185,-1.19255 2.25721,-1.60714c2.76633,-1.38957 6.07546,-1.47128 8.85743,-2.67163c1.87282,-0.80807 3.55268,-2.05777 5.48307,-2.71655l0.13373,-0.04458c0.62937,-2.36013 3.01727,-1.76316 3.01727,-1.76316c2.08606,0.53407 4.2567,0.81499 6.41001,0.8024h1.75409c0,0 0.6907,0 1.346,0.36305c0.70606,-0.77702 1.423,-1.53198 2.14849,-2.26194c0,0 1.25305,-1.25305 2.70418,-0.59424c0.0176,-0.00653 0.0271,-0.0097 0.0271,-0.0097c1.81978,-0.5861 3.76655,-0.65875 5.65237,-0.97305c0.91191,-0.15198 1.70677,-0.89254 2.63113,-0.87704c0.06272,0.00105 0.12621,0.00155 0.19037,0.0016c0.5084,-0.5609 1.1736,-0.78263 1.1736,-0.78263zM219.26084,281.1674c0,0 -0.99094,0 -1.72506,-0.62388c0.27298,1.05133 0.59094,2.34487 1.4224,2.70711c0.3399,0.14808 0.59764,-0.43893 0.89648,-0.65837c0.79745,-0.58557 1.7177,-1.03647 2.44018,-1.70425c-0.95119,0.16715 -1.94252,0.26777 -3.034,0.2794zM206.71579,279.47873c-0.46419,1.38961 -1.67802,2.46041 -2.09066,3.86619c-0.20001,0.68138 1.12894,-0.86526 1.64918,-1.34862c1.20567,-1.1202 2.24871,-2.54308 2.72144,-4.11947l0.2232,-0.66959c-0.64195,-0.14185 -1.27362,-0.31197 -1.91461,-0.50302c-0.14898,0.93771 -0.28875,1.87704 -0.58854,2.77452zM161.23269,289.43827c-0.11758,1.03959 0.38558,2.34793 -0.00885,3.31601c0.48318,-0.16316 1.05724,-0.12755 1.46895,-0.42672c0.88595,-0.64378 1.45536,-1.64457 2.27815,-2.36732c0.94864,-0.8333 1.93712,-1.68901 2.80339,-2.63156c-2.03123,-0.03405 -4.02661,-0.18681 -6.05295,-0.70087c-0.20332,1.10105 -0.40628,2.08185 -0.48869,2.81046zM142.36425,282.63594c-1.37652,0.78176 -2.64099,1.6806 -3.88606,2.60088c2.17322,-0.57851 4.39256,-1.3822 6.41204,-1.95337c1.46361,-0.41395 2.98208,-0.98898 4.46087,-1.65922c-0.72625,-0.43106 -1.42207,-0.92088 -2.0847,-1.44975c-1.71952,0.84643 -3.43007,1.62543 -4.90215,2.46146zM144.78447,269.75906c0.06164,-0.00821 0.12328,-0.01641 0.18493,-0.02463c-0.00271,-0.03588 -0.00537,-0.07179 -0.00797,-0.1077c-0.05886,0.04438 -0.11784,0.08851 -0.17696,0.13233zM228.73025,231.53789c2.15721,0.6203 2.1191,1.12712 4.25783,0.79607c1.22251,-0.18923 2.43107,-0.53814 3.63044,-0.96865c-1.33011,-0.75377 -2.61288,-1.55137 -3.83469,-2.36335l-1.72636,-2.71618c0,0 -1.11803,-2.23607 1.11803,-3.3541c2.23607,-1.11803 3.3541,1.11803 3.3541,1.11803l0.02773,0.79199c2.37385,1.58808 4.82049,2.8322 7.37025,3.90364c0.61798,-0.24823 1.23575,-0.48096 1.854,-0.68704c0,0 2.37171,-0.79057 3.16228,1.58114c0.12996,0.38987 0.17446,0.73701 0.1581,1.04494c0.00495,0.00168 0.0099,0.00337 0.01485,0.00505c1.675,0.56981 5.34788,1.71132 7.02316,0.93905c2.93361,-1.35233 1.80727,-4.77575 0.06745,-6.44559c-2.68337,-2.57544 -7.65585,-5.52993 -11.38935,-5.40853c0,0 -0.53125,0 -1.10397,-0.2449c-0.31068,0.19822 -0.6137,0.40396 -0.90421,0.62194l-1.48632,1.52185c0,0 -1.76777,1.76777 -3.53553,0c-1.76777,-1.76777 0,-3.53553 0,-3.53553l2.02185,-1.98632c1.18808,-0.89066 2.34233,-1.82833 3.56424,-2.67198c0.87486,-0.60403 2.87881,-1.02941 2.47422,-2.01254c-0.90317,-2.19467 -3.51666,-4.8167 -4.86451,-6.83847c-0.95285,-1.42927 -1.17303,-3.50011 -2.60769,-4.44482c-0.41239,-0.27156 -0.95859,0.26642 -1.45149,0.29581c-3.45266,0.20593 -7.0713,0 -10.52452,0c0,0 -0.63251,0 -1.26123,-0.31815c-2.83248,2.96995 -4.50986,7.4577 -5.04148,11.37426c-0.15303,1.1274 0.15723,2.28455 0.01355,3.41318c-0.45157,3.54719 -1.45461,7.04768 -2.30854,10.54825c3.79395,2.52045 7.3593,4.72729 11.9278,6.04095zM139.36343,154.74488c-1.81978,0.5861 -3.76654,0.65875 -5.65237,0.97305c-3.86294,0.64382 -8.78524,2.28637 -12.44246,-0.48095c-1.05684,-0.79968 -1.56497,-2.1397 -2.31673,-3.23114c-3.80834,-5.52907 -3.67764,-10.65321 -1.48427,-16.21145c-0.10224,0.08283 -0.2056,0.16376 -0.31112,0.24101c0,0 -2.08012,1.38675 -3.46688,-0.69338c-1.38675,-2.08013 0.69338,-3.46687 0.69338,-3.46687c1.0978,-0.6889 2.04546,-1.7169 3.29342,-2.06669c4.21795,-1.18224 3.84354,0.30326 7.0851,1.90103c0.82922,0.40873 1.80696,0.45821 2.63113,0.87704c0.82341,0.41844 1.38159,1.31322 2.25721,1.60715c0.72944,0.24486 1.54851,-0.20367 2.30712,-0.07499c0.78389,0.13297 1.43697,0.79796 2.23068,0.84476c0.28208,0.01664 0.79281,-0.20845 1.36226,-0.52605c0.30546,-0.5449 0.89923,-1.22944 1.9598,-1.25023c0.49237,-0.34228 0.83573,-0.59761 0.84181,-0.60065c2.03161,-1.01581 2.98651,-0.46402 4.59288,-2.15311c2.3498,-2.47082 4.48883,-5.43281 7.46979,-7.3752c2.91632,-1.90027 7.73267,-2.64805 11.04828,-3.75325c0.28831,-0.0961 0.57662,-0.19221 0.86493,-0.28831c-2.97596,-1.24278 -6.08536,-3.23268 -9.15026,-3.62914c-5.62708,-0.7279 -11.61708,0.56322 -16.98349,1.75913c-3.24066,0.72218 -7.08792,2.05835 -10.37598,2.61253c-0.75875,0.12788 -1.57768,-0.31985 -2.30712,-0.07499c-0.87562,0.29393 -1.50481,1.07143 -2.25722,1.60715c-3.0917,0.97017 -4.97669,3.0529 -7.10313,5.53152c-1.4767,1.72126 -3.11284,3.42026 -3.98757,5.51268c-0.46492,1.11211 -0.39958,2.40139 -0.87704,3.50817c-0.37833,0.87698 -1.34173,1.43942 -1.64764,2.34421c-0.24645,0.72891 0.19835,1.54763 0.07499,2.30713c-0.66014,4.06452 -1.25138,7.07923 -0.06742,11.17918c0.43225,1.49685 0.82299,4.96874 1.67151,6.97722c0.71377,-0.12767 1.65261,-0.00593 2.39353,1.10544c0.38281,0.57421 0.50143,1.09558 0.47256,1.54953c1.72602,0.83498 3.84115,1.38349 5.25423,1.85072c0,0 2.3717,0.79057 1.58113,3.16228c-0.79057,2.37171 -3.16227,1.58114 -3.16227,1.58114c-2.11128,-0.70876 -4.79584,-1.55766 -7.01723,-2.83981c-1.56963,1.82899 -1.80971,3.85557 -3.03814,6.68707c-0.46774,1.07811 -1.337,1.98792 -1.63066,3.12584c-1.03928,4.02718 0.43249,9.20367 0.92519,13.15285c0.39631,3.17661 0.33622,7.52991 2.27649,10.39269c1.98651,2.931 5.6796,5.07098 8.28181,7.31909c1.10985,0.95883 1.99856,2.22825 3.29242,2.91893c0.09032,-0.06021 0.18062,-0.12041 0.27094,-0.18062c-3.13668,-3.10236 -6.37694,-6.24513 -8.3242,-10.27581c-0.8788,-1.81906 -0.76685,-3.96746 -1.09897,-5.96018c-0.35277,-2.11658 -1.404,-4.32756 -0.80205,-6.38718c0.3325,-1.1377 1.377,-1.94189 1.90103,-3.00505c1.03281,-2.09539 1.55184,-4.67079 3.35943,-6.15065c0.29484,-0.24138 5.38968,-1.97006 6.08078,-2.16762c5.63209,-1.61006 10.68926,-1.85379 16.48575,-1.85379c4.70668,0.02752 7.16465,-1.25132 11.18023,-3.25396c1.62606,-0.81095 4.14381,-1.01675 5.58318,-2.25953c0.75969,-0.65593 0.92897,-1.81715 1.64083,-2.52471c0.67201,-0.66796 1.60808,-1.00253 2.41213,-1.5038l0.49211,-1.90421c0,0 0.06016,-0.18048 0.19707,-0.42526c-0.77431,-0.72314 -1.47206,-1.53105 -2.22427,-2.27866c0,0 -1.31004,-1.31004 -0.54686,-2.80236c-0.74131,0.03293 -5.6069,0.02642 -6.4558,0.02642c-3.21651,0 -6.4073,0.10116 -9.21976,-1.17674zM160.6515,147.74955c-1.63807,-0.41549 -3.13229,-1.58937 -4.11085,-2.96717c-0.59682,-0.84032 0.09112,-2.09429 -0.18855,-3.08631c-0.60805,-2.15692 -2.73347,-1.88921 -3.97925,-3.59219c-2.40138,-3.2827 -1.94571,-8.01814 0.79873,-10.87863c-0.04355,0.02842 -0.08649,0.05716 -0.12877,0.08621c-2.64964,1.82055 -4.35393,4.53215 -6.56291,6.65749c-1.60868,1.54778 -3.93496,2.1108 -5.93165,3.10915c-0.2588,0.1294 -0.49312,0.25843 -0.7081,0.38614c-0.69395,2.9775 -1.3972,7.17111 -0.62868,9.79926c0.2306,0.78859 0.63016,1.4023 1.14668,1.87934l0.05524,-0.01842c0,0 2.25768,-0.75256 3.10181,1.41356c1.92593,0.35075 4.07142,0.21224 5.58215,0.21224c1.91298,0 3.84434,0.29748 5.73884,0.03228c2.34095,-0.3277 4.68636,-1.34286 6.61323,-2.84277c-0.25135,-0.05561 -0.51704,-0.11893 -0.79793,-0.19017zM127.4097,145.20424c-0.33911,-0.99804 -1.52912,-1.60134 -1.75409,-2.63113c-0.32292,-1.47819 -0.49445,-3.1851 0.18854,-4.53523c0.01001,-0.01979 0.02026,-0.03938 0.03072,-0.05879c-1.07219,-0.54645 -2.11517,-1.16381 -3.18445,-1.71378c-2.18558,4.70108 -2.59875,8.21463 0.42169,12.96703c0.42103,0.66245 0.60718,1.50695 1.19145,2.03111c0.68245,0.61223 3.20347,0.36381 3.74478,0.36381c0.71958,0 1.46679,-0.0315 2.22684,-0.09256c-4.04036,-0.19506 -2.07201,-3.99515 -2.86549,-6.33046zM135.5271,150.67192c-0.21819,-0.38213 -0.40904,-0.7799 -0.57492,-1.19074c-0.34777,0.75517 -0.78065,1.32738 -1.29711,1.60028c0.6328,-0.11864 1.25958,-0.25551 1.87203,-0.40954z" fill="#000000" stroke-width="0.5"></path><path d="M153.69806,179.72589c-0.05887,-0.00034 -0.1187,0.00022 -0.17756,-0.00063c-0.97365,0.01036 -1.97011,0.15169 -2.91972,0.31089c-0.9473,-1.22628 -1.87568,-2.58474 -2.86326,-3.73245c0.96845,-0.68991 1.99531,-1.26869 3.02069,-1.70429c0.05147,0.11624 0.10025,0.18643 0.10025,0.18643c1.05609,1.55762 1.83748,3.32614 2.83961,4.94005z" data-paper-data="{&quot;noHover&quot;:false,&quot;origItem&quot;:[&quot;Path&quot;,{&quot;applyMatrix&quot;:true,&quot;segments&quot;:[[[301.71152,349.67151],[2.11218,3.11524],[0,0]],[[301.51508,349.29877],[0.10294,0.23248],[-2.05076,0.8712]],[[295.56972,352.63953],[1.9369,-1.37982],[1.97516,2.29542]],[[301.206,359.97237],[-1.8946,-2.45256],[1.89922,-0.3184]],[[306.96518,359.38527],[-1.9473,0.02072],[0.11772,0.0017]],[[307.31838,359.38885],[-0.11774,-0.00068],[-2.00426,-3.22782]]],&quot;closed&quot;:true,&quot;fillColor&quot;:[0,0,0,1]}]}" fill="#ffbaf3" stroke-width="0.5"></path><path d="M155.53576,173.34157c0,0 0.14001,-0.0015 0.34719,-0.03285c0.73612,0.75912 1.55087,1.40995 2.18577,2.40082c0.60275,0.90413 1.44922,2.05306 1.99596,3.21616c-1.0758,0.25115 -2.19687,0.47779 -3.28281,0.61769c-0.00471,-0.89075 -0.65761,-1.15991 -1.03093,-1.23845l0.00001,-0.00001c-0.91882,-1.47467 -1.63922,-3.05384 -2.55383,-4.51709c0.71919,-0.18508 1.49148,-0.35291 2.2818,-0.48006l0.05684,0.0338z" data-paper-data="{&quot;noHover&quot;:false,&quot;origItem&quot;:[&quot;Path&quot;,{&quot;applyMatrix&quot;:true,&quot;segments&quot;:[[311.10498,346.77737],[[310.99248,346.70933],[0,0],[-1.58064,0.2543]],[[306.47354,347.63655],[1.43838,-0.37016],[1.82922,2.9265]],[[311.54424,356.51925],[-1.83764,-2.94934],[0,0]],[[311.54422,356.51927],[0,0],[0.74664,0.15708]],[[313.55888,358.98687],[-0.00942,-1.7815],[2.17188,-0.2798]],[[320.04852,357.79249],[-2.1516,0.5023],[-1.09348,-2.3262]],[[316.04786,351.46355],[1.2055,1.80826],[-1.26978,-1.98174]],[[311.78922,346.71465],[1.47224,1.51824],[-0.41436,0.0627]],[311.10498,346.77735]],&quot;closed&quot;:true,&quot;fillColor&quot;:[0,0,0,1]}]}" fill="#ffbaf3" stroke-width="0.5"></path><path d="M66.12629,187.21305c-1.17353,0 -1.17353,-1.17353 -1.17353,-1.17353l0.06022,-0.7828c0.67886,-1.94786 0.35147,-4.16392 0.35147,-6.21603c0,-1.54099 0.22748,-2.75123 0.42049,-4.26034c0.24153,-1.88847 -0.23161,-3.87061 0,-5.76374c0.24907,-2.03585 0.82615,-3.97934 0.8146,-6.03205c-0.01141,-2.02927 0.07365,-3.87623 -0.3649,-5.84733c-0.05374,-0.24153 0.06311,-0.56139 -0.11478,-0.73338c-0.23682,-0.22896 -0.55349,-0.31277 -0.89127,-0.36107c-0.49156,1.51502 -1.23979,2.96981 -2.26724,4.33439c-1.86882,2.48203 -3.58733,1.6796 -6.11608,2.11899c-1.26197,0.21927 -1.54659,0.94865 -3.02926,0.36663c-1.97786,-0.77642 -3.58519,-2.88677 -4.72229,-4.57931l-0.09525,-0.71251c-1.05997,0 -2.08604,0 -3.03076,0c-0.03745,2.30295 -1.0956,4.00522 -2.38309,6.1358c-0.8611,0.86375 -1.83023,2.04431 -3.05509,2.45945c-0.18298,0.06202 -2.46337,0.05152 -2.81024,0.05035c-2.08352,-0.00701 -4.61925,-0.44881 -6.18186,-1.9905c-1.16779,-1.15216 -1.87771,-2.83224 -2.39597,-4.53103c-0.13522,0.00768 -0.27088,0.01396 -0.40692,0.01898c0.11607,0.32945 0.20502,0.67091 0.26243,1.02409c0.64724,3.98196 -3.03107,6.67854 -6.61432,4.94744c-0.18163,-0.08775 -2.75853,-1.82986 -2.83435,-1.92434c-0.77468,-0.96529 -0.96248,-2.31417 -1.11144,-3.54288c-0.09202,-0.75901 -0.22703,-1.57903 -0.23123,-2.37688c-0.29704,-0.14482 -0.59787,-0.43815 -0.59787,-1.03232c0,-1.03145 0.90657,-1.15633 1.12609,-1.17145c0.25532,-0.41085 0.62239,-0.78323 1.14048,-1.09831c0.51099,-0.31077 1.19255,-0.09257 1.78883,-0.13886c0,0 1.0545,0 1.16432,0.99959c0.66145,-0.0771 1.33452,-0.13996 2.05762,-0.12585c0.88546,0.5733 1.7549,1.2815 2.47004,2.11587c0.39035,0.00398 0.77908,0.00131 1.16432,-0.01216c-0.05874,-0.23723 -0.11598,-0.46975 -0.17258,-0.69591c-0.40058,-1.60062 -1.12556,-3.441 -1.26133,-5.08158c-0.05324,-0.64333 -0.18114,-1.36665 0.13007,-1.93221c0.32828,-0.5966 1.0792,-0.83073 1.6188,-1.24609c0,0 0.20073,-0.13382 0.48085,-0.1891l0.6224,-1.18286c2.56869,-0.8273 6.0457,-0.58783 8.39859,0.93844c0.48846,0.31685 0.75083,0.91185 1.23509,1.23509c0.39189,0.26157 0.96239,0.18319 1.33045,0.47735c0.4259,0.34038 0.55623,0.95151 0.94088,1.33789c0.87595,0.87991 2.21923,1.24006 3.00408,2.20211c0.05472,0.06707 0.43724,1.1423 0.72038,1.98282c1.65867,0 3.31734,0 4.976,0c-0.00437,-2.88102 -0.05129,-5.6762 0.42713,-8.48345c0.07771,-0.45597 -0.11036,-0.94814 0.0352,-1.38718c0.17509,-0.52812 0.62705,-0.92155 0.89237,-1.41061c0.29318,-0.54041 0.27625,-1.31865 0.77972,-1.67151c0.52791,-0.37 1.2776,-0.18569 1.92126,-0.22151c2.58733,-0.14401 6.3481,-0.56315 8.50839,1.0449c2.01436,1.49943 1.46005,2.70428 2.48231,4.68812c0.42115,2.08436 0.48808,4.15515 0.15399,6.15016c0.81987,0.27561 1.87522,0.64866 2.03598,0.8114c0.43941,0.44482 0.51556,1.14208 0.70862,1.73679c0.58348,1.79747 0.4585,3.40355 0.4585,5.26845c0,2.64024 -0.50181,4.9708 -0.83218,7.55391c-0.24153,1.88847 0.23161,3.87061 0,5.76374c-0.17801,1.45497 -0.4029,2.4969 -0.4029,3.97357c0,2.35623 0.25432,4.70332 -0.47192,6.95823l0.06022,0.04059c0,0 0,1.17353 -1.17353,1.17353zM62.64728,155.46092c0.0318,0.0636 0.05782,0.12528 0.07865,0.18503c0.9627,-2.2549 1.18067,-4.37994 0.64357,-7.10157c-0.28517,-0.586 -0.67778,-1.13101 -0.85552,-1.75801c-0.09611,-0.33904 0.19873,-0.73256 0.05794,-1.05562c-0.86532,-1.98557 -4.28947,-1.33404 -5.91462,-1.33404c-0.68616,0 -1.37478,0.05808 -2.05848,0c-0.1966,-0.0167 -0.40756,-0.35918 -0.54891,-0.22151c-0.191,0.18602 0.06155,0.55368 -0.04367,0.79866c-0.1711,0.39838 -0.61644,0.64854 -0.75441,1.05956c-0.11494,0.34241 0.0931,0.72648 0.0352,1.08299c-0.06957,0.42835 -0.3485,0.80575 -0.4117,1.23509c-0.31805,2.16066 -0.01841,4.65857 0.01262,6.8724c0.98199,0 1.96397,0 2.94596,0c0.27446,0 0.96062,0 1.23509,0c1.23509,0 2.47017,0 3.70526,0l0.29857,-0.2878c0,0 1.04964,-0.52482 1.57446,0.52482zM60.77425,157.57097c-1.23509,0 -2.47017,0 -3.70526,0c-0.26735,0 -0.54221,0 -0.82339,0c-1.48124,0 -3.13818,0 -4.79994,0c0.82168,1.17944 1.86102,2.43893 3.11256,3.0652c0.58573,0.2931 1.2644,-0.35292 1.91109,-0.45676c0.46838,-0.07521 0.94869,-0.01395 1.42307,-0.01515c0.6929,-0.00175 1.66024,0.10319 2.30367,-0.25937c0.91175,-0.51375 1.1596,-1.63858 1.62168,-2.44969c0.07335,-0.12876 0.14452,-0.25658 0.2135,-0.38357zM20.48297,157.96687c0.00954,0.72742 0.23294,1.58357 0.28954,2.02019c0.0979,0.75517 0.02946,1.65169 0.53534,2.22086c1.65299,1.85978 6.03486,2.71195 5.37237,-1.09385c-0.081,-0.46534 -0.275,-0.94872 -0.53845,-1.41336c-0.9538,-0.0299 -1.90517,-0.07126 -2.83182,-0.07126c0,0 -1.17353,0 -1.17353,-1.17353c0,-0.32267 0.08872,-0.55661 0.21737,-0.72624c-0.61644,0.09715 -1.22981,0.19878 -1.87082,0.23719zM43.25932,158.37921c-1.99771,0.02127 -4.24742,-0.2816 -6.22003,0.00636c-1.8628,0.27193 -3.68796,0.72557 -5.54333,1.03182c0.39303,1.20115 0.917,2.34774 1.70111,3.14906c1.06579,1.08919 3.11343,1.30839 4.52223,1.30306c0.71023,-0.00268 1.45423,0.2686 2.1301,0.05035c0.48428,-0.15638 1.66747,-1.44062 1.88526,-1.65751c0.86317,-1.45074 1.62041,-2.56169 1.83148,-3.98197zM36.75252,156.05609c1.95153,-0.2737 4.15877,-0.02218 6.13084,0.00636l0.56976,-0.19857c-0.08316,-0.46027 -0.21559,-0.90832 -0.51041,-1.25044c-0.19547,-0.22682 -2.55286,-1.70894 -2.75966,-1.91484c-0.31519,-0.31381 -0.35877,-0.85423 -0.70591,-1.13229c-0.30988,-0.24821 -0.80924,-0.12601 -1.13972,-0.34604c-0.48464,-0.32267 -0.75556,-0.90487 -1.23509,-1.23509c-1.48885,-1.02527 -3.90733,-1.29662 -5.73107,-0.90099c-0.10729,0.25632 -0.31825,0.53279 -0.73303,0.62911c-0.13327,0.416 -0.50189,0.66175 -0.50189,0.66175c-0.28379,0.13356 -0.66026,0.15199 -0.85137,0.40069c-0.11241,0.14628 0.08494,0.35908 0.13007,0.53796c0.12671,0.5023 0.25845,1.00332 0.38545,1.50554c0.27743,1.09711 0.54921,2.19564 0.82339,3.29356c0.08092,0.32404 0.1627,0.66925 0.24919,1.02695c1.97148,-0.30846 3.90085,-0.80618 5.87945,-1.08368z" fill="#ff0000" stroke-width="0.5"></path></g></g></svg>