<svg version="1.1" xmlns="http://www.w3.org/2000/svg" xmlns:xlink="http://www.w3.org/1999/xlink" width="271.88344" height="277.53189" viewBox="0,0,271.88344,277.53189"><g transform="translate(-60.58927,-69.66131)"><g data-paper-data="{&quot;isPaintingLayer&quot;:true}" fill-rule="nonzero" stroke="none" stroke-linecap="butt" stroke-linejoin="miter" stroke-miterlimit="10" stroke-dasharray="" stroke-dashoffset="0" style="mix-blend-mode: normal"><path d="M278.48223,206.01777c-1.76777,-1.76777 0,-3.53553 0,-3.53553l0.76777,-0.73223c2.06292,-1.52273 4.91804,-2.21963 6.61758,-4.14515c2.21541,-2.50997 2.79643,-5.51668 2.48287,-8.51646c-1.2388,1.55485 -2.54078,3.07817 -3.52032,4.54836l-1.81236,1.88102c0,0 -1.76777,1.76777 -3.53553,0c-1.76777,-1.76777 0,-3.53553 0,-3.53553l1.18764,-1.11898c1.89771,-2.84495 4.43092,-5.69461 6.13621,-8.79865c0.07334,-0.32492 0.22229,-0.65849 0.49455,-0.9583c1.21796,-2.52906 1.80941,-5.23756 1.02309,-8.25367c-0.29094,-1.11596 -0.52491,-2.08569 -0.88665,-2.94218c-1.14023,1.40655 -2.54921,3.08695 -2.85414,3.45457l-3.34264,0.83643c0,0 -2.45145,0.49029 -2.94174,-1.96116c-0.49029,-2.45145 1.96116,-2.94174 1.96116,-2.94174l1.65736,-0.16357c0.68604,-1.13408 1.68303,-2.06409 2.39676,-3.17698c-0.20667,-0.59344 -0.20338,-1.35527 0.43617,-2.208c0.29005,-0.38674 0.59881,-0.64261 0.90818,-0.80376c1.12762,-3.72075 0.46196,-7.52582 -1.18878,-11.1721c-1.10395,-2.43849 -1.16185,-3.82124 -3.70969,-4.07269c0,0 -2.45145,-0.49029 -1.96116,-2.94174c0.49029,-2.45145 2.94174,-1.96116 2.94174,-1.96116c1.11421,0.27881 2.37756,0.21367 3.34264,0.83643c1.64487,1.06144 3.20291,4.45787 3.94767,6.09088c2.27339,4.98479 2.92472,10.32606 1.15789,15.4111c4.07424,4.85567 4.15171,11.97913 1.84426,17.93395c2.04415,5.95791 2.13349,12.7452 -2.40033,17.82424c-2.18956,2.45287 -4.9063,2.95903 -7.38242,4.85485l-0.23223,0.26777c0,0 -1.76777,1.76777 -3.53553,0z" fill="#000000" stroke-width="0.5"></path><path d="M131,226c0,0 -0.12775,0 -0.32549,-0.02888l-0.27405,-0.0034c-4.92285,1.64095 -10.23726,1.03228 -15.40046,1.03228c-6.8,0 -13.60074,0.03227 -20.40046,-0.03228c-5.3229,-1.72252 -10.42392,-2.94017 -15.55625,-5.15802c-1.08929,-0.47072 -2.36157,-0.53807 -3.35762,-1.18307c-4.55069,-2.94683 -4.32684,-8.72593 -6.03038,-13.25926c-0.51317,-1.36562 -1.39126,-2.56935 -1.96499,-3.91066c-1.2025,-2.81132 -1.56121,-6.13399 -2.93609,-8.85833c-2.0856,-4.13264 -4.61723,-6.42556 -4.09579,-11.7328c0.30748,-3.12959 2.15796,-5.92005 2.91623,-8.97192c0,0 0.30963,-1.23852 1.37141,-1.7242c-2.04663,-3.73566 -3.42303,-7.10431 -3.44605,-11.66946c-0.01754,-3.47695 -0.48221,-6.95549 1.28555,-10.16027c0.86948,-1.57628 2.14297,-2.89316 3.21445,-4.33973c0,0 0.58038,-0.77384 1.50046,-0.99781c-0.00218,-2.02845 -0.00046,-4.02109 -0.00046,-4.50219c0,-4.38788 -0.53186,-8.83054 1.21371,-13.01138c0.49792,-1.19257 1.4846,-2.12036 2.12401,-3.24343c2.04622,-3.59399 3.4574,-6.55251 6.39451,-9.51295c0,0 1.76777,-1.76777 3.53553,0c0.17807,0.17807 0.32026,0.35614 0.432,0.5324c0.39204,-1.60858 0.89344,-3.17142 1.45552,-4.632c3.08869,-8.0261 11.11184,-11.44475 19.13528,-8.50434c1.34219,0.49188 2.99224,0.56796 3.9772,1.60394c2.83825,2.98529 1.20348,4.28637 1.69995,7.36731c0.33539,2.08134 1.35148,3.99404 2,6c0,2.02759 0.66667,4 1,6c0.44102,2.64612 0.13729,5.61378 1.65891,8.08613c0.49416,0.80293 1.52243,1.18709 2,2c1.06787,1.81772 0.89502,4.2046 2,6c0.49416,0.80293 1.51612,1.19084 2,2c0.58254,0.97415 0.61297,2.20003 1.11916,3.21595c1.02265,2.05244 2.56569,3.80143 3.83434,5.71163c2.70246,4.06907 6.96891,9.56951 11.71044,11.01504c0,0 0.38327,0.12776 0.79031,0.43463c2.36024,-4.8382 5.23019,-9.38419 8.90136,-13.08068c2.45949,-2.47645 5.46126,-4.62753 8.26056,-6.72682c-1.27732,-0.23529 -1.81398,-1.57694 -1.81398,-1.57694c-0.20666,-0.51665 -2.07206,-5.14571 -2.1337,-5.4557c-0.85698,-4.30992 0.87415,-7.73013 2.05853,-11.68514c1.82959,-6.10953 4.64355,-12.15702 9.85783,-16.25815c3.73482,-2.93752 8.23391,-4.83971 12.83609,-6.09872c-0.50934,-3.34263 -0.80433,-6.45479 -0.79756,-9.93076c0.00383,-1.96521 -0.20288,-4.66202 0.71773,-6.52042c1.36997,-2.76551 3.38781,-4.5041 6.77539,-3.92804c0.03081,-2.94609 1.38074,-6.35818 3.98615,-8.03583c3.36085,-2.16407 6.08355,-1.36715 8.19573,0.71346c-0.01144,-0.75757 0.05355,-1.34395 0.24486,-1.61592c1.02833,-1.46191 5.79848,-1.97295 7.55289,-1.56814c3.13371,0.72306 5.03733,3.02482 6.29025,5.80053c2.36576,-3.84757 8.09204,-2.59812 10.91133,-0.20213c3.07071,2.60966 4.10785,7.69218 4.78469,11.40579c0.80727,4.42926 0.07346,8.76733 0.5288,13.20436c0.37036,3.60899 0.51217,7.09111 0.51217,10.74634v0.5c0,0 0,0.54234 -0.2526,1.12182c4.3103,3.74684 7.01219,8.80564 9.52055,13.82631c4.71256,10.98753 8.20883,25.73849 2.47167,37.16277c-1.7114,3.40787 -5.90193,8.22134 -10.22285,8.82694c1.4394,6.55001 3.96834,12.97343 5.87959,19.34979c0.79822,2.66304 1.6985,5.33634 2.5,8c0.18919,0.62875 0.39941,1.2712 0.47371,1.92263c0.83016,-0.72794 2.17744,-1.24655 2.23496,-1.28488c3.20096,-2.13306 5.33305,-4.89358 8.03215,-7.59268c3.60347,-4.49857 5.78052,-9.72036 8.72106,-14.62221c2.02814,-3.3809 4.48376,-6.54917 6.47949,-9.9653c6.42324,-10.99482 10.15766,-23.4651 14.84108,-35.17366c1.86083,-4.59534 3.33222,-9.85128 3.83336,-14.81787c0.53672,-5.31912 -0.79367,-11.30537 2.40073,-16.12988c3.42126,-5.16715 11.40596,-7.46751 17.10753,-4.90604c3.24131,1.45618 5.03933,4.86709 6.75086,7.73762c0.31077,0.92364 0.59317,1.84638 0.84668,2.76831c1.64339,-0.33654 2.77109,-0.46817 4.90246,0.49407c3.6246,1.63638 6.16923,7.28715 7.76018,10.75812c1.25809,2.74479 2.31573,5.72278 3.07493,8.80302c4.92276,1.47742 6.78504,5.06726 8.07409,10.13209c1.54558,6.07278 1.13692,11.89035 0.3477,17.83139c0.81092,0.85792 1.87032,1.53727 2.42687,2.57799c2.45039,4.58215 -0.14619,11.28004 -1.27791,15.78227c-0.74499,2.96373 -0.58938,6.26713 -1.54882,9.17048c-3.73012,11.28762 -12.87759,20.94146 -22.33591,27.69505c-9.63507,8.24228 -20.657,13.56889 -32.0174,18.81244c-1.7301,0.79855 -3.51172,1.86541 -5.31721,2.85548c1.80297,1.02259 3.70644,1.88247 5.42983,3.0338c1.86411,1.24534 4.52506,2.72181 5.73988,4.7658c2.34359,3.94319 2.13989,9.22175 -1.60914,12.30109c-0.54634,0.44875 -1.12253,0.76946 -1.71904,0.99642c1.73196,1.32794 3.42678,2.70983 4.96932,4.24905c2.51127,2.50586 6.58403,5.3991 8.35886,8.45344c4.79937,8.25933 -3.28148,14.34579 -10.33606,16.68604c-4.90452,1.627 -7.6458,1.61312 -12.25235,-1.3436c-1.57162,-1.00875 -3.22361,-2.3959 -4.75303,-3.80836c-0.08935,1.10093 -0.4901,2.10731 -1.32342,2.80836c-0.7229,0.60815 -8.08119,-1.31936 -9.16074,-1.62781c-2.51742,-0.71926 -5.20411,-1.02814 -7.53278,-2.2248c-2.59167,-1.33182 -5.22198,-4.76383 -7.44562,-7.24561c-0.01244,0.02699 -0.02456,0.05415 -0.03635,0.08149c-0.70145,1.62712 -1.18751,3.34923 -1.56614,5.0973c0.30207,0.28359 0.55757,0.6944 0.70521,1.28498c0.45708,1.82832 -0.80866,2.62295 -1.45951,2.90338c-0.166,1.04996 -0.32421,2.08944 -0.49812,3.10341c-0.35638,2.07784 -1.65207,3.92072 -2,6c-0.87099,5.20511 0.03228,11.31769 0.03228,16.59954c0,0 0,2.32686 -2.24484,2.4909c0.34565,0.84406 0.68892,1.68916 1.04447,2.52842c1.07245,2.53153 3.07006,4.61566 4.05413,7.18284c1.42659,3.72162 2.74501,10.18288 2.11397,14.19829c-0.37055,2.35789 -2.05376,4.36094 -3.5586,6.21363c-2.03286,2.50275 -3.82828,5.27796 -6.32415,7.31927c-1.18106,0.96597 -2.3835,2.07669 -3.86051,2.45937c-6.9233,1.79376 -9.09336,-4.80255 -8.02822,-10.26333c0.03533,-0.18112 0.07235,-0.36316 0.11156,-0.54553c-3.92446,2.14185 -7.98575,4.14917 -12.40735,4.88385c-1.18304,0.19657 -2.30332,0.17655 -3.40046,0.03228h-4c-1.38071,0 -2.5,-1.11929 -2.5,-2.5c0,-0.69036 0.27982,-1.31536 0.73223,-1.76777v0l2,-2c1.88905,-1.88905 3.75134,-3.69726 5.66513,-5.44494c-4.48619,0.13073 -9.01016,-2.03765 -7.20706,-7.744c1.28882,-4.07877 3.37855,-2.60673 5.99537,-4.16992c0.75236,-0.44943 1.12196,-1.37187 1.83155,-1.88617c3.38033,-2.45001 6.68794,-3.69896 9.71501,-6.75497c0,0 0.19148,-0.19148 0.51142,-0.38538l-0.15294,-0.17951c0.4967,-2.66157 0.92971,-5.3603 0.94157,-8.06779c0.73936,-2.22028 0.73849,-4.62338 0.9999,-6.94888c0.34159,-3.03879 1.55738,-5.92846 1.98655,-8.95612c0.14458,-1.01993 -0.15836,-2.07454 0.0128,-3.09035c0.44843,-2.66133 1.65551,-5.17135 1.98064,-7.85054c0.2505,-2.06422 0.67646,-4.10334 1.02011,-6.15411c0.17486,-1.04349 -0.25596,-2.15657 0.0346,-3.17393c1.59462,-5.58353 5.04878,-10.53488 7.28936,-15.79343c0.28717,-0.67399 0.55951,-1.38091 0.82764,-2.10709l-0.47445,-0.15339c0,0 -2.37171,-0.79057 -1.58114,-3.16228c0.79057,-2.37171 3.16228,-1.58114 3.16228,-1.58114l0.61753,0.2139c0.81634,-2.05231 1.76896,-4.03411 3.07862,-5.66171c-2.73779,0.49309 -5.3476,0.43284 -8.15057,-0.21633c0.56111,1.1969 -0.25602,2.42261 -0.25602,2.42261c-2.1746,3.23968 -4.71161,6.16842 -7.14677,9.19822c-1.86627,2.322 -4.33559,3.74533 -5.68757,6.51341c-2.89016,5.91738 -3.85152,11.81588 -4.76452,18.20708c-0.49194,3.44369 -1.42994,6.71805 -2.01355,10.095c-0.45592,2.63809 0.03228,5.91859 0.03228,8.59954v1c0,0 0,2.5 -2.5,2.5c-0.77792,0 -1.31378,-0.24207 -1.6829,-0.57555c-0.04562,0.12275 -0.08103,0.19359 -0.08103,0.19359l-0.86436,1.67254c-1.54181,4.61618 -1.97149,9.93793 -4.12592,14.30781c-2.86788,5.81699 -5.82552,11.05692 -10.47802,15.66939c-3.21739,3.18971 -6.69337,5.96427 -11.36731,6.69995c-1.25156,0.197 -2.59688,0.39437 -3.80091,0c-1.8389,-0.60231 -4.43095,-1.05424 -5.03267,-2.89334c-0.52811,-1.61411 1.65901,-2.97411 2.66536,-4.34215c0.41908,-0.5697 0.97502,-1.26594 1.62374,-2.00738c-2.84382,0.65863 -5.4135,1.27995 -8.85597,1.27515c-1.46686,-0.00205 -3.04418,0.52647 -4.40046,-0.03228c-0.12451,-0.05129 -0.2468,-0.10644 -0.36709,-0.16508l-0.02302,0.06907l-2.94531,-0.98177c-1.02156,-0.31417 -1.76412,-1.26534 -1.76412,-2.38994c0,-1.38071 1.11929,-2.5 2.5,-2.5h2.42514c2.52027,-1.84372 3.52019,-4.4426 5.98989,-6.43336c1.52526,-1.22947 3.34758,-2.01733 5.09534,-2.92271c-4.00437,0.42311 -8.06584,0.22137 -12.05884,-0.70484c-1.85572,-0.43045 -9.39848,-1.50711 -7.86082,-6.10643c0.29867,-0.89335 6.88658,-3.2119 8.71032,-3.73297c5.62855,-1.60816 10.35235,-4.14898 15.9084,-5.97141c3.77409,-1.23793 7.20802,-0.40914 10.0228,-3.39606c0,0 0.8769,-0.8769 2.0131,-0.77788c1.27508,-3.48586 2.84073,-7.17874 3.2734,-10.75981c0.4823,-3.99185 0.42437,-8.12039 1.01355,-12.095c0.69618,-4.69644 3.78467,-8.7661 5.0346,-13.17393c0.27281,-0.96207 -0.27643,-2.03897 0,-3c0.09388,-0.32638 0.19891,-0.65864 0.31382,-0.99534c-0.22885,-0.34986 -0.3807,-0.81415 -0.3807,-1.43028c0,-1.79147 1.28374,-2.29919 2.0114,-2.44309c1.04062,-2.12761 2.27222,-4.21836 3.40847,-5.94366c1.09505,-1.63138 2.48502,-3.92016 4.12714,-5.55856c-0.53665,0.18495 -1.08988,0.32325 -1.64655,0.41303c-3.89931,0.62889 -8.44504,0.03228 -12.40046,0.03228c-3.72941,0 -6.65338,-0.56222 -10.30546,-1.01873c-4.31069,-0.53884 -8.34792,-0.5651 -12.56191,-2.13656c-1.39675,-0.52087 -2.60445,-1.47591 -4,-2c-2.28069,-0.8565 -4.6536,-1.59241 -6.76238,-2.80143c0.12286,2.98453 0.35673,5.93111 0.7761,8.99435c0.21882,1.59833 1.65737,3.66144 0.52563,4.8111c-2.80231,2.84669 -6.01943,-0.23122 -7.92199,-1.59874c-4.39359,-3.344 -5.98433,-7.55387 -8.01768,-12.25092c-1.95726,0.01078 -3.6797,0.40068 -5.48702,0.69076c-0.62343,0.31016 -1.2453,0.31016 -1.2453,0.31016l-1.38804,-0.01724c-0.20138,0.00936 -0.40525,0.01527 -0.61196,0.01724zM131,221c2.37047,0.02944 4.38332,-0.51611 6.5878,-0.81378c-5.7454,-13.06984 -11.09648,-28.48605 -8.25405,-42.57789c1.25425,-3.78109 2.62795,-7.75412 4.26207,-11.64961c-0.2367,-0.03712 -0.38638,-0.08701 -0.38638,-0.08701c-7.73694,-2.73376 -14.83729,-12.06191 -18.45522,-19.27333c-0.43648,-0.87001 -0.37872,-1.95021 -0.88084,-2.78405c-0.48636,-0.80768 -1.52243,-1.18709 -2,-2c-1.06787,-1.81772 -0.89502,-4.2046 -2,-6c-0.49416,-0.80293 -1.52243,-1.18709 -2,-2c-1.85488,-3.15737 -1.77941,-6.5438 -2.34109,-9.91387c-0.33333,-2 -1,-3.97241 -1,-6c-0.29835,-0.86135 -1.90344,-5.43701 -2,-6c-0.2616,-1.52519 0.86547,-3.61474 -0.30005,-4.63269c-0.51749,-0.45197 -1.36129,-0.21042 -2.0228,-0.39606c-5.56296,-1.5611 -10.70494,-0.45255 -12.86472,5.49566c-1.31547,3.6229 -2.42687,7.93421 -1.86344,11.82718c0.39372,2.72039 1.60648,5.27958 2,8c0.13863,0.95837 -0.15422,1.94693 -0.01355,2.905c0.37405,2.54762 2.16013,4.49286 3.84661,6.27383l2.47624,0.75492c0,0 2.37171,0.79057 1.58114,3.16228c-0.79057,2.37171 -3.16228,1.58114 -3.16228,1.58114l-3.52376,-1.24508c-2.90947,-2.82352 -5.39539,-5.55852 -6.15339,-9.72617c-0.18461,-1.01502 0.13044,-2.07342 -0.01355,-3.095c-0.38365,-2.72183 -1.61547,-5.27829 -2,-8c-0.28967,-2.05026 -0.23102,-4.21085 0.06778,-6.35621c-2.98198,3.01729 -5.60327,7.23236 -7.30023,11.06214c-1.11386,2.51382 -0.79279,4.31727 -0.78629,6.98862c0.0099,4.06684 -0.49532,8.57173 -0.03228,12.59954c0.19114,1.6627 2.42295,5.46308 2.84198,6.44375c2.13632,4.99972 2.7966,8.23848 7.41476,11.56398l2.27554,-0.10727c0,0 2.5,0 2.5,2.5c0,2.5 -2.5,2.5 -2.5,2.5l-3.72446,-0.10727c-3.68892,-2.35006 -6.48377,-4.26801 -8.52133,-8.29435c-0.50303,-0.99402 -1.56597,-4.98344 -2.06391,-6.14167c-0.83473,-1.94161 -2.08846,-3.80546 -2.76118,-5.85762c-0.25401,0.34304 -0.49528,0.6947 -0.71467,1.06117c-1.33664,2.23277 -0.70038,5.39925 -0.71445,7.83973c-0.02474,4.29191 1.5957,7.11351 3.66228,10.74518c1.24419,2.18647 1.6625,4.78786 2.96435,6.94049c0.45794,0.7572 1.41064,1.11625 1.90148,1.85255c0.82687,1.24037 1.17495,2.75842 2,4c0.94747,1.4258 2.17596,2.64631 3.24514,3.98346c0.64853,0.08385 2.22675,0.49198 2.22675,2.47832c0,2.5 -2.5,2.5 -2.5,2.5l-3.08013,-1.11325c-1.16075,-1.75486 -2.77839,-3.17599 -3.94798,-4.92497c-0.82867,-1.23917 -1.17307,-2.75967 -2,-4c-0.55519,-0.83274 -1.58605,-1.28775 -2.09852,-2.14745c-0.57052,-0.95708 -0.97784,-1.99692 -1.36092,-3.04928c-0.75654,1.85744 -1.62957,3.68135 -1.88477,5.65414c-0.49065,3.79292 2.13354,5.98895 3.61811,8.98243c1.41412,2.85143 1.80875,6.2188 3.06391,9.14167c0.60078,1.39903 1.50132,2.66337 2.03501,4.08934c0.91929,2.45623 1.19304,9.28751 3.96962,10.74074c5.35791,2.80428 11.3997,3.69589 17.08613,5.65891c7.53185,-0.09353 15.06715,-0.03228 22.59954,-0.03228c4.07463,0 7.71829,0.32603 11.59954,-0.96772l1.12808,-0.01071c0.1672,-0.02157 0.27238,-0.02157 0.27238,-0.02157zM170.76777,316.73223l0.37864,0.37864c0.15024,-0.03008 0.30124,-0.05647 0.45314,-0.07859c0.73768,-0.10744 1.58459,0.65205 2.22081,0.26353c0.76448,-0.46685 0.83086,-1.58719 1.24629,-2.38079l0.22372,-0.12466l-0.05814,-0.05814l2,-2c0.45241,-0.45241 1.07741,-0.73223 1.76777,-0.73223c1.38071,0 2.5,1.11929 2.5,2.5v3h-0.14841c0.01534,0.31787 0.00399,0.63668 -0.04189,0.95671c-0.11722,0.81766 -1.88781,2.3453 -3.5809,3.65119c0.71266,0.21685 1.2904,0.74344 1.57642,1.42299c1.32425,-1.11839 2.51152,-2.39303 3.92701,-3.79865c6.98046,-6.93176 8.42108,-17.08102 11.39606,-26.0228l1.13564,-2.32746c0,0 1.11803,-2.23607 3.3541,-1.11803c0.14013,0.07006 0.26708,0.14452 0.38196,0.22254c-0.00133,-2.97099 -0.43942,-6.46219 0.03228,-9.38692c0.38494,-2.38673 0.99505,-4.71962 1.48671,-7.09988c-0.01244,0.00034 -0.01899,0.00034 -0.01899,0.00034l-3.38675,-0.41987c-2.25316,-1.5242 -3.51879,-2.26594 -5.60467,-2.49866c-0.13502,2.24986 -0.24168,4.50607 -0.52731,6.72399c-0.58597,4.54997 -2.66454,9.15004 -4.10956,13.48511l-1.60394,1.9772c0,0 -1.36494,1.36494 -2.89544,0.49667c-4.69599,3.01415 -10.5045,2.32073 -15.77394,4.98135c-0.9756,0.49259 -1.92376,1.05822 -2.88527,1.59025c0.34099,0.68198 0.68198,1.36395 1.02296,2.04593l0.5317,0.35027c0,0 0.20924,0.20924 0.41176,0.55573c0.50521,-0.10258 1.01023,-0.19711 1.51502,-0.26923c1.84338,-0.26338 3.75534,-0.28098 5.51489,-0.89044l2.94464,-0.98155c0.2642,-0.09499 0.54902,-0.14675 0.84593,-0.14675c1.38071,0 2.5,1.11929 2.5,2.5c0,0.52532 -0.16203,1.0128 -0.43883,1.41519l-1.98104,2.97156l-0.11945,-0.07963c-0.13414,0.23399 -0.28096,0.46103 -0.44319,0.67965c-0.67536,0.9101 -2.23202,0.55566 -3.20316,1.13986c-0.75828,0.45615 -1.11604,1.41096 -1.85255,1.90148c-0.93072,0.61986 -1.93742,1.12205 -2.94589,1.61979c0.47225,1.33732 1.22754,2.61902 2.25189,3.58434zM172.31362,326.72679c0.93725,-0.09043 1.8755,-0.16822 2.72968,-0.53649c0.02759,-0.0119 0.05508,-0.02383 0.08247,-0.0358c-0.38496,-0.43576 -0.62032,-1.00679 -0.62567,-1.6327c-0.35763,0.354 -1.32573,1.33546 -2.18648,2.20499zM161.89913,318.91838c0.94214,0.11614 1.88242,0.19937 2.79541,0.10035c0.4354,-0.04722 0.86321,-0.13206 1.28614,-0.24128c-0.69062,-0.93949 -1.28019,-1.96162 -1.76315,-3.02434c-0.93748,0.89157 -1.56599,2.08614 -2.3184,3.16526zM222.20943,340.87171c-0.69172,-0.23057 -1.38344,-0.46115 -2.07516,-0.69172c0.01635,0.85514 0.30376,1.60363 1.04537,2.11582c0.86265,0.59579 1.95252,-0.50386 2.82185,-1.34172zM223.79057,336.12829l1.20943,-0.12829c0,0 1.72243,0 2.30791,1.42969c0.93878,-1.17169 1.83201,-2.3873 2.78298,-3.54377c0.95382,-1.15994 2.26255,-2.29532 2.4414,-3.78637c0.39351,-3.28059 -0.69693,-8.60769 -1.84719,-11.60751c-0.96243,-2.50999 -2.92506,-4.54083 -3.98471,-7.01135c-0.96047,-2.23928 -1.77222,-4.54691 -2.86265,-6.72586l-1.91785,-2.86807c0,0 -1.38675,-2.08013 0.69338,-3.46688c2.08013,-1.38675 3.46688,0.69338 3.46688,0.69338l1.33745,2.01178c-0.19527,-4.66034 -0.61716,-9.62081 0.1147,-14.02548c0.34555,-2.07967 1.66461,-3.91866 2,-6c0.07095,-0.44032 0.1412,-0.88508 0.21196,-1.33324c-2.15362,0.2159 -4.26694,0.23369 -6.74424,0.23369h-1.11315c-0.16643,0.62655 -0.31253,1.2572 -0.41838,1.89581c-0.15859,0.95684 0.15096,1.94965 0.0128,2.90965c-0.43054,2.99161 -1.64481,5.8453 -1.97461,8.84968c-0.26622,2.42524 -0.26672,4.93094 -1.03894,7.24531c0.00937,2.00861 -0.38794,4.03879 -1.05843,5.93221l1.35848,0.89957c0,0 1.76777,1.76777 0,3.53553c-0.99352,0.99352 -1.98704,0.87028 -2.66674,0.57175c-0.17467,0.26967 -0.33326,0.42825 -0.33326,0.42825c-2.87522,2.85164 -5.97985,4.31876 -9.1364,6.44149c0.26601,1.03981 0.54482,2.07675 0.84285,3.10793c1.10065,-0.7994 2.12154,-1.6281 2.85181,-2.17875l1.9062,-1.9062c0.45241,-0.45241 1.07741,-0.73223 1.76777,-0.73223c1.38071,0 2.5,1.11929 2.5,2.5c0,0.29691 -0.05176,0.58173 -0.14675,0.84593l-0.98155,2.94464l-0.11016,-0.03672c-0.0372,0.18803 -0.08179,0.37492 -0.13492,0.56048c-0.48185,1.68297 -2.91387,3.44639 -5.00533,4.86068c0.31961,0.47941 0.63922,0.95883 0.95883,1.43824l1.07137,2.10273c1.73601,-0.84602 3.46047,-1.74948 5.28354,-2.68655l1.7972,-1.7972c0.45241,-0.45241 1.07741,-0.73223 1.76777,-0.73223c1.38071,0 2.5,1.11929 2.5,2.5c0,0.29691 -0.05176,0.58173 -0.14675,0.84593l-0.98155,2.94464l-0.01225,-0.00408c-0.00389,0.02448 -0.00789,0.04895 -0.01199,0.07341c-0.07647,0.45594 -0.40253,1.17784 -0.78187,2.02674c0.74166,0.24722 1.48332,0.49444 2.22497,0.74166zM206.91987,332.88675c-0.26578,-0.39866 -0.53155,-0.79733 -0.79733,-1.19599c-1.3987,1.28646 -2.72273,2.72734 -4.03413,4.14091c0.93365,-0.16674 1.94159,-0.30309 3.12102,-0.70339c0.81621,-0.27702 1.60561,-0.56951 2.37633,-0.87572zM199.3097,323.45671c-0.84008,0.92196 2.07495,0.96541 3.6459,0.70738c-0.21027,-0.69838 -0.41161,-1.39955 -0.60572,-2.10274c-1.08539,0.37887 -2.28665,0.56838 -3.04018,1.39536zM234.23223,262.73223c0.00859,-0.00859 0.01717,-0.01709 0.02576,-0.02551c-2.17463,0.2092 -4.32043,0.42133 -6.46742,1.16498l-1.79057,0.12829c0,0 -0.4757,0 -1.01209,-0.20751c-0.22734,0.41018 -0.4261,0.83171 -0.55478,1.28189c-0.25893,0.90581 0.18861,1.89665 0.0346,2.82607c-0.323,1.94923 -0.73164,3.88573 -0.97989,5.84589c-0.05336,0.42132 -0.12649,0.83886 -0.21375,1.25371c2.75269,0.00088 4.9299,0.00879 7.35092,-0.35897c0.48978,-2.45257 1.12419,-4.89003 2.08871,-7.15247c0.27115,-0.63602 0.70493,-1.18291 1.13165,-1.73473c-0.39479,-0.6527 -0.79761,-1.83718 0.38687,-3.02166zM245.76777,270.73223c0.50047,0.51901 0.81401,1.28022 1.46398,1.59227c2.6081,1.25215 6.01586,1.28252 8.8841,2.1608c-0.16544,-0.2777 -0.29316,-0.57155 -0.36163,-0.88693c-0.02371,-0.10921 -0.045,-0.21869 -0.06406,-0.32843l-0.06186,0.02062l-1,-3l0.95968,-0.31989c0.04479,-0.86715 0.10719,-1.73628 0.09771,-2.5973l2.37689,1.06406l0.7052,-0.7052l1.86882,1.86882c0.98279,0.6552 1.96559,1.31039 2.94838,1.96559c1.50923,1.50923 3.33397,2.66587 5,4c2.16564,1.7342 3.80217,4.11614 7.01457,3.46564c4.04454,-0.81901 13.73612,-4.74962 10.27383,-10.21795c-0.90636,-1.4315 -2.44309,-2.34851 -3.64114,-3.54656c-3.17047,-3.17047 -6.13,-6.06609 -9.73223,-8.76777c-1.38059,-1.03545 -3.10311,-1.73036 -4.138,-3.11137c-0.03593,-0.04794 -0.07108,-0.09633 -0.1055,-0.14513l-0.02427,0.02427l-2,-2c-0.45241,-0.45241 -0.73223,-1.07741 -0.73223,-1.76777c0,-1.38071 1.11929,-2.5 2.5,-2.5c0.52532,0 1.0128,0.16203 1.41519,0.43883l2.49373,1.66249c0.98868,-0.02616 2.79988,-0.00756 3.5736,-0.58809c2.4737,-1.85606 0.835,-5.63554 -1.06749,-7.07988c-3.43257,-2.60594 -7.02199,-4.74242 -10.70565,-6.71268c-1.9375,0.5443 -3.99282,0.58472 -5.96909,0.98077l-1.99029,0.04855c0,0 -2.18553,0 -2.46968,-2.04346l-0.20019,0.18021c-1.17364,1.74847 -2.85804,3.1291 -3.9535,4.92758c-1.21228,1.99027 -1.71078,4.21213 -2.61083,6.36421c0.02069,0.27481 -0.00422,0.58292 -0.09044,0.9278c-0.22776,0.91103 -0.71217,1.3943 -1.22829,1.64263c-1.78854,5.5536 -2.86808,11.78434 -5.19756,17.21469c1.92423,1.91915 3.8822,3.81266 5.76827,5.76858zM255.88197,230.73607c0,0 -2.23607,-1.11803 -1.11803,-3.3541c1.11803,-2.23607 3.3541,-1.11803 3.3541,-1.11803c2.117,1.06238 4.46459,1.65426 6.557,2.75218c2.56838,-1.18973 5.15287,-2.94003 7.55082,-4.04672c10.99304,-5.07345 21.66979,-10.18877 30.9826,-18.18756c8.68639,-6.20671 17.17395,-14.94416 20.66409,-25.30495c0.92648,-2.75033 0.74899,-6.00613 1.45118,-8.82952c0.40971,-1.64739 1.09833,-3.58941 1.55556,-5.54379c-0.48684,1.3586 -1.13745,2.68065 -2.05466,4.0414c-2.01077,2.98313 -4.774,4.43916 -7.78838,6.24876l-1.16821,0.59234c0,0 -2.23607,1.11803 -3.3541,-1.11803c-1.11803,-2.23607 1.11803,-3.3541 1.11803,-3.3541l0.83179,-0.40766c0.80127,-0.48049 4.43121,-2.61665 5.0682,-3.1724c2.67467,-2.33357 3.28407,-6.29025 3.74316,-9.53742c0.77914,-5.51082 1.94714,-10.83402 1.48339,-16.44025c-0.25397,-3.07019 -0.7799,-7.76372 -3.06523,-10.20577c0.84815,8.35726 -0.84823,16.82273 -6.90475,22.97008c-0.91743,0.55774 -1.83486,1.11548 -2.75229,1.67322l-0.51847,0.62403c0,0 -1.76777,1.76777 -3.53553,0c-1.76777,-1.76777 0,-3.53553 0,-3.53553l1.48153,-1.37597c0.74924,-0.44226 1.49847,-0.88452 2.24771,-1.32678c8.23588,-8.04295 5.45107,-22.69366 1.25793,-32.00535c-0.75317,-1.67255 -1.91085,-3.1318 -2.84603,-4.70981c-1.57036,-2.64981 -1.90351,-3.81512 -4.17449,-3.64419c1.17523,7.28765 0.47261,14.53028 -2.3777,21.75834l-0.58512,1.18956c0,0 -1.11803,2.23607 -3.3541,1.11803c-2.23607,-1.11803 -1.11803,-3.3541 -1.11803,-3.3541l0.41488,-0.81044c3.41154,-8.38326 3.36278,-16.98322 0.54991,-25.52688c-1.04031,-1.71918 -2.2633,-4.39884 -4.24914,-5.26238c-3.53725,-1.53817 -8.74488,-0.09032 -10.89247,3.09396c-2.59679,3.85032 -1.17636,9.60889 -1.59927,13.87012c-0.54135,5.45461 -2.16272,11.11979 -4.16664,16.18213c-4.774,11.935 -8.6251,24.6098 -15.15892,35.82634c-2.00506,3.44207 -4.47834,6.63178 -6.52051,10.0347c-3.1141,5.18912 -5.46772,10.60872 -9.27894,15.37779c-3.63084,3.63084 -6.75013,7.76583 -11.57658,9.97643c-1.48447,0.67991 -3.03779,2.24897 -4.58436,1.72545c-2.26477,-0.76664 -3.28929,-6.9131 -4.04934,-9.00928c-2.08445,-5.74875 -3.21415,-11.77594 -5.03949,-17.61662c-1.15683,-3.70158 -2.43278,-6.98458 -3.07903,-10.83228c0,0 -0.06377,-0.38262 0.00964,-0.87154c-0.28715,0.24011 0.22949,1.34808 -0.21073,1.57556c-1.32149,0.68288 -2.9085,0.99566 -4.38595,0.82305c-0.60476,-0.07065 -0.72895,-0.97546 -1.09342,-1.46319c-0.36938,0.63714 -0.37717,1.82151 -1.10814,1.91141c-2.05825,0.25312 -4.13474,-1.08008 -5.74542,-2.38628c-0.13487,-0.10938 0.03437,0.35444 -0.0157,0.52072c-0.08442,0.28033 -0.16284,0.56516 -0.24872,0.84719c6.60004,11.0918 11.76051,22.73678 16.58562,34.70361l0.02377,0.2564c0.32835,0.21433 0.6383,0.54845 0.8911,1.05405c1.11803,2.23607 -1.11803,3.3541 -1.11803,3.3541c-2.02931,1.01014 -4.6539,2.52553 -6.96269,2.7591c-2.37291,0.24006 -5.64948,-0.49517 -8.15534,-0.49517c-13.02684,0 -25.01107,-4.056 -36.11091,-10.76038c-4.35846,-1.74338 -7.06165,-5.26095 -11.31757,-6.91843l-0.76935,-0.67533c-3.27769,7.70987 -5.31581,15.87608 -5.30217,24.35414c0.0007,0.43711 0.00258,0.87136 0.00584,1.30318c1.09632,-0.32303 2.13091,0.36669 2.13091,0.36669c1.93582,1.32306 4.28475,1.9132 6.48062,2.73541c1.39606,0.52274 2.60523,1.47385 4,2c3.85416,1.4539 7.49467,1.37052 11.43809,1.86344c1.36376,0.17047 2.64016,0.80068 4,1c3.69915,0.54221 7.94923,-0.01873 11.69454,-0.01873c1.86655,0 3.76026,0.35015 5.59954,0.03228c1.0387,-0.17951 1.94595,-0.99108 3,-1c1.81685,-0.01537 4.4427,-0.63271 5.37097,0.92919c2.95303,4.96875 -3.71091,9.63027 -5.89039,12.92528c-0.69137,1.02203 -1.45124,2.24858 -2.16529,3.54005c3.34586,0.55536 6.53239,1.58705 9.87573,2.7015l0.20943,-0.12829c0,0 0.06144,0 0.16507,0.00963c0.96738,-0.96735 1.96709,-1.9206 2.90158,-3.09461c2.31853,-2.91278 4.79475,-5.6897 6.85323,-8.80178c0,0 0.42711,-0.64067 1.16282,-0.97386c-0.47513,-0.49641 -0.83904,-1.27604 -0.45441,-2.42995c0.79057,-2.37171 3.16228,-1.58114 3.16228,-1.58114c3.39865,1.17719 6.61205,1.28986 10.03083,0.15282l2.76341,-1.84228c0.40239,-0.27681 0.88987,-0.43883 1.41519,-0.43883c1.38071,0 2.5,1.11929 2.5,2.5c0,0.22872 -0.03071,0.45026 -0.08824,0.66073l-0.9864,3.94561l-0.10774,-0.02694c-0.03941,0.2186 -0.08638,0.43611 -0.14211,0.65234c-0.26548,1.03004 -1.57688,1.44833 -2.20499,2.30678c-0.88144,1.20469 -1.63481,2.50648 -2.29597,3.84479c-0.02133,0.04318 -0.04252,0.08642 -0.06356,0.12972c2.58116,0.01393 5.04412,0.1307 7.61392,0.56771c0.87728,-2.13414 1.39061,-4.2753 2.64847,-6.39507c1.10376,-1.86008 2.85326,-3.26844 4.0465,-5.07242l1.31236,-1.38102c0,0 1.76777,-1.76777 3.53553,0c0.45018,0.45018 0.67107,0.90035 0.75027,1.32134c0.61893,-0.30357 1.23197,-0.30357 1.23197,-0.30357l0.17701,0.00851c-0.01501,-0.00748 -0.03003,-0.01496 -0.04504,-0.02244zM156.61173,303.29763c1.17475,0.27077 2.34775,0.55532 3.54342,0.6957c0.10391,0.0122 0.20782,0.02234 0.31172,0.03055c-0.29065,-0.58129 -0.58129,-1.16259 -0.87194,-1.74388c-0.82751,0.30201 -1.88824,0.69814 -2.98319,1.01763zM200.38675,269.41987l0.61325,-0.41987c0,0 0.36551,0 0.81701,0.13976c0.32075,-2.15944 0.6672,-4.2879 1.10775,-6.3879c-0.38669,-0.19762 -0.6265,-0.42044 -0.6265,-0.42044l0.11436,-0.39938c-2.6794,-0.53849 -5.358,-1.13493 -7.95709,-1.97953c-0.90516,1.92928 -1.70681,3.89206 -1.98781,5.94795c-0.01102,0.0806 -0.02178,0.16125 -0.03231,0.24195c2.9516,0.34782 5.02661,1.35129 7.95134,3.27747zM203.39319,257.02913l0.84643,0.60111c0.65637,-2.10292 1.47014,-4.17822 2.51459,-6.22862c0.00216,-0.00424 0.00432,-0.00848 0.00649,-0.01272c-3.01042,-0.99823 -5.91642,-1.90001 -9.03182,-2.24278c-0.11114,0.31692 -0.21036,0.62711 -0.29575,0.92826c-0.27281,0.96207 0.27643,2.03897 0,3c-0.22331,0.77636 -0.51028,1.54664 -0.83395,2.31469c2.22417,0.69032 4.5098,1.18558 6.79402,1.64006zM240.14689,247.30842c-2.4922,-0.32359 -4.93389,-0.32848 -7.49814,-0.33223c-0.38212,1.06899 -0.77047,2.13557 -1.2189,3.17639c-0.83202,1.93117 -2.23727,3.56823 -3.18407,5.4458c-0.51608,1.02342 -0.80436,2.13951 -1.09995,3.25378c3.45617,-0.92506 6.77946,-0.81827 10.28931,-1.55514c0.97258,-3.3211 1.74193,-6.75656 2.71175,-9.9886zM162.17848,190.42881c4.44037,1.81306 7.21711,5.29545 11.68243,7.08157c10.51761,6.27395 21.56219,10.23962 33.88909,10.23962c2.496,0 5.48561,0.68154 7.84466,0.50483c0.48822,-0.03657 1.59481,-0.51946 2.65375,-1.03089c-4.33045,-10.89483 -9.03494,-21.54117 -14.937,-31.65748c-2.46242,1.67846 -6.87739,3.16988 -9.58864,3.63844c-3.34375,0.57786 -3.5844,-0.2009 -6.67897,-0.46341c-3.02104,-0.25627 -5.71374,0.03488 -8.7445,-0.53244c-1.91709,-0.35886 -3.7364,-1.19724 -5.45079,-2.12723c-0.31789,-0.17245 -0.67452,-0.54388 -1.00747,-0.40268c-2.52787,1.07201 -4.93311,5.36044 -6.51641,7.46584c-1.28914,2.15418 -2.50413,4.35551 -3.62337,6.60013zM180.25,134.25c0.99286,1.34508 1.90739,2.84456 2.57346,4.43892c-0.03422,-1.43183 0.07494,-2.87162 0.2664,-4.31928c-0.59135,-0.00344 -1.1737,-0.05233 -1.74031,-0.15192c-0.41376,-0.07272 -0.82284,-0.1613 -1.22656,-0.26515zM183.70489,145.72277c-0.09812,0.48529 -0.21243,0.9458 -0.34385,1.38021c0.50739,-0.19958 1.0002,-0.40911 1.47231,-0.62394c-0.10335,-0.18742 -0.20267,-0.37705 -0.29781,-0.56877c-0.24834,-0.50048 -0.46531,-1.00199 -0.65367,-1.50453c-0.02992,0.43759 -0.08801,0.87692 -0.17699,1.31703zM172.27158,142.0778c-0.20505,-1.53904 -3.14676,-1.62597 -3.42873,-3.15279c-0.75416,-4.08366 2.51946,-6.47017 5.69238,-7.61541c-0.97132,-0.70706 -1.8682,-1.5191 -2.67386,-2.42159c-0.90632,-1.01524 -1.48323,-2.32712 -2.34468,-3.36917c-5.92617,5.83978 -6.78359,14.47512 -0.11941,19.94953c0.62043,-1.25529 3.06601,-1.95176 2.87431,-3.39057zM205.28129,127.28143c1.98487,-0.47249 2.78991,1.54009 2.78991,1.54009l0.51882,1.31065c-0.43993,-2.72526 -1.12898,-5.40461 -2.1612,-7.9537l-0.75894,-1.04172c0,0 -0.27213,-0.4082 -0.39447,-0.98349c-0.47815,0.32098 -0.97902,0.68576 -1.52541,1.09674c-1.43067,1.07018 -3.04838,1.87724 -4.46147,2.97052c-2.10766,1.63066 -3.40797,4.19366 -5.36418,5.88598c-1.53069,1.32419 -3.5183,2.50063 -5.64323,3.28045c-0.63195,3.42672 -0.9753,6.92139 0.68332,10.20279c0.11905,0.23552 0.24815,0.46805 0.38666,0.69697c0.75242,-0.14273 1.9214,-0.08186 2.63496,1.34527c0.37124,0.74247 0.37267,1.36167 0.20895,1.85761c0.36083,0.288 0.73788,0.55747 1.1282,0.80568c-0.28005,-1.94065 2.01233,-5.86397 2.95627,-7.08379c0.67751,-0.87553 1.93657,-1.20176 2.03245,-2.40845c0.09576,-1.20516 -2.84518,0.05123 -3.49529,-0.96805c-1.20527,-1.88971 0.55843,-9.62161 2.33461,-11.00696c2.90114,-2.26276 4.86437,-0.87145 7.52722,0.10079c0,0 0.27783,0.11113 0.60281,0.35262zM207.98962,143.36091c-0.33958,0.69132 -0.69512,1.43744 -1.08218,2.18713c0.49391,-0.77081 0.89103,-1.59239 1.22047,-2.4494c-0.04847,0.08634 -0.09477,0.17367 -0.13829,0.26227zM217.76217,100.49634c-0.51314,-5.25633 0.48942,-10.37731 -0.9197,-15.57271c-0.47052,-1.7348 -1.39907,-4.54418 -2.76682,-5.81715c-1.02187,-0.95106 -1.33375,-1.01789 -2.49813,-0.99742c-0.29026,0.0051 -0.95822,-0.19244 -0.86694,0.08314c0.13588,0.41018 0.74269,0.44188 1.11404,0.66282c0.56921,0.79152 1.33669,1.47294 1.70764,2.37455c1.73535,4.21783 0.32385,14.10603 -6.88064,12.26621c-1.49905,-0.38281 -1.34416,-2.79444 -1.85307,-4.2555c-1.08996,-3.1292 -1.25353,-6.48144 -2.39601,-9.6304c-0.15929,-0.43904 -1.06649,-3.78549 -1.77346,-4.45658c-0.83259,-0.79033 -1.97475,-0.27438 -2.91937,-0.37952c0.51454,0.88585 0.49869,2.40843 0.52813,2.72986c0.22889,2.49957 0.11366,4.37625 -0.29168,6.24634h0.30384v3.5c0,1.38071 -1.11929,2.5 -2.5,2.5c-1.22888,0 -2.25067,-0.88665 -2.46053,-2.05512l-0.49092,-2.45459c-0.3287,-1.73321 -1.09846,-3.36049 -1.82915,-4.96615c-0.34085,-0.74901 -0.52126,-1.56813 -0.89881,-2.29933c-1.61684,-3.13137 -3.8785,-1.8994 -4.94888,1.06576c-0.51448,1.42521 0.84259,3.00448 0.61977,4.50323c-0.01025,0.06895 -0.02143,0.13768 -0.03348,0.2062h0.042v2.5c0,1.38071 -1.11929,2.5 -2.5,2.5c-0.82831,0 -1.56254,-0.40283 -2.01746,-1.02328l-1.38103,-1.84137c-1.50747,-1.45956 -2.00902,0.4501 -2.11368,2.11099c-0.25193,3.99819 0.11013,7.75675 0.70351,11.63058c8.62163,-1.06281 16.18029,1.95744 24.45033,4.20682c5.04201,1.37139 10.58227,2.74944 15.34727,5.29925c-0.04034,-2.91137 -0.19232,-5.72286 -0.47677,-8.63665zM208.59187,82.72096c0.03722,0.18145 0.07369,0.36113 0.10958,0.53875c0.04615,0.22839 0.29012,0.94708 0.5245,1.8024c0.01077,-0.10382 0.01899,-0.20784 0.02404,-0.31211c0.0473,-0.9756 -0.22006,-1.48867 -0.65813,-2.02904zM194.75,162.75c0,0 -1.43371,0 -2.12967,-1.08573c-5.21519,-0.37939 -10.32135,-1.86543 -15.62398,-1.42643c-6.96809,0.57688 -11.84169,5.64305 -16.47858,10.27993c-2.76729,2.76729 -5.27706,4.74297 -7.03169,8.35027c-0.95054,1.90108 -2.13784,3.69843 -2.87139,5.69331c-2.42187,6.58633 -1.36469,14.81549 -1.36469,21.68866c0,3.87765 -0.25644,7.88659 -0.14041,11.80128c0.04108,-0.68364 0.09075,-1.35458 0.14893,-2.00747c1.15492,-12.95966 5.19395,-24.51016 11.91686,-35.68877c2.214,-2.95897 5.63662,-8.53339 9.48359,-9.53416c3.35062,-0.87165 3.99634,1.06972 6.49253,2.09732c3.20716,1.32029 6.97795,0.56774 10.30471,0.84033c1.59034,0.13031 3.64479,0.86327 5.32103,0.53659c2.29496,-0.44727 5.96791,-1.55216 7.8709,-2.96449c3.00936,-2.23343 0.5674,-6.04323 6.10187,-6.58062c1.20427,-0.11694 2.12933,1.15222 3.16027,1.78555c0.38978,0.23945 0.67287,1.00606 1.09431,0.82817c0.86542,-0.36528 1.26125,-1.3924 1.89186,-2.08859c1.11215,0.58803 2.52943,2.13458 3.52062,1.35986c0.93634,-0.73184 1.4673,-2.38404 2.65571,-2.37869c1.85107,0.00832 2.82954,3.10585 4.67722,2.99371c4.67041,-0.28347 7.31799,-6.79717 8.04855,-10.49029c1.97216,-9.96964 0.13748,-19.22453 -3.8165,-28.45784c-2.27549,-4.54723 -4.6784,-9.32163 -8.77059,-12.58136c-4.9195,-3.91873 -11.70423,-5.44137 -17.60314,-7.05427c-7.8126,-2.13614 -15.17981,-5.35332 -23.40763,-3.95721c-5.09918,0.99626 -10.2617,2.82805 -14.41217,6.01148c-4.41311,3.38488 -6.62074,8.67927 -8.14217,13.74185c-0.93996,3.12772 -2.63221,5.89013 -1.94147,9.31486c0.32376,1.60521 1.25813,3.02389 1.8663,4.5443c0,0 0.55145,1.37861 -0.25806,2.43591c0.38697,0.09623 0.7958,0.31596 1.20464,0.7248c1.76776,1.76776 0,3.53553 0,3.53553l-0.76776,0.73224c-2.62172,1.9663 -5.41447,3.96967 -7.73224,6.26776c-7.0415,6.98173 -10.7896,17.73713 -13.85152,26.87391c-1.5569,7.86274 -0.05162,15.51778 2.44934,23.04963c2.09525,6.31004 3.82221,12.25112 6.47415,18.29756c0.46126,0.19423 0.95211,0.54639 1.21572,1.1849c-0.01633,-0.1426 -0.03079,-0.28508 -0.0433,-0.42742c-0.42402,-4.82432 -0.01217,-9.90287 -0.01217,-14.74634c0,-7.51235 -0.96187,-16.1058 1.63531,-23.31134c0.08325,-0.23096 2.93487,-5.91919 3.12861,-6.30669c2.09757,-4.10648 4.79013,-6.47155 7.96831,-9.64973c5.53071,-5.53071 11.30125,-10.92133 19.52142,-11.72007c6.21489,-0.60388 12.12519,1.52088 18.24634,1.48783h2c0,0 1.6302,0 2.25778,1.31641c0.47813,0.24105 0.95474,0.66576 1.15,1.41403c0.06569,-0.06303 0.11561,-0.13883 0.14327,-0.2331c0.1295,-0.44126 -0.58149,-0.71257 -0.87224,-1.06886c0,0 -0.91372,-2.2843 1.33777,-3.22718c-4.58845,0.51143 -9.34436,-1.28576 -12.76673,-4.45461c-4.82312,2.37905 -11.64859,4.25563 -16.54042,2.62502c-0.42092,-0.14031 -4.13277,-2.91885 -4.74049,-3.39539c-5.74074,-4.50152 -9.1184,-12.61774 -6.30075,-19.87781c0.81236,-2.09316 2.16654,-4.05514 3.66358,-5.80742c-0.54461,0.25849 -1.00993,0.65932 -1.33177,1.20891c0,0 -1.5,2 -3.5,0.5c-2,-1.5 -0.5,-3.5 -0.5,-3.5c0.73378,-0.87874 1.19195,-2.09611 2.20135,-2.63623c2.95928,-1.58349 8.13033,-0.88449 10.7882,1.12843c4.12855,3.12673 4.60949,7.43046 10.41091,8.54008c0.69622,0.13316 1.35662,0.17202 1.98602,0.13121c0.37948,-0.65555 1.14386,-1.40693 2.60382,-1.11494c0.2168,0.04336 0.41061,0.10206 0.58376,0.17305c3.45498,-1.84641 5.97608,-5.91764 8.88742,-8.19212c1.43335,-1.1198 3.08493,-1.9361 4.53853,-3.02948c3.67089,-2.74593 6.38169,-3.97954 11,-4h1c0,0 2.5,0 2.5,2.5c0,2.5 -2.5,2.5 -2.5,2.5h-1c-0.71258,-0.00384 -1.34701,0.02872 -1.92875,0.10039c0.0059,0.00839 0.00888,0.01286 0.00888,0.01286l1.24106,1.95828c2.41172,6.09255 3.19101,12.67222 3.16664,19.17482c-1.01535,5.19421 -2.8719,10.21276 -7.6116,13.34076c-1.41775,0.93565 -2.93268,1.55301 -4.48478,1.88951c1.36074,0.17238 1.92974,1.59491 1.92974,1.59491c0.37592,1.31038 1.39861,2.59509 1.12776,3.93114c-0.26809,1.3224 -1.7212,2.07869 -2.56031,3.13534c-2.49471,3.14143 -5.23731,5.16309 -8.96016,6.68319l0.33929,-0.05343c0,0 -1.76776,1.76776 -3.53553,0c-1.76776,-1.76776 0,-3.53553 0,-3.53553l1.33929,-1.05343c1.84624,-0.71902 3.11739,-1.61298 4.31372,-2.67881c-0.50282,0 -0.99801,0 -1.38524,0zM144.9253,224.55128c-0.16879,-0.62235 -0.31453,-1.24582 -0.42991,-1.86839c-0.01112,0.2168 -0.04201,0.41332 -0.08886,0.59145c0.17537,0.4284 0.34705,0.85444 0.51876,1.27694z" fill="#000000" stroke-width="0.5"></path><path d="M183.65504,145.71876c0.08898,-0.44011 0.18903,-0.9248 0.21895,-1.36239c0.18836,0.50254 0.46032,1.07018 0.70866,1.57066c0.09514,0.19172 0.18298,0.39967 0.28633,0.58709c-0.47211,0.21483 -1.02451,0.43317 -1.5319,0.63275c0.13142,-0.43441 0.21985,-0.94282 0.31797,-1.42811z" data-paper-data="{&quot;noHover&quot;:false,&quot;origItem&quot;:[&quot;Path&quot;,{&quot;applyMatrix&quot;:true,&quot;segments&quot;:[[[183.70489,145.72277],[0,0],[-0.09812,0.48529]],[[183.36104,147.10298],[0.13142,-0.43441],[0.50739,-0.19958]],[[184.83335,146.47904],[-0.47211,0.21483],[-0.10335,-0.18742]],[[184.53554,145.91027],[0.09514,0.19172],[-0.24834,-0.50048]],[[183.88187,144.40574],[0.18836,0.50254],[-0.02992,0.43759]],[[183.70488,145.72277],[0.08898,-0.44011],[0,0]]],&quot;closed&quot;:true,&quot;fillColor&quot;:[0,0,0,1]}]}" fill="#ffffff" stroke-width="0.5"></path><path d="M180.09645,133.9102c0.40372,0.10385 0.83328,0.18517 1.24704,0.25789c0.56661,0.09959 1.18528,0.15831 1.77663,0.16175c-0.19146,1.44766 -0.30803,2.97172 -0.27381,4.40355c-0.66607,-1.59436 -1.63085,-3.18014 -2.62371,-4.52522z" data-paper-data="{&quot;noHover&quot;:false,&quot;origItem&quot;:[&quot;Path&quot;,{&quot;applyMatrix&quot;:true,&quot;segments&quot;:[[[180.25,134.25],[0,0],[0.99286,1.34508]],[[182.82346,138.68892],[-0.66607,-1.59436],[-0.03422,-1.43183]],[[183.08986,134.36964],[-0.19146,1.44766],[-0.59135,-0.00344]],[[181.34955,134.21772],[0.56661,0.09959],[-0.41376,-0.07272]],[[180.12299,133.95257],[0.40372,0.10385],[0,0]]],&quot;closed&quot;:true,&quot;fillColor&quot;:[0,0,0,1]}]}" fill="#ffffff" stroke-width="0.5"></path><path d="M172.2902,142.12421c0.1917,1.43881 -2.27366,2.13886 -2.89409,3.39415c-6.66418,-5.47441 -5.80616,-14.20973 0.12001,-20.04951c0.86145,1.04205 1.45493,2.35655 2.36125,3.37179c0.80566,0.90249 1.72459,1.72945 2.69591,2.43651c-3.17292,1.14524 -6.47337,3.51548 -5.71921,7.59914c0.28197,1.52682 3.19387,1.61607 3.39892,3.15511z" data-paper-data="{&quot;noHover&quot;:false,&quot;origItem&quot;:[&quot;Path&quot;,{&quot;applyMatrix&quot;:true,&quot;segments&quot;:[[[172.27158,142.0778],[0,0],[-0.20505,-1.53904]],[[168.84285,138.92501],[0.28197,1.52682],[-0.75416,-4.08366]],[[174.53523,131.3096],[-3.17292,1.14524],[-0.97132,-0.70706]],[[171.86137,128.88801],[0.80566,0.90249],[-0.90632,-1.01524]],[[169.51669,125.51884],[0.86145,1.04205],[-5.92617,5.83978]],[[169.39728,145.46837],[-6.66418,-5.47441],[0.62043,-1.25529]],[[172.27159,142.0778],[0.1917,1.43881],[0,0]]],&quot;closed&quot;:true,&quot;fillColor&quot;:[0,0,0,1]}]}" fill="#ffffff" stroke-width="0.5"></path><path d="M205.24551,127.31637c-0.32498,-0.24149 -0.60032,-0.35024 -0.60032,-0.35024c-2.66285,-0.97224 -4.58596,-2.35134 -7.4871,-0.08858c-1.77618,1.38535 -3.51268,9.03111 -2.30741,10.92082c0.65011,1.01928 3.5555,-0.25047 3.45974,0.95469c-0.09588,1.20669 -1.36653,1.63115 -2.04404,2.50668c-0.94394,1.21982 -3.23953,5.14215 -2.95948,7.0828c-0.39032,-0.24821 -0.77162,-0.51937 -1.13245,-0.80737c0.16372,-0.49594 0.159,-1.11677 -0.21224,-1.85924c-0.71356,-1.42713 -1.89166,-1.49436 -2.64408,-1.35163c-0.13851,-0.22892 -0.2697,-0.46339 -0.38875,-0.69891c-1.65862,-3.2814 -1.33003,-6.81594 -0.69808,-10.24266c2.12493,-0.77982 4.12645,-1.98683 5.65714,-3.31102c1.95621,-1.69232 3.29796,-4.27022 5.40562,-5.90088c1.41309,-1.09328 3.04501,-1.89659 4.47568,-2.96677c0.54639,-0.41098 1.05005,-0.77446 1.5282,-1.09544c0.12234,0.57529 0.39679,0.98474 0.39679,0.98474l0.76235,1.04386c1.03222,2.54909 1.73954,5.2514 2.17947,7.97666l-0.60924,-1.26841c0,0 -0.79692,-2.0016 -2.78179,-1.52911z" data-paper-data="{&quot;noHover&quot;:false,&quot;origItem&quot;:[&quot;Path&quot;,{&quot;applyMatrix&quot;:true,&quot;segments&quot;:[[[205.28129,127.28143],[0,0],[1.98487,-0.47249]],[208.0712,128.82152],[[208.59002,130.13217],[0,0],[-0.43993,-2.72526]],[[206.42882,122.17847],[1.03222,2.54909],[0,0]],[205.66988,121.13675],[[205.27541,120.15326],[0.12234,0.57529],[-0.47815,0.32098]],[[203.75,121.25],[0.54639,-0.41098],[-1.43067,1.07018]],[[199.28853,124.22052],[1.41309,-1.09328],[-2.10766,1.63066]],[[193.92435,130.1065],[1.95621,-1.69232],[-1.53069,1.32419]],[[188.28112,133.38695],[2.12493,-0.77982],[-0.63195,3.42672]],[[188.96444,143.58974],[-1.65862,-3.2814],[0.11905,0.23552]],[[189.3511,144.28671],[-0.13851,-0.22892],[0.75242,-0.14273]],[[191.98606,145.63198],[-0.71356,-1.42713],[0.37124,0.74247]],[[192.19501,147.48959],[0.16372,-0.49594],[0.36083,0.288]],[[193.32321,148.29527],[-0.39032,-0.24821],[-0.28005,-1.94065]],[[196.27948,141.21148],[-0.94394,1.21982],[0.67751,-0.87553]],[[198.31193,138.80303],[-0.09588,1.20669],[0.09576,-1.20516]],[[194.81664,137.83498],[0.65011,1.01928],[-1.20527,-1.88971]],[[197.15125,126.82802],[-1.77618,1.38535],[2.90114,-2.26276]],[[204.67847,126.92881],[-2.66285,-0.97224],[0,0]],[[205.28128,127.28143],[-0.32498,-0.24149],[0,0]]],&quot;closed&quot;:true,&quot;fillColor&quot;:[0,0,0,1]}]}" fill="#ffffff" stroke-width="0.5"></path><path d="M223.79807,336.17775c-0.74165,-0.24722 -1.48718,-0.49401 -2.22884,-0.74123c0.37934,-0.8489 0.69631,-1.67037 0.77278,-2.12631c0.0041,-0.02446 0.00806,-0.04892 0.01195,-0.0734l0.01223,0.00408l0.97863,-2.94423c0.09499,-0.2642 0.16432,-0.45058 0.16432,-0.74749c0,-1.38071 -1.12468,-2.4993 -2.50539,-2.4993c-0.69036,0 -1.32011,0.27995 -1.77252,0.73236l-1.80138,1.79694c-1.82307,0.93707 -3.55741,1.83848 -5.29342,2.6845l-1.07474,-2.10393c-0.31961,-0.47941 -0.59938,-1.0505 -0.91899,-1.52991c2.09146,-1.41429 4.51626,-3.18046 4.99811,-4.86343c0.05313,-0.18556 0.09781,-0.37242 0.13501,-0.56045l0.10979,0.03661l0.98106,-2.94478c0.09499,-0.2642 0.11958,-0.45278 0.11958,-0.74969c0,-1.38071 -1.13333,-2.50652 -2.51404,-2.50652c-0.69036,0 -1.319,0.27714 -1.77141,0.72955l-1.90695,1.90557c-0.73027,0.55065 -1.75279,1.37792 -2.85344,2.17732c-0.29803,-1.03118 -0.58247,-2.07422 -0.84848,-3.11403c3.15655,-2.12273 6.33685,-3.65504 9.21207,-6.50668c0,0 0.15917,-0.15796 0.33384,-0.42764c0.6797,0.29853 1.65168,0.40801 2.6452,-0.58551c1.76777,-1.76776 -0.05039,-3.52349 -0.05039,-3.52349l-1.36244,-0.89517c0.67049,-1.89342 1.09947,-3.94187 1.0901,-5.95048c0.77222,-2.31437 0.77975,-4.82062 1.04597,-7.24586c0.3298,-3.00438 1.54835,-5.85792 1.97889,-8.84953c0.13816,-0.96 -0.17184,-1.95285 -0.01325,-2.90969c0.10585,-0.63861 0.25245,-1.26922 0.41888,-1.89577l1.11507,0.00019c2.4773,0 4.60131,-0.01531 6.75493,-0.23121c-0.07076,0.44816 -0.14062,0.89306 -0.21157,1.33337c-0.33539,2.08134 -1.65413,3.92044 -1.99968,6.00011c-0.73186,4.40467 -0.29115,9.37746 -0.09588,14.0378l-1.40168,-1.93585c0,0 -1.3727,-2.07349 -3.45283,-0.68673c-2.08013,1.38675 -0.66309,3.3716 -0.66309,3.3716l1.9386,2.88169c1.09043,2.17895 1.91154,4.53913 2.87201,6.77841c1.05965,2.47052 3.01325,4.51583 3.97568,7.02582c1.15026,2.99982 2.22916,8.33646 1.83565,11.61705c-0.17885,1.49105 -1.49419,2.62976 -2.44801,3.7897c-0.95097,1.15647 -1.85045,2.37419 -2.78923,3.54588c-0.58548,-1.42969 -2.31116,-1.42894 -2.31116,-1.42894l-1.21157,0.12867z" data-paper-data="{&quot;noHover&quot;:false,&quot;origItem&quot;:[&quot;Path&quot;,{&quot;applyMatrix&quot;:true,&quot;segments&quot;:[[447.58114,672.25658],[450,672],[[454.61582,674.85938],[-1.17096,-2.85938],[1.87756,-2.34338]],[[460.18178,667.77184],[-1.90194,2.31294],[1.90764,-2.31988]],[[465.06458,660.1991],[-0.3577,2.9821],[0.78702,-6.56118]],[[461.3702,636.98408],[2.30052,5.99964],[-1.92486,-5.01998]],[[453.40078,622.96138],[2.1193,4.94104],[-1.92094,-4.47856]],[[447.67548,609.50966],[2.18086,4.3579],[0,0]],[443.83978,603.77352],[[445.22654,596.83976],[-4.16026,2.7735],[4.16026,-2.7735]],[452.1603,598.22652],[[454.8352,602.25008],[0,0],[-0.39054,-9.32068]],[[455.0646,574.19912],[-1.46372,8.80934],[0.6911,-4.15934]],[[459.0646,562.19912],[-0.67078,4.16268],[0.1419,-0.88064]],[[459.48852,559.53264],[-0.14152,0.89632],[-4.30724,0.4318]],[[446.00004,560.00002],[4.9546,0],[0,0]],[[443.77374,560.00002],[0,0],[-0.33286,1.2531]],[[442.93698,563.79164],[0.2117,-1.27722],[-0.31718,1.91368]],[[442.96258,569.61094],[0.27632,-1.92],[-0.86108,5.98322]],[[439.01336,587.3103],[0.6596,-6.00876],[-0.53244,4.85048]],[[436.93548,601.80092],[1.54444,-4.62874],[0.01874,4.01722]],[[434.81862,613.66534],[1.34098,-3.78684],[0,0]],[437.53558,615.46448],[[437.53558,622.53554],[3.53554,-3.53552],[-1.98704,1.98704]],[[432.2021,623.67904],[1.3594,0.59706],[-0.34934,0.53934]],[[431.53558,624.53554],[0,0],[-5.75044,5.70328]],[[413.26278,637.41852],[6.3131,-4.24546],[0.53202,2.07962]],[[414.94848,643.63438],[-0.59606,-2.06236],[2.2013,-1.5988]],[[420.6521,639.27688],[-1.46054,1.1013],[0,0]],[[424.4645,635.46448],[0,0],[0.90482,-0.90482]],[[428.00004,634.00002],[-1.38072,0],[2.76142,0]],[[433.00004,639.00002],[0,-2.76142],[0,0.59382]],[[432.70654,640.69188],[0.18998,-0.5284],[0,0]],[430.74344,646.58116],[[430.52312,646.50772],[0,0],[-0.0744,0.37606]],[[430.25328,647.62868],[0.10626,-0.37112],[-0.9637,3.36594]],[[420.24262,657.35004],[4.18292,-2.82858],[0.63922,0.95882]],[[422.16028,660.22652],[-0.63922,-0.95882],[0,0]],[[424.30302,664.43198],[0,0],[3.47202,-1.69204]],[[434.8701,659.05888],[-3.64614,1.87414],[0,0]],[[438.4645,655.46448],[0,0],[0.90482,-0.90482]],[[442.00004,654.00002],[-1.38072,0],[2.76142,0]],[[447.00004,659.00002],[0,-2.76142],[0,0.59382]],[[446.70654,660.69188],[0.18998,-0.5284],[0,0]],[444.74344,666.58116],[[444.71894,666.573],[0,0],[-0.00778,0.04896]],[[444.69496,666.71982],[0.0082,-0.04892],[-0.15294,0.91188]],[[443.13122,670.7733],[0.75868,-1.6978],[1.48332,0.49444]],[[447.58116,672.25662],[-1.4833,-0.49444],[0,0]]],&quot;closed&quot;:true,&quot;fillColor&quot;:[0,0,0],&quot;strokeWidth&quot;:0.5}]}" fill="#ffde00" stroke-width="0.25"></path><path d="M234.26555,262.69491c-1.18448,1.18448 -0.77229,2.38021 -0.3775,3.03291c-0.42672,0.55182 -0.85592,1.10842 -1.12707,1.74444c-0.96452,2.26244 -1.6309,4.76384 -2.12068,7.21641c-2.42102,0.36776 -4.64683,0.34953 -7.39952,0.34865c0.08726,-0.41485 0.15703,-0.83568 0.21039,-1.257c0.24825,-1.96016 0.64475,-3.94148 0.96775,-5.89071c0.15401,-0.92942 -0.28239,-1.94231 -0.02346,-2.84812c0.12868,-0.45018 0.33521,-0.87891 0.56255,-1.28909c0.53639,0.20751 1.01724,0.20414 1.01724,0.20414l1.80572,-0.13392c2.14699,-0.74365 4.33571,-0.944 6.51035,-1.1532c-0.00859,0.00842 -0.08379,0.0915 -0.09238,0.10009z" data-paper-data="{&quot;noHover&quot;:false,&quot;origItem&quot;:[&quot;Path&quot;,{&quot;applyMatrix&quot;:true,&quot;segments&quot;:[[[468.46446,525.46446],[0,0],[0.01718,-0.01718]],[[468.51598,525.41344],[-0.01718,0.01684],[-4.34926,0.4184]],[[455.58114,527.7434],[4.29398,-1.4873],[0,0]],[452,527.99998],[[449.97582,527.58496],[1.07278,0.41502],[-0.45468,0.82036]],[[448.86626,530.14874],[0.25736,-0.90036],[-0.51786,1.81162]],[[448.93546,535.80088],[0.30802,-1.85884],[-0.646,3.89846]],[[446.97568,547.49266],[0.4965,-3.92032],[-0.10672,0.84264]],[[446.54818,550.00008],[0.17452,-0.8297],[5.50538,0.00176]],[[461.25002,549.28214],[-4.84204,0.73552],[0.97956,-4.90514]],[[465.42744,534.9772],[-1.92904,4.52488],[0.5423,-1.27204]],[[467.69074,531.50774],[-0.85344,1.10364],[-0.78958,-1.3054]],[[468.46448,525.46442],[-2.36896,2.36896],[0,0]]],&quot;closed&quot;:true,&quot;fillColor&quot;:[0,0,0],&quot;strokeWidth&quot;:0.5}]}" fill="#ffde00" stroke-width="0.25"></path><path d="M237.46784,257.33484c-3.50985,0.73687 -6.90275,0.62598 -10.35892,1.55104c0.29559,-1.11427 0.57601,-2.24183 1.09209,-3.26525c0.9468,-1.87757 2.36552,-3.57587 3.19754,-5.50705c0.44843,-1.04082 0.8598,-2.11772 1.24192,-3.18671c2.56425,0.00375 5.05209,0.0253 7.54429,0.34889c-0.96982,3.23204 -1.74434,6.73797 -2.71691,10.05907z" data-paper-data="{&quot;noHover&quot;:false,&quot;origItem&quot;:[&quot;Path&quot;,{&quot;applyMatrix&quot;:true,&quot;segments&quot;:[[[480.29378,494.61684],[-1.93964,6.46408],[-4.9844,-0.64718]],[[465.2975,493.95238],[5.1285,0.0075],[-0.76424,2.13798]],[[462.8597,500.30516],[0.89686,-2.08164],[-1.66404,3.86234]],[[456.49156,511.19676],[1.8936,-3.75514],[-1.03216,2.04684]],[[454.29166,517.70432],[0.59118,-2.22854],[6.91234,-1.85012]],[[474.87028,514.59404],[-7.0197,1.47374],[1.94516,-6.6422]]],&quot;closed&quot;:true,&quot;fillColor&quot;:[0,0,0],&quot;strokeWidth&quot;:0.5}]}" fill="#ffde00" stroke-width="0.25"></path><path d="M203.41449,257.07437c-2.28422,-0.45448 -4.63767,-0.97666 -6.86184,-1.66698c0.32367,-0.76805 0.6073,-1.56033 0.83061,-2.33669c0.27643,-0.96103 -0.26236,-2.065 0.01045,-3.02707c0.08539,-0.30115 0.18995,-0.61716 0.30109,-0.93409c3.1154,0.34277 6.102,1.26283 9.11243,2.26106c-0.00217,0.00424 -0.00429,0.00856 -0.00645,0.0128c-1.04445,2.0504 -1.87895,4.18673 -2.53532,6.28965z" data-paper-data="{&quot;noHover&quot;:false,&quot;origItem&quot;:[&quot;Path&quot;,{&quot;applyMatrix&quot;:true,&quot;segments&quot;:[[406.78638,514.05826],[[408.47924,515.26048],[0,0],[1.31274,-4.20584]],[[413.50842,502.80324],[-2.0889,4.1008],[0.00432,-0.00848]],[[413.5214,502.7778],[-0.00434,0.00848],[-6.02084,-1.99646]],[[395.45776,498.29224],[6.2308,0.68554],[-0.22228,0.63384]],[[394.86626,500.14876],[0.17078,-0.6023],[-0.54562,1.92414]],[[394.86626,506.14876],[0.55286,-1.92206],[-0.44662,1.55272]],[[393.19836,510.77814],[0.64734,-1.5361],[4.44834,1.38064]],[[406.7864,514.05826],[-4.56844,-0.90896],[0,0]]],&quot;closed&quot;:true,&quot;fillColor&quot;:[0,0,0],&quot;strokeWidth&quot;:0.5}]}" fill="#ffde00" stroke-width="0.25"></path><path d="M200.41157,269.46329c-2.92473,-1.92618 -5.07274,-2.95967 -8.02434,-3.30749c0.01053,-0.0807 0.02078,-0.16339 0.0318,-0.24399c0.281,-2.05589 1.10319,-4.07134 2.00835,-6.00062c2.59909,0.8446 5.34906,1.45721 8.02846,1.9957l-0.11303,0.40182c0,0 0.24218,0.22823 0.62886,0.42585c-0.44055,2.1 -0.79988,4.2824 -1.12063,6.44184c-0.4515,-0.13976 -0.82055,-0.13677 -0.82055,-0.13677l-0.61892,0.42365z" data-paper-data="{&quot;noHover&quot;:false,&quot;origItem&quot;:[&quot;Path&quot;,{&quot;applyMatrix&quot;:true,&quot;segments&quot;:[[400.7735,538.83974],[402,538],[[403.63402,538.27952],[-0.903,-0.27952],[0.6415,-4.31888]],[[405.84952,525.50372],[-0.8811,4.2],[-0.77338,-0.39524]],[404.59652,524.66284],[[404.82524,523.86408],[0,0],[-5.3588,-1.07698]],[[388.91106,519.90502],[5.19818,1.6892],[-1.81032,3.85856]],[[384.93544,531.80092],[0.562,-4.11178],[-0.02204,0.1612]],[[384.87082,532.28482],[0.02106,-0.1614],[5.9032,0.69564]],[[400.7735,538.83976],[-5.84946,-3.85236],[0,0]]],&quot;closed&quot;:true,&quot;fillColor&quot;:[0,0,0],&quot;strokeWidth&quot;:0.5}]}" fill="#ffde00" stroke-width="0.25"></path><path d="M170.74176,316.77495c-1.02435,-0.96532 -1.78685,-2.25236 -2.2591,-3.58968c1.00847,-0.49774 2.07927,-1.07662 3.00999,-1.69648c0.73651,-0.49052 1.09354,-1.4459 1.85182,-1.90204c0.97114,-0.5842 2.52161,-0.23375 3.19697,-1.14385c0.16223,-0.21862 0.30882,-0.44579 0.44296,-0.67978l0.11892,0.07935l1.97903,-2.97256c0.2768,-0.40239 0.3952,-0.7999 0.3952,-1.32522c0,-1.38071 -1.1386,-2.51719 -2.51931,-2.51719c-0.29691,0 -0.58294,0.04983 -0.84714,0.14482l-2.94616,0.97881c-1.75955,0.60946 -3.67371,0.62213 -5.51709,0.88551c-0.50479,0.07212 -1.0101,0.16587 -1.51531,0.26845c-0.20252,-0.34649 -0.41237,-0.5575 -0.41237,-0.5575l-0.5321,-0.35158c-0.34098,-0.68198 -0.68331,-1.36984 -1.0243,-2.05183c0.96151,-0.53203 1.90922,-1.10116 2.88482,-1.59375c5.26944,-2.66062 11.13135,-2.02169 15.82734,-5.03584c1.5305,0.86827 2.92259,-0.48621 2.92259,-0.48621l1.54217,-1.89856c1.44502,-4.33507 3.53391,-8.92885 4.11988,-13.47881c0.28563,-2.21792 0.42985,-4.56672 0.56486,-6.81658c2.08588,0.23272 3.36136,0.97926 5.61452,2.50347l3.391,0.42288c0,0 0.00657,0.00002 0.01901,-0.00032c-0.49166,2.38026 -1.09665,4.7178 -1.48159,7.10453c-0.4717,2.92473 -0.02336,6.4318 -0.02203,9.40278c-0.11488,-0.07802 -0.33418,-0.11413 -0.47431,-0.18419c-2.23607,-1.11804 -3.26252,1.07786 -3.26252,1.07786l-1.13333,2.33366c-2.97498,8.94178 -4.46212,19.15536 -11.44258,26.08712c-1.41549,1.40562 -2.6104,2.67989 -3.93465,3.79827c-0.28602,-0.67955 -0.84783,-1.3048 -1.56049,-1.52165c1.69309,-1.30589 3.4571,-2.83438 3.57432,-3.65204c0.04588,-0.32003 0.05728,-0.63883 0.04193,-0.9567l0.14253,0.09983l-0.00048,-3.00003c0,-1.38071 -1.128,-2.50134 -2.50871,-2.50134c-0.69036,0 -1.31988,0.27848 -1.77229,0.73089l-2.00304,1.99883l0.05832,0.05822l-0.2241,0.1245c-0.41543,0.7936 -0.48225,1.91375 -1.24672,2.3806c-0.63622,0.38852 -1.48737,-0.37308 -2.22505,-0.26564c-0.1519,0.02212 -0.30358,0.04812 -0.45382,0.0782l-0.37962,-0.37922z" data-paper-data="{&quot;noHover&quot;:false,&quot;origItem&quot;:[&quot;Path&quot;,{&quot;applyMatrix&quot;:true,&quot;segments&quot;:[[341.53554,633.46446],[[342.29282,634.22174],[0,0],[0.30048,-0.06016]],[[343.1991,634.06456],[-0.3038,0.04424],[1.47536,-0.21488]],[[347.64072,634.59162],[-1.27244,0.77704],[1.52896,-0.9337]],[[350.1333,629.83004],[-0.83086,1.5872],[0,0]],[350.58074,629.58072],[350.46446,629.46444],[[354.46446,625.46444],[0,0],[0.90482,-0.90482]],[[358,623.99998],[-1.38072,0],[2.76142,0]],[[363,628.99998],[0,-2.76142],[0,0]],[363,634.99998],[[362.70318,634.99998],[0,0],[0.03068,0.63574]],[[362.6194,636.9134],[0.09176,-0.64006],[-0.23444,1.63532]],[[355.4576,644.21578],[3.38618,-2.61178],[1.42532,0.4337]],[[358.61044,647.06176],[-0.57204,-1.3591],[2.6485,-2.23678]],[[366.46446,639.46446],[-2.83098,2.81124],[13.96092,-13.86352]],[[389.25658,587.41886],[-5.94996,17.88356],[0,0]],[391.52786,582.76394],[[398.23606,580.52788],[-4.47214,-2.23608],[0.28026,0.14012]],[[398.99998,580.97296],[-0.22976,-0.15604],[-0.00266,-5.94198]],[[399.06454,562.19912],[-0.9434,5.84946],[0.76988,-4.77346]],[[402.03796,547.99936],[-0.98332,4.76052],[-0.02488,0.00068]],[401.99998,548.00004],[[395.22648,547.1603],[0,0],[-4.50632,-3.0484]],[[384.01714,542.16298],[4.17176,0.46544],[-0.27004,4.49972]],[[382.96252,555.61096],[0.57126,-4.43584],[-1.17194,9.09994]],[[374.7434,582.58118],[2.89004,-8.67014],[0,0]],[371.53552,586.53558],[[365.74464,587.52892],[3.061,1.73654],[-9.39198,6.0283]],[[334.19676,597.49162],[10.53888,-5.32124],[-1.9512,0.98518]],[[328.42622,600.67212],[1.92302,-1.06406],[0.68198,1.36396]],[[330.47214,604.76398],[-0.68196,-1.36396],[0,0]],[331.53554,605.46452],[[332.35906,606.57598],[-0.40504,-0.69298],[1.01042,-0.20516]],[[335.3891,606.03752],[-1.00958,0.14424],[3.68676,-0.52676]],[[346.41888,604.25664],[-3.5191,1.21892],[0,0]],[[352.30816,602.29354],[0,0],[0.5284,-0.18998]],[[354.00002,602.00004],[-0.59382,0],[2.76142,0]],[[359.00002,607.00004],[0,-2.76142],[0,1.05064]],[[358.12236,609.83042],[0.5536,-0.80478],[0,0]],[354.16028,615.77354],[[353.92138,615.61428],[0,0],[-0.26828,0.46798]],[[353.035,616.97358],[0.32446,-0.43724],[-1.35072,1.8202]],[[346.62868,619.2533],[1.94228,-1.1684],[-1.51656,0.9123]],[[342.92358,623.05626],[1.47302,-0.98104],[-1.86144,1.23972]],[[337.0318,626.29584],[2.01694,-0.99548],[0.9445,2.67464]],[[341.53558,633.46452],[-2.0487,-1.93064],[0,0]]],&quot;closed&quot;:true,&quot;fillColor&quot;:[0,0,0],&quot;strokeWidth&quot;:0.5}]}" fill="#ffde00" stroke-width="0.25"></path><path d="M194.79999,162.74941c0.38723,0 0.88242,0.00007 1.38524,0.00007c-1.19633,1.06583 -2.46945,1.97424 -4.31569,2.69326l-1.34231,1.0613c0,0 -1.77671,1.78063 -0.00895,3.54839c1.76777,1.76776 3.45755,-0.06188 3.45755,-0.06188l-0.3388,0.05268c3.72285,-1.5201 6.45689,-3.51501 8.9516,-6.65644c0.83911,-1.05665 2.29255,-1.80576 2.56064,-3.12815c0.27085,-1.33605 -0.74991,-2.61175 -1.12583,-3.92213c0,0 -0.56725,-1.41778 -1.92799,-1.59016c1.5521,-0.3365 3.06701,-0.95391 4.48476,-1.88956c4.7397,-3.128 6.60224,-8.13617 7.61759,-13.33038c0.02437,-6.5026 -0.74241,-13.07051 -3.15413,-19.16306l-1.23934,-1.9572c0,0 0.04852,-0.09019 0.04262,-0.09858c0.58174,-0.07167 1.21745,-0.10343 1.93003,-0.09959l1.00066,0.00043c0,0 2.44412,0.08293 2.44412,-2.41707c0,-2.5 -2.49747,-2.49838 -2.49747,-2.49838l-0.99936,0.00038c-4.61831,0.02046 -7.32216,1.2574 -10.99305,4.00333c-1.4536,1.09338 -3.10186,1.91084 -4.5352,3.03064c-2.91134,2.27448 -5.42384,6.34755 -8.87882,8.19396c-0.17315,-0.07099 -0.3661,-0.12959 -0.5829,-0.17296c-1.45996,-0.29199 -2.22066,0.45964 -2.60014,1.1152c-0.6294,0.04081 -1.28684,0.00196 -1.98306,-0.1312c-5.80142,-1.10962 -6.27075,-5.41504 -10.39929,-8.54177c-2.65787,-2.01292 -7.81914,-2.71568 -10.77842,-1.13219c-1.0094,0.54012 -1.46465,1.75588 -2.19843,2.63461c0,0 -1.55266,1.915 0.44734,3.415c2,1.5 3.50324,-0.50191 3.50324,-0.50191c0.32184,-0.54959 0.83285,-0.8615 1.37747,-1.11998c-1.49704,1.75228 -2.8449,3.71058 -3.65726,5.80374c-2.81765,7.26007 0.57068,15.36642 6.31142,19.86794c0.60772,0.47654 4.24239,3.1915 4.66331,3.33181c4.89183,1.63061 11.77403,-0.26021 16.59715,-2.63926c3.42237,3.16885 8.20541,4.99202 12.79386,4.48059c-2.25149,0.94288 -1.33534,3.2338 -1.33534,3.2338c0.29075,0.35629 1.00261,0.6311 0.87311,1.07236c-0.02766,0.09427 -0.17552,0.19022 -0.24121,0.25325c-0.19526,-0.74827 -0.6707,-1.16828 -1.14883,-1.40933c-0.62758,-1.31641 -2.25553,-1.31043 -2.25553,-1.31043l-1.99864,0.0028c-6.12115,0.03305 -11.95461,-2.07707 -18.1695,-1.47319c-8.22017,0.79874 -13.9739,6.14371 -19.50461,11.67442c-3.17818,3.17818 -5.87377,5.53228 -7.97134,9.63876c-0.19374,0.3875 -3.04772,6.07071 -3.13097,6.30167c-2.59718,7.20554 -1.64597,15.78547 -1.64597,23.29782c0,4.84347 -0.41743,9.91769 0.00659,14.74201c0.01251,0.14234 -0.02841,0.36809 -0.01208,0.51069c-0.26361,-0.63851 -0.75544,-0.99134 -1.2167,-1.18557c-2.65194,-6.04644 -4.38858,-11.99637 -6.48383,-18.30641c-2.50096,-7.53185 -4.01549,-15.20352 -2.45859,-23.06626c3.06192,-9.13678 6.80979,-19.92254 13.85129,-26.90427c2.31777,-2.29809 5.11593,-4.31322 7.73765,-6.27952l0.76863,-0.73359c0,0 1.77032,-1.77123 0.00256,-3.53899c-0.40884,-0.40884 -0.81784,-0.62836 -1.2048,-0.72459c0.80951,-1.0573 0.25986,-2.43805 0.25986,-2.43805c-0.60817,-1.52041 -1.54076,-2.94098 -1.86452,-4.54619c-0.69074,-3.42473 1.00797,-6.19264 1.94793,-9.32036c1.52143,-5.06258 3.74077,-10.36316 8.15388,-13.74804c4.15047,-3.18343 9.32616,-5.01815 14.42534,-6.01441c8.22782,-1.39611 15.61537,1.82359 23.42797,3.95973c5.89891,1.6129 12.69788,3.14316 17.61738,7.06189c4.09219,3.25973 6.5043,8.04331 8.77979,12.59054c3.95398,9.23331 5.79866,18.51246 3.8265,28.4821c-0.73056,3.69312 -3.37804,10.21839 -8.04845,10.50186c-1.84768,0.11214 -2.92583,-2.99259 -4.7769,-3.00091c-1.18841,-0.00535 -1.61972,1.6543 -2.55606,2.38614c-0.99119,0.77472 -2.40832,-0.77343 -3.52047,-1.36146c-0.63061,0.69619 -1.02691,1.72723 -1.89233,2.09251c-0.42144,0.17789 -0.80344,-0.60333 -1.19322,-0.84278c-1.03094,-0.63333 -1.85661,-1.89187 -3.06088,-1.77493c-5.53447,0.53739 -3.09728,4.36491 -6.10664,6.59834c-1.90299,1.41233 -5.58859,2.53366 -7.88356,2.98093c-1.67624,0.32668 -3.74437,-0.39799 -5.33471,-0.5283c-3.32676,-0.27259 -7.1417,0.47667 -10.34886,-0.84362c-2.49619,-1.0276 -3.15864,-2.98512 -6.50926,-2.11347c-3.84697,1.00077 -7.18836,6.5171 -9.40236,9.47607c-6.72291,11.17861 -10.77419,22.7181 -11.92911,35.67776c-0.05818,0.65289 -0.1609,1.4086 -0.20198,2.09224c-0.11603,-3.91469 0.13587,-7.92679 0.13587,-11.80444c0,-6.87317 -1.06802,-15.11399 1.35386,-21.70032c0.73355,-1.99488 1.91844,-3.79624 2.86898,-5.69732c1.75463,-3.6073 4.26103,-5.59072 7.02832,-8.35801c4.63689,-4.63688 9.51206,-9.73912 16.48015,-10.316c5.30263,-0.439 10.50418,1.0607 15.71937,1.44009c0.69596,1.08573 2.13008,1.0915 2.13008,1.0915z" data-paper-data="{&quot;noHover&quot;:false,&quot;origItem&quot;:[&quot;Path&quot;,{&quot;applyMatrix&quot;:true,&quot;segments&quot;:[[389.5,325.5],[[385.24066,323.32854],[1.39192,2.17146],[-10.43038,-0.75878]],[[353.9927,320.47568],[10.60526,-0.878],[-13.93618,1.15376]],[[321.03554,341.03554],[9.27378,-9.27376],[-5.53458,5.53458]],[[306.97216,357.73608],[3.50926,-7.2146],[-1.90108,3.80216]],[[301.22938,369.1227],[1.4671,-3.98976],[-4.84374,13.17266]],[[298.5,412.50002],[0,-13.74634],[0,7.7553]],[[298.21918,436.10258],[-0.23206,-7.82938],[0.08216,-1.36728]],[[298.51704,432.08764],[-0.11636,1.30578],[2.30984,-25.91932]],[[322.35076,360.7101],[-13.44582,22.35722],[4.428,-5.91794]],[[341.31794,341.64178],[-7.69394,2.00154],[6.70124,-1.7433]],[[354.303,345.83642],[-4.99238,-2.0552],[6.41432,2.64058]],[[374.91242,347.51708],[-6.65352,-0.54518],[3.18068,0.26062]],[[385.55448,348.59026],[-3.35248,0.65336],[4.58992,-0.89454]],[[401.29628,342.66128],[-3.80598,2.82466],[6.01872,-4.46686]],[[413.50002,329.50004],[-11.06894,1.07478],[2.40854,-0.23388]],[[419.82056,333.07114],[-2.06188,-1.26666],[0.77956,0.4789]],[[422.00918,334.72748],[-0.84288,0.35578],[1.73084,-0.73056]],[[425.7929,330.5503],[-1.26122,1.39238],[2.2243,1.17606]],[[432.83414,333.27002],[-1.98238,1.54944],[1.87268,-1.46368]],[[438.14556,328.51264],[-2.37682,-0.0107],[3.70214,0.01664]],[[447.5,334.50006],[-3.69536,0.22428],[9.34082,-0.56694]],[[463.5971,313.51948],[-1.46112,7.38624],[3.94432,-19.93928]],[[455.9641,256.6038],[7.90796,18.46662],[-4.55098,-9.09446]],[[438.42292,231.44108],[8.18438,6.51946],[-9.839,-7.83746]],[[403.21664,217.33254],[11.79782,3.2258],[-15.6252,-4.27228]],[[356.40138,209.41812],[16.45564,-2.79222],[-10.19836,1.99252]],[[327.57704,221.44108],[8.30094,-6.36686],[-8.82622,6.76976]],[[311.2927,248.92478],[3.04286,-10.12516],[-1.87992,6.25544]],[[307.40976,267.5545],[-1.38148,-6.84946],[0.64752,3.21042]],[[311.14236,276.6431],[-1.21634,-3.04082],[0,0]],[[310.62624,281.51492],[1.61902,-2.1146],[0.77394,0.19246]],[[313.03552,282.96452],[-0.81768,-0.81768],[3.53552,3.53552]],[313.03552,290.03558],[[311.5,291.50006],[0,0],[-5.24344,3.9326]],[[296.03552,304.03558],[4.63554,-4.59618],[-14.083,13.96346]],[[268.33248,357.7834],[6.12384,-18.27356],[-3.1138,15.72548]],[[273.23116,403.88266],[-5.00192,-15.0637],[4.1905,12.62008]],[[286.17946,440.47778],[-5.30388,-12.09288],[0.92252,0.38846]],[[288.6109,442.84758],[-0.52722,-1.27702],[-0.03266,-0.2852]],[[288.5243,441.99274],[0.02502,0.28468],[-0.84804,-9.64864]],[[288.49996,412.50006],[0,9.68694],[0,-15.0247]],[[291.77058,365.87738],[-5.19436,14.41108],[0.1665,-0.46192]],[[298.0278,353.264],[-0.38748,0.775],[4.19514,-8.21296]],[[313.96442,333.96454],[-6.35636,6.35636],[11.06142,-11.06142]],[[353.00726,310.5244],[-16.44034,1.59748],[12.42978,-1.20776]],[[389.49994,313.50006],[-12.2423,0.0661],[0,0]],[393.49994,313.50006],[[398.0155,316.13288],[-1.25516,-2.63282],[0.95626,0.4821]],[[400.3155,318.96094],[-0.39052,-1.49654],[0.13138,-0.12606]],[[400.60204,318.49474],[-0.05532,0.18854],[0.259,-0.88252]],[[398.85756,316.35702],[0.5815,0.71258],[0,0]],[[401.5331,309.90266],[-4.50298,1.88576],[-9.1769,1.02286]],[[375.99964,300.99344],[6.84474,6.3377],[-9.64624,4.7581]],[[342.9188,306.24348],[9.78366,3.26122],[-0.84184,-0.28062]],[[333.43782,299.4527],[1.21544,0.95308],[-11.48148,-9.00304]],[[320.83632,259.69708],[-5.6353,14.52014],[1.62472,-4.18632]],[[328.16348,248.08224],[-2.99408,3.50456],[-1.08922,0.51698]],[[325.49994,250.50006],[0.64368,-1.09918],[0,0]],[[318.49994,251.50006],[4,3],[-4,-3]],[[317.49994,244.50006],[0,0],[1.46756,-1.75748]],[[321.90264,239.2276],[-2.0188,1.08024],[5.91856,-3.16698]],[[343.47904,241.48446],[-5.31574,-4.02584],[8.2571,6.25346]],[[364.30086,258.56462],[-11.60284,-2.21924],[1.39244,0.26632]],[[368.2729,258.82704],[-1.2588,0.08162],[0.75896,-1.3111]],[[373.48054,256.59716],[-2.91992,-0.58398],[0.4336,0.08672]],[[374.64806,256.94326],[-0.3463,-0.14198],[6.90996,-3.69282]],[[392.4229,240.55902],[-5.82268,4.54896],[2.8667,-2.2396]],[[401.49996,234.50006],[-2.9072,2.18676],[7.34178,-5.49186]],[[423.49996,226.50006],[-9.23662,0.04092],[0,0]],[425.49996,226.50006],[[430.49996,231.50006],[0,-5],[0,5]],[425.49996,236.50006],[[423.49996,236.50006],[0,0],[-1.42516,-0.00768]],[[419.64246,236.70084],[1.16348,-0.14334],[0.0118,0.01678]],[419.66022,236.72656],[[422.14234,240.64312],[0,0],[4.82344,12.1851]],[[428.47562,278.99276],[0.04874,-13.0052],[-2.0307,10.38842]],[[413.25242,305.67428],[9.4794,-6.256],[-2.8355,1.8713]],[[404.28286,309.4533],[3.1042,-0.673],[2.72148,0.34476]],[[408.14234,312.64312],[0,0],[0.75184,2.62076]],[[410.39786,320.5054],[0.5417,-2.6721],[-0.53618,2.6448]],[[405.27724,326.77608],[1.67822,-2.1133],[-4.98942,6.28286]],[[387.35692,340.14246],[7.4457,-3.0402],[0,0]],[388.0355,340.0356],[[380.96444,340.0356],[3.53554,3.53552],[-3.53552,-3.53552]],[380.96444,332.96454],[[383.64302,330.85768],[0,0],[3.69248,-1.43804]],[[392.27046,325.50006],[-2.39266,2.13166],[-1.00564,0]],[[389.49998,325.50006],[0.77446,0],[0,0]]],&quot;closed&quot;:true,&quot;fillColor&quot;:[0,0,0],&quot;strokeWidth&quot;:0.5}]}" fill="#cd894a" stroke-width="0.25"></path><path d="M245.72905,270.76384c-1.88607,-1.95592 -3.85225,-3.86383 -5.77648,-5.78298c2.32948,-5.43035 3.41088,-11.6999 5.19942,-17.2535c0.51612,-0.24833 1.00296,-0.73607 1.23072,-1.6471c0.08622,-0.34488 0.11225,-0.65474 0.09156,-0.92955c0.90005,-2.15208 1.40874,-4.38506 2.62102,-6.37533c1.09546,-1.79848 2.79056,-3.1857 3.9642,-4.93417l0.20066,-0.18042c0.28415,2.04346 2.47271,2.04224 2.47271,2.04224l1.99448,-0.04987c1.97627,-0.39605 4.04549,-0.43817 5.98299,-0.98247c3.68366,1.97026 7.30192,4.11656 10.73449,6.7225c1.90249,1.44434 3.55334,5.23675 1.07964,7.09281c-0.77372,0.58053 -2.66493,0.62157 -3.65361,0.64773l-2.48377,-1.65355c-0.40239,-0.2768 -0.88405,-0.43543 -1.40937,-0.43543c-1.38071,0 -2.46258,1.02688 -2.46258,2.40759c0,0.69036 0.2894,1.31955 0.7418,1.77196l2.01741,2.01651l0.02424,-0.02432c0.03442,0.0488 0.07037,0.09848 0.1063,0.14642c1.03489,1.38101 2.76454,2.10206 4.14513,3.13751c3.60223,2.70168 6.55706,5.61805 9.72753,8.78852c1.19805,1.19805 2.73331,2.11795 3.63967,3.54946c3.46229,5.46833 -6.24923,9.41881 -10.29377,10.23782c-3.2124,0.6505 -4.85952,-1.72717 -7.02516,-3.46137c-1.66603,-1.33413 -3.50314,-2.48898 -5.01237,-3.99821c-0.98279,-0.6552 -1.97644,-1.31137 -2.95923,-1.96657l-1.87752,-1.87142l-0.70658,0.70462l-2.38545,-1.06884c0.00948,0.86102 0.00038,1.64566 -0.04441,2.51281l-0.95791,0.32095l0.99419,2.99687l0.06174,-0.02067c0.01906,0.10974 0.03988,0.21901 0.06359,0.32822c0.06847,0.31538 0.15758,0.70146 0.32302,0.97916c-2.86824,-0.87828 -6.29305,-0.91995 -8.90115,-2.1721c-0.64997,-0.31205 -0.9667,-1.07682 -1.46717,-1.59582z" data-paper-data="{&quot;noHover&quot;:false,&quot;origItem&quot;:[&quot;Path&quot;,{&quot;applyMatrix&quot;:true,&quot;segments&quot;:[[[491.53554,541.46446],[0,0],[1.00094,1.03802]],[[494.4635,544.649],[-1.29994,-0.6241],[5.2162,2.5043]],[[512.2317,548.9706],[-5.73648,-1.75656],[-0.33088,-0.5554]],[[511.50844,547.19674],[0.13694,0.63076],[-0.04742,-0.21842]],[[511.38032,546.53988],[0.03812,0.21948],[0,0]],[511.2566,546.58112],[509.2566,540.58112],[[511.17596,539.94134],[0,0],[0.08958,-1.7343]],[[511.37138,534.74674],[0.01896,1.72204],[0,0]],[516.12516,536.87486],[517.53556,535.46446],[[521.2732,539.2021],[0,0],[1.96558,1.3104]],[[527.16996,543.13328],[-1.96558,-1.3104],[3.01846,3.01846]],[[537.16996,551.13328],[-3.33206,-2.66826],[4.33128,3.4684]],[[551.1991,558.06456],[-6.4248,1.301],[8.08908,-1.63802]],[[571.74676,537.62866],[6.92458,10.93666],[-1.81272,-2.863]],[[564.46448,530.53554],[2.3961,2.3961],[-6.34094,-6.34094]],[[545.00002,513],[7.20446,5.40336],[-2.76118,-2.0709]],[[536.72402,506.77726],[2.06978,2.76202],[-0.07186,-0.09588]],[[536.51302,506.487],[0.06884,0.0976],[0,0]],[536.46448,506.53554],[[532.46448,502.53554],[0,0],[-0.90482,-0.90482]],[[531.00002,499],[0,1.38072],[0,-2.76142]],[[536.00002,494],[-2.76142,0],[1.05064,0]],[[538.8304,494.87766],[-0.80478,-0.5536],[0,0]],[[543.81786,498.20264],[0,0],[1.97736,-0.05232]],[[550.96506,497.02646],[-1.54744,1.16106],[4.9474,-3.71212]],[[548.83008,482.8667],[3.80498,2.88868],[-6.86514,-5.21188]],[[527.41878,469.44134],[7.36732,3.94052],[-3.875,1.0886]],[[515.4806,471.40288],[3.95254,-0.7921],[0,0]],[511.50002,471.49998],[[506.56066,467.41306],[0.5683,4.08692],[0,0]],[[506.16028,467.77348],[0,0],[-2.34728,3.49694]],[[498.25328,477.62864],[2.19092,-3.59696],[-2.42456,3.98054]],[[493.03162,490.35706],[1.8001,-4.30416],[0.04138,0.54962]],[[492.85074,492.21266],[0.17244,-0.68976],[-0.45552,1.82206]],[[490.39416,495.49792],[1.03224,-0.49666],[-3.57708,11.1072]],[[479.99904,529.9273],[4.65896,-10.8607],[3.84846,3.8383]],[[491.53558,541.46446],[-3.77214,-3.91184],[0,0]]],&quot;closed&quot;:true,&quot;fillColor&quot;:[0,0,0],&quot;strokeWidth&quot;:0.5}]}" fill="#864100" stroke-width="0.25"></path><path d="M131.02298,221.04442c0,0 -0.10536,0.00009 -0.27256,0.02166l-1.12879,0.01107c-3.88125,1.29375 -7.53335,0.97097 -11.60798,0.97097c-7.53239,0 -15.08664,-0.05963 -22.61849,0.0339c-5.68643,-1.96302 -11.74326,-2.85868 -17.10117,-5.66296c-2.77658,-1.45323 -3.05742,-8.28838 -3.97671,-10.74461c-0.53369,-1.42597 -1.4376,-2.69273 -2.03838,-4.09176c-1.25516,-2.92287 -1.65663,-6.29671 -3.07075,-9.14814c-1.48457,-2.99348 -4.11518,-5.19878 -3.62453,-8.9917c0.2552,-1.97279 1.12587,-3.80176 1.88241,-5.6592c0.38308,1.05236 0.88137,2.05091 1.45189,3.00799c0.51247,0.8597 1.54138,1.31123 2.09656,2.14397c0.82693,1.24033 1.16782,2.75584 1.99649,3.99501c1.16959,1.74898 2.78136,3.16392 3.94211,4.91878l3.07685,1.11058c0,0 2.44076,0.08055 2.44076,-2.41945c0,-1.98634 -1.58219,-2.39766 -2.23072,-2.48151c-1.06918,-1.33715 -2.30323,-2.56349 -3.2507,-3.98929c-0.82505,-1.24158 -1.17719,-2.76542 -2.00406,-4.00579c-0.49084,-0.7363 -1.44548,-1.09891 -1.90341,-1.85611c-1.30185,-2.15263 -1.72409,-4.76512 -2.96828,-6.95159c-2.06658,-3.63167 -3.68799,-6.46946 -3.66325,-10.76137c0.01407,-2.44048 -0.61988,-5.61764 0.71676,-7.85041c0.21939,-0.36647 0.55494,-0.68484 0.80895,-1.02788c0.67272,2.05216 1.92847,3.90912 2.76319,5.85073c0.49794,1.15823 1.562,5.13801 2.06503,6.13203c2.03756,4.02634 4.82913,5.92551 8.51805,8.27558l3.72293,0.10368c0,0 2.4081,0.03923 2.4081,-2.46077c0,-2.5 -2.50255,-2.50929 -2.50255,-2.50929l-2.27566,0.10655c-4.61816,-3.3255 -5.27658,-6.5876 -7.4129,-11.58732c-0.41903,-0.98067 -2.64774,-4.78845 -2.83888,-6.45115c-0.46304,-4.02781 0.05036,-8.5442 0.04046,-12.61104c-0.0065,-2.67135 -0.32297,-4.47907 0.79089,-6.99289c1.69696,-3.82978 4.32901,-8.05157 7.311,-11.06886c-0.2988,2.14536 -0.31298,4.39547 -0.02331,6.44572c0.38453,2.72171 1.61874,5.27681 2.00239,7.99864c0.14399,1.02158 -0.16909,2.07871 0.01552,3.09373c0.758,4.16765 3.18738,6.82017 6.09685,9.64369l3.52849,1.24216c0,0 2.37992,0.78702 3.17049,-1.58469c0.79057,-2.37171 -1.54882,-3.06766 -1.54882,-3.06766l-2.47237,-0.75647c-1.68648,-1.78097 -3.51497,-3.81676 -3.88902,-6.36438c-0.14067,-0.95807 0.15385,-1.9474 0.01521,-2.90577c-0.39352,-2.72042 -1.60478,-5.28025 -1.9985,-8.00064c-0.56343,-3.89297 0.5534,-8.20611 1.86887,-11.82901c2.15978,-5.94821 7.31382,-7.05853 12.87678,-5.49743c0.66151,0.18564 1.50708,-0.05592 2.02457,0.39605c1.16552,1.01795 0.03879,3.10751 0.30039,4.63269c0.09656,0.56299 1.70393,5.13875 2.00228,6.0001c0,2.02759 0.66837,4.00014 1.0017,6.00014c0.56168,3.37007 0.49148,6.75731 2.34636,9.91468c0.47757,0.81291 1.50973,1.19804 2.00389,2.00097c1.10498,1.7954 0.93901,4.18487 2.00688,6.00259c0.47757,0.81291 1.51859,1.19494 2.00495,2.00262c0.50212,0.83384 0.44851,1.91684 0.88499,2.78685c3.61793,7.21142 10.73817,16.58229 18.47511,19.31605c0,0 0.14967,0.05 0.38637,0.08712c-1.63412,3.89549 -3.01276,7.88751 -4.26701,11.6686c-2.84243,14.09184 2.4907,29.52828 8.2361,42.59812c-2.20448,0.29767 -4.22138,0.84556 -6.59185,0.81612z" data-paper-data="{&quot;noHover&quot;:false,&quot;origItem&quot;:[&quot;Path&quot;,{&quot;applyMatrix&quot;:true,&quot;segments&quot;:[[[262,442],[0,0],[4.74094,0.05888]],[[275.1756,440.37244],[-4.40896,0.59534],[-11.4908,-26.13968]],[[258.6675,355.21666],[-5.68486,28.18368],[2.5085,-7.56218]],[[267.19164,331.91744],[-3.26824,7.79098],[-0.4734,-0.07424]],[[266.41888,331.74342],[0,0],[-15.47388,-5.46752]],[[229.50844,293.19676],[7.23586,14.42284],[-0.87296,-1.74002]],[[227.74676,287.62866],[1.00424,1.66768],[-0.97272,-1.61536]],[[223.74676,283.62866],[0.95514,1.62582],[-2.13574,-3.63544]],[[219.74676,271.62866],[2.20996,3.5908],[-0.98832,-1.60586]],[[215.74676,267.62866],[0.95514,1.62582],[-3.70976,-6.31474]],[[211.06458,247.80092],[1.12336,6.74014],[-0.66666,-4]],[[209.06458,235.80092],[0,4.05518],[-0.5967,-1.7227]],[[205.06458,223.80092],[0.19312,1.12598],[-0.5232,-3.05038]],[[204.46448,214.53554],[2.33104,2.0359],[-1.03498,-0.90394]],[[200.41888,213.74342],[1.32302,0.37128],[-11.12592,-3.1222]],[[174.68944,224.73474],[4.31956,-11.89642],[-2.63094,7.2458]],[[170.96256,248.3891],[-1.12686,-7.78594],[0.78744,5.44078]],[[174.96256,264.3891],[-0.78704,-5.44084],[0.27726,1.91674]],[[174.93546,270.1991],[-0.28134,-1.91614],[0.7481,5.09524]],[[182.62868,282.74676],[-3.37296,-3.56194],[0,0]],[187.58116,284.2566],[[190.74344,290.58116],[1.58114,-4.74342],[-1.58114,4.74342]],[184.41888,293.74344],[[177.37136,291.25328],[0,0],[-5.81894,-5.64704]],[[165.06458,271.80094],[1.516,8.3353],[-0.36922,-2.03004]],[[165.03748,265.61094],[0.28798,2.04316],[-0.7673,-5.44366]],[[161.03748,249.61094],[0.76906,5.44342],[-0.57934,-4.10052]],[[161.17304,236.89852],[-0.5976,4.29072],[-5.96396,6.03458]],[[146.57258,259.0228],[3.39392,-7.65956],[-2.22772,5.02764]],[[145,273.00004],[-0.013,-5.3427],[0.0198,8.13368]],[[144.93544,298.19912],[-0.92608,-8.05562],[0.38228,3.3254]],[[150.6194,311.08662],[-0.83806,-1.96134],[4.27264,9.99944]],[[165.44892,334.21458],[-9.23632,-6.651],[0,0]],[170,334.00004],[[175,339.00004],[0,-5],[0,5]],[170,344.00004],[[162.55108,343.7855],[0,0],[-7.37784,-4.70012]],[[145.50842,327.1968],[4.07512,8.05268],[-1.00606,-1.98804]],[[141.3806,314.91346],[0.99588,2.31646],[-1.66946,-3.88322]],[[135.85824,303.19822],[1.34544,4.10432],[-0.50802,0.68608]],[[134.4289,305.32056],[0.43878,-0.73294],[-2.67328,4.46554]],[[133,321.00002],[0.02814,-4.88096],[-0.04948,8.58382]],[[140.32456,342.49038],[-4.13316,-7.26334],[2.48838,4.37294]],[[146.25326,356.37136],[-2.6037,-4.30526],[0.91588,1.5144]],[[150.05622,360.07646],[-0.98168,-1.4726],[1.65374,2.48074]],[[154.05622,368.07646],[-1.6501,-2.48316],[1.89494,2.8516]],[[160.5465,376.04338],[-2.13836,-2.6743],[1.29706,0.1677]],[[165,381.00002],[0,-3.97268],[0,5]],[160,386.00002],[[153.83974,383.77352],[0,0],[-2.3215,-3.50972]],[[145.94378,373.92358],[2.33918,3.49796],[-1.65734,-2.47834]],[[141.94378,365.92358],[1.65386,2.48066],[-1.11038,-1.66548]],[[137.74674,361.62868],[1.02494,1.7194],[-1.14104,-1.91416]],[[135.0249,355.53012],[0.76616,2.10472],[-1.51308,3.71488]],[[131.25536,366.8384],[0.5104,-3.94558],[-0.9813,7.58584]],[[138.49158,384.80326],[-2.96914,-5.98696],[2.82824,5.70286]],[[144.6194,403.0866],[-2.51032,-5.84574],[1.20156,2.79806]],[[148.68942,411.26528],[-1.06738,-2.85194],[1.83858,4.91246]],[[156.62866,432.74676],[-5.55316,-2.90646],[10.71582,5.60856]],[[190.80092,444.06458],[-11.37286,-3.92604],[15.0637,-0.18706]],[[236,444.00002],[-15.06478,0],[8.14926,0]],[[259.19908,442.06458],[-7.7625,2.5875],[0,0]],[[261.45524,442.04316],[0,0],[0.3344,-0.04314]],[262,442.00002]],&quot;closed&quot;:true,&quot;fillColor&quot;:[0,0,0],&quot;strokeWidth&quot;:0.5}]}" fill="#864100" stroke-width="0.25"></path><path d="M255.86897,230.68783c0.01501,0.00748 0.05613,0.1115 0.07114,0.11898l-0.17714,-0.00848c0,0 -0.61409,0.00027 -1.23302,0.30384c-0.0792,-0.42099 -0.30044,-0.87108 -0.75062,-1.32126c-1.76776,-1.76777 -3.53851,0.00061 -3.53851,0.00061l-1.31367,1.38123c-1.19324,1.80398 -2.94653,3.21274 -4.05029,5.07282c-1.25786,2.11977 -1.77344,4.26103 -2.65072,6.39517c-2.5698,-0.43701 -5.03833,-0.55396 -7.61949,-0.56788c0.02104,-0.0433 0.05092,-0.18616 0.07225,-0.22934c0.66116,-1.33831 1.413,-2.64021 2.29444,-3.8449c0.62811,-0.85845 1.93784,-1.2768 2.20332,-2.30685c0.05573,-0.21623 0.10259,-0.43374 0.142,-0.65234l0.10765,0.02694l0.9856,-3.94562c0.05753,-0.21047 0.08804,-0.33201 0.08804,-0.56073c0,-1.38071 -1.1216,-2.50006 -2.50231,-2.50006c-0.52532,0 -1.01408,0.16195 -1.41647,0.43876l-2.76571,1.84205c-3.41878,1.13704 -6.64056,1.02263 -10.03921,-0.15456c0,0 -2.37372,-0.79121 -3.16429,1.5805c-0.38463,1.15391 0.01103,1.83872 0.48616,2.33513c-0.73571,0.33319 -1.19425,1.06879 -1.19425,1.06879c-2.05848,3.11208 -4.53699,5.88816 -6.85552,8.80094c-0.93449,1.17401 -1.93512,2.12689 -2.9025,3.09424c-0.10363,-0.00963 -0.16516,-0.00967 -0.16516,-0.00967l-0.20952,0.12825c-3.34334,-1.11445 -6.53547,-2.14892 -9.88133,-2.70428c0.71405,-1.29147 1.52386,-2.60466 2.21523,-3.62669c2.17948,-3.29501 8.79262,-7.8704 5.83959,-12.83915c-0.92827,-1.5619 -3.55738,-0.94671 -5.37422,-0.93134c-1.05405,0.00892 -1.9624,0.81968 -3.0011,0.99919c-1.83928,0.31787 -3.73544,-0.03426 -5.60199,-0.03426c-3.74531,0 -7.9994,0.55707 -11.69855,0.01486c-1.35984,-0.19932 -2.63764,-0.83111 -4.00141,-1.00158c-3.94342,-0.49292 -7.58693,-0.41344 -11.44109,-1.86735c-1.39477,-0.52615 -2.60512,-1.47904 -4.00118,-2.00178c-2.19587,-0.82221 -4.54633,-1.41494 -6.48215,-2.738c0,0 -1.03492,-0.69033 -2.13124,-0.3673c-0.00326,-0.43182 -0.00541,-0.8666 -0.00611,-1.30371c-0.01364,-8.47806 2.02039,-16.65508 5.29808,-24.36495l0.8662,0.65045c4.25592,1.65748 6.95708,5.16894 11.31554,6.91232c11.09984,6.70438 23.07006,10.74103 36.0969,10.74103c2.50586,0 5.77672,0.73104 8.14963,0.49098c2.30879,-0.23357 4.9286,-1.75161 6.95791,-2.76175c0,0 2.19185,-1.02834 1.07381,-3.26441c-0.2528,-0.5056 -0.56429,-0.84053 -0.89264,-1.05486l-0.02394,-0.2565c-4.82511,-11.96683 -10.0113,-23.65986 -16.61134,-34.75167c0.08588,-0.28203 0.16443,-0.56813 0.24885,-0.84846c0.05007,-0.16628 -0.01987,-0.61832 0.115,-0.50895c1.61068,1.3062 3.58768,2.62978 5.64593,2.37667c0.73097,-0.0899 0.73914,-1.27789 1.10852,-1.91503c0.36447,0.48773 0.58796,1.40401 1.19272,1.47466c1.47745,0.17261 2.96519,-0.15194 4.28669,-0.83482c0.44022,-0.22748 -0.07575,-1.33903 0.2114,-1.57914c-0.07341,0.48892 0.08836,0.89132 0.08836,0.89132c0.64625,3.8477 1.91969,7.10389 3.07653,10.80547c1.82534,5.84068 2.93194,11.84168 5.01639,17.59043c0.76005,2.09618 1.77407,8.23846 4.03884,9.0051c1.54657,0.52352 3.09384,-1.04678 4.57831,-1.7267c4.82645,-2.2106 7.92338,-6.34368 11.55423,-9.97452c3.81122,-4.76907 6.13372,-10.15961 9.24783,-15.34873c2.04217,-3.40292 4.51246,-6.56649 6.51752,-10.00856c6.53382,-11.21654 10.3996,-23.86299 15.1736,-35.79799c2.00392,-5.06234 3.62978,-10.72366 4.17113,-16.17827c0.42291,-4.26123 -0.9406,-10.10191 1.65619,-13.95223c2.14759,-3.18428 7.35865,-4.62976 10.8959,-3.09159c1.98584,0.86354 3.21168,3.54551 4.25199,5.26469c2.81287,8.54366 2.86935,17.15216 -0.54219,25.53542l-0.4147,0.81068c0,0 -1.11669,2.23808 1.11937,3.35611c2.23607,1.11804 3.26939,-1.06489 3.26939,-1.06489l0.58537,-1.18916c2.85031,-7.22806 3.55879,-14.46313 2.38356,-21.75078c2.27098,-0.17093 2.67894,0.92808 4.2493,3.57789c0.93518,1.57801 2.09472,3.03964 2.84789,4.71219c4.19314,9.31169 6.98558,23.97772 -1.2503,32.02067c-0.74924,0.44226 -1.49835,0.88494 -2.24759,1.3272l-1.48136,1.3766c0,0 -1.76717,1.77015 0.0006,3.53793c1.76776,1.76777 3.4378,0.0212 3.4378,0.0212l0.51855,-0.62369c0.91743,-0.55774 1.83501,-1.11481 2.75244,-1.67255c6.05652,-6.14735 7.75681,-14.60194 6.90866,-22.9592c2.28533,2.44205 2.90313,7.09653 3.1571,10.16672c0.46375,5.60623 -0.702,10.93812 -1.48114,16.44894c-0.45909,3.24717 -1.06789,7.20939 -3.74256,9.54296c-0.63699,0.55575 -4.26687,2.69387 -5.06814,3.17436l-0.83179,0.40794c0,0 -2.2361,1.12035 -1.11807,3.35643c1.11803,2.23606 3.25421,1.11342 3.25421,1.11342l1.16819,-0.59191c3.01438,-1.8096 5.77759,-3.26173 7.78836,-6.24486c0.91721,-1.36075 1.66763,-2.6885 2.15447,-4.0471c-0.45723,1.95438 -1.14569,3.89959 -1.55541,5.54698c-0.70219,2.82339 -0.52489,6.08446 -1.45137,8.83479c-3.49014,10.36079 -11.98319,19.11695 -20.66958,25.32366c-9.31281,7.99879 -20.00747,13.13341 -31.00052,18.20686c-2.39795,1.10669 -4.98876,2.86032 -7.55714,4.05005c-2.09241,-1.09792 -4.44415,-1.6882 -6.56115,-2.75058c0,0 -2.23914,-1.11712 -3.35717,1.11895c-1.11804,2.23607 1.09214,3.25751 1.09214,3.25751z" data-paper-data="{&quot;noHover&quot;:false,&quot;origItem&quot;:[&quot;Path&quot;,{&quot;applyMatrix&quot;:true,&quot;segments&quot;:[[511.76394,461.47214],[[509.52788,454.76394],[-2.23608,4.47214],[2.23606,-4.47214]],[[516.23608,452.52788],[0,0],[4.234,2.12476]],[[529.35008,458.03224],[-4.18482,-2.19584],[5.13676,-2.37946]],[[544.45172,449.9388],[-4.7959,2.21338],[21.98608,-10.1469]],[[606.41692,413.56368],[-18.62562,15.99758],[17.37278,-12.41342]],[[647.7451,362.95378],[-6.98028,20.72158],[1.85296,-5.50066]],[[650.64746,345.29474],[-1.40438,5.64678],[0.81942,-3.29478]],[[653.75858,334.20716],[-0.91446,3.90876],[-0.97368,2.7172]],[[649.64926,342.28996],[1.83442,-2.7215],[-4.02154,5.96626]],[[634.0725,354.78748],[6.02876,-3.6192],[0,0]],[631.73608,355.97216],[[625.02788,353.7361],[2.23606,4.47212],[-2.23606,-4.47214]],[627.26394,347.0279],[[628.92752,346.21258],[0,0],[1.60254,-0.96098]],[[639.06392,339.86778],[-1.27398,1.1115],[5.34934,-4.66714]],[[646.55024,320.79294],[-0.91818,6.49434],[1.55828,-11.02164]],[[649.51702,287.91244],[0.9275,11.21246],[-0.50794,-6.14038]],[[643.38656,267.5009],[4.57066,4.8841],[1.6963,16.71452]],[[629.57706,313.44106],[12.11304,-12.2947],[-1.83486,1.11548]],[[624.07248,316.7875],[1.83486,-1.11548],[0,0]],[623.03554,318.03556],[[615.96448,318.03556],[3.53552,3.53554],[-3.53554,-3.53554]],[615.96448,310.9645],[[618.92754,308.21256],[0,0],[1.49848,-0.88452]],[[623.42296,305.559],[-1.49848,0.88452],[16.47176,-16.0859]],[[625.93882,241.5483],[8.38628,18.62338],[-1.50634,-3.3451]],[[620.24676,232.12868],[1.87036,3.15602],[-3.14072,-5.29962]],[[611.89778,224.8403],[4.54196,-0.34186],[2.35046,14.5753]],[[607.14238,268.35698],[5.70062,-14.45612],[0,0]],[605.97214,270.7361],[[599.26394,272.97216],[4.47214,2.23608],[-4.47214,-2.23606]],[597.02788,266.26396],[[597.85764,264.64308],[0,0],[6.82308,-16.76652]],[[598.95746,213.58932],[5.62574,17.08732],[-2.08062,-3.43836]],[[590.45918,203.06456],[3.97168,1.72708],[-7.0745,-3.07634]],[[568.67424,209.25248],[4.29518,-6.36856],[-5.19358,7.70064]],[[565.4757,236.99272],[0.84582,-8.52246],[-1.0827,10.90922]],[[557.14242,269.35698],[4.00784,-10.12468],[-9.548,23.87]],[[526.82458,341.00966],[13.06764,-22.43308],[-4.01012,6.88414]],[[513.78356,361.07906],[4.08434,-6.80584],[-6.2282,10.37824]],[[495.22568,391.83464],[7.62244,-9.53814],[-7.26168,7.26168]],[[472.07252,411.7875],[9.6529,-4.4212],[-2.96894,1.35982]],[[462.9038,415.2384],[3.09314,1.04704],[-4.52954,-1.53328]],[[454.80512,397.21984],[1.5201,4.19236],[-4.1689,-11.4975]],[[444.72614,361.9866],[3.65068,11.68136],[-2.31366,-7.40316]],[[438.56808,340.32204],[1.2925,7.6954],[0,0]],[[438.58736,338.57896],[-0.14682,0.97784],[-0.5743,0.48022]],[[438.1659,341.73008],[0.88044,-0.45496],[-2.64298,1.36576]],[[429.394,343.37618],[2.9549,0.34522],[-1.20952,-0.1413]],[[427.20716,340.4498],[0.72894,0.97546],[-0.73876,1.27428]],[[424.99088,344.27262],[1.46194,-0.1798],[-4.1165,0.50624]],[[413.50004,339.50006],[3.22136,2.6124],[-0.26974,-0.21876]],[[413.46864,340.5415],[0.10014,-0.33256],[-0.16884,0.56066]],[[412.9712,342.23588],[0.17176,-0.56406],[13.20008,22.1836]],[[446.14244,411.6431],[-9.65022,-23.93366],[0,0]],[[446.18998,412.1559],[0,0],[0.6567,0.42866]],[[447.97218,414.264],[-0.5056,-1.0112],[2.23606,4.47214]],[[445.73612,420.9722],[0,0],[-4.05862,2.02028]],[[431.81074,426.4904],[4.61758,-0.46714],[-4.74582,0.48012]],[[415.50006,425.50006],[5.01172,0],[-26.05368,0]],[[343.27824,403.9793],[22.19968,13.40876],[-8.71692,-3.48676]],[[320.6431,390.14244],[8.51184,3.31496],[0,0]],[[319.1044,388.79178],[0,0],[-6.55538,15.41974]],[[308.50006,437.50006],[-0.02728,-16.95612],[0.0014,0.87422]],[[308.51174,440.10642],[-0.00652,-0.86364],[2.19264,-0.64606]],[[312.77356,440.8398],[0,0],[3.87164,2.64612]],[[325.7348,446.31062],[-4.39174,-1.64442],[2.79212,1.04548]],[[333.7348,450.31062],[-2.78954,-1.0523],[7.70832,2.9078]],[[356.61098,454.0375],[-7.88684,-0.98584],[2.72752,0.34094]],[[364.61098,456.0375],[-2.71968,-0.39864],[7.3983,1.08442]],[[388.00006,456.00004],[-7.49062,0],[3.7331,0]],[[399.19914,456.0646],[-3.67856,0.63574],[2.0774,-0.35902]],[[405.19914,454.0646],[-2.1081,0.01784],[3.6337,-0.03074]],[[415.94108,455.92298],[-1.85654,-3.1238],[5.90606,9.9375]],[[404.1603,481.77354],[4.35896,-6.59002],[-1.38274,2.04406]],[[399.82972,488.85364],[1.4281,-2.58294],[6.69172,1.11072]],[[419.58118,494.25664],[-6.68668,-2.2289],[0,0]],[420.00004,494.00006],[[420.33018,494.01932],[-0.20726,-0.01926],[1.93476,-1.9347]],[[426.13334,487.8301],[-1.86898,2.34802],[4.63706,-5.82556]],[[439.8398,470.22654],[-4.11696,6.22416],[0,0]],[[442.16544,468.27882],[-1.47142,0.66638],[-0.95026,-0.99282]],[[441.25662,463.41892],[-0.76926,2.30782],[1.58114,-4.74342]],[[447.58118,460.25664],[0,0],[6.7973,2.35438]],[[467.64284,460.56228],[-6.83756,2.27408],[0,0]],[[473.16966,456.87772],[0,0],[0.80478,-0.55362]],[[476.00004,456.00006],[-1.05064,0],[2.76142,0]],[[481.00004,461.00006],[0,-2.76142],[0,0.45744]],[[480.82356,462.32152],[0.11506,-0.42094],[0,0]],[478.85076,470.21274],[[478.63528,470.15886],[0,0],[-0.07882,0.4372]],[[478.35106,471.46354],[0.11146,-0.43246],[-0.53096,2.06008]],[[473.94108,476.0771],[1.25622,-1.7169],[-1.76288,2.40938]],[[469.34914,483.76668],[1.32232,-2.67662],[-0.04266,0.08636]],[[469.22202,484.02612],[0.04208,-0.0866],[5.16232,0.02786]],[[484.44986,485.16154],[-5.1396,-0.87402],[1.75456,-4.26828]],[[489.7468,472.3714],[-2.51572,4.23954],[2.20752,-3.72016]],[[497.8398,462.22656],[-2.38648,3.60796],[0,0]],[500.46452,459.46452],[[507.53558,459.46452],[-3.53552,-3.53554],[0.90036,0.90036]],[[509.03612,462.1072],[-0.1584,-0.84198],[1.23786,-0.60714]],[511.50006,461.50006],[[511.85408,461.51708],[0,0],[-0.03002,-0.01496]],[[511.764,461.4722],[0.03002,0.01496],[0,0]]],&quot;closed&quot;:true,&quot;fillColor&quot;:[0,0,0],&quot;strokeWidth&quot;:0.5}]}" fill="#864100" stroke-width="0.25"></path><path d="M217.80806,100.51619c0.28445,2.91379 0.42867,5.73776 0.46901,8.64913c-4.765,-2.54981 -10.32422,-3.91402 -15.36623,-5.28541c-8.27004,-2.24938 -15.89436,-5.29744 -24.51599,-4.23463c-0.59338,-3.87383 -0.95802,-7.66029 -0.70609,-11.65848c0.10466,-1.66089 0.70273,-3.54521 2.2102,-2.08565l1.38209,1.83772c0.45492,0.62045 1.09177,1.00058 1.92008,1.00058c1.38071,0 2.50353,-1.12983 2.50353,-2.51054l0.0038,-2.50675l-0.04204,0.00006c0.01205,-0.06852 0.02359,-0.13778 0.03384,-0.20673c0.22282,-1.49875 -1.12831,-3.08516 -0.61383,-4.51037c1.07038,-2.96516 3.34273,-4.20524 4.95957,-1.07387c0.37755,0.7312 0.60826,1.63675 0.94911,2.38576c0.73069,1.60566 1.50528,3.22965 1.83398,4.96286l0.49743,2.44857c0.20986,1.16847 1.15902,1.98642 2.3879,1.98642c1.38071,0 2.53882,-1.13407 2.53882,-2.51478l-0.00508,-3.40014l-0.302,-0.09996c0.40534,-1.87009 0.51958,-3.64678 0.29069,-6.14635c-0.02944,-0.32143 -0.01328,-1.94399 -0.52782,-2.82984c0.94462,0.10514 2.09537,-0.41018 2.92796,0.38014c0.70697,0.67109 1.62329,4.01989 1.78258,4.45893c1.14248,3.14896 1.3356,6.53001 2.42556,9.65921c0.50891,1.46106 0.25825,3.88198 1.75731,4.26479c7.20449,1.83982 8.62396,-8.01118 6.88861,-12.22901c-0.37095,-0.90161 -1.1336,-1.57703 -1.70281,-2.36856c-0.37135,-0.22094 -0.9758,-0.2503 -1.11168,-0.66048c-0.09128,-0.27558 0.64585,-0.15024 0.9361,-0.15534c1.16438,-0.02047 1.48029,0.05084 2.50216,1.0019c1.36775,1.27297 2.30404,4.09609 2.77456,5.83089c1.40912,5.1954 0.40555,10.3536 0.91869,15.60993z" data-paper-data="{&quot;noHover&quot;:false,&quot;origItem&quot;:[&quot;Path&quot;,{&quot;applyMatrix&quot;:true,&quot;segments&quot;:[[[435.52434,200.99268],[0,0],[-1.02628,-10.51266]],[[433.68494,169.84726],[2.81824,10.3908],[-0.94104,-3.4696]],[[428.1513,158.21296],[2.7355,2.54594],[-2.04374,-1.90212]],[[423.15504,156.21812],[2.32876,-0.04094],[-0.58052,0.0102]],[[421.42116,156.3844],[-0.18256,-0.55116],[0.27176,0.82036]],[[423.64924,157.71004],[-0.7427,-0.44188],[1.13842,1.58304]],[[427.06452,162.45914],[-0.7419,-1.80322],[3.4707,8.43566]],[[413.30324,186.99156],[14.40898,3.67964],[-2.9981,-0.76562]],[[409.5971,178.48056],[1.01782,2.92212],[-2.17992,-6.2584]],[[404.80508,159.21976],[2.28496,6.29792],[-0.31858,-0.87808]],[[401.25816,150.3066],[1.41394,1.34218],[-1.66518,-1.58066]],[[395.41942,149.54756],[1.88924,0.21028],[1.02908,1.7717]],[[396.47568,155.00728],[-0.05888,-0.64286],[0.45778,4.99914]],[[395.89232,167.49996],[0.81068,-3.74018],[0,0]],[396.5,167.49996],[[396.5,174.49996],[0,0],[0,2.76142]],[[391.5,179.49996],[2.76142,0],[-2.45776,0]],[[386.57894,175.38972],[0.41972,2.33694],[0,0]],[[385.5971,170.48054],[0,0],[-0.6574,-3.46642]],[[381.9388,160.54824],[1.46138,3.21132],[-0.6817,-1.49802]],[[380.14118,155.94958],[0.7551,1.4624],[-3.23368,-6.26274]],[[370.24342,158.0811],[2.14076,-5.93032],[-1.02896,2.85042]],[[371.48296,167.08756],[0.44564,-2.9975],[-0.0205,0.1379]],[[371.416,167.49996],[0.0241,-0.13704],[0,0]],[371.5,167.49996],[[371.5,172.49996],[0,0],[0,2.76142]],[[366.5,177.49996],[2.76142,0],[-1.65662,0]],[[362.46508,175.4534],[0.90984,1.2409],[0,0]],[[359.70302,171.77066],[0,0],[-3.01494,-2.91912]],[[355.47566,175.99264],[0.20932,-3.32178],[-0.50386,7.99638]],[[356.88268,199.2538],[-1.18676,-7.74766],[17.24326,-2.12562]],[[405.78334,207.66744],[-16.54008,-4.49876],[10.08402,2.74278]],[[436.47788,218.26594],[-9.53,-5.09962],[-0.08068,-5.82274]],[[435.52434,200.99264],[0.5689,5.82758],[0,0]]],&quot;closed&quot;:true,&quot;fillColor&quot;:[0,0,0],&quot;strokeWidth&quot;:0.5}]}" fill="#ff0000" stroke-width="0.25"></path><path d="M104.5,217.5c0,2.5 -2.5,2.5 -2.5,2.5l-1.79057,-0.12829c-1.17459,-0.41503 -2.46369,-0.59075 -3.52376,-1.24508c-4.91924,-3.03641 -6.98596,-10.10225 -6.15339,-15.52708c0.1599,-1.04189 0.82671,-1.96025 1,-3c0.35529,-2.13174 0.4312,-4.33377 1.09601,-6.39011c0,0 0.25248,-0.75745 0.90014,-1.27356c-1.42166,-5.77344 2.25909,-12.19771 4.09986,-17.72644c0,0 0.07139,-0.21417 0.23563,-0.49235c-0.30486,-1.40615 -0.39137,-2.93922 -0.36392,-4.71708c0.01952,-1.2641 -0.35936,-2.62416 0.12829,-3.79057c1.11862,-2.67563 4.46553,-5.9326 6.60394,-7.9772c0.9131,-0.87304 1.63961,-2.06901 2.81106,-2.54193c1.22441,-0.49431 2.63781,-0.12687 3.95671,-0.1903c0,0 2.5,0 2.5,2.5c0,2.5 -2.5,2.5 -2.5,2.5c-2.99784,-0.2792 -3.99113,1.7715 -6.11137,4.138c-0.8973,1.00152 -1.96974,1.92425 -2.51693,3.15257c-0.3002,0.67388 0.11181,1.4719 0.12829,2.20943c0.06968,3.11876 -0.13103,5.0267 2.26777,7.23223l3,3c0,0 1.76777,1.76777 0,3.53553c-1.76777,1.76777 -3.53553,0 -3.53553,0l-3,-3c-0.10274,-0.10822 -0.20284,-0.21605 -0.30035,-0.32357c-1.19588,2.79973 -2.409,5.57248 -2.43189,8.5558c-0.02127,2.77303 -0.81717,3.32984 1.26777,5.23223c1.65494,1.51005 3.75492,2.44493 5.61898,3.68764l1.73128,0.84406c0,0 2.23607,1.11803 1.11803,3.3541c-1.11803,2.23607 -3.3541,1.11803 -3.3541,1.11803l-2.26872,-1.15594c-0.37134,-0.24756 -4.23482,-2.81188 -5.76596,-3.86906c-0.13639,1.0604 -0.20436,2.13811 -0.37957,3.18939c-0.17329,1.03975 -0.81021,1.96313 -1,3c-0.92134,5.03335 1.63608,9.79901 6.32285,11.22784l0.20943,-0.12829c0,0 2.5,0 2.5,2.5z" fill="#000000" stroke-width="0.5"></path><path d="M286.84579,196.09912c0.15689,-1.695 1.85189,-1.53811 1.85189,-1.53811l0.1115,0.51103c2.49971,-2.07017 5.65544,-5.01425 4.52218,-8.69712c-0.16572,-0.53857 -0.71501,-1.45211 -1.15254,-2.15442c-1.37605,0.99893 -2.90385,1.77485 -4.49171,2.26089l-0.97973,0.03159c0,0 -1.695,-0.15689 -1.53811,-1.85189c0.15689,-1.695 1.85189,-1.53811 1.85189,-1.53811l-0.30173,0.09434c4.71655,-1.33892 9.01324,-6.41113 7.928,-11.55825c-0.44037,-2.08858 -1.55485,-4.19955 -2.84546,-6.01138c-0.73522,0.75296 -1.57421,1.32337 -2.55043,2.09373l-2.20928,0.30649c0,0 -1.69286,0.17857 -1.87143,-1.51428c-0.17857,-1.69286 1.51428,-1.87143 1.51428,-1.87143l1.24348,-0.05773c0.70299,-0.6474 1.73091,-1.51912 2.16872,-2.33972c2.03021,-3.80531 -1.87601,-10.03897 -5.3891,-11.57873c-1.01245,-0.44375 -2.10895,-0.45733 -3.18115,-0.55256c0,0 -1.695,-0.15689 -1.53811,-1.85189c0.15689,-1.695 1.85189,-1.53811 1.85189,-1.53811c1.54703,0.14811 2.71897,0.15754 4.21411,0.81576c4.88782,2.15183 9.29672,9.43505 7.62007,14.92816c1.93588,2.45669 3.67787,5.4611 4.31387,8.51962c0.83816,4.03069 -0.62729,7.94104 -3.24722,10.89292c0.65135,1.05462 1.53231,2.39649 1.86477,3.54527c1.4803,5.11498 -1.9962,9.22645 -5.62204,12.24585l-2.6005,0.26c0,0 -1.695,-0.15689 -1.53811,-1.85189z" fill="#000000" stroke-width="0.5"></path><path d="" fill="#cd894a" stroke-width="0.5"></path></g></g></svg>