<svg version="1.1" xmlns="http://www.w3.org/2000/svg" xmlns:xlink="http://www.w3.org/1999/xlink" width="111" height="111.95348" viewBox="0,0,111,111.95348"><g transform="translate(-191,-171.54652)"><g data-paper-data="{&quot;isPaintingLayer&quot;:true}" fill-rule="nonzero" stroke="none" stroke-linecap="butt" stroke-linejoin="miter" stroke-miterlimit="10" stroke-dasharray="" stroke-dashoffset="0" style="mix-blend-mode: normal"><path d="M302,227.52326c0,30.9151 -24.8482,55.97674 -55.5,55.97674c-30.6518,0 -55.5,-25.06164 -55.5,-55.97674c0,-30.9151 24.8482,-55.97674 55.5,-55.97674c30.6518,0 55.5,25.06164 55.5,55.97674z" fill="#00b5ff" stroke-width="0"></path><path d="M250.47323,239.19156c0.38919,0.12973 0.54855,0.37439 0.60531,0.60671c0.73445,0.15325 1.46304,0.33941 2.21414,0.46922c1.02236,0.17668 1.99574,-0.06998 2.98276,-0.24172c0.0075,-0.52263 0.53013,-0.78395 0.53013,-0.78395l0.86232,-0.42075c1.482,-0.494 2.96399,-0.988 4.44599,-1.482c0.67375,-0.22458 1.42412,-0.27796 2.02894,-0.6502c0.29748,-0.18309 0.44147,-0.56128 0.741,-0.741c0.33489,-0.20093 0.7738,-0.17433 1.1115,-0.3705c0.96913,-0.56297 2.1859,-2.30069 2.60388,-3.29179c0.19787,-0.46919 0.16991,-1.01397 0.3705,-1.482c0.17541,-0.40928 0.56379,-0.703 0.741,-1.1115c0.02602,-0.05998 0.05048,-0.12046 0.07356,-0.18141c-0.83942,-0.0115 -1.68479,-0.15947 -2.48339,-0.41765c-2.34288,-0.82783 -3.03146,-2.5275 -4.49889,-4.36698c-1.05428,-1.32158 -1.59556,-2.73116 -2.33875,-4.25577c-0.33336,-0.68386 -1.04961,-1.11822 -1.43785,-1.77249c-1.36906,-2.30718 -1.596,-5.15744 -1.61831,-7.76989c-0.26165,-0.00571 -0.52212,0.00311 -0.7799,0.04624c-1.57588,0.2637 -2.79281,1.1115 -4.44599,1.1115c-1.16547,0.40368 -1.98668,0.85726 -3.07591,1.39977c-0.3228,0.16078 -0.72163,0.14184 -1.03149,0.32635c-1.16564,0.6941 -2.17916,1.93131 -3.39157,2.62603c-0.77658,0.44499 -1.72624,0.65667 -2.35049,1.29808c-0.82703,0.84975 -1.33409,1.90893 -2.30864,2.67327c-0.29571,0.23193 -0.72209,0.29817 -0.96263,0.58692c-0.18614,0.22344 -0.14271,0.56411 -0.22788,0.84218c-0.4303,1.4049 -1.08234,2.67382 -1.06397,4.15308c0,0 0,0.92625 -0.92625,0.92625c-0.05981,0 -0.11577,-0.00386 -0.16811,-0.01109c0.07892,1.12488 0.42033,2.54398 0.95602,3.41437c0.18309,0.29748 0.56128,0.44147 0.741,0.741c0.20093,0.33489 0.17118,0.77565 0.3705,1.1115c0.22569,0.38028 0.50815,0.73262 0.81682,1.07113l0.61827,-0.02842c0,0 0.92625,0 0.92625,0.92625c0.45635,0.34226 0.42087,0.75479 0.32627,1.02122c0.07029,0.08052 0.13869,0.1618 0.20479,0.24404c0.14392,0.17907 0.84407,1.42254 1.25265,1.65181c0.34058,0.19111 0.77661,0.16957 1.1115,0.3705c0.29953,0.17972 0.44351,0.55791 0.741,0.741c0.02045,0.01259 0.04113,0.02502 0.06201,0.03732c0.18486,-0.1551 0.46118,-0.25954 0.85543,-0.12812c0.46027,0.15342 0.59909,0.46757 0.62693,0.73197c0.87101,0.26216 1.81141,0.45411 2.56303,0.71445c0.1925,0 0.38289,0.00751 0.57162,0.02117c0.15525,-0.23727 0.47947,-0.54791 1.05491,-0.3561zM247.56214,247.32649c-1.34985,1.36058 -3.43549,3.67351 -5.5328,3.67351c-1.19727,0 -1.70641,-0.6716 -2.62994,-1.20568c-0.49742,-0.28766 -1.29064,-0.26734 -1.53301,-0.78833c-0.25963,-0.5581 0.17086,-1.22149 0.32024,-1.81863c0.29136,-1.16467 1.22953,-2.47932 2.07625,-3.32604c1.06023,-1.06023 2.7709,-1.82146 3.57203,-3.16649c0.1384,-0.23237 0.23312,-0.4843 0.30975,-0.7444c-0.13101,-0.06454 -0.25772,-0.1323 -0.37929,-0.20372c-0.17308,-0.10168 -0.29303,-0.27186 -0.4206,-0.43234c-0.14653,0.10764 -0.28153,0.15264 -0.28153,0.15264l-1.1115,0.3705c-0.59997,0.18291 -1.08191,0.63628 -1.60381,0.98419c-0.45956,0.30635 -1.02245,0.43462 -1.482,0.741c-0.30853,0.2057 -0.4762,0.58917 -0.79563,0.7775c-0.0828,0.04881 -2.26439,0.79208 -2.45098,0.84239c-0.58655,0.15815 -1.18119,0.52776 -1.77651,0.40676c-0.08549,-0.01738 -0.16864,-0.04083 -0.24987,-0.06932l-0.00749,0.02247l-1.09123,-0.36374c-0.37849,-0.1164 -0.6536,-0.46881 -0.6536,-0.88547c0,-0.32661 0.16904,-0.61373 0.42441,-0.77865l1.04194,-0.69463c1.86783,-1.88271 3.98819,-3.52683 5.71234,-5.51776c-0.00122,-0.00122 -0.00243,-0.00244 -0.00365,-0.00366c-0.48685,0.22014 -0.95266,0.49182 -1.39586,0.78728c-0.34383,0.10878 -0.72169,0.14175 -1.03149,0.32635c-0.34089,0.20313 -0.50601,0.65909 -0.8735,0.80883c-0.34311,0.13981 -0.76648,-0.13503 -1.1115,0c-0.28167,0.11024 -0.34829,0.51894 -0.6085,0.67317c-0.10868,0.06441 -2.19199,0.76126 -2.41705,0.8318c-0.46608,0.14608 -0.91855,0.46816 -1.4044,0.41803c-2.14879,-0.22172 -1.98068,-0.7021 -2.03774,-2.40824c-0.01635,-0.48894 -0.14289,-1.02573 0.07051,-1.46596c0.7973,-1.6448 2.13439,-1.18159 3.52683,-1.63575c0.30395,-0.09914 0.64517,-0.11212 0.91744,-0.2797c0.29748,-0.18309 0.44121,-0.56172 0.741,-0.741c0.3819,-0.22838 0.6922,-0.37177 0.96192,-0.49355c-1.09248,0.36416 -2.38192,0.79397 -3.14604,1.04868c-2.60165,0.8411 -5.05239,0.10235 -7.36884,-1.15815c-1.42113,-0.77331 -2.23918,-0.33571 -1.56029,-2.66852c0.37253,-1.28007 2.4476,-2.01701 3.52683,-2.37675c1.24419,-0.41473 2.15875,-1.28429 3.47903,-1.51757c1.6955,-0.29958 4.04088,-0.23454 5.86055,0.16977c0.13486,-0.107 0.32322,-0.18173 0.58631,-0.18173c0.07588,0 0.14555,0.00622 0.20951,0.01763c0.11734,-1.46444 0.63522,-2.79175 1.13477,-4.20078c0.16408,-0.4628 0.21131,-0.9935 0.51312,-1.38082c0.31672,-0.40645 0.86081,-0.56969 1.26036,-0.89508c0.89222,-0.72662 1.34714,-1.74026 2.13735,-2.51372c0.78361,-0.767 1.88375,-1.12313 2.83649,-1.66592c1.18767,-0.67663 2.1356,-1.87161 3.27741,-2.56096c0.36001,-0.21735 0.81564,-0.22604 1.19151,-0.41465c1.24618,-0.62533 2.23896,-1.12644 3.59307,-1.56422c1.64836,0 2.85384,-0.84695 4.44599,-1.1115c0.09315,-0.01548 2.196,-0.01196 2.37136,-0.01196c1.44195,0 3.12326,-0.20029 4.55916,0.00694c1.81389,0.26178 3.23734,1.09235 4.78972,1.96609c1.22524,0.68962 2.89249,1.24113 3.6655,2.54175c0.7793,1.3112 0.26491,2.33085 0.49687,3.67308c0.18161,1.05086 0.35472,2.17743 0.70543,3.18996c0.79344,2.45422 -0.04668,4.45903 -0.73041,6.85036c-0.07929,0.27731 -0.70892,2.90443 -0.78324,3.07974c-0.17379,0.40997 -0.56559,0.70222 -0.741,1.1115c-0.20058,0.46803 -0.1675,1.01501 -0.3705,1.482c-0.58769,1.35191 -2.03471,3.32403 -3.3241,4.11819c-0.33253,0.20481 -0.77661,0.16957 -1.1115,0.3705c-0.29953,0.17972 -0.43982,0.56406 -0.741,0.741c-0.13176,0.0774 -2.17247,0.75027 -2.41705,0.8318c-1.15155,0.38385 -2.3031,0.7677 -3.45464,1.15155c0.18127,0.6808 -0.49952,1.02119 -0.49952,1.02119l-1.15523,0.46828c-1.56332,-0.01941 -2.97402,0.61987 -4.59436,0.35854c-0.8001,-0.12904 -1.5718,-0.33119 -2.35219,-0.49176c-0.71832,2.04869 -1.86892,3.91554 -3.08162,5.72219zM245.41076,241.66873c-0.8988,1.49067 -2.66495,2.3295 -3.83795,3.50249c-0.29358,0.29358 -0.42012,0.71971 -0.67965,1.04377c-0.19307,0.24109 -0.50872,0.37693 -0.66939,0.64073c-0.16631,0.27305 -0.13,0.63495 -0.2797,0.91744c-0.09108,0.17188 -0.53787,0.24905 -0.42075,0.40436c0.1388,0.18407 0.47485,-0.13017 0.68998,-0.04733c0.27586,0.10622 1.28927,1.01731 1.81605,1.01731c0.45576,0 1.49762,-0.81442 1.7092,-0.95594c0.93454,-0.62505 1.59826,-1.25426 2.39098,-2.03954c1.0004,-1.51244 2.00717,-3.09389 2.63816,-4.79371c-0.07227,-0.00214 -0.14484,-0.00325 -0.21773,-0.00325c-0.82918,-0.26807 -1.81095,-0.49352 -2.74983,-0.77863c-0.18006,0.53237 -0.35358,1.03293 -0.38938,1.0923zM235.55566,241.22335c0.55688,-0.10523 1.12112,-0.20149 1.54075,-0.45899c0.27944,-0.17148 0.41357,-0.52264 0.68637,-0.7045c1.10302,-0.73531 2.25067,-1.49099 3.4877,-1.94539c-0.39351,-0.42203 -0.56057,-0.86747 -0.99601,-1.43883c-1.4423,1.62747 -3.11687,3.05335 -4.71881,4.54771zM235.39682,233.86286c-0.31989,0.16649 -0.72255,0.14032 -1.03149,0.32635c-0.29924,0.1802 -0.43982,0.56406 -0.741,0.741c-1.11631,0.65581 -2.29457,0.62333 -3.46699,0.80883c-0.26451,0.04185 -0.39733,1.40682 -0.34405,1.56667c0.03799,0.11396 0.2446,0.01887 0.36008,-0.01416c0.28202,-0.08067 0.54254,-0.22378 0.81859,-0.32297c0.36754,-0.13205 0.73959,-0.25132 1.1115,-0.3705c0.30446,-0.09757 0.64424,-0.11364 0.91744,-0.2797c0.3391,-0.2061 0.50601,-0.65909 0.8735,-0.80883c0.34311,-0.13981 0.76648,0.13503 1.1115,0c0.28167,-0.11024 0.34963,-0.51672 0.6085,-0.67317c0.35991,-0.21751 0.79434,-0.27643 1.19151,-0.41465c0.28666,-0.19111 0.58387,-0.36863 0.88948,-0.53075c-0.19342,-0.23805 -0.37244,-0.48458 -0.52944,-0.74372c-0.10954,-0.1808 -0.15017,-0.3934 -0.19627,-0.60351c-0.44976,0.53078 -0.96727,1.00392 -1.57286,1.31912zM229.58075,227.2761c-1.04202,0.15854 -0.94854,0.52584 -1.96442,1.02927c-1.12249,0.55626 -2.11041,0.61937 -3.15421,1.36624c-0.22457,0.16069 -0.82902,0.48215 -0.57682,0.5946c0.23479,0.10468 0.53145,-0.02284 0.76703,0.08002c0.39074,0.17061 0.66012,0.56676 1.05901,0.71732c1.56145,0.58938 3.33411,0.89341 4.91012,0.34752c1.1115,-0.3705 2.22299,-0.741 3.33449,-1.1115l1.1115,-0.3705c0,0 0.15432,-0.05144 0.35517,-0.04653c-0.26803,-0.78316 -0.45241,-1.63682 -0.54629,-2.43657c-1.59698,-0.39681 -3.78202,-0.40017 -5.29559,-0.16988zM259.24559,213.61647c0.12075,0.7216 0.47406,1.38437 0.70543,2.07846c0.22458,0.67375 0.28075,1.4224 0.6502,2.02894c0.42699,0.70101 1.15284,1.20148 1.52614,1.9325c0.70109,1.37291 1.15507,2.70844 2.10724,3.89521c1.17033,1.45868 1.75682,3.2062 3.65209,3.784c0.61638,0.2135 1.27783,0.33107 1.93009,0.32297h0.3705c0,0 0.0126,0 0.03486,0.00147c0.05288,-0.27499 0.11089,-0.54848 0.18733,-0.81619c0.55849,-1.95607 1.44329,-3.74961 0.75159,-5.74661c-0.36218,-1.12027 -0.5909,-2.32782 -0.77657,-3.47903c-0.15339,-0.95109 0.2965,-2.1106 -0.24413,-2.9959c-0.575,-0.94158 -2.14083,-1.41826 -3.00348,-1.90424c-1.33183,-0.75029 -2.53943,-1.51849 -4.10225,-1.7389c-1.18531,-0.16717 -2.55496,-0.03807 -3.79078,-0.0018c-0.03804,0.87047 -0.13348,1.83094 0.00175,2.63912z" fill="#000000" stroke-width="0.5"></path><path d="M236.98451,232.53265c0.0461,0.21012 0.08828,0.42516 0.19781,0.60595c0.15701,0.25915 0.33754,0.50952 0.53095,0.74756c-0.3056,0.16212 -0.60245,0.34129 -0.88911,0.5324c-0.39717,0.13821 -0.83136,0.19916 -1.19127,0.41667c-0.25888,0.15645 -0.32838,0.57158 -0.61006,0.68183c-0.34502,0.13503 -0.78063,-0.12939 -1.12374,0.01041c-0.36748,0.14974 -0.54779,0.60115 -0.88689,0.80725c-0.27321,0.16605 -0.61737,0.17888 -0.92183,0.27645c-0.37191,0.11918 -0.74581,0.23628 -1.11335,0.36834c-0.27606,0.09919 -0.53712,0.24151 -0.81914,0.32217c-0.11549,0.03303 -0.3225,0.12749 -0.36048,0.01353c-0.05328,-0.15984 0.07734,-1.53036 0.34185,-1.57221c1.17242,-0.18549 2.35053,-0.16018 3.46684,-0.81599c0.30118,-0.17694 0.47165,-0.57201 0.77089,-0.75221c0.30894,-0.18603 0.7154,-0.15566 1.0353,-0.32216c0.60559,-0.31519 1.12248,-0.78922 1.57224,-1.32z" data-paper-data="{&quot;noHover&quot;:false,&quot;origItem&quot;:[&quot;Path&quot;,{&quot;applyMatrix&quot;:true,&quot;segments&quot;:[[[148.09838,206.74579],[1.63453,-0.85073],[-0.86341,0.44938]],[[145.31433,207.62663],[0.83385,-0.50212],[-0.80768,0.48636]],[[143.31433,209.62663],[0.81291,-0.47757],[-3.01299,1.77006]],[[133.95671,211.8097],[3.16444,-0.50065],[-0.71393,0.11295]],[[133.02811,216.03822],[-0.14381,-0.43142],[0.10253,0.30758]],[[134,216],[-0.31172,0.08916],[0.7612,-0.21772]],[[136.20943,215.12829],[-0.74509,0.26771],[0.99201,-0.35642]],[[139.20943,214.12829],[-1.00381,0.32168],[0.82176,-0.26334]],[[141.68567,213.37337],[-0.7374,0.44819],[0.91525,-0.55628]],[[144.04329,211.1903],[-0.99186,0.40415],[0.92607,-0.37735]],[[147.04329,211.1903],[-0.93122,0.36446],[0.76025,-0.29755]],[[148.68567,209.37337],[-0.69872,0.42226],[0.97142,-0.58707]],[[151.90162,208.25421],[-1.07198,0.37305],[0.77372,-0.51581]],[[154.30237,206.82168],[-0.82484,0.43758],[-0.52204,-0.64251]],[[152.87337,204.81433],[0.42377,0.69945],[-0.29565,-0.48798]],[[152.34363,203.1854],[0.12442,0.56712],[-1.21393,1.4326]]],&quot;closed&quot;:true}]}" fill="#9a9a9a" stroke-width="0.5"></path><path d="M249.41343,239.56553c-0.18872,-0.01366 -0.3798,-0.02137 -0.5723,-0.02137c-0.75162,-0.26034 -1.69508,-0.45357 -2.56609,-0.71573c-0.02784,-0.2644 -0.16765,-0.57911 -0.62791,-0.73253c-0.39425,-0.13142 -0.67126,-0.02742 -0.85612,0.12768c-0.02089,-0.01229 -0.04163,-0.02478 -0.06208,-0.03736c-0.29748,-0.18309 -0.4425,-0.56203 -0.74203,-0.74175c-0.33489,-0.20093 -0.77193,-0.18024 -1.11251,-0.37135c-0.40858,-0.22927 -1.11046,-1.47454 -1.25438,-1.65361c-0.0661,-0.08224 -0.13475,-0.16383 -0.20504,-0.24434c0.0946,-0.26643 0.12934,-0.67995 -0.32702,-1.02222c0,-0.92625 -0.9271,-0.92758 -0.9271,-0.92758l-0.61843,0.02813c-0.30866,-0.3385 -0.59183,-0.69224 -0.81751,-1.07252c-0.19932,-0.33585 -0.17008,-0.77788 -0.37101,-1.11276c-0.17972,-0.29953 -0.55825,-0.44454 -0.74134,-0.74202c-0.53568,-0.87039 -0.87783,-2.2934 -0.95675,-3.41828c0.05234,0.00722 0.10829,0.01111 0.16811,0.01111c0.92625,0 0.9262,-0.92727 0.9262,-0.92727c-0.01837,-1.47926 0.63428,-2.75334 1.06457,-4.15823c0.08517,-0.27807 0.04204,-0.61977 0.22819,-0.84321c0.24054,-0.28875 0.6673,-0.35604 0.96301,-0.58797c0.97455,-0.76434 1.48384,-1.82758 2.31087,-2.67733c0.62425,-0.6414 1.5763,-0.85579 2.35288,-1.30078c1.21241,-0.69472 2.23113,-1.93535 3.39678,-2.62945c0.30986,-0.18451 0.71014,-0.16614 1.03294,-0.32691c1.08923,-0.54251 1.91497,-0.99701 3.08044,-1.4007c1.65318,0 2.87573,-0.84738 4.4516,-1.11107c0.25777,-0.04313 0.51913,-0.05173 0.78077,-0.04602c0.02232,2.61246 0.25608,5.46632 1.62513,7.7735c0.38823,0.65426 1.10769,1.09208 1.44104,1.77594c0.74319,1.52461 1.28782,2.94321 2.34211,4.26479c1.46743,1.83948 2.15556,3.54531 4.49844,4.37314c0.7986,0.25818 1.60795,0.3975 2.44737,0.40899c-0.02308,0.06094 -0.01152,0.1301 -0.03754,0.19007c-0.17721,0.4085 -0.56598,0.70357 -0.74139,1.11285c-0.20058,0.46803 -0.17323,1.01439 -0.3711,1.48357c-0.41798,0.9911 -1.63715,2.73285 -2.60627,3.29582c-0.3377,0.19617 -0.77736,0.17046 -1.11224,0.37139c-0.29953,0.17972 -0.44437,0.55882 -0.74186,0.7419c-0.60482,0.37224 -1.35701,0.42719 -2.03076,0.65177c-1.482,0.494 -2.96928,0.9908 -4.45128,1.4848l-0.86352,0.42111c0,0 -0.5235,0.26152 -0.53101,0.78415c-0.98702,0.17174 -1.96415,0.41881 -2.98651,0.24212c-0.75109,-0.1298 -1.48254,-0.31618 -2.217,-0.46943c-0.05676,-0.23232 -0.21703,-0.47714 -0.60623,-0.60687c-0.57545,-0.19181 -0.90087,0.11854 -1.05611,0.35581z" data-paper-data="{&quot;noHover&quot;:false,&quot;origItem&quot;:[&quot;Path&quot;,{&quot;applyMatrix&quot;:true,&quot;segments&quot;:[[[188.79057,221.12829],[-1.55317,-0.51772],[1.05046,0.35015]],[[190.42435,222.76583],[-0.15321,-0.62705],[1.98234,0.41364]],[[196.40046,224.03228],[-2.02725,-0.35035],[2.75941,0.47688]],[[204.4511,223.37986],[-2.66402,0.46355],[0.02025,-1.41062]],[205.88197,221.26393],[[208.20943,220.12829],[0,0],[4,-1.33333]],[[220.20943,216.12829],[-4,1.33333],[1.81849,-0.60616]],[[225.68567,214.37337],[-1.63245,1.0047],[0.80293,-0.49416]],[[227.68567,212.37337],[-0.80845,0.48507],[0.90388,-0.54233]],[[230.68567,211.37337],[-0.91146,0.52948],[2.61573,-1.5195]],[[237.71371,202.48862],[-1.12816,2.67504],[0.53407,-1.26636]],[[238.71371,198.48862],[-0.54139,1.26324],[0.47343,-1.10467]],[[240.71371,195.48862],[-0.4783,1.10257],[0.07022,-0.16188]],[[240.91226,194.99898],[-0.06229,0.16449],[-2.26565,-0.03103]],[[234.20943,193.87171],[2.15546,0.69685],[-6.32358,-2.23437]],[[222.06664,182.08497],[3.96069,4.96486],[-2.84558,-3.56703]],[[215.75421,170.59838],[2.00591,4.11503],[-0.89975,-1.84578]],[[211.87337,165.81433],[1.04787,1.7659],[-3.69517,-6.22721]],[[207.50544,144.84291],[0.06024,7.05118],[-0.7062,-0.01542]],[[205.40046,144.96772],[0.69574,-0.11642],[-4.25339,0.71173]],[[193.40046,147.96772],[4.46203,0],[-3.14568,1.08957]],[[185.09838,151.74579],[2.93991,-1.46427],[-0.87127,0.43395]],[[182.31433,152.62663],[0.83632,-0.498],[-3.14614,1.87341]],[[173.16027,159.71445],[3.27238,-1.8751],[-2.09604,1.20105]],[[166.81613,163.21804],[1.6849,-1.73119],[-2.2322,2.29353]],[[160.58497,170.43336],[2.63037,-2.06299],[-0.79815,0.62599]],[[157.98677,172.01748],[0.64924,-0.77935],[-0.50241,0.60309]],[[157.37171,174.29057],[0.22987,-0.75053],[-1.1614,3.7919]],[[154.5,185.5],[-0.04958,-3.99262],[0,0]],[[152,188],[2.5,0],[-0.16144,0]],[[151.54627,187.97007],[0.14127,0.0195],[0.213,3.03613]],[[154.12663,197.18567],[-1.44584,-2.34923],[0.49416,0.80293]],[[156.12663,199.18567],[-0.48507,-0.80845],[0.54233,0.90388]],[[157.12663,202.18567],[-0.53797,-0.90648],[0.60914,1.0264]],[[159.33126,205.07672],[-0.8331,-0.91364],[0,0]],[161,205],[[163.5,207.5],[0,-2.5],[1.23173,0.92379]],[[164.38061,210.25634],[0.25534,-0.71911],[0.18971,0.21732]],[[164.93336,210.91503],[-0.17841,-0.22198],[0.38845,0.48331]],[[168.31433,215.37337],[-1.10278,-0.61881],[0.91925,0.51583]],[[171.31433,216.37337],[-0.90388,-0.54233],[0.80845,0.48507]],[[173.31433,218.37337],[-0.80293,-0.49416],[0.0552,0.03397]],[[173.4817,218.47409],[-0.05637,-0.03318],[0.49894,-0.41863]],[[175.79057,218.12829],[-1.06411,-0.3547],[1.24229,0.4141]],[[177.48268,220.10393],[-0.07514,-0.71364],[2.35092,0.70759]],[[184.40046,222.03228],[-2.02867,-0.70267],[0.51957,0]],[[185.94329,222.08942],[-0.50938,-0.03686],[0.41903,-0.64041]]],&quot;closed&quot;:true}]}" fill="#9a9a9a" stroke-width="0.5"></path><path d="M245.80684,240.55916c0.93887,0.2851 1.92844,0.5163 2.75762,0.78437c0.07289,0 0.14572,0.00146 0.218,0.0036c-0.63099,1.69982 -1.63698,3.30251 -2.63738,4.81495c-0.79272,0.78528 -1.47419,1.42282 -2.40873,2.04787c-0.21159,0.14152 -1.25943,0.95416 -1.71518,0.95416c-0.52677,0 -1.54624,-0.91586 -1.82211,-1.02208c-0.21514,-0.08284 -0.55199,0.23035 -0.6908,0.04629c-0.11712,-0.15531 0.3295,-0.23273 0.42058,-0.40461c0.1497,-0.2825 0.11209,-0.64655 0.27841,-0.9196c0.16067,-0.26379 0.47572,-0.40092 0.6688,-0.642c0.25953,-0.32407 0.38477,-0.75511 0.67835,-1.04869c1.17299,-1.17299 2.96441,-2.03124 3.86321,-3.52191c0.0358,-0.05937 0.20916,-0.55999 0.38922,-1.09236z" data-paper-data="{&quot;noHover&quot;:false,&quot;origItem&quot;:[&quot;Path&quot;,{&quot;applyMatrix&quot;:true,&quot;segments&quot;:[[[175.12663,227.81433],[0.09662,-0.16025],[-2.42591,4.02342]],[[164.76777,237.26777],[3.16598,-3.16598],[-0.79238,0.79238]],[[162.93336,240.08497],[0.70049,-0.87468],[-0.52112,0.65071]],[[161.12663,241.81433],[0.43367,-0.71198],[-0.44889,0.73697]],[[160.37171,244.29057],[0.40405,-0.76248],[-0.24583,0.46391]],[[159.23607,245.38197],[-0.31611,-0.41919],[0.37464,0.49681]],[[161.09838,245.25421],[-0.58067,-0.22359],[0.74457,0.2867]],[[166,248],[-1.42179,0],[1.23012,0]],[[170.61325,245.41987],[-0.57109,0.38197],[2.52238,-1.68706]],[[177.06664,239.91503],[-2.13959,2.11953],[2.70014,-4.08217]],[[184.18721,226.9765],[-1.70308,4.58792],[-0.19506,-0.00578]],[[183.59954,226.96772],[0.19673,0],[-2.23802,-0.72354]],[[176.17759,224.86615],[2.53407,0.76951],[-0.48599,1.4369]]],&quot;closed&quot;:true}]}" fill="#ff0000" stroke-width="0.5"></path><path d="M240.2862,236.6613c0.43544,0.57136 0.60854,1.02594 1.00205,1.44797c-1.23703,0.45441 -2.4116,1.23139 -3.51463,1.9667c-0.2728,0.18186 -0.40866,0.5319 -0.6881,0.70338c-0.41963,0.25751 -0.98749,0.3503 -1.54437,0.45554c1.60194,-1.49437 3.30274,-2.94612 4.74504,-4.57358z" data-paper-data="{&quot;noHover&quot;:false,&quot;origItem&quot;:[&quot;Path&quot;,{&quot;applyMatrix&quot;:true,&quot;segments&quot;:[[[148.5271,226.61223],[4.32373,-4.03339],[1.50305,-0.28403]],[[152.68567,225.37337],[-1.1326,0.69503],[0.75422,-0.46283]],[[154.53822,223.47189],[-0.7363,0.49084],[2.97713,-1.98464]],[[163.95175,218.22115],[-3.33883,1.22648],[-1.06212,-1.13908]],[[161.26347,214.33766],[1.17527,1.54213],[-3.89286,4.39264]]],&quot;closed&quot;:true}]}" fill="#ff0000" stroke-width="0.5"></path><path d="M234.8937,227.43949c0.09388,0.79976 0.27937,1.6614 0.5474,2.44456c-0.20085,-0.00491 -0.35519,0.04679 -0.35519,0.04679l-1.11179,0.37247c-1.1115,0.3705 -2.23288,0.75385 -3.34437,1.12435c-1.57601,0.54589 -3.374,0.23249 -4.93544,-0.35689c-0.39889,-0.15056 -0.66942,-0.55049 -1.06015,-0.7211c-0.23559,-0.10287 -0.53237,0.02396 -0.76715,-0.08072c-0.25221,-0.11245 0.35207,-0.43571 0.57664,-0.5964c1.0438,-0.74687 2.03399,-0.81984 3.15648,-1.37611c1.01587,-0.50343 0.93825,-0.88032 1.98027,-1.03887c1.51357,-0.23029 3.71635,-0.21489 5.31332,0.18192z" data-paper-data="{&quot;noHover&quot;:false,&quot;origItem&quot;:[&quot;Path&quot;,{&quot;applyMatrix&quot;:true,&quot;segments&quot;:[[[132.40046,188.96772],[4.08523,-0.62157],[-2.81248,0.42792]],[[127.09838,191.74579],[2.74191,-1.35879],[-3.02966,1.50139]],[[118.58497,195.43336],[2.81728,-2.01586],[-0.60613,0.4337]],[[117.02811,197.03822],[-0.68072,-0.30351],[0.6337,0.28254]],[[119.09838,197.25421],[-0.63586,-0.27765],[1.05462,0.4605]],[[121.95671,199.1903],[-1.07663,-0.40638],[4.21444,1.59078]],[[135.20943,200.12829],[-4.25375,1.47338],[3,-1]],[[144.20943,197.12829],[-3,1],[0,0]],[147.20943,196.12829],[[148.16806,196.00269],[-0.54212,-0.01324],[-0.72343,-2.11381]],[[146.6936,189.42623],[0.25338,2.15859],[-4.31034,-1.07101]]],&quot;closed&quot;:true}]}" fill="#ff0000" stroke-width="0.5"></path><path d="M259.23293,210.96239c1.23582,-0.03627 2.61152,-0.16827 3.79683,-0.0011c1.56282,0.22041 2.7803,0.98864 4.11213,1.73894c0.86265,0.48598 2.43684,0.96766 3.01183,1.90924c0.54062,0.8853 0.09498,2.05191 0.24838,3.00299c0.18567,1.1512 0.41447,2.36999 0.77665,3.49026c0.6917,1.997 -0.20042,3.8004 -0.75891,5.75647c-0.07643,0.2677 -0.13544,0.54182 -0.18832,0.81681c-0.02226,-0.00147 -0.03491,-0.00144 -0.03491,-0.00144l-0.37104,0.0003c-0.65226,0.0081 -1.31683,-0.10814 -1.93321,-0.32163c-1.89527,-0.5778 -2.49189,-2.32497 -3.66222,-3.78366c-0.95217,-1.18677 -1.42008,-2.53808 -2.12117,-3.91099c-0.3733,-0.73102 -1.09834,-1.23951 -1.52534,-1.94053c-0.36944,-0.60654 -0.42341,-1.35969 -0.648,-2.03344c-0.23136,-0.69409 -0.58282,-1.3592 -0.70357,-2.0808c-0.13524,-0.80818 -0.03718,-1.77095 0.00086,-2.64143z" data-paper-data="{&quot;noHover&quot;:false,&quot;origItem&quot;:[&quot;Path&quot;,{&quot;applyMatrix&quot;:true,&quot;segments&quot;:[[[212.46772,152.09954],[-0.36501,-2.18133],[0.32591,1.94765]],[[214.37171,157.70943],[-0.62446,-1.87339],[0.60616,1.81849]],[[216.12663,163.18567],[-0.99715,-1.63708],[1.15248,1.89208]],[[220.24579,168.40162],[-1.00756,-1.97307],[1.89228,3.70557]],[[225.93336,178.91503],[-2.56996,-3.20316],[3.1588,3.93708]],[[235.79057,189.12829],[-5.11545,-1.55952],[1.66365,0.57624]],[[241,190],[-1.76048,0.02186],[0,0]],[242,190],[[242.09409,190.00397],[-0.06008,-0.00397],[0.14272,-0.74221]],[[242.5997,187.80103],[-0.2063,0.72254],[1.5074,-5.27956]],[[244.62829,172.29057],[1.86695,5.39003],[-0.97755,-3.02369]],[[242.53228,162.90046],[0.50113,3.10717],[-0.41402,-2.56704]],[[241.87337,154.81433],[1.45918,2.38948],[-1.55195,-2.54139]],[[233.76678,149.67467],[2.32835,1.31169],[-3.59469,-2.02509]],[[222.69454,144.98127],[4.21816,0.59489],[-3.19922,-0.45119]],[[212.46299,144.97641],[3.33556,-0.09789],[-0.10267,2.34946]]],&quot;closed&quot;:true}]}" fill="#ff0000" stroke-width="0.5"></path></g></g></svg>